<?xml version="1.0" encoding="utf-8" standalone="no"?>
<!DOCTYPE svg PUBLIC "-//W3C//DTD SVG 1.1//EN"
  "http://www.w3.org/Graphics/SVG/1.1/DTD/svg11.dtd">
<!-- Created with matplotlib (http://matplotlib.org/) -->
<svg height="430.359375pt" version="1.1" viewBox="0 0 696.4 430.359375" width="696.4pt" xmlns="http://www.w3.org/2000/svg" xmlns:xlink="http://www.w3.org/1999/xlink">
 <defs>
  <style type="text/css">
*{stroke-linecap:butt;stroke-linejoin:round;}
  </style>
 </defs>
 <g id="figure_1">
  <g id="patch_1">
   <path d="M -0 430.359375 
L 696.4 430.359375 
L 696.4 -0 
L -0 -0 
z
" style="fill:#ffffff;"/>
  </g>
  <g id="axes_1">
   <g id="patch_2">
    <path d="M 51.7 159.065625 
L 330.7 159.065625 
L 330.7 33.065625 
L 51.7 33.065625 
z
" style="fill:#ffffff;"/>
   </g>
   <g id="patch_3">
    <path clip-path="url(#pba7e071450)" d="M 64.381818 159.065625 
L 70.896451 159.065625 
L 70.896451 39.065625 
L 64.381818 39.065625 
z
" style="fill:#00ff00;stroke:#000000;stroke-linejoin:miter;"/>
   </g>
   <g id="patch_4">
    <path clip-path="url(#pba7e071450)" d="M 173.827646 159.065625 
L 180.342279 159.065625 
L 180.342279 39.065625 
L 173.827646 39.065625 
z
" style="fill:#00ff00;stroke:#000000;stroke-linejoin:miter;"/>
   </g>
   <g id="patch_5">
    <path clip-path="url(#pba7e071450)" d="M 283.273474 159.065625 
L 289.788107 159.065625 
L 289.788107 39.065625 
L 283.273474 39.065625 
z
" style="fill:#00ff00;stroke:#000000;stroke-linejoin:miter;"/>
   </g>
   <g id="patch_6">
    <path clip-path="url(#pba7e071450)" d="M 70.896451 159.065625 
L 77.411083 159.065625 
L 77.411083 101.236901 
L 70.896451 101.236901 
z
" style="fill:url(#h22b59963d0);stroke:#000000;stroke-linejoin:miter;"/>
   </g>
   <g id="patch_7">
    <path clip-path="url(#pba7e071450)" d="M 180.342279 159.065625 
L 186.856912 159.065625 
L 186.856912 56.901545 
L 180.342279 56.901545 
z
" style="fill:url(#h22b59963d0);stroke:#000000;stroke-linejoin:miter;"/>
   </g>
   <g id="patch_8">
    <path clip-path="url(#pba7e071450)" d="M 289.788107 159.065625 
L 296.30274 159.065625 
L 296.30274 49.191049 
L 289.788107 49.191049 
z
" style="fill:url(#h22b59963d0);stroke:#000000;stroke-linejoin:miter;"/>
   </g>
   <g id="patch_9">
    <path clip-path="url(#pba7e071450)" d="M 86.09726 159.065625 
L 92.611893 159.065625 
L 92.611893 39.065625 
L 86.09726 39.065625 
z
" style="fill:#ee82ee;stroke:#000000;stroke-linejoin:miter;"/>
   </g>
   <g id="patch_10">
    <path clip-path="url(#pba7e071450)" d="M 195.543088 159.065625 
L 202.057721 159.065625 
L 202.057721 39.065625 
L 195.543088 39.065625 
z
" style="fill:#ee82ee;stroke:#000000;stroke-linejoin:miter;"/>
   </g>
   <g id="patch_11">
    <path clip-path="url(#pba7e071450)" d="M 304.988917 159.065625 
L 311.503549 159.065625 
L 311.503549 39.065625 
L 304.988917 39.065625 
z
" style="fill:#ee82ee;stroke:#000000;stroke-linejoin:miter;"/>
   </g>
   <g id="patch_12">
    <path clip-path="url(#pba7e071450)" d="M 92.611893 159.065625 
L 99.126526 159.065625 
L 99.126526 93.526404 
L 92.611893 93.526404 
z
" style="fill:url(#hb5415e7eca);stroke:#000000;stroke-linejoin:miter;"/>
   </g>
   <g id="patch_13">
    <path clip-path="url(#pba7e071450)" d="M 202.057721 159.065625 
L 208.572354 159.065625 
L 208.572354 83.888283 
L 202.057721 83.888283 
z
" style="fill:url(#hb5415e7eca);stroke:#000000;stroke-linejoin:miter;"/>
   </g>
   <g id="patch_14">
    <path clip-path="url(#pba7e071450)" d="M 311.503549 159.065625 
L 318.018182 159.065625 
L 318.018182 41.480552 
L 311.503549 41.480552 
z
" style="fill:url(#hb5415e7eca);stroke:#000000;stroke-linejoin:miter;"/>
   </g>
   <g id="matplotlib.axis_1">
    <g id="xtick_1">
     <g id="line2d_1">
      <defs>
       <path d="M 0 0 
L 0 3.5 
" id="m46cd7c5769" style="stroke:#000000;stroke-width:0.8;"/>
      </defs>
      <g>
       <use style="stroke:#000000;stroke-width:0.8;" x="81.754172" xlink:href="#m46cd7c5769" y="159.065625"/>
      </g>
     </g>
     <g id="text_1">
      <!-- 168 -->
      <defs>
       <path d="M 11.71875 59.71875 
L 27.828125 67.578125 
L 29.4375 67.578125 
L 29.4375 11.671875 
Q 29.4375 6.109375 29.90625 4.734375 
Q 30.375 3.375 31.828125 2.640625 
Q 33.296875 1.90625 37.796875 1.8125 
L 37.796875 0 
L 12.890625 0 
L 12.890625 1.8125 
Q 17.578125 1.90625 18.9375 2.609375 
Q 20.3125 3.328125 20.84375 4.515625 
Q 21.390625 5.71875 21.390625 11.671875 
L 21.390625 47.40625 
Q 21.390625 54.640625 20.90625 56.6875 
Q 20.5625 58.25 19.65625 58.984375 
Q 18.75 59.71875 17.484375 59.71875 
Q 15.671875 59.71875 12.453125 58.203125 
z
" id="TimesNewRomanPSMT-31"/>
       <path d="M 44.828125 67.578125 
L 44.828125 65.765625 
Q 38.375 65.140625 34.296875 63.203125 
Q 30.21875 61.28125 26.234375 57.328125 
Q 22.265625 53.375 19.65625 48.515625 
Q 17.046875 43.65625 15.28125 36.96875 
Q 22.3125 41.796875 29.390625 41.796875 
Q 36.1875 41.796875 41.15625 36.328125 
Q 46.140625 30.859375 46.140625 22.265625 
Q 46.140625 13.96875 41.109375 7.125 
Q 35.0625 -1.171875 25.09375 -1.171875 
Q 18.3125 -1.171875 13.578125 3.328125 
Q 4.296875 12.0625 4.296875 25.984375 
Q 4.296875 34.859375 7.859375 42.859375 
Q 11.421875 50.875 18.03125 57.078125 
Q 24.65625 63.28125 30.703125 65.421875 
Q 36.765625 67.578125 42 67.578125 
z
M 14.453125 33.40625 
Q 13.578125 26.8125 13.578125 22.75 
Q 13.578125 18.0625 15.3125 12.5625 
Q 17.046875 7.078125 20.453125 3.859375 
Q 22.953125 1.5625 26.515625 1.5625 
Q 30.765625 1.5625 34.109375 5.5625 
Q 37.453125 9.578125 37.453125 17 
Q 37.453125 25.34375 34.125 31.4375 
Q 30.8125 37.546875 24.703125 37.546875 
Q 22.859375 37.546875 20.734375 36.765625 
Q 18.609375 35.984375 14.453125 33.40625 
z
" id="TimesNewRomanPSMT-36"/>
       <path d="M 19.1875 33.34375 
Q 11.328125 39.796875 9.046875 43.703125 
Q 6.78125 47.609375 6.78125 51.8125 
Q 6.78125 58.25 11.765625 62.90625 
Q 16.75 67.578125 25 67.578125 
Q 33.015625 67.578125 37.890625 63.234375 
Q 42.78125 58.890625 42.78125 53.328125 
Q 42.78125 49.609375 40.140625 45.75 
Q 37.5 41.890625 29.15625 36.671875 
Q 37.75 30.03125 40.53125 26.21875 
Q 44.234375 21.234375 44.234375 15.71875 
Q 44.234375 8.734375 38.90625 3.78125 
Q 33.59375 -1.171875 24.953125 -1.171875 
Q 15.53125 -1.171875 10.25 4.734375 
Q 6.0625 9.46875 6.0625 15.09375 
Q 6.0625 19.484375 9.015625 23.796875 
Q 11.96875 28.125 19.1875 33.34375 
z
M 26.859375 38.578125 
Q 32.71875 43.84375 34.28125 46.890625 
Q 35.84375 49.953125 35.84375 53.8125 
Q 35.84375 58.9375 32.953125 61.84375 
Q 30.078125 64.75 25.09375 64.75 
Q 20.125 64.75 17 61.859375 
Q 13.875 58.984375 13.875 55.125 
Q 13.875 52.59375 15.15625 50.046875 
Q 16.453125 47.515625 18.84375 45.21875 
z
M 21.484375 31.5 
Q 17.4375 28.078125 15.484375 24.046875 
Q 13.53125 20.015625 13.53125 15.328125 
Q 13.53125 9.03125 16.96875 5.25 
Q 20.40625 1.46875 25.734375 1.46875 
Q 31 1.46875 34.171875 4.4375 
Q 37.359375 7.421875 37.359375 11.671875 
Q 37.359375 15.1875 35.5 17.96875 
Q 32.03125 23.140625 21.484375 31.5 
z
" id="TimesNewRomanPSMT-38"/>
      </defs>
      <g transform="translate(59.254172 186.896875)scale(0.3 -0.3)">
       <use xlink:href="#TimesNewRomanPSMT-31"/>
       <use x="50" xlink:href="#TimesNewRomanPSMT-36"/>
       <use x="100" xlink:href="#TimesNewRomanPSMT-38"/>
      </g>
     </g>
    </g>
    <g id="xtick_2">
     <g id="line2d_2">
      <g>
       <use style="stroke:#000000;stroke-width:0.8;" x="191.2" xlink:href="#m46cd7c5769" y="159.065625"/>
      </g>
     </g>
     <g id="text_2">
      <!-- 336 -->
      <defs>
       <path d="M 5.078125 53.609375 
Q 7.90625 60.296875 12.21875 63.9375 
Q 16.546875 67.578125 23 67.578125 
Q 30.953125 67.578125 35.203125 62.40625 
Q 38.421875 58.546875 38.421875 54.15625 
Q 38.421875 46.921875 29.34375 39.203125 
Q 35.453125 36.8125 38.578125 32.375 
Q 41.703125 27.9375 41.703125 21.921875 
Q 41.703125 13.328125 36.234375 7.03125 
Q 29.109375 -1.171875 15.578125 -1.171875 
Q 8.890625 -1.171875 6.46875 0.484375 
Q 4.046875 2.15625 4.046875 4.046875 
Q 4.046875 5.46875 5.1875 6.546875 
Q 6.34375 7.625 7.953125 7.625 
Q 9.1875 7.625 10.453125 7.234375 
Q 11.28125 6.984375 14.203125 5.4375 
Q 17.140625 3.90625 18.265625 3.609375 
Q 20.0625 3.078125 22.125 3.078125 
Q 27.09375 3.078125 30.78125 6.9375 
Q 34.46875 10.796875 34.46875 16.0625 
Q 34.46875 19.921875 32.765625 23.578125 
Q 31.5 26.3125 29.984375 27.734375 
Q 27.875 29.6875 24.21875 31.265625 
Q 20.5625 32.859375 16.75 32.859375 
L 15.1875 32.859375 
L 15.1875 34.328125 
Q 19.046875 34.8125 22.921875 37.109375 
Q 26.8125 39.40625 28.5625 42.625 
Q 30.328125 45.84375 30.328125 49.703125 
Q 30.328125 54.734375 27.171875 57.828125 
Q 24.03125 60.9375 19.34375 60.9375 
Q 11.765625 60.9375 6.6875 52.828125 
z
" id="TimesNewRomanPSMT-33"/>
      </defs>
      <g transform="translate(168.7 186.896875)scale(0.3 -0.3)">
       <use xlink:href="#TimesNewRomanPSMT-33"/>
       <use x="50" xlink:href="#TimesNewRomanPSMT-33"/>
       <use x="100" xlink:href="#TimesNewRomanPSMT-36"/>
      </g>
     </g>
    </g>
    <g id="xtick_3">
     <g id="line2d_3">
      <g>
       <use style="stroke:#000000;stroke-width:0.8;" x="300.645828" xlink:href="#m46cd7c5769" y="159.065625"/>
      </g>
     </g>
     <g id="text_3">
      <!-- 504 -->
      <defs>
       <path d="M 43.40625 66.21875 
L 39.59375 57.90625 
L 19.671875 57.90625 
L 15.328125 49.03125 
Q 28.265625 47.125 35.84375 39.40625 
Q 42.328125 32.765625 42.328125 23.78125 
Q 42.328125 18.5625 40.203125 14.109375 
Q 38.09375 9.671875 34.859375 6.546875 
Q 31.640625 3.421875 27.6875 1.515625 
Q 22.078125 -1.171875 16.15625 -1.171875 
Q 10.203125 -1.171875 7.484375 0.84375 
Q 4.78125 2.875 4.78125 5.328125 
Q 4.78125 6.6875 5.90625 7.734375 
Q 7.03125 8.796875 8.734375 8.796875 
Q 10.015625 8.796875 10.96875 8.40625 
Q 11.921875 8.015625 14.203125 6.390625 
Q 17.875 3.859375 21.625 3.859375 
Q 27.34375 3.859375 31.65625 8.171875 
Q 35.984375 12.5 35.984375 18.703125 
Q 35.984375 24.703125 32.125 29.90625 
Q 28.265625 35.109375 21.484375 37.9375 
Q 16.15625 40.140625 6.984375 40.484375 
L 19.671875 66.21875 
z
" id="TimesNewRomanPSMT-35"/>
       <path d="M 3.609375 32.71875 
Q 3.609375 44.046875 7.03125 52.21875 
Q 10.453125 60.40625 16.109375 64.40625 
Q 20.515625 67.578125 25.203125 67.578125 
Q 32.8125 67.578125 38.875 59.8125 
Q 46.4375 50.203125 46.4375 33.734375 
Q 46.4375 22.21875 43.109375 14.15625 
Q 39.796875 6.109375 34.640625 2.46875 
Q 29.5 -1.171875 24.703125 -1.171875 
Q 15.234375 -1.171875 8.9375 10.015625 
Q 3.609375 19.4375 3.609375 32.71875 
z
M 13.1875 31.5 
Q 13.1875 17.828125 16.546875 9.1875 
Q 19.34375 1.90625 24.859375 1.90625 
Q 27.484375 1.90625 30.3125 4.265625 
Q 33.15625 6.640625 34.625 12.203125 
Q 36.859375 20.609375 36.859375 35.890625 
Q 36.859375 47.21875 34.515625 54.78125 
Q 32.765625 60.40625 29.984375 62.75 
Q 27.984375 64.359375 25.140625 64.359375 
Q 21.828125 64.359375 19.234375 61.375 
Q 15.71875 57.328125 14.453125 48.625 
Q 13.1875 39.9375 13.1875 31.5 
z
" id="TimesNewRomanPSMT-30"/>
       <path d="M 46.53125 24.421875 
L 46.53125 17.484375 
L 37.640625 17.484375 
L 37.640625 0 
L 29.59375 0 
L 29.59375 17.484375 
L 1.5625 17.484375 
L 1.5625 23.734375 
L 32.28125 67.578125 
L 37.640625 67.578125 
L 37.640625 24.421875 
z
M 29.59375 24.421875 
L 29.59375 57.28125 
L 6.34375 24.421875 
z
" id="TimesNewRomanPSMT-34"/>
      </defs>
      <g transform="translate(278.145828 186.896875)scale(0.3 -0.3)">
       <use xlink:href="#TimesNewRomanPSMT-35"/>
       <use x="50" xlink:href="#TimesNewRomanPSMT-30"/>
       <use x="100" xlink:href="#TimesNewRomanPSMT-34"/>
      </g>
     </g>
    </g>
   </g>
   <g id="matplotlib.axis_2">
    <g id="ytick_1">
     <g id="line2d_4">
      <defs>
       <path d="M 0 0 
L -3.5 0 
" id="md0ebf8dca6" style="stroke:#000000;stroke-width:0.8;"/>
      </defs>
      <g>
       <use style="stroke:#000000;stroke-width:0.8;" x="51.7" xlink:href="#md0ebf8dca6" y="159.065625"/>
      </g>
     </g>
     <g id="text_4">
      <!-- 0.0 -->
      <defs>
       <path d="M 12.5 9.46875 
Q 14.796875 9.46875 16.359375 7.875 
Q 17.921875 6.296875 17.921875 4.046875 
Q 17.921875 1.8125 16.328125 0.21875 
Q 14.75 -1.375 12.5 -1.375 
Q 10.25 -1.375 8.65625 0.21875 
Q 7.078125 1.8125 7.078125 4.046875 
Q 7.078125 6.34375 8.65625 7.90625 
Q 10.25 9.46875 12.5 9.46875 
z
" id="TimesNewRomanPSMT-2e"/>
      </defs>
      <g transform="translate(7.2 169.48125)scale(0.3 -0.3)">
       <use xlink:href="#TimesNewRomanPSMT-30"/>
       <use x="50" xlink:href="#TimesNewRomanPSMT-2e"/>
       <use x="75" xlink:href="#TimesNewRomanPSMT-30"/>
      </g>
     </g>
    </g>
    <g id="ytick_2">
     <g id="line2d_5">
      <g>
       <use style="stroke:#000000;stroke-width:0.8;" x="51.7" xlink:href="#md0ebf8dca6" y="120.513142"/>
      </g>
     </g>
     <g id="text_5">
      <!-- 0.2 -->
      <defs>
       <path d="M 45.84375 12.75 
L 41.21875 0 
L 2.15625 0 
L 2.15625 1.8125 
Q 19.390625 17.53125 26.421875 27.484375 
Q 33.453125 37.453125 33.453125 45.703125 
Q 33.453125 52 29.59375 56.046875 
Q 25.734375 60.109375 20.359375 60.109375 
Q 15.484375 60.109375 11.59375 57.25 
Q 7.71875 54.390625 5.859375 48.875 
L 4.046875 48.875 
Q 5.28125 57.90625 10.328125 62.734375 
Q 15.375 67.578125 22.953125 67.578125 
Q 31 67.578125 36.390625 62.40625 
Q 41.796875 57.234375 41.796875 50.203125 
Q 41.796875 45.171875 39.453125 40.140625 
Q 35.84375 32.234375 27.734375 23.390625 
Q 15.578125 10.109375 12.546875 7.375 
L 29.828125 7.375 
Q 35.109375 7.375 37.234375 7.765625 
Q 39.359375 8.15625 41.0625 9.34375 
Q 42.78125 10.546875 44.046875 12.75 
z
" id="TimesNewRomanPSMT-32"/>
      </defs>
      <g transform="translate(7.2 130.928767)scale(0.3 -0.3)">
       <use xlink:href="#TimesNewRomanPSMT-30"/>
       <use x="50" xlink:href="#TimesNewRomanPSMT-2e"/>
       <use x="75" xlink:href="#TimesNewRomanPSMT-32"/>
      </g>
     </g>
    </g>
    <g id="ytick_3">
     <g id="line2d_6">
      <g>
       <use style="stroke:#000000;stroke-width:0.8;" x="51.7" xlink:href="#md0ebf8dca6" y="81.960659"/>
      </g>
     </g>
     <g id="text_6">
      <!-- 0.4 -->
      <g transform="translate(7.2 92.376284)scale(0.3 -0.3)">
       <use xlink:href="#TimesNewRomanPSMT-30"/>
       <use x="50" xlink:href="#TimesNewRomanPSMT-2e"/>
       <use x="75" xlink:href="#TimesNewRomanPSMT-34"/>
      </g>
     </g>
    </g>
    <g id="ytick_4">
     <g id="line2d_7">
      <g>
       <use style="stroke:#000000;stroke-width:0.8;" x="51.7" xlink:href="#md0ebf8dca6" y="43.408176"/>
      </g>
     </g>
     <g id="text_7">
      <!-- 0.6 -->
      <g transform="translate(7.2 53.823801)scale(0.3 -0.3)">
       <use xlink:href="#TimesNewRomanPSMT-30"/>
       <use x="50" xlink:href="#TimesNewRomanPSMT-2e"/>
       <use x="75" xlink:href="#TimesNewRomanPSMT-36"/>
      </g>
     </g>
    </g>
   </g>
   <g id="LineCollection_1">
    <path clip-path="url(#pba7e071450)" d="M 67.639134 39.065625 
L 67.639134 39.065625 
" style="fill:none;stroke:#000000;stroke-width:1.5;"/>
    <path clip-path="url(#pba7e071450)" d="M 177.084963 39.065625 
L 177.084963 39.065625 
" style="fill:none;stroke:#000000;stroke-width:1.5;"/>
    <path clip-path="url(#pba7e071450)" d="M 286.530791 39.065625 
L 286.530791 39.065625 
" style="fill:none;stroke:#000000;stroke-width:1.5;"/>
   </g>
   <g id="LineCollection_2">
    <path clip-path="url(#pba7e071450)" d="M 74.153767 101.236901 
L 74.153767 101.236901 
" style="fill:none;stroke:#000000;stroke-width:1.5;"/>
    <path clip-path="url(#pba7e071450)" d="M 183.599595 56.901545 
L 183.599595 56.901545 
" style="fill:none;stroke:#000000;stroke-width:1.5;"/>
    <path clip-path="url(#pba7e071450)" d="M 293.045423 49.191049 
L 293.045423 49.191049 
" style="fill:none;stroke:#000000;stroke-width:1.5;"/>
   </g>
   <g id="LineCollection_3">
    <path clip-path="url(#pba7e071450)" d="M 89.354577 39.065625 
L 89.354577 39.065625 
" style="fill:none;stroke:#000000;stroke-width:1.5;"/>
    <path clip-path="url(#pba7e071450)" d="M 198.800405 39.065625 
L 198.800405 39.065625 
" style="fill:none;stroke:#000000;stroke-width:1.5;"/>
    <path clip-path="url(#pba7e071450)" d="M 308.246233 39.065625 
L 308.246233 39.065625 
" style="fill:none;stroke:#000000;stroke-width:1.5;"/>
   </g>
   <g id="LineCollection_4">
    <path clip-path="url(#pba7e071450)" d="M 95.869209 93.526404 
L 95.869209 93.526404 
" style="fill:none;stroke:#000000;stroke-width:1.5;"/>
    <path clip-path="url(#pba7e071450)" d="M 205.315037 83.888283 
L 205.315037 83.888283 
" style="fill:none;stroke:#000000;stroke-width:1.5;"/>
    <path clip-path="url(#pba7e071450)" d="M 314.760866 41.480552 
L 314.760866 41.480552 
" style="fill:none;stroke:#000000;stroke-width:1.5;"/>
   </g>
   <g id="line2d_8">
    <defs>
     <path d="M 5 0 
L -5 -0 
" id="ma344cc335b" style="stroke:#000000;"/>
    </defs>
    <g clip-path="url(#pba7e071450)">
     <use style="stroke:#000000;" x="67.639134" xlink:href="#ma344cc335b" y="39.065625"/>
     <use style="stroke:#000000;" x="177.084963" xlink:href="#ma344cc335b" y="39.065625"/>
     <use style="stroke:#000000;" x="286.530791" xlink:href="#ma344cc335b" y="39.065625"/>
    </g>
   </g>
   <g id="line2d_9">
    <g clip-path="url(#pba7e071450)">
     <use style="stroke:#000000;" x="67.639134" xlink:href="#ma344cc335b" y="39.065625"/>
     <use style="stroke:#000000;" x="177.084963" xlink:href="#ma344cc335b" y="39.065625"/>
     <use style="stroke:#000000;" x="286.530791" xlink:href="#ma344cc335b" y="39.065625"/>
    </g>
   </g>
   <g id="line2d_10">
    <g clip-path="url(#pba7e071450)">
     <use style="stroke:#000000;" x="74.153767" xlink:href="#ma344cc335b" y="101.236901"/>
     <use style="stroke:#000000;" x="183.599595" xlink:href="#ma344cc335b" y="56.901545"/>
     <use style="stroke:#000000;" x="293.045423" xlink:href="#ma344cc335b" y="49.191049"/>
    </g>
   </g>
   <g id="line2d_11">
    <g clip-path="url(#pba7e071450)">
     <use style="stroke:#000000;" x="74.153767" xlink:href="#ma344cc335b" y="101.236901"/>
     <use style="stroke:#000000;" x="183.599595" xlink:href="#ma344cc335b" y="56.901545"/>
     <use style="stroke:#000000;" x="293.045423" xlink:href="#ma344cc335b" y="49.191049"/>
    </g>
   </g>
   <g id="line2d_12">
    <g clip-path="url(#pba7e071450)">
     <use style="stroke:#000000;" x="89.354577" xlink:href="#ma344cc335b" y="39.065625"/>
     <use style="stroke:#000000;" x="198.800405" xlink:href="#ma344cc335b" y="39.065625"/>
     <use style="stroke:#000000;" x="308.246233" xlink:href="#ma344cc335b" y="39.065625"/>
    </g>
   </g>
   <g id="line2d_13">
    <g clip-path="url(#pba7e071450)">
     <use style="stroke:#000000;" x="89.354577" xlink:href="#ma344cc335b" y="39.065625"/>
     <use style="stroke:#000000;" x="198.800405" xlink:href="#ma344cc335b" y="39.065625"/>
     <use style="stroke:#000000;" x="308.246233" xlink:href="#ma344cc335b" y="39.065625"/>
    </g>
   </g>
   <g id="line2d_14">
    <g clip-path="url(#pba7e071450)">
     <use style="stroke:#000000;" x="95.869209" xlink:href="#ma344cc335b" y="93.526404"/>
     <use style="stroke:#000000;" x="205.315037" xlink:href="#ma344cc335b" y="83.888283"/>
     <use style="stroke:#000000;" x="314.760866" xlink:href="#ma344cc335b" y="41.480552"/>
    </g>
   </g>
   <g id="line2d_15">
    <g clip-path="url(#pba7e071450)">
     <use style="stroke:#000000;" x="95.869209" xlink:href="#ma344cc335b" y="93.526404"/>
     <use style="stroke:#000000;" x="205.315037" xlink:href="#ma344cc335b" y="83.888283"/>
     <use style="stroke:#000000;" x="314.760866" xlink:href="#ma344cc335b" y="41.480552"/>
    </g>
   </g>
   <g id="patch_15">
    <path d="M 51.7 159.065625 
L 51.7 33.065625 
" style="fill:none;stroke:#000000;stroke-linecap:square;stroke-linejoin:miter;stroke-width:0.8;"/>
   </g>
   <g id="patch_16">
    <path d="M 330.7 159.065625 
L 330.7 33.065625 
" style="fill:none;stroke:#000000;stroke-linecap:square;stroke-linejoin:miter;stroke-width:0.8;"/>
   </g>
   <g id="patch_17">
    <path d="M 51.7 159.065625 
L 330.7 159.065625 
" style="fill:none;stroke:#000000;stroke-linecap:square;stroke-linejoin:miter;stroke-width:0.8;"/>
   </g>
   <g id="patch_18">
    <path d="M 51.7 33.065625 
L 330.7 33.065625 
" style="fill:none;stroke:#000000;stroke-linecap:square;stroke-linejoin:miter;stroke-width:0.8;"/>
   </g>
   <g id="text_8">
    <!-- ALP -->
    <defs>
     <path d="M 41.609375 18.84375 
L 18.21875 18.84375 
L 15.4375 12.40625 
Q 14.0625 9.1875 14.0625 7.078125 
Q 14.0625 4.296875 16.3125 2.984375 
Q 17.625 2.203125 22.796875 1.8125 
L 22.796875 0 
L 0.78125 0 
L 0.78125 1.8125 
Q 4.34375 2.34375 6.640625 4.75 
Q 8.9375 7.171875 12.3125 14.75 
L 35.984375 67.578125 
L 36.921875 67.578125 
L 60.796875 13.28125 
Q 64.203125 5.5625 66.40625 3.5625 
Q 68.0625 2.046875 71.09375 1.8125 
L 71.09375 0 
L 39.0625 0 
L 39.0625 1.8125 
L 40.375 1.8125 
Q 44.234375 1.8125 45.796875 2.875 
Q 46.875 3.65625 46.875 5.125 
Q 46.875 6 46.578125 6.9375 
Q 46.484375 7.375 45.125 10.59375 
z
M 39.9375 22.46875 
L 30.078125 45.265625 
L 19.921875 22.46875 
z
" id="TimesNewRomanPS-BoldMT-41"/>
     <path d="M 63.140625 23.25 
L 60.640625 0 
L 1.859375 0 
L 1.859375 1.8125 
L 4.046875 1.8125 
Q 6.9375 1.8125 8.6875 2.828125 
Q 9.96875 3.515625 10.640625 5.171875 
Q 11.1875 6.34375 11.1875 11.328125 
L 11.1875 54.890625 
Q 11.1875 59.96875 10.640625 61.234375 
Q 10.109375 62.5 8.46875 63.453125 
Q 6.84375 64.40625 4.046875 64.40625 
L 1.859375 64.40625 
L 1.859375 66.21875 
L 37.15625 66.21875 
L 37.15625 64.40625 
L 34.28125 64.40625 
Q 31.390625 64.40625 29.640625 63.375 
Q 28.375 62.703125 27.640625 61.03125 
Q 27.09375 59.859375 27.09375 54.890625 
L 27.09375 12.703125 
Q 27.09375 7.625 27.671875 6.21875 
Q 28.265625 4.828125 29.984375 4.15625 
Q 31.203125 3.71875 35.890625 3.71875 
L 41.40625 3.71875 
Q 46.6875 3.71875 50.203125 5.5625 
Q 53.71875 7.421875 56.28125 11.421875 
Q 58.84375 15.4375 61.140625 23.25 
z
" id="TimesNewRomanPS-BoldMT-4c"/>
     <path d="M 27 29.984375 
L 27 11.625 
Q 27 6.25 27.65625 4.859375 
Q 28.328125 3.46875 30 2.640625 
Q 31.6875 1.8125 36.1875 1.8125 
L 36.1875 0 
L 2.546875 0 
L 2.546875 1.8125 
Q 7.125 1.8125 8.765625 2.65625 
Q 10.40625 3.515625 11.0625 4.875 
Q 11.71875 6.25 11.71875 11.625 
L 11.71875 54.59375 
Q 11.71875 59.96875 11.0625 61.359375 
Q 10.40625 62.75 8.734375 63.578125 
Q 7.078125 64.40625 2.546875 64.40625 
L 2.546875 66.21875 
L 31.390625 66.21875 
Q 45.65625 66.21875 51.859375 61.140625 
Q 58.0625 56.0625 58.0625 48.4375 
Q 58.0625 42 54.046875 37.40625 
Q 50.046875 32.8125 43.015625 31.15625 
Q 38.28125 29.984375 27 29.984375 
z
M 27 62.40625 
L 27 33.796875 
Q 28.609375 33.6875 29.4375 33.6875 
Q 35.40625 33.6875 38.625 37.21875 
Q 41.84375 40.765625 41.84375 48.1875 
Q 41.84375 55.5625 38.625 58.984375 
Q 35.40625 62.40625 29 62.40625 
z
" id="TimesNewRomanPS-BoldMT-50"/>
    </defs>
    <g transform="translate(161.2 27.065625)scale(0.3 -0.3)">
     <use xlink:href="#TimesNewRomanPS-BoldMT-41"/>
     <use x="72.216797" xlink:href="#TimesNewRomanPS-BoldMT-4c"/>
     <use x="138.916016" xlink:href="#TimesNewRomanPS-BoldMT-50"/>
    </g>
   </g>
   <g id="legend_1">
    <g id="patch_19">
     <path d="M 428.8375 271.959375 
L 683.2 271.959375 
Q 689.2 271.959375 689.2 265.959375 
L 689.2 99.065625 
Q 689.2 93.065625 683.2 93.065625 
L 428.8375 93.065625 
Q 422.8375 93.065625 422.8375 99.065625 
L 422.8375 265.959375 
Q 422.8375 271.959375 428.8375 271.959375 
z
" style="fill:#ffffff;opacity:0.8;stroke:#cccccc;stroke-linejoin:miter;"/>
    </g>
    <g id="patch_20">
     <path d="M 434.8375 126.065625 
L 494.8375 126.065625 
L 494.8375 105.065625 
L 434.8375 105.065625 
z
" style="fill:#00ff00;stroke:#000000;stroke-linejoin:miter;"/>
    </g>
    <g id="text_9">
     <!-- Sim_0.8 mM -->
     <defs>
      <path d="M 45.84375 67.71875 
L 45.84375 44.828125 
L 44.046875 44.828125 
Q 43.171875 51.421875 40.890625 55.328125 
Q 38.625 59.234375 34.421875 61.515625 
Q 30.21875 63.8125 25.734375 63.8125 
Q 20.65625 63.8125 17.328125 60.71875 
Q 14.015625 57.625 14.015625 53.65625 
Q 14.015625 50.640625 16.109375 48.140625 
Q 19.140625 44.484375 30.515625 38.375 
Q 39.796875 33.40625 43.1875 30.734375 
Q 46.578125 28.078125 48.40625 24.453125 
Q 50.25 20.84375 50.25 16.890625 
Q 50.25 9.375 44.40625 3.921875 
Q 38.578125 -1.515625 29.390625 -1.515625 
Q 26.515625 -1.515625 23.96875 -1.078125 
Q 22.46875 -0.828125 17.703125 0.703125 
Q 12.9375 2.25 11.671875 2.25 
Q 10.453125 2.25 9.734375 1.515625 
Q 9.03125 0.78125 8.6875 -1.515625 
L 6.890625 -1.515625 
L 6.890625 21.1875 
L 8.6875 21.1875 
Q 9.96875 14.0625 12.109375 10.515625 
Q 14.265625 6.984375 18.671875 4.640625 
Q 23.09375 2.296875 28.375 2.296875 
Q 34.46875 2.296875 38 5.515625 
Q 41.546875 8.734375 41.546875 13.140625 
Q 41.546875 15.578125 40.203125 18.0625 
Q 38.875 20.5625 36.03125 22.703125 
Q 34.125 24.171875 25.625 28.921875 
Q 17.140625 33.6875 13.546875 36.515625 
Q 9.96875 39.359375 8.109375 42.765625 
Q 6.25 46.1875 6.25 50.296875 
Q 6.25 57.421875 11.71875 62.5625 
Q 17.1875 67.71875 25.640625 67.71875 
Q 30.90625 67.71875 36.8125 65.140625 
Q 39.546875 63.921875 40.671875 63.921875 
Q 41.9375 63.921875 42.75 64.671875 
Q 43.5625 65.4375 44.046875 67.71875 
z
" id="TimesNewRomanPSMT-53"/>
      <path d="M 14.5 69.4375 
Q 16.546875 69.4375 17.984375 67.984375 
Q 19.4375 66.546875 19.4375 64.5 
Q 19.4375 62.453125 17.984375 60.984375 
Q 16.546875 59.515625 14.5 59.515625 
Q 12.453125 59.515625 10.984375 60.984375 
Q 9.515625 62.453125 9.515625 64.5 
Q 9.515625 66.546875 10.953125 67.984375 
Q 12.40625 69.4375 14.5 69.4375 
z
M 18.5625 46.046875 
L 18.5625 10.109375 
Q 18.5625 5.90625 19.171875 4.515625 
Q 19.78125 3.125 20.96875 2.4375 
Q 22.171875 1.765625 25.34375 1.765625 
L 25.34375 0 
L 3.609375 0 
L 3.609375 1.765625 
Q 6.890625 1.765625 8 2.390625 
Q 9.125 3.03125 9.78125 4.484375 
Q 10.453125 5.953125 10.453125 10.109375 
L 10.453125 27.34375 
Q 10.453125 34.625 10.015625 36.765625 
Q 9.671875 38.328125 8.9375 38.9375 
Q 8.203125 39.546875 6.9375 39.546875 
Q 5.5625 39.546875 3.609375 38.8125 
L 2.9375 40.578125 
L 16.40625 46.046875 
z
" id="TimesNewRomanPSMT-69"/>
      <path d="M 16.40625 36.53125 
Q 21.296875 41.40625 22.171875 42.140625 
Q 24.359375 44 26.890625 45.015625 
Q 29.4375 46.046875 31.9375 46.046875 
Q 36.140625 46.046875 39.15625 43.59375 
Q 42.1875 41.15625 43.21875 36.53125 
Q 48.25 42.390625 51.703125 44.21875 
Q 55.171875 46.046875 58.84375 46.046875 
Q 62.40625 46.046875 65.15625 44.21875 
Q 67.921875 42.390625 69.53125 38.234375 
Q 70.609375 35.40625 70.609375 29.34375 
L 70.609375 10.109375 
Q 70.609375 5.90625 71.234375 4.34375 
Q 71.734375 3.265625 73.046875 2.515625 
Q 74.359375 1.765625 77.34375 1.765625 
L 77.34375 0 
L 55.28125 0 
L 55.28125 1.765625 
L 56.203125 1.765625 
Q 59.078125 1.765625 60.6875 2.875 
Q 61.8125 3.65625 62.3125 5.375 
Q 62.5 6.203125 62.5 10.109375 
L 62.5 29.34375 
Q 62.5 34.8125 61.1875 37.0625 
Q 59.28125 40.1875 55.078125 40.1875 
Q 52.484375 40.1875 49.875 38.890625 
Q 47.265625 37.59375 43.5625 34.078125 
L 43.453125 33.546875 
L 43.5625 31.453125 
L 43.5625 10.109375 
Q 43.5625 5.515625 44.0625 4.390625 
Q 44.578125 3.265625 45.984375 2.515625 
Q 47.40625 1.765625 50.828125 1.765625 
L 50.828125 0 
L 28.21875 0 
L 28.21875 1.765625 
Q 31.9375 1.765625 33.328125 2.640625 
Q 34.71875 3.515625 35.25 5.28125 
Q 35.5 6.109375 35.5 10.109375 
L 35.5 29.34375 
Q 35.5 34.8125 33.890625 37.203125 
Q 31.734375 40.328125 27.875 40.328125 
Q 25.25 40.328125 22.65625 38.921875 
Q 18.609375 36.765625 16.40625 34.078125 
L 16.40625 10.109375 
Q 16.40625 5.71875 17.015625 4.390625 
Q 17.625 3.078125 18.8125 2.421875 
Q 20.015625 1.765625 23.6875 1.765625 
L 23.6875 0 
L 1.5625 0 
L 1.5625 1.765625 
Q 4.640625 1.765625 5.859375 2.421875 
Q 7.078125 3.078125 7.703125 4.515625 
Q 8.34375 5.953125 8.34375 10.109375 
L 8.34375 27.203125 
Q 8.34375 34.578125 7.90625 36.71875 
Q 7.5625 38.328125 6.828125 38.9375 
Q 6.109375 39.546875 4.828125 39.546875 
Q 3.46875 39.546875 1.5625 38.8125 
L 0.828125 40.578125 
L 14.3125 46.046875 
L 16.40625 46.046875 
z
" id="TimesNewRomanPSMT-6d"/>
      <path d="M 50.875 -21.578125 
L -0.828125 -21.578125 
L -0.828125 -17.484375 
L 50.875 -17.484375 
z
" id="TimesNewRomanPSMT-5f"/>
      <path id="TimesNewRomanPSMT-20"/>
      <path d="M 40.921875 0 
L 15.328125 55.71875 
L 15.328125 11.46875 
Q 15.328125 5.375 16.65625 3.859375 
Q 18.453125 1.8125 22.359375 1.8125 
L 24.703125 1.8125 
L 24.703125 0 
L 1.65625 0 
L 1.65625 1.8125 
L 4 1.8125 
Q 8.203125 1.8125 9.96875 4.34375 
Q 11.03125 5.90625 11.03125 11.46875 
L 11.03125 54.734375 
Q 11.03125 59.125 10.0625 61.078125 
Q 9.375 62.5 7.546875 63.453125 
Q 5.71875 64.40625 1.65625 64.40625 
L 1.65625 66.21875 
L 20.40625 66.21875 
L 44.4375 14.40625 
L 68.0625 66.21875 
L 86.8125 66.21875 
L 86.8125 64.40625 
L 84.515625 64.40625 
Q 80.28125 64.40625 78.515625 61.859375 
Q 77.4375 60.296875 77.4375 54.734375 
L 77.4375 11.46875 
Q 77.4375 5.375 78.8125 3.859375 
Q 80.609375 1.8125 84.515625 1.8125 
L 86.8125 1.8125 
L 86.8125 0 
L 58.6875 0 
L 58.6875 1.8125 
L 61.03125 1.8125 
Q 65.28125 1.8125 67 4.34375 
Q 68.0625 5.90625 68.0625 11.46875 
L 68.0625 55.71875 
L 42.53125 0 
z
" id="TimesNewRomanPSMT-4d"/>
     </defs>
     <g transform="translate(518.8375 126.065625)scale(0.3 -0.3)">
      <use xlink:href="#TimesNewRomanPSMT-53"/>
      <use x="55.615234" xlink:href="#TimesNewRomanPSMT-69"/>
      <use x="83.398438" xlink:href="#TimesNewRomanPSMT-6d"/>
      <use x="161.181641" xlink:href="#TimesNewRomanPSMT-5f"/>
      <use x="211.181641" xlink:href="#TimesNewRomanPSMT-30"/>
      <use x="261.181641" xlink:href="#TimesNewRomanPSMT-2e"/>
      <use x="286.181641" xlink:href="#TimesNewRomanPSMT-38"/>
      <use x="336.181641" xlink:href="#TimesNewRomanPSMT-20"/>
      <use x="361.181641" xlink:href="#TimesNewRomanPSMT-6d"/>
      <use x="438.964844" xlink:href="#TimesNewRomanPSMT-4d"/>
     </g>
    </g>
    <g id="patch_21">
     <path d="M 434.8375 168.539062 
L 494.8375 168.539062 
L 494.8375 147.539062 
L 434.8375 147.539062 
z
" style="fill:url(#h22b59963d0);stroke:#000000;stroke-linejoin:miter;"/>
    </g>
    <g id="text_10">
     <!-- Exp_0.8 mM -->
     <defs>
      <path d="M 20.90625 62.59375 
L 20.90625 36.421875 
L 35.453125 36.421875 
Q 41.109375 36.421875 43.015625 38.140625 
Q 45.5625 40.375 45.84375 46.046875 
L 47.65625 46.046875 
L 47.65625 23 
L 45.84375 23 
Q 45.171875 27.828125 44.484375 29.203125 
Q 43.609375 30.90625 41.59375 31.875 
Q 39.59375 32.859375 35.453125 32.859375 
L 20.90625 32.859375 
L 20.90625 11.03125 
Q 20.90625 6.640625 21.296875 5.6875 
Q 21.6875 4.734375 22.65625 4.171875 
Q 23.640625 3.609375 26.375 3.609375 
L 37.59375 3.609375 
Q 43.21875 3.609375 45.75 4.390625 
Q 48.296875 5.171875 50.640625 7.46875 
Q 53.65625 10.5 56.84375 16.609375 
L 58.796875 16.609375 
L 53.078125 0 
L 2.046875 0 
L 2.046875 1.8125 
L 4.390625 1.8125 
Q 6.734375 1.8125 8.84375 2.9375 
Q 10.40625 3.71875 10.96875 5.28125 
Q 11.53125 6.84375 11.53125 11.671875 
L 11.53125 54.6875 
Q 11.53125 60.984375 10.25 62.453125 
Q 8.5 64.40625 4.390625 64.40625 
L 2.046875 64.40625 
L 2.046875 66.21875 
L 53.078125 66.21875 
L 53.8125 51.703125 
L 51.90625 51.703125 
Q 50.875 56.9375 49.625 58.890625 
Q 48.390625 60.84375 45.953125 61.859375 
Q 44 62.59375 39.0625 62.59375 
z
" id="TimesNewRomanPSMT-45"/>
      <path d="M 1.3125 44.734375 
L 22.359375 44.734375 
L 22.359375 42.921875 
Q 20.359375 42.921875 19.546875 42.234375 
Q 18.75 41.546875 18.75 40.4375 
Q 18.75 39.265625 20.453125 36.8125 
Q 21 36.03125 22.078125 34.375 
L 25.25 29.296875 
L 28.90625 34.375 
Q 32.421875 39.203125 32.421875 40.484375 
Q 32.421875 41.5 31.59375 42.203125 
Q 30.765625 42.921875 28.90625 42.921875 
L 28.90625 44.734375 
L 44.046875 44.734375 
L 44.046875 42.921875 
Q 41.65625 42.78125 39.890625 41.609375 
Q 37.5 39.9375 33.34375 34.375 
L 27.25 26.21875 
L 38.375 10.203125 
Q 42.484375 4.296875 44.234375 3.09375 
Q 46 1.90625 48.78125 1.765625 
L 48.78125 0 
L 27.6875 0 
L 27.6875 1.765625 
Q 29.890625 1.765625 31.109375 2.734375 
Q 32.03125 3.421875 32.03125 4.546875 
Q 32.03125 5.671875 28.90625 10.203125 
L 22.359375 19.78125 
L 15.1875 10.203125 
Q 11.859375 5.765625 11.859375 4.9375 
Q 11.859375 3.765625 12.953125 2.8125 
Q 14.0625 1.859375 16.265625 1.765625 
L 16.265625 0 
L 1.65625 0 
L 1.65625 1.765625 
Q 3.421875 2 4.734375 2.984375 
Q 6.59375 4.390625 10.984375 10.203125 
L 20.359375 22.65625 
L 11.859375 34.96875 
Q 8.25 40.234375 6.265625 41.578125 
Q 4.296875 42.921875 1.3125 42.921875 
z
" id="TimesNewRomanPSMT-78"/>
      <path d="M -0.09375 40.28125 
L 13.671875 45.84375 
L 15.53125 45.84375 
L 15.53125 35.40625 
Q 19 41.3125 22.484375 43.671875 
Q 25.984375 46.046875 29.828125 46.046875 
Q 36.578125 46.046875 41.0625 40.765625 
Q 46.578125 34.328125 46.578125 23.96875 
Q 46.578125 12.40625 39.9375 4.828125 
Q 34.46875 -1.375 26.171875 -1.375 
Q 22.5625 -1.375 19.921875 -0.34375 
Q 17.96875 0.390625 15.53125 2.59375 
L 15.53125 -11.03125 
Q 15.53125 -15.625 16.09375 -16.859375 
Q 16.65625 -18.109375 18.046875 -18.84375 
Q 19.4375 -19.578125 23.09375 -19.578125 
L 23.09375 -21.390625 
L -0.34375 -21.390625 
L -0.34375 -19.578125 
L 0.875 -19.578125 
Q 3.5625 -19.625 5.46875 -18.5625 
Q 6.390625 -18.015625 6.90625 -16.8125 
Q 7.421875 -15.625 7.421875 -10.75 
L 7.421875 31.546875 
Q 7.421875 35.890625 7.03125 37.0625 
Q 6.640625 38.234375 5.78125 38.8125 
Q 4.9375 39.40625 3.46875 39.40625 
Q 2.296875 39.40625 0.484375 38.71875 
z
M 15.53125 32.515625 
L 15.53125 15.828125 
Q 15.53125 10.40625 15.96875 8.6875 
Q 16.65625 5.859375 19.3125 3.703125 
Q 21.96875 1.5625 26.03125 1.5625 
Q 30.90625 1.5625 33.9375 5.375 
Q 37.890625 10.359375 37.890625 19.390625 
Q 37.890625 29.640625 33.40625 35.15625 
Q 30.28125 38.96875 25.984375 38.96875 
Q 23.640625 38.96875 21.34375 37.796875 
Q 19.578125 36.921875 15.53125 32.515625 
z
" id="TimesNewRomanPSMT-70"/>
     </defs>
     <g transform="translate(518.8375 168.539062)scale(0.3 -0.3)">
      <use xlink:href="#TimesNewRomanPSMT-45"/>
      <use x="61.083984" xlink:href="#TimesNewRomanPSMT-78"/>
      <use x="111.083984" xlink:href="#TimesNewRomanPSMT-70"/>
      <use x="161.083984" xlink:href="#TimesNewRomanPSMT-5f"/>
      <use x="211.083984" xlink:href="#TimesNewRomanPSMT-30"/>
      <use x="261.083984" xlink:href="#TimesNewRomanPSMT-2e"/>
      <use x="286.083984" xlink:href="#TimesNewRomanPSMT-38"/>
      <use x="336.083984" xlink:href="#TimesNewRomanPSMT-20"/>
      <use x="361.083984" xlink:href="#TimesNewRomanPSMT-6d"/>
      <use x="438.867188" xlink:href="#TimesNewRomanPSMT-4d"/>
     </g>
    </g>
    <g id="patch_22">
     <path d="M 434.8375 211.0125 
L 494.8375 211.0125 
L 494.8375 190.0125 
L 434.8375 190.0125 
z
" style="fill:#ee82ee;stroke:#000000;stroke-linejoin:miter;"/>
    </g>
    <g id="text_11">
     <!-- Sim_5 mM -->
     <g transform="translate(518.8375 211.0125)scale(0.3 -0.3)">
      <use xlink:href="#TimesNewRomanPSMT-53"/>
      <use x="55.615234" xlink:href="#TimesNewRomanPSMT-69"/>
      <use x="83.398438" xlink:href="#TimesNewRomanPSMT-6d"/>
      <use x="161.181641" xlink:href="#TimesNewRomanPSMT-5f"/>
      <use x="211.181641" xlink:href="#TimesNewRomanPSMT-35"/>
      <use x="261.181641" xlink:href="#TimesNewRomanPSMT-20"/>
      <use x="286.181641" xlink:href="#TimesNewRomanPSMT-6d"/>
      <use x="363.964844" xlink:href="#TimesNewRomanPSMT-4d"/>
     </g>
    </g>
    <g id="patch_23">
     <path d="M 434.8375 253.485937 
L 494.8375 253.485937 
L 494.8375 232.485937 
L 434.8375 232.485937 
z
" style="fill:url(#hb5415e7eca);stroke:#000000;stroke-linejoin:miter;"/>
    </g>
    <g id="text_12">
     <!-- Exp_5 mM -->
     <g transform="translate(518.8375 253.485937)scale(0.3 -0.3)">
      <use xlink:href="#TimesNewRomanPSMT-45"/>
      <use x="61.083984" xlink:href="#TimesNewRomanPSMT-78"/>
      <use x="111.083984" xlink:href="#TimesNewRomanPSMT-70"/>
      <use x="161.083984" xlink:href="#TimesNewRomanPSMT-5f"/>
      <use x="211.083984" xlink:href="#TimesNewRomanPSMT-35"/>
      <use x="261.083984" xlink:href="#TimesNewRomanPSMT-20"/>
      <use x="286.083984" xlink:href="#TimesNewRomanPSMT-6d"/>
      <use x="363.867188" xlink:href="#TimesNewRomanPSMT-4d"/>
     </g>
    </g>
   </g>
  </g>
  <g id="axes_2">
   <g id="patch_24">
    <path d="M 51.7 310.265625 
L 330.7 310.265625 
L 330.7 184.265625 
L 51.7 184.265625 
z
" style="fill:#ffffff;"/>
   </g>
   <g id="patch_25">
    <path clip-path="url(#p3883d70288)" d="M 64.381818 310.265625 
L 70.896451 310.265625 
L 70.896451 250.350619 
L 64.381818 250.350619 
z
" style="fill:#00ff00;stroke:#000000;stroke-linejoin:miter;"/>
   </g>
   <g id="patch_26">
    <path clip-path="url(#p3883d70288)" d="M 173.827646 310.265625 
L 180.342279 310.265625 
L 180.342279 224.321436 
L 173.827646 224.321436 
z
" style="fill:#00ff00;stroke:#000000;stroke-linejoin:miter;"/>
   </g>
   <g id="patch_27">
    <path clip-path="url(#p3883d70288)" d="M 283.273474 310.265625 
L 289.788107 310.265625 
L 289.788107 198.292252 
L 283.273474 198.292252 
z
" style="fill:#00ff00;stroke:#000000;stroke-linejoin:miter;"/>
   </g>
   <g id="patch_28">
    <path clip-path="url(#p3883d70288)" d="M 70.896451 310.265625 
L 77.411083 310.265625 
L 77.411083 230.765625 
L 70.896451 230.765625 
z
" style="fill:url(#h22b59963d0);stroke:#000000;stroke-linejoin:miter;"/>
   </g>
   <g id="patch_29">
    <path clip-path="url(#p3883d70288)" d="M 180.342279 310.265625 
L 186.856912 310.265625 
L 186.856912 203.765625 
L 180.342279 203.765625 
z
" style="fill:url(#h22b59963d0);stroke:#000000;stroke-linejoin:miter;"/>
   </g>
   <g id="patch_30">
    <path clip-path="url(#p3883d70288)" d="M 289.788107 310.265625 
L 296.30274 310.265625 
L 296.30274 190.265625 
L 289.788107 190.265625 
z
" style="fill:url(#h22b59963d0);stroke:#000000;stroke-linejoin:miter;"/>
   </g>
   <g id="patch_31">
    <path clip-path="url(#p3883d70288)" d="M 86.09726 310.265625 
L 92.611893 310.265625 
L 92.611893 266.926442 
L 86.09726 266.926442 
z
" style="fill:#ee82ee;stroke:#000000;stroke-linejoin:miter;"/>
   </g>
   <g id="patch_32">
    <path clip-path="url(#p3883d70288)" d="M 195.543088 310.265625 
L 202.057721 310.265625 
L 202.057721 257.498681 
L 195.543088 257.498681 
z
" style="fill:#ee82ee;stroke:#000000;stroke-linejoin:miter;"/>
   </g>
   <g id="patch_33">
    <path clip-path="url(#p3883d70288)" d="M 304.988917 310.265625 
L 311.503549 310.265625 
L 311.503549 248.070919 
L 304.988917 248.070919 
z
" style="fill:#ee82ee;stroke:#000000;stroke-linejoin:miter;"/>
   </g>
   <g id="patch_34">
    <path clip-path="url(#p3883d70288)" d="M 92.611893 310.265625 
L 99.126526 310.265625 
L 99.126526 268.265625 
L 92.611893 268.265625 
z
" style="fill:url(#hb5415e7eca);stroke:#000000;stroke-linejoin:miter;"/>
   </g>
   <g id="patch_35">
    <path clip-path="url(#p3883d70288)" d="M 202.057721 310.265625 
L 208.572354 310.265625 
L 208.572354 277.265625 
L 202.057721 277.265625 
z
" style="fill:url(#hb5415e7eca);stroke:#000000;stroke-linejoin:miter;"/>
   </g>
   <g id="patch_36">
    <path clip-path="url(#p3883d70288)" d="M 311.503549 310.265625 
L 318.018182 310.265625 
L 318.018182 269.765625 
L 311.503549 269.765625 
z
" style="fill:url(#hb5415e7eca);stroke:#000000;stroke-linejoin:miter;"/>
   </g>
   <g id="matplotlib.axis_3">
    <g id="xtick_4">
     <g id="line2d_16">
      <g>
       <use style="stroke:#000000;stroke-width:0.8;" x="81.754172" xlink:href="#m46cd7c5769" y="310.265625"/>
      </g>
     </g>
     <g id="text_13">
      <!-- 168 -->
      <g transform="translate(59.254172 338.096875)scale(0.3 -0.3)">
       <use xlink:href="#TimesNewRomanPSMT-31"/>
       <use x="50" xlink:href="#TimesNewRomanPSMT-36"/>
       <use x="100" xlink:href="#TimesNewRomanPSMT-38"/>
      </g>
     </g>
    </g>
    <g id="xtick_5">
     <g id="line2d_17">
      <g>
       <use style="stroke:#000000;stroke-width:0.8;" x="191.2" xlink:href="#m46cd7c5769" y="310.265625"/>
      </g>
     </g>
     <g id="text_14">
      <!-- 336 -->
      <g transform="translate(168.7 338.096875)scale(0.3 -0.3)">
       <use xlink:href="#TimesNewRomanPSMT-33"/>
       <use x="50" xlink:href="#TimesNewRomanPSMT-33"/>
       <use x="100" xlink:href="#TimesNewRomanPSMT-36"/>
      </g>
     </g>
    </g>
    <g id="xtick_6">
     <g id="line2d_18">
      <g>
       <use style="stroke:#000000;stroke-width:0.8;" x="300.645828" xlink:href="#m46cd7c5769" y="310.265625"/>
      </g>
     </g>
     <g id="text_15">
      <!-- 504 -->
      <g transform="translate(278.145828 338.096875)scale(0.3 -0.3)">
       <use xlink:href="#TimesNewRomanPSMT-35"/>
       <use x="50" xlink:href="#TimesNewRomanPSMT-30"/>
       <use x="100" xlink:href="#TimesNewRomanPSMT-34"/>
      </g>
     </g>
    </g>
   </g>
   <g id="matplotlib.axis_4">
    <g id="ytick_5">
     <g id="line2d_19">
      <g>
       <use style="stroke:#000000;stroke-width:0.8;" x="51.7" xlink:href="#md0ebf8dca6" y="310.265625"/>
      </g>
     </g>
     <g id="text_16">
      <!-- 0.0 -->
      <g transform="translate(7.2 320.68125)scale(0.3 -0.3)">
       <use xlink:href="#TimesNewRomanPSMT-30"/>
       <use x="50" xlink:href="#TimesNewRomanPSMT-2e"/>
       <use x="75" xlink:href="#TimesNewRomanPSMT-30"/>
      </g>
     </g>
    </g>
    <g id="ytick_6">
     <g id="line2d_20">
      <g>
       <use style="stroke:#000000;stroke-width:0.8;" x="51.7" xlink:href="#md0ebf8dca6" y="280.265625"/>
      </g>
     </g>
     <g id="text_17">
      <!-- 0.2 -->
      <g transform="translate(7.2 290.68125)scale(0.3 -0.3)">
       <use xlink:href="#TimesNewRomanPSMT-30"/>
       <use x="50" xlink:href="#TimesNewRomanPSMT-2e"/>
       <use x="75" xlink:href="#TimesNewRomanPSMT-32"/>
      </g>
     </g>
    </g>
    <g id="ytick_7">
     <g id="line2d_21">
      <g>
       <use style="stroke:#000000;stroke-width:0.8;" x="51.7" xlink:href="#md0ebf8dca6" y="250.265625"/>
      </g>
     </g>
     <g id="text_18">
      <!-- 0.4 -->
      <g transform="translate(7.2 260.68125)scale(0.3 -0.3)">
       <use xlink:href="#TimesNewRomanPSMT-30"/>
       <use x="50" xlink:href="#TimesNewRomanPSMT-2e"/>
       <use x="75" xlink:href="#TimesNewRomanPSMT-34"/>
      </g>
     </g>
    </g>
    <g id="ytick_8">
     <g id="line2d_22">
      <g>
       <use style="stroke:#000000;stroke-width:0.8;" x="51.7" xlink:href="#md0ebf8dca6" y="220.265625"/>
      </g>
     </g>
     <g id="text_19">
      <!-- 0.6 -->
      <g transform="translate(7.2 230.68125)scale(0.3 -0.3)">
       <use xlink:href="#TimesNewRomanPSMT-30"/>
       <use x="50" xlink:href="#TimesNewRomanPSMT-2e"/>
       <use x="75" xlink:href="#TimesNewRomanPSMT-36"/>
      </g>
     </g>
    </g>
    <g id="ytick_9">
     <g id="line2d_23">
      <g>
       <use style="stroke:#000000;stroke-width:0.8;" x="51.7" xlink:href="#md0ebf8dca6" y="190.265625"/>
      </g>
     </g>
     <g id="text_20">
      <!-- 0.8 -->
      <g transform="translate(7.2 200.68125)scale(0.3 -0.3)">
       <use xlink:href="#TimesNewRomanPSMT-30"/>
       <use x="50" xlink:href="#TimesNewRomanPSMT-2e"/>
       <use x="75" xlink:href="#TimesNewRomanPSMT-38"/>
      </g>
     </g>
    </g>
   </g>
   <g id="LineCollection_5">
    <path clip-path="url(#p3883d70288)" d="M 67.639134 250.350619 
L 67.639134 250.350619 
" style="fill:none;stroke:#000000;stroke-width:1.5;"/>
    <path clip-path="url(#p3883d70288)" d="M 177.084963 224.321436 
L 177.084963 224.321436 
" style="fill:none;stroke:#000000;stroke-width:1.5;"/>
    <path clip-path="url(#p3883d70288)" d="M 286.530791 198.292252 
L 286.530791 198.292252 
" style="fill:none;stroke:#000000;stroke-width:1.5;"/>
   </g>
   <g id="LineCollection_6">
    <path clip-path="url(#p3883d70288)" d="M 74.153767 230.765625 
L 74.153767 230.765625 
" style="fill:none;stroke:#000000;stroke-width:1.5;"/>
    <path clip-path="url(#p3883d70288)" d="M 183.599595 203.765625 
L 183.599595 203.765625 
" style="fill:none;stroke:#000000;stroke-width:1.5;"/>
    <path clip-path="url(#p3883d70288)" d="M 293.045423 190.265625 
L 293.045423 190.265625 
" style="fill:none;stroke:#000000;stroke-width:1.5;"/>
   </g>
   <g id="LineCollection_7">
    <path clip-path="url(#p3883d70288)" d="M 89.354577 266.926442 
L 89.354577 266.926442 
" style="fill:none;stroke:#000000;stroke-width:1.5;"/>
    <path clip-path="url(#p3883d70288)" d="M 198.800405 257.498681 
L 198.800405 257.498681 
" style="fill:none;stroke:#000000;stroke-width:1.5;"/>
    <path clip-path="url(#p3883d70288)" d="M 308.246233 248.070919 
L 308.246233 248.070919 
" style="fill:none;stroke:#000000;stroke-width:1.5;"/>
   </g>
   <g id="LineCollection_8">
    <path clip-path="url(#p3883d70288)" d="M 95.869209 268.265625 
L 95.869209 268.265625 
" style="fill:none;stroke:#000000;stroke-width:1.5;"/>
    <path clip-path="url(#p3883d70288)" d="M 205.315037 277.265625 
L 205.315037 277.265625 
" style="fill:none;stroke:#000000;stroke-width:1.5;"/>
    <path clip-path="url(#p3883d70288)" d="M 314.760866 269.765625 
L 314.760866 269.765625 
" style="fill:none;stroke:#000000;stroke-width:1.5;"/>
   </g>
   <g id="line2d_24">
    <g clip-path="url(#p3883d70288)">
     <use style="stroke:#000000;" x="67.639134" xlink:href="#ma344cc335b" y="250.350619"/>
     <use style="stroke:#000000;" x="177.084963" xlink:href="#ma344cc335b" y="224.321436"/>
     <use style="stroke:#000000;" x="286.530791" xlink:href="#ma344cc335b" y="198.292252"/>
    </g>
   </g>
   <g id="line2d_25">
    <g clip-path="url(#p3883d70288)">
     <use style="stroke:#000000;" x="67.639134" xlink:href="#ma344cc335b" y="250.350619"/>
     <use style="stroke:#000000;" x="177.084963" xlink:href="#ma344cc335b" y="224.321436"/>
     <use style="stroke:#000000;" x="286.530791" xlink:href="#ma344cc335b" y="198.292252"/>
    </g>
   </g>
   <g id="line2d_26">
    <g clip-path="url(#p3883d70288)">
     <use style="stroke:#000000;" x="74.153767" xlink:href="#ma344cc335b" y="230.765625"/>
     <use style="stroke:#000000;" x="183.599595" xlink:href="#ma344cc335b" y="203.765625"/>
     <use style="stroke:#000000;" x="293.045423" xlink:href="#ma344cc335b" y="190.265625"/>
    </g>
   </g>
   <g id="line2d_27">
    <g clip-path="url(#p3883d70288)">
     <use style="stroke:#000000;" x="74.153767" xlink:href="#ma344cc335b" y="230.765625"/>
     <use style="stroke:#000000;" x="183.599595" xlink:href="#ma344cc335b" y="203.765625"/>
     <use style="stroke:#000000;" x="293.045423" xlink:href="#ma344cc335b" y="190.265625"/>
    </g>
   </g>
   <g id="line2d_28">
    <g clip-path="url(#p3883d70288)">
     <use style="stroke:#000000;" x="89.354577" xlink:href="#ma344cc335b" y="266.926442"/>
     <use style="stroke:#000000;" x="198.800405" xlink:href="#ma344cc335b" y="257.498681"/>
     <use style="stroke:#000000;" x="308.246233" xlink:href="#ma344cc335b" y="248.070919"/>
    </g>
   </g>
   <g id="line2d_29">
    <g clip-path="url(#p3883d70288)">
     <use style="stroke:#000000;" x="89.354577" xlink:href="#ma344cc335b" y="266.926442"/>
     <use style="stroke:#000000;" x="198.800405" xlink:href="#ma344cc335b" y="257.498681"/>
     <use style="stroke:#000000;" x="308.246233" xlink:href="#ma344cc335b" y="248.070919"/>
    </g>
   </g>
   <g id="line2d_30">
    <g clip-path="url(#p3883d70288)">
     <use style="stroke:#000000;" x="95.869209" xlink:href="#ma344cc335b" y="268.265625"/>
     <use style="stroke:#000000;" x="205.315037" xlink:href="#ma344cc335b" y="277.265625"/>
     <use style="stroke:#000000;" x="314.760866" xlink:href="#ma344cc335b" y="269.765625"/>
    </g>
   </g>
   <g id="line2d_31">
    <g clip-path="url(#p3883d70288)">
     <use style="stroke:#000000;" x="95.869209" xlink:href="#ma344cc335b" y="268.265625"/>
     <use style="stroke:#000000;" x="205.315037" xlink:href="#ma344cc335b" y="277.265625"/>
     <use style="stroke:#000000;" x="314.760866" xlink:href="#ma344cc335b" y="269.765625"/>
    </g>
   </g>
   <g id="patch_37">
    <path d="M 51.7 310.265625 
L 51.7 184.265625 
" style="fill:none;stroke:#000000;stroke-linecap:square;stroke-linejoin:miter;stroke-width:0.8;"/>
   </g>
   <g id="patch_38">
    <path d="M 330.7 310.265625 
L 330.7 184.265625 
" style="fill:none;stroke:#000000;stroke-linecap:square;stroke-linejoin:miter;stroke-width:0.8;"/>
   </g>
   <g id="patch_39">
    <path d="M 51.7 310.265625 
L 330.7 310.265625 
" style="fill:none;stroke:#000000;stroke-linecap:square;stroke-linejoin:miter;stroke-width:0.8;"/>
   </g>
   <g id="patch_40">
    <path d="M 51.7 184.265625 
L 330.7 184.265625 
" style="fill:none;stroke:#000000;stroke-linecap:square;stroke-linejoin:miter;stroke-width:0.8;"/>
   </g>
   <g id="text_21">
    <!-- OC -->
    <defs>
     <path d="M 38.625 67.140625 
Q 54.4375 67.71875 64.328125 57.90625 
Q 74.21875 48.09375 74.21875 33.34375 
Q 74.21875 20.75 66.84375 11.1875 
Q 57.078125 -1.515625 39.265625 -1.515625 
Q 21.390625 -1.515625 11.625 10.59375 
Q 3.90625 20.171875 3.90625 33.296875 
Q 3.90625 48.046875 13.9375 57.875 
Q 23.96875 67.71875 38.625 67.140625 
z
M 39.203125 64.015625 
Q 30.125 64.015625 25.390625 54.734375 
Q 21.53125 47.125 21.53125 32.859375 
Q 21.53125 15.921875 27.484375 7.8125 
Q 31.640625 2.15625 39.109375 2.15625 
Q 44.140625 2.15625 47.515625 4.59375 
Q 51.8125 7.71875 54.203125 14.578125 
Q 56.59375 21.4375 56.59375 32.46875 
Q 56.59375 45.609375 54.140625 52.125 
Q 51.703125 58.640625 47.921875 61.328125 
Q 44.140625 64.015625 39.203125 64.015625 
z
" id="TimesNewRomanPS-BoldMT-4f"/>
     <path d="M 66.75 67.71875 
L 66.75 44.78125 
L 64.84375 44.78125 
Q 62.703125 53.765625 56.84375 58.546875 
Q 50.984375 63.328125 43.5625 63.328125 
Q 37.359375 63.328125 32.171875 59.765625 
Q 27 56.203125 24.609375 50.4375 
Q 21.53125 43.0625 21.53125 34.03125 
Q 21.53125 25.140625 23.78125 17.84375 
Q 26.03125 10.546875 30.8125 6.8125 
Q 35.59375 3.078125 43.21875 3.078125 
Q 49.46875 3.078125 54.65625 5.8125 
Q 59.859375 8.546875 65.625 15.234375 
L 65.625 9.515625 
Q 60.0625 3.71875 54.03125 1.09375 
Q 48 -1.515625 39.9375 -1.515625 
Q 29.34375 -1.515625 21.109375 2.734375 
Q 12.890625 6.984375 8.421875 14.9375 
Q 3.953125 22.90625 3.953125 31.890625 
Q 3.953125 41.359375 8.90625 49.84375 
Q 13.875 58.34375 22.296875 63.03125 
Q 30.71875 67.71875 40.1875 67.71875 
Q 47.171875 67.71875 54.9375 64.703125 
Q 59.421875 62.9375 60.640625 62.9375 
Q 62.203125 62.9375 63.34375 64.078125 
Q 64.5 65.234375 64.84375 67.71875 
z
" id="TimesNewRomanPS-BoldMT-43"/>
    </defs>
    <g transform="translate(168.7 178.265625)scale(0.3 -0.3)">
     <use xlink:href="#TimesNewRomanPS-BoldMT-4f"/>
     <use x="77.783203" xlink:href="#TimesNewRomanPS-BoldMT-43"/>
    </g>
   </g>
   <g id="legend_2">
    <g id="patch_41">
     <path d="M 428.8375 423.159375 
L 683.2 423.159375 
Q 689.2 423.159375 689.2 417.159375 
L 689.2 250.265625 
Q 689.2 244.265625 683.2 244.265625 
L 428.8375 244.265625 
Q 422.8375 244.265625 422.8375 250.265625 
L 422.8375 417.159375 
Q 422.8375 423.159375 428.8375 423.159375 
z
" style="fill:#ffffff;opacity:0.8;stroke:#cccccc;stroke-linejoin:miter;"/>
    </g>
    <g id="patch_42">
     <path d="M 434.8375 277.265625 
L 494.8375 277.265625 
L 494.8375 256.265625 
L 434.8375 256.265625 
z
" style="fill:#00ff00;stroke:#000000;stroke-linejoin:miter;"/>
    </g>
    <g id="text_22">
     <!-- Sim_0.8 mM -->
     <g transform="translate(518.8375 277.265625)scale(0.3 -0.3)">
      <use xlink:href="#TimesNewRomanPSMT-53"/>
      <use x="55.615234" xlink:href="#TimesNewRomanPSMT-69"/>
      <use x="83.398438" xlink:href="#TimesNewRomanPSMT-6d"/>
      <use x="161.181641" xlink:href="#TimesNewRomanPSMT-5f"/>
      <use x="211.181641" xlink:href="#TimesNewRomanPSMT-30"/>
      <use x="261.181641" xlink:href="#TimesNewRomanPSMT-2e"/>
      <use x="286.181641" xlink:href="#TimesNewRomanPSMT-38"/>
      <use x="336.181641" xlink:href="#TimesNewRomanPSMT-20"/>
      <use x="361.181641" xlink:href="#TimesNewRomanPSMT-6d"/>
      <use x="438.964844" xlink:href="#TimesNewRomanPSMT-4d"/>
     </g>
    </g>
    <g id="patch_43">
     <path d="M 434.8375 319.739062 
L 494.8375 319.739062 
L 494.8375 298.739062 
L 434.8375 298.739062 
z
" style="fill:url(#h22b59963d0);stroke:#000000;stroke-linejoin:miter;"/>
    </g>
    <g id="text_23">
     <!-- Exp_0.8 mM -->
     <g transform="translate(518.8375 319.739062)scale(0.3 -0.3)">
      <use xlink:href="#TimesNewRomanPSMT-45"/>
      <use x="61.083984" xlink:href="#TimesNewRomanPSMT-78"/>
      <use x="111.083984" xlink:href="#TimesNewRomanPSMT-70"/>
      <use x="161.083984" xlink:href="#TimesNewRomanPSMT-5f"/>
      <use x="211.083984" xlink:href="#TimesNewRomanPSMT-30"/>
      <use x="261.083984" xlink:href="#TimesNewRomanPSMT-2e"/>
      <use x="286.083984" xlink:href="#TimesNewRomanPSMT-38"/>
      <use x="336.083984" xlink:href="#TimesNewRomanPSMT-20"/>
      <use x="361.083984" xlink:href="#TimesNewRomanPSMT-6d"/>
      <use x="438.867188" xlink:href="#TimesNewRomanPSMT-4d"/>
     </g>
    </g>
    <g id="patch_44">
     <path d="M 434.8375 362.2125 
L 494.8375 362.2125 
L 494.8375 341.2125 
L 434.8375 341.2125 
z
" style="fill:#ee82ee;stroke:#000000;stroke-linejoin:miter;"/>
    </g>
    <g id="text_24">
     <!-- Sim_5 mM -->
     <g transform="translate(518.8375 362.2125)scale(0.3 -0.3)">
      <use xlink:href="#TimesNewRomanPSMT-53"/>
      <use x="55.615234" xlink:href="#TimesNewRomanPSMT-69"/>
      <use x="83.398438" xlink:href="#TimesNewRomanPSMT-6d"/>
      <use x="161.181641" xlink:href="#TimesNewRomanPSMT-5f"/>
      <use x="211.181641" xlink:href="#TimesNewRomanPSMT-35"/>
      <use x="261.181641" xlink:href="#TimesNewRomanPSMT-20"/>
      <use x="286.181641" xlink:href="#TimesNewRomanPSMT-6d"/>
      <use x="363.964844" xlink:href="#TimesNewRomanPSMT-4d"/>
     </g>
    </g>
    <g id="patch_45">
     <path d="M 434.8375 404.685938 
L 494.8375 404.685938 
L 494.8375 383.685938 
L 434.8375 383.685938 
z
" style="fill:url(#hb5415e7eca);stroke:#000000;stroke-linejoin:miter;"/>
    </g>
    <g id="text_25">
     <!-- Exp_5 mM -->
     <g transform="translate(518.8375 404.685938)scale(0.3 -0.3)">
      <use xlink:href="#TimesNewRomanPSMT-45"/>
      <use x="61.083984" xlink:href="#TimesNewRomanPSMT-78"/>
      <use x="111.083984" xlink:href="#TimesNewRomanPSMT-70"/>
      <use x="161.083984" xlink:href="#TimesNewRomanPSMT-5f"/>
      <use x="211.083984" xlink:href="#TimesNewRomanPSMT-35"/>
      <use x="261.083984" xlink:href="#TimesNewRomanPSMT-20"/>
      <use x="286.083984" xlink:href="#TimesNewRomanPSMT-6d"/>
      <use x="363.867188" xlink:href="#TimesNewRomanPSMT-4d"/>
     </g>
    </g>
   </g>
  </g>
 </g>
 <defs>
  <clipPath id="pba7e071450">
   <rect height="126" width="279" x="51.7" y="33.065625"/>
  </clipPath>
  <clipPath id="p3883d70288">
   <rect height="126" width="279" x="51.7" y="184.265625"/>
  </clipPath>
 </defs>
 <defs>
  <pattern height="72" id="h22b59963d0" patternUnits="userSpaceOnUse" width="72" x="0" y="0">
   <rect fill="#00ff00" height="73" width="73" x="0" y="0"/>
   <path d="M -36 36 
L 36 108 
M -33 33 
L 39 105 
M -30 30 
L 42 102 
M -27 27 
L 45 99 
M -24 24 
L 48 96 
M -21 21 
L 51 93 
M -18 18 
L 54 90 
M -15 15 
L 57 87 
M -12 12 
L 60 84 
M -9 9 
L 63 81 
M -6 6 
L 66 78 
M -3 3 
L 69 75 
M 0 0 
L 72 72 
M 3 -3 
L 75 69 
M 6 -6 
L 78 66 
M 9 -9 
L 81 63 
M 12 -12 
L 84 60 
M 15 -15 
L 87 57 
M 18 -18 
L 90 54 
M 21 -21 
L 93 51 
M 24 -24 
L 96 48 
M 27 -27 
L 99 45 
M 30 -30 
L 102 42 
M 33 -33 
L 105 39 
M 36 -36 
L 108 36 
" style="fill:#000000;stroke:#000000;stroke-linecap:butt;stroke-linejoin:miter;stroke-width:1.0;"/>
  </pattern>
  <pattern height="72" id="hb5415e7eca" patternUnits="userSpaceOnUse" width="72" x="0" y="0">
   <rect fill="#ee82ee" height="73" width="73" x="0" y="0"/>
   <path d="M -36 36 
L 36 108 
M -33 33 
L 39 105 
M -30 30 
L 42 102 
M -27 27 
L 45 99 
M -24 24 
L 48 96 
M -21 21 
L 51 93 
M -18 18 
L 54 90 
M -15 15 
L 57 87 
M -12 12 
L 60 84 
M -9 9 
L 63 81 
M -6 6 
L 66 78 
M -3 3 
L 69 75 
M 0 0 
L 72 72 
M 3 -3 
L 75 69 
M 6 -6 
L 78 66 
M 9 -9 
L 81 63 
M 12 -12 
L 84 60 
M 15 -15 
L 87 57 
M 18 -18 
L 90 54 
M 21 -21 
L 93 51 
M 24 -24 
L 96 48 
M 27 -27 
L 99 45 
M 30 -30 
L 102 42 
M 33 -33 
L 105 39 
M 36 -36 
L 108 36 
" style="fill:#000000;stroke:#000000;stroke-linecap:butt;stroke-linejoin:miter;stroke-width:1.0;"/>
  </pattern>
 </defs>
</svg>
