<?xml version="1.0" encoding="utf-8" standalone="no"?>
<!DOCTYPE svg PUBLIC "-//W3C//DTD SVG 1.1//EN"
  "http://www.w3.org/Graphics/SVG/1.1/DTD/svg11.dtd">
<!-- Created with matplotlib (http://matplotlib.org/) -->
<svg height="216pt" version="1.1" viewBox="0 0 504 216" width="504pt" xmlns="http://www.w3.org/2000/svg" xmlns:xlink="http://www.w3.org/1999/xlink">
 <defs>
  <style type="text/css">
*{stroke-linecap:butt;stroke-linejoin:round;}
  </style>
 </defs>
 <g id="figure_1">
  <g id="patch_1">
   <path d="M 0 216 
L 504 216 
L 504 0 
L 0 0 
z
" style="fill:#ffffff;"/>
  </g>
  <g id="axes_1">
   <g id="patch_2">
    <path d="M 55.44 162 
L 478.8 162 
L 478.8 64.8 
L 55.44 64.8 
z
" style="fill:#ffffff;"/>
   </g>
   <g id="matplotlib.axis_1">
    <g id="xtick_1">
     <g id="line2d_1">
      <defs>
       <path d="M 0 0 
L 0 3.5 
" id="m78dfbeb6b1" style="stroke:#000000;stroke-width:0.8;"/>
      </defs>
      <g>
       <use style="stroke:#000000;stroke-width:0.8;" x="74.683636" xlink:href="#m78dfbeb6b1" y="162"/>
      </g>
     </g>
     <g id="text_1">
      <!-- 0 -->
      <defs>
       <path d="M 3.609375 32.71875 
Q 3.609375 44.046875 7.03125 52.21875 
Q 10.453125 60.40625 16.109375 64.40625 
Q 20.515625 67.578125 25.203125 67.578125 
Q 32.8125 67.578125 38.875 59.8125 
Q 46.4375 50.203125 46.4375 33.734375 
Q 46.4375 22.21875 43.109375 14.15625 
Q 39.796875 6.109375 34.640625 2.46875 
Q 29.5 -1.171875 24.703125 -1.171875 
Q 15.234375 -1.171875 8.9375 10.015625 
Q 3.609375 19.4375 3.609375 32.71875 
z
M 13.1875 31.5 
Q 13.1875 17.828125 16.546875 9.1875 
Q 19.34375 1.90625 24.859375 1.90625 
Q 27.484375 1.90625 30.3125 4.265625 
Q 33.15625 6.640625 34.625 12.203125 
Q 36.859375 20.609375 36.859375 35.890625 
Q 36.859375 47.21875 34.515625 54.78125 
Q 32.765625 60.40625 29.984375 62.75 
Q 27.984375 64.359375 25.140625 64.359375 
Q 21.828125 64.359375 19.234375 61.375 
Q 15.71875 57.328125 14.453125 48.625 
Q 13.1875 39.9375 13.1875 31.5 
z
" id="TimesNewRomanPSMT-30"/>
      </defs>
      <g transform="translate(70.183636 181.49875)scale(0.18 -0.18)">
       <use xlink:href="#TimesNewRomanPSMT-30"/>
      </g>
     </g>
    </g>
    <g id="xtick_2">
     <g id="line2d_2">
      <g>
       <use style="stroke:#000000;stroke-width:0.8;" x="136.192976" xlink:href="#m78dfbeb6b1" y="162"/>
      </g>
     </g>
     <g id="text_2">
      <!-- $p_{es}$ -->
      <defs>
       <path d="M 14.203125 45.90625 
L 14.40625 40.90625 
Q 19.90625 46.296875 28.09375 46.296875 
Q 33.5 46.296875 37.203125 44 
Q 41.5 41.296875 44.25 36.046875 
Q 47 30.796875 47 24.40625 
Q 47 13.796875 40.640625 6.390625 
Q 34.296875 -1 25.296875 -1 
Q 19.59375 -1 14.59375 2.59375 
L 14.59375 -19.203125 
L 7.59375 -21.59375 
L 6.703125 -21.09375 
L 6.703125 44 
L 13.40625 46.40625 
z
M 14.59375 29.5 
L 14.59375 12.296875 
Q 18.5 6.09375 24.90625 6.09375 
Q 31.40625 6.09375 35.25 10.890625 
Q 39.09375 15.703125 39.09375 23 
Q 39.09375 29.90625 35.59375 34.546875 
Q 32.09375 39.203125 26.09375 39.203125 
Q 22.59375 39.203125 19.390625 36.546875 
Q 16.203125 33.90625 14.59375 29.5 
z
" id="STIXGeneral-Regular-1d5c9"/>
       <path d="M 36.203125 16.703125 
L 42.796875 13.203125 
Q 39 5.59375 34.59375 2.296875 
Q 30.203125 -1 23 -1 
Q 13.90625 -1 8.09375 5.25 
Q 2.296875 11.5 2.296875 22.59375 
Q 2.296875 34.203125 9.5 40.90625 
Q 15.203125 46.296875 23.796875 46.296875 
Q 31.703125 46.296875 36.390625 41.140625 
Q 41.09375 36 41.09375 27.703125 
L 41.09375 22.203125 
L 10.203125 22.203125 
Q 10.203125 14.59375 14.09375 10.34375 
Q 18 6.09375 23.796875 6.09375 
Q 31.703125 6.09375 36.203125 16.703125 
z
M 11.5 29.296875 
L 33 29.296875 
Q 32.703125 39.203125 23 39.203125 
Q 19 39.203125 15.703125 36.703125 
Q 12.40625 34.203125 11.5 29.296875 
z
" id="STIXGeneral-Regular-1d5be"/>
       <path d="M 33 32.09375 
L 31.5 32.09375 
Q 28.703125 36.5 25.890625 37.890625 
Q 23.09375 39.296875 19.203125 39.296875 
Q 16 39.296875 14.390625 37.6875 
Q 12.796875 36.09375 12.796875 34.203125 
Q 12.796875 31.703125 14.890625 29.953125 
Q 17 28.203125 21.203125 26.5 
Q 29.5 23 32.25 20.09375 
Q 35 17.203125 35 11.796875 
Q 35 5.203125 28.90625 1.40625 
Q 25.09375 -1 18.90625 -1 
Q 14.40625 -1 11.34375 0.296875 
Q 8.296875 1.59375 5 4.5 
L 5 14.796875 
L 6.5 14.796875 
Q 10.40625 6.09375 19.5 6.09375 
Q 22.703125 6.09375 24.890625 7.546875 
Q 27.09375 9 27.09375 11.796875 
Q 27.09375 13.796875 25.25 15.25 
Q 23.40625 16.703125 18.5 18.90625 
Q 10.90625 22.296875 7.90625 25.59375 
Q 4.90625 28.90625 4.90625 33.796875 
Q 4.90625 39 8.90625 42.640625 
Q 12.90625 46.296875 19.40625 46.296875 
Q 28 46.296875 33 41 
z
" id="STIXGeneral-Regular-1d5cc"/>
      </defs>
      <g transform="translate(126.112976 181.389062)scale(0.18 -0.18)">
       <use transform="translate(0 0.59375)" xlink:href="#STIXGeneral-Regular-1d5c9"/>
       <use transform="translate(50.592683 -12.995312)scale(0.7)" xlink:href="#STIXGeneral-Regular-1d5be"/>
       <use transform="translate(81.672679 -12.995312)scale(0.7)" xlink:href="#STIXGeneral-Regular-1d5cc"/>
      </g>
     </g>
    </g>
    <g id="xtick_3">
     <g id="line2d_3">
      <g>
       <use style="stroke:#000000;stroke-width:0.8;" x="215.276413" xlink:href="#m78dfbeb6b1" y="162"/>
      </g>
     </g>
     <g id="text_3">
      <!-- 0.5 -->
      <defs>
       <path d="M 12.5 9.46875 
Q 14.796875 9.46875 16.359375 7.875 
Q 17.921875 6.296875 17.921875 4.046875 
Q 17.921875 1.8125 16.328125 0.21875 
Q 14.75 -1.375 12.5 -1.375 
Q 10.25 -1.375 8.65625 0.21875 
Q 7.078125 1.8125 7.078125 4.046875 
Q 7.078125 6.34375 8.65625 7.90625 
Q 10.25 9.46875 12.5 9.46875 
z
" id="TimesNewRomanPSMT-2e"/>
       <path d="M 43.40625 66.21875 
L 39.59375 57.90625 
L 19.671875 57.90625 
L 15.328125 49.03125 
Q 28.265625 47.125 35.84375 39.40625 
Q 42.328125 32.765625 42.328125 23.78125 
Q 42.328125 18.5625 40.203125 14.109375 
Q 38.09375 9.671875 34.859375 6.546875 
Q 31.640625 3.421875 27.6875 1.515625 
Q 22.078125 -1.171875 16.15625 -1.171875 
Q 10.203125 -1.171875 7.484375 0.84375 
Q 4.78125 2.875 4.78125 5.328125 
Q 4.78125 6.6875 5.90625 7.734375 
Q 7.03125 8.796875 8.734375 8.796875 
Q 10.015625 8.796875 10.96875 8.40625 
Q 11.921875 8.015625 14.203125 6.390625 
Q 17.875 3.859375 21.625 3.859375 
Q 27.34375 3.859375 31.65625 8.171875 
Q 35.984375 12.5 35.984375 18.703125 
Q 35.984375 24.703125 32.125 29.90625 
Q 28.265625 35.109375 21.484375 37.9375 
Q 16.15625 40.140625 6.984375 40.484375 
L 19.671875 66.21875 
z
" id="TimesNewRomanPSMT-35"/>
      </defs>
      <g transform="translate(204.026413 181.49875)scale(0.18 -0.18)">
       <use xlink:href="#TimesNewRomanPSMT-30"/>
       <use x="50" xlink:href="#TimesNewRomanPSMT-2e"/>
       <use x="75" xlink:href="#TimesNewRomanPSMT-35"/>
      </g>
     </g>
    </g>
    <g id="xtick_4">
     <g id="line2d_4">
      <g>
       <use style="stroke:#000000;stroke-width:0.8;" x="294.359851" xlink:href="#m78dfbeb6b1" y="162"/>
      </g>
     </g>
     <g id="text_4">
      <!-- $p_{ef}$ -->
      <defs>
       <path d="M 36.90625 63.296875 
L 34.5 57.40625 
L 32.90625 57.296875 
Q 30.796875 58.796875 29.796875 59.4375 
Q 28.796875 60.09375 27.5 60.640625 
Q 26.203125 61.203125 24.90625 61.203125 
Q 21.796875 61.203125 19.890625 58.703125 
Q 18 56.203125 18 50.90625 
L 18 45.296875 
L 29.40625 45.296875 
L 29.40625 38.203125 
L 18 38.203125 
L 18 0 
L 10.09375 0 
L 10.09375 38.203125 
L 2 38.203125 
L 2 45.296875 
L 10.09375 45.296875 
L 10.09375 49.40625 
Q 10.09375 59.296875 14.796875 64.296875 
Q 18.796875 68.296875 24.203125 68.296875 
Q 31 68.296875 36.90625 63.296875 
z
" id="STIXGeneral-Regular-1d5bf"/>
      </defs>
      <g transform="translate(284.639851 181.389062)scale(0.18 -0.18)">
       <use transform="translate(0 0.59375)" xlink:href="#STIXGeneral-Regular-1d5c9"/>
       <use transform="translate(50.592683 -12.995312)scale(0.7)" xlink:href="#STIXGeneral-Regular-1d5be"/>
       <use transform="translate(81.672679 -12.995312)scale(0.7)" xlink:href="#STIXGeneral-Regular-1d5bf"/>
      </g>
     </g>
    </g>
    <g id="xtick_5">
     <g id="line2d_5">
      <g>
       <use style="stroke:#000000;stroke-width:0.8;" x="362.898829" xlink:href="#m78dfbeb6b1" y="162"/>
      </g>
     </g>
     <g id="text_5">
      <!-- $p_{evf}$ -->
      <defs>
       <path d="M 44.296875 45.296875 
L 24.796875 -1.40625 
L 22.59375 -1.40625 
L 3.09375 45.296875 
L 11.59375 45.296875 
L 23.796875 15.40625 
L 35.796875 45.296875 
z
" id="STIXGeneral-Regular-1d5cf"/>
      </defs>
      <g transform="translate(350.208829 181.389062)scale(0.18 -0.18)">
       <use transform="translate(0 0.59375)" xlink:href="#STIXGeneral-Regular-1d5c9"/>
       <use transform="translate(50.592683 -12.995312)scale(0.7)" xlink:href="#STIXGeneral-Regular-1d5be"/>
       <use transform="translate(81.672679 -12.995312)scale(0.7)" xlink:href="#STIXGeneral-Regular-1d5cf"/>
       <use transform="translate(114.852675 -12.995312)scale(0.7)" xlink:href="#STIXGeneral-Regular-1d5bf"/>
      </g>
     </g>
    </g>
    <g id="xtick_6">
     <g id="line2d_6">
      <g>
       <use style="stroke:#000000;stroke-width:0.8;" x="461.313773" xlink:href="#m78dfbeb6b1" y="162"/>
      </g>
     </g>
     <g id="text_6">
      <!-- 1 -->
      <defs>
       <path d="M 11.71875 59.71875 
L 27.828125 67.578125 
L 29.4375 67.578125 
L 29.4375 11.671875 
Q 29.4375 6.109375 29.90625 4.734375 
Q 30.375 3.375 31.828125 2.640625 
Q 33.296875 1.90625 37.796875 1.8125 
L 37.796875 0 
L 12.890625 0 
L 12.890625 1.8125 
Q 17.578125 1.90625 18.9375 2.609375 
Q 20.3125 3.328125 20.84375 4.515625 
Q 21.390625 5.71875 21.390625 11.671875 
L 21.390625 47.40625 
Q 21.390625 54.640625 20.90625 56.6875 
Q 20.5625 58.25 19.65625 58.984375 
Q 18.75 59.71875 17.484375 59.71875 
Q 15.671875 59.71875 12.453125 58.203125 
z
" id="TimesNewRomanPSMT-31"/>
      </defs>
      <g transform="translate(456.813773 181.49875)scale(0.18 -0.18)">
       <use xlink:href="#TimesNewRomanPSMT-31"/>
      </g>
     </g>
    </g>
    <g id="text_7">
     <!-- Intensity -->
     <defs>
      <path d="M 30.859375 1.8125 
L 30.859375 0 
L 2.484375 0 
L 2.484375 1.8125 
L 4.828125 1.8125 
Q 8.9375 1.8125 10.796875 4.203125 
Q 11.96875 5.765625 11.96875 11.71875 
L 11.96875 54.5 
Q 11.96875 59.515625 11.328125 61.140625 
Q 10.84375 62.359375 9.328125 63.234375 
Q 7.171875 64.40625 4.828125 64.40625 
L 2.484375 64.40625 
L 2.484375 66.21875 
L 30.859375 66.21875 
L 30.859375 64.40625 
L 28.46875 64.40625 
Q 24.421875 64.40625 22.5625 62.015625 
Q 21.34375 60.453125 21.34375 54.5 
L 21.34375 11.71875 
Q 21.34375 6.6875 21.96875 5.078125 
Q 22.46875 3.859375 24.03125 2.984375 
Q 26.125 1.8125 28.46875 1.8125 
z
" id="TimesNewRomanPSMT-49"/>
      <path d="M 16.15625 36.578125 
Q 24.03125 46.046875 31.15625 46.046875 
Q 34.8125 46.046875 37.453125 44.21875 
Q 40.09375 42.390625 41.65625 38.1875 
Q 42.71875 35.25 42.71875 29.203125 
L 42.71875 10.109375 
Q 42.71875 5.859375 43.40625 4.34375 
Q 43.953125 3.125 45.140625 2.4375 
Q 46.34375 1.765625 49.5625 1.765625 
L 49.5625 0 
L 27.4375 0 
L 27.4375 1.765625 
L 28.375 1.765625 
Q 31.5 1.765625 32.734375 2.703125 
Q 33.984375 3.65625 34.46875 5.515625 
Q 34.671875 6.25 34.671875 10.109375 
L 34.671875 28.421875 
Q 34.671875 34.515625 33.078125 37.28125 
Q 31.5 40.046875 27.734375 40.046875 
Q 21.921875 40.046875 16.15625 33.6875 
L 16.15625 10.109375 
Q 16.15625 5.5625 16.703125 4.5 
Q 17.390625 3.078125 18.578125 2.421875 
Q 19.78125 1.765625 23.4375 1.765625 
L 23.4375 0 
L 1.3125 0 
L 1.3125 1.765625 
L 2.296875 1.765625 
Q 5.71875 1.765625 6.90625 3.484375 
Q 8.109375 5.21875 8.109375 10.109375 
L 8.109375 26.703125 
Q 8.109375 34.765625 7.734375 36.515625 
Q 7.375 38.28125 6.609375 38.90625 
Q 5.859375 39.546875 4.59375 39.546875 
Q 3.21875 39.546875 1.3125 38.8125 
L 0.59375 40.578125 
L 14.0625 46.046875 
L 16.15625 46.046875 
z
" id="TimesNewRomanPSMT-6e"/>
      <path d="M 16.109375 59.421875 
L 16.109375 44.734375 
L 26.5625 44.734375 
L 26.5625 41.3125 
L 16.109375 41.3125 
L 16.109375 12.3125 
Q 16.109375 7.953125 17.359375 6.4375 
Q 18.609375 4.9375 20.5625 4.9375 
Q 22.171875 4.9375 23.6875 5.9375 
Q 25.203125 6.9375 26.03125 8.890625 
L 27.9375 8.890625 
Q 26.21875 4.109375 23.09375 1.6875 
Q 19.96875 -0.734375 16.65625 -0.734375 
Q 14.40625 -0.734375 12.25 0.515625 
Q 10.109375 1.765625 9.078125 4.078125 
Q 8.0625 6.390625 8.0625 11.234375 
L 8.0625 41.3125 
L 0.984375 41.3125 
L 0.984375 42.921875 
Q 3.65625 44 6.46875 46.5625 
Q 9.28125 49.125 11.46875 52.640625 
Q 12.59375 54.5 14.59375 59.421875 
z
" id="TimesNewRomanPSMT-74"/>
      <path d="M 10.640625 27.875 
Q 10.59375 17.921875 15.484375 12.25 
Q 20.359375 6.59375 26.953125 6.59375 
Q 31.34375 6.59375 34.59375 9 
Q 37.84375 11.421875 40.046875 17.28125 
L 41.546875 16.3125 
Q 40.53125 9.625 35.59375 4.125 
Q 30.671875 -1.375 23.25 -1.375 
Q 15.1875 -1.375 9.453125 4.90625 
Q 3.71875 11.1875 3.71875 21.78125 
Q 3.71875 33.25 9.59375 39.671875 
Q 15.484375 46.09375 24.359375 46.09375 
Q 31.890625 46.09375 36.71875 41.140625 
Q 41.546875 36.1875 41.546875 27.875 
z
M 10.640625 30.71875 
L 31.34375 30.71875 
Q 31.109375 35.015625 30.328125 36.765625 
Q 29.109375 39.5 26.6875 41.0625 
Q 24.265625 42.625 21.625 42.625 
Q 17.578125 42.625 14.375 39.46875 
Q 11.1875 36.328125 10.640625 30.71875 
z
" id="TimesNewRomanPSMT-65"/>
      <path d="M 32.03125 46.046875 
L 32.03125 30.8125 
L 30.421875 30.8125 
Q 28.5625 37.984375 25.65625 40.578125 
Q 22.75 43.171875 18.265625 43.171875 
Q 14.84375 43.171875 12.734375 41.359375 
Q 10.640625 39.546875 10.640625 37.359375 
Q 10.640625 34.625 12.203125 32.671875 
Q 13.71875 30.671875 18.359375 28.421875 
L 25.484375 24.953125 
Q 35.40625 20.125 35.40625 12.203125 
Q 35.40625 6.109375 30.78125 2.359375 
Q 26.171875 -1.375 20.453125 -1.375 
Q 16.359375 -1.375 11.078125 0.09375 
Q 9.46875 0.59375 8.453125 0.59375 
Q 7.328125 0.59375 6.6875 -0.6875 
L 5.078125 -0.6875 
L 5.078125 15.28125 
L 6.6875 15.28125 
Q 8.0625 8.453125 11.90625 4.984375 
Q 15.765625 1.515625 20.5625 1.515625 
Q 23.921875 1.515625 26.046875 3.484375 
Q 28.171875 5.46875 28.171875 8.25 
Q 28.171875 11.625 25.796875 13.921875 
Q 23.4375 16.21875 16.359375 19.734375 
Q 9.28125 23.25 7.078125 26.078125 
Q 4.890625 28.859375 4.890625 33.109375 
Q 4.890625 38.625 8.671875 42.328125 
Q 12.453125 46.046875 18.453125 46.046875 
Q 21.09375 46.046875 24.859375 44.921875 
Q 27.34375 44.1875 28.171875 44.1875 
Q 28.953125 44.1875 29.390625 44.53125 
Q 29.828125 44.875 30.421875 46.046875 
z
" id="TimesNewRomanPSMT-73"/>
      <path d="M 14.5 69.4375 
Q 16.546875 69.4375 17.984375 67.984375 
Q 19.4375 66.546875 19.4375 64.5 
Q 19.4375 62.453125 17.984375 60.984375 
Q 16.546875 59.515625 14.5 59.515625 
Q 12.453125 59.515625 10.984375 60.984375 
Q 9.515625 62.453125 9.515625 64.5 
Q 9.515625 66.546875 10.953125 67.984375 
Q 12.40625 69.4375 14.5 69.4375 
z
M 18.5625 46.046875 
L 18.5625 10.109375 
Q 18.5625 5.90625 19.171875 4.515625 
Q 19.78125 3.125 20.96875 2.4375 
Q 22.171875 1.765625 25.34375 1.765625 
L 25.34375 0 
L 3.609375 0 
L 3.609375 1.765625 
Q 6.890625 1.765625 8 2.390625 
Q 9.125 3.03125 9.78125 4.484375 
Q 10.453125 5.953125 10.453125 10.109375 
L 10.453125 27.34375 
Q 10.453125 34.625 10.015625 36.765625 
Q 9.671875 38.328125 8.9375 38.9375 
Q 8.203125 39.546875 6.9375 39.546875 
Q 5.5625 39.546875 3.609375 38.8125 
L 2.9375 40.578125 
L 16.40625 46.046875 
z
" id="TimesNewRomanPSMT-69"/>
      <path d="M 0.59375 44.734375 
L 21.4375 44.734375 
L 21.4375 42.921875 
L 20.40625 42.921875 
Q 18.21875 42.921875 17.109375 41.96875 
Q 16.015625 41.015625 16.015625 39.59375 
Q 16.015625 37.703125 17.625 34.328125 
L 28.515625 11.765625 
L 38.53125 36.46875 
Q 39.359375 38.484375 39.359375 40.4375 
Q 39.359375 41.3125 39.015625 41.75 
Q 38.625 42.28125 37.796875 42.59375 
Q 36.96875 42.921875 34.859375 42.921875 
L 34.859375 44.734375 
L 49.421875 44.734375 
L 49.421875 42.921875 
Q 47.609375 42.71875 46.625 42.125 
Q 45.65625 41.546875 44.484375 39.9375 
Q 44.046875 39.265625 42.828125 36.1875 
L 24.609375 -8.453125 
Q 21.96875 -14.9375 17.6875 -18.25 
Q 13.421875 -21.578125 9.46875 -21.578125 
Q 6.59375 -21.578125 4.734375 -19.921875 
Q 2.875 -18.265625 2.875 -16.109375 
Q 2.875 -14.0625 4.21875 -12.8125 
Q 5.5625 -11.578125 7.90625 -11.578125 
Q 9.515625 -11.578125 12.3125 -12.640625 
Q 14.265625 -13.375 14.75 -13.375 
Q 16.21875 -13.375 17.9375 -11.859375 
Q 19.671875 -10.359375 21.4375 -6 
L 24.609375 1.765625 
L 8.546875 35.5 
Q 7.8125 37.015625 6.203125 39.265625 
Q 4.984375 40.96875 4.203125 41.546875 
Q 3.078125 42.328125 0.59375 42.921875 
z
" id="TimesNewRomanPSMT-79"/>
     </defs>
     <g transform="translate(235.624219 201.847813)scale(0.18 -0.18)">
      <use xlink:href="#TimesNewRomanPSMT-49"/>
      <use x="33.300781" xlink:href="#TimesNewRomanPSMT-6e"/>
      <use x="83.300781" xlink:href="#TimesNewRomanPSMT-74"/>
      <use x="111.083984" xlink:href="#TimesNewRomanPSMT-65"/>
      <use x="155.46875" xlink:href="#TimesNewRomanPSMT-6e"/>
      <use x="205.46875" xlink:href="#TimesNewRomanPSMT-73"/>
      <use x="244.384766" xlink:href="#TimesNewRomanPSMT-69"/>
      <use x="272.167969" xlink:href="#TimesNewRomanPSMT-74"/>
      <use x="299.951172" xlink:href="#TimesNewRomanPSMT-79"/>
     </g>
    </g>
   </g>
   <g id="matplotlib.axis_2">
    <g id="ytick_1">
     <g id="line2d_7">
      <defs>
       <path d="M 0 0 
L -3.5 0 
" id="m0ea491438f" style="stroke:#000000;stroke-width:0.8;"/>
      </defs>
      <g>
       <use style="stroke:#000000;stroke-width:0.8;" x="55.44" xlink:href="#m0ea491438f" y="162"/>
      </g>
     </g>
     <g id="text_8">
      <!-- 0.0 -->
      <g transform="translate(25.94 168.249375)scale(0.18 -0.18)">
       <use xlink:href="#TimesNewRomanPSMT-30"/>
       <use x="50" xlink:href="#TimesNewRomanPSMT-2e"/>
       <use x="75" xlink:href="#TimesNewRomanPSMT-30"/>
      </g>
     </g>
    </g>
    <g id="ytick_2">
     <g id="line2d_8">
      <g>
       <use style="stroke:#000000;stroke-width:0.8;" x="55.44" xlink:href="#m0ea491438f" y="115.714286"/>
      </g>
     </g>
     <g id="text_9">
      <!-- 0.5 -->
      <g transform="translate(25.94 121.963661)scale(0.18 -0.18)">
       <use xlink:href="#TimesNewRomanPSMT-30"/>
       <use x="50" xlink:href="#TimesNewRomanPSMT-2e"/>
       <use x="75" xlink:href="#TimesNewRomanPSMT-35"/>
      </g>
     </g>
    </g>
    <g id="ytick_3">
     <g id="line2d_9">
      <g>
       <use style="stroke:#000000;stroke-width:0.8;" x="55.44" xlink:href="#m0ea491438f" y="69.428571"/>
      </g>
     </g>
     <g id="text_10">
      <!-- 1.0 -->
      <g transform="translate(25.94 75.677946)scale(0.18 -0.18)">
       <use xlink:href="#TimesNewRomanPSMT-31"/>
       <use x="50" xlink:href="#TimesNewRomanPSMT-2e"/>
       <use x="75" xlink:href="#TimesNewRomanPSMT-30"/>
      </g>
     </g>
    </g>
   </g>
   <g id="line2d_10">
    <path clip-path="url(#p640f753712)" d="M 74.683636 69.428571 
L 76.441046 69.890273 
L 78.198456 71.261609 
L 79.955866 73.501947 
L 81.713275 76.545801 
L 83.470685 80.306001 
L 85.228095 84.677843 
L 86.985504 89.543923 
L 90.500324 100.257004 
L 95.772553 116.940648 
L 99.287372 127.256915 
L 101.044782 131.946457 
L 102.802192 136.26169 
L 104.559601 140.176649 
L 106.317011 143.680235 
L 108.074421 146.774365 
L 109.831831 149.471819 
L 111.58924 151.793951 
L 113.34665 153.768399 
L 115.10406 155.426933 
L 116.861469 156.803525 
L 118.618879 157.932695 
L 120.376289 158.848178 
L 122.133699 159.581904 
L 123.891108 160.163282 
L 127.405928 160.971624 
L 130.920747 161.446791 
L 136.192976 161.797501 
L 143.222615 161.953904 
L 160.796712 161.999434 
L 459.556364 162 
L 459.556364 162 
" style="fill:none;stroke:#000000;stroke-linecap:square;stroke-width:2;"/>
   </g>
   <g id="line2d_11">
    <path clip-path="url(#p640f753712)" d="M 74.683636 161.797501 
L 79.955866 161.446791 
L 83.470685 160.971624 
L 86.985504 160.163282 
L 88.742914 159.581904 
L 90.500324 158.848178 
L 92.257733 157.932695 
L 94.015143 156.803525 
L 95.772553 155.426933 
L 97.529963 153.768399 
L 99.287372 151.793951 
L 101.044782 149.471819 
L 102.802192 146.774365 
L 104.559601 143.680235 
L 106.317011 140.176649 
L 108.074421 136.26169 
L 109.831831 131.946457 
L 111.58924 127.256915 
L 115.10406 116.940648 
L 123.891108 89.543923 
L 125.648518 84.677843 
L 127.405928 80.306001 
L 129.163337 76.545801 
L 130.920747 73.501947 
L 132.678157 71.261609 
L 134.435567 69.890273 
L 136.192976 69.428571 
L 137.950386 69.890273 
L 139.707796 71.261609 
L 141.465205 73.501947 
L 143.222615 76.545801 
L 144.980025 80.306001 
L 146.737435 84.677843 
L 148.494844 89.543923 
L 152.009664 100.257004 
L 157.281893 116.940648 
L 160.796712 127.256915 
L 162.554122 131.946457 
L 164.311532 136.26169 
L 166.068941 140.176649 
L 167.826351 143.680235 
L 169.583761 146.774365 
L 171.341171 149.471819 
L 173.09858 151.793951 
L 174.85599 153.768399 
L 176.6134 155.426933 
L 178.370809 156.803525 
L 180.128219 157.932695 
L 181.885629 158.848178 
L 183.643039 159.581904 
L 185.400448 160.163282 
L 188.915268 160.971624 
L 192.430087 161.446791 
L 197.702316 161.797501 
L 204.731955 161.953904 
L 222.306052 161.999434 
L 459.556364 162 
L 459.556364 162 
" style="fill:none;stroke:#4b0082;stroke-dasharray:16,4,16,4;stroke-dashoffset:0;stroke-width:2;"/>
   </g>
   <g id="line2d_12">
    <path clip-path="url(#p640f753712)" d="M 74.683636 162 
L 150.252254 161.901433 
L 155.524483 161.714073 
L 159.039303 161.446791 
L 162.554122 160.971624 
L 166.068941 160.163282 
L 167.826351 159.581904 
L 169.583761 158.848178 
L 171.341171 157.932695 
L 173.09858 156.803525 
L 174.85599 155.426933 
L 176.6134 153.768399 
L 178.370809 151.793951 
L 180.128219 149.471819 
L 181.885629 146.774365 
L 183.643039 143.680235 
L 185.400448 140.176649 
L 187.157858 136.26169 
L 188.915268 131.946457 
L 190.672677 127.256915 
L 194.187497 116.940648 
L 202.974545 89.543923 
L 204.731955 84.677843 
L 206.489365 80.306001 
L 208.246775 76.545801 
L 210.004184 73.501947 
L 211.761594 71.261609 
L 213.519004 69.890273 
L 215.276413 69.428571 
L 217.033823 69.890273 
L 218.791233 71.261609 
L 220.548643 73.501947 
L 222.306052 76.545801 
L 224.063462 80.306001 
L 225.820872 84.677843 
L 227.578281 89.543923 
L 231.093101 100.257004 
L 236.36533 116.940648 
L 239.880149 127.256915 
L 241.637559 131.946457 
L 243.394969 136.26169 
L 245.152379 140.176649 
L 246.909788 143.680235 
L 248.667198 146.774365 
L 250.424608 149.471819 
L 252.182017 151.793951 
L 253.939427 153.768399 
L 255.696837 155.426933 
L 257.454247 156.803525 
L 259.211656 157.932695 
L 260.969066 158.848178 
L 262.726476 159.581904 
L 264.483885 160.163282 
L 267.998705 160.971624 
L 271.513524 161.446791 
L 276.785753 161.797501 
L 283.815392 161.953904 
L 301.389489 161.999434 
L 459.556364 162 
L 459.556364 162 
" style="fill:none;stroke:#808080;stroke-dasharray:4,2,4,2;stroke-dashoffset:0;stroke-width:2;"/>
   </g>
   <g id="line2d_13">
    <path clip-path="url(#p640f753712)" d="M 74.683636 162 
L 229.335691 161.901433 
L 234.60792 161.714073 
L 238.12274 161.446791 
L 241.637559 160.971624 
L 245.152379 160.163282 
L 246.909788 159.581904 
L 248.667198 158.848178 
L 250.424608 157.932695 
L 252.182017 156.803525 
L 253.939427 155.426933 
L 255.696837 153.768399 
L 257.454247 151.793951 
L 259.211656 149.471819 
L 260.969066 146.774365 
L 262.726476 143.680235 
L 264.483885 140.176649 
L 266.241295 136.26169 
L 267.998705 131.946457 
L 269.756115 127.256915 
L 273.270934 116.940648 
L 282.057983 89.543923 
L 283.815392 84.677843 
L 285.572802 80.306001 
L 287.330212 76.545801 
L 289.087621 73.501947 
L 290.845031 71.261609 
L 292.602441 69.890273 
L 294.359851 69.428571 
L 296.11726 69.890273 
L 297.87467 71.261609 
L 299.63208 73.501947 
L 301.389489 76.545801 
L 303.146899 80.306001 
L 304.904309 84.677843 
L 306.661719 89.543923 
L 310.176538 100.257004 
L 315.448767 116.940648 
L 318.963587 127.256915 
L 320.720996 131.946457 
L 322.478406 136.26169 
L 324.235816 140.176649 
L 325.993225 143.680235 
L 327.750635 146.774365 
L 329.508045 149.471819 
L 331.265455 151.793951 
L 333.022864 153.768399 
L 334.780274 155.426933 
L 336.537684 156.803525 
L 338.295093 157.932695 
L 340.052503 158.848178 
L 341.809913 159.581904 
L 343.567323 160.163282 
L 347.082142 160.971624 
L 350.596961 161.446791 
L 355.869191 161.797501 
L 362.898829 161.953904 
L 380.472927 161.999434 
L 459.556364 162 
L 459.556364 162 
" style="fill:none;stroke:#4169e1;stroke-dasharray:16,2,16,2;stroke-dashoffset:0;stroke-width:2;"/>
   </g>
   <g id="line2d_14">
    <path clip-path="url(#p640f753712)" d="M 74.683636 162 
L 297.87467 161.901433 
L 303.146899 161.714073 
L 306.661719 161.446791 
L 310.176538 160.971624 
L 313.691357 160.163282 
L 315.448767 159.581904 
L 317.206177 158.848178 
L 318.963587 157.932695 
L 320.720996 156.803525 
L 322.478406 155.426933 
L 324.235816 153.768399 
L 325.993225 151.793951 
L 327.750635 149.471819 
L 329.508045 146.774365 
L 331.265455 143.680235 
L 333.022864 140.176649 
L 334.780274 136.26169 
L 336.537684 131.946457 
L 338.295093 127.256915 
L 341.809913 116.940648 
L 350.596961 89.543923 
L 352.354371 84.677843 
L 354.111781 80.306001 
L 355.869191 76.545801 
L 357.6266 73.501947 
L 359.38401 71.261609 
L 361.14142 69.890273 
L 362.898829 69.428571 
L 364.656239 69.890273 
L 366.413649 71.261609 
L 368.171059 73.501947 
L 369.928468 76.545801 
L 371.685878 80.306001 
L 373.443288 84.677843 
L 375.200697 89.543923 
L 378.715517 100.257004 
L 383.987746 116.940648 
L 387.502565 127.256915 
L 389.259975 131.946457 
L 391.017385 136.26169 
L 392.774795 140.176649 
L 394.532204 143.680235 
L 396.289614 146.774365 
L 398.047024 149.471819 
L 399.804433 151.793951 
L 401.561843 153.768399 
L 403.319253 155.426933 
L 405.076663 156.803525 
L 406.834072 157.932695 
L 408.591482 158.848178 
L 410.348892 159.581904 
L 412.106301 160.163282 
L 415.621121 160.971624 
L 419.13594 161.446791 
L 424.408169 161.797501 
L 431.437808 161.953904 
L 449.011905 161.999434 
L 459.556364 161.999975 
L 459.556364 161.999975 
" style="fill:none;stroke:#808000;stroke-dasharray:4,4,4,4;stroke-dashoffset:0;stroke-width:2;"/>
   </g>
   <g id="line2d_15">
    <path clip-path="url(#p640f753712)" d="M 74.683636 162 
L 396.289614 161.901433 
L 401.561843 161.714073 
L 405.076663 161.446791 
L 408.591482 160.971624 
L 412.106301 160.163282 
L 413.863711 159.581904 
L 415.621121 158.848178 
L 417.378531 157.932695 
L 419.13594 156.803525 
L 420.89335 155.426933 
L 422.65076 153.768399 
L 424.408169 151.793951 
L 426.165579 149.471819 
L 427.922989 146.774365 
L 429.680399 143.680235 
L 431.437808 140.176649 
L 433.195218 136.26169 
L 434.952628 131.946457 
L 436.710037 127.256915 
L 440.224857 116.940648 
L 449.011905 89.543923 
L 450.769315 84.677843 
L 452.526725 80.306001 
L 454.284134 76.545801 
L 456.041544 73.501947 
L 457.798954 71.261609 
L 459.556364 69.890273 
L 459.556364 69.890273 
" style="fill:none;stroke:#8b0000;stroke-dasharray:8,2,8,2;stroke-dashoffset:0;stroke-width:2;"/>
   </g>
   <g id="patch_3">
    <path d="M 55.44 162 
L 55.44 64.8 
" style="fill:none;stroke:#000000;stroke-linecap:square;stroke-linejoin:miter;stroke-width:0.8;"/>
   </g>
   <g id="patch_4">
    <path d="M 55.44 162 
L 478.8 162 
" style="fill:none;stroke:#000000;stroke-linecap:square;stroke-linejoin:miter;stroke-width:0.8;"/>
   </g>
   <g id="text_11">
    <!-- Zero -->
    <defs>
     <path d="M 57.515625 66.21875 
L 14.015625 4 
L 41.15625 4 
Q 47.40625 4 50.75 6.734375 
Q 54.109375 9.46875 56.6875 17.828125 
L 58.296875 17.53125 
L 55.171875 0 
L 1.265625 0 
L 1.265625 1.8125 
L 43.75 62.25 
L 22.5625 62.25 
Q 17.28125 62.25 14.90625 61.109375 
Q 12.546875 59.96875 11.296875 57.78125 
Q 10.0625 55.609375 9.03125 49.65625 
L 7.171875 49.65625 
L 8.546875 66.21875 
z
" id="TimesNewRomanPSMT-5a"/>
     <path d="M 16.21875 46.046875 
L 16.21875 35.984375 
Q 21.828125 46.046875 27.734375 46.046875 
Q 30.421875 46.046875 32.171875 44.40625 
Q 33.9375 42.78125 33.9375 40.625 
Q 33.9375 38.71875 32.65625 37.390625 
Q 31.390625 36.078125 29.640625 36.078125 
Q 27.9375 36.078125 25.8125 37.765625 
Q 23.6875 39.453125 22.65625 39.453125 
Q 21.78125 39.453125 20.75 38.484375 
Q 18.5625 36.46875 16.21875 31.890625 
L 16.21875 10.453125 
Q 16.21875 6.734375 17.140625 4.828125 
Q 17.78125 3.515625 19.390625 2.640625 
Q 21 1.765625 24.03125 1.765625 
L 24.03125 0 
L 1.125 0 
L 1.125 1.765625 
Q 4.546875 1.765625 6.203125 2.828125 
Q 7.421875 3.609375 7.90625 5.328125 
Q 8.15625 6.15625 8.15625 10.0625 
L 8.15625 27.390625 
Q 8.15625 35.203125 7.828125 36.6875 
Q 7.515625 38.1875 6.65625 38.859375 
Q 5.8125 39.546875 4.546875 39.546875 
Q 3.03125 39.546875 1.125 38.8125 
L 0.640625 40.578125 
L 14.15625 46.046875 
z
" id="TimesNewRomanPSMT-72"/>
     <path d="M 25 46.046875 
Q 35.15625 46.046875 41.3125 38.328125 
Q 46.53125 31.734375 46.53125 23.1875 
Q 46.53125 17.1875 43.640625 11.03125 
Q 40.765625 4.890625 35.71875 1.75 
Q 30.671875 -1.375 24.46875 -1.375 
Q 14.359375 -1.375 8.40625 6.6875 
Q 3.375 13.484375 3.375 21.921875 
Q 3.375 28.078125 6.421875 34.15625 
Q 9.46875 40.234375 14.453125 43.140625 
Q 19.4375 46.046875 25 46.046875 
z
M 23.484375 42.875 
Q 20.90625 42.875 18.28125 41.328125 
Q 15.671875 39.796875 14.0625 35.9375 
Q 12.453125 32.078125 12.453125 26.03125 
Q 12.453125 16.265625 16.328125 9.171875 
Q 20.21875 2.09375 26.5625 2.09375 
Q 31.296875 2.09375 34.375 6 
Q 37.453125 9.90625 37.453125 19.4375 
Q 37.453125 31.34375 32.328125 38.1875 
Q 28.859375 42.875 23.484375 42.875 
z
" id="TimesNewRomanPSMT-6f"/>
    </defs>
    <g transform="translate(58.638558 56.535022)scale(0.17 -0.17)">
     <use xlink:href="#TimesNewRomanPSMT-5a"/>
     <use x="61.083984" xlink:href="#TimesNewRomanPSMT-65"/>
     <use x="105.46875" xlink:href="#TimesNewRomanPSMT-72"/>
     <use x="138.769531" xlink:href="#TimesNewRomanPSMT-6f"/>
    </g>
   </g>
   <g id="text_12">
    <!-- Slow -->
    <defs>
     <path d="M 45.84375 67.71875 
L 45.84375 44.828125 
L 44.046875 44.828125 
Q 43.171875 51.421875 40.890625 55.328125 
Q 38.625 59.234375 34.421875 61.515625 
Q 30.21875 63.8125 25.734375 63.8125 
Q 20.65625 63.8125 17.328125 60.71875 
Q 14.015625 57.625 14.015625 53.65625 
Q 14.015625 50.640625 16.109375 48.140625 
Q 19.140625 44.484375 30.515625 38.375 
Q 39.796875 33.40625 43.1875 30.734375 
Q 46.578125 28.078125 48.40625 24.453125 
Q 50.25 20.84375 50.25 16.890625 
Q 50.25 9.375 44.40625 3.921875 
Q 38.578125 -1.515625 29.390625 -1.515625 
Q 26.515625 -1.515625 23.96875 -1.078125 
Q 22.46875 -0.828125 17.703125 0.703125 
Q 12.9375 2.25 11.671875 2.25 
Q 10.453125 2.25 9.734375 1.515625 
Q 9.03125 0.78125 8.6875 -1.515625 
L 6.890625 -1.515625 
L 6.890625 21.1875 
L 8.6875 21.1875 
Q 9.96875 14.0625 12.109375 10.515625 
Q 14.265625 6.984375 18.671875 4.640625 
Q 23.09375 2.296875 28.375 2.296875 
Q 34.46875 2.296875 38 5.515625 
Q 41.546875 8.734375 41.546875 13.140625 
Q 41.546875 15.578125 40.203125 18.0625 
Q 38.875 20.5625 36.03125 22.703125 
Q 34.125 24.171875 25.625 28.921875 
Q 17.140625 33.6875 13.546875 36.515625 
Q 9.96875 39.359375 8.109375 42.765625 
Q 6.25 46.1875 6.25 50.296875 
Q 6.25 57.421875 11.71875 62.5625 
Q 17.1875 67.71875 25.640625 67.71875 
Q 30.90625 67.71875 36.8125 65.140625 
Q 39.546875 63.921875 40.671875 63.921875 
Q 41.9375 63.921875 42.75 64.671875 
Q 43.5625 65.4375 44.046875 67.71875 
z
" id="TimesNewRomanPSMT-53"/>
     <path d="M 18.5 69.4375 
L 18.5 10.109375 
Q 18.5 5.90625 19.109375 4.53125 
Q 19.734375 3.171875 21 2.46875 
Q 22.265625 1.765625 25.734375 1.765625 
L 25.734375 0 
L 3.8125 0 
L 3.8125 1.765625 
Q 6.890625 1.765625 8 2.390625 
Q 9.125 3.03125 9.765625 4.484375 
Q 10.40625 5.953125 10.40625 10.109375 
L 10.40625 50.734375 
Q 10.40625 58.296875 10.0625 60.03125 
Q 9.71875 61.765625 8.953125 62.390625 
Q 8.203125 63.03125 7.03125 63.03125 
Q 5.765625 63.03125 3.8125 62.25 
L 2.984375 63.96875 
L 16.3125 69.4375 
z
" id="TimesNewRomanPSMT-6c"/>
     <path d="M 0.640625 44.734375 
L 19.390625 44.734375 
L 19.390625 42.921875 
Q 16.796875 42.71875 15.984375 41.984375 
Q 15.1875 41.265625 15.1875 39.890625 
Q 15.1875 38.375 16.015625 36.234375 
L 25.59375 10.5 
L 35.203125 31.453125 
L 32.671875 38.03125 
Q 31.5 40.96875 29.59375 42.09375 
Q 28.515625 42.78125 25.59375 42.921875 
L 25.59375 44.734375 
L 46.875 44.734375 
L 46.875 42.921875 
Q 43.359375 42.78125 41.890625 41.65625 
Q 40.921875 40.875 40.921875 39.15625 
Q 40.921875 38.1875 41.3125 37.15625 
L 51.46875 11.46875 
L 60.890625 36.234375 
Q 61.859375 38.875 61.859375 40.4375 
Q 61.859375 41.359375 60.90625 42.09375 
Q 59.96875 42.828125 57.171875 42.921875 
L 57.171875 44.734375 
L 71.296875 44.734375 
L 71.296875 42.921875 
Q 67.046875 42.28125 65.046875 37.15625 
L 50.09375 -1.375 
L 48.09375 -1.375 
L 36.921875 27.203125 
L 23.875 -1.375 
L 22.078125 -1.375 
L 7.71875 36.234375 
Q 6.296875 39.796875 4.921875 41.03125 
Q 3.5625 42.28125 0.640625 42.921875 
z
" id="TimesNewRomanPSMT-77"/>
    </defs>
    <g style="fill:#4b0082;" transform="translate(118.716179 56.535022)scale(0.17 -0.17)">
     <use xlink:href="#TimesNewRomanPSMT-53"/>
     <use x="55.615234" xlink:href="#TimesNewRomanPSMT-6c"/>
     <use x="83.398438" xlink:href="#TimesNewRomanPSMT-6f"/>
     <use x="133.398438" xlink:href="#TimesNewRomanPSMT-77"/>
    </g>
   </g>
   <g id="text_13">
    <!-- Physiological -->
    <defs>
     <path d="M 20.515625 31 
L 20.515625 11.71875 
Q 20.515625 5.46875 21.875 3.953125 
Q 23.734375 1.8125 27.484375 1.8125 
L 30.03125 1.8125 
L 30.03125 0 
L 1.65625 0 
L 1.65625 1.8125 
L 4.15625 1.8125 
Q 8.34375 1.8125 10.15625 4.546875 
Q 11.140625 6.0625 11.140625 11.71875 
L 11.140625 54.5 
Q 11.140625 60.75 9.8125 62.25 
Q 7.90625 64.40625 4.15625 64.40625 
L 1.65625 64.40625 
L 1.65625 66.21875 
L 25.921875 66.21875 
Q 34.8125 66.21875 39.9375 64.375 
Q 45.0625 62.546875 48.578125 58.203125 
Q 52.09375 53.859375 52.09375 47.90625 
Q 52.09375 39.796875 46.75 34.71875 
Q 41.40625 29.640625 31.640625 29.640625 
Q 29.25 29.640625 26.46875 29.984375 
Q 23.6875 30.328125 20.515625 31 
z
M 20.515625 33.796875 
Q 23.09375 33.296875 25.09375 33.046875 
Q 27.09375 32.8125 28.515625 32.8125 
Q 33.59375 32.8125 37.28125 36.734375 
Q 40.96875 40.671875 40.96875 46.921875 
Q 40.96875 51.21875 39.203125 54.90625 
Q 37.453125 58.59375 34.21875 60.421875 
Q 31 62.25 26.90625 62.25 
Q 24.421875 62.25 20.515625 61.328125 
z
" id="TimesNewRomanPSMT-50"/>
     <path d="M 16.265625 69.4375 
L 16.265625 36.71875 
Q 21.6875 42.671875 24.859375 44.359375 
Q 28.03125 46.046875 31.203125 46.046875 
Q 35.015625 46.046875 37.75 43.9375 
Q 40.484375 41.84375 41.796875 37.359375 
Q 42.71875 34.234375 42.71875 25.921875 
L 42.71875 10.109375 
Q 42.71875 5.859375 43.40625 4.296875 
Q 43.890625 3.125 45.0625 2.4375 
Q 46.234375 1.765625 49.359375 1.765625 
L 49.359375 0 
L 27.390625 0 
L 27.390625 1.765625 
L 28.421875 1.765625 
Q 31.546875 1.765625 32.765625 2.703125 
Q 33.984375 3.65625 34.46875 5.515625 
Q 34.625 6.296875 34.625 10.109375 
L 34.625 25.921875 
Q 34.625 33.25 33.859375 35.546875 
Q 33.109375 37.84375 31.4375 38.984375 
Q 29.78125 40.140625 27.4375 40.140625 
Q 25.046875 40.140625 22.453125 38.859375 
Q 19.875 37.59375 16.265625 33.734375 
L 16.265625 10.109375 
Q 16.265625 5.515625 16.765625 4.390625 
Q 17.28125 3.265625 18.671875 2.515625 
Q 20.0625 1.765625 23.484375 1.765625 
L 23.484375 0 
L 1.3125 0 
L 1.3125 1.765625 
Q 4.296875 1.765625 6 2.6875 
Q 6.984375 3.171875 7.5625 4.53125 
Q 8.15625 5.90625 8.15625 10.109375 
L 8.15625 50.59375 
Q 8.15625 58.25 7.78125 60 
Q 7.421875 61.765625 6.65625 62.390625 
Q 5.90625 63.03125 4.640625 63.03125 
Q 3.609375 63.03125 1.3125 62.25 
L 0.640625 63.96875 
L 14.015625 69.4375 
z
" id="TimesNewRomanPSMT-68"/>
     <path d="M 15.09375 16.3125 
Q 10.984375 18.3125 8.78125 21.890625 
Q 6.59375 25.484375 6.59375 29.828125 
Q 6.59375 36.46875 11.59375 41.25 
Q 16.609375 46.046875 24.421875 46.046875 
Q 30.8125 46.046875 35.5 42.921875 
L 44.96875 42.921875 
Q 47.078125 42.921875 47.40625 42.796875 
Q 47.75 42.671875 47.90625 42.390625 
Q 48.1875 41.9375 48.1875 40.828125 
Q 48.1875 39.546875 47.953125 39.0625 
Q 47.796875 38.8125 47.4375 38.671875 
Q 47.078125 38.53125 44.96875 38.53125 
L 39.15625 38.53125 
Q 41.890625 35.015625 41.890625 29.546875 
Q 41.890625 23.296875 37.109375 18.84375 
Q 32.328125 14.40625 24.265625 14.40625 
Q 20.953125 14.40625 17.484375 15.375 
Q 15.328125 13.53125 14.5625 12.140625 
Q 13.8125 10.75 13.8125 9.765625 
Q 13.8125 8.9375 14.625 8.15625 
Q 15.4375 7.375 17.78125 7.03125 
Q 19.140625 6.84375 24.609375 6.6875 
Q 34.671875 6.453125 37.640625 6 
Q 42.1875 5.375 44.890625 2.640625 
Q 47.609375 -0.09375 47.609375 -4.109375 
Q 47.609375 -9.625 42.4375 -14.453125 
Q 34.8125 -21.578125 22.5625 -21.578125 
Q 13.140625 -21.578125 6.640625 -17.328125 
Q 2.984375 -14.890625 2.984375 -12.25 
Q 2.984375 -11.078125 3.515625 -9.90625 
Q 4.34375 -8.109375 6.9375 -4.890625 
Q 7.28125 -4.4375 11.921875 0.390625 
Q 9.375 1.90625 8.328125 3.09375 
Q 7.28125 4.296875 7.28125 5.8125 
Q 7.28125 7.515625 8.671875 9.8125 
Q 10.0625 12.109375 15.09375 16.3125 
z
M 23.578125 43.703125 
Q 19.96875 43.703125 17.53125 40.8125 
Q 15.09375 37.9375 15.09375 31.984375 
Q 15.09375 24.265625 18.40625 20.015625 
Q 20.953125 16.796875 24.859375 16.796875 
Q 28.5625 16.796875 30.953125 19.578125 
Q 33.34375 22.359375 33.34375 28.328125 
Q 33.34375 36.078125 29.984375 40.484375 
Q 27.484375 43.703125 23.578125 43.703125 
z
M 14.59375 0 
Q 12.3125 -2.484375 11.140625 -4.625 
Q 9.96875 -6.78125 9.96875 -8.59375 
Q 9.96875 -10.9375 12.796875 -12.703125 
Q 17.671875 -15.71875 26.90625 -15.71875 
Q 35.6875 -15.71875 39.859375 -12.609375 
Q 44.046875 -9.515625 44.046875 -6 
Q 44.046875 -3.46875 41.546875 -2.390625 
Q 39.015625 -1.3125 31.5 -1.125 
Q 20.515625 -0.828125 14.59375 0 
z
" id="TimesNewRomanPSMT-67"/>
     <path d="M 41.109375 17 
Q 39.3125 8.15625 34.03125 3.390625 
Q 28.765625 -1.375 22.359375 -1.375 
Q 14.75 -1.375 9.078125 5.015625 
Q 3.421875 11.421875 3.421875 22.3125 
Q 3.421875 32.859375 9.6875 39.453125 
Q 15.96875 46.046875 24.75 46.046875 
Q 31.34375 46.046875 35.59375 42.546875 
Q 39.84375 39.0625 39.84375 35.296875 
Q 39.84375 33.453125 38.640625 32.296875 
Q 37.453125 31.15625 35.296875 31.15625 
Q 32.421875 31.15625 30.953125 33.015625 
Q 30.125 34.03125 29.859375 36.90625 
Q 29.59375 39.796875 27.875 41.3125 
Q 26.171875 42.78125 23.140625 42.78125 
Q 18.265625 42.78125 15.28125 39.15625 
Q 11.328125 34.375 11.328125 26.515625 
Q 11.328125 18.5 15.25 12.375 
Q 19.1875 6.25 25.875 6.25 
Q 30.671875 6.25 34.46875 9.515625 
Q 37.15625 11.765625 39.703125 17.671875 
z
" id="TimesNewRomanPSMT-63"/>
     <path d="M 28.46875 6.453125 
Q 21.578125 1.125 19.828125 0.296875 
Q 17.1875 -0.921875 14.203125 -0.921875 
Q 9.578125 -0.921875 6.5625 2.25 
Q 3.5625 5.421875 3.5625 10.59375 
Q 3.5625 13.875 5.03125 16.265625 
Q 7.03125 19.578125 11.984375 22.5 
Q 16.9375 25.4375 28.46875 29.640625 
L 28.46875 31.390625 
Q 28.46875 38.09375 26.34375 40.578125 
Q 24.21875 43.0625 20.171875 43.0625 
Q 17.09375 43.0625 15.28125 41.40625 
Q 13.421875 39.75 13.421875 37.59375 
L 13.53125 34.765625 
Q 13.53125 32.515625 12.375 31.296875 
Q 11.234375 30.078125 9.375 30.078125 
Q 7.5625 30.078125 6.421875 31.34375 
Q 5.28125 32.625 5.28125 34.8125 
Q 5.28125 39.015625 9.578125 42.53125 
Q 13.875 46.046875 21.625 46.046875 
Q 27.59375 46.046875 31.390625 44.046875 
Q 34.28125 42.53125 35.640625 39.3125 
Q 36.53125 37.203125 36.53125 30.71875 
L 36.53125 15.53125 
Q 36.53125 9.125 36.765625 7.6875 
Q 37.015625 6.25 37.578125 5.765625 
Q 38.140625 5.28125 38.875 5.28125 
Q 39.65625 5.28125 40.234375 5.609375 
Q 41.265625 6.25 44.1875 9.1875 
L 44.1875 6.453125 
Q 38.71875 -0.875 33.734375 -0.875 
Q 31.34375 -0.875 29.921875 0.78125 
Q 28.515625 2.4375 28.46875 6.453125 
z
M 28.46875 9.625 
L 28.46875 26.65625 
Q 21.09375 23.734375 18.953125 22.515625 
Q 15.09375 20.359375 13.421875 18.015625 
Q 11.765625 15.671875 11.765625 12.890625 
Q 11.765625 9.375 13.859375 7.046875 
Q 15.96875 4.734375 18.703125 4.734375 
Q 22.40625 4.734375 28.46875 9.625 
z
" id="TimesNewRomanPSMT-61"/>
    </defs>
    <g style="fill:#808080;" transform="translate(168.999226 56.503147)scale(0.17 -0.17)">
     <use xlink:href="#TimesNewRomanPSMT-50"/>
     <use x="55.615234" xlink:href="#TimesNewRomanPSMT-68"/>
     <use x="105.615234" xlink:href="#TimesNewRomanPSMT-79"/>
     <use x="155.615234" xlink:href="#TimesNewRomanPSMT-73"/>
     <use x="194.53125" xlink:href="#TimesNewRomanPSMT-69"/>
     <use x="222.314453" xlink:href="#TimesNewRomanPSMT-6f"/>
     <use x="272.314453" xlink:href="#TimesNewRomanPSMT-6c"/>
     <use x="300.097656" xlink:href="#TimesNewRomanPSMT-6f"/>
     <use x="350.097656" xlink:href="#TimesNewRomanPSMT-67"/>
     <use x="400.097656" xlink:href="#TimesNewRomanPSMT-69"/>
     <use x="427.880859" xlink:href="#TimesNewRomanPSMT-63"/>
     <use x="472.265625" xlink:href="#TimesNewRomanPSMT-61"/>
     <use x="516.650391" xlink:href="#TimesNewRomanPSMT-6c"/>
    </g>
   </g>
   <g id="text_14">
    <!-- Fast -->
    <defs>
     <path d="M 20.453125 62.59375 
L 20.453125 36.578125 
L 32.515625 36.578125 
Q 36.671875 36.578125 38.59375 38.40625 
Q 40.53125 40.234375 41.15625 45.65625 
L 42.96875 45.65625 
L 42.96875 23.25 
L 41.15625 23.25 
Q 41.109375 27.09375 40.15625 28.90625 
Q 39.203125 30.71875 37.515625 31.609375 
Q 35.84375 32.515625 32.515625 32.515625 
L 20.453125 32.515625 
L 20.453125 11.71875 
Q 20.453125 6.6875 21.09375 5.078125 
Q 21.578125 3.859375 23.140625 2.984375 
Q 25.296875 1.8125 27.640625 1.8125 
L 30.03125 1.8125 
L 30.03125 0 
L 1.609375 0 
L 1.609375 1.8125 
L 3.953125 1.8125 
Q 8.0625 1.8125 9.90625 4.203125 
Q 11.078125 5.765625 11.078125 11.71875 
L 11.078125 54.5 
Q 11.078125 59.515625 10.453125 61.140625 
Q 9.96875 62.359375 8.453125 63.234375 
Q 6.34375 64.40625 3.953125 64.40625 
L 1.609375 64.40625 
L 1.609375 66.21875 
L 50.875 66.21875 
L 51.515625 51.65625 
L 49.8125 51.65625 
Q 48.53125 56.296875 46.84375 58.46875 
Q 45.171875 60.640625 42.703125 61.609375 
Q 40.234375 62.59375 35.0625 62.59375 
z
" id="TimesNewRomanPSMT-46"/>
    </defs>
    <g style="fill:#4169e1;" transform="translate(280.190085 56.535022)scale(0.17 -0.17)">
     <use xlink:href="#TimesNewRomanPSMT-46"/>
     <use x="55.615234" xlink:href="#TimesNewRomanPSMT-61"/>
     <use x="100" xlink:href="#TimesNewRomanPSMT-73"/>
     <use x="138.916016" xlink:href="#TimesNewRomanPSMT-74"/>
    </g>
   </g>
   <g id="text_15">
    <!-- Very fast -->
    <defs>
     <path d="M 71 66.21875 
L 71 64.40625 
Q 67.484375 63.765625 65.671875 62.15625 
Q 63.09375 59.765625 61.078125 54.828125 
L 37.984375 -1.515625 
L 36.1875 -1.515625 
L 11.375 55.5625 
Q 9.46875 59.96875 8.6875 60.9375 
Q 7.46875 62.453125 5.6875 63.296875 
Q 3.90625 64.15625 0.875 64.40625 
L 0.875 66.21875 
L 27.9375 66.21875 
L 27.9375 64.40625 
Q 23.34375 63.96875 21.96875 62.84375 
Q 20.609375 61.71875 20.609375 59.96875 
Q 20.609375 57.515625 22.859375 52.34375 
L 39.703125 13.53125 
L 55.328125 51.859375 
Q 57.625 57.515625 57.625 59.71875 
Q 57.625 61.140625 56.203125 62.421875 
Q 54.78125 63.71875 51.421875 64.265625 
Q 51.171875 64.3125 50.59375 64.40625 
L 50.59375 66.21875 
z
" id="TimesNewRomanPSMT-56"/>
     <path id="TimesNewRomanPSMT-20"/>
     <path d="M 20.609375 41.21875 
L 20.609375 11.8125 
Q 20.609375 5.5625 21.96875 3.90625 
Q 23.78125 1.765625 26.8125 1.765625 
L 30.859375 1.765625 
L 30.859375 0 
L 4.15625 0 
L 4.15625 1.765625 
L 6.15625 1.765625 
Q 8.109375 1.765625 9.71875 2.734375 
Q 11.328125 3.71875 11.9375 5.375 
Q 12.546875 7.03125 12.546875 11.8125 
L 12.546875 41.21875 
L 3.859375 41.21875 
L 3.859375 44.734375 
L 12.546875 44.734375 
L 12.546875 47.65625 
Q 12.546875 54.34375 14.6875 58.984375 
Q 16.84375 63.625 21.265625 66.484375 
Q 25.6875 69.34375 31.203125 69.34375 
Q 36.328125 69.34375 40.625 66.015625 
Q 43.453125 63.8125 43.453125 61.078125 
Q 43.453125 59.625 42.1875 58.328125 
Q 40.921875 57.03125 39.453125 57.03125 
Q 38.328125 57.03125 37.078125 57.828125 
Q 35.84375 58.640625 34.03125 61.296875 
Q 32.234375 63.96875 30.71875 64.890625 
Q 29.203125 65.828125 27.34375 65.828125 
Q 25.09375 65.828125 23.53125 64.625 
Q 21.96875 63.421875 21.28125 60.90625 
Q 20.609375 58.40625 20.609375 47.953125 
L 20.609375 44.734375 
L 32.125 44.734375 
L 32.125 41.21875 
z
" id="TimesNewRomanPSMT-66"/>
    </defs>
    <g style="fill:#808000;" transform="translate(331.523204 56.503147)scale(0.17 -0.17)">
     <use xlink:href="#TimesNewRomanPSMT-56"/>
     <use x="72.044922" xlink:href="#TimesNewRomanPSMT-65"/>
     <use x="116.429688" xlink:href="#TimesNewRomanPSMT-72"/>
     <use x="149.730469" xlink:href="#TimesNewRomanPSMT-79"/>
     <use x="199.730469" xlink:href="#TimesNewRomanPSMT-20"/>
     <use x="224.730469" xlink:href="#TimesNewRomanPSMT-66"/>
     <use x="258.03125" xlink:href="#TimesNewRomanPSMT-61"/>
     <use x="302.416016" xlink:href="#TimesNewRomanPSMT-73"/>
     <use x="341.332031" xlink:href="#TimesNewRomanPSMT-74"/>
    </g>
   </g>
   <g id="text_16">
    <!-- Extremely fast -->
    <defs>
     <path d="M 20.90625 62.59375 
L 20.90625 36.421875 
L 35.453125 36.421875 
Q 41.109375 36.421875 43.015625 38.140625 
Q 45.5625 40.375 45.84375 46.046875 
L 47.65625 46.046875 
L 47.65625 23 
L 45.84375 23 
Q 45.171875 27.828125 44.484375 29.203125 
Q 43.609375 30.90625 41.59375 31.875 
Q 39.59375 32.859375 35.453125 32.859375 
L 20.90625 32.859375 
L 20.90625 11.03125 
Q 20.90625 6.640625 21.296875 5.6875 
Q 21.6875 4.734375 22.65625 4.171875 
Q 23.640625 3.609375 26.375 3.609375 
L 37.59375 3.609375 
Q 43.21875 3.609375 45.75 4.390625 
Q 48.296875 5.171875 50.640625 7.46875 
Q 53.65625 10.5 56.84375 16.609375 
L 58.796875 16.609375 
L 53.078125 0 
L 2.046875 0 
L 2.046875 1.8125 
L 4.390625 1.8125 
Q 6.734375 1.8125 8.84375 2.9375 
Q 10.40625 3.71875 10.96875 5.28125 
Q 11.53125 6.84375 11.53125 11.671875 
L 11.53125 54.6875 
Q 11.53125 60.984375 10.25 62.453125 
Q 8.5 64.40625 4.390625 64.40625 
L 2.046875 64.40625 
L 2.046875 66.21875 
L 53.078125 66.21875 
L 53.8125 51.703125 
L 51.90625 51.703125 
Q 50.875 56.9375 49.625 58.890625 
Q 48.390625 60.84375 45.953125 61.859375 
Q 44 62.59375 39.0625 62.59375 
z
" id="TimesNewRomanPSMT-45"/>
     <path d="M 1.3125 44.734375 
L 22.359375 44.734375 
L 22.359375 42.921875 
Q 20.359375 42.921875 19.546875 42.234375 
Q 18.75 41.546875 18.75 40.4375 
Q 18.75 39.265625 20.453125 36.8125 
Q 21 36.03125 22.078125 34.375 
L 25.25 29.296875 
L 28.90625 34.375 
Q 32.421875 39.203125 32.421875 40.484375 
Q 32.421875 41.5 31.59375 42.203125 
Q 30.765625 42.921875 28.90625 42.921875 
L 28.90625 44.734375 
L 44.046875 44.734375 
L 44.046875 42.921875 
Q 41.65625 42.78125 39.890625 41.609375 
Q 37.5 39.9375 33.34375 34.375 
L 27.25 26.21875 
L 38.375 10.203125 
Q 42.484375 4.296875 44.234375 3.09375 
Q 46 1.90625 48.78125 1.765625 
L 48.78125 0 
L 27.6875 0 
L 27.6875 1.765625 
Q 29.890625 1.765625 31.109375 2.734375 
Q 32.03125 3.421875 32.03125 4.546875 
Q 32.03125 5.671875 28.90625 10.203125 
L 22.359375 19.78125 
L 15.1875 10.203125 
Q 11.859375 5.765625 11.859375 4.9375 
Q 11.859375 3.765625 12.953125 2.8125 
Q 14.0625 1.859375 16.265625 1.765625 
L 16.265625 0 
L 1.65625 0 
L 1.65625 1.765625 
Q 3.421875 2 4.734375 2.984375 
Q 6.59375 4.390625 10.984375 10.203125 
L 20.359375 22.65625 
L 11.859375 34.96875 
Q 8.25 40.234375 6.265625 41.578125 
Q 4.296875 42.921875 1.3125 42.921875 
z
" id="TimesNewRomanPSMT-78"/>
     <path d="M 16.40625 36.53125 
Q 21.296875 41.40625 22.171875 42.140625 
Q 24.359375 44 26.890625 45.015625 
Q 29.4375 46.046875 31.9375 46.046875 
Q 36.140625 46.046875 39.15625 43.59375 
Q 42.1875 41.15625 43.21875 36.53125 
Q 48.25 42.390625 51.703125 44.21875 
Q 55.171875 46.046875 58.84375 46.046875 
Q 62.40625 46.046875 65.15625 44.21875 
Q 67.921875 42.390625 69.53125 38.234375 
Q 70.609375 35.40625 70.609375 29.34375 
L 70.609375 10.109375 
Q 70.609375 5.90625 71.234375 4.34375 
Q 71.734375 3.265625 73.046875 2.515625 
Q 74.359375 1.765625 77.34375 1.765625 
L 77.34375 0 
L 55.28125 0 
L 55.28125 1.765625 
L 56.203125 1.765625 
Q 59.078125 1.765625 60.6875 2.875 
Q 61.8125 3.65625 62.3125 5.375 
Q 62.5 6.203125 62.5 10.109375 
L 62.5 29.34375 
Q 62.5 34.8125 61.1875 37.0625 
Q 59.28125 40.1875 55.078125 40.1875 
Q 52.484375 40.1875 49.875 38.890625 
Q 47.265625 37.59375 43.5625 34.078125 
L 43.453125 33.546875 
L 43.5625 31.453125 
L 43.5625 10.109375 
Q 43.5625 5.515625 44.0625 4.390625 
Q 44.578125 3.265625 45.984375 2.515625 
Q 47.40625 1.765625 50.828125 1.765625 
L 50.828125 0 
L 28.21875 0 
L 28.21875 1.765625 
Q 31.9375 1.765625 33.328125 2.640625 
Q 34.71875 3.515625 35.25 5.28125 
Q 35.5 6.109375 35.5 10.109375 
L 35.5 29.34375 
Q 35.5 34.8125 33.890625 37.203125 
Q 31.734375 40.328125 27.875 40.328125 
Q 25.25 40.328125 22.65625 38.921875 
Q 18.609375 36.765625 16.40625 34.078125 
L 16.40625 10.109375 
Q 16.40625 5.71875 17.015625 4.390625 
Q 17.625 3.078125 18.8125 2.421875 
Q 20.015625 1.765625 23.6875 1.765625 
L 23.6875 0 
L 1.5625 0 
L 1.5625 1.765625 
Q 4.640625 1.765625 5.859375 2.421875 
Q 7.078125 3.078125 7.703125 4.515625 
Q 8.34375 5.953125 8.34375 10.109375 
L 8.34375 27.203125 
Q 8.34375 34.578125 7.90625 36.71875 
Q 7.5625 38.328125 6.828125 38.9375 
Q 6.109375 39.546875 4.828125 39.546875 
Q 3.46875 39.546875 1.5625 38.8125 
L 0.828125 40.578125 
L 14.3125 46.046875 
L 16.40625 46.046875 
z
" id="TimesNewRomanPSMT-6d"/>
    </defs>
    <g style="fill:#8b0000;" transform="translate(404.483431 56.503147)scale(0.17 -0.17)">
     <use xlink:href="#TimesNewRomanPSMT-45"/>
     <use x="61.083984" xlink:href="#TimesNewRomanPSMT-78"/>
     <use x="111.083984" xlink:href="#TimesNewRomanPSMT-74"/>
     <use x="138.867188" xlink:href="#TimesNewRomanPSMT-72"/>
     <use x="172.167969" xlink:href="#TimesNewRomanPSMT-65"/>
     <use x="216.552734" xlink:href="#TimesNewRomanPSMT-6d"/>
     <use x="294.335938" xlink:href="#TimesNewRomanPSMT-65"/>
     <use x="338.720703" xlink:href="#TimesNewRomanPSMT-6c"/>
     <use x="366.503906" xlink:href="#TimesNewRomanPSMT-79"/>
     <use x="416.503906" xlink:href="#TimesNewRomanPSMT-20"/>
     <use x="441.503906" xlink:href="#TimesNewRomanPSMT-66"/>
     <use x="474.804688" xlink:href="#TimesNewRomanPSMT-61"/>
     <use x="519.189453" xlink:href="#TimesNewRomanPSMT-73"/>
     <use x="558.105469" xlink:href="#TimesNewRomanPSMT-74"/>
    </g>
   </g>
   <g id="text_17">
    <!-- Early differentiation -->
    <defs>
     <path d="M 27.25 62.40625 
L 27.25 35.453125 
L 28.5625 35.453125 
Q 34.859375 35.453125 37.6875 39.40625 
Q 40.53125 43.359375 41.3125 51.078125 
L 43.171875 51.078125 
L 43.171875 16.40625 
L 41.3125 16.40625 
Q 40.71875 22.078125 38.84375 25.6875 
Q 36.96875 29.296875 34.46875 30.53125 
Q 31.984375 31.78125 27.25 31.78125 
L 27.25 13.140625 
Q 27.25 7.671875 27.703125 6.4375 
Q 28.171875 5.21875 29.4375 4.4375 
Q 30.71875 3.65625 33.546875 3.65625 
L 37.5 3.65625 
Q 46.78125 3.65625 52.359375 7.953125 
Q 57.953125 12.25 60.40625 21.046875 
L 62.203125 21.046875 
L 59.234375 0 
L 2 0 
L 2 1.8125 
L 4.203125 1.8125 
Q 7.078125 1.8125 8.84375 2.828125 
Q 10.109375 3.515625 10.796875 5.171875 
Q 11.328125 6.34375 11.328125 11.328125 
L 11.328125 54.890625 
Q 11.328125 59.375 11.078125 60.40625 
Q 10.59375 62.109375 9.28125 63.03125 
Q 7.421875 64.40625 4.203125 64.40625 
L 2 64.40625 
L 2 66.21875 
L 57.421875 66.21875 
L 57.421875 46.625 
L 55.5625 46.625 
Q 54.15625 53.8125 51.59375 56.9375 
Q 49.03125 60.0625 44.34375 61.53125 
Q 41.609375 62.40625 34.078125 62.40625 
z
" id="TimesNewRomanPS-BoldMT-45"/>
     <path d="M 28.5625 6.734375 
Q 20.21875 -0.640625 13.578125 -0.640625 
Q 9.671875 -0.640625 7.078125 1.921875 
Q 4.5 4.5 4.5 8.34375 
Q 4.5 13.578125 8.984375 17.75 
Q 13.484375 21.921875 28.5625 28.859375 
L 28.5625 33.453125 
Q 28.5625 38.625 28 39.96875 
Q 27.4375 41.3125 25.875 42.3125 
Q 24.3125 43.3125 22.359375 43.3125 
Q 19.1875 43.3125 17.140625 41.890625 
Q 15.875 41.015625 15.875 39.84375 
Q 15.875 38.8125 17.234375 37.3125 
Q 19.09375 35.203125 19.09375 33.25 
Q 19.09375 30.859375 17.3125 29.171875 
Q 15.53125 27.484375 12.640625 27.484375 
Q 9.578125 27.484375 7.5 29.34375 
Q 5.421875 31.203125 5.421875 33.6875 
Q 5.421875 37.203125 8.203125 40.40625 
Q 10.984375 43.609375 15.96875 45.3125 
Q 20.953125 47.015625 26.3125 47.015625 
Q 32.8125 47.015625 36.59375 44.25 
Q 40.375 41.5 41.5 38.28125 
Q 42.1875 36.234375 42.1875 28.859375 
L 42.1875 11.140625 
Q 42.1875 8.015625 42.421875 7.203125 
Q 42.671875 6.390625 43.15625 6 
Q 43.65625 5.609375 44.28125 5.609375 
Q 45.5625 5.609375 46.875 7.421875 
L 48.34375 6.25 
Q 45.90625 2.640625 43.28125 1 
Q 40.671875 -0.640625 37.359375 -0.640625 
Q 33.453125 -0.640625 31.25 1.1875 
Q 29.046875 3.03125 28.5625 6.734375 
z
M 28.5625 10.296875 
L 28.5625 25.59375 
Q 22.65625 22.125 19.78125 18.171875 
Q 17.875 15.53125 17.875 12.84375 
Q 17.875 10.59375 19.484375 8.890625 
Q 20.703125 7.5625 22.90625 7.5625 
Q 25.34375 7.5625 28.5625 10.296875 
z
" id="TimesNewRomanPS-BoldMT-61"/>
     <path d="M 22.3125 45.65625 
L 22.3125 35.296875 
Q 26.859375 42.390625 30.265625 44.703125 
Q 33.6875 47.015625 36.859375 47.015625 
Q 39.59375 47.015625 41.234375 45.328125 
Q 42.875 43.65625 42.875 40.578125 
Q 42.875 37.3125 41.28125 35.5 
Q 39.703125 33.6875 37.453125 33.6875 
Q 34.859375 33.6875 32.953125 35.34375 
Q 31.0625 37.015625 30.71875 37.203125 
Q 30.21875 37.5 29.59375 37.5 
Q 28.171875 37.5 26.90625 36.421875 
Q 24.90625 34.765625 23.875 31.6875 
Q 22.3125 26.953125 22.3125 21.234375 
L 22.3125 10.75 
L 22.359375 8.015625 
Q 22.359375 5.21875 22.703125 4.4375 
Q 23.296875 3.125 24.4375 2.515625 
Q 25.59375 1.90625 28.328125 1.765625 
L 28.328125 0 
L 3.65625 0 
L 3.65625 1.765625 
Q 6.640625 2 7.6875 3.390625 
Q 8.734375 4.78125 8.734375 10.75 
L 8.734375 35.984375 
Q 8.734375 39.890625 8.34375 40.96875 
Q 7.859375 42.328125 6.921875 42.96875 
Q 6 43.609375 3.65625 43.84375 
L 3.65625 45.65625 
z
" id="TimesNewRomanPS-BoldMT-72"/>
     <path d="M 21.234375 66.21875 
L 21.234375 9.46875 
Q 21.234375 4.640625 22.359375 3.296875 
Q 23.484375 1.953125 26.765625 1.765625 
L 26.765625 0 
L 2.09375 0 
L 2.09375 1.765625 
Q 5.125 1.859375 6.59375 3.515625 
Q 7.5625 4.640625 7.5625 9.46875 
L 7.5625 56.734375 
Q 7.5625 61.53125 6.4375 62.859375 
Q 5.328125 64.203125 2.09375 64.40625 
L 2.09375 66.21875 
z
" id="TimesNewRomanPS-BoldMT-6c"/>
     <path d="M 24.3125 -1.859375 
L 9.578125 31.984375 
Q 6.25 39.65625 4.65625 41.40625 
Q 3.078125 43.171875 0.828125 43.84375 
L 0.828125 45.65625 
L 25.09375 45.65625 
L 25.09375 43.84375 
Q 22.703125 43.75 21.71875 42.921875 
Q 20.75 42.09375 20.75 40.921875 
Q 20.75 39.0625 23.1875 33.59375 
L 31 15.71875 
L 36.328125 29.546875 
Q 39.203125 36.921875 39.203125 39.796875 
Q 39.203125 41.609375 38 42.671875 
Q 36.8125 43.75 33.796875 43.84375 
L 33.796875 45.65625 
L 49.078125 45.65625 
L 49.078125 43.84375 
Q 46.828125 43.609375 45.40625 42.109375 
Q 44 40.625 40.671875 31.984375 
L 27.640625 -1.859375 
Q 22.703125 -14.546875 20.3125 -17.484375 
Q 16.9375 -21.578125 11.859375 -21.578125 
Q 7.8125 -21.578125 5.296875 -19.25 
Q 2.78125 -16.9375 2.78125 -13.671875 
Q 2.78125 -10.84375 4.515625 -8.984375 
Q 6.25 -7.125 8.796875 -7.125 
Q 11.234375 -7.125 12.71875 -8.6875 
Q 14.203125 -10.25 14.265625 -13.53125 
Q 14.3125 -15.375 14.703125 -15.921875 
Q 15.09375 -16.453125 15.828125 -16.453125 
Q 17 -16.453125 18.3125 -15.046875 
Q 20.265625 -12.984375 22.90625 -5.671875 
z
" id="TimesNewRomanPS-BoldMT-79"/>
     <path id="TimesNewRomanPS-BoldMT-20"/>
     <path d="M 47.75 66.21875 
L 47.75 13.671875 
Q 47.75 8.34375 48.046875 7.375 
Q 48.4375 5.765625 49.53125 4.984375 
Q 50.640625 4.203125 53.375 4 
L 53.375 2.390625 
L 34.078125 -1.375 
L 34.078125 5.859375 
Q 30.609375 1.65625 27.90625 0.140625 
Q 25.203125 -1.375 21.78125 -1.375 
Q 13.03125 -1.375 7.953125 6.453125 
Q 3.859375 12.796875 3.859375 22.015625 
Q 3.859375 29.390625 6.390625 35.21875 
Q 8.9375 41.0625 13.359375 44.03125 
Q 17.78125 47.015625 22.859375 47.015625 
Q 26.125 47.015625 28.65625 45.75 
Q 31.203125 44.484375 34.078125 41.3125 
L 34.078125 55.078125 
Q 34.078125 60.296875 33.640625 61.375 
Q 33.0625 62.796875 31.890625 63.46875 
Q 30.71875 64.15625 27.484375 64.15625 
L 27.484375 66.21875 
z
M 34.078125 35.25 
Q 30.46875 42.1875 25.25 42.1875 
Q 23.4375 42.1875 22.265625 41.21875 
Q 20.453125 39.703125 19.3125 35.890625 
Q 18.171875 32.078125 18.171875 24.21875 
Q 18.171875 15.578125 19.4375 11.421875 
Q 20.703125 7.28125 22.90625 5.421875 
Q 24.03125 4.5 25.984375 4.5 
Q 30.28125 4.5 34.078125 11.234375 
z
" id="TimesNewRomanPS-BoldMT-64"/>
     <path d="M 14.359375 67.78125 
Q 17.53125 67.78125 19.71875 65.546875 
Q 21.921875 63.328125 21.921875 60.203125 
Q 21.921875 57.078125 19.703125 54.875 
Q 17.484375 52.6875 14.359375 52.6875 
Q 11.234375 52.6875 9.03125 54.875 
Q 6.84375 57.078125 6.84375 60.203125 
Q 6.84375 63.328125 9.03125 65.546875 
Q 11.234375 67.78125 14.359375 67.78125 
z
M 21.1875 45.65625 
L 21.1875 9.46875 
Q 21.1875 4.640625 22.3125 3.296875 
Q 23.4375 1.953125 26.703125 1.765625 
L 26.703125 0 
L 2.046875 0 
L 2.046875 1.765625 
Q 5.078125 1.859375 6.546875 3.515625 
Q 7.515625 4.640625 7.515625 9.46875 
L 7.515625 36.140625 
Q 7.515625 40.96875 6.390625 42.3125 
Q 5.28125 43.65625 2.046875 43.84375 
L 2.046875 45.65625 
z
" id="TimesNewRomanPS-BoldMT-69"/>
     <path d="M 23.390625 40.875 
L 23.390625 9.1875 
Q 23.390625 4.59375 24.359375 3.421875 
Q 25.921875 1.609375 30.125 1.765625 
L 30.125 0 
L 3.21875 0 
L 3.21875 1.765625 
Q 6.296875 1.8125 7.59375 2.46875 
Q 8.890625 3.125 9.375 4.296875 
Q 9.859375 5.46875 9.859375 9.1875 
L 9.859375 40.875 
L 3.21875 40.875 
L 3.21875 45.65625 
L 9.859375 45.65625 
L 9.859375 49.03125 
L 9.8125 51.3125 
Q 9.8125 58.34375 14.96875 63.03125 
Q 20.125 67.71875 28.90625 67.71875 
Q 34.90625 67.71875 37.8125 65.46875 
Q 40.71875 63.234375 40.71875 60.5 
Q 40.71875 58.296875 38.90625 56.6875 
Q 37.109375 55.078125 34.125 55.078125 
Q 31.59375 55.078125 30.09375 56.390625 
Q 28.609375 57.71875 28.609375 59.328125 
Q 28.609375 59.765625 28.90625 61.140625 
Q 29.109375 61.96875 29.109375 62.703125 
Q 29.109375 63.71875 28.515625 64.203125 
Q 27.734375 64.9375 26.609375 64.9375 
Q 25.203125 64.9375 24.25 63.765625 
Q 23.296875 62.59375 23.296875 60.015625 
L 23.390625 51.46875 
L 23.390625 45.65625 
L 30.125 45.65625 
L 30.125 40.875 
z
" id="TimesNewRomanPS-BoldMT-66"/>
     <path d="M 42.046875 24.46875 
L 17 24.46875 
Q 17.4375 15.375 21.828125 10.109375 
Q 25.203125 6.0625 29.9375 6.0625 
Q 32.859375 6.0625 35.25 7.6875 
Q 37.640625 9.328125 40.375 13.578125 
L 42.046875 12.5 
Q 38.328125 4.9375 33.828125 1.78125 
Q 29.34375 -1.375 23.4375 -1.375 
Q 13.28125 -1.375 8.0625 6.453125 
Q 3.859375 12.75 3.859375 22.078125 
Q 3.859375 33.5 10.03125 40.25 
Q 16.21875 47.015625 24.515625 47.015625 
Q 31.453125 47.015625 36.546875 41.328125 
Q 41.65625 35.640625 42.046875 24.46875 
z
M 30.03125 27.734375 
Q 30.03125 35.59375 29.171875 38.515625 
Q 28.328125 41.453125 26.515625 42.96875 
Q 25.484375 43.84375 23.78125 43.84375 
Q 21.234375 43.84375 19.625 41.359375 
Q 16.75 37.015625 16.75 29.4375 
L 16.75 27.734375 
z
" id="TimesNewRomanPS-BoldMT-65"/>
     <path d="M 22.015625 45.65625 
L 22.015625 39.75 
Q 25.53125 43.5625 28.75 45.28125 
Q 31.984375 47.015625 35.6875 47.015625 
Q 40.140625 47.015625 43.0625 44.546875 
Q 46 42.09375 46.96875 38.421875 
Q 47.75 35.640625 47.75 27.734375 
L 47.75 9.96875 
Q 47.75 4.6875 48.703125 3.390625 
Q 49.65625 2.09375 52.6875 1.765625 
L 52.6875 0 
L 29.59375 0 
L 29.59375 1.765625 
Q 32.171875 2.09375 33.296875 3.90625 
Q 34.078125 5.125 34.078125 9.96875 
L 34.078125 30.28125 
Q 34.078125 35.890625 33.640625 37.34375 
Q 33.203125 38.8125 32.15625 39.625 
Q 31.109375 40.4375 29.828125 40.4375 
Q 25.640625 40.4375 22.015625 34.421875 
L 22.015625 9.96875 
Q 22.015625 4.828125 22.96875 3.453125 
Q 23.921875 2.09375 26.515625 1.765625 
L 26.515625 0 
L 3.421875 0 
L 3.421875 1.765625 
Q 6.296875 2.046875 7.515625 3.609375 
Q 8.34375 4.6875 8.34375 9.96875 
L 8.34375 35.75 
Q 8.34375 40.921875 7.390625 42.1875 
Q 6.453125 43.453125 3.421875 43.84375 
L 3.421875 45.65625 
z
" id="TimesNewRomanPS-BoldMT-6e"/>
     <path d="M 21.484375 62.359375 
L 21.484375 45.65625 
L 32.328125 45.65625 
L 32.328125 40.828125 
L 21.484375 40.828125 
L 21.484375 12.640625 
Q 21.484375 8.6875 21.84375 7.53125 
Q 22.21875 6.390625 23.140625 5.6875 
Q 24.078125 4.984375 24.859375 4.984375 
Q 28.03125 4.984375 30.859375 9.8125 
L 32.328125 8.734375 
Q 28.375 -0.640625 19.484375 -0.640625 
Q 15.140625 -0.640625 12.125 1.78125 
Q 9.125 4.203125 8.296875 7.171875 
Q 7.8125 8.84375 7.8125 16.15625 
L 7.8125 40.828125 
L 1.859375 40.828125 
L 1.859375 42.53125 
Q 8.015625 46.875 12.328125 51.65625 
Q 16.65625 56.453125 19.875 62.359375 
z
" id="TimesNewRomanPS-BoldMT-74"/>
     <path d="M 24.90625 47.015625 
Q 30.859375 47.015625 35.984375 43.9375 
Q 41.109375 40.875 43.765625 35.203125 
Q 46.4375 29.546875 46.4375 22.796875 
Q 46.4375 13.09375 41.5 6.546875 
Q 35.546875 -1.375 25.046875 -1.375 
Q 14.75 -1.375 9.171875 5.859375 
Q 3.609375 13.09375 3.609375 22.609375 
Q 3.609375 32.421875 9.296875 39.71875 
Q 14.984375 47.015625 24.90625 47.015625 
z
M 25.09375 43.5625 
Q 22.609375 43.5625 20.828125 41.671875 
Q 19.046875 39.796875 18.484375 34.25 
Q 17.921875 28.71875 17.921875 18.84375 
Q 17.921875 13.625 18.609375 9.078125 
Q 19.140625 5.609375 20.890625 3.796875 
Q 22.65625 2 24.90625 2 
Q 27.09375 2 28.5625 3.21875 
Q 30.46875 4.890625 31.109375 7.859375 
Q 32.078125 12.5 32.078125 26.609375 
Q 32.078125 34.90625 31.140625 38 
Q 30.21875 41.109375 28.421875 42.53125 
Q 27.15625 43.5625 25.09375 43.5625 
z
" id="TimesNewRomanPS-BoldMT-6f"/>
    </defs>
    <g transform="translate(179.080938 34.5)scale(0.2 -0.2)">
     <use xlink:href="#TimesNewRomanPS-BoldMT-45"/>
     <use x="66.699219" xlink:href="#TimesNewRomanPS-BoldMT-61"/>
     <use x="116.699219" xlink:href="#TimesNewRomanPS-BoldMT-72"/>
     <use x="161.083984" xlink:href="#TimesNewRomanPS-BoldMT-6c"/>
     <use x="188.867188" xlink:href="#TimesNewRomanPS-BoldMT-79"/>
     <use x="238.867188" xlink:href="#TimesNewRomanPS-BoldMT-20"/>
     <use x="263.867188" xlink:href="#TimesNewRomanPS-BoldMT-64"/>
     <use x="319.482422" xlink:href="#TimesNewRomanPS-BoldMT-69"/>
     <use x="347.265625" xlink:href="#TimesNewRomanPS-BoldMT-66"/>
     <use x="380.566406" xlink:href="#TimesNewRomanPS-BoldMT-66"/>
     <use x="413.867188" xlink:href="#TimesNewRomanPS-BoldMT-65"/>
     <use x="458.251953" xlink:href="#TimesNewRomanPS-BoldMT-72"/>
     <use x="502.621094" xlink:href="#TimesNewRomanPS-BoldMT-65"/>
     <use x="547.005859" xlink:href="#TimesNewRomanPS-BoldMT-6e"/>
     <use x="602.621094" xlink:href="#TimesNewRomanPS-BoldMT-74"/>
     <use x="635.921875" xlink:href="#TimesNewRomanPS-BoldMT-69"/>
     <use x="663.705078" xlink:href="#TimesNewRomanPS-BoldMT-61"/>
     <use x="713.705078" xlink:href="#TimesNewRomanPS-BoldMT-74"/>
     <use x="747.005859" xlink:href="#TimesNewRomanPS-BoldMT-69"/>
     <use x="774.789062" xlink:href="#TimesNewRomanPS-BoldMT-6f"/>
     <use x="824.789062" xlink:href="#TimesNewRomanPS-BoldMT-6e"/>
    </g>
   </g>
  </g>
 </g>
 <defs>
  <clipPath id="p640f753712">
   <rect height="97.2" width="423.36" x="55.44" y="64.8"/>
  </clipPath>
 </defs>
</svg>
