<?xml version="1.0" encoding="utf-8" standalone="no"?>
<!DOCTYPE svg PUBLIC "-//W3C//DTD SVG 1.1//EN"
  "http://www.w3.org/Graphics/SVG/1.1/DTD/svg11.dtd">
<!-- Created with matplotlib (http://matplotlib.org/) -->
<svg height="216pt" version="1.1" viewBox="0 0 396 216" width="396pt" xmlns="http://www.w3.org/2000/svg" xmlns:xlink="http://www.w3.org/1999/xlink">
 <defs>
  <style type="text/css">
*{stroke-linecap:butt;stroke-linejoin:round;}
  </style>
 </defs>
 <g id="figure_1">
  <g id="patch_1">
   <path d="M 0 216 
L 396 216 
L 396 0 
L 0 0 
z
" style="fill:#ffffff;"/>
  </g>
  <g id="axes_1">
   <g id="patch_2">
    <path d="M 43.56 162 
L 376.2 162 
L 376.2 64.8 
L 43.56 64.8 
z
" style="fill:#ffffff;"/>
   </g>
   <g id="matplotlib.axis_1">
    <g id="xtick_1">
     <g id="line2d_1">
      <defs>
       <path d="M 0 0 
L 0 3.5 
" id="m160e026fe4" style="stroke:#000000;stroke-width:0.8;"/>
      </defs>
      <g>
       <use style="stroke:#000000;stroke-width:0.8;" x="58.68" xlink:href="#m160e026fe4" y="162"/>
      </g>
     </g>
     <g id="text_1">
      <!-- 0 -->
      <defs>
       <path d="M 3.609375 32.71875 
Q 3.609375 44.046875 7.03125 52.21875 
Q 10.453125 60.40625 16.109375 64.40625 
Q 20.515625 67.578125 25.203125 67.578125 
Q 32.8125 67.578125 38.875 59.8125 
Q 46.4375 50.203125 46.4375 33.734375 
Q 46.4375 22.21875 43.109375 14.15625 
Q 39.796875 6.109375 34.640625 2.46875 
Q 29.5 -1.171875 24.703125 -1.171875 
Q 15.234375 -1.171875 8.9375 10.015625 
Q 3.609375 19.4375 3.609375 32.71875 
z
M 13.1875 31.5 
Q 13.1875 17.828125 16.546875 9.1875 
Q 19.34375 1.90625 24.859375 1.90625 
Q 27.484375 1.90625 30.3125 4.265625 
Q 33.15625 6.640625 34.625 12.203125 
Q 36.859375 20.609375 36.859375 35.890625 
Q 36.859375 47.21875 34.515625 54.78125 
Q 32.765625 60.40625 29.984375 62.75 
Q 27.984375 64.359375 25.140625 64.359375 
Q 21.828125 64.359375 19.234375 61.375 
Q 15.71875 57.328125 14.453125 48.625 
Q 13.1875 39.9375 13.1875 31.5 
z
" id="TimesNewRomanPSMT-30"/>
      </defs>
      <g transform="translate(54.18 181.49875)scale(0.18 -0.18)">
       <use xlink:href="#TimesNewRomanPSMT-30"/>
      </g>
     </g>
    </g>
    <g id="xtick_2">
     <g id="line2d_2">
      <g>
       <use style="stroke:#000000;stroke-width:0.8;" x="119.46392" xlink:href="#m160e026fe4" y="162"/>
      </g>
     </g>
     <g id="text_2">
      <!-- $p_{ls}$ -->
      <defs>
       <path d="M 14.203125 45.90625 
L 14.40625 40.90625 
Q 19.90625 46.296875 28.09375 46.296875 
Q 33.5 46.296875 37.203125 44 
Q 41.5 41.296875 44.25 36.046875 
Q 47 30.796875 47 24.40625 
Q 47 13.796875 40.640625 6.390625 
Q 34.296875 -1 25.296875 -1 
Q 19.59375 -1 14.59375 2.59375 
L 14.59375 -19.203125 
L 7.59375 -21.59375 
L 6.703125 -21.09375 
L 6.703125 44 
L 13.40625 46.40625 
z
M 14.59375 29.5 
L 14.59375 12.296875 
Q 18.5 6.09375 24.90625 6.09375 
Q 31.40625 6.09375 35.25 10.890625 
Q 39.09375 15.703125 39.09375 23 
Q 39.09375 29.90625 35.59375 34.546875 
Q 32.09375 39.203125 26.09375 39.203125 
Q 22.59375 39.203125 19.390625 36.546875 
Q 16.203125 33.90625 14.59375 29.5 
z
" id="STIXGeneral-Regular-1d5c9"/>
       <path d="M 14.40625 0 
L 6.09375 0 
L 6.09375 66 
L 13.5 68.40625 
L 14.40625 67.90625 
z
" id="STIXGeneral-Regular-1d5c5"/>
       <path d="M 33 32.09375 
L 31.5 32.09375 
Q 28.703125 36.5 25.890625 37.890625 
Q 23.09375 39.296875 19.203125 39.296875 
Q 16 39.296875 14.390625 37.6875 
Q 12.796875 36.09375 12.796875 34.203125 
Q 12.796875 31.703125 14.890625 29.953125 
Q 17 28.203125 21.203125 26.5 
Q 29.5 23 32.25 20.09375 
Q 35 17.203125 35 11.796875 
Q 35 5.203125 28.90625 1.40625 
Q 25.09375 -1 18.90625 -1 
Q 14.40625 -1 11.34375 0.296875 
Q 8.296875 1.59375 5 4.5 
L 5 14.796875 
L 6.5 14.796875 
Q 10.40625 6.09375 19.5 6.09375 
Q 22.703125 6.09375 24.890625 7.546875 
Q 27.09375 9 27.09375 11.796875 
Q 27.09375 13.796875 25.25 15.25 
Q 23.40625 16.703125 18.5 18.90625 
Q 10.90625 22.296875 7.90625 25.59375 
Q 4.90625 28.90625 4.90625 33.796875 
Q 4.90625 39 8.90625 42.640625 
Q 12.90625 46.296875 19.40625 46.296875 
Q 28 46.296875 33 41 
z
" id="STIXGeneral-Regular-1d5cc"/>
      </defs>
      <g transform="translate(110.91392 181.389062)scale(0.18 -0.18)">
       <use transform="translate(0 0.59375)" xlink:href="#STIXGeneral-Regular-1d5c9"/>
       <use transform="translate(50.592683 -12.995312)scale(0.7)" xlink:href="#STIXGeneral-Regular-1d5c5"/>
       <use transform="translate(64.942672 -12.995312)scale(0.7)" xlink:href="#STIXGeneral-Regular-1d5cc"/>
      </g>
     </g>
    </g>
    <g id="xtick_3">
     <g id="line2d_3">
      <g>
       <use style="stroke:#000000;stroke-width:0.8;" x="210.639799" xlink:href="#m160e026fe4" y="162"/>
      </g>
     </g>
     <g id="text_3">
      <!-- 0.5 -->
      <defs>
       <path d="M 12.5 9.46875 
Q 14.796875 9.46875 16.359375 7.875 
Q 17.921875 6.296875 17.921875 4.046875 
Q 17.921875 1.8125 16.328125 0.21875 
Q 14.75 -1.375 12.5 -1.375 
Q 10.25 -1.375 8.65625 0.21875 
Q 7.078125 1.8125 7.078125 4.046875 
Q 7.078125 6.34375 8.65625 7.90625 
Q 10.25 9.46875 12.5 9.46875 
z
" id="TimesNewRomanPSMT-2e"/>
       <path d="M 43.40625 66.21875 
L 39.59375 57.90625 
L 19.671875 57.90625 
L 15.328125 49.03125 
Q 28.265625 47.125 35.84375 39.40625 
Q 42.328125 32.765625 42.328125 23.78125 
Q 42.328125 18.5625 40.203125 14.109375 
Q 38.09375 9.671875 34.859375 6.546875 
Q 31.640625 3.421875 27.6875 1.515625 
Q 22.078125 -1.171875 16.15625 -1.171875 
Q 10.203125 -1.171875 7.484375 0.84375 
Q 4.78125 2.875 4.78125 5.328125 
Q 4.78125 6.6875 5.90625 7.734375 
Q 7.03125 8.796875 8.734375 8.796875 
Q 10.015625 8.796875 10.96875 8.40625 
Q 11.921875 8.015625 14.203125 6.390625 
Q 17.875 3.859375 21.625 3.859375 
Q 27.34375 3.859375 31.65625 8.171875 
Q 35.984375 12.5 35.984375 18.703125 
Q 35.984375 24.703125 32.125 29.90625 
Q 28.265625 35.109375 21.484375 37.9375 
Q 16.15625 40.140625 6.984375 40.484375 
L 19.671875 66.21875 
z
" id="TimesNewRomanPSMT-35"/>
      </defs>
      <g transform="translate(199.389799 181.49875)scale(0.18 -0.18)">
       <use xlink:href="#TimesNewRomanPSMT-30"/>
       <use x="50" xlink:href="#TimesNewRomanPSMT-2e"/>
       <use x="75" xlink:href="#TimesNewRomanPSMT-35"/>
      </g>
     </g>
    </g>
    <g id="xtick_4">
     <g id="line2d_4">
      <g>
       <use style="stroke:#000000;stroke-width:0.8;" x="301.815678" xlink:href="#m160e026fe4" y="162"/>
      </g>
     </g>
     <g id="text_4">
      <!-- $p_{lf}$ -->
      <defs>
       <path d="M 36.90625 63.296875 
L 34.5 57.40625 
L 32.90625 57.296875 
Q 30.796875 58.796875 29.796875 59.4375 
Q 28.796875 60.09375 27.5 60.640625 
Q 26.203125 61.203125 24.90625 61.203125 
Q 21.796875 61.203125 19.890625 58.703125 
Q 18 56.203125 18 50.90625 
L 18 45.296875 
L 29.40625 45.296875 
L 29.40625 38.203125 
L 18 38.203125 
L 18 0 
L 10.09375 0 
L 10.09375 38.203125 
L 2 38.203125 
L 2 45.296875 
L 10.09375 45.296875 
L 10.09375 49.40625 
Q 10.09375 59.296875 14.796875 64.296875 
Q 18.796875 68.296875 24.203125 68.296875 
Q 31 68.296875 36.90625 63.296875 
z
" id="STIXGeneral-Regular-1d5bf"/>
      </defs>
      <g transform="translate(293.625678 181.389062)scale(0.18 -0.18)">
       <use transform="translate(0 0.59375)" xlink:href="#STIXGeneral-Regular-1d5c9"/>
       <use transform="translate(50.592683 -12.995312)scale(0.7)" xlink:href="#STIXGeneral-Regular-1d5c5"/>
       <use transform="translate(64.942672 -12.995312)scale(0.7)" xlink:href="#STIXGeneral-Regular-1d5bf"/>
      </g>
     </g>
    </g>
    <g id="xtick_5">
     <g id="line2d_5">
      <g>
       <use style="stroke:#000000;stroke-width:0.8;" x="362.599598" xlink:href="#m160e026fe4" y="162"/>
      </g>
     </g>
     <g id="text_5">
      <!-- 1 -->
      <defs>
       <path d="M 11.71875 59.71875 
L 27.828125 67.578125 
L 29.4375 67.578125 
L 29.4375 11.671875 
Q 29.4375 6.109375 29.90625 4.734375 
Q 30.375 3.375 31.828125 2.640625 
Q 33.296875 1.90625 37.796875 1.8125 
L 37.796875 0 
L 12.890625 0 
L 12.890625 1.8125 
Q 17.578125 1.90625 18.9375 2.609375 
Q 20.3125 3.328125 20.84375 4.515625 
Q 21.390625 5.71875 21.390625 11.671875 
L 21.390625 47.40625 
Q 21.390625 54.640625 20.90625 56.6875 
Q 20.5625 58.25 19.65625 58.984375 
Q 18.75 59.71875 17.484375 59.71875 
Q 15.671875 59.71875 12.453125 58.203125 
z
" id="TimesNewRomanPSMT-31"/>
      </defs>
      <g transform="translate(358.099598 181.49875)scale(0.18 -0.18)">
       <use xlink:href="#TimesNewRomanPSMT-31"/>
      </g>
     </g>
    </g>
    <g id="text_6">
     <!-- Intensity -->
     <defs>
      <path d="M 30.859375 1.8125 
L 30.859375 0 
L 2.484375 0 
L 2.484375 1.8125 
L 4.828125 1.8125 
Q 8.9375 1.8125 10.796875 4.203125 
Q 11.96875 5.765625 11.96875 11.71875 
L 11.96875 54.5 
Q 11.96875 59.515625 11.328125 61.140625 
Q 10.84375 62.359375 9.328125 63.234375 
Q 7.171875 64.40625 4.828125 64.40625 
L 2.484375 64.40625 
L 2.484375 66.21875 
L 30.859375 66.21875 
L 30.859375 64.40625 
L 28.46875 64.40625 
Q 24.421875 64.40625 22.5625 62.015625 
Q 21.34375 60.453125 21.34375 54.5 
L 21.34375 11.71875 
Q 21.34375 6.6875 21.96875 5.078125 
Q 22.46875 3.859375 24.03125 2.984375 
Q 26.125 1.8125 28.46875 1.8125 
z
" id="TimesNewRomanPSMT-49"/>
      <path d="M 16.15625 36.578125 
Q 24.03125 46.046875 31.15625 46.046875 
Q 34.8125 46.046875 37.453125 44.21875 
Q 40.09375 42.390625 41.65625 38.1875 
Q 42.71875 35.25 42.71875 29.203125 
L 42.71875 10.109375 
Q 42.71875 5.859375 43.40625 4.34375 
Q 43.953125 3.125 45.140625 2.4375 
Q 46.34375 1.765625 49.5625 1.765625 
L 49.5625 0 
L 27.4375 0 
L 27.4375 1.765625 
L 28.375 1.765625 
Q 31.5 1.765625 32.734375 2.703125 
Q 33.984375 3.65625 34.46875 5.515625 
Q 34.671875 6.25 34.671875 10.109375 
L 34.671875 28.421875 
Q 34.671875 34.515625 33.078125 37.28125 
Q 31.5 40.046875 27.734375 40.046875 
Q 21.921875 40.046875 16.15625 33.6875 
L 16.15625 10.109375 
Q 16.15625 5.5625 16.703125 4.5 
Q 17.390625 3.078125 18.578125 2.421875 
Q 19.78125 1.765625 23.4375 1.765625 
L 23.4375 0 
L 1.3125 0 
L 1.3125 1.765625 
L 2.296875 1.765625 
Q 5.71875 1.765625 6.90625 3.484375 
Q 8.109375 5.21875 8.109375 10.109375 
L 8.109375 26.703125 
Q 8.109375 34.765625 7.734375 36.515625 
Q 7.375 38.28125 6.609375 38.90625 
Q 5.859375 39.546875 4.59375 39.546875 
Q 3.21875 39.546875 1.3125 38.8125 
L 0.59375 40.578125 
L 14.0625 46.046875 
L 16.15625 46.046875 
z
" id="TimesNewRomanPSMT-6e"/>
      <path d="M 16.109375 59.421875 
L 16.109375 44.734375 
L 26.5625 44.734375 
L 26.5625 41.3125 
L 16.109375 41.3125 
L 16.109375 12.3125 
Q 16.109375 7.953125 17.359375 6.4375 
Q 18.609375 4.9375 20.5625 4.9375 
Q 22.171875 4.9375 23.6875 5.9375 
Q 25.203125 6.9375 26.03125 8.890625 
L 27.9375 8.890625 
Q 26.21875 4.109375 23.09375 1.6875 
Q 19.96875 -0.734375 16.65625 -0.734375 
Q 14.40625 -0.734375 12.25 0.515625 
Q 10.109375 1.765625 9.078125 4.078125 
Q 8.0625 6.390625 8.0625 11.234375 
L 8.0625 41.3125 
L 0.984375 41.3125 
L 0.984375 42.921875 
Q 3.65625 44 6.46875 46.5625 
Q 9.28125 49.125 11.46875 52.640625 
Q 12.59375 54.5 14.59375 59.421875 
z
" id="TimesNewRomanPSMT-74"/>
      <path d="M 10.640625 27.875 
Q 10.59375 17.921875 15.484375 12.25 
Q 20.359375 6.59375 26.953125 6.59375 
Q 31.34375 6.59375 34.59375 9 
Q 37.84375 11.421875 40.046875 17.28125 
L 41.546875 16.3125 
Q 40.53125 9.625 35.59375 4.125 
Q 30.671875 -1.375 23.25 -1.375 
Q 15.1875 -1.375 9.453125 4.90625 
Q 3.71875 11.1875 3.71875 21.78125 
Q 3.71875 33.25 9.59375 39.671875 
Q 15.484375 46.09375 24.359375 46.09375 
Q 31.890625 46.09375 36.71875 41.140625 
Q 41.546875 36.1875 41.546875 27.875 
z
M 10.640625 30.71875 
L 31.34375 30.71875 
Q 31.109375 35.015625 30.328125 36.765625 
Q 29.109375 39.5 26.6875 41.0625 
Q 24.265625 42.625 21.625 42.625 
Q 17.578125 42.625 14.375 39.46875 
Q 11.1875 36.328125 10.640625 30.71875 
z
" id="TimesNewRomanPSMT-65"/>
      <path d="M 32.03125 46.046875 
L 32.03125 30.8125 
L 30.421875 30.8125 
Q 28.5625 37.984375 25.65625 40.578125 
Q 22.75 43.171875 18.265625 43.171875 
Q 14.84375 43.171875 12.734375 41.359375 
Q 10.640625 39.546875 10.640625 37.359375 
Q 10.640625 34.625 12.203125 32.671875 
Q 13.71875 30.671875 18.359375 28.421875 
L 25.484375 24.953125 
Q 35.40625 20.125 35.40625 12.203125 
Q 35.40625 6.109375 30.78125 2.359375 
Q 26.171875 -1.375 20.453125 -1.375 
Q 16.359375 -1.375 11.078125 0.09375 
Q 9.46875 0.59375 8.453125 0.59375 
Q 7.328125 0.59375 6.6875 -0.6875 
L 5.078125 -0.6875 
L 5.078125 15.28125 
L 6.6875 15.28125 
Q 8.0625 8.453125 11.90625 4.984375 
Q 15.765625 1.515625 20.5625 1.515625 
Q 23.921875 1.515625 26.046875 3.484375 
Q 28.171875 5.46875 28.171875 8.25 
Q 28.171875 11.625 25.796875 13.921875 
Q 23.4375 16.21875 16.359375 19.734375 
Q 9.28125 23.25 7.078125 26.078125 
Q 4.890625 28.859375 4.890625 33.109375 
Q 4.890625 38.625 8.671875 42.328125 
Q 12.453125 46.046875 18.453125 46.046875 
Q 21.09375 46.046875 24.859375 44.921875 
Q 27.34375 44.1875 28.171875 44.1875 
Q 28.953125 44.1875 29.390625 44.53125 
Q 29.828125 44.875 30.421875 46.046875 
z
" id="TimesNewRomanPSMT-73"/>
      <path d="M 14.5 69.4375 
Q 16.546875 69.4375 17.984375 67.984375 
Q 19.4375 66.546875 19.4375 64.5 
Q 19.4375 62.453125 17.984375 60.984375 
Q 16.546875 59.515625 14.5 59.515625 
Q 12.453125 59.515625 10.984375 60.984375 
Q 9.515625 62.453125 9.515625 64.5 
Q 9.515625 66.546875 10.953125 67.984375 
Q 12.40625 69.4375 14.5 69.4375 
z
M 18.5625 46.046875 
L 18.5625 10.109375 
Q 18.5625 5.90625 19.171875 4.515625 
Q 19.78125 3.125 20.96875 2.4375 
Q 22.171875 1.765625 25.34375 1.765625 
L 25.34375 0 
L 3.609375 0 
L 3.609375 1.765625 
Q 6.890625 1.765625 8 2.390625 
Q 9.125 3.03125 9.78125 4.484375 
Q 10.453125 5.953125 10.453125 10.109375 
L 10.453125 27.34375 
Q 10.453125 34.625 10.015625 36.765625 
Q 9.671875 38.328125 8.9375 38.9375 
Q 8.203125 39.546875 6.9375 39.546875 
Q 5.5625 39.546875 3.609375 38.8125 
L 2.9375 40.578125 
L 16.40625 46.046875 
z
" id="TimesNewRomanPSMT-69"/>
      <path d="M 0.59375 44.734375 
L 21.4375 44.734375 
L 21.4375 42.921875 
L 20.40625 42.921875 
Q 18.21875 42.921875 17.109375 41.96875 
Q 16.015625 41.015625 16.015625 39.59375 
Q 16.015625 37.703125 17.625 34.328125 
L 28.515625 11.765625 
L 38.53125 36.46875 
Q 39.359375 38.484375 39.359375 40.4375 
Q 39.359375 41.3125 39.015625 41.75 
Q 38.625 42.28125 37.796875 42.59375 
Q 36.96875 42.921875 34.859375 42.921875 
L 34.859375 44.734375 
L 49.421875 44.734375 
L 49.421875 42.921875 
Q 47.609375 42.71875 46.625 42.125 
Q 45.65625 41.546875 44.484375 39.9375 
Q 44.046875 39.265625 42.828125 36.1875 
L 24.609375 -8.453125 
Q 21.96875 -14.9375 17.6875 -18.25 
Q 13.421875 -21.578125 9.46875 -21.578125 
Q 6.59375 -21.578125 4.734375 -19.921875 
Q 2.875 -18.265625 2.875 -16.109375 
Q 2.875 -14.0625 4.21875 -12.8125 
Q 5.5625 -11.578125 7.90625 -11.578125 
Q 9.515625 -11.578125 12.3125 -12.640625 
Q 14.265625 -13.375 14.75 -13.375 
Q 16.21875 -13.375 17.9375 -11.859375 
Q 19.671875 -10.359375 21.4375 -6 
L 24.609375 1.765625 
L 8.546875 35.5 
Q 7.8125 37.015625 6.203125 39.265625 
Q 4.984375 40.96875 4.203125 41.546875 
Q 3.078125 42.328125 0.59375 42.921875 
z
" id="TimesNewRomanPSMT-79"/>
     </defs>
     <g transform="translate(178.384219 201.847813)scale(0.18 -0.18)">
      <use xlink:href="#TimesNewRomanPSMT-49"/>
      <use x="33.300781" xlink:href="#TimesNewRomanPSMT-6e"/>
      <use x="83.300781" xlink:href="#TimesNewRomanPSMT-74"/>
      <use x="111.083984" xlink:href="#TimesNewRomanPSMT-65"/>
      <use x="155.46875" xlink:href="#TimesNewRomanPSMT-6e"/>
      <use x="205.46875" xlink:href="#TimesNewRomanPSMT-73"/>
      <use x="244.384766" xlink:href="#TimesNewRomanPSMT-69"/>
      <use x="272.167969" xlink:href="#TimesNewRomanPSMT-74"/>
      <use x="299.951172" xlink:href="#TimesNewRomanPSMT-79"/>
     </g>
    </g>
   </g>
   <g id="matplotlib.axis_2">
    <g id="ytick_1">
     <g id="line2d_6">
      <defs>
       <path d="M 0 0 
L -3.5 0 
" id="m0afb126d1a" style="stroke:#000000;stroke-width:0.8;"/>
      </defs>
      <g>
       <use style="stroke:#000000;stroke-width:0.8;" x="43.56" xlink:href="#m0afb126d1a" y="162"/>
      </g>
     </g>
     <g id="text_7">
      <!-- 0.0 -->
      <g transform="translate(14.06 168.249375)scale(0.18 -0.18)">
       <use xlink:href="#TimesNewRomanPSMT-30"/>
       <use x="50" xlink:href="#TimesNewRomanPSMT-2e"/>
       <use x="75" xlink:href="#TimesNewRomanPSMT-30"/>
      </g>
     </g>
    </g>
    <g id="ytick_2">
     <g id="line2d_7">
      <g>
       <use style="stroke:#000000;stroke-width:0.8;" x="43.56" xlink:href="#m0afb126d1a" y="115.714286"/>
      </g>
     </g>
     <g id="text_8">
      <!-- 0.5 -->
      <g transform="translate(14.06 121.963661)scale(0.18 -0.18)">
       <use xlink:href="#TimesNewRomanPSMT-30"/>
       <use x="50" xlink:href="#TimesNewRomanPSMT-2e"/>
       <use x="75" xlink:href="#TimesNewRomanPSMT-35"/>
      </g>
     </g>
    </g>
    <g id="ytick_3">
     <g id="line2d_8">
      <g>
       <use style="stroke:#000000;stroke-width:0.8;" x="43.56" xlink:href="#m0afb126d1a" y="69.428571"/>
      </g>
     </g>
     <g id="text_9">
      <!-- 1.0 -->
      <g transform="translate(14.06 75.677946)scale(0.18 -0.18)">
       <use xlink:href="#TimesNewRomanPSMT-31"/>
       <use x="50" xlink:href="#TimesNewRomanPSMT-2e"/>
       <use x="75" xlink:href="#TimesNewRomanPSMT-30"/>
      </g>
     </g>
    </g>
   </g>
   <g id="line2d_9">
    <path clip-path="url(#p213adc4742)" d="M 58.68 69.428571 
L 60.199598 69.890273 
L 61.719196 71.261609 
L 63.238794 73.501947 
L 64.758392 76.545801 
L 66.27799 80.306001 
L 67.797588 84.677843 
L 70.836784 94.779346 
L 79.954372 127.256915 
L 81.47397 131.946457 
L 82.993568 136.26169 
L 84.513166 140.176649 
L 86.032764 143.680235 
L 87.552362 146.774365 
L 89.07196 149.471819 
L 90.591558 151.793951 
L 92.111156 153.768399 
L 93.630754 155.426933 
L 95.150352 156.803525 
L 96.66995 157.932695 
L 98.189548 158.848178 
L 99.709146 159.581904 
L 101.228744 160.163282 
L 104.26794 160.971624 
L 107.307136 161.446791 
L 111.86593 161.797501 
L 117.944322 161.953904 
L 133.140302 161.999434 
L 361.08 162 
L 361.08 162 
" style="fill:none;stroke:#000000;stroke-linecap:square;stroke-width:2;"/>
   </g>
   <g id="line2d_10">
    <path clip-path="url(#p213adc4742)" d="M 58.68 161.968946 
L 66.27799 161.797501 
L 70.836784 161.446791 
L 73.87598 160.971624 
L 76.915176 160.163282 
L 78.434774 159.581904 
L 79.954372 158.848178 
L 81.47397 157.932695 
L 82.993568 156.803525 
L 84.513166 155.426933 
L 86.032764 153.768399 
L 87.552362 151.793951 
L 89.07196 149.471819 
L 90.591558 146.774365 
L 92.111156 143.680235 
L 93.630754 140.176649 
L 95.150352 136.26169 
L 96.66995 131.946457 
L 99.709146 122.235262 
L 102.748342 111.44911 
L 107.307136 94.779346 
L 110.346332 84.677843 
L 111.86593 80.306001 
L 113.385528 76.545801 
L 114.905126 73.501947 
L 116.424724 71.261609 
L 117.944322 69.890273 
L 119.46392 69.428571 
L 120.983518 69.890273 
L 122.503116 71.261609 
L 124.022714 73.501947 
L 125.542312 76.545801 
L 127.06191 80.306001 
L 128.581508 84.677843 
L 131.620704 94.779346 
L 140.738291 127.256915 
L 142.257889 131.946457 
L 143.777487 136.26169 
L 145.297085 140.176649 
L 146.816683 143.680235 
L 148.336281 146.774365 
L 149.855879 149.471819 
L 151.375477 151.793951 
L 152.895075 153.768399 
L 154.414673 155.426933 
L 155.934271 156.803525 
L 157.453869 157.932695 
L 158.973467 158.848178 
L 160.493065 159.581904 
L 162.012663 160.163282 
L 165.051859 160.971624 
L 168.091055 161.446791 
L 172.649849 161.797501 
L 178.728241 161.953904 
L 193.924221 161.999434 
L 361.08 162 
L 361.08 162 
" style="fill:none;stroke:#4b0082;stroke-dasharray:16,4,16,4;stroke-dashoffset:0;stroke-width:2;"/>
   </g>
   <g id="line2d_11">
    <path clip-path="url(#p213adc4742)" d="M 58.68 162 
L 154.414673 161.901433 
L 158.973467 161.714073 
L 162.012663 161.446791 
L 165.051859 160.971624 
L 168.091055 160.163282 
L 169.610653 159.581904 
L 171.130251 158.848178 
L 172.649849 157.932695 
L 174.169447 156.803525 
L 175.689045 155.426933 
L 177.208643 153.768399 
L 178.728241 151.793951 
L 180.247839 149.471819 
L 181.767437 146.774365 
L 183.287035 143.680235 
L 184.806633 140.176649 
L 186.326231 136.26169 
L 187.845829 131.946457 
L 190.885025 122.235262 
L 193.924221 111.44911 
L 198.483015 94.779346 
L 201.522211 84.677843 
L 203.041809 80.306001 
L 204.561407 76.545801 
L 206.081005 73.501947 
L 207.600603 71.261609 
L 209.120201 69.890273 
L 210.639799 69.428571 
L 212.159397 69.890273 
L 213.678995 71.261609 
L 215.198593 73.501947 
L 216.718191 76.545801 
L 218.237789 80.306001 
L 219.757387 84.677843 
L 222.796583 94.779346 
L 231.914171 127.256915 
L 233.433769 131.946457 
L 234.953367 136.26169 
L 236.472965 140.176649 
L 237.992563 143.680235 
L 239.512161 146.774365 
L 241.031759 149.471819 
L 242.551357 151.793951 
L 244.070955 153.768399 
L 245.590553 155.426933 
L 247.110151 156.803525 
L 248.629749 157.932695 
L 250.149347 158.848178 
L 251.668945 159.581904 
L 253.188543 160.163282 
L 256.227739 160.971624 
L 259.266935 161.446791 
L 263.825729 161.797501 
L 269.904121 161.953904 
L 285.100101 161.999434 
L 361.08 162 
L 361.08 162 
" style="fill:none;stroke:#808080;stroke-dasharray:4,2,4,2;stroke-dashoffset:0;stroke-width:2;"/>
   </g>
   <g id="line2d_12">
    <path clip-path="url(#p213adc4742)" d="M 58.68 162 
L 245.590553 161.901433 
L 250.149347 161.714073 
L 253.188543 161.446791 
L 256.227739 160.971624 
L 259.266935 160.163282 
L 260.786533 159.581904 
L 262.306131 158.848178 
L 263.825729 157.932695 
L 265.345327 156.803525 
L 266.864925 155.426933 
L 268.384523 153.768399 
L 269.904121 151.793951 
L 271.423719 149.471819 
L 272.943317 146.774365 
L 274.462915 143.680235 
L 275.982513 140.176649 
L 277.502111 136.26169 
L 279.021709 131.946457 
L 282.060905 122.235262 
L 285.100101 111.44911 
L 289.658894 94.779346 
L 292.69809 84.677843 
L 294.217688 80.306001 
L 295.737286 76.545801 
L 297.256884 73.501947 
L 298.776482 71.261609 
L 300.29608 69.890273 
L 301.815678 69.428571 
L 303.335276 69.890273 
L 304.854874 71.261609 
L 306.374472 73.501947 
L 307.89407 76.545801 
L 309.413668 80.306001 
L 310.933266 84.677843 
L 313.972462 94.779346 
L 323.09005 127.256915 
L 324.609648 131.946457 
L 326.129246 136.26169 
L 327.648844 140.176649 
L 329.168442 143.680235 
L 330.68804 146.774365 
L 332.207638 149.471819 
L 333.727236 151.793951 
L 335.246834 153.768399 
L 336.766432 155.426933 
L 338.28603 156.803525 
L 339.805628 157.932695 
L 341.325226 158.848178 
L 342.844824 159.581904 
L 344.364422 160.163282 
L 347.403618 160.971624 
L 350.442814 161.446791 
L 355.001608 161.797501 
L 361.08 161.953904 
L 361.08 161.953904 
" style="fill:none;stroke:#4169e1;stroke-dasharray:16,2,16,2;stroke-dashoffset:0;stroke-width:2;"/>
   </g>
   <g id="line2d_13">
    <path clip-path="url(#p213adc4742)" d="M 58.68 162 
L 306.374472 161.901433 
L 310.933266 161.714073 
L 313.972462 161.446791 
L 317.011658 160.971624 
L 320.050854 160.163282 
L 321.570452 159.581904 
L 323.09005 158.848178 
L 324.609648 157.932695 
L 326.129246 156.803525 
L 327.648844 155.426933 
L 329.168442 153.768399 
L 330.68804 151.793951 
L 332.207638 149.471819 
L 333.727236 146.774365 
L 335.246834 143.680235 
L 336.766432 140.176649 
L 338.28603 136.26169 
L 339.805628 131.946457 
L 342.844824 122.235262 
L 345.88402 111.44911 
L 350.442814 94.779346 
L 353.48201 84.677843 
L 355.001608 80.306001 
L 356.521206 76.545801 
L 358.040804 73.501947 
L 359.560402 71.261609 
L 361.08 69.890273 
L 361.08 69.890273 
" style="fill:none;stroke:#808000;stroke-dasharray:4,4,4,4;stroke-dashoffset:0;stroke-width:2;"/>
   </g>
   <g id="patch_3">
    <path d="M 43.56 162 
L 43.56 64.8 
" style="fill:none;stroke:#000000;stroke-linecap:square;stroke-linejoin:miter;stroke-width:0.8;"/>
   </g>
   <g id="patch_4">
    <path d="M 43.56 162 
L 376.2 162 
" style="fill:none;stroke:#000000;stroke-linecap:square;stroke-linejoin:miter;stroke-width:0.8;"/>
   </g>
   <g id="text_10">
    <!-- Zero -->
    <defs>
     <path d="M 57.515625 66.21875 
L 14.015625 4 
L 41.15625 4 
Q 47.40625 4 50.75 6.734375 
Q 54.109375 9.46875 56.6875 17.828125 
L 58.296875 17.53125 
L 55.171875 0 
L 1.265625 0 
L 1.265625 1.8125 
L 43.75 62.25 
L 22.5625 62.25 
Q 17.28125 62.25 14.90625 61.109375 
Q 12.546875 59.96875 11.296875 57.78125 
Q 10.0625 55.609375 9.03125 49.65625 
L 7.171875 49.65625 
L 8.546875 66.21875 
z
" id="TimesNewRomanPSMT-5a"/>
     <path d="M 16.21875 46.046875 
L 16.21875 35.984375 
Q 21.828125 46.046875 27.734375 46.046875 
Q 30.421875 46.046875 32.171875 44.40625 
Q 33.9375 42.78125 33.9375 40.625 
Q 33.9375 38.71875 32.65625 37.390625 
Q 31.390625 36.078125 29.640625 36.078125 
Q 27.9375 36.078125 25.8125 37.765625 
Q 23.6875 39.453125 22.65625 39.453125 
Q 21.78125 39.453125 20.75 38.484375 
Q 18.5625 36.46875 16.21875 31.890625 
L 16.21875 10.453125 
Q 16.21875 6.734375 17.140625 4.828125 
Q 17.78125 3.515625 19.390625 2.640625 
Q 21 1.765625 24.03125 1.765625 
L 24.03125 0 
L 1.125 0 
L 1.125 1.765625 
Q 4.546875 1.765625 6.203125 2.828125 
Q 7.421875 3.609375 7.90625 5.328125 
Q 8.15625 6.15625 8.15625 10.0625 
L 8.15625 27.390625 
Q 8.15625 35.203125 7.828125 36.6875 
Q 7.515625 38.1875 6.65625 38.859375 
Q 5.8125 39.546875 4.546875 39.546875 
Q 3.03125 39.546875 1.125 38.8125 
L 0.640625 40.578125 
L 14.15625 46.046875 
z
" id="TimesNewRomanPSMT-72"/>
     <path d="M 25 46.046875 
Q 35.15625 46.046875 41.3125 38.328125 
Q 46.53125 31.734375 46.53125 23.1875 
Q 46.53125 17.1875 43.640625 11.03125 
Q 40.765625 4.890625 35.71875 1.75 
Q 30.671875 -1.375 24.46875 -1.375 
Q 14.359375 -1.375 8.40625 6.6875 
Q 3.375 13.484375 3.375 21.921875 
Q 3.375 28.078125 6.421875 34.15625 
Q 9.46875 40.234375 14.453125 43.140625 
Q 19.4375 46.046875 25 46.046875 
z
M 23.484375 42.875 
Q 20.90625 42.875 18.28125 41.328125 
Q 15.671875 39.796875 14.0625 35.9375 
Q 12.453125 32.078125 12.453125 26.03125 
Q 12.453125 16.265625 16.328125 9.171875 
Q 20.21875 2.09375 26.5625 2.09375 
Q 31.296875 2.09375 34.375 6 
Q 37.453125 9.90625 37.453125 19.4375 
Q 37.453125 31.34375 32.328125 38.1875 
Q 28.859375 42.875 23.484375 42.875 
z
" id="TimesNewRomanPSMT-6f"/>
    </defs>
    <g transform="translate(42.634922 56.535022)scale(0.17 -0.17)">
     <use xlink:href="#TimesNewRomanPSMT-5a"/>
     <use x="61.083984" xlink:href="#TimesNewRomanPSMT-65"/>
     <use x="105.46875" xlink:href="#TimesNewRomanPSMT-72"/>
     <use x="138.769531" xlink:href="#TimesNewRomanPSMT-6f"/>
    </g>
   </g>
   <g id="text_11">
    <!-- Slow -->
    <defs>
     <path d="M 45.84375 67.71875 
L 45.84375 44.828125 
L 44.046875 44.828125 
Q 43.171875 51.421875 40.890625 55.328125 
Q 38.625 59.234375 34.421875 61.515625 
Q 30.21875 63.8125 25.734375 63.8125 
Q 20.65625 63.8125 17.328125 60.71875 
Q 14.015625 57.625 14.015625 53.65625 
Q 14.015625 50.640625 16.109375 48.140625 
Q 19.140625 44.484375 30.515625 38.375 
Q 39.796875 33.40625 43.1875 30.734375 
Q 46.578125 28.078125 48.40625 24.453125 
Q 50.25 20.84375 50.25 16.890625 
Q 50.25 9.375 44.40625 3.921875 
Q 38.578125 -1.515625 29.390625 -1.515625 
Q 26.515625 -1.515625 23.96875 -1.078125 
Q 22.46875 -0.828125 17.703125 0.703125 
Q 12.9375 2.25 11.671875 2.25 
Q 10.453125 2.25 9.734375 1.515625 
Q 9.03125 0.78125 8.6875 -1.515625 
L 6.890625 -1.515625 
L 6.890625 21.1875 
L 8.6875 21.1875 
Q 9.96875 14.0625 12.109375 10.515625 
Q 14.265625 6.984375 18.671875 4.640625 
Q 23.09375 2.296875 28.375 2.296875 
Q 34.46875 2.296875 38 5.515625 
Q 41.546875 8.734375 41.546875 13.140625 
Q 41.546875 15.578125 40.203125 18.0625 
Q 38.875 20.5625 36.03125 22.703125 
Q 34.125 24.171875 25.625 28.921875 
Q 17.140625 33.6875 13.546875 36.515625 
Q 9.96875 39.359375 8.109375 42.765625 
Q 6.25 46.1875 6.25 50.296875 
Q 6.25 57.421875 11.71875 62.5625 
Q 17.1875 67.71875 25.640625 67.71875 
Q 30.90625 67.71875 36.8125 65.140625 
Q 39.546875 63.921875 40.671875 63.921875 
Q 41.9375 63.921875 42.75 64.671875 
Q 43.5625 65.4375 44.046875 67.71875 
z
" id="TimesNewRomanPSMT-53"/>
     <path d="M 18.5 69.4375 
L 18.5 10.109375 
Q 18.5 5.90625 19.109375 4.53125 
Q 19.734375 3.171875 21 2.46875 
Q 22.265625 1.765625 25.734375 1.765625 
L 25.734375 0 
L 3.8125 0 
L 3.8125 1.765625 
Q 6.890625 1.765625 8 2.390625 
Q 9.125 3.03125 9.765625 4.484375 
Q 10.40625 5.953125 10.40625 10.109375 
L 10.40625 50.734375 
Q 10.40625 58.296875 10.0625 60.03125 
Q 9.71875 61.765625 8.953125 62.390625 
Q 8.203125 63.03125 7.03125 63.03125 
Q 5.765625 63.03125 3.8125 62.25 
L 2.984375 63.96875 
L 16.3125 69.4375 
z
" id="TimesNewRomanPSMT-6c"/>
     <path d="M 0.640625 44.734375 
L 19.390625 44.734375 
L 19.390625 42.921875 
Q 16.796875 42.71875 15.984375 41.984375 
Q 15.1875 41.265625 15.1875 39.890625 
Q 15.1875 38.375 16.015625 36.234375 
L 25.59375 10.5 
L 35.203125 31.453125 
L 32.671875 38.03125 
Q 31.5 40.96875 29.59375 42.09375 
Q 28.515625 42.78125 25.59375 42.921875 
L 25.59375 44.734375 
L 46.875 44.734375 
L 46.875 42.921875 
Q 43.359375 42.78125 41.890625 41.65625 
Q 40.921875 40.875 40.921875 39.15625 
Q 40.921875 38.1875 41.3125 37.15625 
L 51.46875 11.46875 
L 60.890625 36.234375 
Q 61.859375 38.875 61.859375 40.4375 
Q 61.859375 41.359375 60.90625 42.09375 
Q 59.96875 42.828125 57.171875 42.921875 
L 57.171875 44.734375 
L 71.296875 44.734375 
L 71.296875 42.921875 
Q 67.046875 42.28125 65.046875 37.15625 
L 50.09375 -1.375 
L 48.09375 -1.375 
L 36.921875 27.203125 
L 23.875 -1.375 
L 22.078125 -1.375 
L 7.71875 36.234375 
Q 6.296875 39.796875 4.921875 41.03125 
Q 3.5625 42.28125 0.640625 42.921875 
z
" id="TimesNewRomanPSMT-77"/>
    </defs>
    <g style="fill:#4b0082;" transform="translate(101.987123 56.535022)scale(0.17 -0.17)">
     <use xlink:href="#TimesNewRomanPSMT-53"/>
     <use x="55.615234" xlink:href="#TimesNewRomanPSMT-6c"/>
     <use x="83.398438" xlink:href="#TimesNewRomanPSMT-6f"/>
     <use x="133.398438" xlink:href="#TimesNewRomanPSMT-77"/>
    </g>
   </g>
   <g id="text_12">
    <!-- Physiological -->
    <defs>
     <path d="M 20.515625 31 
L 20.515625 11.71875 
Q 20.515625 5.46875 21.875 3.953125 
Q 23.734375 1.8125 27.484375 1.8125 
L 30.03125 1.8125 
L 30.03125 0 
L 1.65625 0 
L 1.65625 1.8125 
L 4.15625 1.8125 
Q 8.34375 1.8125 10.15625 4.546875 
Q 11.140625 6.0625 11.140625 11.71875 
L 11.140625 54.5 
Q 11.140625 60.75 9.8125 62.25 
Q 7.90625 64.40625 4.15625 64.40625 
L 1.65625 64.40625 
L 1.65625 66.21875 
L 25.921875 66.21875 
Q 34.8125 66.21875 39.9375 64.375 
Q 45.0625 62.546875 48.578125 58.203125 
Q 52.09375 53.859375 52.09375 47.90625 
Q 52.09375 39.796875 46.75 34.71875 
Q 41.40625 29.640625 31.640625 29.640625 
Q 29.25 29.640625 26.46875 29.984375 
Q 23.6875 30.328125 20.515625 31 
z
M 20.515625 33.796875 
Q 23.09375 33.296875 25.09375 33.046875 
Q 27.09375 32.8125 28.515625 32.8125 
Q 33.59375 32.8125 37.28125 36.734375 
Q 40.96875 40.671875 40.96875 46.921875 
Q 40.96875 51.21875 39.203125 54.90625 
Q 37.453125 58.59375 34.21875 60.421875 
Q 31 62.25 26.90625 62.25 
Q 24.421875 62.25 20.515625 61.328125 
z
" id="TimesNewRomanPSMT-50"/>
     <path d="M 16.265625 69.4375 
L 16.265625 36.71875 
Q 21.6875 42.671875 24.859375 44.359375 
Q 28.03125 46.046875 31.203125 46.046875 
Q 35.015625 46.046875 37.75 43.9375 
Q 40.484375 41.84375 41.796875 37.359375 
Q 42.71875 34.234375 42.71875 25.921875 
L 42.71875 10.109375 
Q 42.71875 5.859375 43.40625 4.296875 
Q 43.890625 3.125 45.0625 2.4375 
Q 46.234375 1.765625 49.359375 1.765625 
L 49.359375 0 
L 27.390625 0 
L 27.390625 1.765625 
L 28.421875 1.765625 
Q 31.546875 1.765625 32.765625 2.703125 
Q 33.984375 3.65625 34.46875 5.515625 
Q 34.625 6.296875 34.625 10.109375 
L 34.625 25.921875 
Q 34.625 33.25 33.859375 35.546875 
Q 33.109375 37.84375 31.4375 38.984375 
Q 29.78125 40.140625 27.4375 40.140625 
Q 25.046875 40.140625 22.453125 38.859375 
Q 19.875 37.59375 16.265625 33.734375 
L 16.265625 10.109375 
Q 16.265625 5.515625 16.765625 4.390625 
Q 17.28125 3.265625 18.671875 2.515625 
Q 20.0625 1.765625 23.484375 1.765625 
L 23.484375 0 
L 1.3125 0 
L 1.3125 1.765625 
Q 4.296875 1.765625 6 2.6875 
Q 6.984375 3.171875 7.5625 4.53125 
Q 8.15625 5.90625 8.15625 10.109375 
L 8.15625 50.59375 
Q 8.15625 58.25 7.78125 60 
Q 7.421875 61.765625 6.65625 62.390625 
Q 5.90625 63.03125 4.640625 63.03125 
Q 3.609375 63.03125 1.3125 62.25 
L 0.640625 63.96875 
L 14.015625 69.4375 
z
" id="TimesNewRomanPSMT-68"/>
     <path d="M 15.09375 16.3125 
Q 10.984375 18.3125 8.78125 21.890625 
Q 6.59375 25.484375 6.59375 29.828125 
Q 6.59375 36.46875 11.59375 41.25 
Q 16.609375 46.046875 24.421875 46.046875 
Q 30.8125 46.046875 35.5 42.921875 
L 44.96875 42.921875 
Q 47.078125 42.921875 47.40625 42.796875 
Q 47.75 42.671875 47.90625 42.390625 
Q 48.1875 41.9375 48.1875 40.828125 
Q 48.1875 39.546875 47.953125 39.0625 
Q 47.796875 38.8125 47.4375 38.671875 
Q 47.078125 38.53125 44.96875 38.53125 
L 39.15625 38.53125 
Q 41.890625 35.015625 41.890625 29.546875 
Q 41.890625 23.296875 37.109375 18.84375 
Q 32.328125 14.40625 24.265625 14.40625 
Q 20.953125 14.40625 17.484375 15.375 
Q 15.328125 13.53125 14.5625 12.140625 
Q 13.8125 10.75 13.8125 9.765625 
Q 13.8125 8.9375 14.625 8.15625 
Q 15.4375 7.375 17.78125 7.03125 
Q 19.140625 6.84375 24.609375 6.6875 
Q 34.671875 6.453125 37.640625 6 
Q 42.1875 5.375 44.890625 2.640625 
Q 47.609375 -0.09375 47.609375 -4.109375 
Q 47.609375 -9.625 42.4375 -14.453125 
Q 34.8125 -21.578125 22.5625 -21.578125 
Q 13.140625 -21.578125 6.640625 -17.328125 
Q 2.984375 -14.890625 2.984375 -12.25 
Q 2.984375 -11.078125 3.515625 -9.90625 
Q 4.34375 -8.109375 6.9375 -4.890625 
Q 7.28125 -4.4375 11.921875 0.390625 
Q 9.375 1.90625 8.328125 3.09375 
Q 7.28125 4.296875 7.28125 5.8125 
Q 7.28125 7.515625 8.671875 9.8125 
Q 10.0625 12.109375 15.09375 16.3125 
z
M 23.578125 43.703125 
Q 19.96875 43.703125 17.53125 40.8125 
Q 15.09375 37.9375 15.09375 31.984375 
Q 15.09375 24.265625 18.40625 20.015625 
Q 20.953125 16.796875 24.859375 16.796875 
Q 28.5625 16.796875 30.953125 19.578125 
Q 33.34375 22.359375 33.34375 28.328125 
Q 33.34375 36.078125 29.984375 40.484375 
Q 27.484375 43.703125 23.578125 43.703125 
z
M 14.59375 0 
Q 12.3125 -2.484375 11.140625 -4.625 
Q 9.96875 -6.78125 9.96875 -8.59375 
Q 9.96875 -10.9375 12.796875 -12.703125 
Q 17.671875 -15.71875 26.90625 -15.71875 
Q 35.6875 -15.71875 39.859375 -12.609375 
Q 44.046875 -9.515625 44.046875 -6 
Q 44.046875 -3.46875 41.546875 -2.390625 
Q 39.015625 -1.3125 31.5 -1.125 
Q 20.515625 -0.828125 14.59375 0 
z
" id="TimesNewRomanPSMT-67"/>
     <path d="M 41.109375 17 
Q 39.3125 8.15625 34.03125 3.390625 
Q 28.765625 -1.375 22.359375 -1.375 
Q 14.75 -1.375 9.078125 5.015625 
Q 3.421875 11.421875 3.421875 22.3125 
Q 3.421875 32.859375 9.6875 39.453125 
Q 15.96875 46.046875 24.75 46.046875 
Q 31.34375 46.046875 35.59375 42.546875 
Q 39.84375 39.0625 39.84375 35.296875 
Q 39.84375 33.453125 38.640625 32.296875 
Q 37.453125 31.15625 35.296875 31.15625 
Q 32.421875 31.15625 30.953125 33.015625 
Q 30.125 34.03125 29.859375 36.90625 
Q 29.59375 39.796875 27.875 41.3125 
Q 26.171875 42.78125 23.140625 42.78125 
Q 18.265625 42.78125 15.28125 39.15625 
Q 11.328125 34.375 11.328125 26.515625 
Q 11.328125 18.5 15.25 12.375 
Q 19.1875 6.25 25.875 6.25 
Q 30.671875 6.25 34.46875 9.515625 
Q 37.15625 11.765625 39.703125 17.671875 
z
" id="TimesNewRomanPSMT-63"/>
     <path d="M 28.46875 6.453125 
Q 21.578125 1.125 19.828125 0.296875 
Q 17.1875 -0.921875 14.203125 -0.921875 
Q 9.578125 -0.921875 6.5625 2.25 
Q 3.5625 5.421875 3.5625 10.59375 
Q 3.5625 13.875 5.03125 16.265625 
Q 7.03125 19.578125 11.984375 22.5 
Q 16.9375 25.4375 28.46875 29.640625 
L 28.46875 31.390625 
Q 28.46875 38.09375 26.34375 40.578125 
Q 24.21875 43.0625 20.171875 43.0625 
Q 17.09375 43.0625 15.28125 41.40625 
Q 13.421875 39.75 13.421875 37.59375 
L 13.53125 34.765625 
Q 13.53125 32.515625 12.375 31.296875 
Q 11.234375 30.078125 9.375 30.078125 
Q 7.5625 30.078125 6.421875 31.34375 
Q 5.28125 32.625 5.28125 34.8125 
Q 5.28125 39.015625 9.578125 42.53125 
Q 13.875 46.046875 21.625 46.046875 
Q 27.59375 46.046875 31.390625 44.046875 
Q 34.28125 42.53125 35.640625 39.3125 
Q 36.53125 37.203125 36.53125 30.71875 
L 36.53125 15.53125 
Q 36.53125 9.125 36.765625 7.6875 
Q 37.015625 6.25 37.578125 5.765625 
Q 38.140625 5.28125 38.875 5.28125 
Q 39.65625 5.28125 40.234375 5.609375 
Q 41.265625 6.25 44.1875 9.1875 
L 44.1875 6.453125 
Q 38.71875 -0.875 33.734375 -0.875 
Q 31.34375 -0.875 29.921875 0.78125 
Q 28.515625 2.4375 28.46875 6.453125 
z
M 28.46875 9.625 
L 28.46875 26.65625 
Q 21.09375 23.734375 18.953125 22.515625 
Q 15.09375 20.359375 13.421875 18.015625 
Q 11.765625 15.671875 11.765625 12.890625 
Q 11.765625 9.375 13.859375 7.046875 
Q 15.96875 4.734375 18.703125 4.734375 
Q 22.40625 4.734375 28.46875 9.625 
z
" id="TimesNewRomanPSMT-61"/>
    </defs>
    <g style="fill:#808080;" transform="translate(164.362611 56.503147)scale(0.17 -0.17)">
     <use xlink:href="#TimesNewRomanPSMT-50"/>
     <use x="55.615234" xlink:href="#TimesNewRomanPSMT-68"/>
     <use x="105.615234" xlink:href="#TimesNewRomanPSMT-79"/>
     <use x="155.615234" xlink:href="#TimesNewRomanPSMT-73"/>
     <use x="194.53125" xlink:href="#TimesNewRomanPSMT-69"/>
     <use x="222.314453" xlink:href="#TimesNewRomanPSMT-6f"/>
     <use x="272.314453" xlink:href="#TimesNewRomanPSMT-6c"/>
     <use x="300.097656" xlink:href="#TimesNewRomanPSMT-6f"/>
     <use x="350.097656" xlink:href="#TimesNewRomanPSMT-67"/>
     <use x="400.097656" xlink:href="#TimesNewRomanPSMT-69"/>
     <use x="427.880859" xlink:href="#TimesNewRomanPSMT-63"/>
     <use x="472.265625" xlink:href="#TimesNewRomanPSMT-61"/>
     <use x="516.650391" xlink:href="#TimesNewRomanPSMT-6c"/>
    </g>
   </g>
   <g id="text_13">
    <!-- Fast -->
    <defs>
     <path d="M 20.453125 62.59375 
L 20.453125 36.578125 
L 32.515625 36.578125 
Q 36.671875 36.578125 38.59375 38.40625 
Q 40.53125 40.234375 41.15625 45.65625 
L 42.96875 45.65625 
L 42.96875 23.25 
L 41.15625 23.25 
Q 41.109375 27.09375 40.15625 28.90625 
Q 39.203125 30.71875 37.515625 31.609375 
Q 35.84375 32.515625 32.515625 32.515625 
L 20.453125 32.515625 
L 20.453125 11.71875 
Q 20.453125 6.6875 21.09375 5.078125 
Q 21.578125 3.859375 23.140625 2.984375 
Q 25.296875 1.8125 27.640625 1.8125 
L 30.03125 1.8125 
L 30.03125 0 
L 1.609375 0 
L 1.609375 1.8125 
L 3.953125 1.8125 
Q 8.0625 1.8125 9.90625 4.203125 
Q 11.078125 5.765625 11.078125 11.71875 
L 11.078125 54.5 
Q 11.078125 59.515625 10.453125 61.140625 
Q 9.96875 62.359375 8.453125 63.234375 
Q 6.34375 64.40625 3.953125 64.40625 
L 1.609375 64.40625 
L 1.609375 66.21875 
L 50.875 66.21875 
L 51.515625 51.65625 
L 49.8125 51.65625 
Q 48.53125 56.296875 46.84375 58.46875 
Q 45.171875 60.640625 42.703125 61.609375 
Q 40.234375 62.59375 35.0625 62.59375 
z
" id="TimesNewRomanPSMT-46"/>
    </defs>
    <g style="fill:#4169e1;" transform="translate(287.645913 56.535022)scale(0.17 -0.17)">
     <use xlink:href="#TimesNewRomanPSMT-46"/>
     <use x="55.615234" xlink:href="#TimesNewRomanPSMT-61"/>
     <use x="100" xlink:href="#TimesNewRomanPSMT-73"/>
     <use x="138.916016" xlink:href="#TimesNewRomanPSMT-74"/>
    </g>
   </g>
   <g id="text_14">
    <!-- Very fast -->
    <defs>
     <path d="M 71 66.21875 
L 71 64.40625 
Q 67.484375 63.765625 65.671875 62.15625 
Q 63.09375 59.765625 61.078125 54.828125 
L 37.984375 -1.515625 
L 36.1875 -1.515625 
L 11.375 55.5625 
Q 9.46875 59.96875 8.6875 60.9375 
Q 7.46875 62.453125 5.6875 63.296875 
Q 3.90625 64.15625 0.875 64.40625 
L 0.875 66.21875 
L 27.9375 66.21875 
L 27.9375 64.40625 
Q 23.34375 63.96875 21.96875 62.84375 
Q 20.609375 61.71875 20.609375 59.96875 
Q 20.609375 57.515625 22.859375 52.34375 
L 39.703125 13.53125 
L 55.328125 51.859375 
Q 57.625 57.515625 57.625 59.71875 
Q 57.625 61.140625 56.203125 62.421875 
Q 54.78125 63.71875 51.421875 64.265625 
Q 51.171875 64.3125 50.59375 64.40625 
L 50.59375 66.21875 
z
" id="TimesNewRomanPSMT-56"/>
     <path id="TimesNewRomanPSMT-20"/>
     <path d="M 20.609375 41.21875 
L 20.609375 11.8125 
Q 20.609375 5.5625 21.96875 3.90625 
Q 23.78125 1.765625 26.8125 1.765625 
L 30.859375 1.765625 
L 30.859375 0 
L 4.15625 0 
L 4.15625 1.765625 
L 6.15625 1.765625 
Q 8.109375 1.765625 9.71875 2.734375 
Q 11.328125 3.71875 11.9375 5.375 
Q 12.546875 7.03125 12.546875 11.8125 
L 12.546875 41.21875 
L 3.859375 41.21875 
L 3.859375 44.734375 
L 12.546875 44.734375 
L 12.546875 47.65625 
Q 12.546875 54.34375 14.6875 58.984375 
Q 16.84375 63.625 21.265625 66.484375 
Q 25.6875 69.34375 31.203125 69.34375 
Q 36.328125 69.34375 40.625 66.015625 
Q 43.453125 63.8125 43.453125 61.078125 
Q 43.453125 59.625 42.1875 58.328125 
Q 40.921875 57.03125 39.453125 57.03125 
Q 38.328125 57.03125 37.078125 57.828125 
Q 35.84375 58.640625 34.03125 61.296875 
Q 32.234375 63.96875 30.71875 64.890625 
Q 29.203125 65.828125 27.34375 65.828125 
Q 25.09375 65.828125 23.53125 64.625 
Q 21.96875 63.421875 21.28125 60.90625 
Q 20.609375 58.40625 20.609375 47.953125 
L 20.609375 44.734375 
L 32.125 44.734375 
L 32.125 41.21875 
z
" id="TimesNewRomanPSMT-66"/>
    </defs>
    <g style="fill:#808000;" transform="translate(331.223973 56.503147)scale(0.17 -0.17)">
     <use xlink:href="#TimesNewRomanPSMT-56"/>
     <use x="72.044922" xlink:href="#TimesNewRomanPSMT-65"/>
     <use x="116.429688" xlink:href="#TimesNewRomanPSMT-72"/>
     <use x="149.730469" xlink:href="#TimesNewRomanPSMT-79"/>
     <use x="199.730469" xlink:href="#TimesNewRomanPSMT-20"/>
     <use x="224.730469" xlink:href="#TimesNewRomanPSMT-66"/>
     <use x="258.03125" xlink:href="#TimesNewRomanPSMT-61"/>
     <use x="302.416016" xlink:href="#TimesNewRomanPSMT-73"/>
     <use x="341.332031" xlink:href="#TimesNewRomanPSMT-74"/>
    </g>
   </g>
   <g id="text_15">
    <!-- Late differentiation -->
    <defs>
     <path d="M 57.328125 18.3125 
L 58.9375 17.96875 
L 53.265625 0 
L 2 0 
L 2 1.8125 
L 4.5 1.8125 
Q 8.6875 1.8125 10.5 4.546875 
Q 11.53125 6.109375 11.53125 11.765625 
L 11.53125 54.5 
Q 11.53125 60.6875 10.15625 62.25 
Q 8.25 64.40625 4.5 64.40625 
L 2 64.40625 
L 2 66.21875 
L 31.984375 66.21875 
L 31.984375 64.40625 
Q 26.703125 64.453125 24.578125 63.421875 
Q 22.46875 62.40625 21.6875 60.84375 
Q 20.90625 59.28125 20.90625 53.375 
L 20.90625 11.765625 
Q 20.90625 7.71875 21.6875 6.203125 
Q 22.265625 5.171875 23.484375 4.6875 
Q 24.703125 4.203125 31.109375 4.203125 
L 35.9375 4.203125 
Q 43.5625 4.203125 46.625 5.328125 
Q 49.703125 6.453125 52.234375 9.296875 
Q 54.78125 12.15625 57.328125 18.3125 
z
" id="TimesNewRomanPSMT-4c"/>
     <path d="M 34.71875 5.03125 
Q 31.453125 1.609375 28.328125 0.109375 
Q 25.203125 -1.375 21.578125 -1.375 
Q 14.265625 -1.375 8.796875 4.75 
Q 3.328125 10.890625 3.328125 20.515625 
Q 3.328125 30.125 9.375 38.109375 
Q 15.4375 46.09375 24.953125 46.09375 
Q 30.859375 46.09375 34.71875 42.328125 
L 34.71875 50.59375 
Q 34.71875 58.25 34.34375 60 
Q 33.984375 61.765625 33.203125 62.390625 
Q 32.421875 63.03125 31.25 63.03125 
Q 29.984375 63.03125 27.875 62.25 
L 27.25 63.96875 
L 40.578125 69.4375 
L 42.78125 69.4375 
L 42.78125 17.71875 
Q 42.78125 9.859375 43.140625 8.125 
Q 43.5 6.390625 44.3125 5.703125 
Q 45.125 5.03125 46.1875 5.03125 
Q 47.515625 5.03125 49.703125 5.859375 
L 50.25 4.15625 
L 36.96875 -1.375 
L 34.71875 -1.375 
z
M 34.71875 8.453125 
L 34.71875 31.5 
Q 34.421875 34.8125 32.953125 37.546875 
Q 31.5 40.28125 29.078125 41.671875 
Q 26.65625 43.0625 24.359375 43.0625 
Q 20.0625 43.0625 16.703125 39.203125 
Q 12.25 34.125 12.25 24.359375 
Q 12.25 14.5 16.546875 9.25 
Q 20.84375 4 26.125 4 
Q 30.5625 4 34.71875 8.453125 
z
" id="TimesNewRomanPSMT-64"/>
    </defs>
    <g transform="translate(132.420625 34.5)scale(0.2 -0.2)">
     <use xlink:href="#TimesNewRomanPSMT-4c"/>
     <use x="61.083984" xlink:href="#TimesNewRomanPSMT-61"/>
     <use x="105.46875" xlink:href="#TimesNewRomanPSMT-74"/>
     <use x="133.251953" xlink:href="#TimesNewRomanPSMT-65"/>
     <use x="177.636719" xlink:href="#TimesNewRomanPSMT-20"/>
     <use x="202.636719" xlink:href="#TimesNewRomanPSMT-64"/>
     <use x="252.636719" xlink:href="#TimesNewRomanPSMT-69"/>
     <use x="280.419922" xlink:href="#TimesNewRomanPSMT-66"/>
     <use x="313.705078" xlink:href="#TimesNewRomanPSMT-66"/>
     <use x="347.005859" xlink:href="#TimesNewRomanPSMT-65"/>
     <use x="391.390625" xlink:href="#TimesNewRomanPSMT-72"/>
     <use x="424.691406" xlink:href="#TimesNewRomanPSMT-65"/>
     <use x="469.076172" xlink:href="#TimesNewRomanPSMT-6e"/>
     <use x="519.076172" xlink:href="#TimesNewRomanPSMT-74"/>
     <use x="546.859375" xlink:href="#TimesNewRomanPSMT-69"/>
     <use x="574.642578" xlink:href="#TimesNewRomanPSMT-61"/>
     <use x="619.027344" xlink:href="#TimesNewRomanPSMT-74"/>
     <use x="646.810547" xlink:href="#TimesNewRomanPSMT-69"/>
     <use x="674.59375" xlink:href="#TimesNewRomanPSMT-6f"/>
     <use x="724.59375" xlink:href="#TimesNewRomanPSMT-6e"/>
    </g>
   </g>
  </g>
 </g>
 <defs>
  <clipPath id="p213adc4742">
   <rect height="97.2" width="332.64" x="43.56" y="64.8"/>
  </clipPath>
 </defs>
</svg>
