<?xml version="1.0" encoding="utf-8" standalone="no"?>
<!DOCTYPE svg PUBLIC "-//W3C//DTD SVG 1.1//EN"
  "http://www.w3.org/Graphics/SVG/1.1/DTD/svg11.dtd">
<!-- Created with matplotlib (https://matplotlib.org/) -->
<svg height="633.86875pt" version="1.1" viewBox="0 0 1158.978125 633.86875" width="1158.978125pt" xmlns="http://www.w3.org/2000/svg" xmlns:xlink="http://www.w3.org/1999/xlink">
 <defs>
  <style type="text/css">
*{stroke-linecap:butt;stroke-linejoin:round;}
  </style>
 </defs>
 <g id="figure_1">
  <g id="patch_1">
   <path d="M 0 633.86875 
L 1158.978125 633.86875 
L 1158.978125 0 
L 0 0 
z
" style="fill:#ffffff;"/>
  </g>
  <g id="axes_1">
   <g id="patch_2">
    <path d="M 95.778125 288.234375 
L 653.778125 288.234375 
L 653.778125 36.234375 
L 95.778125 36.234375 
z
" style="fill:#ffffff;"/>
   </g>
   <g id="patch_3">
    <path clip-path="url(#p53cb1c5de5)" d="M 121.141761 288.234375 
L 139.92964 288.234375 
L 139.92964 200.578805 
L 121.141761 200.578805 
z
" style="fill:#00ff00;stroke:#000000;stroke-linejoin:miter;"/>
   </g>
   <g id="patch_4">
    <path clip-path="url(#p53cb1c5de5)" d="M 215.081155 288.234375 
L 233.869034 288.234375 
L 233.869034 183.948336 
L 215.081155 183.948336 
z
" style="fill:#00ff00;stroke:#000000;stroke-linejoin:miter;"/>
   </g>
   <g id="patch_5">
    <path clip-path="url(#p53cb1c5de5)" d="M 309.020549 288.234375 
L 327.808428 288.234375 
L 327.808428 77.045807 
L 309.020549 77.045807 
z
" style="fill:#00ff00;stroke:#000000;stroke-linejoin:miter;"/>
   </g>
   <g id="patch_6">
    <path clip-path="url(#p53cb1c5de5)" d="M 402.959943 288.234375 
L 421.747822 288.234375 
L 421.747822 122.313903 
L 402.959943 122.313903 
z
" style="fill:#00ff00;stroke:#000000;stroke-linejoin:miter;"/>
   </g>
   <g id="patch_7">
    <path clip-path="url(#p53cb1c5de5)" d="M 496.899337 288.234375 
L 515.687216 288.234375 
L 515.687216 225.211346 
L 496.899337 225.211346 
z
" style="fill:#00ff00;stroke:#000000;stroke-linejoin:miter;"/>
   </g>
   <g id="patch_8">
    <path clip-path="url(#p53cb1c5de5)" d="M 590.838731 288.234375 
L 609.62661 288.234375 
L 609.62661 225.211346 
L 590.838731 225.211346 
z
" style="fill:#00ff00;stroke:#000000;stroke-linejoin:miter;"/>
   </g>
   <g id="patch_9">
    <path clip-path="url(#p53cb1c5de5)" d="M 139.92964 288.234375 
L 158.717519 288.234375 
L 158.717519 202.520089 
L 139.92964 202.520089 
z
" style="fill:#ee82ee;stroke:#000000;stroke-linejoin:miter;"/>
   </g>
   <g id="patch_10">
    <path clip-path="url(#p53cb1c5de5)" d="M 233.869034 288.234375 
L 252.656913 288.234375 
L 252.656913 181.091518 
L 233.869034 181.091518 
z
" style="fill:#ee82ee;stroke:#000000;stroke-linejoin:miter;"/>
   </g>
   <g id="patch_11">
    <path clip-path="url(#p53cb1c5de5)" d="M 327.808428 288.234375 
L 346.596307 288.234375 
L 346.596307 48.234375 
L 327.808428 48.234375 
z
" style="fill:#ee82ee;stroke:#000000;stroke-linejoin:miter;"/>
   </g>
   <g id="patch_12">
    <path clip-path="url(#p53cb1c5de5)" d="M 421.747822 288.234375 
L 440.535701 288.234375 
L 440.535701 112.520089 
L 421.747822 112.520089 
z
" style="fill:#ee82ee;stroke:#000000;stroke-linejoin:miter;"/>
   </g>
   <g id="patch_13">
    <path clip-path="url(#p53cb1c5de5)" d="M 515.687216 288.234375 
L 534.475095 288.234375 
L 534.475095 236.805804 
L 515.687216 236.805804 
z
" style="fill:#ee82ee;stroke:#000000;stroke-linejoin:miter;"/>
   </g>
   <g id="patch_14">
    <path clip-path="url(#p53cb1c5de5)" d="M 609.62661 288.234375 
L 628.414489 288.234375 
L 628.414489 223.948661 
L 609.62661 223.948661 
z
" style="fill:#ee82ee;stroke:#000000;stroke-linejoin:miter;"/>
   </g>
   <g id="matplotlib.axis_1">
    <g id="xtick_1">
     <g id="line2d_1">
      <defs>
       <path d="M 0 0 
L 0 3.5 
" id="m2deac09374" style="stroke:#000000;stroke-width:0.8;"/>
      </defs>
      <g>
       <use style="stroke:#000000;stroke-width:0.8;" x="130.535701" xlink:href="#m2deac09374" y="288.234375"/>
      </g>
     </g>
     <g id="text_1">
      <!-- 0 -->
      <defs>
       <path d="M 31.78125 66.40625 
Q 24.171875 66.40625 20.328125 58.90625 
Q 16.5 51.421875 16.5 36.375 
Q 16.5 21.390625 20.328125 13.890625 
Q 24.171875 6.390625 31.78125 6.390625 
Q 39.453125 6.390625 43.28125 13.890625 
Q 47.125 21.390625 47.125 36.375 
Q 47.125 51.421875 43.28125 58.90625 
Q 39.453125 66.40625 31.78125 66.40625 
z
M 31.78125 74.21875 
Q 44.046875 74.21875 50.515625 64.515625 
Q 56.984375 54.828125 56.984375 36.375 
Q 56.984375 17.96875 50.515625 8.265625 
Q 44.046875 -1.421875 31.78125 -1.421875 
Q 19.53125 -1.421875 13.0625 8.265625 
Q 6.59375 17.96875 6.59375 36.375 
Q 6.59375 54.828125 13.0625 64.515625 
Q 19.53125 74.21875 31.78125 74.21875 
z
" id="DejaVuSans-48"/>
      </defs>
      <g transform="translate(120.991951 318.029687)scale(0.3 -0.3)">
       <use xlink:href="#DejaVuSans-48"/>
      </g>
     </g>
    </g>
    <g id="xtick_2">
     <g id="line2d_2">
      <g>
       <use style="stroke:#000000;stroke-width:0.8;" x="224.475095" xlink:href="#m2deac09374" y="288.234375"/>
      </g>
     </g>
     <g id="text_2">
      <!-- 0.01 -->
      <defs>
       <path d="M 10.6875 12.40625 
L 21 12.40625 
L 21 0 
L 10.6875 0 
z
" id="DejaVuSans-46"/>
       <path d="M 12.40625 8.296875 
L 28.515625 8.296875 
L 28.515625 63.921875 
L 10.984375 60.40625 
L 10.984375 69.390625 
L 28.421875 72.90625 
L 38.28125 72.90625 
L 38.28125 8.296875 
L 54.390625 8.296875 
L 54.390625 0 
L 12.40625 0 
z
" id="DejaVuSans-49"/>
      </defs>
      <g transform="translate(191.076657 318.029687)scale(0.3 -0.3)">
       <use xlink:href="#DejaVuSans-48"/>
       <use x="63.623047" xlink:href="#DejaVuSans-46"/>
       <use x="95.410156" xlink:href="#DejaVuSans-48"/>
       <use x="159.033203" xlink:href="#DejaVuSans-49"/>
      </g>
     </g>
    </g>
    <g id="xtick_3">
     <g id="line2d_3">
      <g>
       <use style="stroke:#000000;stroke-width:0.8;" x="318.414489" xlink:href="#m2deac09374" y="288.234375"/>
      </g>
     </g>
     <g id="text_3">
      <!-- 0.1 -->
      <g transform="translate(294.559801 318.029687)scale(0.3 -0.3)">
       <use xlink:href="#DejaVuSans-48"/>
       <use x="63.623047" xlink:href="#DejaVuSans-46"/>
       <use x="95.410156" xlink:href="#DejaVuSans-49"/>
      </g>
     </g>
    </g>
    <g id="xtick_4">
     <g id="line2d_4">
      <g>
       <use style="stroke:#000000;stroke-width:0.8;" x="412.353883" xlink:href="#m2deac09374" y="288.234375"/>
      </g>
     </g>
     <g id="text_4">
      <!-- 1 -->
      <g transform="translate(402.810133 318.029687)scale(0.3 -0.3)">
       <use xlink:href="#DejaVuSans-49"/>
      </g>
     </g>
    </g>
    <g id="xtick_5">
     <g id="line2d_5">
      <g>
       <use style="stroke:#000000;stroke-width:0.8;" x="506.293277" xlink:href="#m2deac09374" y="288.234375"/>
      </g>
     </g>
     <g id="text_5">
      <!-- 10 -->
      <g transform="translate(487.205777 318.029687)scale(0.3 -0.3)">
       <use xlink:href="#DejaVuSans-49"/>
       <use x="63.623047" xlink:href="#DejaVuSans-48"/>
      </g>
     </g>
    </g>
    <g id="xtick_6">
     <g id="line2d_6">
      <g>
       <use style="stroke:#000000;stroke-width:0.8;" x="600.23267" xlink:href="#m2deac09374" y="288.234375"/>
      </g>
     </g>
     <g id="text_6">
      <!-- 100 -->
      <g transform="translate(571.60142 318.029687)scale(0.3 -0.3)">
       <use xlink:href="#DejaVuSans-49"/>
       <use x="63.623047" xlink:href="#DejaVuSans-48"/>
       <use x="127.246094" xlink:href="#DejaVuSans-48"/>
      </g>
     </g>
    </g>
   </g>
   <g id="matplotlib.axis_2">
    <g id="ytick_1">
     <g id="line2d_7">
      <defs>
       <path d="M 0 0 
L -3.5 0 
" id="mcdf0c5db0d" style="stroke:#000000;stroke-width:0.8;"/>
      </defs>
      <g>
       <use style="stroke:#000000;stroke-width:0.8;" x="95.778125" xlink:href="#mcdf0c5db0d" y="288.234375"/>
      </g>
     </g>
     <g id="text_7">
      <!-- 0 -->
      <g transform="translate(69.690625 299.632031)scale(0.3 -0.3)">
       <use xlink:href="#DejaVuSans-48"/>
      </g>
     </g>
    </g>
    <g id="ytick_2">
     <g id="line2d_8">
      <g>
       <use style="stroke:#000000;stroke-width:0.8;" x="95.778125" xlink:href="#mcdf0c5db0d" y="245.377232"/>
      </g>
     </g>
     <g id="text_8">
      <!-- 1 -->
      <g transform="translate(69.690625 256.774888)scale(0.3 -0.3)">
       <use xlink:href="#DejaVuSans-49"/>
      </g>
     </g>
    </g>
    <g id="ytick_3">
     <g id="line2d_9">
      <g>
       <use style="stroke:#000000;stroke-width:0.8;" x="95.778125" xlink:href="#mcdf0c5db0d" y="202.520089"/>
      </g>
     </g>
     <g id="text_9">
      <!-- 2 -->
      <defs>
       <path d="M 19.1875 8.296875 
L 53.609375 8.296875 
L 53.609375 0 
L 7.328125 0 
L 7.328125 8.296875 
Q 12.9375 14.109375 22.625 23.890625 
Q 32.328125 33.6875 34.8125 36.53125 
Q 39.546875 41.84375 41.421875 45.53125 
Q 43.3125 49.21875 43.3125 52.78125 
Q 43.3125 58.59375 39.234375 62.25 
Q 35.15625 65.921875 28.609375 65.921875 
Q 23.96875 65.921875 18.8125 64.3125 
Q 13.671875 62.703125 7.8125 59.421875 
L 7.8125 69.390625 
Q 13.765625 71.78125 18.9375 73 
Q 24.125 74.21875 28.421875 74.21875 
Q 39.75 74.21875 46.484375 68.546875 
Q 53.21875 62.890625 53.21875 53.421875 
Q 53.21875 48.921875 51.53125 44.890625 
Q 49.859375 40.875 45.40625 35.40625 
Q 44.1875 33.984375 37.640625 27.21875 
Q 31.109375 20.453125 19.1875 8.296875 
z
" id="DejaVuSans-50"/>
      </defs>
      <g transform="translate(69.690625 213.917746)scale(0.3 -0.3)">
       <use xlink:href="#DejaVuSans-50"/>
      </g>
     </g>
    </g>
    <g id="ytick_4">
     <g id="line2d_10">
      <g>
       <use style="stroke:#000000;stroke-width:0.8;" x="95.778125" xlink:href="#mcdf0c5db0d" y="159.662946"/>
      </g>
     </g>
     <g id="text_10">
      <!-- 3 -->
      <defs>
       <path d="M 40.578125 39.3125 
Q 47.65625 37.796875 51.625 33 
Q 55.609375 28.21875 55.609375 21.1875 
Q 55.609375 10.40625 48.1875 4.484375 
Q 40.765625 -1.421875 27.09375 -1.421875 
Q 22.515625 -1.421875 17.65625 -0.515625 
Q 12.796875 0.390625 7.625 2.203125 
L 7.625 11.71875 
Q 11.71875 9.328125 16.59375 8.109375 
Q 21.484375 6.890625 26.8125 6.890625 
Q 36.078125 6.890625 40.9375 10.546875 
Q 45.796875 14.203125 45.796875 21.1875 
Q 45.796875 27.640625 41.28125 31.265625 
Q 36.765625 34.90625 28.71875 34.90625 
L 20.21875 34.90625 
L 20.21875 43.015625 
L 29.109375 43.015625 
Q 36.375 43.015625 40.234375 45.921875 
Q 44.09375 48.828125 44.09375 54.296875 
Q 44.09375 59.90625 40.109375 62.90625 
Q 36.140625 65.921875 28.71875 65.921875 
Q 24.65625 65.921875 20.015625 65.03125 
Q 15.375 64.15625 9.8125 62.3125 
L 9.8125 71.09375 
Q 15.4375 72.65625 20.34375 73.4375 
Q 25.25 74.21875 29.59375 74.21875 
Q 40.828125 74.21875 47.359375 69.109375 
Q 53.90625 64.015625 53.90625 55.328125 
Q 53.90625 49.265625 50.4375 45.09375 
Q 46.96875 40.921875 40.578125 39.3125 
z
" id="DejaVuSans-51"/>
      </defs>
      <g transform="translate(69.690625 171.060603)scale(0.3 -0.3)">
       <use xlink:href="#DejaVuSans-51"/>
      </g>
     </g>
    </g>
    <g id="ytick_5">
     <g id="line2d_11">
      <g>
       <use style="stroke:#000000;stroke-width:0.8;" x="95.778125" xlink:href="#mcdf0c5db0d" y="116.805804"/>
      </g>
     </g>
     <g id="text_11">
      <!-- 4 -->
      <defs>
       <path d="M 37.796875 64.3125 
L 12.890625 25.390625 
L 37.796875 25.390625 
z
M 35.203125 72.90625 
L 47.609375 72.90625 
L 47.609375 25.390625 
L 58.015625 25.390625 
L 58.015625 17.1875 
L 47.609375 17.1875 
L 47.609375 0 
L 37.796875 0 
L 37.796875 17.1875 
L 4.890625 17.1875 
L 4.890625 26.703125 
z
" id="DejaVuSans-52"/>
      </defs>
      <g transform="translate(69.690625 128.20346)scale(0.3 -0.3)">
       <use xlink:href="#DejaVuSans-52"/>
      </g>
     </g>
    </g>
    <g id="ytick_6">
     <g id="line2d_12">
      <g>
       <use style="stroke:#000000;stroke-width:0.8;" x="95.778125" xlink:href="#mcdf0c5db0d" y="73.948661"/>
      </g>
     </g>
     <g id="text_12">
      <!-- 5 -->
      <defs>
       <path d="M 10.796875 72.90625 
L 49.515625 72.90625 
L 49.515625 64.59375 
L 19.828125 64.59375 
L 19.828125 46.734375 
Q 21.96875 47.46875 24.109375 47.828125 
Q 26.265625 48.1875 28.421875 48.1875 
Q 40.625 48.1875 47.75 41.5 
Q 54.890625 34.8125 54.890625 23.390625 
Q 54.890625 11.625 47.5625 5.09375 
Q 40.234375 -1.421875 26.90625 -1.421875 
Q 22.3125 -1.421875 17.546875 -0.640625 
Q 12.796875 0.140625 7.71875 1.703125 
L 7.71875 11.625 
Q 12.109375 9.234375 16.796875 8.0625 
Q 21.484375 6.890625 26.703125 6.890625 
Q 35.15625 6.890625 40.078125 11.328125 
Q 45.015625 15.765625 45.015625 23.390625 
Q 45.015625 31 40.078125 35.4375 
Q 35.15625 39.890625 26.703125 39.890625 
Q 22.75 39.890625 18.8125 39.015625 
Q 14.890625 38.140625 10.796875 36.28125 
z
" id="DejaVuSans-53"/>
      </defs>
      <g transform="translate(69.690625 85.346317)scale(0.3 -0.3)">
       <use xlink:href="#DejaVuSans-53"/>
      </g>
     </g>
    </g>
    <g id="text_13">
     <!-- yaxis_title -->
     <defs>
      <path d="M 32.171875 -5.078125 
Q 28.375 -14.84375 24.75 -17.8125 
Q 21.140625 -20.796875 15.09375 -20.796875 
L 7.90625 -20.796875 
L 7.90625 -13.28125 
L 13.1875 -13.28125 
Q 16.890625 -13.28125 18.9375 -11.515625 
Q 21 -9.765625 23.484375 -3.21875 
L 25.09375 0.875 
L 2.984375 54.6875 
L 12.5 54.6875 
L 29.59375 11.921875 
L 46.6875 54.6875 
L 56.203125 54.6875 
z
" id="DejaVuSans-121"/>
      <path d="M 34.28125 27.484375 
Q 23.390625 27.484375 19.1875 25 
Q 14.984375 22.515625 14.984375 16.5 
Q 14.984375 11.71875 18.140625 8.90625 
Q 21.296875 6.109375 26.703125 6.109375 
Q 34.1875 6.109375 38.703125 11.40625 
Q 43.21875 16.703125 43.21875 25.484375 
L 43.21875 27.484375 
z
M 52.203125 31.203125 
L 52.203125 0 
L 43.21875 0 
L 43.21875 8.296875 
Q 40.140625 3.328125 35.546875 0.953125 
Q 30.953125 -1.421875 24.3125 -1.421875 
Q 15.921875 -1.421875 10.953125 3.296875 
Q 6 8.015625 6 15.921875 
Q 6 25.140625 12.171875 29.828125 
Q 18.359375 34.515625 30.609375 34.515625 
L 43.21875 34.515625 
L 43.21875 35.40625 
Q 43.21875 41.609375 39.140625 45 
Q 35.0625 48.390625 27.6875 48.390625 
Q 23 48.390625 18.546875 47.265625 
Q 14.109375 46.140625 10.015625 43.890625 
L 10.015625 52.203125 
Q 14.9375 54.109375 19.578125 55.046875 
Q 24.21875 56 28.609375 56 
Q 40.484375 56 46.34375 49.84375 
Q 52.203125 43.703125 52.203125 31.203125 
z
" id="DejaVuSans-97"/>
      <path d="M 54.890625 54.6875 
L 35.109375 28.078125 
L 55.90625 0 
L 45.3125 0 
L 29.390625 21.484375 
L 13.484375 0 
L 2.875 0 
L 24.125 28.609375 
L 4.6875 54.6875 
L 15.28125 54.6875 
L 29.78125 35.203125 
L 44.28125 54.6875 
z
" id="DejaVuSans-120"/>
      <path d="M 9.421875 54.6875 
L 18.40625 54.6875 
L 18.40625 0 
L 9.421875 0 
z
M 9.421875 75.984375 
L 18.40625 75.984375 
L 18.40625 64.59375 
L 9.421875 64.59375 
z
" id="DejaVuSans-105"/>
      <path d="M 44.28125 53.078125 
L 44.28125 44.578125 
Q 40.484375 46.53125 36.375 47.5 
Q 32.28125 48.484375 27.875 48.484375 
Q 21.1875 48.484375 17.84375 46.4375 
Q 14.5 44.390625 14.5 40.28125 
Q 14.5 37.15625 16.890625 35.375 
Q 19.28125 33.59375 26.515625 31.984375 
L 29.59375 31.296875 
Q 39.15625 29.25 43.1875 25.515625 
Q 47.21875 21.78125 47.21875 15.09375 
Q 47.21875 7.46875 41.1875 3.015625 
Q 35.15625 -1.421875 24.609375 -1.421875 
Q 20.21875 -1.421875 15.453125 -0.5625 
Q 10.6875 0.296875 5.421875 2 
L 5.421875 11.28125 
Q 10.40625 8.6875 15.234375 7.390625 
Q 20.0625 6.109375 24.8125 6.109375 
Q 31.15625 6.109375 34.5625 8.28125 
Q 37.984375 10.453125 37.984375 14.40625 
Q 37.984375 18.0625 35.515625 20.015625 
Q 33.0625 21.96875 24.703125 23.78125 
L 21.578125 24.515625 
Q 13.234375 26.265625 9.515625 29.90625 
Q 5.8125 33.546875 5.8125 39.890625 
Q 5.8125 47.609375 11.28125 51.796875 
Q 16.75 56 26.8125 56 
Q 31.78125 56 36.171875 55.265625 
Q 40.578125 54.546875 44.28125 53.078125 
z
" id="DejaVuSans-115"/>
      <path d="M 50.984375 -16.609375 
L 50.984375 -23.578125 
L -0.984375 -23.578125 
L -0.984375 -16.609375 
z
" id="DejaVuSans-95"/>
      <path d="M 18.3125 70.21875 
L 18.3125 54.6875 
L 36.8125 54.6875 
L 36.8125 47.703125 
L 18.3125 47.703125 
L 18.3125 18.015625 
Q 18.3125 11.328125 20.140625 9.421875 
Q 21.96875 7.515625 27.59375 7.515625 
L 36.8125 7.515625 
L 36.8125 0 
L 27.59375 0 
Q 17.1875 0 13.234375 3.875 
Q 9.28125 7.765625 9.28125 18.015625 
L 9.28125 47.703125 
L 2.6875 47.703125 
L 2.6875 54.6875 
L 9.28125 54.6875 
L 9.28125 70.21875 
z
" id="DejaVuSans-116"/>
      <path d="M 9.421875 75.984375 
L 18.40625 75.984375 
L 18.40625 0 
L 9.421875 0 
z
" id="DejaVuSans-108"/>
      <path d="M 56.203125 29.59375 
L 56.203125 25.203125 
L 14.890625 25.203125 
Q 15.484375 15.921875 20.484375 11.0625 
Q 25.484375 6.203125 34.421875 6.203125 
Q 39.59375 6.203125 44.453125 7.46875 
Q 49.3125 8.734375 54.109375 11.28125 
L 54.109375 2.78125 
Q 49.265625 0.734375 44.1875 -0.34375 
Q 39.109375 -1.421875 33.890625 -1.421875 
Q 20.796875 -1.421875 13.15625 6.1875 
Q 5.515625 13.8125 5.515625 26.8125 
Q 5.515625 40.234375 12.765625 48.109375 
Q 20.015625 56 32.328125 56 
Q 43.359375 56 49.78125 48.890625 
Q 56.203125 41.796875 56.203125 29.59375 
z
M 47.21875 32.234375 
Q 47.125 39.59375 43.09375 43.984375 
Q 39.0625 48.390625 32.421875 48.390625 
Q 24.90625 48.390625 20.390625 44.140625 
Q 15.875 39.890625 15.1875 32.171875 
z
" id="DejaVuSans-101"/>
     </defs>
     <g transform="translate(58.617188 237.989062)rotate(-90)scale(0.3 -0.3)">
      <use xlink:href="#DejaVuSans-121"/>
      <use x="59.179688" xlink:href="#DejaVuSans-97"/>
      <use x="120.458984" xlink:href="#DejaVuSans-120"/>
      <use x="179.638672" xlink:href="#DejaVuSans-105"/>
      <use x="207.421875" xlink:href="#DejaVuSans-115"/>
      <use x="259.521484" xlink:href="#DejaVuSans-95"/>
      <use x="309.521484" xlink:href="#DejaVuSans-116"/>
      <use x="348.730469" xlink:href="#DejaVuSans-105"/>
      <use x="376.513672" xlink:href="#DejaVuSans-116"/>
      <use x="415.722656" xlink:href="#DejaVuSans-108"/>
      <use x="443.505859" xlink:href="#DejaVuSans-101"/>
     </g>
    </g>
   </g>
   <g id="LineCollection_1">
    <path clip-path="url(#p53cb1c5de5)" d="M 130.535701 200.578805 
L 130.535701 200.578805 
" style="fill:none;stroke:#000000;stroke-width:1.5;"/>
    <path clip-path="url(#p53cb1c5de5)" d="M 224.475095 183.948336 
L 224.475095 183.948336 
" style="fill:none;stroke:#000000;stroke-width:1.5;"/>
    <path clip-path="url(#p53cb1c5de5)" d="M 318.414489 77.045807 
L 318.414489 77.045807 
" style="fill:none;stroke:#000000;stroke-width:1.5;"/>
    <path clip-path="url(#p53cb1c5de5)" d="M 412.353883 122.313903 
L 412.353883 122.313903 
" style="fill:none;stroke:#000000;stroke-width:1.5;"/>
    <path clip-path="url(#p53cb1c5de5)" d="M 506.293277 225.211346 
L 506.293277 225.211346 
" style="fill:none;stroke:#000000;stroke-width:1.5;"/>
    <path clip-path="url(#p53cb1c5de5)" d="M 600.23267 225.211346 
L 600.23267 225.211346 
" style="fill:none;stroke:#000000;stroke-width:1.5;"/>
   </g>
   <g id="LineCollection_2">
    <path clip-path="url(#p53cb1c5de5)" d="M 149.32358 202.520089 
L 149.32358 202.520089 
" style="fill:none;stroke:#000000;stroke-width:1.5;"/>
    <path clip-path="url(#p53cb1c5de5)" d="M 243.262973 181.091518 
L 243.262973 181.091518 
" style="fill:none;stroke:#000000;stroke-width:1.5;"/>
    <path clip-path="url(#p53cb1c5de5)" d="M 337.202367 48.234375 
L 337.202367 48.234375 
" style="fill:none;stroke:#000000;stroke-width:1.5;"/>
    <path clip-path="url(#p53cb1c5de5)" d="M 431.141761 112.520089 
L 431.141761 112.520089 
" style="fill:none;stroke:#000000;stroke-width:1.5;"/>
    <path clip-path="url(#p53cb1c5de5)" d="M 525.081155 236.805804 
L 525.081155 236.805804 
" style="fill:none;stroke:#000000;stroke-width:1.5;"/>
    <path clip-path="url(#p53cb1c5de5)" d="M 619.020549 223.948661 
L 619.020549 223.948661 
" style="fill:none;stroke:#000000;stroke-width:1.5;"/>
   </g>
   <g id="line2d_13">
    <defs>
     <path d="M 0.2 0 
L -0.2 -0 
" id="m1f225aac96" style="stroke:#000000;"/>
    </defs>
    <g clip-path="url(#p53cb1c5de5)">
     <use style="stroke:#000000;" x="130.535701" xlink:href="#m1f225aac96" y="200.578805"/>
     <use style="stroke:#000000;" x="224.475095" xlink:href="#m1f225aac96" y="183.948336"/>
     <use style="stroke:#000000;" x="318.414489" xlink:href="#m1f225aac96" y="77.045807"/>
     <use style="stroke:#000000;" x="412.353883" xlink:href="#m1f225aac96" y="122.313903"/>
     <use style="stroke:#000000;" x="506.293277" xlink:href="#m1f225aac96" y="225.211346"/>
     <use style="stroke:#000000;" x="600.23267" xlink:href="#m1f225aac96" y="225.211346"/>
    </g>
   </g>
   <g id="line2d_14">
    <g clip-path="url(#p53cb1c5de5)">
     <use style="stroke:#000000;" x="130.535701" xlink:href="#m1f225aac96" y="200.578805"/>
     <use style="stroke:#000000;" x="224.475095" xlink:href="#m1f225aac96" y="183.948336"/>
     <use style="stroke:#000000;" x="318.414489" xlink:href="#m1f225aac96" y="77.045807"/>
     <use style="stroke:#000000;" x="412.353883" xlink:href="#m1f225aac96" y="122.313903"/>
     <use style="stroke:#000000;" x="506.293277" xlink:href="#m1f225aac96" y="225.211346"/>
     <use style="stroke:#000000;" x="600.23267" xlink:href="#m1f225aac96" y="225.211346"/>
    </g>
   </g>
   <g id="line2d_15">
    <g clip-path="url(#p53cb1c5de5)">
     <use style="stroke:#000000;" x="149.32358" xlink:href="#m1f225aac96" y="202.520089"/>
     <use style="stroke:#000000;" x="243.262973" xlink:href="#m1f225aac96" y="181.091518"/>
     <use style="stroke:#000000;" x="337.202367" xlink:href="#m1f225aac96" y="48.234375"/>
     <use style="stroke:#000000;" x="431.141761" xlink:href="#m1f225aac96" y="112.520089"/>
     <use style="stroke:#000000;" x="525.081155" xlink:href="#m1f225aac96" y="236.805804"/>
     <use style="stroke:#000000;" x="619.020549" xlink:href="#m1f225aac96" y="223.948661"/>
    </g>
   </g>
   <g id="line2d_16">
    <g clip-path="url(#p53cb1c5de5)">
     <use style="stroke:#000000;" x="149.32358" xlink:href="#m1f225aac96" y="202.520089"/>
     <use style="stroke:#000000;" x="243.262973" xlink:href="#m1f225aac96" y="181.091518"/>
     <use style="stroke:#000000;" x="337.202367" xlink:href="#m1f225aac96" y="48.234375"/>
     <use style="stroke:#000000;" x="431.141761" xlink:href="#m1f225aac96" y="112.520089"/>
     <use style="stroke:#000000;" x="525.081155" xlink:href="#m1f225aac96" y="236.805804"/>
     <use style="stroke:#000000;" x="619.020549" xlink:href="#m1f225aac96" y="223.948661"/>
    </g>
   </g>
   <g id="patch_15">
    <path d="M 95.778125 288.234375 
L 95.778125 36.234375 
" style="fill:none;stroke:#000000;stroke-linecap:square;stroke-linejoin:miter;stroke-width:0.8;"/>
   </g>
   <g id="patch_16">
    <path d="M 653.778125 288.234375 
L 653.778125 36.234375 
" style="fill:none;stroke:#000000;stroke-linecap:square;stroke-linejoin:miter;stroke-width:0.8;"/>
   </g>
   <g id="patch_17">
    <path d="M 95.778125 288.234375 
L 653.778125 288.234375 
" style="fill:none;stroke:#000000;stroke-linecap:square;stroke-linejoin:miter;stroke-width:0.8;"/>
   </g>
   <g id="patch_18">
    <path d="M 95.778125 36.234375 
L 653.778125 36.234375 
" style="fill:none;stroke:#000000;stroke-linecap:square;stroke-linejoin:miter;stroke-width:0.8;"/>
   </g>
   <g id="text_14">
    <!-- ALP -->
    <defs>
     <path d="M 53.421875 13.28125 
L 24.03125 13.28125 
L 19.390625 0 
L 0.484375 0 
L 27.484375 72.90625 
L 49.90625 72.90625 
L 76.90625 0 
L 58.015625 0 
z
M 28.71875 26.8125 
L 48.6875 26.8125 
L 38.71875 55.8125 
z
" id="DejaVuSans-Bold-65"/>
     <path d="M 9.1875 72.90625 
L 27.984375 72.90625 
L 27.984375 14.203125 
L 60.984375 14.203125 
L 60.984375 0 
L 9.1875 0 
z
" id="DejaVuSans-Bold-76"/>
     <path d="M 9.1875 72.90625 
L 40.375 72.90625 
Q 54.296875 72.90625 61.734375 66.71875 
Q 69.1875 60.546875 69.1875 49.125 
Q 69.1875 37.640625 61.734375 31.46875 
Q 54.296875 25.296875 40.375 25.296875 
L 27.984375 25.296875 
L 27.984375 0 
L 9.1875 0 
z
M 27.984375 59.28125 
L 27.984375 38.921875 
L 38.375 38.921875 
Q 43.84375 38.921875 46.828125 41.578125 
Q 49.8125 44.234375 49.8125 49.125 
Q 49.8125 54 46.828125 56.640625 
Q 43.84375 59.28125 38.375 59.28125 
z
" id="DejaVuSans-Bold-80"/>
    </defs>
    <g transform="translate(342.617188 29.995312)scale(0.3 -0.3)">
     <use xlink:href="#DejaVuSans-Bold-65"/>
     <use x="77.392578" xlink:href="#DejaVuSans-Bold-76"/>
     <use x="141.113281" xlink:href="#DejaVuSans-Bold-80"/>
    </g>
   </g>
   <g id="legend_1">
    <g id="patch_19">
     <path d="M 993.176563 193.303125 
L 1145.778125 193.303125 
Q 1151.778125 193.303125 1151.778125 187.303125 
L 1151.778125 102.234375 
Q 1151.778125 96.234375 1145.778125 96.234375 
L 993.176563 96.234375 
Q 987.176563 96.234375 987.176563 102.234375 
L 987.176563 187.303125 
Q 987.176563 193.303125 993.176563 193.303125 
z
" style="fill:#ffffff;opacity:0.8;stroke:#cccccc;stroke-linejoin:miter;"/>
    </g>
    <g id="patch_20">
     <path d="M 999.176563 131.029687 
L 1059.176563 131.029687 
L 1059.176563 110.029687 
L 999.176563 110.029687 
z
" style="fill:#00ff00;stroke:#000000;stroke-linejoin:miter;"/>
    </g>
    <g id="text_15">
     <!-- Sim -->
     <defs>
      <path d="M 53.515625 70.515625 
L 53.515625 60.890625 
Q 47.90625 63.578125 42.921875 64.890625 
Q 37.9375 66.21875 33.296875 66.21875 
Q 25.25 66.21875 20.875 63.09375 
Q 16.5 59.96875 16.5 54.203125 
Q 16.5 49.359375 19.40625 46.890625 
Q 22.3125 44.4375 30.421875 42.921875 
L 36.375 41.703125 
Q 47.40625 39.59375 52.65625 34.296875 
Q 57.90625 29 57.90625 20.125 
Q 57.90625 9.515625 50.796875 4.046875 
Q 43.703125 -1.421875 29.984375 -1.421875 
Q 24.8125 -1.421875 18.96875 -0.25 
Q 13.140625 0.921875 6.890625 3.21875 
L 6.890625 13.375 
Q 12.890625 10.015625 18.65625 8.296875 
Q 24.421875 6.59375 29.984375 6.59375 
Q 38.421875 6.59375 43.015625 9.90625 
Q 47.609375 13.234375 47.609375 19.390625 
Q 47.609375 24.75 44.3125 27.78125 
Q 41.015625 30.8125 33.5 32.328125 
L 27.484375 33.5 
Q 16.453125 35.6875 11.515625 40.375 
Q 6.59375 45.0625 6.59375 53.421875 
Q 6.59375 63.09375 13.40625 68.65625 
Q 20.21875 74.21875 32.171875 74.21875 
Q 37.3125 74.21875 42.625 73.28125 
Q 47.953125 72.359375 53.515625 70.515625 
z
" id="DejaVuSans-83"/>
      <path d="M 52 44.1875 
Q 55.375 50.25 60.0625 53.125 
Q 64.75 56 71.09375 56 
Q 79.640625 56 84.28125 50.015625 
Q 88.921875 44.046875 88.921875 33.015625 
L 88.921875 0 
L 79.890625 0 
L 79.890625 32.71875 
Q 79.890625 40.578125 77.09375 44.375 
Q 74.3125 48.1875 68.609375 48.1875 
Q 61.625 48.1875 57.5625 43.546875 
Q 53.515625 38.921875 53.515625 30.90625 
L 53.515625 0 
L 44.484375 0 
L 44.484375 32.71875 
Q 44.484375 40.625 41.703125 44.40625 
Q 38.921875 48.1875 33.109375 48.1875 
Q 26.21875 48.1875 22.15625 43.53125 
Q 18.109375 38.875 18.109375 30.90625 
L 18.109375 0 
L 9.078125 0 
L 9.078125 54.6875 
L 18.109375 54.6875 
L 18.109375 46.1875 
Q 21.1875 51.21875 25.484375 53.609375 
Q 29.78125 56 35.6875 56 
Q 41.65625 56 45.828125 52.96875 
Q 50 49.953125 52 44.1875 
z
" id="DejaVuSans-109"/>
     </defs>
     <g transform="translate(1083.176563 131.029687)scale(0.3 -0.3)">
      <use xlink:href="#DejaVuSans-83"/>
      <use x="63.476562" xlink:href="#DejaVuSans-105"/>
      <use x="91.259766" xlink:href="#DejaVuSans-109"/>
     </g>
    </g>
    <g id="patch_21">
     <path d="M 999.176563 175.064062 
L 1059.176563 175.064062 
L 1059.176563 154.064062 
L 999.176563 154.064062 
z
" style="fill:#ee82ee;stroke:#000000;stroke-linejoin:miter;"/>
    </g>
    <g id="text_16">
     <!-- Exp -->
     <defs>
      <path d="M 9.8125 72.90625 
L 55.90625 72.90625 
L 55.90625 64.59375 
L 19.671875 64.59375 
L 19.671875 43.015625 
L 54.390625 43.015625 
L 54.390625 34.71875 
L 19.671875 34.71875 
L 19.671875 8.296875 
L 56.78125 8.296875 
L 56.78125 0 
L 9.8125 0 
z
" id="DejaVuSans-69"/>
      <path d="M 18.109375 8.203125 
L 18.109375 -20.796875 
L 9.078125 -20.796875 
L 9.078125 54.6875 
L 18.109375 54.6875 
L 18.109375 46.390625 
Q 20.953125 51.265625 25.265625 53.625 
Q 29.59375 56 35.59375 56 
Q 45.5625 56 51.78125 48.09375 
Q 58.015625 40.1875 58.015625 27.296875 
Q 58.015625 14.40625 51.78125 6.484375 
Q 45.5625 -1.421875 35.59375 -1.421875 
Q 29.59375 -1.421875 25.265625 0.953125 
Q 20.953125 3.328125 18.109375 8.203125 
z
M 48.6875 27.296875 
Q 48.6875 37.203125 44.609375 42.84375 
Q 40.53125 48.484375 33.40625 48.484375 
Q 26.265625 48.484375 22.1875 42.84375 
Q 18.109375 37.203125 18.109375 27.296875 
Q 18.109375 17.390625 22.1875 11.75 
Q 26.265625 6.109375 33.40625 6.109375 
Q 40.53125 6.109375 44.609375 11.75 
Q 48.6875 17.390625 48.6875 27.296875 
z
" id="DejaVuSans-112"/>
     </defs>
     <g transform="translate(1083.176563 175.064062)scale(0.3 -0.3)">
      <use xlink:href="#DejaVuSans-69"/>
      <use x="63.183594" xlink:href="#DejaVuSans-120"/>
      <use x="122.363281" xlink:href="#DejaVuSans-112"/>
     </g>
    </g>
   </g>
  </g>
  <g id="axes_2">
   <g id="patch_22">
    <path d="M 95.778125 590.634375 
L 653.778125 590.634375 
L 653.778125 338.634375 
L 95.778125 338.634375 
z
" style="fill:#ffffff;"/>
   </g>
   <g id="patch_23">
    <path clip-path="url(#pdfafa88017)" d="M 121.141761 590.634375 
L 139.92964 590.634375 
L 139.92964 529.030531 
L 121.141761 529.030531 
z
" style="fill:#00ff00;stroke:#000000;stroke-linejoin:miter;"/>
   </g>
   <g id="patch_24">
    <path clip-path="url(#pdfafa88017)" d="M 215.081155 590.634375 
L 233.869034 590.634375 
L 233.869034 504.679852 
L 215.081155 504.679852 
z
" style="fill:#00ff00;stroke:#000000;stroke-linejoin:miter;"/>
   </g>
   <g id="patch_25">
    <path clip-path="url(#pdfafa88017)" d="M 309.020549 590.634375 
L 327.808428 590.634375 
L 327.808428 353.551775 
L 309.020549 353.551775 
z
" style="fill:#00ff00;stroke:#000000;stroke-linejoin:miter;"/>
   </g>
   <g id="patch_26">
    <path clip-path="url(#pdfafa88017)" d="M 402.959943 590.634375 
L 421.747822 590.634375 
L 421.747822 404.442049 
L 402.959943 404.442049 
z
" style="fill:#00ff00;stroke:#000000;stroke-linejoin:miter;"/>
   </g>
   <g id="patch_27">
    <path clip-path="url(#pdfafa88017)" d="M 496.899337 590.634375 
L 515.687216 590.634375 
L 515.687216 561.226484 
L 496.899337 561.226484 
z
" style="fill:#00ff00;stroke:#000000;stroke-linejoin:miter;"/>
   </g>
   <g id="patch_28">
    <path clip-path="url(#pdfafa88017)" d="M 590.838731 590.634375 
L 609.62661 590.634375 
L 609.62661 561.226484 
L 590.838731 561.226484 
z
" style="fill:#00ff00;stroke:#000000;stroke-linejoin:miter;"/>
   </g>
   <g id="patch_29">
    <path clip-path="url(#pdfafa88017)" d="M 139.92964 590.634375 
L 158.717519 590.634375 
L 158.717519 530.634375 
L 139.92964 530.634375 
z
" style="fill:#ee82ee;stroke:#000000;stroke-linejoin:miter;"/>
   </g>
   <g id="patch_30">
    <path clip-path="url(#pdfafa88017)" d="M 233.869034 590.634375 
L 252.656913 590.634375 
L 252.656913 488.634375 
L 233.869034 488.634375 
z
" style="fill:#ee82ee;stroke:#000000;stroke-linejoin:miter;"/>
   </g>
   <g id="patch_31">
    <path clip-path="url(#pdfafa88017)" d="M 327.808428 590.634375 
L 346.596307 590.634375 
L 346.596307 350.634375 
L 327.808428 350.634375 
z
" style="fill:#ee82ee;stroke:#000000;stroke-linejoin:miter;"/>
   </g>
   <g id="patch_32">
    <path clip-path="url(#pdfafa88017)" d="M 421.747822 590.634375 
L 440.535701 590.634375 
L 440.535701 410.634375 
L 421.747822 410.634375 
z
" style="fill:#ee82ee;stroke:#000000;stroke-linejoin:miter;"/>
   </g>
   <g id="patch_33">
    <path clip-path="url(#pdfafa88017)" d="M 515.687216 590.634375 
L 534.475095 590.634375 
L 534.475095 560.634375 
L 515.687216 560.634375 
z
" style="fill:#ee82ee;stroke:#000000;stroke-linejoin:miter;"/>
   </g>
   <g id="patch_34">
    <path clip-path="url(#pdfafa88017)" d="M 609.62661 590.634375 
L 628.414489 590.634375 
L 628.414489 566.634375 
L 609.62661 566.634375 
z
" style="fill:#ee82ee;stroke:#000000;stroke-linejoin:miter;"/>
   </g>
   <g id="matplotlib.axis_3">
    <g id="xtick_7">
     <g id="line2d_17">
      <g>
       <use style="stroke:#000000;stroke-width:0.8;" x="130.535701" xlink:href="#m2deac09374" y="590.634375"/>
      </g>
     </g>
     <g id="text_17">
      <!-- 0 -->
      <g transform="translate(120.991951 620.429688)scale(0.3 -0.3)">
       <use xlink:href="#DejaVuSans-48"/>
      </g>
     </g>
    </g>
    <g id="xtick_8">
     <g id="line2d_18">
      <g>
       <use style="stroke:#000000;stroke-width:0.8;" x="224.475095" xlink:href="#m2deac09374" y="590.634375"/>
      </g>
     </g>
     <g id="text_18">
      <!-- 0.01 -->
      <g transform="translate(191.076657 620.429688)scale(0.3 -0.3)">
       <use xlink:href="#DejaVuSans-48"/>
       <use x="63.623047" xlink:href="#DejaVuSans-46"/>
       <use x="95.410156" xlink:href="#DejaVuSans-48"/>
       <use x="159.033203" xlink:href="#DejaVuSans-49"/>
      </g>
     </g>
    </g>
    <g id="xtick_9">
     <g id="line2d_19">
      <g>
       <use style="stroke:#000000;stroke-width:0.8;" x="318.414489" xlink:href="#m2deac09374" y="590.634375"/>
      </g>
     </g>
     <g id="text_19">
      <!-- 0.1 -->
      <g transform="translate(294.559801 620.429688)scale(0.3 -0.3)">
       <use xlink:href="#DejaVuSans-48"/>
       <use x="63.623047" xlink:href="#DejaVuSans-46"/>
       <use x="95.410156" xlink:href="#DejaVuSans-49"/>
      </g>
     </g>
    </g>
    <g id="xtick_10">
     <g id="line2d_20">
      <g>
       <use style="stroke:#000000;stroke-width:0.8;" x="412.353883" xlink:href="#m2deac09374" y="590.634375"/>
      </g>
     </g>
     <g id="text_20">
      <!-- 1 -->
      <g transform="translate(402.810133 620.429688)scale(0.3 -0.3)">
       <use xlink:href="#DejaVuSans-49"/>
      </g>
     </g>
    </g>
    <g id="xtick_11">
     <g id="line2d_21">
      <g>
       <use style="stroke:#000000;stroke-width:0.8;" x="506.293277" xlink:href="#m2deac09374" y="590.634375"/>
      </g>
     </g>
     <g id="text_21">
      <!-- 10 -->
      <g transform="translate(487.205777 620.429688)scale(0.3 -0.3)">
       <use xlink:href="#DejaVuSans-49"/>
       <use x="63.623047" xlink:href="#DejaVuSans-48"/>
      </g>
     </g>
    </g>
    <g id="xtick_12">
     <g id="line2d_22">
      <g>
       <use style="stroke:#000000;stroke-width:0.8;" x="600.23267" xlink:href="#m2deac09374" y="590.634375"/>
      </g>
     </g>
     <g id="text_22">
      <!-- 100 -->
      <g transform="translate(571.60142 620.429688)scale(0.3 -0.3)">
       <use xlink:href="#DejaVuSans-49"/>
       <use x="63.623047" xlink:href="#DejaVuSans-48"/>
       <use x="127.246094" xlink:href="#DejaVuSans-48"/>
      </g>
     </g>
    </g>
   </g>
   <g id="matplotlib.axis_4">
    <g id="ytick_7">
     <g id="line2d_23">
      <g>
       <use style="stroke:#000000;stroke-width:0.8;" x="95.778125" xlink:href="#mcdf0c5db0d" y="590.634375"/>
      </g>
     </g>
     <g id="text_23">
      <!-- 0.0 -->
      <g transform="translate(41.06875 602.032031)scale(0.3 -0.3)">
       <use xlink:href="#DejaVuSans-48"/>
       <use x="63.623047" xlink:href="#DejaVuSans-46"/>
       <use x="95.410156" xlink:href="#DejaVuSans-48"/>
      </g>
     </g>
    </g>
    <g id="ytick_8">
     <g id="line2d_24">
      <g>
       <use style="stroke:#000000;stroke-width:0.8;" x="95.778125" xlink:href="#mcdf0c5db0d" y="560.634375"/>
      </g>
     </g>
     <g id="text_24">
      <!-- 0.5 -->
      <g transform="translate(41.06875 572.032031)scale(0.3 -0.3)">
       <use xlink:href="#DejaVuSans-48"/>
       <use x="63.623047" xlink:href="#DejaVuSans-46"/>
       <use x="95.410156" xlink:href="#DejaVuSans-53"/>
      </g>
     </g>
    </g>
    <g id="ytick_9">
     <g id="line2d_25">
      <g>
       <use style="stroke:#000000;stroke-width:0.8;" x="95.778125" xlink:href="#mcdf0c5db0d" y="530.634375"/>
      </g>
     </g>
     <g id="text_25">
      <!-- 1.0 -->
      <g transform="translate(41.06875 542.032031)scale(0.3 -0.3)">
       <use xlink:href="#DejaVuSans-49"/>
       <use x="63.623047" xlink:href="#DejaVuSans-46"/>
       <use x="95.410156" xlink:href="#DejaVuSans-48"/>
      </g>
     </g>
    </g>
    <g id="ytick_10">
     <g id="line2d_26">
      <g>
       <use style="stroke:#000000;stroke-width:0.8;" x="95.778125" xlink:href="#mcdf0c5db0d" y="500.634375"/>
      </g>
     </g>
     <g id="text_26">
      <!-- 1.5 -->
      <g transform="translate(41.06875 512.032031)scale(0.3 -0.3)">
       <use xlink:href="#DejaVuSans-49"/>
       <use x="63.623047" xlink:href="#DejaVuSans-46"/>
       <use x="95.410156" xlink:href="#DejaVuSans-53"/>
      </g>
     </g>
    </g>
    <g id="ytick_11">
     <g id="line2d_27">
      <g>
       <use style="stroke:#000000;stroke-width:0.8;" x="95.778125" xlink:href="#mcdf0c5db0d" y="470.634375"/>
      </g>
     </g>
     <g id="text_27">
      <!-- 2.0 -->
      <g transform="translate(41.06875 482.032031)scale(0.3 -0.3)">
       <use xlink:href="#DejaVuSans-50"/>
       <use x="63.623047" xlink:href="#DejaVuSans-46"/>
       <use x="95.410156" xlink:href="#DejaVuSans-48"/>
      </g>
     </g>
    </g>
    <g id="ytick_12">
     <g id="line2d_28">
      <g>
       <use style="stroke:#000000;stroke-width:0.8;" x="95.778125" xlink:href="#mcdf0c5db0d" y="440.634375"/>
      </g>
     </g>
     <g id="text_28">
      <!-- 2.5 -->
      <g transform="translate(41.06875 452.032031)scale(0.3 -0.3)">
       <use xlink:href="#DejaVuSans-50"/>
       <use x="63.623047" xlink:href="#DejaVuSans-46"/>
       <use x="95.410156" xlink:href="#DejaVuSans-53"/>
      </g>
     </g>
    </g>
    <g id="ytick_13">
     <g id="line2d_29">
      <g>
       <use style="stroke:#000000;stroke-width:0.8;" x="95.778125" xlink:href="#mcdf0c5db0d" y="410.634375"/>
      </g>
     </g>
     <g id="text_29">
      <!-- 3.0 -->
      <g transform="translate(41.06875 422.032031)scale(0.3 -0.3)">
       <use xlink:href="#DejaVuSans-51"/>
       <use x="63.623047" xlink:href="#DejaVuSans-46"/>
       <use x="95.410156" xlink:href="#DejaVuSans-48"/>
      </g>
     </g>
    </g>
    <g id="ytick_14">
     <g id="line2d_30">
      <g>
       <use style="stroke:#000000;stroke-width:0.8;" x="95.778125" xlink:href="#mcdf0c5db0d" y="380.634375"/>
      </g>
     </g>
     <g id="text_30">
      <!-- 3.5 -->
      <g transform="translate(41.06875 392.032031)scale(0.3 -0.3)">
       <use xlink:href="#DejaVuSans-51"/>
       <use x="63.623047" xlink:href="#DejaVuSans-46"/>
       <use x="95.410156" xlink:href="#DejaVuSans-53"/>
      </g>
     </g>
    </g>
    <g id="ytick_15">
     <g id="line2d_31">
      <g>
       <use style="stroke:#000000;stroke-width:0.8;" x="95.778125" xlink:href="#mcdf0c5db0d" y="350.634375"/>
      </g>
     </g>
     <g id="text_31">
      <!-- 4.0 -->
      <g transform="translate(41.06875 362.032031)scale(0.3 -0.3)">
       <use xlink:href="#DejaVuSans-52"/>
       <use x="63.623047" xlink:href="#DejaVuSans-46"/>
       <use x="95.410156" xlink:href="#DejaVuSans-48"/>
      </g>
     </g>
    </g>
    <g id="text_32">
     <!-- yaxis_title -->
     <g transform="translate(29.995312 540.389063)rotate(-90)scale(0.3 -0.3)">
      <use xlink:href="#DejaVuSans-121"/>
      <use x="59.179688" xlink:href="#DejaVuSans-97"/>
      <use x="120.458984" xlink:href="#DejaVuSans-120"/>
      <use x="179.638672" xlink:href="#DejaVuSans-105"/>
      <use x="207.421875" xlink:href="#DejaVuSans-115"/>
      <use x="259.521484" xlink:href="#DejaVuSans-95"/>
      <use x="309.521484" xlink:href="#DejaVuSans-116"/>
      <use x="348.730469" xlink:href="#DejaVuSans-105"/>
      <use x="376.513672" xlink:href="#DejaVuSans-116"/>
      <use x="415.722656" xlink:href="#DejaVuSans-108"/>
      <use x="443.505859" xlink:href="#DejaVuSans-101"/>
     </g>
    </g>
   </g>
   <g id="LineCollection_3">
    <path clip-path="url(#pdfafa88017)" d="M 130.535701 529.030531 
L 130.535701 529.030531 
" style="fill:none;stroke:#000000;stroke-width:1.5;"/>
    <path clip-path="url(#pdfafa88017)" d="M 224.475095 504.679852 
L 224.475095 504.679852 
" style="fill:none;stroke:#000000;stroke-width:1.5;"/>
    <path clip-path="url(#pdfafa88017)" d="M 318.414489 353.551775 
L 318.414489 353.551775 
" style="fill:none;stroke:#000000;stroke-width:1.5;"/>
    <path clip-path="url(#pdfafa88017)" d="M 412.353883 404.442049 
L 412.353883 404.442049 
" style="fill:none;stroke:#000000;stroke-width:1.5;"/>
    <path clip-path="url(#pdfafa88017)" d="M 506.293277 561.226484 
L 506.293277 561.226484 
" style="fill:none;stroke:#000000;stroke-width:1.5;"/>
    <path clip-path="url(#pdfafa88017)" d="M 600.23267 561.226484 
L 600.23267 561.226484 
" style="fill:none;stroke:#000000;stroke-width:1.5;"/>
   </g>
   <g id="LineCollection_4">
    <path clip-path="url(#pdfafa88017)" d="M 149.32358 530.634375 
L 149.32358 530.634375 
" style="fill:none;stroke:#000000;stroke-width:1.5;"/>
    <path clip-path="url(#pdfafa88017)" d="M 243.262973 488.634375 
L 243.262973 488.634375 
" style="fill:none;stroke:#000000;stroke-width:1.5;"/>
    <path clip-path="url(#pdfafa88017)" d="M 337.202367 350.634375 
L 337.202367 350.634375 
" style="fill:none;stroke:#000000;stroke-width:1.5;"/>
    <path clip-path="url(#pdfafa88017)" d="M 431.141761 410.634375 
L 431.141761 410.634375 
" style="fill:none;stroke:#000000;stroke-width:1.5;"/>
    <path clip-path="url(#pdfafa88017)" d="M 525.081155 560.634375 
L 525.081155 560.634375 
" style="fill:none;stroke:#000000;stroke-width:1.5;"/>
    <path clip-path="url(#pdfafa88017)" d="M 619.020549 566.634375 
L 619.020549 566.634375 
" style="fill:none;stroke:#000000;stroke-width:1.5;"/>
   </g>
   <g id="line2d_32">
    <g clip-path="url(#pdfafa88017)">
     <use style="stroke:#000000;" x="130.535701" xlink:href="#m1f225aac96" y="529.030531"/>
     <use style="stroke:#000000;" x="224.475095" xlink:href="#m1f225aac96" y="504.679852"/>
     <use style="stroke:#000000;" x="318.414489" xlink:href="#m1f225aac96" y="353.551775"/>
     <use style="stroke:#000000;" x="412.353883" xlink:href="#m1f225aac96" y="404.442049"/>
     <use style="stroke:#000000;" x="506.293277" xlink:href="#m1f225aac96" y="561.226484"/>
     <use style="stroke:#000000;" x="600.23267" xlink:href="#m1f225aac96" y="561.226484"/>
    </g>
   </g>
   <g id="line2d_33">
    <g clip-path="url(#pdfafa88017)">
     <use style="stroke:#000000;" x="130.535701" xlink:href="#m1f225aac96" y="529.030531"/>
     <use style="stroke:#000000;" x="224.475095" xlink:href="#m1f225aac96" y="504.679852"/>
     <use style="stroke:#000000;" x="318.414489" xlink:href="#m1f225aac96" y="353.551775"/>
     <use style="stroke:#000000;" x="412.353883" xlink:href="#m1f225aac96" y="404.442049"/>
     <use style="stroke:#000000;" x="506.293277" xlink:href="#m1f225aac96" y="561.226484"/>
     <use style="stroke:#000000;" x="600.23267" xlink:href="#m1f225aac96" y="561.226484"/>
    </g>
   </g>
   <g id="line2d_34">
    <g clip-path="url(#pdfafa88017)">
     <use style="stroke:#000000;" x="149.32358" xlink:href="#m1f225aac96" y="530.634375"/>
     <use style="stroke:#000000;" x="243.262973" xlink:href="#m1f225aac96" y="488.634375"/>
     <use style="stroke:#000000;" x="337.202367" xlink:href="#m1f225aac96" y="350.634375"/>
     <use style="stroke:#000000;" x="431.141761" xlink:href="#m1f225aac96" y="410.634375"/>
     <use style="stroke:#000000;" x="525.081155" xlink:href="#m1f225aac96" y="560.634375"/>
     <use style="stroke:#000000;" x="619.020549" xlink:href="#m1f225aac96" y="566.634375"/>
    </g>
   </g>
   <g id="line2d_35">
    <g clip-path="url(#pdfafa88017)">
     <use style="stroke:#000000;" x="149.32358" xlink:href="#m1f225aac96" y="530.634375"/>
     <use style="stroke:#000000;" x="243.262973" xlink:href="#m1f225aac96" y="488.634375"/>
     <use style="stroke:#000000;" x="337.202367" xlink:href="#m1f225aac96" y="350.634375"/>
     <use style="stroke:#000000;" x="431.141761" xlink:href="#m1f225aac96" y="410.634375"/>
     <use style="stroke:#000000;" x="525.081155" xlink:href="#m1f225aac96" y="560.634375"/>
     <use style="stroke:#000000;" x="619.020549" xlink:href="#m1f225aac96" y="566.634375"/>
    </g>
   </g>
   <g id="patch_35">
    <path d="M 95.778125 590.634375 
L 95.778125 338.634375 
" style="fill:none;stroke:#000000;stroke-linecap:square;stroke-linejoin:miter;stroke-width:0.8;"/>
   </g>
   <g id="patch_36">
    <path d="M 653.778125 590.634375 
L 653.778125 338.634375 
" style="fill:none;stroke:#000000;stroke-linecap:square;stroke-linejoin:miter;stroke-width:0.8;"/>
   </g>
   <g id="patch_37">
    <path d="M 95.778125 590.634375 
L 653.778125 590.634375 
" style="fill:none;stroke:#000000;stroke-linecap:square;stroke-linejoin:miter;stroke-width:0.8;"/>
   </g>
   <g id="patch_38">
    <path d="M 95.778125 338.634375 
L 653.778125 338.634375 
" style="fill:none;stroke:#000000;stroke-linecap:square;stroke-linejoin:miter;stroke-width:0.8;"/>
   </g>
   <g id="text_33">
    <!-- ARS -->
    <defs>
     <path d="M 35.890625 40.578125 
Q 41.796875 40.578125 44.359375 42.765625 
Q 46.921875 44.96875 46.921875 50 
Q 46.921875 54.984375 44.359375 57.125 
Q 41.796875 59.28125 35.890625 59.28125 
L 27.984375 59.28125 
L 27.984375 40.578125 
z
M 27.984375 27.59375 
L 27.984375 0 
L 9.1875 0 
L 9.1875 72.90625 
L 37.890625 72.90625 
Q 52.296875 72.90625 59 68.0625 
Q 65.71875 63.234375 65.71875 52.78125 
Q 65.71875 45.5625 62.21875 40.921875 
Q 58.734375 36.28125 51.703125 34.078125 
Q 55.5625 33.203125 58.609375 30.09375 
Q 61.671875 27 64.796875 20.703125 
L 75 0 
L 54.984375 0 
L 46.09375 18.109375 
Q 43.40625 23.578125 40.640625 25.578125 
Q 37.890625 27.59375 33.296875 27.59375 
z
" id="DejaVuSans-Bold-82"/>
     <path d="M 59.90625 70.609375 
L 59.90625 55.171875 
Q 53.90625 57.859375 48.1875 59.21875 
Q 42.484375 60.59375 37.40625 60.59375 
Q 30.671875 60.59375 27.4375 58.734375 
Q 24.21875 56.890625 24.21875 52.984375 
Q 24.21875 50.046875 26.390625 48.40625 
Q 28.5625 46.78125 34.28125 45.609375 
L 42.28125 44 
Q 54.4375 41.546875 59.5625 36.5625 
Q 64.703125 31.59375 64.703125 22.40625 
Q 64.703125 10.359375 57.546875 4.46875 
Q 50.390625 -1.421875 35.6875 -1.421875 
Q 28.765625 -1.421875 21.78125 -0.09375 
Q 14.796875 1.21875 7.8125 3.8125 
L 7.8125 19.671875 
Q 14.796875 15.96875 21.3125 14.078125 
Q 27.828125 12.203125 33.890625 12.203125 
Q 40.046875 12.203125 43.3125 14.25 
Q 46.578125 16.3125 46.578125 20.125 
Q 46.578125 23.53125 44.359375 25.390625 
Q 42.140625 27.25 35.5 28.71875 
L 28.21875 30.328125 
Q 17.28125 32.671875 12.21875 37.796875 
Q 7.171875 42.921875 7.171875 51.609375 
Q 7.171875 62.5 14.203125 68.359375 
Q 21.234375 74.21875 34.421875 74.21875 
Q 40.4375 74.21875 46.78125 73.3125 
Q 53.125 72.40625 59.90625 70.609375 
z
" id="DejaVuSans-Bold-83"/>
    </defs>
    <g transform="translate(340.817187 332.395313)scale(0.3 -0.3)">
     <use xlink:href="#DejaVuSans-Bold-65"/>
     <use x="77.392578" xlink:href="#DejaVuSans-Bold-82"/>
     <use x="154.394531" xlink:href="#DejaVuSans-Bold-83"/>
    </g>
   </g>
   <g id="legend_2">
    <g id="patch_39">
     <path d="M 993.176563 495.703125 
L 1145.778125 495.703125 
Q 1151.778125 495.703125 1151.778125 489.703125 
L 1151.778125 404.634375 
Q 1151.778125 398.634375 1145.778125 398.634375 
L 993.176563 398.634375 
Q 987.176563 398.634375 987.176563 404.634375 
L 987.176563 489.703125 
Q 987.176563 495.703125 993.176563 495.703125 
z
" style="fill:#ffffff;opacity:0.8;stroke:#cccccc;stroke-linejoin:miter;"/>
    </g>
    <g id="patch_40">
     <path d="M 999.176563 433.429688 
L 1059.176563 433.429688 
L 1059.176563 412.429688 
L 999.176563 412.429688 
z
" style="fill:#00ff00;stroke:#000000;stroke-linejoin:miter;"/>
    </g>
    <g id="text_34">
     <!-- Sim -->
     <g transform="translate(1083.176563 433.429688)scale(0.3 -0.3)">
      <use xlink:href="#DejaVuSans-83"/>
      <use x="63.476562" xlink:href="#DejaVuSans-105"/>
      <use x="91.259766" xlink:href="#DejaVuSans-109"/>
     </g>
    </g>
    <g id="patch_41">
     <path d="M 999.176563 477.464062 
L 1059.176563 477.464062 
L 1059.176563 456.464062 
L 999.176563 456.464062 
z
" style="fill:#ee82ee;stroke:#000000;stroke-linejoin:miter;"/>
    </g>
    <g id="text_35">
     <!-- Exp -->
     <g transform="translate(1083.176563 477.464062)scale(0.3 -0.3)">
      <use xlink:href="#DejaVuSans-69"/>
      <use x="63.183594" xlink:href="#DejaVuSans-120"/>
      <use x="122.363281" xlink:href="#DejaVuSans-112"/>
     </g>
    </g>
   </g>
  </g>
 </g>
 <defs>
  <clipPath id="p53cb1c5de5">
   <rect height="252" width="558" x="95.778125" y="36.234375"/>
  </clipPath>
  <clipPath id="pdfafa88017">
   <rect height="252" width="558" x="95.778125" y="338.634375"/>
  </clipPath>
 </defs>
</svg>
