<?xml version="1.0" encoding="utf-8" standalone="no"?>
<!DOCTYPE svg PUBLIC "-//W3C//DTD SVG 1.1//EN"
  "http://www.w3.org/Graphics/SVG/1.1/DTD/svg11.dtd">
<!-- Created with matplotlib (https://matplotlib.org/) -->
<svg height="381.646875pt" version="1.1" viewBox="0 0 836.575 381.646875" width="836.575pt" xmlns="http://www.w3.org/2000/svg" xmlns:xlink="http://www.w3.org/1999/xlink">
 <defs>
  <style type="text/css">
*{stroke-linecap:butt;stroke-linejoin:round;}
  </style>
 </defs>
 <g id="figure_1">
  <g id="patch_1">
   <path d="M -0 381.646875 
L 836.575 381.646875 
L 836.575 0 
L -0 0 
z
" style="fill:#ffffff;"/>
  </g>
  <g id="axes_1">
   <g id="patch_2">
    <path d="M 52.375 313.434375 
L 331.375 313.434375 
L 331.375 36.234375 
L 52.375 36.234375 
z
" style="fill:#ffffff;"/>
   </g>
   <g id="patch_3">
    <path clip-path="url(#p4f53516e09)" d="M 65.056818 313.434375 
L 72.921512 313.434375 
L 72.921512 232.748406 
L 65.056818 232.748406 
z
" style="fill:#00ff00;stroke:#000000;stroke-linejoin:miter;"/>
   </g>
   <g id="patch_4">
    <path clip-path="url(#p4f53516e09)" d="M 253.809461 313.434375 
L 261.674154 313.434375 
L 261.674154 198.651795 
L 253.809461 198.651795 
z
" style="fill:#00ff00;stroke:#000000;stroke-linejoin:miter;"/>
   </g>
   <g id="patch_5">
    <path clip-path="url(#p4f53516e09)" d="M 72.921512 313.434375 
L 80.786205 313.434375 
L 80.786205 233.086549 
L 72.921512 233.086549 
z
" style="fill:url(#h5295ccd2df);stroke:#000000;stroke-linejoin:miter;"/>
   </g>
   <g id="patch_6">
    <path clip-path="url(#p4f53516e09)" d="M 261.674154 313.434375 
L 269.538848 313.434375 
L 269.538848 198.651766 
L 261.674154 198.651766 
z
" style="fill:url(#h5295ccd2df);stroke:#000000;stroke-linejoin:miter;"/>
   </g>
   <g id="patch_7">
    <path clip-path="url(#p4f53516e09)" d="M 89.633985 313.434375 
L 97.498679 313.434375 
L 97.498679 206.977463 
L 89.633985 206.977463 
z
" style="fill:#ee82ee;stroke:#000000;stroke-linejoin:miter;"/>
   </g>
   <g id="patch_8">
    <path clip-path="url(#p4f53516e09)" d="M 278.386628 313.434375 
L 286.251321 313.434375 
L 286.251321 141.86764 
L 278.386628 141.86764 
z
" style="fill:#ee82ee;stroke:#000000;stroke-linejoin:miter;"/>
   </g>
   <g id="patch_9">
    <path clip-path="url(#p4f53516e09)" d="M 97.498679 313.434375 
L 105.363372 313.434375 
L 105.363372 210.130027 
L 97.498679 210.130027 
z
" style="fill:url(#hc7f7468183);stroke:#000000;stroke-linejoin:miter;"/>
   </g>
   <g id="patch_10">
    <path clip-path="url(#p4f53516e09)" d="M 286.251321 313.434375 
L 294.116015 313.434375 
L 294.116015 141.260462 
L 286.251321 141.260462 
z
" style="fill:url(#hc7f7468183);stroke:#000000;stroke-linejoin:miter;"/>
   </g>
   <g id="patch_11">
    <path clip-path="url(#p4f53516e09)" d="M 114.211152 313.434375 
L 122.075846 313.434375 
L 122.075846 167.605479 
L 114.211152 167.605479 
z
" style="fill:#9acd32;stroke:#000000;stroke-linejoin:miter;"/>
   </g>
   <g id="patch_12">
    <path clip-path="url(#p4f53516e09)" d="M 302.963795 313.434375 
L 310.828488 313.434375 
L 310.828488 83.869151 
L 302.963795 83.869151 
z
" style="fill:#9acd32;stroke:#000000;stroke-linejoin:miter;"/>
   </g>
   <g id="patch_13">
    <path clip-path="url(#p4f53516e09)" d="M 122.075846 313.434375 
L 129.940539 313.434375 
L 129.940539 164.216984 
L 122.075846 164.216984 
z
" style="fill:url(#h8c92d1bb7c);stroke:#000000;stroke-linejoin:miter;"/>
   </g>
   <g id="patch_14">
    <path clip-path="url(#p4f53516e09)" d="M 310.828488 313.434375 
L 318.693182 313.434375 
L 318.693182 83.869158 
L 310.828488 83.869158 
z
" style="fill:url(#h8c92d1bb7c);stroke:#000000;stroke-linejoin:miter;"/>
   </g>
   <g id="matplotlib.axis_1">
    <g id="xtick_1">
     <g id="line2d_1">
      <defs>
       <path d="M 0 0 
L 0 3.5 
" id="m2b52daa741" style="stroke:#000000;stroke-width:0.8;"/>
      </defs>
      <g>
       <use style="stroke:#000000;stroke-width:0.8;" x="97.498679" xlink:href="#m2b52daa741" y="313.434375"/>
      </g>
     </g>
     <g id="text_1">
      <!-- 72 -->
      <defs>
       <path d="M 8.203125 72.90625 
L 55.078125 72.90625 
L 55.078125 68.703125 
L 28.609375 0 
L 18.3125 0 
L 43.21875 64.59375 
L 8.203125 64.59375 
z
" id="DejaVuSans-55"/>
       <path d="M 19.1875 8.296875 
L 53.609375 8.296875 
L 53.609375 0 
L 7.328125 0 
L 7.328125 8.296875 
Q 12.9375 14.109375 22.625 23.890625 
Q 32.328125 33.6875 34.8125 36.53125 
Q 39.546875 41.84375 41.421875 45.53125 
Q 43.3125 49.21875 43.3125 52.78125 
Q 43.3125 58.59375 39.234375 62.25 
Q 35.15625 65.921875 28.609375 65.921875 
Q 23.96875 65.921875 18.8125 64.3125 
Q 13.671875 62.703125 7.8125 59.421875 
L 7.8125 69.390625 
Q 13.765625 71.78125 18.9375 73 
Q 24.125 74.21875 28.421875 74.21875 
Q 39.75 74.21875 46.484375 68.546875 
Q 53.21875 62.890625 53.21875 53.421875 
Q 53.21875 48.921875 51.53125 44.890625 
Q 49.859375 40.875 45.40625 35.40625 
Q 44.1875 33.984375 37.640625 27.21875 
Q 31.109375 20.453125 19.1875 8.296875 
z
" id="DejaVuSans-50"/>
      </defs>
      <g transform="translate(78.411179 343.229688)scale(0.3 -0.3)">
       <use xlink:href="#DejaVuSans-55"/>
       <use x="63.623047" xlink:href="#DejaVuSans-50"/>
      </g>
     </g>
    </g>
    <g id="xtick_2">
     <g id="line2d_2">
      <g>
       <use style="stroke:#000000;stroke-width:0.8;" x="286.251321" xlink:href="#m2b52daa741" y="313.434375"/>
      </g>
     </g>
     <g id="text_2">
      <!-- 168 -->
      <defs>
       <path d="M 12.40625 8.296875 
L 28.515625 8.296875 
L 28.515625 63.921875 
L 10.984375 60.40625 
L 10.984375 69.390625 
L 28.421875 72.90625 
L 38.28125 72.90625 
L 38.28125 8.296875 
L 54.390625 8.296875 
L 54.390625 0 
L 12.40625 0 
z
" id="DejaVuSans-49"/>
       <path d="M 33.015625 40.375 
Q 26.375 40.375 22.484375 35.828125 
Q 18.609375 31.296875 18.609375 23.390625 
Q 18.609375 15.53125 22.484375 10.953125 
Q 26.375 6.390625 33.015625 6.390625 
Q 39.65625 6.390625 43.53125 10.953125 
Q 47.40625 15.53125 47.40625 23.390625 
Q 47.40625 31.296875 43.53125 35.828125 
Q 39.65625 40.375 33.015625 40.375 
z
M 52.59375 71.296875 
L 52.59375 62.3125 
Q 48.875 64.0625 45.09375 64.984375 
Q 41.3125 65.921875 37.59375 65.921875 
Q 27.828125 65.921875 22.671875 59.328125 
Q 17.53125 52.734375 16.796875 39.40625 
Q 19.671875 43.65625 24.015625 45.921875 
Q 28.375 48.1875 33.59375 48.1875 
Q 44.578125 48.1875 50.953125 41.515625 
Q 57.328125 34.859375 57.328125 23.390625 
Q 57.328125 12.15625 50.6875 5.359375 
Q 44.046875 -1.421875 33.015625 -1.421875 
Q 20.359375 -1.421875 13.671875 8.265625 
Q 6.984375 17.96875 6.984375 36.375 
Q 6.984375 53.65625 15.1875 63.9375 
Q 23.390625 74.21875 37.203125 74.21875 
Q 40.921875 74.21875 44.703125 73.484375 
Q 48.484375 72.75 52.59375 71.296875 
z
" id="DejaVuSans-54"/>
       <path d="M 31.78125 34.625 
Q 24.75 34.625 20.71875 30.859375 
Q 16.703125 27.09375 16.703125 20.515625 
Q 16.703125 13.921875 20.71875 10.15625 
Q 24.75 6.390625 31.78125 6.390625 
Q 38.8125 6.390625 42.859375 10.171875 
Q 46.921875 13.96875 46.921875 20.515625 
Q 46.921875 27.09375 42.890625 30.859375 
Q 38.875 34.625 31.78125 34.625 
z
M 21.921875 38.8125 
Q 15.578125 40.375 12.03125 44.71875 
Q 8.5 49.078125 8.5 55.328125 
Q 8.5 64.0625 14.71875 69.140625 
Q 20.953125 74.21875 31.78125 74.21875 
Q 42.671875 74.21875 48.875 69.140625 
Q 55.078125 64.0625 55.078125 55.328125 
Q 55.078125 49.078125 51.53125 44.71875 
Q 48 40.375 41.703125 38.8125 
Q 48.828125 37.15625 52.796875 32.3125 
Q 56.78125 27.484375 56.78125 20.515625 
Q 56.78125 9.90625 50.3125 4.234375 
Q 43.84375 -1.421875 31.78125 -1.421875 
Q 19.734375 -1.421875 13.25 4.234375 
Q 6.78125 9.90625 6.78125 20.515625 
Q 6.78125 27.484375 10.78125 32.3125 
Q 14.796875 37.15625 21.921875 38.8125 
z
M 18.3125 54.390625 
Q 18.3125 48.734375 21.84375 45.5625 
Q 25.390625 42.390625 31.78125 42.390625 
Q 38.140625 42.390625 41.71875 45.5625 
Q 45.3125 48.734375 45.3125 54.390625 
Q 45.3125 60.0625 41.71875 63.234375 
Q 38.140625 66.40625 31.78125 66.40625 
Q 25.390625 66.40625 21.84375 63.234375 
Q 18.3125 60.0625 18.3125 54.390625 
z
" id="DejaVuSans-56"/>
      </defs>
      <g transform="translate(257.620071 343.229688)scale(0.3 -0.3)">
       <use xlink:href="#DejaVuSans-49"/>
       <use x="63.623047" xlink:href="#DejaVuSans-54"/>
       <use x="127.246094" xlink:href="#DejaVuSans-56"/>
      </g>
     </g>
    </g>
   </g>
   <g id="matplotlib.axis_2">
    <g id="ytick_1">
     <g id="line2d_3">
      <defs>
       <path d="M 0 0 
L -3.5 0 
" id="m3f2f571b26" style="stroke:#000000;stroke-width:0.8;"/>
      </defs>
      <g>
       <use style="stroke:#000000;stroke-width:0.8;" x="52.375" xlink:href="#m3f2f571b26" y="313.434375"/>
      </g>
     </g>
     <g id="text_3">
      <!-- 0 -->
      <defs>
       <path d="M 31.78125 66.40625 
Q 24.171875 66.40625 20.328125 58.90625 
Q 16.5 51.421875 16.5 36.375 
Q 16.5 21.390625 20.328125 13.890625 
Q 24.171875 6.390625 31.78125 6.390625 
Q 39.453125 6.390625 43.28125 13.890625 
Q 47.125 21.390625 47.125 36.375 
Q 47.125 51.421875 43.28125 58.90625 
Q 39.453125 66.40625 31.78125 66.40625 
z
M 31.78125 74.21875 
Q 44.046875 74.21875 50.515625 64.515625 
Q 56.984375 54.828125 56.984375 36.375 
Q 56.984375 17.96875 50.515625 8.265625 
Q 44.046875 -1.421875 31.78125 -1.421875 
Q 19.53125 -1.421875 13.0625 8.265625 
Q 6.59375 17.96875 6.59375 36.375 
Q 6.59375 54.828125 13.0625 64.515625 
Q 19.53125 74.21875 31.78125 74.21875 
z
" id="DejaVuSans-48"/>
      </defs>
      <g transform="translate(26.2875 324.832031)scale(0.3 -0.3)">
       <use xlink:href="#DejaVuSans-48"/>
      </g>
     </g>
    </g>
    <g id="ytick_2">
     <g id="line2d_4">
      <g>
       <use style="stroke:#000000;stroke-width:0.8;" x="52.375" xlink:href="#m3f2f571b26" y="256.043071"/>
      </g>
     </g>
     <g id="text_4">
      <!-- 5 -->
      <defs>
       <path d="M 10.796875 72.90625 
L 49.515625 72.90625 
L 49.515625 64.59375 
L 19.828125 64.59375 
L 19.828125 46.734375 
Q 21.96875 47.46875 24.109375 47.828125 
Q 26.265625 48.1875 28.421875 48.1875 
Q 40.625 48.1875 47.75 41.5 
Q 54.890625 34.8125 54.890625 23.390625 
Q 54.890625 11.625 47.5625 5.09375 
Q 40.234375 -1.421875 26.90625 -1.421875 
Q 22.3125 -1.421875 17.546875 -0.640625 
Q 12.796875 0.140625 7.71875 1.703125 
L 7.71875 11.625 
Q 12.109375 9.234375 16.796875 8.0625 
Q 21.484375 6.890625 26.703125 6.890625 
Q 35.15625 6.890625 40.078125 11.328125 
Q 45.015625 15.765625 45.015625 23.390625 
Q 45.015625 31 40.078125 35.4375 
Q 35.15625 39.890625 26.703125 39.890625 
Q 22.75 39.890625 18.8125 39.015625 
Q 14.890625 38.140625 10.796875 36.28125 
z
" id="DejaVuSans-53"/>
      </defs>
      <g transform="translate(26.2875 267.440727)scale(0.3 -0.3)">
       <use xlink:href="#DejaVuSans-53"/>
      </g>
     </g>
    </g>
    <g id="ytick_3">
     <g id="line2d_5">
      <g>
       <use style="stroke:#000000;stroke-width:0.8;" x="52.375" xlink:href="#m3f2f571b26" y="198.651766"/>
      </g>
     </g>
     <g id="text_5">
      <!-- 10 -->
      <g transform="translate(7.2 210.049423)scale(0.3 -0.3)">
       <use xlink:href="#DejaVuSans-49"/>
       <use x="63.623047" xlink:href="#DejaVuSans-48"/>
      </g>
     </g>
    </g>
    <g id="ytick_4">
     <g id="line2d_6">
      <g>
       <use style="stroke:#000000;stroke-width:0.8;" x="52.375" xlink:href="#m3f2f571b26" y="141.260462"/>
      </g>
     </g>
     <g id="text_6">
      <!-- 15 -->
      <g transform="translate(7.2 152.658118)scale(0.3 -0.3)">
       <use xlink:href="#DejaVuSans-49"/>
       <use x="63.623047" xlink:href="#DejaVuSans-53"/>
      </g>
     </g>
    </g>
    <g id="ytick_5">
     <g id="line2d_7">
      <g>
       <use style="stroke:#000000;stroke-width:0.8;" x="52.375" xlink:href="#m3f2f571b26" y="83.869158"/>
      </g>
     </g>
     <g id="text_7">
      <!-- 20 -->
      <g transform="translate(7.2 95.266814)scale(0.3 -0.3)">
       <use xlink:href="#DejaVuSans-50"/>
       <use x="63.623047" xlink:href="#DejaVuSans-48"/>
      </g>
     </g>
    </g>
   </g>
   <g id="LineCollection_1">
    <path clip-path="url(#p4f53516e09)" d="M 68.989165 232.748406 
L 68.989165 232.748406 
" style="fill:none;stroke:#000000;stroke-width:1.5;"/>
    <path clip-path="url(#p4f53516e09)" d="M 257.741808 198.651795 
L 257.741808 198.651795 
" style="fill:none;stroke:#000000;stroke-width:1.5;"/>
   </g>
   <g id="LineCollection_2">
    <path clip-path="url(#p4f53516e09)" d="M 76.853858 256.043071 
L 76.853858 210.130027 
" style="fill:none;stroke:#000000;stroke-width:1.5;"/>
    <path clip-path="url(#p4f53516e09)" d="M 265.606501 233.086549 
L 265.606501 164.216984 
" style="fill:none;stroke:#000000;stroke-width:1.5;"/>
   </g>
   <g id="LineCollection_3">
    <path clip-path="url(#p4f53516e09)" d="M 93.566332 206.977463 
L 93.566332 206.977463 
" style="fill:none;stroke:#000000;stroke-width:1.5;"/>
    <path clip-path="url(#p4f53516e09)" d="M 282.318975 141.86764 
L 282.318975 141.86764 
" style="fill:none;stroke:#000000;stroke-width:1.5;"/>
   </g>
   <g id="LineCollection_4">
    <path clip-path="url(#p4f53516e09)" d="M 101.431025 233.086549 
L 101.431025 187.173505 
" style="fill:none;stroke:#000000;stroke-width:1.5;"/>
    <path clip-path="url(#p4f53516e09)" d="M 290.183668 175.695245 
L 290.183668 106.825679 
" style="fill:none;stroke:#000000;stroke-width:1.5;"/>
   </g>
   <g id="LineCollection_5">
    <path clip-path="url(#p4f53516e09)" d="M 118.143499 167.605479 
L 118.143499 167.605479 
" style="fill:none;stroke:#000000;stroke-width:1.5;"/>
    <path clip-path="url(#p4f53516e09)" d="M 306.896142 83.869151 
L 306.896142 83.869151 
" style="fill:none;stroke:#000000;stroke-width:1.5;"/>
   </g>
   <g id="LineCollection_6">
    <path clip-path="url(#p4f53516e09)" d="M 126.008192 210.130027 
L 126.008192 118.30394 
" style="fill:none;stroke:#000000;stroke-width:1.5;"/>
    <path clip-path="url(#p4f53516e09)" d="M 314.760835 118.30394 
L 314.760835 49.434375 
" style="fill:none;stroke:#000000;stroke-width:1.5;"/>
   </g>
   <g id="line2d_8">
    <defs>
     <path d="M 2 0 
L -2 -0 
" id="mea5088a502" style="stroke:#000000;"/>
    </defs>
    <g clip-path="url(#p4f53516e09)">
     <use style="stroke:#000000;" x="68.989165" xlink:href="#mea5088a502" y="232.748406"/>
     <use style="stroke:#000000;" x="257.741808" xlink:href="#mea5088a502" y="198.651795"/>
    </g>
   </g>
   <g id="line2d_9">
    <g clip-path="url(#p4f53516e09)">
     <use style="stroke:#000000;" x="68.989165" xlink:href="#mea5088a502" y="232.748406"/>
     <use style="stroke:#000000;" x="257.741808" xlink:href="#mea5088a502" y="198.651795"/>
    </g>
   </g>
   <g id="line2d_10">
    <g clip-path="url(#p4f53516e09)">
     <use style="stroke:#000000;" x="76.853858" xlink:href="#mea5088a502" y="256.043071"/>
     <use style="stroke:#000000;" x="265.606501" xlink:href="#mea5088a502" y="233.086549"/>
    </g>
   </g>
   <g id="line2d_11">
    <g clip-path="url(#p4f53516e09)">
     <use style="stroke:#000000;" x="76.853858" xlink:href="#mea5088a502" y="210.130027"/>
     <use style="stroke:#000000;" x="265.606501" xlink:href="#mea5088a502" y="164.216984"/>
    </g>
   </g>
   <g id="line2d_12">
    <g clip-path="url(#p4f53516e09)">
     <use style="stroke:#000000;" x="93.566332" xlink:href="#mea5088a502" y="206.977463"/>
     <use style="stroke:#000000;" x="282.318975" xlink:href="#mea5088a502" y="141.86764"/>
    </g>
   </g>
   <g id="line2d_13">
    <g clip-path="url(#p4f53516e09)">
     <use style="stroke:#000000;" x="93.566332" xlink:href="#mea5088a502" y="206.977463"/>
     <use style="stroke:#000000;" x="282.318975" xlink:href="#mea5088a502" y="141.86764"/>
    </g>
   </g>
   <g id="line2d_14">
    <g clip-path="url(#p4f53516e09)">
     <use style="stroke:#000000;" x="101.431025" xlink:href="#mea5088a502" y="233.086549"/>
     <use style="stroke:#000000;" x="290.183668" xlink:href="#mea5088a502" y="175.695245"/>
    </g>
   </g>
   <g id="line2d_15">
    <g clip-path="url(#p4f53516e09)">
     <use style="stroke:#000000;" x="101.431025" xlink:href="#mea5088a502" y="187.173505"/>
     <use style="stroke:#000000;" x="290.183668" xlink:href="#mea5088a502" y="106.825679"/>
    </g>
   </g>
   <g id="line2d_16">
    <g clip-path="url(#p4f53516e09)">
     <use style="stroke:#000000;" x="118.143499" xlink:href="#mea5088a502" y="167.605479"/>
     <use style="stroke:#000000;" x="306.896142" xlink:href="#mea5088a502" y="83.869151"/>
    </g>
   </g>
   <g id="line2d_17">
    <g clip-path="url(#p4f53516e09)">
     <use style="stroke:#000000;" x="118.143499" xlink:href="#mea5088a502" y="167.605479"/>
     <use style="stroke:#000000;" x="306.896142" xlink:href="#mea5088a502" y="83.869151"/>
    </g>
   </g>
   <g id="line2d_18">
    <g clip-path="url(#p4f53516e09)">
     <use style="stroke:#000000;" x="126.008192" xlink:href="#mea5088a502" y="210.130027"/>
     <use style="stroke:#000000;" x="314.760835" xlink:href="#mea5088a502" y="118.30394"/>
    </g>
   </g>
   <g id="line2d_19">
    <g clip-path="url(#p4f53516e09)">
     <use style="stroke:#000000;" x="126.008192" xlink:href="#mea5088a502" y="118.30394"/>
     <use style="stroke:#000000;" x="314.760835" xlink:href="#mea5088a502" y="49.434375"/>
    </g>
   </g>
   <g id="patch_15">
    <path d="M 52.375 313.434375 
L 52.375 36.234375 
" style="fill:none;stroke:#000000;stroke-linecap:square;stroke-linejoin:miter;stroke-width:0.8;"/>
   </g>
   <g id="patch_16">
    <path d="M 331.375 313.434375 
L 331.375 36.234375 
" style="fill:none;stroke:#000000;stroke-linecap:square;stroke-linejoin:miter;stroke-width:0.8;"/>
   </g>
   <g id="patch_17">
    <path d="M 52.375 313.434375 
L 331.375 313.434375 
" style="fill:none;stroke:#000000;stroke-linecap:square;stroke-linejoin:miter;stroke-width:0.8;"/>
   </g>
   <g id="patch_18">
    <path d="M 52.375 36.234375 
L 331.375 36.234375 
" style="fill:none;stroke:#000000;stroke-linecap:square;stroke-linejoin:miter;stroke-width:0.8;"/>
   </g>
   <g id="text_8">
    <!-- ALP -->
    <defs>
     <path d="M 53.421875 13.28125 
L 24.03125 13.28125 
L 19.390625 0 
L 0.484375 0 
L 27.484375 72.90625 
L 49.90625 72.90625 
L 76.90625 0 
L 58.015625 0 
z
M 28.71875 26.8125 
L 48.6875 26.8125 
L 38.71875 55.8125 
z
" id="DejaVuSans-Bold-65"/>
     <path d="M 9.1875 72.90625 
L 27.984375 72.90625 
L 27.984375 14.203125 
L 60.984375 14.203125 
L 60.984375 0 
L 9.1875 0 
z
" id="DejaVuSans-Bold-76"/>
     <path d="M 9.1875 72.90625 
L 40.375 72.90625 
Q 54.296875 72.90625 61.734375 66.71875 
Q 69.1875 60.546875 69.1875 49.125 
Q 69.1875 37.640625 61.734375 31.46875 
Q 54.296875 25.296875 40.375 25.296875 
L 27.984375 25.296875 
L 27.984375 0 
L 9.1875 0 
z
M 27.984375 59.28125 
L 27.984375 38.921875 
L 38.375 38.921875 
Q 43.84375 38.921875 46.828125 41.578125 
Q 49.8125 44.234375 49.8125 49.125 
Q 49.8125 54 46.828125 56.640625 
Q 43.84375 59.28125 38.375 59.28125 
z
" id="DejaVuSans-Bold-80"/>
    </defs>
    <g transform="translate(159.714063 29.995312)scale(0.3 -0.3)">
     <use xlink:href="#DejaVuSans-Bold-65"/>
     <use x="77.392578" xlink:href="#DejaVuSans-Bold-76"/>
     <use x="141.113281" xlink:href="#DejaVuSans-Bold-80"/>
    </g>
   </g>
   <g id="legend_1">
    <g id="patch_19">
     <path d="M 524.335938 374.446875 
L 823.375 374.446875 
Q 829.375 374.446875 829.375 368.446875 
L 829.375 102.234375 
Q 829.375 96.234375 823.375 96.234375 
L 524.335938 96.234375 
Q 518.335938 96.234375 518.335938 102.234375 
L 518.335938 368.446875 
Q 518.335938 374.446875 524.335938 374.446875 
z
" style="fill:#ffffff;opacity:0.8;stroke:#cccccc;stroke-linejoin:miter;"/>
    </g>
    <g id="patch_20">
     <path d="M 530.335938 131.029687 
L 590.335938 131.029687 
L 590.335938 110.029687 
L 530.335938 110.029687 
z
" style="fill:#00ff00;stroke:#000000;stroke-linejoin:miter;"/>
    </g>
    <g id="text_9">
     <!-- Sim_0.08 mM -->
     <defs>
      <path d="M 53.515625 70.515625 
L 53.515625 60.890625 
Q 47.90625 63.578125 42.921875 64.890625 
Q 37.9375 66.21875 33.296875 66.21875 
Q 25.25 66.21875 20.875 63.09375 
Q 16.5 59.96875 16.5 54.203125 
Q 16.5 49.359375 19.40625 46.890625 
Q 22.3125 44.4375 30.421875 42.921875 
L 36.375 41.703125 
Q 47.40625 39.59375 52.65625 34.296875 
Q 57.90625 29 57.90625 20.125 
Q 57.90625 9.515625 50.796875 4.046875 
Q 43.703125 -1.421875 29.984375 -1.421875 
Q 24.8125 -1.421875 18.96875 -0.25 
Q 13.140625 0.921875 6.890625 3.21875 
L 6.890625 13.375 
Q 12.890625 10.015625 18.65625 8.296875 
Q 24.421875 6.59375 29.984375 6.59375 
Q 38.421875 6.59375 43.015625 9.90625 
Q 47.609375 13.234375 47.609375 19.390625 
Q 47.609375 24.75 44.3125 27.78125 
Q 41.015625 30.8125 33.5 32.328125 
L 27.484375 33.5 
Q 16.453125 35.6875 11.515625 40.375 
Q 6.59375 45.0625 6.59375 53.421875 
Q 6.59375 63.09375 13.40625 68.65625 
Q 20.21875 74.21875 32.171875 74.21875 
Q 37.3125 74.21875 42.625 73.28125 
Q 47.953125 72.359375 53.515625 70.515625 
z
" id="DejaVuSans-83"/>
      <path d="M 9.421875 54.6875 
L 18.40625 54.6875 
L 18.40625 0 
L 9.421875 0 
z
M 9.421875 75.984375 
L 18.40625 75.984375 
L 18.40625 64.59375 
L 9.421875 64.59375 
z
" id="DejaVuSans-105"/>
      <path d="M 52 44.1875 
Q 55.375 50.25 60.0625 53.125 
Q 64.75 56 71.09375 56 
Q 79.640625 56 84.28125 50.015625 
Q 88.921875 44.046875 88.921875 33.015625 
L 88.921875 0 
L 79.890625 0 
L 79.890625 32.71875 
Q 79.890625 40.578125 77.09375 44.375 
Q 74.3125 48.1875 68.609375 48.1875 
Q 61.625 48.1875 57.5625 43.546875 
Q 53.515625 38.921875 53.515625 30.90625 
L 53.515625 0 
L 44.484375 0 
L 44.484375 32.71875 
Q 44.484375 40.625 41.703125 44.40625 
Q 38.921875 48.1875 33.109375 48.1875 
Q 26.21875 48.1875 22.15625 43.53125 
Q 18.109375 38.875 18.109375 30.90625 
L 18.109375 0 
L 9.078125 0 
L 9.078125 54.6875 
L 18.109375 54.6875 
L 18.109375 46.1875 
Q 21.1875 51.21875 25.484375 53.609375 
Q 29.78125 56 35.6875 56 
Q 41.65625 56 45.828125 52.96875 
Q 50 49.953125 52 44.1875 
z
" id="DejaVuSans-109"/>
      <path d="M 50.984375 -16.609375 
L 50.984375 -23.578125 
L -0.984375 -23.578125 
L -0.984375 -16.609375 
z
" id="DejaVuSans-95"/>
      <path d="M 10.6875 12.40625 
L 21 12.40625 
L 21 0 
L 10.6875 0 
z
" id="DejaVuSans-46"/>
      <path id="DejaVuSans-32"/>
      <path d="M 9.8125 72.90625 
L 24.515625 72.90625 
L 43.109375 23.296875 
L 61.8125 72.90625 
L 76.515625 72.90625 
L 76.515625 0 
L 66.890625 0 
L 66.890625 64.015625 
L 48.09375 14.015625 
L 38.1875 14.015625 
L 19.390625 64.015625 
L 19.390625 0 
L 9.8125 0 
z
" id="DejaVuSans-77"/>
     </defs>
     <g transform="translate(614.335938 131.029687)scale(0.3 -0.3)">
      <use xlink:href="#DejaVuSans-83"/>
      <use x="63.476562" xlink:href="#DejaVuSans-105"/>
      <use x="91.259766" xlink:href="#DejaVuSans-109"/>
      <use x="188.671875" xlink:href="#DejaVuSans-95"/>
      <use x="238.671875" xlink:href="#DejaVuSans-48"/>
      <use x="302.294922" xlink:href="#DejaVuSans-46"/>
      <use x="334.082031" xlink:href="#DejaVuSans-48"/>
      <use x="397.705078" xlink:href="#DejaVuSans-56"/>
      <use x="461.328125" xlink:href="#DejaVuSans-32"/>
      <use x="493.115234" xlink:href="#DejaVuSans-109"/>
      <use x="590.527344" xlink:href="#DejaVuSans-77"/>
     </g>
    </g>
    <g id="patch_21">
     <path d="M 530.335938 175.898438 
L 590.335938 175.898438 
L 590.335938 154.898438 
L 530.335938 154.898438 
z
" style="fill:url(#h5295ccd2df);stroke:#000000;stroke-linejoin:miter;"/>
    </g>
    <g id="text_10">
     <!-- Exp_0.08 mM -->
     <defs>
      <path d="M 9.8125 72.90625 
L 55.90625 72.90625 
L 55.90625 64.59375 
L 19.671875 64.59375 
L 19.671875 43.015625 
L 54.390625 43.015625 
L 54.390625 34.71875 
L 19.671875 34.71875 
L 19.671875 8.296875 
L 56.78125 8.296875 
L 56.78125 0 
L 9.8125 0 
z
" id="DejaVuSans-69"/>
      <path d="M 54.890625 54.6875 
L 35.109375 28.078125 
L 55.90625 0 
L 45.3125 0 
L 29.390625 21.484375 
L 13.484375 0 
L 2.875 0 
L 24.125 28.609375 
L 4.6875 54.6875 
L 15.28125 54.6875 
L 29.78125 35.203125 
L 44.28125 54.6875 
z
" id="DejaVuSans-120"/>
      <path d="M 18.109375 8.203125 
L 18.109375 -20.796875 
L 9.078125 -20.796875 
L 9.078125 54.6875 
L 18.109375 54.6875 
L 18.109375 46.390625 
Q 20.953125 51.265625 25.265625 53.625 
Q 29.59375 56 35.59375 56 
Q 45.5625 56 51.78125 48.09375 
Q 58.015625 40.1875 58.015625 27.296875 
Q 58.015625 14.40625 51.78125 6.484375 
Q 45.5625 -1.421875 35.59375 -1.421875 
Q 29.59375 -1.421875 25.265625 0.953125 
Q 20.953125 3.328125 18.109375 8.203125 
z
M 48.6875 27.296875 
Q 48.6875 37.203125 44.609375 42.84375 
Q 40.53125 48.484375 33.40625 48.484375 
Q 26.265625 48.484375 22.1875 42.84375 
Q 18.109375 37.203125 18.109375 27.296875 
Q 18.109375 17.390625 22.1875 11.75 
Q 26.265625 6.109375 33.40625 6.109375 
Q 40.53125 6.109375 44.609375 11.75 
Q 48.6875 17.390625 48.6875 27.296875 
z
" id="DejaVuSans-112"/>
     </defs>
     <g transform="translate(614.335938 175.898438)scale(0.3 -0.3)">
      <use xlink:href="#DejaVuSans-69"/>
      <use x="63.183594" xlink:href="#DejaVuSans-120"/>
      <use x="122.363281" xlink:href="#DejaVuSans-112"/>
      <use x="185.839844" xlink:href="#DejaVuSans-95"/>
      <use x="235.839844" xlink:href="#DejaVuSans-48"/>
      <use x="299.462891" xlink:href="#DejaVuSans-46"/>
      <use x="331.25" xlink:href="#DejaVuSans-48"/>
      <use x="394.873047" xlink:href="#DejaVuSans-56"/>
      <use x="458.496094" xlink:href="#DejaVuSans-32"/>
      <use x="490.283203" xlink:href="#DejaVuSans-109"/>
      <use x="587.695312" xlink:href="#DejaVuSans-77"/>
     </g>
    </g>
    <g id="patch_22">
     <path d="M 530.335938 220.767187 
L 590.335938 220.767187 
L 590.335938 199.767187 
L 530.335938 199.767187 
z
" style="fill:#ee82ee;stroke:#000000;stroke-linejoin:miter;"/>
    </g>
    <g id="text_11">
     <!-- Sim_0.8 mM -->
     <g transform="translate(614.335938 220.767187)scale(0.3 -0.3)">
      <use xlink:href="#DejaVuSans-83"/>
      <use x="63.476562" xlink:href="#DejaVuSans-105"/>
      <use x="91.259766" xlink:href="#DejaVuSans-109"/>
      <use x="188.671875" xlink:href="#DejaVuSans-95"/>
      <use x="238.671875" xlink:href="#DejaVuSans-48"/>
      <use x="302.294922" xlink:href="#DejaVuSans-46"/>
      <use x="334.082031" xlink:href="#DejaVuSans-56"/>
      <use x="397.705078" xlink:href="#DejaVuSans-32"/>
      <use x="429.492188" xlink:href="#DejaVuSans-109"/>
      <use x="526.904297" xlink:href="#DejaVuSans-77"/>
     </g>
    </g>
    <g id="patch_23">
     <path d="M 530.335938 265.635937 
L 590.335938 265.635937 
L 590.335938 244.635937 
L 530.335938 244.635937 
z
" style="fill:url(#hc7f7468183);stroke:#000000;stroke-linejoin:miter;"/>
    </g>
    <g id="text_12">
     <!-- Exp_0.8 mM -->
     <g transform="translate(614.335938 265.635937)scale(0.3 -0.3)">
      <use xlink:href="#DejaVuSans-69"/>
      <use x="63.183594" xlink:href="#DejaVuSans-120"/>
      <use x="122.363281" xlink:href="#DejaVuSans-112"/>
      <use x="185.839844" xlink:href="#DejaVuSans-95"/>
      <use x="235.839844" xlink:href="#DejaVuSans-48"/>
      <use x="299.462891" xlink:href="#DejaVuSans-46"/>
      <use x="331.25" xlink:href="#DejaVuSans-56"/>
      <use x="394.873047" xlink:href="#DejaVuSans-32"/>
      <use x="426.660156" xlink:href="#DejaVuSans-109"/>
      <use x="524.072266" xlink:href="#DejaVuSans-77"/>
     </g>
    </g>
    <g id="patch_24">
     <path d="M 530.335938 310.504687 
L 590.335938 310.504687 
L 590.335938 289.504687 
L 530.335938 289.504687 
z
" style="fill:#9acd32;stroke:#000000;stroke-linejoin:miter;"/>
    </g>
    <g id="text_13">
     <!-- Sim_8 mM -->
     <g transform="translate(614.335938 310.504687)scale(0.3 -0.3)">
      <use xlink:href="#DejaVuSans-83"/>
      <use x="63.476562" xlink:href="#DejaVuSans-105"/>
      <use x="91.259766" xlink:href="#DejaVuSans-109"/>
      <use x="188.671875" xlink:href="#DejaVuSans-95"/>
      <use x="238.671875" xlink:href="#DejaVuSans-56"/>
      <use x="302.294922" xlink:href="#DejaVuSans-32"/>
      <use x="334.082031" xlink:href="#DejaVuSans-109"/>
      <use x="431.494141" xlink:href="#DejaVuSans-77"/>
     </g>
    </g>
    <g id="patch_25">
     <path d="M 530.335938 355.373438 
L 590.335938 355.373438 
L 590.335938 334.373438 
L 530.335938 334.373438 
z
" style="fill:url(#h8c92d1bb7c);stroke:#000000;stroke-linejoin:miter;"/>
    </g>
    <g id="text_14">
     <!-- Exp_8 mM -->
     <g transform="translate(614.335938 355.373438)scale(0.3 -0.3)">
      <use xlink:href="#DejaVuSans-69"/>
      <use x="63.183594" xlink:href="#DejaVuSans-120"/>
      <use x="122.363281" xlink:href="#DejaVuSans-112"/>
      <use x="185.839844" xlink:href="#DejaVuSans-95"/>
      <use x="235.839844" xlink:href="#DejaVuSans-56"/>
      <use x="299.462891" xlink:href="#DejaVuSans-32"/>
      <use x="331.25" xlink:href="#DejaVuSans-109"/>
      <use x="428.662109" xlink:href="#DejaVuSans-77"/>
     </g>
    </g>
   </g>
  </g>
 </g>
 <defs>
  <clipPath id="p4f53516e09">
   <rect height="277.2" width="279" x="52.375" y="36.234375"/>
  </clipPath>
 </defs>
 <defs>
  <pattern height="72" id="h5295ccd2df" patternUnits="userSpaceOnUse" width="72" x="0" y="0">
   <rect fill="#00ff00" height="73" width="73" x="0" y="0"/>
   <path d="M -36 36 
L 36 108 
M -33 33 
L 39 105 
M -30 30 
L 42 102 
M -27 27 
L 45 99 
M -24 24 
L 48 96 
M -21 21 
L 51 93 
M -18 18 
L 54 90 
M -15 15 
L 57 87 
M -12 12 
L 60 84 
M -9 9 
L 63 81 
M -6 6 
L 66 78 
M -3 3 
L 69 75 
M 0 0 
L 72 72 
M 3 -3 
L 75 69 
M 6 -6 
L 78 66 
M 9 -9 
L 81 63 
M 12 -12 
L 84 60 
M 15 -15 
L 87 57 
M 18 -18 
L 90 54 
M 21 -21 
L 93 51 
M 24 -24 
L 96 48 
M 27 -27 
L 99 45 
M 30 -30 
L 102 42 
M 33 -33 
L 105 39 
M 36 -36 
L 108 36 
" style="fill:#000000;stroke:#000000;stroke-linecap:butt;stroke-linejoin:miter;stroke-width:1.0;"/>
  </pattern>
  <pattern height="72" id="hc7f7468183" patternUnits="userSpaceOnUse" width="72" x="0" y="0">
   <rect fill="#ee82ee" height="73" width="73" x="0" y="0"/>
   <path d="M -36 36 
L 36 108 
M -33 33 
L 39 105 
M -30 30 
L 42 102 
M -27 27 
L 45 99 
M -24 24 
L 48 96 
M -21 21 
L 51 93 
M -18 18 
L 54 90 
M -15 15 
L 57 87 
M -12 12 
L 60 84 
M -9 9 
L 63 81 
M -6 6 
L 66 78 
M -3 3 
L 69 75 
M 0 0 
L 72 72 
M 3 -3 
L 75 69 
M 6 -6 
L 78 66 
M 9 -9 
L 81 63 
M 12 -12 
L 84 60 
M 15 -15 
L 87 57 
M 18 -18 
L 90 54 
M 21 -21 
L 93 51 
M 24 -24 
L 96 48 
M 27 -27 
L 99 45 
M 30 -30 
L 102 42 
M 33 -33 
L 105 39 
M 36 -36 
L 108 36 
" style="fill:#000000;stroke:#000000;stroke-linecap:butt;stroke-linejoin:miter;stroke-width:1.0;"/>
  </pattern>
  <pattern height="72" id="h8c92d1bb7c" patternUnits="userSpaceOnUse" width="72" x="0" y="0">
   <rect fill="#9acd32" height="73" width="73" x="0" y="0"/>
   <path d="M -36 36 
L 36 108 
M -33 33 
L 39 105 
M -30 30 
L 42 102 
M -27 27 
L 45 99 
M -24 24 
L 48 96 
M -21 21 
L 51 93 
M -18 18 
L 54 90 
M -15 15 
L 57 87 
M -12 12 
L 60 84 
M -9 9 
L 63 81 
M -6 6 
L 66 78 
M -3 3 
L 69 75 
M 0 0 
L 72 72 
M 3 -3 
L 75 69 
M 6 -6 
L 78 66 
M 9 -9 
L 81 63 
M 12 -12 
L 84 60 
M 15 -15 
L 87 57 
M 18 -18 
L 90 54 
M 21 -21 
L 93 51 
M 24 -24 
L 96 48 
M 27 -27 
L 99 45 
M 30 -30 
L 102 42 
M 33 -33 
L 105 39 
M 36 -36 
L 108 36 
" style="fill:#000000;stroke:#000000;stroke-linecap:butt;stroke-linejoin:miter;stroke-width:1.0;"/>
  </pattern>
 </defs>
</svg>
