<?xml version="1.0" encoding="utf-8" standalone="no"?>
<!DOCTYPE svg PUBLIC "-//W3C//DTD SVG 1.1//EN"
  "http://www.w3.org/Graphics/SVG/1.1/DTD/svg11.dtd">
<!-- Created with matplotlib (http://matplotlib.org/) -->
<svg height="628.914063pt" version="1.1" viewBox="0 0 1138.704687 628.914063" width="1138.704687pt" xmlns="http://www.w3.org/2000/svg" xmlns:xlink="http://www.w3.org/1999/xlink">
 <defs>
  <style type="text/css">
*{stroke-linecap:butt;stroke-linejoin:round;}
  </style>
 </defs>
 <g id="figure_1">
  <g id="patch_1">
   <path d="M 0 628.914063 
L 1138.704687 628.914063 
L 1138.704687 0 
L 0 0 
z
" style="fill:#ffffff;"/>
  </g>
  <g id="axes_1">
   <g id="patch_2">
    <path d="M 75.504688 587.465625 
L 633.504688 587.465625 
L 633.504688 33.065625 
L 75.504688 33.065625 
z
" style="fill:#ffffff;"/>
   </g>
   <g id="patch_3">
    <path clip-path="url(#pa405edb923)" d="M 100.868324 587.465625 
L 173.335856 587.465625 
L 173.335856 442.910116 
L 100.868324 442.910116 
z
" style="fill:#00ff00;stroke:#000000;stroke-linejoin:miter;"/>
   </g>
   <g id="patch_4">
    <path clip-path="url(#pa405edb923)" d="M 463.205986 587.465625 
L 535.673519 587.465625 
L 535.673519 59.465625 
L 463.205986 59.465625 
z
" style="fill:#00ff00;stroke:#000000;stroke-linejoin:miter;"/>
   </g>
   <g id="patch_5">
    <path clip-path="url(#pa405edb923)" d="M 173.335856 587.465625 
L 245.803389 587.465625 
L 245.803389 445.807113 
L 173.335856 445.807113 
z
" style="fill:#ee82ee;stroke:#000000;stroke-linejoin:miter;"/>
   </g>
   <g id="patch_6">
    <path clip-path="url(#pa405edb923)" d="M 535.673519 587.465625 
L 608.141051 587.465625 
L 608.141051 59.465716 
L 535.673519 59.465716 
z
" style="fill:#ee82ee;stroke:#000000;stroke-linejoin:miter;"/>
   </g>
   <g id="matplotlib.axis_1">
    <g id="xtick_1">
     <g id="line2d_1">
      <defs>
       <path d="M 0 0 
L 0 3.5 
" id="m05a0394da6" style="stroke:#000000;stroke-width:0.8;"/>
      </defs>
      <g>
       <use style="stroke:#000000;stroke-width:0.8;" x="137.10209" xlink:href="#m05a0394da6" y="587.465625"/>
      </g>
     </g>
     <g id="text_1">
      <!-- 0 -->
      <defs>
       <path d="M 3.609375 32.71875 
Q 3.609375 44.046875 7.03125 52.21875 
Q 10.453125 60.40625 16.109375 64.40625 
Q 20.515625 67.578125 25.203125 67.578125 
Q 32.8125 67.578125 38.875 59.8125 
Q 46.4375 50.203125 46.4375 33.734375 
Q 46.4375 22.21875 43.109375 14.15625 
Q 39.796875 6.109375 34.640625 2.46875 
Q 29.5 -1.171875 24.703125 -1.171875 
Q 15.234375 -1.171875 8.9375 10.015625 
Q 3.609375 19.4375 3.609375 32.71875 
z
M 13.1875 31.5 
Q 13.1875 17.828125 16.546875 9.1875 
Q 19.34375 1.90625 24.859375 1.90625 
Q 27.484375 1.90625 30.3125 4.265625 
Q 33.15625 6.640625 34.625 12.203125 
Q 36.859375 20.609375 36.859375 35.890625 
Q 36.859375 47.21875 34.515625 54.78125 
Q 32.765625 60.40625 29.984375 62.75 
Q 27.984375 64.359375 25.140625 64.359375 
Q 21.828125 64.359375 19.234375 61.375 
Q 15.71875 57.328125 14.453125 48.625 
Q 13.1875 39.9375 13.1875 31.5 
z
" id="TimesNewRomanPSMT-30"/>
      </defs>
      <g transform="translate(129.60209 615.296875)scale(0.3 -0.3)">
       <use xlink:href="#TimesNewRomanPSMT-30"/>
      </g>
     </g>
    </g>
    <g id="xtick_2">
     <g id="line2d_2">
      <g>
       <use style="stroke:#000000;stroke-width:0.8;" x="499.439752" xlink:href="#m05a0394da6" y="587.465625"/>
      </g>
     </g>
     <g id="text_2">
      <!-- IL8+IL1b -->
      <defs>
       <path d="M 30.859375 1.8125 
L 30.859375 0 
L 2.484375 0 
L 2.484375 1.8125 
L 4.828125 1.8125 
Q 8.9375 1.8125 10.796875 4.203125 
Q 11.96875 5.765625 11.96875 11.71875 
L 11.96875 54.5 
Q 11.96875 59.515625 11.328125 61.140625 
Q 10.84375 62.359375 9.328125 63.234375 
Q 7.171875 64.40625 4.828125 64.40625 
L 2.484375 64.40625 
L 2.484375 66.21875 
L 30.859375 66.21875 
L 30.859375 64.40625 
L 28.46875 64.40625 
Q 24.421875 64.40625 22.5625 62.015625 
Q 21.34375 60.453125 21.34375 54.5 
L 21.34375 11.71875 
Q 21.34375 6.6875 21.96875 5.078125 
Q 22.46875 3.859375 24.03125 2.984375 
Q 26.125 1.8125 28.46875 1.8125 
z
" id="TimesNewRomanPSMT-49"/>
       <path d="M 57.328125 18.3125 
L 58.9375 17.96875 
L 53.265625 0 
L 2 0 
L 2 1.8125 
L 4.5 1.8125 
Q 8.6875 1.8125 10.5 4.546875 
Q 11.53125 6.109375 11.53125 11.765625 
L 11.53125 54.5 
Q 11.53125 60.6875 10.15625 62.25 
Q 8.25 64.40625 4.5 64.40625 
L 2 64.40625 
L 2 66.21875 
L 31.984375 66.21875 
L 31.984375 64.40625 
Q 26.703125 64.453125 24.578125 63.421875 
Q 22.46875 62.40625 21.6875 60.84375 
Q 20.90625 59.28125 20.90625 53.375 
L 20.90625 11.765625 
Q 20.90625 7.71875 21.6875 6.203125 
Q 22.265625 5.171875 23.484375 4.6875 
Q 24.703125 4.203125 31.109375 4.203125 
L 35.9375 4.203125 
Q 43.5625 4.203125 46.625 5.328125 
Q 49.703125 6.453125 52.234375 9.296875 
Q 54.78125 12.15625 57.328125 18.3125 
z
" id="TimesNewRomanPSMT-4c"/>
       <path d="M 19.1875 33.34375 
Q 11.328125 39.796875 9.046875 43.703125 
Q 6.78125 47.609375 6.78125 51.8125 
Q 6.78125 58.25 11.765625 62.90625 
Q 16.75 67.578125 25 67.578125 
Q 33.015625 67.578125 37.890625 63.234375 
Q 42.78125 58.890625 42.78125 53.328125 
Q 42.78125 49.609375 40.140625 45.75 
Q 37.5 41.890625 29.15625 36.671875 
Q 37.75 30.03125 40.53125 26.21875 
Q 44.234375 21.234375 44.234375 15.71875 
Q 44.234375 8.734375 38.90625 3.78125 
Q 33.59375 -1.171875 24.953125 -1.171875 
Q 15.53125 -1.171875 10.25 4.734375 
Q 6.0625 9.46875 6.0625 15.09375 
Q 6.0625 19.484375 9.015625 23.796875 
Q 11.96875 28.125 19.1875 33.34375 
z
M 26.859375 38.578125 
Q 32.71875 43.84375 34.28125 46.890625 
Q 35.84375 49.953125 35.84375 53.8125 
Q 35.84375 58.9375 32.953125 61.84375 
Q 30.078125 64.75 25.09375 64.75 
Q 20.125 64.75 17 61.859375 
Q 13.875 58.984375 13.875 55.125 
Q 13.875 52.59375 15.15625 50.046875 
Q 16.453125 47.515625 18.84375 45.21875 
z
M 21.484375 31.5 
Q 17.4375 28.078125 15.484375 24.046875 
Q 13.53125 20.015625 13.53125 15.328125 
Q 13.53125 9.03125 16.96875 5.25 
Q 20.40625 1.46875 25.734375 1.46875 
Q 31 1.46875 34.171875 4.4375 
Q 37.359375 7.421875 37.359375 11.671875 
Q 37.359375 15.1875 35.5 17.96875 
Q 32.03125 23.140625 21.484375 31.5 
z
" id="TimesNewRomanPSMT-38"/>
       <path d="M 26.125 6.890625 
L 26.125 31.25 
L 1.8125 31.25 
L 1.8125 35.25 
L 26.125 35.25 
L 26.125 59.515625 
L 30.03125 59.515625 
L 30.03125 35.25 
L 54.4375 35.25 
L 54.4375 31.25 
L 30.03125 31.25 
L 30.03125 6.890625 
z
" id="TimesNewRomanPSMT-2b"/>
       <path d="M 11.71875 59.71875 
L 27.828125 67.578125 
L 29.4375 67.578125 
L 29.4375 11.671875 
Q 29.4375 6.109375 29.90625 4.734375 
Q 30.375 3.375 31.828125 2.640625 
Q 33.296875 1.90625 37.796875 1.8125 
L 37.796875 0 
L 12.890625 0 
L 12.890625 1.8125 
Q 17.578125 1.90625 18.9375 2.609375 
Q 20.3125 3.328125 20.84375 4.515625 
Q 21.390625 5.71875 21.390625 11.671875 
L 21.390625 47.40625 
Q 21.390625 54.640625 20.90625 56.6875 
Q 20.5625 58.25 19.65625 58.984375 
Q 18.75 59.71875 17.484375 59.71875 
Q 15.671875 59.71875 12.453125 58.203125 
z
" id="TimesNewRomanPSMT-31"/>
       <path d="M 15.375 37.015625 
Q 21.875 46.046875 29.390625 46.046875 
Q 36.28125 46.046875 41.40625 40.15625 
Q 46.53125 34.28125 46.53125 24.078125 
Q 46.53125 12.15625 38.625 4.890625 
Q 31.84375 -1.375 23.484375 -1.375 
Q 19.578125 -1.375 15.546875 0.046875 
Q 11.53125 1.46875 7.328125 4.296875 
L 7.328125 50.640625 
Q 7.328125 58.25 6.953125 60 
Q 6.59375 61.765625 5.8125 62.390625 
Q 5.03125 63.03125 3.859375 63.03125 
Q 2.484375 63.03125 0.4375 62.25 
L -0.25 63.96875 
L 13.1875 69.4375 
L 15.375 69.4375 
z
M 15.375 33.890625 
L 15.375 7.125 
Q 17.875 4.6875 20.53125 3.4375 
Q 23.1875 2.203125 25.984375 2.203125 
Q 30.421875 2.203125 34.25 7.078125 
Q 38.09375 11.96875 38.09375 21.296875 
Q 38.09375 29.890625 34.25 34.5 
Q 30.421875 39.109375 25.53125 39.109375 
Q 22.953125 39.109375 20.359375 37.796875 
Q 18.40625 36.8125 15.375 33.890625 
z
" id="TimesNewRomanPSMT-62"/>
      </defs>
      <g transform="translate(440.168659 615.296875)scale(0.3 -0.3)">
       <use xlink:href="#TimesNewRomanPSMT-49"/>
       <use x="33.300781" xlink:href="#TimesNewRomanPSMT-4c"/>
       <use x="94.384766" xlink:href="#TimesNewRomanPSMT-38"/>
       <use x="144.384766" xlink:href="#TimesNewRomanPSMT-2b"/>
       <use x="200.78125" xlink:href="#TimesNewRomanPSMT-49"/>
       <use x="234.082031" xlink:href="#TimesNewRomanPSMT-4c"/>
       <use x="295.166016" xlink:href="#TimesNewRomanPSMT-31"/>
       <use x="345.166016" xlink:href="#TimesNewRomanPSMT-62"/>
      </g>
     </g>
    </g>
   </g>
   <g id="matplotlib.axis_2">
    <g id="ytick_1">
     <g id="line2d_3">
      <defs>
       <path d="M 0 0 
L -3.5 0 
" id="m19cd03caa2" style="stroke:#000000;stroke-width:0.8;"/>
      </defs>
      <g>
       <use style="stroke:#000000;stroke-width:0.8;" x="75.504688" xlink:href="#m19cd03caa2" y="587.465625"/>
      </g>
     </g>
     <g id="text_3">
      <!-- 0 -->
      <g transform="translate(53.504688 597.88125)scale(0.3 -0.3)">
       <use xlink:href="#TimesNewRomanPSMT-30"/>
      </g>
     </g>
    </g>
    <g id="ytick_2">
     <g id="line2d_4">
      <g>
       <use style="stroke:#000000;stroke-width:0.8;" x="75.504688" xlink:href="#m19cd03caa2" y="523.075392"/>
      </g>
     </g>
     <g id="text_4">
      <!-- 5 -->
      <defs>
       <path d="M 43.40625 66.21875 
L 39.59375 57.90625 
L 19.671875 57.90625 
L 15.328125 49.03125 
Q 28.265625 47.125 35.84375 39.40625 
Q 42.328125 32.765625 42.328125 23.78125 
Q 42.328125 18.5625 40.203125 14.109375 
Q 38.09375 9.671875 34.859375 6.546875 
Q 31.640625 3.421875 27.6875 1.515625 
Q 22.078125 -1.171875 16.15625 -1.171875 
Q 10.203125 -1.171875 7.484375 0.84375 
Q 4.78125 2.875 4.78125 5.328125 
Q 4.78125 6.6875 5.90625 7.734375 
Q 7.03125 8.796875 8.734375 8.796875 
Q 10.015625 8.796875 10.96875 8.40625 
Q 11.921875 8.015625 14.203125 6.390625 
Q 17.875 3.859375 21.625 3.859375 
Q 27.34375 3.859375 31.65625 8.171875 
Q 35.984375 12.5 35.984375 18.703125 
Q 35.984375 24.703125 32.125 29.90625 
Q 28.265625 35.109375 21.484375 37.9375 
Q 16.15625 40.140625 6.984375 40.484375 
L 19.671875 66.21875 
z
" id="TimesNewRomanPSMT-35"/>
      </defs>
      <g transform="translate(53.504688 533.491017)scale(0.3 -0.3)">
       <use xlink:href="#TimesNewRomanPSMT-35"/>
      </g>
     </g>
    </g>
    <g id="ytick_3">
     <g id="line2d_5">
      <g>
       <use style="stroke:#000000;stroke-width:0.8;" x="75.504688" xlink:href="#m19cd03caa2" y="458.685159"/>
      </g>
     </g>
     <g id="text_5">
      <!-- 10 -->
      <g transform="translate(38.504688 469.100784)scale(0.3 -0.3)">
       <use xlink:href="#TimesNewRomanPSMT-31"/>
       <use x="50" xlink:href="#TimesNewRomanPSMT-30"/>
      </g>
     </g>
    </g>
    <g id="ytick_4">
     <g id="line2d_6">
      <g>
       <use style="stroke:#000000;stroke-width:0.8;" x="75.504688" xlink:href="#m19cd03caa2" y="394.294927"/>
      </g>
     </g>
     <g id="text_6">
      <!-- 15 -->
      <g transform="translate(38.504688 404.710552)scale(0.3 -0.3)">
       <use xlink:href="#TimesNewRomanPSMT-31"/>
       <use x="50" xlink:href="#TimesNewRomanPSMT-35"/>
      </g>
     </g>
    </g>
    <g id="ytick_5">
     <g id="line2d_7">
      <g>
       <use style="stroke:#000000;stroke-width:0.8;" x="75.504688" xlink:href="#m19cd03caa2" y="329.904694"/>
      </g>
     </g>
     <g id="text_7">
      <!-- 20 -->
      <defs>
       <path d="M 45.84375 12.75 
L 41.21875 0 
L 2.15625 0 
L 2.15625 1.8125 
Q 19.390625 17.53125 26.421875 27.484375 
Q 33.453125 37.453125 33.453125 45.703125 
Q 33.453125 52 29.59375 56.046875 
Q 25.734375 60.109375 20.359375 60.109375 
Q 15.484375 60.109375 11.59375 57.25 
Q 7.71875 54.390625 5.859375 48.875 
L 4.046875 48.875 
Q 5.28125 57.90625 10.328125 62.734375 
Q 15.375 67.578125 22.953125 67.578125 
Q 31 67.578125 36.390625 62.40625 
Q 41.796875 57.234375 41.796875 50.203125 
Q 41.796875 45.171875 39.453125 40.140625 
Q 35.84375 32.234375 27.734375 23.390625 
Q 15.578125 10.109375 12.546875 7.375 
L 29.828125 7.375 
Q 35.109375 7.375 37.234375 7.765625 
Q 39.359375 8.15625 41.0625 9.34375 
Q 42.78125 10.546875 44.046875 12.75 
z
" id="TimesNewRomanPSMT-32"/>
      </defs>
      <g transform="translate(38.504688 340.320319)scale(0.3 -0.3)">
       <use xlink:href="#TimesNewRomanPSMT-32"/>
       <use x="50" xlink:href="#TimesNewRomanPSMT-30"/>
      </g>
     </g>
    </g>
    <g id="ytick_6">
     <g id="line2d_8">
      <g>
       <use style="stroke:#000000;stroke-width:0.8;" x="75.504688" xlink:href="#m19cd03caa2" y="265.514461"/>
      </g>
     </g>
     <g id="text_8">
      <!-- 25 -->
      <g transform="translate(38.504688 275.930086)scale(0.3 -0.3)">
       <use xlink:href="#TimesNewRomanPSMT-32"/>
       <use x="50" xlink:href="#TimesNewRomanPSMT-35"/>
      </g>
     </g>
    </g>
    <g id="ytick_7">
     <g id="line2d_9">
      <g>
       <use style="stroke:#000000;stroke-width:0.8;" x="75.504688" xlink:href="#m19cd03caa2" y="201.124228"/>
      </g>
     </g>
     <g id="text_9">
      <!-- 30 -->
      <defs>
       <path d="M 5.078125 53.609375 
Q 7.90625 60.296875 12.21875 63.9375 
Q 16.546875 67.578125 23 67.578125 
Q 30.953125 67.578125 35.203125 62.40625 
Q 38.421875 58.546875 38.421875 54.15625 
Q 38.421875 46.921875 29.34375 39.203125 
Q 35.453125 36.8125 38.578125 32.375 
Q 41.703125 27.9375 41.703125 21.921875 
Q 41.703125 13.328125 36.234375 7.03125 
Q 29.109375 -1.171875 15.578125 -1.171875 
Q 8.890625 -1.171875 6.46875 0.484375 
Q 4.046875 2.15625 4.046875 4.046875 
Q 4.046875 5.46875 5.1875 6.546875 
Q 6.34375 7.625 7.953125 7.625 
Q 9.1875 7.625 10.453125 7.234375 
Q 11.28125 6.984375 14.203125 5.4375 
Q 17.140625 3.90625 18.265625 3.609375 
Q 20.0625 3.078125 22.125 3.078125 
Q 27.09375 3.078125 30.78125 6.9375 
Q 34.46875 10.796875 34.46875 16.0625 
Q 34.46875 19.921875 32.765625 23.578125 
Q 31.5 26.3125 29.984375 27.734375 
Q 27.875 29.6875 24.21875 31.265625 
Q 20.5625 32.859375 16.75 32.859375 
L 15.1875 32.859375 
L 15.1875 34.328125 
Q 19.046875 34.8125 22.921875 37.109375 
Q 26.8125 39.40625 28.5625 42.625 
Q 30.328125 45.84375 30.328125 49.703125 
Q 30.328125 54.734375 27.171875 57.828125 
Q 24.03125 60.9375 19.34375 60.9375 
Q 11.765625 60.9375 6.6875 52.828125 
z
" id="TimesNewRomanPSMT-33"/>
      </defs>
      <g transform="translate(38.504688 211.539853)scale(0.3 -0.3)">
       <use xlink:href="#TimesNewRomanPSMT-33"/>
       <use x="50" xlink:href="#TimesNewRomanPSMT-30"/>
      </g>
     </g>
    </g>
    <g id="ytick_8">
     <g id="line2d_10">
      <g>
       <use style="stroke:#000000;stroke-width:0.8;" x="75.504688" xlink:href="#m19cd03caa2" y="136.733996"/>
      </g>
     </g>
     <g id="text_10">
      <!-- 35 -->
      <g transform="translate(38.504688 147.149621)scale(0.3 -0.3)">
       <use xlink:href="#TimesNewRomanPSMT-33"/>
       <use x="50" xlink:href="#TimesNewRomanPSMT-35"/>
      </g>
     </g>
    </g>
    <g id="ytick_9">
     <g id="line2d_11">
      <g>
       <use style="stroke:#000000;stroke-width:0.8;" x="75.504688" xlink:href="#m19cd03caa2" y="72.343763"/>
      </g>
     </g>
     <g id="text_11">
      <!-- 40 -->
      <defs>
       <path d="M 46.53125 24.421875 
L 46.53125 17.484375 
L 37.640625 17.484375 
L 37.640625 0 
L 29.59375 0 
L 29.59375 17.484375 
L 1.5625 17.484375 
L 1.5625 23.734375 
L 32.28125 67.578125 
L 37.640625 67.578125 
L 37.640625 24.421875 
z
M 29.59375 24.421875 
L 29.59375 57.28125 
L 6.34375 24.421875 
z
" id="TimesNewRomanPSMT-34"/>
      </defs>
      <g transform="translate(38.504688 82.759388)scale(0.3 -0.3)">
       <use xlink:href="#TimesNewRomanPSMT-34"/>
       <use x="50" xlink:href="#TimesNewRomanPSMT-30"/>
      </g>
     </g>
    </g>
    <g id="text_12">
     <!-- yaxis_title -->
     <defs>
      <path d="M 0.59375 44.734375 
L 21.4375 44.734375 
L 21.4375 42.921875 
L 20.40625 42.921875 
Q 18.21875 42.921875 17.109375 41.96875 
Q 16.015625 41.015625 16.015625 39.59375 
Q 16.015625 37.703125 17.625 34.328125 
L 28.515625 11.765625 
L 38.53125 36.46875 
Q 39.359375 38.484375 39.359375 40.4375 
Q 39.359375 41.3125 39.015625 41.75 
Q 38.625 42.28125 37.796875 42.59375 
Q 36.96875 42.921875 34.859375 42.921875 
L 34.859375 44.734375 
L 49.421875 44.734375 
L 49.421875 42.921875 
Q 47.609375 42.71875 46.625 42.125 
Q 45.65625 41.546875 44.484375 39.9375 
Q 44.046875 39.265625 42.828125 36.1875 
L 24.609375 -8.453125 
Q 21.96875 -14.9375 17.6875 -18.25 
Q 13.421875 -21.578125 9.46875 -21.578125 
Q 6.59375 -21.578125 4.734375 -19.921875 
Q 2.875 -18.265625 2.875 -16.109375 
Q 2.875 -14.0625 4.21875 -12.8125 
Q 5.5625 -11.578125 7.90625 -11.578125 
Q 9.515625 -11.578125 12.3125 -12.640625 
Q 14.265625 -13.375 14.75 -13.375 
Q 16.21875 -13.375 17.9375 -11.859375 
Q 19.671875 -10.359375 21.4375 -6 
L 24.609375 1.765625 
L 8.546875 35.5 
Q 7.8125 37.015625 6.203125 39.265625 
Q 4.984375 40.96875 4.203125 41.546875 
Q 3.078125 42.328125 0.59375 42.921875 
z
" id="TimesNewRomanPSMT-79"/>
      <path d="M 28.46875 6.453125 
Q 21.578125 1.125 19.828125 0.296875 
Q 17.1875 -0.921875 14.203125 -0.921875 
Q 9.578125 -0.921875 6.5625 2.25 
Q 3.5625 5.421875 3.5625 10.59375 
Q 3.5625 13.875 5.03125 16.265625 
Q 7.03125 19.578125 11.984375 22.5 
Q 16.9375 25.4375 28.46875 29.640625 
L 28.46875 31.390625 
Q 28.46875 38.09375 26.34375 40.578125 
Q 24.21875 43.0625 20.171875 43.0625 
Q 17.09375 43.0625 15.28125 41.40625 
Q 13.421875 39.75 13.421875 37.59375 
L 13.53125 34.765625 
Q 13.53125 32.515625 12.375 31.296875 
Q 11.234375 30.078125 9.375 30.078125 
Q 7.5625 30.078125 6.421875 31.34375 
Q 5.28125 32.625 5.28125 34.8125 
Q 5.28125 39.015625 9.578125 42.53125 
Q 13.875 46.046875 21.625 46.046875 
Q 27.59375 46.046875 31.390625 44.046875 
Q 34.28125 42.53125 35.640625 39.3125 
Q 36.53125 37.203125 36.53125 30.71875 
L 36.53125 15.53125 
Q 36.53125 9.125 36.765625 7.6875 
Q 37.015625 6.25 37.578125 5.765625 
Q 38.140625 5.28125 38.875 5.28125 
Q 39.65625 5.28125 40.234375 5.609375 
Q 41.265625 6.25 44.1875 9.1875 
L 44.1875 6.453125 
Q 38.71875 -0.875 33.734375 -0.875 
Q 31.34375 -0.875 29.921875 0.78125 
Q 28.515625 2.4375 28.46875 6.453125 
z
M 28.46875 9.625 
L 28.46875 26.65625 
Q 21.09375 23.734375 18.953125 22.515625 
Q 15.09375 20.359375 13.421875 18.015625 
Q 11.765625 15.671875 11.765625 12.890625 
Q 11.765625 9.375 13.859375 7.046875 
Q 15.96875 4.734375 18.703125 4.734375 
Q 22.40625 4.734375 28.46875 9.625 
z
" id="TimesNewRomanPSMT-61"/>
      <path d="M 1.3125 44.734375 
L 22.359375 44.734375 
L 22.359375 42.921875 
Q 20.359375 42.921875 19.546875 42.234375 
Q 18.75 41.546875 18.75 40.4375 
Q 18.75 39.265625 20.453125 36.8125 
Q 21 36.03125 22.078125 34.375 
L 25.25 29.296875 
L 28.90625 34.375 
Q 32.421875 39.203125 32.421875 40.484375 
Q 32.421875 41.5 31.59375 42.203125 
Q 30.765625 42.921875 28.90625 42.921875 
L 28.90625 44.734375 
L 44.046875 44.734375 
L 44.046875 42.921875 
Q 41.65625 42.78125 39.890625 41.609375 
Q 37.5 39.9375 33.34375 34.375 
L 27.25 26.21875 
L 38.375 10.203125 
Q 42.484375 4.296875 44.234375 3.09375 
Q 46 1.90625 48.78125 1.765625 
L 48.78125 0 
L 27.6875 0 
L 27.6875 1.765625 
Q 29.890625 1.765625 31.109375 2.734375 
Q 32.03125 3.421875 32.03125 4.546875 
Q 32.03125 5.671875 28.90625 10.203125 
L 22.359375 19.78125 
L 15.1875 10.203125 
Q 11.859375 5.765625 11.859375 4.9375 
Q 11.859375 3.765625 12.953125 2.8125 
Q 14.0625 1.859375 16.265625 1.765625 
L 16.265625 0 
L 1.65625 0 
L 1.65625 1.765625 
Q 3.421875 2 4.734375 2.984375 
Q 6.59375 4.390625 10.984375 10.203125 
L 20.359375 22.65625 
L 11.859375 34.96875 
Q 8.25 40.234375 6.265625 41.578125 
Q 4.296875 42.921875 1.3125 42.921875 
z
" id="TimesNewRomanPSMT-78"/>
      <path d="M 14.5 69.4375 
Q 16.546875 69.4375 17.984375 67.984375 
Q 19.4375 66.546875 19.4375 64.5 
Q 19.4375 62.453125 17.984375 60.984375 
Q 16.546875 59.515625 14.5 59.515625 
Q 12.453125 59.515625 10.984375 60.984375 
Q 9.515625 62.453125 9.515625 64.5 
Q 9.515625 66.546875 10.953125 67.984375 
Q 12.40625 69.4375 14.5 69.4375 
z
M 18.5625 46.046875 
L 18.5625 10.109375 
Q 18.5625 5.90625 19.171875 4.515625 
Q 19.78125 3.125 20.96875 2.4375 
Q 22.171875 1.765625 25.34375 1.765625 
L 25.34375 0 
L 3.609375 0 
L 3.609375 1.765625 
Q 6.890625 1.765625 8 2.390625 
Q 9.125 3.03125 9.78125 4.484375 
Q 10.453125 5.953125 10.453125 10.109375 
L 10.453125 27.34375 
Q 10.453125 34.625 10.015625 36.765625 
Q 9.671875 38.328125 8.9375 38.9375 
Q 8.203125 39.546875 6.9375 39.546875 
Q 5.5625 39.546875 3.609375 38.8125 
L 2.9375 40.578125 
L 16.40625 46.046875 
z
" id="TimesNewRomanPSMT-69"/>
      <path d="M 32.03125 46.046875 
L 32.03125 30.8125 
L 30.421875 30.8125 
Q 28.5625 37.984375 25.65625 40.578125 
Q 22.75 43.171875 18.265625 43.171875 
Q 14.84375 43.171875 12.734375 41.359375 
Q 10.640625 39.546875 10.640625 37.359375 
Q 10.640625 34.625 12.203125 32.671875 
Q 13.71875 30.671875 18.359375 28.421875 
L 25.484375 24.953125 
Q 35.40625 20.125 35.40625 12.203125 
Q 35.40625 6.109375 30.78125 2.359375 
Q 26.171875 -1.375 20.453125 -1.375 
Q 16.359375 -1.375 11.078125 0.09375 
Q 9.46875 0.59375 8.453125 0.59375 
Q 7.328125 0.59375 6.6875 -0.6875 
L 5.078125 -0.6875 
L 5.078125 15.28125 
L 6.6875 15.28125 
Q 8.0625 8.453125 11.90625 4.984375 
Q 15.765625 1.515625 20.5625 1.515625 
Q 23.921875 1.515625 26.046875 3.484375 
Q 28.171875 5.46875 28.171875 8.25 
Q 28.171875 11.625 25.796875 13.921875 
Q 23.4375 16.21875 16.359375 19.734375 
Q 9.28125 23.25 7.078125 26.078125 
Q 4.890625 28.859375 4.890625 33.109375 
Q 4.890625 38.625 8.671875 42.328125 
Q 12.453125 46.046875 18.453125 46.046875 
Q 21.09375 46.046875 24.859375 44.921875 
Q 27.34375 44.1875 28.171875 44.1875 
Q 28.953125 44.1875 29.390625 44.53125 
Q 29.828125 44.875 30.421875 46.046875 
z
" id="TimesNewRomanPSMT-73"/>
      <path d="M 50.875 -21.578125 
L -0.828125 -21.578125 
L -0.828125 -17.484375 
L 50.875 -17.484375 
z
" id="TimesNewRomanPSMT-5f"/>
      <path d="M 16.109375 59.421875 
L 16.109375 44.734375 
L 26.5625 44.734375 
L 26.5625 41.3125 
L 16.109375 41.3125 
L 16.109375 12.3125 
Q 16.109375 7.953125 17.359375 6.4375 
Q 18.609375 4.9375 20.5625 4.9375 
Q 22.171875 4.9375 23.6875 5.9375 
Q 25.203125 6.9375 26.03125 8.890625 
L 27.9375 8.890625 
Q 26.21875 4.109375 23.09375 1.6875 
Q 19.96875 -0.734375 16.65625 -0.734375 
Q 14.40625 -0.734375 12.25 0.515625 
Q 10.109375 1.765625 9.078125 4.078125 
Q 8.0625 6.390625 8.0625 11.234375 
L 8.0625 41.3125 
L 0.984375 41.3125 
L 0.984375 42.921875 
Q 3.65625 44 6.46875 46.5625 
Q 9.28125 49.125 11.46875 52.640625 
Q 12.59375 54.5 14.59375 59.421875 
z
" id="TimesNewRomanPSMT-74"/>
      <path d="M 18.5 69.4375 
L 18.5 10.109375 
Q 18.5 5.90625 19.109375 4.53125 
Q 19.734375 3.171875 21 2.46875 
Q 22.265625 1.765625 25.734375 1.765625 
L 25.734375 0 
L 3.8125 0 
L 3.8125 1.765625 
Q 6.890625 1.765625 8 2.390625 
Q 9.125 3.03125 9.765625 4.484375 
Q 10.40625 5.953125 10.40625 10.109375 
L 10.40625 50.734375 
Q 10.40625 58.296875 10.0625 60.03125 
Q 9.71875 61.765625 8.953125 62.390625 
Q 8.203125 63.03125 7.03125 63.03125 
Q 5.765625 63.03125 3.8125 62.25 
L 2.984375 63.96875 
L 16.3125 69.4375 
z
" id="TimesNewRomanPSMT-6c"/>
      <path d="M 10.640625 27.875 
Q 10.59375 17.921875 15.484375 12.25 
Q 20.359375 6.59375 26.953125 6.59375 
Q 31.34375 6.59375 34.59375 9 
Q 37.84375 11.421875 40.046875 17.28125 
L 41.546875 16.3125 
Q 40.53125 9.625 35.59375 4.125 
Q 30.671875 -1.375 23.25 -1.375 
Q 15.1875 -1.375 9.453125 4.90625 
Q 3.71875 11.1875 3.71875 21.78125 
Q 3.71875 33.25 9.59375 39.671875 
Q 15.484375 46.09375 24.359375 46.09375 
Q 31.890625 46.09375 36.71875 41.140625 
Q 41.546875 36.1875 41.546875 27.875 
z
M 10.640625 30.71875 
L 31.34375 30.71875 
Q 31.109375 35.015625 30.328125 36.765625 
Q 29.109375 39.5 26.6875 41.0625 
Q 24.265625 42.625 21.625 42.625 
Q 17.578125 42.625 14.375 39.46875 
Q 11.1875 36.328125 10.640625 30.71875 
z
" id="TimesNewRomanPSMT-65"/>
     </defs>
     <g transform="translate(28.03125 372.757031)rotate(-90)scale(0.3 -0.3)">
      <use xlink:href="#TimesNewRomanPSMT-79"/>
      <use x="50" xlink:href="#TimesNewRomanPSMT-61"/>
      <use x="94.384766" xlink:href="#TimesNewRomanPSMT-78"/>
      <use x="144.384766" xlink:href="#TimesNewRomanPSMT-69"/>
      <use x="172.167969" xlink:href="#TimesNewRomanPSMT-73"/>
      <use x="211.083984" xlink:href="#TimesNewRomanPSMT-5f"/>
      <use x="261.083984" xlink:href="#TimesNewRomanPSMT-74"/>
      <use x="288.867188" xlink:href="#TimesNewRomanPSMT-69"/>
      <use x="316.650391" xlink:href="#TimesNewRomanPSMT-74"/>
      <use x="344.433594" xlink:href="#TimesNewRomanPSMT-6c"/>
      <use x="372.216797" xlink:href="#TimesNewRomanPSMT-65"/>
     </g>
    </g>
   </g>
   <g id="LineCollection_1">
    <path clip-path="url(#pa405edb923)" d="M 137.10209 442.910116 
L 137.10209 442.910116 
" style="fill:none;stroke:#000000;stroke-width:1.5;"/>
    <path clip-path="url(#pa405edb923)" d="M 499.439752 59.465625 
L 499.439752 59.465625 
" style="fill:none;stroke:#000000;stroke-width:1.5;"/>
   </g>
   <g id="LineCollection_2">
    <path clip-path="url(#pa405edb923)" d="M 209.569623 445.807113 
L 209.569623 445.807113 
" style="fill:none;stroke:#000000;stroke-width:1.5;"/>
    <path clip-path="url(#pa405edb923)" d="M 571.907285 59.465716 
L 571.907285 59.465716 
" style="fill:none;stroke:#000000;stroke-width:1.5;"/>
   </g>
   <g id="line2d_12">
    <defs>
     <path d="M 0.2 0 
L -0.2 -0 
" id="m7cc8bca033" style="stroke:#000000;"/>
    </defs>
    <g clip-path="url(#pa405edb923)">
     <use style="stroke:#000000;" x="137.10209" xlink:href="#m7cc8bca033" y="442.910116"/>
     <use style="stroke:#000000;" x="499.439752" xlink:href="#m7cc8bca033" y="59.465625"/>
    </g>
   </g>
   <g id="line2d_13">
    <g clip-path="url(#pa405edb923)">
     <use style="stroke:#000000;" x="137.10209" xlink:href="#m7cc8bca033" y="442.910116"/>
     <use style="stroke:#000000;" x="499.439752" xlink:href="#m7cc8bca033" y="59.465625"/>
    </g>
   </g>
   <g id="line2d_14">
    <g clip-path="url(#pa405edb923)">
     <use style="stroke:#000000;" x="209.569623" xlink:href="#m7cc8bca033" y="445.807113"/>
     <use style="stroke:#000000;" x="571.907285" xlink:href="#m7cc8bca033" y="59.465716"/>
    </g>
   </g>
   <g id="line2d_15">
    <g clip-path="url(#pa405edb923)">
     <use style="stroke:#000000;" x="209.569623" xlink:href="#m7cc8bca033" y="445.807113"/>
     <use style="stroke:#000000;" x="571.907285" xlink:href="#m7cc8bca033" y="59.465716"/>
    </g>
   </g>
   <g id="patch_7">
    <path d="M 75.504688 587.465625 
L 75.504688 33.065625 
" style="fill:none;stroke:#000000;stroke-linecap:square;stroke-linejoin:miter;stroke-width:0.8;"/>
   </g>
   <g id="patch_8">
    <path d="M 633.504688 587.465625 
L 633.504688 33.065625 
" style="fill:none;stroke:#000000;stroke-linecap:square;stroke-linejoin:miter;stroke-width:0.8;"/>
   </g>
   <g id="patch_9">
    <path d="M 75.504687 587.465625 
L 633.504688 587.465625 
" style="fill:none;stroke:#000000;stroke-linecap:square;stroke-linejoin:miter;stroke-width:0.8;"/>
   </g>
   <g id="patch_10">
    <path d="M 75.504687 33.065625 
L 633.504688 33.065625 
" style="fill:none;stroke:#000000;stroke-linecap:square;stroke-linejoin:miter;stroke-width:0.8;"/>
   </g>
   <g id="text_13">
    <!-- ALP -->
    <defs>
     <path d="M 41.609375 18.84375 
L 18.21875 18.84375 
L 15.4375 12.40625 
Q 14.0625 9.1875 14.0625 7.078125 
Q 14.0625 4.296875 16.3125 2.984375 
Q 17.625 2.203125 22.796875 1.8125 
L 22.796875 0 
L 0.78125 0 
L 0.78125 1.8125 
Q 4.34375 2.34375 6.640625 4.75 
Q 8.9375 7.171875 12.3125 14.75 
L 35.984375 67.578125 
L 36.921875 67.578125 
L 60.796875 13.28125 
Q 64.203125 5.5625 66.40625 3.5625 
Q 68.0625 2.046875 71.09375 1.8125 
L 71.09375 0 
L 39.0625 0 
L 39.0625 1.8125 
L 40.375 1.8125 
Q 44.234375 1.8125 45.796875 2.875 
Q 46.875 3.65625 46.875 5.125 
Q 46.875 6 46.578125 6.9375 
Q 46.484375 7.375 45.125 10.59375 
z
M 39.9375 22.46875 
L 30.078125 45.265625 
L 19.921875 22.46875 
z
" id="TimesNewRomanPS-BoldMT-41"/>
     <path d="M 63.140625 23.25 
L 60.640625 0 
L 1.859375 0 
L 1.859375 1.8125 
L 4.046875 1.8125 
Q 6.9375 1.8125 8.6875 2.828125 
Q 9.96875 3.515625 10.640625 5.171875 
Q 11.1875 6.34375 11.1875 11.328125 
L 11.1875 54.890625 
Q 11.1875 59.96875 10.640625 61.234375 
Q 10.109375 62.5 8.46875 63.453125 
Q 6.84375 64.40625 4.046875 64.40625 
L 1.859375 64.40625 
L 1.859375 66.21875 
L 37.15625 66.21875 
L 37.15625 64.40625 
L 34.28125 64.40625 
Q 31.390625 64.40625 29.640625 63.375 
Q 28.375 62.703125 27.640625 61.03125 
Q 27.09375 59.859375 27.09375 54.890625 
L 27.09375 12.703125 
Q 27.09375 7.625 27.671875 6.21875 
Q 28.265625 4.828125 29.984375 4.15625 
Q 31.203125 3.71875 35.890625 3.71875 
L 41.40625 3.71875 
Q 46.6875 3.71875 50.203125 5.5625 
Q 53.71875 7.421875 56.28125 11.421875 
Q 58.84375 15.4375 61.140625 23.25 
z
" id="TimesNewRomanPS-BoldMT-4c"/>
     <path d="M 27 29.984375 
L 27 11.625 
Q 27 6.25 27.65625 4.859375 
Q 28.328125 3.46875 30 2.640625 
Q 31.6875 1.8125 36.1875 1.8125 
L 36.1875 0 
L 2.546875 0 
L 2.546875 1.8125 
Q 7.125 1.8125 8.765625 2.65625 
Q 10.40625 3.515625 11.0625 4.875 
Q 11.71875 6.25 11.71875 11.625 
L 11.71875 54.59375 
Q 11.71875 59.96875 11.0625 61.359375 
Q 10.40625 62.75 8.734375 63.578125 
Q 7.078125 64.40625 2.546875 64.40625 
L 2.546875 66.21875 
L 31.390625 66.21875 
Q 45.65625 66.21875 51.859375 61.140625 
Q 58.0625 56.0625 58.0625 48.4375 
Q 58.0625 42 54.046875 37.40625 
Q 50.046875 32.8125 43.015625 31.15625 
Q 38.28125 29.984375 27 29.984375 
z
M 27 62.40625 
L 27 33.796875 
Q 28.609375 33.6875 29.4375 33.6875 
Q 35.40625 33.6875 38.625 37.21875 
Q 41.84375 40.765625 41.84375 48.1875 
Q 41.84375 55.5625 38.625 58.984375 
Q 35.40625 62.40625 29 62.40625 
z
" id="TimesNewRomanPS-BoldMT-50"/>
    </defs>
    <g transform="translate(324.504687 27.065625)scale(0.3 -0.3)">
     <use xlink:href="#TimesNewRomanPS-BoldMT-41"/>
     <use x="72.216797" xlink:href="#TimesNewRomanPS-BoldMT-4c"/>
     <use x="138.916016" xlink:href="#TimesNewRomanPS-BoldMT-50"/>
    </g>
   </g>
   <g id="legend_1">
    <g id="patch_11">
     <path d="M 981.153125 186.9 
L 1125.504688 186.9 
Q 1131.504688 186.9 1131.504688 180.9 
L 1131.504688 99.065625 
Q 1131.504688 93.065625 1125.504688 93.065625 
L 981.153125 93.065625 
Q 975.153125 93.065625 975.153125 99.065625 
L 975.153125 180.9 
Q 975.153125 186.9 981.153125 186.9 
z
" style="fill:#ffffff;opacity:0.8;stroke:#cccccc;stroke-linejoin:miter;"/>
    </g>
    <g id="patch_12">
     <path d="M 987.153125 126.065625 
L 1047.153125 126.065625 
L 1047.153125 105.065625 
L 987.153125 105.065625 
z
" style="fill:#00ff00;stroke:#000000;stroke-linejoin:miter;"/>
    </g>
    <g id="text_14">
     <!-- Sim -->
     <defs>
      <path d="M 45.84375 67.71875 
L 45.84375 44.828125 
L 44.046875 44.828125 
Q 43.171875 51.421875 40.890625 55.328125 
Q 38.625 59.234375 34.421875 61.515625 
Q 30.21875 63.8125 25.734375 63.8125 
Q 20.65625 63.8125 17.328125 60.71875 
Q 14.015625 57.625 14.015625 53.65625 
Q 14.015625 50.640625 16.109375 48.140625 
Q 19.140625 44.484375 30.515625 38.375 
Q 39.796875 33.40625 43.1875 30.734375 
Q 46.578125 28.078125 48.40625 24.453125 
Q 50.25 20.84375 50.25 16.890625 
Q 50.25 9.375 44.40625 3.921875 
Q 38.578125 -1.515625 29.390625 -1.515625 
Q 26.515625 -1.515625 23.96875 -1.078125 
Q 22.46875 -0.828125 17.703125 0.703125 
Q 12.9375 2.25 11.671875 2.25 
Q 10.453125 2.25 9.734375 1.515625 
Q 9.03125 0.78125 8.6875 -1.515625 
L 6.890625 -1.515625 
L 6.890625 21.1875 
L 8.6875 21.1875 
Q 9.96875 14.0625 12.109375 10.515625 
Q 14.265625 6.984375 18.671875 4.640625 
Q 23.09375 2.296875 28.375 2.296875 
Q 34.46875 2.296875 38 5.515625 
Q 41.546875 8.734375 41.546875 13.140625 
Q 41.546875 15.578125 40.203125 18.0625 
Q 38.875 20.5625 36.03125 22.703125 
Q 34.125 24.171875 25.625 28.921875 
Q 17.140625 33.6875 13.546875 36.515625 
Q 9.96875 39.359375 8.109375 42.765625 
Q 6.25 46.1875 6.25 50.296875 
Q 6.25 57.421875 11.71875 62.5625 
Q 17.1875 67.71875 25.640625 67.71875 
Q 30.90625 67.71875 36.8125 65.140625 
Q 39.546875 63.921875 40.671875 63.921875 
Q 41.9375 63.921875 42.75 64.671875 
Q 43.5625 65.4375 44.046875 67.71875 
z
" id="TimesNewRomanPSMT-53"/>
      <path d="M 16.40625 36.53125 
Q 21.296875 41.40625 22.171875 42.140625 
Q 24.359375 44 26.890625 45.015625 
Q 29.4375 46.046875 31.9375 46.046875 
Q 36.140625 46.046875 39.15625 43.59375 
Q 42.1875 41.15625 43.21875 36.53125 
Q 48.25 42.390625 51.703125 44.21875 
Q 55.171875 46.046875 58.84375 46.046875 
Q 62.40625 46.046875 65.15625 44.21875 
Q 67.921875 42.390625 69.53125 38.234375 
Q 70.609375 35.40625 70.609375 29.34375 
L 70.609375 10.109375 
Q 70.609375 5.90625 71.234375 4.34375 
Q 71.734375 3.265625 73.046875 2.515625 
Q 74.359375 1.765625 77.34375 1.765625 
L 77.34375 0 
L 55.28125 0 
L 55.28125 1.765625 
L 56.203125 1.765625 
Q 59.078125 1.765625 60.6875 2.875 
Q 61.8125 3.65625 62.3125 5.375 
Q 62.5 6.203125 62.5 10.109375 
L 62.5 29.34375 
Q 62.5 34.8125 61.1875 37.0625 
Q 59.28125 40.1875 55.078125 40.1875 
Q 52.484375 40.1875 49.875 38.890625 
Q 47.265625 37.59375 43.5625 34.078125 
L 43.453125 33.546875 
L 43.5625 31.453125 
L 43.5625 10.109375 
Q 43.5625 5.515625 44.0625 4.390625 
Q 44.578125 3.265625 45.984375 2.515625 
Q 47.40625 1.765625 50.828125 1.765625 
L 50.828125 0 
L 28.21875 0 
L 28.21875 1.765625 
Q 31.9375 1.765625 33.328125 2.640625 
Q 34.71875 3.515625 35.25 5.28125 
Q 35.5 6.109375 35.5 10.109375 
L 35.5 29.34375 
Q 35.5 34.8125 33.890625 37.203125 
Q 31.734375 40.328125 27.875 40.328125 
Q 25.25 40.328125 22.65625 38.921875 
Q 18.609375 36.765625 16.40625 34.078125 
L 16.40625 10.109375 
Q 16.40625 5.71875 17.015625 4.390625 
Q 17.625 3.078125 18.8125 2.421875 
Q 20.015625 1.765625 23.6875 1.765625 
L 23.6875 0 
L 1.5625 0 
L 1.5625 1.765625 
Q 4.640625 1.765625 5.859375 2.421875 
Q 7.078125 3.078125 7.703125 4.515625 
Q 8.34375 5.953125 8.34375 10.109375 
L 8.34375 27.203125 
Q 8.34375 34.578125 7.90625 36.71875 
Q 7.5625 38.328125 6.828125 38.9375 
Q 6.109375 39.546875 4.828125 39.546875 
Q 3.46875 39.546875 1.5625 38.8125 
L 0.828125 40.578125 
L 14.3125 46.046875 
L 16.40625 46.046875 
z
" id="TimesNewRomanPSMT-6d"/>
     </defs>
     <g transform="translate(1071.153125 126.065625)scale(0.3 -0.3)">
      <use xlink:href="#TimesNewRomanPSMT-53"/>
      <use x="55.615234" xlink:href="#TimesNewRomanPSMT-69"/>
      <use x="83.398438" xlink:href="#TimesNewRomanPSMT-6d"/>
     </g>
    </g>
    <g id="patch_13">
     <path d="M 987.153125 168.482813 
L 1047.153125 168.482813 
L 1047.153125 147.482813 
L 987.153125 147.482813 
z
" style="fill:#ee82ee;stroke:#000000;stroke-linejoin:miter;"/>
    </g>
    <g id="text_15">
     <!-- Exp -->
     <defs>
      <path d="M 20.90625 62.59375 
L 20.90625 36.421875 
L 35.453125 36.421875 
Q 41.109375 36.421875 43.015625 38.140625 
Q 45.5625 40.375 45.84375 46.046875 
L 47.65625 46.046875 
L 47.65625 23 
L 45.84375 23 
Q 45.171875 27.828125 44.484375 29.203125 
Q 43.609375 30.90625 41.59375 31.875 
Q 39.59375 32.859375 35.453125 32.859375 
L 20.90625 32.859375 
L 20.90625 11.03125 
Q 20.90625 6.640625 21.296875 5.6875 
Q 21.6875 4.734375 22.65625 4.171875 
Q 23.640625 3.609375 26.375 3.609375 
L 37.59375 3.609375 
Q 43.21875 3.609375 45.75 4.390625 
Q 48.296875 5.171875 50.640625 7.46875 
Q 53.65625 10.5 56.84375 16.609375 
L 58.796875 16.609375 
L 53.078125 0 
L 2.046875 0 
L 2.046875 1.8125 
L 4.390625 1.8125 
Q 6.734375 1.8125 8.84375 2.9375 
Q 10.40625 3.71875 10.96875 5.28125 
Q 11.53125 6.84375 11.53125 11.671875 
L 11.53125 54.6875 
Q 11.53125 60.984375 10.25 62.453125 
Q 8.5 64.40625 4.390625 64.40625 
L 2.046875 64.40625 
L 2.046875 66.21875 
L 53.078125 66.21875 
L 53.8125 51.703125 
L 51.90625 51.703125 
Q 50.875 56.9375 49.625 58.890625 
Q 48.390625 60.84375 45.953125 61.859375 
Q 44 62.59375 39.0625 62.59375 
z
" id="TimesNewRomanPSMT-45"/>
      <path d="M -0.09375 40.28125 
L 13.671875 45.84375 
L 15.53125 45.84375 
L 15.53125 35.40625 
Q 19 41.3125 22.484375 43.671875 
Q 25.984375 46.046875 29.828125 46.046875 
Q 36.578125 46.046875 41.0625 40.765625 
Q 46.578125 34.328125 46.578125 23.96875 
Q 46.578125 12.40625 39.9375 4.828125 
Q 34.46875 -1.375 26.171875 -1.375 
Q 22.5625 -1.375 19.921875 -0.34375 
Q 17.96875 0.390625 15.53125 2.59375 
L 15.53125 -11.03125 
Q 15.53125 -15.625 16.09375 -16.859375 
Q 16.65625 -18.109375 18.046875 -18.84375 
Q 19.4375 -19.578125 23.09375 -19.578125 
L 23.09375 -21.390625 
L -0.34375 -21.390625 
L -0.34375 -19.578125 
L 0.875 -19.578125 
Q 3.5625 -19.625 5.46875 -18.5625 
Q 6.390625 -18.015625 6.90625 -16.8125 
Q 7.421875 -15.625 7.421875 -10.75 
L 7.421875 31.546875 
Q 7.421875 35.890625 7.03125 37.0625 
Q 6.640625 38.234375 5.78125 38.8125 
Q 4.9375 39.40625 3.46875 39.40625 
Q 2.296875 39.40625 0.484375 38.71875 
z
M 15.53125 32.515625 
L 15.53125 15.828125 
Q 15.53125 10.40625 15.96875 8.6875 
Q 16.65625 5.859375 19.3125 3.703125 
Q 21.96875 1.5625 26.03125 1.5625 
Q 30.90625 1.5625 33.9375 5.375 
Q 37.890625 10.359375 37.890625 19.390625 
Q 37.890625 29.640625 33.40625 35.15625 
Q 30.28125 38.96875 25.984375 38.96875 
Q 23.640625 38.96875 21.34375 37.796875 
Q 19.578125 36.921875 15.53125 32.515625 
z
" id="TimesNewRomanPSMT-70"/>
     </defs>
     <g transform="translate(1071.153125 168.482813)scale(0.3 -0.3)">
      <use xlink:href="#TimesNewRomanPSMT-45"/>
      <use x="61.083984" xlink:href="#TimesNewRomanPSMT-78"/>
      <use x="111.083984" xlink:href="#TimesNewRomanPSMT-70"/>
     </g>
    </g>
   </g>
  </g>
 </g>
 <defs>
  <clipPath id="pa405edb923">
   <rect height="554.4" width="558" x="75.504688" y="33.065625"/>
  </clipPath>
 </defs>
</svg>
