<?xml version="1.0" encoding="utf-8" standalone="no"?>
<!DOCTYPE svg PUBLIC "-//W3C//DTD SVG 1.1//EN"
  "http://www.w3.org/Graphics/SVG/1.1/DTD/svg11.dtd">
<!-- Created with matplotlib (http://matplotlib.org/) -->
<svg height="320.265625pt" version="1.1" viewBox="0 0 351.065625 320.265625" width="351.065625pt" xmlns="http://www.w3.org/2000/svg" xmlns:xlink="http://www.w3.org/1999/xlink">
 <defs>
  <style type="text/css">
*{stroke-linecap:butt;stroke-linejoin:round;}
  </style>
 </defs>
 <g id="figure_1">
  <g id="patch_1">
   <path d="M 0 320.265625 
L 351.065625 320.265625 
L 351.065625 0 
L 0 0 
z
" style="fill:#ffffff;"/>
  </g>
  <g id="axes_1">
   <g id="patch_2">
    <path d="M 61.365625 136.7 
L 340.365625 136.7 
L 340.365625 10.7 
L 61.365625 10.7 
z
" style="fill:#ffffff;"/>
   </g>
   <g id="patch_3">
    <path clip-path="url(#p3565b6220d)" d="M 74.047443 136.7 
L 80.562076 136.7 
L 80.562076 82.781015 
L 74.047443 82.781015 
z
" style="fill:#00ff00;stroke:#000000;stroke-linejoin:miter;"/>
   </g>
   <g id="patch_4">
    <path clip-path="url(#p3565b6220d)" d="M 183.493271 136.7 
L 190.007904 136.7 
L 190.007904 19.784443 
L 183.493271 19.784443 
z
" style="fill:#00ff00;stroke:#000000;stroke-linejoin:miter;"/>
   </g>
   <g id="patch_5">
    <path clip-path="url(#p3565b6220d)" d="M 292.939099 136.7 
L 299.453732 136.7 
L 299.453732 19.784443 
L 292.939099 19.784443 
z
" style="fill:#00ff00;stroke:#000000;stroke-linejoin:miter;"/>
   </g>
   <g id="patch_6">
    <path clip-path="url(#p3565b6220d)" d="M 80.562076 136.7 
L 87.076708 136.7 
L 87.076708 82.968657 
L 80.562076 82.968657 
z
" style="fill:url(#h817ba74232);stroke:#000000;stroke-linejoin:miter;"/>
   </g>
   <g id="patch_7">
    <path clip-path="url(#p3565b6220d)" d="M 190.007904 136.7 
L 196.522537 136.7 
L 196.522537 41.774627 
L 190.007904 41.774627 
z
" style="fill:url(#h817ba74232);stroke:#000000;stroke-linejoin:miter;"/>
   </g>
   <g id="patch_8">
    <path clip-path="url(#p3565b6220d)" d="M 299.453732 136.7 
L 305.968365 136.7 
L 305.968365 18.491045 
L 299.453732 18.491045 
z
" style="fill:url(#h817ba74232);stroke:#000000;stroke-linejoin:miter;"/>
   </g>
   <g id="patch_9">
    <path clip-path="url(#p3565b6220d)" d="M 95.762885 136.7 
L 102.277518 136.7 
L 102.277518 65.058218 
L 95.762885 65.058218 
z
" style="fill:#ee82ee;stroke:#000000;stroke-linejoin:miter;"/>
   </g>
   <g id="patch_10">
    <path clip-path="url(#p3565b6220d)" d="M 205.208713 136.7 
L 211.723346 136.7 
L 211.723346 19.784443 
L 205.208713 19.784443 
z
" style="fill:#ee82ee;stroke:#000000;stroke-linejoin:miter;"/>
   </g>
   <g id="patch_11">
    <path clip-path="url(#p3565b6220d)" d="M 314.654542 136.7 
L 321.169174 136.7 
L 321.169174 19.784443 
L 314.654542 19.784443 
z
" style="fill:#ee82ee;stroke:#000000;stroke-linejoin:miter;"/>
   </g>
   <g id="patch_12">
    <path clip-path="url(#p3565b6220d)" d="M 102.277518 136.7 
L 108.792151 136.7 
L 108.792151 65.058209 
L 102.277518 65.058209 
z
" style="fill:url(#h8f20025132);stroke:#000000;stroke-linejoin:miter;"/>
   </g>
   <g id="patch_13">
    <path clip-path="url(#p3565b6220d)" d="M 211.723346 136.7 
L 218.237979 136.7 
L 218.237979 20.28209 
L 211.723346 20.28209 
z
" style="fill:url(#h8f20025132);stroke:#000000;stroke-linejoin:miter;"/>
   </g>
   <g id="patch_14">
    <path clip-path="url(#p3565b6220d)" d="M 321.169174 136.7 
L 327.683807 136.7 
L 327.683807 16.7 
L 321.169174 16.7 
z
" style="fill:url(#h8f20025132);stroke:#000000;stroke-linejoin:miter;"/>
   </g>
   <g id="matplotlib.axis_1">
    <g id="xtick_1">
     <g id="line2d_1">
      <defs>
       <path d="M 0 0 
L 0 3.5 
" id="mb098cf3e91" style="stroke:#000000;stroke-width:0.8;"/>
      </defs>
      <g>
       <use style="stroke:#000000;stroke-width:0.8;" x="91.419797" xlink:href="#mb098cf3e91" y="136.7"/>
      </g>
     </g>
     <g id="text_1">
      <!-- 168 -->
      <defs>
       <path d="M 11.71875 59.71875 
L 27.828125 67.578125 
L 29.4375 67.578125 
L 29.4375 11.671875 
Q 29.4375 6.109375 29.90625 4.734375 
Q 30.375 3.375 31.828125 2.640625 
Q 33.296875 1.90625 37.796875 1.8125 
L 37.796875 0 
L 12.890625 0 
L 12.890625 1.8125 
Q 17.578125 1.90625 18.9375 2.609375 
Q 20.3125 3.328125 20.84375 4.515625 
Q 21.390625 5.71875 21.390625 11.671875 
L 21.390625 47.40625 
Q 21.390625 54.640625 20.90625 56.6875 
Q 20.5625 58.25 19.65625 58.984375 
Q 18.75 59.71875 17.484375 59.71875 
Q 15.671875 59.71875 12.453125 58.203125 
z
" id="TimesNewRomanPSMT-31"/>
       <path d="M 44.828125 67.578125 
L 44.828125 65.765625 
Q 38.375 65.140625 34.296875 63.203125 
Q 30.21875 61.28125 26.234375 57.328125 
Q 22.265625 53.375 19.65625 48.515625 
Q 17.046875 43.65625 15.28125 36.96875 
Q 22.3125 41.796875 29.390625 41.796875 
Q 36.1875 41.796875 41.15625 36.328125 
Q 46.140625 30.859375 46.140625 22.265625 
Q 46.140625 13.96875 41.109375 7.125 
Q 35.0625 -1.171875 25.09375 -1.171875 
Q 18.3125 -1.171875 13.578125 3.328125 
Q 4.296875 12.0625 4.296875 25.984375 
Q 4.296875 34.859375 7.859375 42.859375 
Q 11.421875 50.875 18.03125 57.078125 
Q 24.65625 63.28125 30.703125 65.421875 
Q 36.765625 67.578125 42 67.578125 
z
M 14.453125 33.40625 
Q 13.578125 26.8125 13.578125 22.75 
Q 13.578125 18.0625 15.3125 12.5625 
Q 17.046875 7.078125 20.453125 3.859375 
Q 22.953125 1.5625 26.515625 1.5625 
Q 30.765625 1.5625 34.109375 5.5625 
Q 37.453125 9.578125 37.453125 17 
Q 37.453125 25.34375 34.125 31.4375 
Q 30.8125 37.546875 24.703125 37.546875 
Q 22.859375 37.546875 20.734375 36.765625 
Q 18.609375 35.984375 14.453125 33.40625 
z
" id="TimesNewRomanPSMT-36"/>
       <path d="M 19.1875 33.34375 
Q 11.328125 39.796875 9.046875 43.703125 
Q 6.78125 47.609375 6.78125 51.8125 
Q 6.78125 58.25 11.765625 62.90625 
Q 16.75 67.578125 25 67.578125 
Q 33.015625 67.578125 37.890625 63.234375 
Q 42.78125 58.890625 42.78125 53.328125 
Q 42.78125 49.609375 40.140625 45.75 
Q 37.5 41.890625 29.15625 36.671875 
Q 37.75 30.03125 40.53125 26.21875 
Q 44.234375 21.234375 44.234375 15.71875 
Q 44.234375 8.734375 38.90625 3.78125 
Q 33.59375 -1.171875 24.953125 -1.171875 
Q 15.53125 -1.171875 10.25 4.734375 
Q 6.0625 9.46875 6.0625 15.09375 
Q 6.0625 19.484375 9.015625 23.796875 
Q 11.96875 28.125 19.1875 33.34375 
z
M 26.859375 38.578125 
Q 32.71875 43.84375 34.28125 46.890625 
Q 35.84375 49.953125 35.84375 53.8125 
Q 35.84375 58.9375 32.953125 61.84375 
Q 30.078125 64.75 25.09375 64.75 
Q 20.125 64.75 17 61.859375 
Q 13.875 58.984375 13.875 55.125 
Q 13.875 52.59375 15.15625 50.046875 
Q 16.453125 47.515625 18.84375 45.21875 
z
M 21.484375 31.5 
Q 17.4375 28.078125 15.484375 24.046875 
Q 13.53125 20.015625 13.53125 15.328125 
Q 13.53125 9.03125 16.96875 5.25 
Q 20.40625 1.46875 25.734375 1.46875 
Q 31 1.46875 34.171875 4.4375 
Q 37.359375 7.421875 37.359375 11.671875 
Q 37.359375 15.1875 35.5 17.96875 
Q 32.03125 23.140625 21.484375 31.5 
z
" id="TimesNewRomanPSMT-38"/>
      </defs>
      <g transform="translate(76.419797 157.5875)scale(0.2 -0.2)">
       <use xlink:href="#TimesNewRomanPSMT-31"/>
       <use x="50" xlink:href="#TimesNewRomanPSMT-36"/>
       <use x="100" xlink:href="#TimesNewRomanPSMT-38"/>
      </g>
     </g>
    </g>
    <g id="xtick_2">
     <g id="line2d_2">
      <g>
       <use style="stroke:#000000;stroke-width:0.8;" x="200.865625" xlink:href="#mb098cf3e91" y="136.7"/>
      </g>
     </g>
     <g id="text_2">
      <!-- 336 -->
      <defs>
       <path d="M 5.078125 53.609375 
Q 7.90625 60.296875 12.21875 63.9375 
Q 16.546875 67.578125 23 67.578125 
Q 30.953125 67.578125 35.203125 62.40625 
Q 38.421875 58.546875 38.421875 54.15625 
Q 38.421875 46.921875 29.34375 39.203125 
Q 35.453125 36.8125 38.578125 32.375 
Q 41.703125 27.9375 41.703125 21.921875 
Q 41.703125 13.328125 36.234375 7.03125 
Q 29.109375 -1.171875 15.578125 -1.171875 
Q 8.890625 -1.171875 6.46875 0.484375 
Q 4.046875 2.15625 4.046875 4.046875 
Q 4.046875 5.46875 5.1875 6.546875 
Q 6.34375 7.625 7.953125 7.625 
Q 9.1875 7.625 10.453125 7.234375 
Q 11.28125 6.984375 14.203125 5.4375 
Q 17.140625 3.90625 18.265625 3.609375 
Q 20.0625 3.078125 22.125 3.078125 
Q 27.09375 3.078125 30.78125 6.9375 
Q 34.46875 10.796875 34.46875 16.0625 
Q 34.46875 19.921875 32.765625 23.578125 
Q 31.5 26.3125 29.984375 27.734375 
Q 27.875 29.6875 24.21875 31.265625 
Q 20.5625 32.859375 16.75 32.859375 
L 15.1875 32.859375 
L 15.1875 34.328125 
Q 19.046875 34.8125 22.921875 37.109375 
Q 26.8125 39.40625 28.5625 42.625 
Q 30.328125 45.84375 30.328125 49.703125 
Q 30.328125 54.734375 27.171875 57.828125 
Q 24.03125 60.9375 19.34375 60.9375 
Q 11.765625 60.9375 6.6875 52.828125 
z
" id="TimesNewRomanPSMT-33"/>
      </defs>
      <g transform="translate(185.865625 157.5875)scale(0.2 -0.2)">
       <use xlink:href="#TimesNewRomanPSMT-33"/>
       <use x="50" xlink:href="#TimesNewRomanPSMT-33"/>
       <use x="100" xlink:href="#TimesNewRomanPSMT-36"/>
      </g>
     </g>
    </g>
    <g id="xtick_3">
     <g id="line2d_3">
      <g>
       <use style="stroke:#000000;stroke-width:0.8;" x="310.311453" xlink:href="#mb098cf3e91" y="136.7"/>
      </g>
     </g>
     <g id="text_3">
      <!-- 504 -->
      <defs>
       <path d="M 43.40625 66.21875 
L 39.59375 57.90625 
L 19.671875 57.90625 
L 15.328125 49.03125 
Q 28.265625 47.125 35.84375 39.40625 
Q 42.328125 32.765625 42.328125 23.78125 
Q 42.328125 18.5625 40.203125 14.109375 
Q 38.09375 9.671875 34.859375 6.546875 
Q 31.640625 3.421875 27.6875 1.515625 
Q 22.078125 -1.171875 16.15625 -1.171875 
Q 10.203125 -1.171875 7.484375 0.84375 
Q 4.78125 2.875 4.78125 5.328125 
Q 4.78125 6.6875 5.90625 7.734375 
Q 7.03125 8.796875 8.734375 8.796875 
Q 10.015625 8.796875 10.96875 8.40625 
Q 11.921875 8.015625 14.203125 6.390625 
Q 17.875 3.859375 21.625 3.859375 
Q 27.34375 3.859375 31.65625 8.171875 
Q 35.984375 12.5 35.984375 18.703125 
Q 35.984375 24.703125 32.125 29.90625 
Q 28.265625 35.109375 21.484375 37.9375 
Q 16.15625 40.140625 6.984375 40.484375 
L 19.671875 66.21875 
z
" id="TimesNewRomanPSMT-35"/>
       <path d="M 3.609375 32.71875 
Q 3.609375 44.046875 7.03125 52.21875 
Q 10.453125 60.40625 16.109375 64.40625 
Q 20.515625 67.578125 25.203125 67.578125 
Q 32.8125 67.578125 38.875 59.8125 
Q 46.4375 50.203125 46.4375 33.734375 
Q 46.4375 22.21875 43.109375 14.15625 
Q 39.796875 6.109375 34.640625 2.46875 
Q 29.5 -1.171875 24.703125 -1.171875 
Q 15.234375 -1.171875 8.9375 10.015625 
Q 3.609375 19.4375 3.609375 32.71875 
z
M 13.1875 31.5 
Q 13.1875 17.828125 16.546875 9.1875 
Q 19.34375 1.90625 24.859375 1.90625 
Q 27.484375 1.90625 30.3125 4.265625 
Q 33.15625 6.640625 34.625 12.203125 
Q 36.859375 20.609375 36.859375 35.890625 
Q 36.859375 47.21875 34.515625 54.78125 
Q 32.765625 60.40625 29.984375 62.75 
Q 27.984375 64.359375 25.140625 64.359375 
Q 21.828125 64.359375 19.234375 61.375 
Q 15.71875 57.328125 14.453125 48.625 
Q 13.1875 39.9375 13.1875 31.5 
z
" id="TimesNewRomanPSMT-30"/>
       <path d="M 46.53125 24.421875 
L 46.53125 17.484375 
L 37.640625 17.484375 
L 37.640625 0 
L 29.59375 0 
L 29.59375 17.484375 
L 1.5625 17.484375 
L 1.5625 23.734375 
L 32.28125 67.578125 
L 37.640625 67.578125 
L 37.640625 24.421875 
z
M 29.59375 24.421875 
L 29.59375 57.28125 
L 6.34375 24.421875 
z
" id="TimesNewRomanPSMT-34"/>
      </defs>
      <g transform="translate(295.311453 157.5875)scale(0.2 -0.2)">
       <use xlink:href="#TimesNewRomanPSMT-35"/>
       <use x="50" xlink:href="#TimesNewRomanPSMT-30"/>
       <use x="100" xlink:href="#TimesNewRomanPSMT-34"/>
      </g>
     </g>
    </g>
   </g>
   <g id="matplotlib.axis_2">
    <g id="ytick_1">
     <g id="line2d_4">
      <defs>
       <path d="M 0 0 
L -3.5 0 
" id="me9968d7267" style="stroke:#000000;stroke-width:0.8;"/>
      </defs>
      <g>
       <use style="stroke:#000000;stroke-width:0.8;" x="61.365625" xlink:href="#me9968d7267" y="136.7"/>
      </g>
     </g>
     <g id="text_4">
      <!-- 0.0 -->
      <defs>
       <path d="M 12.5 9.46875 
Q 14.796875 9.46875 16.359375 7.875 
Q 17.921875 6.296875 17.921875 4.046875 
Q 17.921875 1.8125 16.328125 0.21875 
Q 14.75 -1.375 12.5 -1.375 
Q 10.25 -1.375 8.65625 0.21875 
Q 7.078125 1.8125 7.078125 4.046875 
Q 7.078125 6.34375 8.65625 7.90625 
Q 10.25 9.46875 12.5 9.46875 
z
" id="TimesNewRomanPSMT-2e"/>
      </defs>
      <g transform="translate(29.365625 143.64375)scale(0.2 -0.2)">
       <use xlink:href="#TimesNewRomanPSMT-30"/>
       <use x="50" xlink:href="#TimesNewRomanPSMT-2e"/>
       <use x="75" xlink:href="#TimesNewRomanPSMT-30"/>
      </g>
     </g>
    </g>
    <g id="ytick_2">
     <g id="line2d_5">
      <g>
       <use style="stroke:#000000;stroke-width:0.8;" x="61.365625" xlink:href="#me9968d7267" y="100.879104"/>
      </g>
     </g>
     <g id="text_5">
      <!-- 0.2 -->
      <defs>
       <path d="M 45.84375 12.75 
L 41.21875 0 
L 2.15625 0 
L 2.15625 1.8125 
Q 19.390625 17.53125 26.421875 27.484375 
Q 33.453125 37.453125 33.453125 45.703125 
Q 33.453125 52 29.59375 56.046875 
Q 25.734375 60.109375 20.359375 60.109375 
Q 15.484375 60.109375 11.59375 57.25 
Q 7.71875 54.390625 5.859375 48.875 
L 4.046875 48.875 
Q 5.28125 57.90625 10.328125 62.734375 
Q 15.375 67.578125 22.953125 67.578125 
Q 31 67.578125 36.390625 62.40625 
Q 41.796875 57.234375 41.796875 50.203125 
Q 41.796875 45.171875 39.453125 40.140625 
Q 35.84375 32.234375 27.734375 23.390625 
Q 15.578125 10.109375 12.546875 7.375 
L 29.828125 7.375 
Q 35.109375 7.375 37.234375 7.765625 
Q 39.359375 8.15625 41.0625 9.34375 
Q 42.78125 10.546875 44.046875 12.75 
z
" id="TimesNewRomanPSMT-32"/>
      </defs>
      <g transform="translate(29.365625 107.822854)scale(0.2 -0.2)">
       <use xlink:href="#TimesNewRomanPSMT-30"/>
       <use x="50" xlink:href="#TimesNewRomanPSMT-2e"/>
       <use x="75" xlink:href="#TimesNewRomanPSMT-32"/>
      </g>
     </g>
    </g>
    <g id="ytick_3">
     <g id="line2d_6">
      <g>
       <use style="stroke:#000000;stroke-width:0.8;" x="61.365625" xlink:href="#me9968d7267" y="65.058209"/>
      </g>
     </g>
     <g id="text_6">
      <!-- 0.4 -->
      <g transform="translate(29.365625 72.001959)scale(0.2 -0.2)">
       <use xlink:href="#TimesNewRomanPSMT-30"/>
       <use x="50" xlink:href="#TimesNewRomanPSMT-2e"/>
       <use x="75" xlink:href="#TimesNewRomanPSMT-34"/>
      </g>
     </g>
    </g>
    <g id="ytick_4">
     <g id="line2d_7">
      <g>
       <use style="stroke:#000000;stroke-width:0.8;" x="61.365625" xlink:href="#me9968d7267" y="29.237313"/>
      </g>
     </g>
     <g id="text_7">
      <!-- 0.6 -->
      <g transform="translate(29.365625 36.181063)scale(0.2 -0.2)">
       <use xlink:href="#TimesNewRomanPSMT-30"/>
       <use x="50" xlink:href="#TimesNewRomanPSMT-2e"/>
       <use x="75" xlink:href="#TimesNewRomanPSMT-36"/>
      </g>
     </g>
    </g>
    <g id="text_8">
     <!-- ALP -->
     <defs>
      <path d="M 45.75 22.171875 
L 20.125 22.171875 
L 15.625 11.71875 
Q 13.96875 7.859375 13.96875 5.953125 
Q 13.96875 4.4375 15.40625 3.296875 
Q 16.84375 2.15625 21.625 1.8125 
L 21.625 0 
L 0.78125 0 
L 0.78125 1.8125 
Q 4.9375 2.546875 6.15625 3.71875 
Q 8.640625 6.0625 11.671875 13.234375 
L 34.96875 67.71875 
L 36.671875 67.71875 
L 59.71875 12.640625 
Q 62.5 6 64.765625 4.015625 
Q 67.046875 2.046875 71.09375 1.8125 
L 71.09375 0 
L 44.96875 0 
L 44.96875 1.8125 
Q 48.921875 2 50.3125 3.125 
Q 51.703125 4.25 51.703125 5.859375 
Q 51.703125 8.015625 49.75 12.640625 
z
M 44.390625 25.78125 
L 33.15625 52.546875 
L 21.625 25.78125 
z
" id="TimesNewRomanPSMT-41"/>
      <path d="M 57.328125 18.3125 
L 58.9375 17.96875 
L 53.265625 0 
L 2 0 
L 2 1.8125 
L 4.5 1.8125 
Q 8.6875 1.8125 10.5 4.546875 
Q 11.53125 6.109375 11.53125 11.765625 
L 11.53125 54.5 
Q 11.53125 60.6875 10.15625 62.25 
Q 8.25 64.40625 4.5 64.40625 
L 2 64.40625 
L 2 66.21875 
L 31.984375 66.21875 
L 31.984375 64.40625 
Q 26.703125 64.453125 24.578125 63.421875 
Q 22.46875 62.40625 21.6875 60.84375 
Q 20.90625 59.28125 20.90625 53.375 
L 20.90625 11.765625 
Q 20.90625 7.71875 21.6875 6.203125 
Q 22.265625 5.171875 23.484375 4.6875 
Q 24.703125 4.203125 31.109375 4.203125 
L 35.9375 4.203125 
Q 43.5625 4.203125 46.625 5.328125 
Q 49.703125 6.453125 52.234375 9.296875 
Q 54.78125 12.15625 57.328125 18.3125 
z
" id="TimesNewRomanPSMT-4c"/>
      <path d="M 20.515625 31 
L 20.515625 11.71875 
Q 20.515625 5.46875 21.875 3.953125 
Q 23.734375 1.8125 27.484375 1.8125 
L 30.03125 1.8125 
L 30.03125 0 
L 1.65625 0 
L 1.65625 1.8125 
L 4.15625 1.8125 
Q 8.34375 1.8125 10.15625 4.546875 
Q 11.140625 6.0625 11.140625 11.71875 
L 11.140625 54.5 
Q 11.140625 60.75 9.8125 62.25 
Q 7.90625 64.40625 4.15625 64.40625 
L 1.65625 64.40625 
L 1.65625 66.21875 
L 25.921875 66.21875 
Q 34.8125 66.21875 39.9375 64.375 
Q 45.0625 62.546875 48.578125 58.203125 
Q 52.09375 53.859375 52.09375 47.90625 
Q 52.09375 39.796875 46.75 34.71875 
Q 41.40625 29.640625 31.640625 29.640625 
Q 29.25 29.640625 26.46875 29.984375 
Q 23.6875 30.328125 20.515625 31 
z
M 20.515625 33.796875 
Q 23.09375 33.296875 25.09375 33.046875 
Q 27.09375 32.8125 28.515625 32.8125 
Q 33.59375 32.8125 37.28125 36.734375 
Q 40.96875 40.671875 40.96875 46.921875 
Q 40.96875 51.21875 39.203125 54.90625 
Q 37.453125 58.59375 34.21875 60.421875 
Q 31 62.25 26.90625 62.25 
Q 24.421875 62.25 20.515625 61.328125 
z
" id="TimesNewRomanPSMT-50"/>
     </defs>
     <g transform="translate(21.0875 92.590625)rotate(-90)scale(0.2 -0.2)">
      <use xlink:href="#TimesNewRomanPSMT-41"/>
      <use x="72.216797" xlink:href="#TimesNewRomanPSMT-4c"/>
      <use x="133.300781" xlink:href="#TimesNewRomanPSMT-50"/>
     </g>
    </g>
   </g>
   <g id="LineCollection_1">
    <path clip-path="url(#p3565b6220d)" d="M 77.304759 82.781015 
L 77.304759 82.781015 
" style="fill:none;stroke:#000000;stroke-width:1.5;"/>
    <path clip-path="url(#p3565b6220d)" d="M 186.750588 19.784443 
L 186.750588 19.784443 
" style="fill:none;stroke:#000000;stroke-width:1.5;"/>
    <path clip-path="url(#p3565b6220d)" d="M 296.196416 19.784443 
L 296.196416 19.784443 
" style="fill:none;stroke:#000000;stroke-width:1.5;"/>
   </g>
   <g id="LineCollection_2">
    <path clip-path="url(#p3565b6220d)" d="M 83.819392 82.968657 
L 83.819392 82.968657 
" style="fill:none;stroke:#000000;stroke-width:1.5;"/>
    <path clip-path="url(#p3565b6220d)" d="M 193.26522 41.774627 
L 193.26522 41.774627 
" style="fill:none;stroke:#000000;stroke-width:1.5;"/>
    <path clip-path="url(#p3565b6220d)" d="M 302.711048 18.491045 
L 302.711048 18.491045 
" style="fill:none;stroke:#000000;stroke-width:1.5;"/>
   </g>
   <g id="LineCollection_3">
    <path clip-path="url(#p3565b6220d)" d="M 99.020202 65.058218 
L 99.020202 65.058218 
" style="fill:none;stroke:#000000;stroke-width:1.5;"/>
    <path clip-path="url(#p3565b6220d)" d="M 208.46603 19.784443 
L 208.46603 19.784443 
" style="fill:none;stroke:#000000;stroke-width:1.5;"/>
    <path clip-path="url(#p3565b6220d)" d="M 317.911858 19.784443 
L 317.911858 19.784443 
" style="fill:none;stroke:#000000;stroke-width:1.5;"/>
   </g>
   <g id="LineCollection_4">
    <path clip-path="url(#p3565b6220d)" d="M 105.534834 65.058209 
L 105.534834 65.058209 
" style="fill:none;stroke:#000000;stroke-width:1.5;"/>
    <path clip-path="url(#p3565b6220d)" d="M 214.980662 20.28209 
L 214.980662 20.28209 
" style="fill:none;stroke:#000000;stroke-width:1.5;"/>
    <path clip-path="url(#p3565b6220d)" d="M 324.426491 16.7 
L 324.426491 16.7 
" style="fill:none;stroke:#000000;stroke-width:1.5;"/>
   </g>
   <g id="line2d_8">
    <defs>
     <path d="M 5 0 
L -5 -0 
" id="m31d1defd3c" style="stroke:#000000;"/>
    </defs>
    <g clip-path="url(#p3565b6220d)">
     <use style="stroke:#000000;" x="77.304759" xlink:href="#m31d1defd3c" y="82.781015"/>
     <use style="stroke:#000000;" x="186.750588" xlink:href="#m31d1defd3c" y="19.784443"/>
     <use style="stroke:#000000;" x="296.196416" xlink:href="#m31d1defd3c" y="19.784443"/>
    </g>
   </g>
   <g id="line2d_9">
    <g clip-path="url(#p3565b6220d)">
     <use style="stroke:#000000;" x="77.304759" xlink:href="#m31d1defd3c" y="82.781015"/>
     <use style="stroke:#000000;" x="186.750588" xlink:href="#m31d1defd3c" y="19.784443"/>
     <use style="stroke:#000000;" x="296.196416" xlink:href="#m31d1defd3c" y="19.784443"/>
    </g>
   </g>
   <g id="line2d_10">
    <g clip-path="url(#p3565b6220d)">
     <use style="stroke:#000000;" x="83.819392" xlink:href="#m31d1defd3c" y="82.968657"/>
     <use style="stroke:#000000;" x="193.26522" xlink:href="#m31d1defd3c" y="41.774627"/>
     <use style="stroke:#000000;" x="302.711048" xlink:href="#m31d1defd3c" y="18.491045"/>
    </g>
   </g>
   <g id="line2d_11">
    <g clip-path="url(#p3565b6220d)">
     <use style="stroke:#000000;" x="83.819392" xlink:href="#m31d1defd3c" y="82.968657"/>
     <use style="stroke:#000000;" x="193.26522" xlink:href="#m31d1defd3c" y="41.774627"/>
     <use style="stroke:#000000;" x="302.711048" xlink:href="#m31d1defd3c" y="18.491045"/>
    </g>
   </g>
   <g id="line2d_12">
    <g clip-path="url(#p3565b6220d)">
     <use style="stroke:#000000;" x="99.020202" xlink:href="#m31d1defd3c" y="65.058218"/>
     <use style="stroke:#000000;" x="208.46603" xlink:href="#m31d1defd3c" y="19.784443"/>
     <use style="stroke:#000000;" x="317.911858" xlink:href="#m31d1defd3c" y="19.784443"/>
    </g>
   </g>
   <g id="line2d_13">
    <g clip-path="url(#p3565b6220d)">
     <use style="stroke:#000000;" x="99.020202" xlink:href="#m31d1defd3c" y="65.058218"/>
     <use style="stroke:#000000;" x="208.46603" xlink:href="#m31d1defd3c" y="19.784443"/>
     <use style="stroke:#000000;" x="317.911858" xlink:href="#m31d1defd3c" y="19.784443"/>
    </g>
   </g>
   <g id="line2d_14">
    <g clip-path="url(#p3565b6220d)">
     <use style="stroke:#000000;" x="105.534834" xlink:href="#m31d1defd3c" y="65.058209"/>
     <use style="stroke:#000000;" x="214.980662" xlink:href="#m31d1defd3c" y="20.28209"/>
     <use style="stroke:#000000;" x="324.426491" xlink:href="#m31d1defd3c" y="16.7"/>
    </g>
   </g>
   <g id="line2d_15">
    <g clip-path="url(#p3565b6220d)">
     <use style="stroke:#000000;" x="105.534834" xlink:href="#m31d1defd3c" y="65.058209"/>
     <use style="stroke:#000000;" x="214.980662" xlink:href="#m31d1defd3c" y="20.28209"/>
     <use style="stroke:#000000;" x="324.426491" xlink:href="#m31d1defd3c" y="16.7"/>
    </g>
   </g>
   <g id="patch_15">
    <path d="M 61.365625 136.7 
L 61.365625 10.7 
" style="fill:none;stroke:#000000;stroke-linecap:square;stroke-linejoin:miter;stroke-width:0.8;"/>
   </g>
   <g id="patch_16">
    <path d="M 340.365625 136.7 
L 340.365625 10.7 
" style="fill:none;stroke:#000000;stroke-linecap:square;stroke-linejoin:miter;stroke-width:0.8;"/>
   </g>
   <g id="patch_17">
    <path d="M 61.365625 136.7 
L 340.365625 136.7 
" style="fill:none;stroke:#000000;stroke-linecap:square;stroke-linejoin:miter;stroke-width:0.8;"/>
   </g>
   <g id="patch_18">
    <path d="M 61.365625 10.7 
L 340.365625 10.7 
" style="fill:none;stroke:#000000;stroke-linecap:square;stroke-linejoin:miter;stroke-width:0.8;"/>
   </g>
  </g>
  <g id="axes_2">
   <g id="patch_19">
    <path d="M 61.365625 287.9 
L 340.365625 287.9 
L 340.365625 161.9 
L 61.365625 161.9 
z
" style="fill:#ffffff;"/>
   </g>
   <g id="patch_20">
    <path clip-path="url(#p105f7fb82e)" d="M 74.047443 287.9 
L 80.562076 287.9 
L 80.562076 228.208638 
L 74.047443 228.208638 
z
" style="fill:#00ff00;stroke:#000000;stroke-linejoin:miter;"/>
   </g>
   <g id="patch_21">
    <path clip-path="url(#p105f7fb82e)" d="M 183.493271 287.9 
L 190.007904 287.9 
L 190.007904 181.277349 
L 183.493271 181.277349 
z
" style="fill:#00ff00;stroke:#000000;stroke-linejoin:miter;"/>
   </g>
   <g id="patch_22">
    <path clip-path="url(#p105f7fb82e)" d="M 292.939099 287.9 
L 299.453732 287.9 
L 299.453732 168.056788 
L 292.939099 168.056788 
z
" style="fill:#00ff00;stroke:#000000;stroke-linejoin:miter;"/>
   </g>
   <g id="patch_23">
    <path clip-path="url(#p105f7fb82e)" d="M 80.562076 287.9 
L 87.076708 287.9 
L 87.076708 208.4 
L 80.562076 208.4 
z
" style="fill:url(#h817ba74232);stroke:#000000;stroke-linejoin:miter;"/>
   </g>
   <g id="patch_24">
    <path clip-path="url(#p105f7fb82e)" d="M 190.007904 287.9 
L 196.522537 287.9 
L 196.522537 181.4 
L 190.007904 181.4 
z
" style="fill:url(#h817ba74232);stroke:#000000;stroke-linejoin:miter;"/>
   </g>
   <g id="patch_25">
    <path clip-path="url(#p105f7fb82e)" d="M 299.453732 287.9 
L 305.968365 287.9 
L 305.968365 167.9 
L 299.453732 167.9 
z
" style="fill:url(#h817ba74232);stroke:#000000;stroke-linejoin:miter;"/>
   </g>
   <g id="patch_26">
    <path clip-path="url(#p105f7fb82e)" d="M 95.762885 287.9 
L 102.277518 287.9 
L 102.277518 226.86879 
L 95.762885 226.86879 
z
" style="fill:#ee82ee;stroke:#000000;stroke-linejoin:miter;"/>
   </g>
   <g id="patch_27">
    <path clip-path="url(#p105f7fb82e)" d="M 205.208713 287.9 
L 211.723346 287.9 
L 211.723346 222.990358 
L 205.208713 222.990358 
z
" style="fill:#ee82ee;stroke:#000000;stroke-linejoin:miter;"/>
   </g>
   <g id="patch_28">
    <path clip-path="url(#p105f7fb82e)" d="M 314.654542 287.9 
L 321.169174 287.9 
L 321.169174 222.990358 
L 314.654542 222.990358 
z
" style="fill:#ee82ee;stroke:#000000;stroke-linejoin:miter;"/>
   </g>
   <g id="patch_29">
    <path clip-path="url(#p105f7fb82e)" d="M 102.277518 287.9 
L 108.792151 287.9 
L 108.792151 218.9 
L 102.277518 218.9 
z
" style="fill:url(#h8f20025132);stroke:#000000;stroke-linejoin:miter;"/>
   </g>
   <g id="patch_30">
    <path clip-path="url(#p105f7fb82e)" d="M 211.723346 287.9 
L 218.237979 287.9 
L 218.237979 224.9 
L 211.723346 224.9 
z
" style="fill:url(#h8f20025132);stroke:#000000;stroke-linejoin:miter;"/>
   </g>
   <g id="patch_31">
    <path clip-path="url(#p105f7fb82e)" d="M 321.169174 287.9 
L 327.683807 287.9 
L 327.683807 227.9 
L 321.169174 227.9 
z
" style="fill:url(#h8f20025132);stroke:#000000;stroke-linejoin:miter;"/>
   </g>
   <g id="matplotlib.axis_3">
    <g id="xtick_4">
     <g id="line2d_16">
      <g>
       <use style="stroke:#000000;stroke-width:0.8;" x="91.419797" xlink:href="#mb098cf3e91" y="287.9"/>
      </g>
     </g>
     <g id="text_9">
      <!-- 168 -->
      <g transform="translate(76.419797 308.7875)scale(0.2 -0.2)">
       <use xlink:href="#TimesNewRomanPSMT-31"/>
       <use x="50" xlink:href="#TimesNewRomanPSMT-36"/>
       <use x="100" xlink:href="#TimesNewRomanPSMT-38"/>
      </g>
     </g>
    </g>
    <g id="xtick_5">
     <g id="line2d_17">
      <g>
       <use style="stroke:#000000;stroke-width:0.8;" x="200.865625" xlink:href="#mb098cf3e91" y="287.9"/>
      </g>
     </g>
     <g id="text_10">
      <!-- 336 -->
      <g transform="translate(185.865625 308.7875)scale(0.2 -0.2)">
       <use xlink:href="#TimesNewRomanPSMT-33"/>
       <use x="50" xlink:href="#TimesNewRomanPSMT-33"/>
       <use x="100" xlink:href="#TimesNewRomanPSMT-36"/>
      </g>
     </g>
    </g>
    <g id="xtick_6">
     <g id="line2d_18">
      <g>
       <use style="stroke:#000000;stroke-width:0.8;" x="310.311453" xlink:href="#mb098cf3e91" y="287.9"/>
      </g>
     </g>
     <g id="text_11">
      <!-- 504 -->
      <g transform="translate(295.311453 308.7875)scale(0.2 -0.2)">
       <use xlink:href="#TimesNewRomanPSMT-35"/>
       <use x="50" xlink:href="#TimesNewRomanPSMT-30"/>
       <use x="100" xlink:href="#TimesNewRomanPSMT-34"/>
      </g>
     </g>
    </g>
   </g>
   <g id="matplotlib.axis_4">
    <g id="ytick_5">
     <g id="line2d_19">
      <g>
       <use style="stroke:#000000;stroke-width:0.8;" x="61.365625" xlink:href="#me9968d7267" y="287.9"/>
      </g>
     </g>
     <g id="text_12">
      <!-- 0.0 -->
      <g transform="translate(29.365625 294.84375)scale(0.2 -0.2)">
       <use xlink:href="#TimesNewRomanPSMT-30"/>
       <use x="50" xlink:href="#TimesNewRomanPSMT-2e"/>
       <use x="75" xlink:href="#TimesNewRomanPSMT-30"/>
      </g>
     </g>
    </g>
    <g id="ytick_6">
     <g id="line2d_20">
      <g>
       <use style="stroke:#000000;stroke-width:0.8;" x="61.365625" xlink:href="#me9968d7267" y="257.9"/>
      </g>
     </g>
     <g id="text_13">
      <!-- 0.2 -->
      <g transform="translate(29.365625 264.84375)scale(0.2 -0.2)">
       <use xlink:href="#TimesNewRomanPSMT-30"/>
       <use x="50" xlink:href="#TimesNewRomanPSMT-2e"/>
       <use x="75" xlink:href="#TimesNewRomanPSMT-32"/>
      </g>
     </g>
    </g>
    <g id="ytick_7">
     <g id="line2d_21">
      <g>
       <use style="stroke:#000000;stroke-width:0.8;" x="61.365625" xlink:href="#me9968d7267" y="227.9"/>
      </g>
     </g>
     <g id="text_14">
      <!-- 0.4 -->
      <g transform="translate(29.365625 234.84375)scale(0.2 -0.2)">
       <use xlink:href="#TimesNewRomanPSMT-30"/>
       <use x="50" xlink:href="#TimesNewRomanPSMT-2e"/>
       <use x="75" xlink:href="#TimesNewRomanPSMT-34"/>
      </g>
     </g>
    </g>
    <g id="ytick_8">
     <g id="line2d_22">
      <g>
       <use style="stroke:#000000;stroke-width:0.8;" x="61.365625" xlink:href="#me9968d7267" y="197.9"/>
      </g>
     </g>
     <g id="text_15">
      <!-- 0.6 -->
      <g transform="translate(29.365625 204.84375)scale(0.2 -0.2)">
       <use xlink:href="#TimesNewRomanPSMT-30"/>
       <use x="50" xlink:href="#TimesNewRomanPSMT-2e"/>
       <use x="75" xlink:href="#TimesNewRomanPSMT-36"/>
      </g>
     </g>
    </g>
    <g id="ytick_9">
     <g id="line2d_23">
      <g>
       <use style="stroke:#000000;stroke-width:0.8;" x="61.365625" xlink:href="#me9968d7267" y="167.9"/>
      </g>
     </g>
     <g id="text_16">
      <!-- 0.8 -->
      <g transform="translate(29.365625 174.84375)scale(0.2 -0.2)">
       <use xlink:href="#TimesNewRomanPSMT-30"/>
       <use x="50" xlink:href="#TimesNewRomanPSMT-2e"/>
       <use x="75" xlink:href="#TimesNewRomanPSMT-38"/>
      </g>
     </g>
    </g>
    <g id="text_17">
     <!-- OC -->
     <defs>
      <path d="M 36.578125 67.71875 
Q 49.46875 67.71875 58.90625 57.921875 
Q 68.359375 48.140625 68.359375 33.5 
Q 68.359375 18.40625 58.828125 8.4375 
Q 49.3125 -1.515625 35.796875 -1.515625 
Q 22.125 -1.515625 12.8125 8.203125 
Q 3.515625 17.921875 3.515625 33.34375 
Q 3.515625 49.125 14.265625 59.078125 
Q 23.578125 67.71875 36.578125 67.71875 
z
M 35.640625 64.15625 
Q 26.765625 64.15625 21.390625 57.5625 
Q 14.703125 49.359375 14.703125 33.546875 
Q 14.703125 17.328125 21.625 8.59375 
Q 26.953125 1.953125 35.6875 1.953125 
Q 45.015625 1.953125 51.09375 9.21875 
Q 57.171875 16.5 57.171875 32.171875 
Q 57.171875 49.171875 50.484375 57.515625 
Q 45.125 64.15625 35.640625 64.15625 
z
" id="TimesNewRomanPSMT-4f"/>
      <path d="M 60.203125 67.71875 
L 61.71875 45.21875 
L 60.203125 45.21875 
Q 57.171875 55.328125 51.5625 59.765625 
Q 45.953125 64.203125 38.09375 64.203125 
Q 31.5 64.203125 26.171875 60.859375 
Q 20.84375 57.515625 17.796875 50.1875 
Q 14.75 42.875 14.75 31.984375 
Q 14.75 23 17.625 16.40625 
Q 20.515625 9.8125 26.296875 6.296875 
Q 32.078125 2.78125 39.5 2.78125 
Q 45.953125 2.78125 50.875 5.53125 
Q 55.8125 8.296875 61.71875 16.5 
L 63.234375 15.53125 
Q 58.25 6.6875 51.609375 2.578125 
Q 44.96875 -1.515625 35.84375 -1.515625 
Q 19.390625 -1.515625 10.359375 10.6875 
Q 3.609375 19.78125 3.609375 32.078125 
Q 3.609375 42 8.046875 50.296875 
Q 12.5 58.59375 20.28125 63.15625 
Q 28.078125 67.71875 37.3125 67.71875 
Q 44.484375 67.71875 51.46875 64.203125 
Q 53.515625 63.140625 54.390625 63.140625 
Q 55.71875 63.140625 56.6875 64.0625 
Q 57.953125 65.375 58.5 67.71875 
z
" id="TimesNewRomanPSMT-43"/>
     </defs>
     <g transform="translate(21.0875 238.792188)rotate(-90)scale(0.2 -0.2)">
      <use xlink:href="#TimesNewRomanPSMT-4f"/>
      <use x="72.216797" xlink:href="#TimesNewRomanPSMT-43"/>
     </g>
    </g>
   </g>
   <g id="LineCollection_5">
    <path clip-path="url(#p105f7fb82e)" d="M 77.304759 228.208638 
L 77.304759 228.208638 
" style="fill:none;stroke:#000000;stroke-width:1.5;"/>
    <path clip-path="url(#p105f7fb82e)" d="M 186.750588 181.277349 
L 186.750588 181.277349 
" style="fill:none;stroke:#000000;stroke-width:1.5;"/>
    <path clip-path="url(#p105f7fb82e)" d="M 296.196416 168.056788 
L 296.196416 168.056788 
" style="fill:none;stroke:#000000;stroke-width:1.5;"/>
   </g>
   <g id="LineCollection_6">
    <path clip-path="url(#p105f7fb82e)" d="M 83.819392 208.4 
L 83.819392 208.4 
" style="fill:none;stroke:#000000;stroke-width:1.5;"/>
    <path clip-path="url(#p105f7fb82e)" d="M 193.26522 181.4 
L 193.26522 181.4 
" style="fill:none;stroke:#000000;stroke-width:1.5;"/>
    <path clip-path="url(#p105f7fb82e)" d="M 302.711048 167.9 
L 302.711048 167.9 
" style="fill:none;stroke:#000000;stroke-width:1.5;"/>
   </g>
   <g id="LineCollection_7">
    <path clip-path="url(#p105f7fb82e)" d="M 99.020202 226.86879 
L 99.020202 226.86879 
" style="fill:none;stroke:#000000;stroke-width:1.5;"/>
    <path clip-path="url(#p105f7fb82e)" d="M 208.46603 222.990358 
L 208.46603 222.990358 
" style="fill:none;stroke:#000000;stroke-width:1.5;"/>
    <path clip-path="url(#p105f7fb82e)" d="M 317.911858 222.990358 
L 317.911858 222.990358 
" style="fill:none;stroke:#000000;stroke-width:1.5;"/>
   </g>
   <g id="LineCollection_8">
    <path clip-path="url(#p105f7fb82e)" d="M 105.534834 218.9 
L 105.534834 218.9 
" style="fill:none;stroke:#000000;stroke-width:1.5;"/>
    <path clip-path="url(#p105f7fb82e)" d="M 214.980662 224.9 
L 214.980662 224.9 
" style="fill:none;stroke:#000000;stroke-width:1.5;"/>
    <path clip-path="url(#p105f7fb82e)" d="M 324.426491 227.9 
L 324.426491 227.9 
" style="fill:none;stroke:#000000;stroke-width:1.5;"/>
   </g>
   <g id="line2d_24">
    <g clip-path="url(#p105f7fb82e)">
     <use style="stroke:#000000;" x="77.304759" xlink:href="#m31d1defd3c" y="228.208638"/>
     <use style="stroke:#000000;" x="186.750588" xlink:href="#m31d1defd3c" y="181.277349"/>
     <use style="stroke:#000000;" x="296.196416" xlink:href="#m31d1defd3c" y="168.056788"/>
    </g>
   </g>
   <g id="line2d_25">
    <g clip-path="url(#p105f7fb82e)">
     <use style="stroke:#000000;" x="77.304759" xlink:href="#m31d1defd3c" y="228.208638"/>
     <use style="stroke:#000000;" x="186.750588" xlink:href="#m31d1defd3c" y="181.277349"/>
     <use style="stroke:#000000;" x="296.196416" xlink:href="#m31d1defd3c" y="168.056788"/>
    </g>
   </g>
   <g id="line2d_26">
    <g clip-path="url(#p105f7fb82e)">
     <use style="stroke:#000000;" x="83.819392" xlink:href="#m31d1defd3c" y="208.4"/>
     <use style="stroke:#000000;" x="193.26522" xlink:href="#m31d1defd3c" y="181.4"/>
     <use style="stroke:#000000;" x="302.711048" xlink:href="#m31d1defd3c" y="167.9"/>
    </g>
   </g>
   <g id="line2d_27">
    <g clip-path="url(#p105f7fb82e)">
     <use style="stroke:#000000;" x="83.819392" xlink:href="#m31d1defd3c" y="208.4"/>
     <use style="stroke:#000000;" x="193.26522" xlink:href="#m31d1defd3c" y="181.4"/>
     <use style="stroke:#000000;" x="302.711048" xlink:href="#m31d1defd3c" y="167.9"/>
    </g>
   </g>
   <g id="line2d_28">
    <g clip-path="url(#p105f7fb82e)">
     <use style="stroke:#000000;" x="99.020202" xlink:href="#m31d1defd3c" y="226.86879"/>
     <use style="stroke:#000000;" x="208.46603" xlink:href="#m31d1defd3c" y="222.990358"/>
     <use style="stroke:#000000;" x="317.911858" xlink:href="#m31d1defd3c" y="222.990358"/>
    </g>
   </g>
   <g id="line2d_29">
    <g clip-path="url(#p105f7fb82e)">
     <use style="stroke:#000000;" x="99.020202" xlink:href="#m31d1defd3c" y="226.86879"/>
     <use style="stroke:#000000;" x="208.46603" xlink:href="#m31d1defd3c" y="222.990358"/>
     <use style="stroke:#000000;" x="317.911858" xlink:href="#m31d1defd3c" y="222.990358"/>
    </g>
   </g>
   <g id="line2d_30">
    <g clip-path="url(#p105f7fb82e)">
     <use style="stroke:#000000;" x="105.534834" xlink:href="#m31d1defd3c" y="218.9"/>
     <use style="stroke:#000000;" x="214.980662" xlink:href="#m31d1defd3c" y="224.9"/>
     <use style="stroke:#000000;" x="324.426491" xlink:href="#m31d1defd3c" y="227.9"/>
    </g>
   </g>
   <g id="line2d_31">
    <g clip-path="url(#p105f7fb82e)">
     <use style="stroke:#000000;" x="105.534834" xlink:href="#m31d1defd3c" y="218.9"/>
     <use style="stroke:#000000;" x="214.980662" xlink:href="#m31d1defd3c" y="224.9"/>
     <use style="stroke:#000000;" x="324.426491" xlink:href="#m31d1defd3c" y="227.9"/>
    </g>
   </g>
   <g id="patch_32">
    <path d="M 61.365625 287.9 
L 61.365625 161.9 
" style="fill:none;stroke:#000000;stroke-linecap:square;stroke-linejoin:miter;stroke-width:0.8;"/>
   </g>
   <g id="patch_33">
    <path d="M 340.365625 287.9 
L 340.365625 161.9 
" style="fill:none;stroke:#000000;stroke-linecap:square;stroke-linejoin:miter;stroke-width:0.8;"/>
   </g>
   <g id="patch_34">
    <path d="M 61.365625 287.9 
L 340.365625 287.9 
" style="fill:none;stroke:#000000;stroke-linecap:square;stroke-linejoin:miter;stroke-width:0.8;"/>
   </g>
   <g id="patch_35">
    <path d="M 61.365625 161.9 
L 340.365625 161.9 
" style="fill:none;stroke:#000000;stroke-linecap:square;stroke-linejoin:miter;stroke-width:0.8;"/>
   </g>
  </g>
 </g>
 <defs>
  <clipPath id="p3565b6220d">
   <rect height="126" width="279" x="61.365625" y="10.7"/>
  </clipPath>
  <clipPath id="p105f7fb82e">
   <rect height="126" width="279" x="61.365625" y="161.9"/>
  </clipPath>
 </defs>
 <defs>
  <pattern height="72" id="h817ba74232" patternUnits="userSpaceOnUse" width="72" x="0" y="0">
   <rect fill="#00ff00" height="73" width="73" x="0" y="0"/>
   <path d="M -36 36 
L 36 108 
M -33 33 
L 39 105 
M -30 30 
L 42 102 
M -27 27 
L 45 99 
M -24 24 
L 48 96 
M -21 21 
L 51 93 
M -18 18 
L 54 90 
M -15 15 
L 57 87 
M -12 12 
L 60 84 
M -9 9 
L 63 81 
M -6 6 
L 66 78 
M -3 3 
L 69 75 
M 0 0 
L 72 72 
M 3 -3 
L 75 69 
M 6 -6 
L 78 66 
M 9 -9 
L 81 63 
M 12 -12 
L 84 60 
M 15 -15 
L 87 57 
M 18 -18 
L 90 54 
M 21 -21 
L 93 51 
M 24 -24 
L 96 48 
M 27 -27 
L 99 45 
M 30 -30 
L 102 42 
M 33 -33 
L 105 39 
M 36 -36 
L 108 36 
" style="fill:#000000;stroke:#000000;stroke-linecap:butt;stroke-linejoin:miter;stroke-width:1.0;"/>
  </pattern>
  <pattern height="72" id="h8f20025132" patternUnits="userSpaceOnUse" width="72" x="0" y="0">
   <rect fill="#ee82ee" height="73" width="73" x="0" y="0"/>
   <path d="M -36 36 
L 36 108 
M -33 33 
L 39 105 
M -30 30 
L 42 102 
M -27 27 
L 45 99 
M -24 24 
L 48 96 
M -21 21 
L 51 93 
M -18 18 
L 54 90 
M -15 15 
L 57 87 
M -12 12 
L 60 84 
M -9 9 
L 63 81 
M -6 6 
L 66 78 
M -3 3 
L 69 75 
M 0 0 
L 72 72 
M 3 -3 
L 75 69 
M 6 -6 
L 78 66 
M 9 -9 
L 81 63 
M 12 -12 
L 84 60 
M 15 -15 
L 87 57 
M 18 -18 
L 90 54 
M 21 -21 
L 93 51 
M 24 -24 
L 96 48 
M 27 -27 
L 99 45 
M 30 -30 
L 102 42 
M 33 -33 
L 105 39 
M 36 -36 
L 108 36 
" style="fill:#000000;stroke:#000000;stroke-linecap:butt;stroke-linejoin:miter;stroke-width:1.0;"/>
  </pattern>
 </defs>
</svg>
