<?xml version="1.0" encoding="utf-8" standalone="no"?>
<!DOCTYPE svg PUBLIC "-//W3C//DTD SVG 1.1//EN"
  "http://www.w3.org/Graphics/SVG/1.1/DTD/svg11.dtd">
<!-- Created with matplotlib (http://matplotlib.org/) -->
<svg height="766.3146pt" version="1.1" viewBox="0 0 318.935156 766.3146" width="318.935156pt" xmlns="http://www.w3.org/2000/svg" xmlns:xlink="http://www.w3.org/1999/xlink">
 <defs>
  <style type="text/css">
*{stroke-linecap:butt;stroke-linejoin:round;}
  </style>
 </defs>
 <g id="figure_1">
  <g id="patch_1">
   <path d="M 0 766.3146 
L 318.935156 766.3146 
L 318.935156 0 
L 0 0 
z
" style="fill:#ffffff;"/>
  </g>
  <g id="axes_1">
   <g id="patch_2">
    <path d="M 140.835156 719.0496 
L 308.235156 719.0496 
L 308.235156 53.7696 
L 140.835156 53.7696 
z
" style="fill:#ffffff;"/>
   </g>
   <g id="PathCollection_1">
    <defs>
     <path d="M 0 0 
L -6.123724 -0 
M 0 0 
L 3.061862 4.898979 
M 0 0 
L 3.061862 -4.898979 
" id="m494fa5a06b" style="stroke:#4b0082;stroke-opacity:0.8;stroke-width:1.5;"/>
    </defs>
    <g clip-path="url(#p3d648ce7c9)">
     <use style="fill:#4b0082;fill-opacity:0.8;stroke:#4b0082;stroke-opacity:0.8;stroke-width:1.5;" x="188.929787" xlink:href="#m494fa5a06b" y="684.431473"/>
    </g>
   </g>
   <g id="PathCollection_2">
    <g clip-path="url(#p3d648ce7c9)">
     <use style="fill:#4b0082;fill-opacity:0.8;stroke:#4b0082;stroke-opacity:0.8;stroke-width:1.5;" x="155.486751" xlink:href="#m494fa5a06b" y="634.627395"/>
    </g>
   </g>
   <g id="PathCollection_3">
    <g clip-path="url(#p3d648ce7c9)">
     <use style="fill:#4b0082;fill-opacity:0.8;stroke:#4b0082;stroke-opacity:0.8;stroke-width:1.5;" x="299.204467" xlink:href="#m494fa5a06b" y="535.01924"/>
    </g>
   </g>
   <g id="PathCollection_4">
    <g clip-path="url(#p3d648ce7c9)">
     <use style="fill:#4b0082;fill-opacity:0.8;stroke:#4b0082;stroke-opacity:0.8;stroke-width:1.5;" x="156.884325" xlink:href="#m494fa5a06b" y="510.117201"/>
    </g>
   </g>
   <g id="PathCollection_5">
    <g clip-path="url(#p3d648ce7c9)">
     <use style="fill:#4b0082;fill-opacity:0.8;stroke:#4b0082;stroke-opacity:0.8;stroke-width:1.5;" x="152.703331" xlink:href="#m494fa5a06b" y="485.215162"/>
    </g>
   </g>
   <g id="PathCollection_6">
    <g clip-path="url(#p3d648ce7c9)">
     <use style="fill:#4b0082;fill-opacity:0.8;stroke:#4b0082;stroke-opacity:0.8;stroke-width:1.5;" x="298.434831" xlink:href="#m494fa5a06b" y="460.313123"/>
    </g>
   </g>
   <g id="PathCollection_7">
    <g clip-path="url(#p3d648ce7c9)">
     <use style="fill:#4b0082;fill-opacity:0.8;stroke:#4b0082;stroke-opacity:0.8;stroke-width:1.5;" x="231.842021" xlink:href="#m494fa5a06b" y="385.607007"/>
    </g>
   </g>
   <g id="PathCollection_8">
    <g clip-path="url(#p3d648ce7c9)">
     <use style="fill:#4b0082;fill-opacity:0.8;stroke:#4b0082;stroke-opacity:0.8;stroke-width:1.5;" x="221.72431" xlink:href="#m494fa5a06b" y="310.90089"/>
    </g>
   </g>
   <g id="PathCollection_9">
    <g clip-path="url(#p3d648ce7c9)">
     <use style="fill:#4b0082;fill-opacity:0.8;stroke:#4b0082;stroke-opacity:0.8;stroke-width:1.5;" x="258.733462" xlink:href="#m494fa5a06b" y="211.292735"/>
    </g>
   </g>
   <g id="PathCollection_10">
    <g clip-path="url(#p3d648ce7c9)">
     <use style="fill:#4b0082;fill-opacity:0.8;stroke:#4b0082;stroke-opacity:0.8;stroke-width:1.5;" x="224.969526" xlink:href="#m494fa5a06b" y="86.78254"/>
    </g>
   </g>
   <g id="PathCollection_11">
    <defs>
     <path d="M -6.123724 6.123724 
L 6.123724 -6.123724 
M -6.123724 -6.123724 
L 6.123724 6.123724 
" id="me1332c7ebe" style="stroke:#8b0000;stroke-opacity:0.8;stroke-width:1.5;"/>
    </defs>
    <g clip-path="url(#p3d648ce7c9)">
     <use style="fill:#8b0000;fill-opacity:0.8;stroke:#8b0000;stroke-opacity:0.8;stroke-width:1.5;" x="188.436154" xlink:href="#me1332c7ebe" y="684.431473"/>
    </g>
   </g>
   <g id="PathCollection_12">
    <g clip-path="url(#p3d648ce7c9)">
     <use style="fill:#8b0000;fill-opacity:0.8;stroke:#8b0000;stroke-opacity:0.8;stroke-width:1.5;" x="171.833436" xlink:href="#me1332c7ebe" y="634.627395"/>
    </g>
   </g>
   <g id="PathCollection_13">
    <g clip-path="url(#p3d648ce7c9)">
     <use style="fill:#8b0000;fill-opacity:0.8;stroke:#8b0000;stroke-opacity:0.8;stroke-width:1.5;" x="264.142217" xlink:href="#me1332c7ebe" y="584.823318"/>
    </g>
   </g>
   <g id="PathCollection_14">
    <g clip-path="url(#p3d648ce7c9)">
     <use style="fill:#8b0000;fill-opacity:0.8;stroke:#8b0000;stroke-opacity:0.8;stroke-width:1.5;" x="243.028738" xlink:href="#me1332c7ebe" y="559.921279"/>
    </g>
   </g>
   <g id="PathCollection_15">
    <g clip-path="url(#p3d648ce7c9)">
     <use style="fill:#8b0000;fill-opacity:0.8;stroke:#8b0000;stroke-opacity:0.8;stroke-width:1.5;" x="244.300526" xlink:href="#me1332c7ebe" y="460.313123"/>
    </g>
   </g>
   <g id="PathCollection_16">
    <g clip-path="url(#p3d648ce7c9)">
     <use style="fill:#8b0000;fill-opacity:0.8;stroke:#8b0000;stroke-opacity:0.8;stroke-width:1.5;" x="254.431563" xlink:href="#me1332c7ebe" y="410.509046"/>
    </g>
   </g>
   <g id="PathCollection_17">
    <g clip-path="url(#p3d648ce7c9)">
     <use style="fill:#8b0000;fill-opacity:0.8;stroke:#8b0000;stroke-opacity:0.8;stroke-width:1.5;" x="181.615098" xlink:href="#me1332c7ebe" y="310.90089"/>
    </g>
   </g>
   <g id="PathCollection_18">
    <g clip-path="url(#p3d648ce7c9)">
     <use style="fill:#8b0000;fill-opacity:0.8;stroke:#8b0000;stroke-opacity:0.8;stroke-width:1.5;" x="218.613152" xlink:href="#me1332c7ebe" y="211.292735"/>
    </g>
   </g>
   <g id="PathCollection_19">
    <g clip-path="url(#p3d648ce7c9)">
     <use style="fill:#8b0000;fill-opacity:0.8;stroke:#8b0000;stroke-opacity:0.8;stroke-width:1.5;" x="233.638602" xlink:href="#me1332c7ebe" y="136.586618"/>
    </g>
   </g>
   <g id="matplotlib.axis_1">
    <g id="xtick_1">
     <g id="line2d_1">
      <defs>
       <path d="M 0 0 
L 0 3.5 
" id="mffe0a50a47" style="stroke:#000000;stroke-width:0.8;"/>
      </defs>
      <g>
       <use style="stroke:#000000;stroke-width:0.8;" x="148.706247" xlink:href="#mffe0a50a47" y="719.0496"/>
      </g>
     </g>
     <g id="text_1">
      <!-- 0.0 -->
      <defs>
       <path d="M 3.609375 32.71875 
Q 3.609375 44.046875 7.03125 52.21875 
Q 10.453125 60.40625 16.109375 64.40625 
Q 20.515625 67.578125 25.203125 67.578125 
Q 32.8125 67.578125 38.875 59.8125 
Q 46.4375 50.203125 46.4375 33.734375 
Q 46.4375 22.21875 43.109375 14.15625 
Q 39.796875 6.109375 34.640625 2.46875 
Q 29.5 -1.171875 24.703125 -1.171875 
Q 15.234375 -1.171875 8.9375 10.015625 
Q 3.609375 19.4375 3.609375 32.71875 
z
M 13.1875 31.5 
Q 13.1875 17.828125 16.546875 9.1875 
Q 19.34375 1.90625 24.859375 1.90625 
Q 27.484375 1.90625 30.3125 4.265625 
Q 33.15625 6.640625 34.625 12.203125 
Q 36.859375 20.609375 36.859375 35.890625 
Q 36.859375 47.21875 34.515625 54.78125 
Q 32.765625 60.40625 29.984375 62.75 
Q 27.984375 64.359375 25.140625 64.359375 
Q 21.828125 64.359375 19.234375 61.375 
Q 15.71875 57.328125 14.453125 48.625 
Q 13.1875 39.9375 13.1875 31.5 
z
" id="TimesNewRomanPSMT-30"/>
       <path d="M 12.5 9.46875 
Q 14.796875 9.46875 16.359375 7.875 
Q 17.921875 6.296875 17.921875 4.046875 
Q 17.921875 1.8125 16.328125 0.21875 
Q 14.75 -1.375 12.5 -1.375 
Q 10.25 -1.375 8.65625 0.21875 
Q 7.078125 1.8125 7.078125 4.046875 
Q 7.078125 6.34375 8.65625 7.90625 
Q 10.25 9.46875 12.5 9.46875 
z
" id="TimesNewRomanPSMT-2e"/>
      </defs>
      <g transform="translate(139.331247 736.465225)scale(0.15 -0.15)">
       <use xlink:href="#TimesNewRomanPSMT-30"/>
       <use x="50" xlink:href="#TimesNewRomanPSMT-2e"/>
       <use x="75" xlink:href="#TimesNewRomanPSMT-30"/>
      </g>
     </g>
    </g>
    <g id="xtick_2">
     <g id="line2d_2">
      <g>
       <use style="stroke:#000000;stroke-width:0.8;" x="193.483263" xlink:href="#mffe0a50a47" y="719.0496"/>
      </g>
     </g>
     <g id="text_2">
      <!-- 0.5 -->
      <defs>
       <path d="M 43.40625 66.21875 
L 39.59375 57.90625 
L 19.671875 57.90625 
L 15.328125 49.03125 
Q 28.265625 47.125 35.84375 39.40625 
Q 42.328125 32.765625 42.328125 23.78125 
Q 42.328125 18.5625 40.203125 14.109375 
Q 38.09375 9.671875 34.859375 6.546875 
Q 31.640625 3.421875 27.6875 1.515625 
Q 22.078125 -1.171875 16.15625 -1.171875 
Q 10.203125 -1.171875 7.484375 0.84375 
Q 4.78125 2.875 4.78125 5.328125 
Q 4.78125 6.6875 5.90625 7.734375 
Q 7.03125 8.796875 8.734375 8.796875 
Q 10.015625 8.796875 10.96875 8.40625 
Q 11.921875 8.015625 14.203125 6.390625 
Q 17.875 3.859375 21.625 3.859375 
Q 27.34375 3.859375 31.65625 8.171875 
Q 35.984375 12.5 35.984375 18.703125 
Q 35.984375 24.703125 32.125 29.90625 
Q 28.265625 35.109375 21.484375 37.9375 
Q 16.15625 40.140625 6.984375 40.484375 
L 19.671875 66.21875 
z
" id="TimesNewRomanPSMT-35"/>
      </defs>
      <g transform="translate(184.108263 736.465225)scale(0.15 -0.15)">
       <use xlink:href="#TimesNewRomanPSMT-30"/>
       <use x="50" xlink:href="#TimesNewRomanPSMT-2e"/>
       <use x="75" xlink:href="#TimesNewRomanPSMT-35"/>
      </g>
     </g>
    </g>
    <g id="xtick_3">
     <g id="line2d_3">
      <g>
       <use style="stroke:#000000;stroke-width:0.8;" x="238.260279" xlink:href="#mffe0a50a47" y="719.0496"/>
      </g>
     </g>
     <g id="text_3">
      <!-- 1.0 -->
      <defs>
       <path d="M 11.71875 59.71875 
L 27.828125 67.578125 
L 29.4375 67.578125 
L 29.4375 11.671875 
Q 29.4375 6.109375 29.90625 4.734375 
Q 30.375 3.375 31.828125 2.640625 
Q 33.296875 1.90625 37.796875 1.8125 
L 37.796875 0 
L 12.890625 0 
L 12.890625 1.8125 
Q 17.578125 1.90625 18.9375 2.609375 
Q 20.3125 3.328125 20.84375 4.515625 
Q 21.390625 5.71875 21.390625 11.671875 
L 21.390625 47.40625 
Q 21.390625 54.640625 20.90625 56.6875 
Q 20.5625 58.25 19.65625 58.984375 
Q 18.75 59.71875 17.484375 59.71875 
Q 15.671875 59.71875 12.453125 58.203125 
z
" id="TimesNewRomanPSMT-31"/>
      </defs>
      <g transform="translate(228.885279 736.465225)scale(0.15 -0.15)">
       <use xlink:href="#TimesNewRomanPSMT-31"/>
       <use x="50" xlink:href="#TimesNewRomanPSMT-2e"/>
       <use x="75" xlink:href="#TimesNewRomanPSMT-30"/>
      </g>
     </g>
    </g>
    <g id="xtick_4">
     <g id="line2d_4">
      <g>
       <use style="stroke:#000000;stroke-width:0.8;" x="283.037294" xlink:href="#mffe0a50a47" y="719.0496"/>
      </g>
     </g>
     <g id="text_4">
      <!-- 1.5 -->
      <g transform="translate(273.662294 736.465225)scale(0.15 -0.15)">
       <use xlink:href="#TimesNewRomanPSMT-31"/>
       <use x="50" xlink:href="#TimesNewRomanPSMT-2e"/>
       <use x="75" xlink:href="#TimesNewRomanPSMT-35"/>
      </g>
     </g>
    </g>
    <g id="text_5">
     <!-- Scaled values -->
     <defs>
      <path d="M 45.84375 67.71875 
L 45.84375 44.828125 
L 44.046875 44.828125 
Q 43.171875 51.421875 40.890625 55.328125 
Q 38.625 59.234375 34.421875 61.515625 
Q 30.21875 63.8125 25.734375 63.8125 
Q 20.65625 63.8125 17.328125 60.71875 
Q 14.015625 57.625 14.015625 53.65625 
Q 14.015625 50.640625 16.109375 48.140625 
Q 19.140625 44.484375 30.515625 38.375 
Q 39.796875 33.40625 43.1875 30.734375 
Q 46.578125 28.078125 48.40625 24.453125 
Q 50.25 20.84375 50.25 16.890625 
Q 50.25 9.375 44.40625 3.921875 
Q 38.578125 -1.515625 29.390625 -1.515625 
Q 26.515625 -1.515625 23.96875 -1.078125 
Q 22.46875 -0.828125 17.703125 0.703125 
Q 12.9375 2.25 11.671875 2.25 
Q 10.453125 2.25 9.734375 1.515625 
Q 9.03125 0.78125 8.6875 -1.515625 
L 6.890625 -1.515625 
L 6.890625 21.1875 
L 8.6875 21.1875 
Q 9.96875 14.0625 12.109375 10.515625 
Q 14.265625 6.984375 18.671875 4.640625 
Q 23.09375 2.296875 28.375 2.296875 
Q 34.46875 2.296875 38 5.515625 
Q 41.546875 8.734375 41.546875 13.140625 
Q 41.546875 15.578125 40.203125 18.0625 
Q 38.875 20.5625 36.03125 22.703125 
Q 34.125 24.171875 25.625 28.921875 
Q 17.140625 33.6875 13.546875 36.515625 
Q 9.96875 39.359375 8.109375 42.765625 
Q 6.25 46.1875 6.25 50.296875 
Q 6.25 57.421875 11.71875 62.5625 
Q 17.1875 67.71875 25.640625 67.71875 
Q 30.90625 67.71875 36.8125 65.140625 
Q 39.546875 63.921875 40.671875 63.921875 
Q 41.9375 63.921875 42.75 64.671875 
Q 43.5625 65.4375 44.046875 67.71875 
z
" id="TimesNewRomanPSMT-53"/>
      <path d="M 41.109375 17 
Q 39.3125 8.15625 34.03125 3.390625 
Q 28.765625 -1.375 22.359375 -1.375 
Q 14.75 -1.375 9.078125 5.015625 
Q 3.421875 11.421875 3.421875 22.3125 
Q 3.421875 32.859375 9.6875 39.453125 
Q 15.96875 46.046875 24.75 46.046875 
Q 31.34375 46.046875 35.59375 42.546875 
Q 39.84375 39.0625 39.84375 35.296875 
Q 39.84375 33.453125 38.640625 32.296875 
Q 37.453125 31.15625 35.296875 31.15625 
Q 32.421875 31.15625 30.953125 33.015625 
Q 30.125 34.03125 29.859375 36.90625 
Q 29.59375 39.796875 27.875 41.3125 
Q 26.171875 42.78125 23.140625 42.78125 
Q 18.265625 42.78125 15.28125 39.15625 
Q 11.328125 34.375 11.328125 26.515625 
Q 11.328125 18.5 15.25 12.375 
Q 19.1875 6.25 25.875 6.25 
Q 30.671875 6.25 34.46875 9.515625 
Q 37.15625 11.765625 39.703125 17.671875 
z
" id="TimesNewRomanPSMT-63"/>
      <path d="M 28.46875 6.453125 
Q 21.578125 1.125 19.828125 0.296875 
Q 17.1875 -0.921875 14.203125 -0.921875 
Q 9.578125 -0.921875 6.5625 2.25 
Q 3.5625 5.421875 3.5625 10.59375 
Q 3.5625 13.875 5.03125 16.265625 
Q 7.03125 19.578125 11.984375 22.5 
Q 16.9375 25.4375 28.46875 29.640625 
L 28.46875 31.390625 
Q 28.46875 38.09375 26.34375 40.578125 
Q 24.21875 43.0625 20.171875 43.0625 
Q 17.09375 43.0625 15.28125 41.40625 
Q 13.421875 39.75 13.421875 37.59375 
L 13.53125 34.765625 
Q 13.53125 32.515625 12.375 31.296875 
Q 11.234375 30.078125 9.375 30.078125 
Q 7.5625 30.078125 6.421875 31.34375 
Q 5.28125 32.625 5.28125 34.8125 
Q 5.28125 39.015625 9.578125 42.53125 
Q 13.875 46.046875 21.625 46.046875 
Q 27.59375 46.046875 31.390625 44.046875 
Q 34.28125 42.53125 35.640625 39.3125 
Q 36.53125 37.203125 36.53125 30.71875 
L 36.53125 15.53125 
Q 36.53125 9.125 36.765625 7.6875 
Q 37.015625 6.25 37.578125 5.765625 
Q 38.140625 5.28125 38.875 5.28125 
Q 39.65625 5.28125 40.234375 5.609375 
Q 41.265625 6.25 44.1875 9.1875 
L 44.1875 6.453125 
Q 38.71875 -0.875 33.734375 -0.875 
Q 31.34375 -0.875 29.921875 0.78125 
Q 28.515625 2.4375 28.46875 6.453125 
z
M 28.46875 9.625 
L 28.46875 26.65625 
Q 21.09375 23.734375 18.953125 22.515625 
Q 15.09375 20.359375 13.421875 18.015625 
Q 11.765625 15.671875 11.765625 12.890625 
Q 11.765625 9.375 13.859375 7.046875 
Q 15.96875 4.734375 18.703125 4.734375 
Q 22.40625 4.734375 28.46875 9.625 
z
" id="TimesNewRomanPSMT-61"/>
      <path d="M 18.5 69.4375 
L 18.5 10.109375 
Q 18.5 5.90625 19.109375 4.53125 
Q 19.734375 3.171875 21 2.46875 
Q 22.265625 1.765625 25.734375 1.765625 
L 25.734375 0 
L 3.8125 0 
L 3.8125 1.765625 
Q 6.890625 1.765625 8 2.390625 
Q 9.125 3.03125 9.765625 4.484375 
Q 10.40625 5.953125 10.40625 10.109375 
L 10.40625 50.734375 
Q 10.40625 58.296875 10.0625 60.03125 
Q 9.71875 61.765625 8.953125 62.390625 
Q 8.203125 63.03125 7.03125 63.03125 
Q 5.765625 63.03125 3.8125 62.25 
L 2.984375 63.96875 
L 16.3125 69.4375 
z
" id="TimesNewRomanPSMT-6c"/>
      <path d="M 10.640625 27.875 
Q 10.59375 17.921875 15.484375 12.25 
Q 20.359375 6.59375 26.953125 6.59375 
Q 31.34375 6.59375 34.59375 9 
Q 37.84375 11.421875 40.046875 17.28125 
L 41.546875 16.3125 
Q 40.53125 9.625 35.59375 4.125 
Q 30.671875 -1.375 23.25 -1.375 
Q 15.1875 -1.375 9.453125 4.90625 
Q 3.71875 11.1875 3.71875 21.78125 
Q 3.71875 33.25 9.59375 39.671875 
Q 15.484375 46.09375 24.359375 46.09375 
Q 31.890625 46.09375 36.71875 41.140625 
Q 41.546875 36.1875 41.546875 27.875 
z
M 10.640625 30.71875 
L 31.34375 30.71875 
Q 31.109375 35.015625 30.328125 36.765625 
Q 29.109375 39.5 26.6875 41.0625 
Q 24.265625 42.625 21.625 42.625 
Q 17.578125 42.625 14.375 39.46875 
Q 11.1875 36.328125 10.640625 30.71875 
z
" id="TimesNewRomanPSMT-65"/>
      <path d="M 34.71875 5.03125 
Q 31.453125 1.609375 28.328125 0.109375 
Q 25.203125 -1.375 21.578125 -1.375 
Q 14.265625 -1.375 8.796875 4.75 
Q 3.328125 10.890625 3.328125 20.515625 
Q 3.328125 30.125 9.375 38.109375 
Q 15.4375 46.09375 24.953125 46.09375 
Q 30.859375 46.09375 34.71875 42.328125 
L 34.71875 50.59375 
Q 34.71875 58.25 34.34375 60 
Q 33.984375 61.765625 33.203125 62.390625 
Q 32.421875 63.03125 31.25 63.03125 
Q 29.984375 63.03125 27.875 62.25 
L 27.25 63.96875 
L 40.578125 69.4375 
L 42.78125 69.4375 
L 42.78125 17.71875 
Q 42.78125 9.859375 43.140625 8.125 
Q 43.5 6.390625 44.3125 5.703125 
Q 45.125 5.03125 46.1875 5.03125 
Q 47.515625 5.03125 49.703125 5.859375 
L 50.25 4.15625 
L 36.96875 -1.375 
L 34.71875 -1.375 
z
M 34.71875 8.453125 
L 34.71875 31.5 
Q 34.421875 34.8125 32.953125 37.546875 
Q 31.5 40.28125 29.078125 41.671875 
Q 26.65625 43.0625 24.359375 43.0625 
Q 20.0625 43.0625 16.703125 39.203125 
Q 12.25 34.125 12.25 24.359375 
Q 12.25 14.5 16.546875 9.25 
Q 20.84375 4 26.125 4 
Q 30.5625 4 34.71875 8.453125 
z
" id="TimesNewRomanPSMT-64"/>
      <path id="TimesNewRomanPSMT-20"/>
      <path d="M 0.828125 44.734375 
L 21.875 44.734375 
L 21.875 42.921875 
L 20.515625 42.921875 
Q 18.609375 42.921875 17.609375 41.984375 
Q 16.609375 41.0625 16.609375 39.5 
Q 16.609375 37.796875 17.625 35.453125 
L 28.03125 10.75 
L 38.484375 36.375 
Q 39.59375 39.109375 39.59375 40.53125 
Q 39.59375 41.21875 39.203125 41.65625 
Q 38.671875 42.390625 37.84375 42.65625 
Q 37.015625 42.921875 34.46875 42.921875 
L 34.46875 44.734375 
L 49.078125 44.734375 
L 49.078125 42.921875 
Q 46.53125 42.71875 45.5625 41.890625 
Q 43.84375 40.4375 42.484375 37.015625 
L 26.609375 -1.375 
L 24.609375 -1.375 
L 8.640625 36.375 
Q 7.5625 39.015625 6.578125 40.15625 
Q 5.609375 41.3125 4.109375 42.09375 
Q 3.265625 42.53125 0.828125 42.921875 
z
" id="TimesNewRomanPSMT-76"/>
      <path d="M 42.328125 44.734375 
L 42.328125 17.625 
Q 42.328125 9.859375 42.6875 8.125 
Q 43.0625 6.390625 43.859375 5.703125 
Q 44.671875 5.03125 45.75 5.03125 
Q 47.265625 5.03125 49.171875 5.859375 
L 49.859375 4.15625 
L 36.46875 -1.375 
L 34.28125 -1.375 
L 34.28125 8.109375 
Q 28.515625 1.859375 25.484375 0.234375 
Q 22.46875 -1.375 19.09375 -1.375 
Q 15.328125 -1.375 12.5625 0.796875 
Q 9.8125 2.984375 8.734375 6.390625 
Q 7.671875 9.8125 7.671875 16.0625 
L 7.671875 36.03125 
Q 7.671875 39.203125 6.984375 40.421875 
Q 6.296875 41.65625 4.953125 42.3125 
Q 3.609375 42.96875 0.09375 42.921875 
L 0.09375 44.734375 
L 15.765625 44.734375 
L 15.765625 14.796875 
Q 15.765625 8.546875 17.9375 6.59375 
Q 20.125 4.640625 23.1875 4.640625 
Q 25.296875 4.640625 27.953125 5.953125 
Q 30.609375 7.28125 34.28125 10.984375 
L 34.28125 36.328125 
Q 34.28125 40.140625 32.890625 41.484375 
Q 31.5 42.828125 27.09375 42.921875 
L 27.09375 44.734375 
z
" id="TimesNewRomanPSMT-75"/>
      <path d="M 32.03125 46.046875 
L 32.03125 30.8125 
L 30.421875 30.8125 
Q 28.5625 37.984375 25.65625 40.578125 
Q 22.75 43.171875 18.265625 43.171875 
Q 14.84375 43.171875 12.734375 41.359375 
Q 10.640625 39.546875 10.640625 37.359375 
Q 10.640625 34.625 12.203125 32.671875 
Q 13.71875 30.671875 18.359375 28.421875 
L 25.484375 24.953125 
Q 35.40625 20.125 35.40625 12.203125 
Q 35.40625 6.109375 30.78125 2.359375 
Q 26.171875 -1.375 20.453125 -1.375 
Q 16.359375 -1.375 11.078125 0.09375 
Q 9.46875 0.59375 8.453125 0.59375 
Q 7.328125 0.59375 6.6875 -0.6875 
L 5.078125 -0.6875 
L 5.078125 15.28125 
L 6.6875 15.28125 
Q 8.0625 8.453125 11.90625 4.984375 
Q 15.765625 1.515625 20.5625 1.515625 
Q 23.921875 1.515625 26.046875 3.484375 
Q 28.171875 5.46875 28.171875 8.25 
Q 28.171875 11.625 25.796875 13.921875 
Q 23.4375 16.21875 16.359375 19.734375 
Q 9.28125 23.25 7.078125 26.078125 
Q 4.890625 28.859375 4.890625 33.109375 
Q 4.890625 38.625 8.671875 42.328125 
Q 12.453125 46.046875 18.453125 46.046875 
Q 21.09375 46.046875 24.859375 44.921875 
Q 27.34375 44.1875 28.171875 44.1875 
Q 28.953125 44.1875 29.390625 44.53125 
Q 29.828125 44.875 30.421875 46.046875 
z
" id="TimesNewRomanPSMT-73"/>
     </defs>
     <g transform="translate(178.036172 755.478194)scale(0.17 -0.17)">
      <use xlink:href="#TimesNewRomanPSMT-53"/>
      <use x="55.615234" xlink:href="#TimesNewRomanPSMT-63"/>
      <use x="100" xlink:href="#TimesNewRomanPSMT-61"/>
      <use x="144.384766" xlink:href="#TimesNewRomanPSMT-6c"/>
      <use x="172.167969" xlink:href="#TimesNewRomanPSMT-65"/>
      <use x="216.552734" xlink:href="#TimesNewRomanPSMT-64"/>
      <use x="266.552734" xlink:href="#TimesNewRomanPSMT-20"/>
      <use x="291.552734" xlink:href="#TimesNewRomanPSMT-76"/>
      <use x="341.552734" xlink:href="#TimesNewRomanPSMT-61"/>
      <use x="385.9375" xlink:href="#TimesNewRomanPSMT-6c"/>
      <use x="413.720703" xlink:href="#TimesNewRomanPSMT-75"/>
      <use x="463.720703" xlink:href="#TimesNewRomanPSMT-65"/>
      <use x="508.105469" xlink:href="#TimesNewRomanPSMT-73"/>
     </g>
    </g>
   </g>
   <g id="matplotlib.axis_2">
    <g id="ytick_1">
     <g id="line2d_5">
      <defs>
       <path d="M 0 0 
L -3.5 0 
" id="m06ee6869ef" style="stroke:#000000;stroke-width:0.8;"/>
      </defs>
      <g>
       <use style="stroke:#000000;stroke-width:0.8;" x="140.835156" xlink:href="#m06ee6869ef" y="684.431473"/>
      </g>
     </g>
     <g id="text_6">
      <!-- ALP_M_n -->
      <defs>
       <path d="M 45.75 22.171875 
L 20.125 22.171875 
L 15.625 11.71875 
Q 13.96875 7.859375 13.96875 5.953125 
Q 13.96875 4.4375 15.40625 3.296875 
Q 16.84375 2.15625 21.625 1.8125 
L 21.625 0 
L 0.78125 0 
L 0.78125 1.8125 
Q 4.9375 2.546875 6.15625 3.71875 
Q 8.640625 6.0625 11.671875 13.234375 
L 34.96875 67.71875 
L 36.671875 67.71875 
L 59.71875 12.640625 
Q 62.5 6 64.765625 4.015625 
Q 67.046875 2.046875 71.09375 1.8125 
L 71.09375 0 
L 44.96875 0 
L 44.96875 1.8125 
Q 48.921875 2 50.3125 3.125 
Q 51.703125 4.25 51.703125 5.859375 
Q 51.703125 8.015625 49.75 12.640625 
z
M 44.390625 25.78125 
L 33.15625 52.546875 
L 21.625 25.78125 
z
" id="TimesNewRomanPSMT-41"/>
       <path d="M 57.328125 18.3125 
L 58.9375 17.96875 
L 53.265625 0 
L 2 0 
L 2 1.8125 
L 4.5 1.8125 
Q 8.6875 1.8125 10.5 4.546875 
Q 11.53125 6.109375 11.53125 11.765625 
L 11.53125 54.5 
Q 11.53125 60.6875 10.15625 62.25 
Q 8.25 64.40625 4.5 64.40625 
L 2 64.40625 
L 2 66.21875 
L 31.984375 66.21875 
L 31.984375 64.40625 
Q 26.703125 64.453125 24.578125 63.421875 
Q 22.46875 62.40625 21.6875 60.84375 
Q 20.90625 59.28125 20.90625 53.375 
L 20.90625 11.765625 
Q 20.90625 7.71875 21.6875 6.203125 
Q 22.265625 5.171875 23.484375 4.6875 
Q 24.703125 4.203125 31.109375 4.203125 
L 35.9375 4.203125 
Q 43.5625 4.203125 46.625 5.328125 
Q 49.703125 6.453125 52.234375 9.296875 
Q 54.78125 12.15625 57.328125 18.3125 
z
" id="TimesNewRomanPSMT-4c"/>
       <path d="M 20.515625 31 
L 20.515625 11.71875 
Q 20.515625 5.46875 21.875 3.953125 
Q 23.734375 1.8125 27.484375 1.8125 
L 30.03125 1.8125 
L 30.03125 0 
L 1.65625 0 
L 1.65625 1.8125 
L 4.15625 1.8125 
Q 8.34375 1.8125 10.15625 4.546875 
Q 11.140625 6.0625 11.140625 11.71875 
L 11.140625 54.5 
Q 11.140625 60.75 9.8125 62.25 
Q 7.90625 64.40625 4.15625 64.40625 
L 1.65625 64.40625 
L 1.65625 66.21875 
L 25.921875 66.21875 
Q 34.8125 66.21875 39.9375 64.375 
Q 45.0625 62.546875 48.578125 58.203125 
Q 52.09375 53.859375 52.09375 47.90625 
Q 52.09375 39.796875 46.75 34.71875 
Q 41.40625 29.640625 31.640625 29.640625 
Q 29.25 29.640625 26.46875 29.984375 
Q 23.6875 30.328125 20.515625 31 
z
M 20.515625 33.796875 
Q 23.09375 33.296875 25.09375 33.046875 
Q 27.09375 32.8125 28.515625 32.8125 
Q 33.59375 32.8125 37.28125 36.734375 
Q 40.96875 40.671875 40.96875 46.921875 
Q 40.96875 51.21875 39.203125 54.90625 
Q 37.453125 58.59375 34.21875 60.421875 
Q 31 62.25 26.90625 62.25 
Q 24.421875 62.25 20.515625 61.328125 
z
" id="TimesNewRomanPSMT-50"/>
       <path d="M 50.875 -21.578125 
L -0.828125 -21.578125 
L -0.828125 -17.484375 
L 50.875 -17.484375 
z
" id="TimesNewRomanPSMT-5f"/>
       <path d="M 40.921875 0 
L 15.328125 55.71875 
L 15.328125 11.46875 
Q 15.328125 5.375 16.65625 3.859375 
Q 18.453125 1.8125 22.359375 1.8125 
L 24.703125 1.8125 
L 24.703125 0 
L 1.65625 0 
L 1.65625 1.8125 
L 4 1.8125 
Q 8.203125 1.8125 9.96875 4.34375 
Q 11.03125 5.90625 11.03125 11.46875 
L 11.03125 54.734375 
Q 11.03125 59.125 10.0625 61.078125 
Q 9.375 62.5 7.546875 63.453125 
Q 5.71875 64.40625 1.65625 64.40625 
L 1.65625 66.21875 
L 20.40625 66.21875 
L 44.4375 14.40625 
L 68.0625 66.21875 
L 86.8125 66.21875 
L 86.8125 64.40625 
L 84.515625 64.40625 
Q 80.28125 64.40625 78.515625 61.859375 
Q 77.4375 60.296875 77.4375 54.734375 
L 77.4375 11.46875 
Q 77.4375 5.375 78.8125 3.859375 
Q 80.609375 1.8125 84.515625 1.8125 
L 86.8125 1.8125 
L 86.8125 0 
L 58.6875 0 
L 58.6875 1.8125 
L 61.03125 1.8125 
Q 65.28125 1.8125 67 4.34375 
Q 68.0625 5.90625 68.0625 11.46875 
L 68.0625 55.71875 
L 42.53125 0 
z
" id="TimesNewRomanPSMT-4d"/>
       <path d="M 16.15625 36.578125 
Q 24.03125 46.046875 31.15625 46.046875 
Q 34.8125 46.046875 37.453125 44.21875 
Q 40.09375 42.390625 41.65625 38.1875 
Q 42.71875 35.25 42.71875 29.203125 
L 42.71875 10.109375 
Q 42.71875 5.859375 43.40625 4.34375 
Q 43.953125 3.125 45.140625 2.4375 
Q 46.34375 1.765625 49.5625 1.765625 
L 49.5625 0 
L 27.4375 0 
L 27.4375 1.765625 
L 28.375 1.765625 
Q 31.5 1.765625 32.734375 2.703125 
Q 33.984375 3.65625 34.46875 5.515625 
Q 34.671875 6.25 34.671875 10.109375 
L 34.671875 28.421875 
Q 34.671875 34.515625 33.078125 37.28125 
Q 31.5 40.046875 27.734375 40.046875 
Q 21.921875 40.046875 16.15625 33.6875 
L 16.15625 10.109375 
Q 16.15625 5.5625 16.703125 4.5 
Q 17.390625 3.078125 18.578125 2.421875 
Q 19.78125 1.765625 23.4375 1.765625 
L 23.4375 0 
L 1.3125 0 
L 1.3125 1.765625 
L 2.296875 1.765625 
Q 5.71875 1.765625 6.90625 3.484375 
Q 8.109375 5.21875 8.109375 10.109375 
L 8.109375 26.703125 
Q 8.109375 34.765625 7.734375 36.515625 
Q 7.375 38.28125 6.609375 38.90625 
Q 5.859375 39.546875 4.59375 39.546875 
Q 3.21875 39.546875 1.3125 38.8125 
L 0.59375 40.578125 
L 14.0625 46.046875 
L 16.15625 46.046875 
z
" id="TimesNewRomanPSMT-6e"/>
      </defs>
      <g transform="translate(69.660938 689.625223)scale(0.15 -0.15)">
       <use xlink:href="#TimesNewRomanPSMT-41"/>
       <use x="72.216797" xlink:href="#TimesNewRomanPSMT-4c"/>
       <use x="133.300781" xlink:href="#TimesNewRomanPSMT-50"/>
       <use x="188.916016" xlink:href="#TimesNewRomanPSMT-5f"/>
       <use x="238.916016" xlink:href="#TimesNewRomanPSMT-4d"/>
       <use x="327.832031" xlink:href="#TimesNewRomanPSMT-5f"/>
       <use x="377.832031" xlink:href="#TimesNewRomanPSMT-6e"/>
      </g>
     </g>
    </g>
    <g id="ytick_2">
     <g id="line2d_6">
      <g>
       <use style="stroke:#000000;stroke-width:0.8;" x="140.835156" xlink:href="#m06ee6869ef" y="659.529434"/>
      </g>
     </g>
     <g id="text_7">
      <!-- ARS_M_n -->
      <defs>
       <path d="M 67.578125 0 
L 49.90625 0 
L 27.484375 30.953125 
Q 25 30.859375 23.4375 30.859375 
Q 22.796875 30.859375 22.0625 30.875 
Q 21.34375 30.90625 20.5625 30.953125 
L 20.5625 11.71875 
Q 20.5625 5.46875 21.921875 3.953125 
Q 23.78125 1.8125 27.484375 1.8125 
L 30.078125 1.8125 
L 30.078125 0 
L 1.703125 0 
L 1.703125 1.8125 
L 4.203125 1.8125 
Q 8.40625 1.8125 10.203125 4.546875 
Q 11.234375 6.0625 11.234375 11.71875 
L 11.234375 54.5 
Q 11.234375 60.75 9.859375 62.25 
Q 7.953125 64.40625 4.203125 64.40625 
L 1.703125 64.40625 
L 1.703125 66.21875 
L 25.828125 66.21875 
Q 36.375 66.21875 41.375 64.671875 
Q 46.390625 63.140625 49.875 59.015625 
Q 53.375 54.890625 53.375 49.171875 
Q 53.375 43.0625 49.390625 38.5625 
Q 45.40625 34.078125 37.0625 32.234375 
L 50.734375 13.234375 
Q 55.421875 6.6875 58.78125 4.53125 
Q 62.15625 2.390625 67.578125 1.8125 
z
M 20.5625 34.03125 
Q 21.484375 34.03125 22.171875 34 
Q 22.859375 33.984375 23.296875 33.984375 
Q 32.765625 33.984375 37.578125 38.078125 
Q 42.390625 42.1875 42.390625 48.53125 
Q 42.390625 54.734375 38.5 58.609375 
Q 34.625 62.5 28.21875 62.5 
Q 25.390625 62.5 20.5625 61.578125 
z
" id="TimesNewRomanPSMT-52"/>
      </defs>
      <g transform="translate(68.817188 664.723184)scale(0.15 -0.15)">
       <use xlink:href="#TimesNewRomanPSMT-41"/>
       <use x="72.216797" xlink:href="#TimesNewRomanPSMT-52"/>
       <use x="138.916016" xlink:href="#TimesNewRomanPSMT-53"/>
       <use x="194.53125" xlink:href="#TimesNewRomanPSMT-5f"/>
       <use x="244.53125" xlink:href="#TimesNewRomanPSMT-4d"/>
       <use x="333.447266" xlink:href="#TimesNewRomanPSMT-5f"/>
       <use x="383.447266" xlink:href="#TimesNewRomanPSMT-6e"/>
      </g>
     </g>
    </g>
    <g id="ytick_3">
     <g id="line2d_7">
      <g>
       <use style="stroke:#000000;stroke-width:0.8;" x="140.835156" xlink:href="#m06ee6869ef" y="634.627395"/>
      </g>
     </g>
     <g id="text_8">
      <!-- ALP_0 -->
      <g transform="translate(90.499219 639.821145)scale(0.15 -0.15)">
       <use xlink:href="#TimesNewRomanPSMT-41"/>
       <use x="72.216797" xlink:href="#TimesNewRomanPSMT-4c"/>
       <use x="133.300781" xlink:href="#TimesNewRomanPSMT-50"/>
       <use x="188.916016" xlink:href="#TimesNewRomanPSMT-5f"/>
       <use x="238.916016" xlink:href="#TimesNewRomanPSMT-30"/>
      </g>
     </g>
    </g>
    <g id="ytick_4">
     <g id="line2d_8">
      <g>
       <use style="stroke:#000000;stroke-width:0.8;" x="140.835156" xlink:href="#m06ee6869ef" y="609.725357"/>
      </g>
     </g>
     <g id="text_9">
      <!-- ARS_0 -->
      <g transform="translate(89.655469 614.919107)scale(0.15 -0.15)">
       <use xlink:href="#TimesNewRomanPSMT-41"/>
       <use x="72.216797" xlink:href="#TimesNewRomanPSMT-52"/>
       <use x="138.916016" xlink:href="#TimesNewRomanPSMT-53"/>
       <use x="194.53125" xlink:href="#TimesNewRomanPSMT-5f"/>
       <use x="244.53125" xlink:href="#TimesNewRomanPSMT-30"/>
      </g>
     </g>
    </g>
    <g id="ytick_5">
     <g id="line2d_9">
      <g>
       <use style="stroke:#000000;stroke-width:0.8;" x="140.835156" xlink:href="#m06ee6869ef" y="584.823318"/>
      </g>
     </g>
     <g id="text_10">
      <!-- Mg_stim -->
      <defs>
       <path d="M 15.09375 16.3125 
Q 10.984375 18.3125 8.78125 21.890625 
Q 6.59375 25.484375 6.59375 29.828125 
Q 6.59375 36.46875 11.59375 41.25 
Q 16.609375 46.046875 24.421875 46.046875 
Q 30.8125 46.046875 35.5 42.921875 
L 44.96875 42.921875 
Q 47.078125 42.921875 47.40625 42.796875 
Q 47.75 42.671875 47.90625 42.390625 
Q 48.1875 41.9375 48.1875 40.828125 
Q 48.1875 39.546875 47.953125 39.0625 
Q 47.796875 38.8125 47.4375 38.671875 
Q 47.078125 38.53125 44.96875 38.53125 
L 39.15625 38.53125 
Q 41.890625 35.015625 41.890625 29.546875 
Q 41.890625 23.296875 37.109375 18.84375 
Q 32.328125 14.40625 24.265625 14.40625 
Q 20.953125 14.40625 17.484375 15.375 
Q 15.328125 13.53125 14.5625 12.140625 
Q 13.8125 10.75 13.8125 9.765625 
Q 13.8125 8.9375 14.625 8.15625 
Q 15.4375 7.375 17.78125 7.03125 
Q 19.140625 6.84375 24.609375 6.6875 
Q 34.671875 6.453125 37.640625 6 
Q 42.1875 5.375 44.890625 2.640625 
Q 47.609375 -0.09375 47.609375 -4.109375 
Q 47.609375 -9.625 42.4375 -14.453125 
Q 34.8125 -21.578125 22.5625 -21.578125 
Q 13.140625 -21.578125 6.640625 -17.328125 
Q 2.984375 -14.890625 2.984375 -12.25 
Q 2.984375 -11.078125 3.515625 -9.90625 
Q 4.34375 -8.109375 6.9375 -4.890625 
Q 7.28125 -4.4375 11.921875 0.390625 
Q 9.375 1.90625 8.328125 3.09375 
Q 7.28125 4.296875 7.28125 5.8125 
Q 7.28125 7.515625 8.671875 9.8125 
Q 10.0625 12.109375 15.09375 16.3125 
z
M 23.578125 43.703125 
Q 19.96875 43.703125 17.53125 40.8125 
Q 15.09375 37.9375 15.09375 31.984375 
Q 15.09375 24.265625 18.40625 20.015625 
Q 20.953125 16.796875 24.859375 16.796875 
Q 28.5625 16.796875 30.953125 19.578125 
Q 33.34375 22.359375 33.34375 28.328125 
Q 33.34375 36.078125 29.984375 40.484375 
Q 27.484375 43.703125 23.578125 43.703125 
z
M 14.59375 0 
Q 12.3125 -2.484375 11.140625 -4.625 
Q 9.96875 -6.78125 9.96875 -8.59375 
Q 9.96875 -10.9375 12.796875 -12.703125 
Q 17.671875 -15.71875 26.90625 -15.71875 
Q 35.6875 -15.71875 39.859375 -12.609375 
Q 44.046875 -9.515625 44.046875 -6 
Q 44.046875 -3.46875 41.546875 -2.390625 
Q 39.015625 -1.3125 31.5 -1.125 
Q 20.515625 -0.828125 14.59375 0 
z
" id="TimesNewRomanPSMT-67"/>
       <path d="M 16.109375 59.421875 
L 16.109375 44.734375 
L 26.5625 44.734375 
L 26.5625 41.3125 
L 16.109375 41.3125 
L 16.109375 12.3125 
Q 16.109375 7.953125 17.359375 6.4375 
Q 18.609375 4.9375 20.5625 4.9375 
Q 22.171875 4.9375 23.6875 5.9375 
Q 25.203125 6.9375 26.03125 8.890625 
L 27.9375 8.890625 
Q 26.21875 4.109375 23.09375 1.6875 
Q 19.96875 -0.734375 16.65625 -0.734375 
Q 14.40625 -0.734375 12.25 0.515625 
Q 10.109375 1.765625 9.078125 4.078125 
Q 8.0625 6.390625 8.0625 11.234375 
L 8.0625 41.3125 
L 0.984375 41.3125 
L 0.984375 42.921875 
Q 3.65625 44 6.46875 46.5625 
Q 9.28125 49.125 11.46875 52.640625 
Q 12.59375 54.5 14.59375 59.421875 
z
" id="TimesNewRomanPSMT-74"/>
       <path d="M 14.5 69.4375 
Q 16.546875 69.4375 17.984375 67.984375 
Q 19.4375 66.546875 19.4375 64.5 
Q 19.4375 62.453125 17.984375 60.984375 
Q 16.546875 59.515625 14.5 59.515625 
Q 12.453125 59.515625 10.984375 60.984375 
Q 9.515625 62.453125 9.515625 64.5 
Q 9.515625 66.546875 10.953125 67.984375 
Q 12.40625 69.4375 14.5 69.4375 
z
M 18.5625 46.046875 
L 18.5625 10.109375 
Q 18.5625 5.90625 19.171875 4.515625 
Q 19.78125 3.125 20.96875 2.4375 
Q 22.171875 1.765625 25.34375 1.765625 
L 25.34375 0 
L 3.609375 0 
L 3.609375 1.765625 
Q 6.890625 1.765625 8 2.390625 
Q 9.125 3.03125 9.78125 4.484375 
Q 10.453125 5.953125 10.453125 10.109375 
L 10.453125 27.34375 
Q 10.453125 34.625 10.015625 36.765625 
Q 9.671875 38.328125 8.9375 38.9375 
Q 8.203125 39.546875 6.9375 39.546875 
Q 5.5625 39.546875 3.609375 38.8125 
L 2.9375 40.578125 
L 16.40625 46.046875 
z
" id="TimesNewRomanPSMT-69"/>
       <path d="M 16.40625 36.53125 
Q 21.296875 41.40625 22.171875 42.140625 
Q 24.359375 44 26.890625 45.015625 
Q 29.4375 46.046875 31.9375 46.046875 
Q 36.140625 46.046875 39.15625 43.59375 
Q 42.1875 41.15625 43.21875 36.53125 
Q 48.25 42.390625 51.703125 44.21875 
Q 55.171875 46.046875 58.84375 46.046875 
Q 62.40625 46.046875 65.15625 44.21875 
Q 67.921875 42.390625 69.53125 38.234375 
Q 70.609375 35.40625 70.609375 29.34375 
L 70.609375 10.109375 
Q 70.609375 5.90625 71.234375 4.34375 
Q 71.734375 3.265625 73.046875 2.515625 
Q 74.359375 1.765625 77.34375 1.765625 
L 77.34375 0 
L 55.28125 0 
L 55.28125 1.765625 
L 56.203125 1.765625 
Q 59.078125 1.765625 60.6875 2.875 
Q 61.8125 3.65625 62.3125 5.375 
Q 62.5 6.203125 62.5 10.109375 
L 62.5 29.34375 
Q 62.5 34.8125 61.1875 37.0625 
Q 59.28125 40.1875 55.078125 40.1875 
Q 52.484375 40.1875 49.875 38.890625 
Q 47.265625 37.59375 43.5625 34.078125 
L 43.453125 33.546875 
L 43.5625 31.453125 
L 43.5625 10.109375 
Q 43.5625 5.515625 44.0625 4.390625 
Q 44.578125 3.265625 45.984375 2.515625 
Q 47.40625 1.765625 50.828125 1.765625 
L 50.828125 0 
L 28.21875 0 
L 28.21875 1.765625 
Q 31.9375 1.765625 33.328125 2.640625 
Q 34.71875 3.515625 35.25 5.28125 
Q 35.5 6.109375 35.5 10.109375 
L 35.5 29.34375 
Q 35.5 34.8125 33.890625 37.203125 
Q 31.734375 40.328125 27.875 40.328125 
Q 25.25 40.328125 22.65625 38.921875 
Q 18.609375 36.765625 16.40625 34.078125 
L 16.40625 10.109375 
Q 16.40625 5.71875 17.015625 4.390625 
Q 17.625 3.078125 18.8125 2.421875 
Q 20.015625 1.765625 23.6875 1.765625 
L 23.6875 0 
L 1.5625 0 
L 1.5625 1.765625 
Q 4.640625 1.765625 5.859375 2.421875 
Q 7.078125 3.078125 7.703125 4.515625 
Q 8.34375 5.953125 8.34375 10.109375 
L 8.34375 27.203125 
Q 8.34375 34.578125 7.90625 36.71875 
Q 7.5625 38.328125 6.828125 38.9375 
Q 6.109375 39.546875 4.828125 39.546875 
Q 3.46875 39.546875 1.5625 38.8125 
L 0.828125 40.578125 
L 14.3125 46.046875 
L 16.40625 46.046875 
z
" id="TimesNewRomanPSMT-6d"/>
      </defs>
      <g transform="translate(79.657031 590.03113)scale(0.15 -0.15)">
       <use xlink:href="#TimesNewRomanPSMT-4d"/>
       <use x="88.916016" xlink:href="#TimesNewRomanPSMT-67"/>
       <use x="138.916016" xlink:href="#TimesNewRomanPSMT-5f"/>
       <use x="188.916016" xlink:href="#TimesNewRomanPSMT-73"/>
       <use x="227.832031" xlink:href="#TimesNewRomanPSMT-74"/>
       <use x="255.615234" xlink:href="#TimesNewRomanPSMT-69"/>
       <use x="283.398438" xlink:href="#TimesNewRomanPSMT-6d"/>
      </g>
     </g>
    </g>
    <g id="ytick_6">
     <g id="line2d_10">
      <g>
       <use style="stroke:#000000;stroke-width:0.8;" x="140.835156" xlink:href="#m06ee6869ef" y="559.921279"/>
      </g>
     </g>
     <g id="text_11">
      <!-- Mg_dest -->
      <g transform="translate(81.332813 565.129091)scale(0.15 -0.15)">
       <use xlink:href="#TimesNewRomanPSMT-4d"/>
       <use x="88.916016" xlink:href="#TimesNewRomanPSMT-67"/>
       <use x="138.916016" xlink:href="#TimesNewRomanPSMT-5f"/>
       <use x="188.916016" xlink:href="#TimesNewRomanPSMT-64"/>
       <use x="238.916016" xlink:href="#TimesNewRomanPSMT-65"/>
       <use x="283.300781" xlink:href="#TimesNewRomanPSMT-73"/>
       <use x="322.216797" xlink:href="#TimesNewRomanPSMT-74"/>
      </g>
     </g>
    </g>
    <g id="ytick_7">
     <g id="line2d_11">
      <g>
       <use style="stroke:#000000;stroke-width:0.8;" x="140.835156" xlink:href="#m06ee6869ef" y="535.01924"/>
      </g>
     </g>
     <g id="text_12">
      <!-- IL1b_ineffective -->
      <defs>
       <path d="M 30.859375 1.8125 
L 30.859375 0 
L 2.484375 0 
L 2.484375 1.8125 
L 4.828125 1.8125 
Q 8.9375 1.8125 10.796875 4.203125 
Q 11.96875 5.765625 11.96875 11.71875 
L 11.96875 54.5 
Q 11.96875 59.515625 11.328125 61.140625 
Q 10.84375 62.359375 9.328125 63.234375 
Q 7.171875 64.40625 4.828125 64.40625 
L 2.484375 64.40625 
L 2.484375 66.21875 
L 30.859375 66.21875 
L 30.859375 64.40625 
L 28.46875 64.40625 
Q 24.421875 64.40625 22.5625 62.015625 
Q 21.34375 60.453125 21.34375 54.5 
L 21.34375 11.71875 
Q 21.34375 6.6875 21.96875 5.078125 
Q 22.46875 3.859375 24.03125 2.984375 
Q 26.125 1.8125 28.46875 1.8125 
z
" id="TimesNewRomanPSMT-49"/>
       <path d="M 15.375 37.015625 
Q 21.875 46.046875 29.390625 46.046875 
Q 36.28125 46.046875 41.40625 40.15625 
Q 46.53125 34.28125 46.53125 24.078125 
Q 46.53125 12.15625 38.625 4.890625 
Q 31.84375 -1.375 23.484375 -1.375 
Q 19.578125 -1.375 15.546875 0.046875 
Q 11.53125 1.46875 7.328125 4.296875 
L 7.328125 50.640625 
Q 7.328125 58.25 6.953125 60 
Q 6.59375 61.765625 5.8125 62.390625 
Q 5.03125 63.03125 3.859375 63.03125 
Q 2.484375 63.03125 0.4375 62.25 
L -0.25 63.96875 
L 13.1875 69.4375 
L 15.375 69.4375 
z
M 15.375 33.890625 
L 15.375 7.125 
Q 17.875 4.6875 20.53125 3.4375 
Q 23.1875 2.203125 25.984375 2.203125 
Q 30.421875 2.203125 34.25 7.078125 
Q 38.09375 11.96875 38.09375 21.296875 
Q 38.09375 29.890625 34.25 34.5 
Q 30.421875 39.109375 25.53125 39.109375 
Q 22.953125 39.109375 20.359375 37.796875 
Q 18.40625 36.8125 15.375 33.890625 
z
" id="TimesNewRomanPSMT-62"/>
       <path d="M 20.609375 41.21875 
L 20.609375 11.8125 
Q 20.609375 5.5625 21.96875 3.90625 
Q 23.78125 1.765625 26.8125 1.765625 
L 30.859375 1.765625 
L 30.859375 0 
L 4.15625 0 
L 4.15625 1.765625 
L 6.15625 1.765625 
Q 8.109375 1.765625 9.71875 2.734375 
Q 11.328125 3.71875 11.9375 5.375 
Q 12.546875 7.03125 12.546875 11.8125 
L 12.546875 41.21875 
L 3.859375 41.21875 
L 3.859375 44.734375 
L 12.546875 44.734375 
L 12.546875 47.65625 
Q 12.546875 54.34375 14.6875 58.984375 
Q 16.84375 63.625 21.265625 66.484375 
Q 25.6875 69.34375 31.203125 69.34375 
Q 36.328125 69.34375 40.625 66.015625 
Q 43.453125 63.8125 43.453125 61.078125 
Q 43.453125 59.625 42.1875 58.328125 
Q 40.921875 57.03125 39.453125 57.03125 
Q 38.328125 57.03125 37.078125 57.828125 
Q 35.84375 58.640625 34.03125 61.296875 
Q 32.234375 63.96875 30.71875 64.890625 
Q 29.203125 65.828125 27.34375 65.828125 
Q 25.09375 65.828125 23.53125 64.625 
Q 21.96875 63.421875 21.28125 60.90625 
Q 20.609375 58.40625 20.609375 47.953125 
L 20.609375 44.734375 
L 32.125 44.734375 
L 32.125 41.21875 
z
" id="TimesNewRomanPSMT-66"/>
      </defs>
      <g transform="translate(33.05625 540.227052)scale(0.15 -0.15)">
       <use xlink:href="#TimesNewRomanPSMT-49"/>
       <use x="33.300781" xlink:href="#TimesNewRomanPSMT-4c"/>
       <use x="94.384766" xlink:href="#TimesNewRomanPSMT-31"/>
       <use x="144.384766" xlink:href="#TimesNewRomanPSMT-62"/>
       <use x="194.384766" xlink:href="#TimesNewRomanPSMT-5f"/>
       <use x="244.384766" xlink:href="#TimesNewRomanPSMT-69"/>
       <use x="272.167969" xlink:href="#TimesNewRomanPSMT-6e"/>
       <use x="322.167969" xlink:href="#TimesNewRomanPSMT-65"/>
       <use x="366.552734" xlink:href="#TimesNewRomanPSMT-66"/>
       <use x="399.837891" xlink:href="#TimesNewRomanPSMT-66"/>
       <use x="433.138672" xlink:href="#TimesNewRomanPSMT-65"/>
       <use x="477.523438" xlink:href="#TimesNewRomanPSMT-63"/>
       <use x="521.908203" xlink:href="#TimesNewRomanPSMT-74"/>
       <use x="549.691406" xlink:href="#TimesNewRomanPSMT-69"/>
       <use x="577.474609" xlink:href="#TimesNewRomanPSMT-76"/>
       <use x="627.474609" xlink:href="#TimesNewRomanPSMT-65"/>
      </g>
     </g>
    </g>
    <g id="ytick_8">
     <g id="line2d_12">
      <g>
       <use style="stroke:#000000;stroke-width:0.8;" x="140.835156" xlink:href="#m06ee6869ef" y="510.117201"/>
      </g>
     </g>
     <g id="text_13">
      <!-- IL1b_stim -->
      <g transform="translate(71.339063 515.325014)scale(0.15 -0.15)">
       <use xlink:href="#TimesNewRomanPSMT-49"/>
       <use x="33.300781" xlink:href="#TimesNewRomanPSMT-4c"/>
       <use x="94.384766" xlink:href="#TimesNewRomanPSMT-31"/>
       <use x="144.384766" xlink:href="#TimesNewRomanPSMT-62"/>
       <use x="194.384766" xlink:href="#TimesNewRomanPSMT-5f"/>
       <use x="244.384766" xlink:href="#TimesNewRomanPSMT-73"/>
       <use x="283.300781" xlink:href="#TimesNewRomanPSMT-74"/>
       <use x="311.083984" xlink:href="#TimesNewRomanPSMT-69"/>
       <use x="338.867188" xlink:href="#TimesNewRomanPSMT-6d"/>
      </g>
     </g>
    </g>
    <g id="ytick_9">
     <g id="line2d_13">
      <g>
       <use style="stroke:#000000;stroke-width:0.8;" x="140.835156" xlink:href="#m06ee6869ef" y="485.215162"/>
      </g>
     </g>
     <g id="text_14">
      <!-- IL8_favorable -->
      <defs>
       <path d="M 19.1875 33.34375 
Q 11.328125 39.796875 9.046875 43.703125 
Q 6.78125 47.609375 6.78125 51.8125 
Q 6.78125 58.25 11.765625 62.90625 
Q 16.75 67.578125 25 67.578125 
Q 33.015625 67.578125 37.890625 63.234375 
Q 42.78125 58.890625 42.78125 53.328125 
Q 42.78125 49.609375 40.140625 45.75 
Q 37.5 41.890625 29.15625 36.671875 
Q 37.75 30.03125 40.53125 26.21875 
Q 44.234375 21.234375 44.234375 15.71875 
Q 44.234375 8.734375 38.90625 3.78125 
Q 33.59375 -1.171875 24.953125 -1.171875 
Q 15.53125 -1.171875 10.25 4.734375 
Q 6.0625 9.46875 6.0625 15.09375 
Q 6.0625 19.484375 9.015625 23.796875 
Q 11.96875 28.125 19.1875 33.34375 
z
M 26.859375 38.578125 
Q 32.71875 43.84375 34.28125 46.890625 
Q 35.84375 49.953125 35.84375 53.8125 
Q 35.84375 58.9375 32.953125 61.84375 
Q 30.078125 64.75 25.09375 64.75 
Q 20.125 64.75 17 61.859375 
Q 13.875 58.984375 13.875 55.125 
Q 13.875 52.59375 15.15625 50.046875 
Q 16.453125 47.515625 18.84375 45.21875 
z
M 21.484375 31.5 
Q 17.4375 28.078125 15.484375 24.046875 
Q 13.53125 20.015625 13.53125 15.328125 
Q 13.53125 9.03125 16.96875 5.25 
Q 20.40625 1.46875 25.734375 1.46875 
Q 31 1.46875 34.171875 4.4375 
Q 37.359375 7.421875 37.359375 11.671875 
Q 37.359375 15.1875 35.5 17.96875 
Q 32.03125 23.140625 21.484375 31.5 
z
" id="TimesNewRomanPSMT-38"/>
       <path d="M 25 46.046875 
Q 35.15625 46.046875 41.3125 38.328125 
Q 46.53125 31.734375 46.53125 23.1875 
Q 46.53125 17.1875 43.640625 11.03125 
Q 40.765625 4.890625 35.71875 1.75 
Q 30.671875 -1.375 24.46875 -1.375 
Q 14.359375 -1.375 8.40625 6.6875 
Q 3.375 13.484375 3.375 21.921875 
Q 3.375 28.078125 6.421875 34.15625 
Q 9.46875 40.234375 14.453125 43.140625 
Q 19.4375 46.046875 25 46.046875 
z
M 23.484375 42.875 
Q 20.90625 42.875 18.28125 41.328125 
Q 15.671875 39.796875 14.0625 35.9375 
Q 12.453125 32.078125 12.453125 26.03125 
Q 12.453125 16.265625 16.328125 9.171875 
Q 20.21875 2.09375 26.5625 2.09375 
Q 31.296875 2.09375 34.375 6 
Q 37.453125 9.90625 37.453125 19.4375 
Q 37.453125 31.34375 32.328125 38.1875 
Q 28.859375 42.875 23.484375 42.875 
z
" id="TimesNewRomanPSMT-6f"/>
       <path d="M 16.21875 46.046875 
L 16.21875 35.984375 
Q 21.828125 46.046875 27.734375 46.046875 
Q 30.421875 46.046875 32.171875 44.40625 
Q 33.9375 42.78125 33.9375 40.625 
Q 33.9375 38.71875 32.65625 37.390625 
Q 31.390625 36.078125 29.640625 36.078125 
Q 27.9375 36.078125 25.8125 37.765625 
Q 23.6875 39.453125 22.65625 39.453125 
Q 21.78125 39.453125 20.75 38.484375 
Q 18.5625 36.46875 16.21875 31.890625 
L 16.21875 10.453125 
Q 16.21875 6.734375 17.140625 4.828125 
Q 17.78125 3.515625 19.390625 2.640625 
Q 21 1.765625 24.03125 1.765625 
L 24.03125 0 
L 1.125 0 
L 1.125 1.765625 
Q 4.546875 1.765625 6.203125 2.828125 
Q 7.421875 3.609375 7.90625 5.328125 
Q 8.15625 6.15625 8.15625 10.0625 
L 8.15625 27.390625 
Q 8.15625 35.203125 7.828125 36.6875 
Q 7.515625 38.1875 6.65625 38.859375 
Q 5.8125 39.546875 4.546875 39.546875 
Q 3.03125 39.546875 1.125 38.8125 
L 0.640625 40.578125 
L 14.15625 46.046875 
z
" id="TimesNewRomanPSMT-72"/>
      </defs>
      <g transform="translate(48.046875 490.422975)scale(0.15 -0.15)">
       <use xlink:href="#TimesNewRomanPSMT-49"/>
       <use x="33.300781" xlink:href="#TimesNewRomanPSMT-4c"/>
       <use x="94.384766" xlink:href="#TimesNewRomanPSMT-38"/>
       <use x="144.384766" xlink:href="#TimesNewRomanPSMT-5f"/>
       <use x="194.384766" xlink:href="#TimesNewRomanPSMT-66"/>
       <use x="227.685547" xlink:href="#TimesNewRomanPSMT-61"/>
       <use x="272.070312" xlink:href="#TimesNewRomanPSMT-76"/>
       <use x="322.070312" xlink:href="#TimesNewRomanPSMT-6f"/>
       <use x="372.070312" xlink:href="#TimesNewRomanPSMT-72"/>
       <use x="405.371094" xlink:href="#TimesNewRomanPSMT-61"/>
       <use x="449.755859" xlink:href="#TimesNewRomanPSMT-62"/>
       <use x="499.755859" xlink:href="#TimesNewRomanPSMT-6c"/>
       <use x="527.539062" xlink:href="#TimesNewRomanPSMT-65"/>
      </g>
     </g>
    </g>
    <g id="ytick_10">
     <g id="line2d_14">
      <g>
       <use style="stroke:#000000;stroke-width:0.8;" x="140.835156" xlink:href="#m06ee6869ef" y="460.313123"/>
      </g>
     </g>
     <g id="text_15">
      <!-- maturity_t -->
      <defs>
       <path d="M 0.59375 44.734375 
L 21.4375 44.734375 
L 21.4375 42.921875 
L 20.40625 42.921875 
Q 18.21875 42.921875 17.109375 41.96875 
Q 16.015625 41.015625 16.015625 39.59375 
Q 16.015625 37.703125 17.625 34.328125 
L 28.515625 11.765625 
L 38.53125 36.46875 
Q 39.359375 38.484375 39.359375 40.4375 
Q 39.359375 41.3125 39.015625 41.75 
Q 38.625 42.28125 37.796875 42.59375 
Q 36.96875 42.921875 34.859375 42.921875 
L 34.859375 44.734375 
L 49.421875 44.734375 
L 49.421875 42.921875 
Q 47.609375 42.71875 46.625 42.125 
Q 45.65625 41.546875 44.484375 39.9375 
Q 44.046875 39.265625 42.828125 36.1875 
L 24.609375 -8.453125 
Q 21.96875 -14.9375 17.6875 -18.25 
Q 13.421875 -21.578125 9.46875 -21.578125 
Q 6.59375 -21.578125 4.734375 -19.921875 
Q 2.875 -18.265625 2.875 -16.109375 
Q 2.875 -14.0625 4.21875 -12.8125 
Q 5.5625 -11.578125 7.90625 -11.578125 
Q 9.515625 -11.578125 12.3125 -12.640625 
Q 14.265625 -13.375 14.75 -13.375 
Q 16.21875 -13.375 17.9375 -11.859375 
Q 19.671875 -10.359375 21.4375 -6 
L 24.609375 1.765625 
L 8.546875 35.5 
Q 7.8125 37.015625 6.203125 39.265625 
Q 4.984375 40.96875 4.203125 41.546875 
Q 3.078125 42.328125 0.59375 42.921875 
z
" id="TimesNewRomanPSMT-79"/>
      </defs>
      <g transform="translate(71.346094 465.520936)scale(0.15 -0.15)">
       <use xlink:href="#TimesNewRomanPSMT-6d"/>
       <use x="77.783203" xlink:href="#TimesNewRomanPSMT-61"/>
       <use x="122.167969" xlink:href="#TimesNewRomanPSMT-74"/>
       <use x="149.951172" xlink:href="#TimesNewRomanPSMT-75"/>
       <use x="199.951172" xlink:href="#TimesNewRomanPSMT-72"/>
       <use x="233.251953" xlink:href="#TimesNewRomanPSMT-69"/>
       <use x="261.035156" xlink:href="#TimesNewRomanPSMT-74"/>
       <use x="288.818359" xlink:href="#TimesNewRomanPSMT-79"/>
       <use x="338.818359" xlink:href="#TimesNewRomanPSMT-5f"/>
       <use x="388.818359" xlink:href="#TimesNewRomanPSMT-74"/>
      </g>
     </g>
    </g>
    <g id="ytick_11">
     <g id="line2d_15">
      <g>
       <use style="stroke:#000000;stroke-width:0.8;" x="140.835156" xlink:href="#m06ee6869ef" y="435.411084"/>
      </g>
     </g>
     <g id="text_16">
      <!-- early_diff_slow -->
      <defs>
       <path d="M 0.640625 44.734375 
L 19.390625 44.734375 
L 19.390625 42.921875 
Q 16.796875 42.71875 15.984375 41.984375 
Q 15.1875 41.265625 15.1875 39.890625 
Q 15.1875 38.375 16.015625 36.234375 
L 25.59375 10.5 
L 35.203125 31.453125 
L 32.671875 38.03125 
Q 31.5 40.96875 29.59375 42.09375 
Q 28.515625 42.78125 25.59375 42.921875 
L 25.59375 44.734375 
L 46.875 44.734375 
L 46.875 42.921875 
Q 43.359375 42.78125 41.890625 41.65625 
Q 40.921875 40.875 40.921875 39.15625 
Q 40.921875 38.1875 41.3125 37.15625 
L 51.46875 11.46875 
L 60.890625 36.234375 
Q 61.859375 38.875 61.859375 40.4375 
Q 61.859375 41.359375 60.90625 42.09375 
Q 59.96875 42.828125 57.171875 42.921875 
L 57.171875 44.734375 
L 71.296875 44.734375 
L 71.296875 42.921875 
Q 67.046875 42.28125 65.046875 37.15625 
L 50.09375 -1.375 
L 48.09375 -1.375 
L 36.921875 27.203125 
L 23.875 -1.375 
L 22.078125 -1.375 
L 7.71875 36.234375 
Q 6.296875 39.796875 4.921875 41.03125 
Q 3.5625 42.28125 0.640625 42.921875 
z
" id="TimesNewRomanPSMT-77"/>
      </defs>
      <g transform="translate(38.864063 440.618897)scale(0.15 -0.15)">
       <use xlink:href="#TimesNewRomanPSMT-65"/>
       <use x="44.384766" xlink:href="#TimesNewRomanPSMT-61"/>
       <use x="88.769531" xlink:href="#TimesNewRomanPSMT-72"/>
       <use x="122.070312" xlink:href="#TimesNewRomanPSMT-6c"/>
       <use x="149.853516" xlink:href="#TimesNewRomanPSMT-79"/>
       <use x="199.853516" xlink:href="#TimesNewRomanPSMT-5f"/>
       <use x="249.853516" xlink:href="#TimesNewRomanPSMT-64"/>
       <use x="299.853516" xlink:href="#TimesNewRomanPSMT-69"/>
       <use x="327.636719" xlink:href="#TimesNewRomanPSMT-66"/>
       <use x="360.921875" xlink:href="#TimesNewRomanPSMT-66"/>
       <use x="394.222656" xlink:href="#TimesNewRomanPSMT-5f"/>
       <use x="444.222656" xlink:href="#TimesNewRomanPSMT-73"/>
       <use x="483.138672" xlink:href="#TimesNewRomanPSMT-6c"/>
       <use x="510.921875" xlink:href="#TimesNewRomanPSMT-6f"/>
       <use x="560.921875" xlink:href="#TimesNewRomanPSMT-77"/>
      </g>
     </g>
    </g>
    <g id="ytick_12">
     <g id="line2d_16">
      <g>
       <use style="stroke:#000000;stroke-width:0.8;" x="140.835156" xlink:href="#m06ee6869ef" y="410.509046"/>
      </g>
     </g>
     <g id="text_17">
      <!-- early_diff_fast -->
      <g transform="translate(45.54375 415.716858)scale(0.15 -0.15)">
       <use xlink:href="#TimesNewRomanPSMT-65"/>
       <use x="44.384766" xlink:href="#TimesNewRomanPSMT-61"/>
       <use x="88.769531" xlink:href="#TimesNewRomanPSMT-72"/>
       <use x="122.070312" xlink:href="#TimesNewRomanPSMT-6c"/>
       <use x="149.853516" xlink:href="#TimesNewRomanPSMT-79"/>
       <use x="199.853516" xlink:href="#TimesNewRomanPSMT-5f"/>
       <use x="249.853516" xlink:href="#TimesNewRomanPSMT-64"/>
       <use x="299.853516" xlink:href="#TimesNewRomanPSMT-69"/>
       <use x="327.636719" xlink:href="#TimesNewRomanPSMT-66"/>
       <use x="360.921875" xlink:href="#TimesNewRomanPSMT-66"/>
       <use x="394.222656" xlink:href="#TimesNewRomanPSMT-5f"/>
       <use x="444.222656" xlink:href="#TimesNewRomanPSMT-66"/>
       <use x="477.523438" xlink:href="#TimesNewRomanPSMT-61"/>
       <use x="521.908203" xlink:href="#TimesNewRomanPSMT-73"/>
       <use x="560.824219" xlink:href="#TimesNewRomanPSMT-74"/>
      </g>
     </g>
    </g>
    <g id="ytick_13">
     <g id="line2d_17">
      <g>
       <use style="stroke:#000000;stroke-width:0.8;" x="140.835156" xlink:href="#m06ee6869ef" y="385.607007"/>
      </g>
     </g>
     <g id="text_18">
      <!-- early_diff_very_fast -->
      <g transform="translate(11.390625 390.814819)scale(0.15 -0.15)">
       <use xlink:href="#TimesNewRomanPSMT-65"/>
       <use x="44.384766" xlink:href="#TimesNewRomanPSMT-61"/>
       <use x="88.769531" xlink:href="#TimesNewRomanPSMT-72"/>
       <use x="122.070312" xlink:href="#TimesNewRomanPSMT-6c"/>
       <use x="149.853516" xlink:href="#TimesNewRomanPSMT-79"/>
       <use x="199.853516" xlink:href="#TimesNewRomanPSMT-5f"/>
       <use x="249.853516" xlink:href="#TimesNewRomanPSMT-64"/>
       <use x="299.853516" xlink:href="#TimesNewRomanPSMT-69"/>
       <use x="327.636719" xlink:href="#TimesNewRomanPSMT-66"/>
       <use x="360.921875" xlink:href="#TimesNewRomanPSMT-66"/>
       <use x="394.222656" xlink:href="#TimesNewRomanPSMT-5f"/>
       <use x="444.222656" xlink:href="#TimesNewRomanPSMT-76"/>
       <use x="494.222656" xlink:href="#TimesNewRomanPSMT-65"/>
       <use x="538.607422" xlink:href="#TimesNewRomanPSMT-72"/>
       <use x="571.908203" xlink:href="#TimesNewRomanPSMT-79"/>
       <use x="621.908203" xlink:href="#TimesNewRomanPSMT-5f"/>
       <use x="671.908203" xlink:href="#TimesNewRomanPSMT-66"/>
       <use x="705.208984" xlink:href="#TimesNewRomanPSMT-61"/>
       <use x="749.59375" xlink:href="#TimesNewRomanPSMT-73"/>
       <use x="788.509766" xlink:href="#TimesNewRomanPSMT-74"/>
      </g>
     </g>
    </g>
    <g id="ytick_14">
     <g id="line2d_18">
      <g>
       <use style="stroke:#000000;stroke-width:0.8;" x="140.835156" xlink:href="#m06ee6869ef" y="360.704968"/>
      </g>
     </g>
     <g id="text_19">
      <!-- late_diff_slow -->
      <g transform="translate(47.191406 365.91278)scale(0.15 -0.15)">
       <use xlink:href="#TimesNewRomanPSMT-6c"/>
       <use x="27.783203" xlink:href="#TimesNewRomanPSMT-61"/>
       <use x="72.167969" xlink:href="#TimesNewRomanPSMT-74"/>
       <use x="99.951172" xlink:href="#TimesNewRomanPSMT-65"/>
       <use x="144.335938" xlink:href="#TimesNewRomanPSMT-5f"/>
       <use x="194.335938" xlink:href="#TimesNewRomanPSMT-64"/>
       <use x="244.335938" xlink:href="#TimesNewRomanPSMT-69"/>
       <use x="272.119141" xlink:href="#TimesNewRomanPSMT-66"/>
       <use x="305.404297" xlink:href="#TimesNewRomanPSMT-66"/>
       <use x="338.705078" xlink:href="#TimesNewRomanPSMT-5f"/>
       <use x="388.705078" xlink:href="#TimesNewRomanPSMT-73"/>
       <use x="427.621094" xlink:href="#TimesNewRomanPSMT-6c"/>
       <use x="455.404297" xlink:href="#TimesNewRomanPSMT-6f"/>
       <use x="505.404297" xlink:href="#TimesNewRomanPSMT-77"/>
      </g>
     </g>
    </g>
    <g id="ytick_15">
     <g id="line2d_19">
      <g>
       <use style="stroke:#000000;stroke-width:0.8;" x="140.835156" xlink:href="#m06ee6869ef" y="335.802929"/>
      </g>
     </g>
     <g id="text_20">
      <!-- late_diff_fast -->
      <g transform="translate(53.871094 341.010742)scale(0.15 -0.15)">
       <use xlink:href="#TimesNewRomanPSMT-6c"/>
       <use x="27.783203" xlink:href="#TimesNewRomanPSMT-61"/>
       <use x="72.167969" xlink:href="#TimesNewRomanPSMT-74"/>
       <use x="99.951172" xlink:href="#TimesNewRomanPSMT-65"/>
       <use x="144.335938" xlink:href="#TimesNewRomanPSMT-5f"/>
       <use x="194.335938" xlink:href="#TimesNewRomanPSMT-64"/>
       <use x="244.335938" xlink:href="#TimesNewRomanPSMT-69"/>
       <use x="272.119141" xlink:href="#TimesNewRomanPSMT-66"/>
       <use x="305.404297" xlink:href="#TimesNewRomanPSMT-66"/>
       <use x="338.705078" xlink:href="#TimesNewRomanPSMT-5f"/>
       <use x="388.705078" xlink:href="#TimesNewRomanPSMT-66"/>
       <use x="422.005859" xlink:href="#TimesNewRomanPSMT-61"/>
       <use x="466.390625" xlink:href="#TimesNewRomanPSMT-73"/>
       <use x="505.306641" xlink:href="#TimesNewRomanPSMT-74"/>
      </g>
     </g>
    </g>
    <g id="ytick_16">
     <g id="line2d_20">
      <g>
       <use style="stroke:#000000;stroke-width:0.8;" x="140.835156" xlink:href="#m06ee6869ef" y="310.90089"/>
      </g>
     </g>
     <g id="text_21">
      <!-- a_early_diff_stim -->
      <g transform="translate(27.203906 316.108703)scale(0.15 -0.15)">
       <use xlink:href="#TimesNewRomanPSMT-61"/>
       <use x="44.384766" xlink:href="#TimesNewRomanPSMT-5f"/>
       <use x="94.384766" xlink:href="#TimesNewRomanPSMT-65"/>
       <use x="138.769531" xlink:href="#TimesNewRomanPSMT-61"/>
       <use x="183.154297" xlink:href="#TimesNewRomanPSMT-72"/>
       <use x="216.455078" xlink:href="#TimesNewRomanPSMT-6c"/>
       <use x="244.238281" xlink:href="#TimesNewRomanPSMT-79"/>
       <use x="294.238281" xlink:href="#TimesNewRomanPSMT-5f"/>
       <use x="344.238281" xlink:href="#TimesNewRomanPSMT-64"/>
       <use x="394.238281" xlink:href="#TimesNewRomanPSMT-69"/>
       <use x="422.021484" xlink:href="#TimesNewRomanPSMT-66"/>
       <use x="455.306641" xlink:href="#TimesNewRomanPSMT-66"/>
       <use x="488.607422" xlink:href="#TimesNewRomanPSMT-5f"/>
       <use x="538.607422" xlink:href="#TimesNewRomanPSMT-73"/>
       <use x="577.523438" xlink:href="#TimesNewRomanPSMT-74"/>
       <use x="605.306641" xlink:href="#TimesNewRomanPSMT-69"/>
       <use x="633.089844" xlink:href="#TimesNewRomanPSMT-6d"/>
      </g>
     </g>
    </g>
    <g id="ytick_17">
     <g id="line2d_21">
      <g>
       <use style="stroke:#000000;stroke-width:0.8;" x="140.835156" xlink:href="#m06ee6869ef" y="285.998851"/>
      </g>
     </g>
     <g id="text_22">
      <!-- a_early_diff_inhib -->
      <defs>
       <path d="M 16.265625 69.4375 
L 16.265625 36.71875 
Q 21.6875 42.671875 24.859375 44.359375 
Q 28.03125 46.046875 31.203125 46.046875 
Q 35.015625 46.046875 37.75 43.9375 
Q 40.484375 41.84375 41.796875 37.359375 
Q 42.71875 34.234375 42.71875 25.921875 
L 42.71875 10.109375 
Q 42.71875 5.859375 43.40625 4.296875 
Q 43.890625 3.125 45.0625 2.4375 
Q 46.234375 1.765625 49.359375 1.765625 
L 49.359375 0 
L 27.390625 0 
L 27.390625 1.765625 
L 28.421875 1.765625 
Q 31.546875 1.765625 32.765625 2.703125 
Q 33.984375 3.65625 34.46875 5.515625 
Q 34.625 6.296875 34.625 10.109375 
L 34.625 25.921875 
Q 34.625 33.25 33.859375 35.546875 
Q 33.109375 37.84375 31.4375 38.984375 
Q 29.78125 40.140625 27.4375 40.140625 
Q 25.046875 40.140625 22.453125 38.859375 
Q 19.875 37.59375 16.265625 33.734375 
L 16.265625 10.109375 
Q 16.265625 5.515625 16.765625 4.390625 
Q 17.28125 3.265625 18.671875 2.515625 
Q 20.0625 1.765625 23.484375 1.765625 
L 23.484375 0 
L 1.3125 0 
L 1.3125 1.765625 
Q 4.296875 1.765625 6 2.6875 
Q 6.984375 3.171875 7.5625 4.53125 
Q 8.15625 5.90625 8.15625 10.109375 
L 8.15625 50.59375 
Q 8.15625 58.25 7.78125 60 
Q 7.421875 61.765625 6.65625 62.390625 
Q 5.90625 63.03125 4.640625 63.03125 
Q 3.609375 63.03125 1.3125 62.25 
L 0.640625 63.96875 
L 14.015625 69.4375 
z
" id="TimesNewRomanPSMT-68"/>
      </defs>
      <g transform="translate(22.209375 291.206664)scale(0.15 -0.15)">
       <use xlink:href="#TimesNewRomanPSMT-61"/>
       <use x="44.384766" xlink:href="#TimesNewRomanPSMT-5f"/>
       <use x="94.384766" xlink:href="#TimesNewRomanPSMT-65"/>
       <use x="138.769531" xlink:href="#TimesNewRomanPSMT-61"/>
       <use x="183.154297" xlink:href="#TimesNewRomanPSMT-72"/>
       <use x="216.455078" xlink:href="#TimesNewRomanPSMT-6c"/>
       <use x="244.238281" xlink:href="#TimesNewRomanPSMT-79"/>
       <use x="294.238281" xlink:href="#TimesNewRomanPSMT-5f"/>
       <use x="344.238281" xlink:href="#TimesNewRomanPSMT-64"/>
       <use x="394.238281" xlink:href="#TimesNewRomanPSMT-69"/>
       <use x="422.021484" xlink:href="#TimesNewRomanPSMT-66"/>
       <use x="455.306641" xlink:href="#TimesNewRomanPSMT-66"/>
       <use x="488.607422" xlink:href="#TimesNewRomanPSMT-5f"/>
       <use x="538.607422" xlink:href="#TimesNewRomanPSMT-69"/>
       <use x="566.390625" xlink:href="#TimesNewRomanPSMT-6e"/>
       <use x="616.390625" xlink:href="#TimesNewRomanPSMT-68"/>
       <use x="666.390625" xlink:href="#TimesNewRomanPSMT-69"/>
       <use x="694.173828" xlink:href="#TimesNewRomanPSMT-62"/>
      </g>
     </g>
    </g>
    <g id="ytick_18">
     <g id="line2d_22">
      <g>
       <use style="stroke:#000000;stroke-width:0.8;" x="140.835156" xlink:href="#m06ee6869ef" y="261.096812"/>
      </g>
     </g>
     <g id="text_23">
      <!-- a_late_diff_stim -->
      <g transform="translate(35.53125 266.304625)scale(0.15 -0.15)">
       <use xlink:href="#TimesNewRomanPSMT-61"/>
       <use x="44.384766" xlink:href="#TimesNewRomanPSMT-5f"/>
       <use x="94.384766" xlink:href="#TimesNewRomanPSMT-6c"/>
       <use x="122.167969" xlink:href="#TimesNewRomanPSMT-61"/>
       <use x="166.552734" xlink:href="#TimesNewRomanPSMT-74"/>
       <use x="194.335938" xlink:href="#TimesNewRomanPSMT-65"/>
       <use x="238.720703" xlink:href="#TimesNewRomanPSMT-5f"/>
       <use x="288.720703" xlink:href="#TimesNewRomanPSMT-64"/>
       <use x="338.720703" xlink:href="#TimesNewRomanPSMT-69"/>
       <use x="366.503906" xlink:href="#TimesNewRomanPSMT-66"/>
       <use x="399.789062" xlink:href="#TimesNewRomanPSMT-66"/>
       <use x="433.089844" xlink:href="#TimesNewRomanPSMT-5f"/>
       <use x="483.089844" xlink:href="#TimesNewRomanPSMT-73"/>
       <use x="522.005859" xlink:href="#TimesNewRomanPSMT-74"/>
       <use x="549.789062" xlink:href="#TimesNewRomanPSMT-69"/>
       <use x="577.572266" xlink:href="#TimesNewRomanPSMT-6d"/>
      </g>
     </g>
    </g>
    <g id="ytick_19">
     <g id="line2d_23">
      <g>
       <use style="stroke:#000000;stroke-width:0.8;" x="140.835156" xlink:href="#m06ee6869ef" y="236.194774"/>
      </g>
     </g>
     <g id="text_24">
      <!-- a_late_diff_inhib -->
      <g transform="translate(30.536719 241.402586)scale(0.15 -0.15)">
       <use xlink:href="#TimesNewRomanPSMT-61"/>
       <use x="44.384766" xlink:href="#TimesNewRomanPSMT-5f"/>
       <use x="94.384766" xlink:href="#TimesNewRomanPSMT-6c"/>
       <use x="122.167969" xlink:href="#TimesNewRomanPSMT-61"/>
       <use x="166.552734" xlink:href="#TimesNewRomanPSMT-74"/>
       <use x="194.335938" xlink:href="#TimesNewRomanPSMT-65"/>
       <use x="238.720703" xlink:href="#TimesNewRomanPSMT-5f"/>
       <use x="288.720703" xlink:href="#TimesNewRomanPSMT-64"/>
       <use x="338.720703" xlink:href="#TimesNewRomanPSMT-69"/>
       <use x="366.503906" xlink:href="#TimesNewRomanPSMT-66"/>
       <use x="399.789062" xlink:href="#TimesNewRomanPSMT-66"/>
       <use x="433.089844" xlink:href="#TimesNewRomanPSMT-5f"/>
       <use x="483.089844" xlink:href="#TimesNewRomanPSMT-69"/>
       <use x="510.873047" xlink:href="#TimesNewRomanPSMT-6e"/>
       <use x="560.873047" xlink:href="#TimesNewRomanPSMT-68"/>
       <use x="610.873047" xlink:href="#TimesNewRomanPSMT-69"/>
       <use x="638.65625" xlink:href="#TimesNewRomanPSMT-62"/>
      </g>
     </g>
    </g>
    <g id="ytick_20">
     <g id="line2d_24">
      <g>
       <use style="stroke:#000000;stroke-width:0.8;" x="140.835156" xlink:href="#m06ee6869ef" y="211.292735"/>
      </g>
     </g>
     <g id="text_25">
      <!-- diff_time -->
      <g transform="translate(78.021094 216.500547)scale(0.15 -0.15)">
       <use xlink:href="#TimesNewRomanPSMT-64"/>
       <use x="50" xlink:href="#TimesNewRomanPSMT-69"/>
       <use x="77.783203" xlink:href="#TimesNewRomanPSMT-66"/>
       <use x="111.068359" xlink:href="#TimesNewRomanPSMT-66"/>
       <use x="144.369141" xlink:href="#TimesNewRomanPSMT-5f"/>
       <use x="194.369141" xlink:href="#TimesNewRomanPSMT-74"/>
       <use x="222.152344" xlink:href="#TimesNewRomanPSMT-69"/>
       <use x="249.935547" xlink:href="#TimesNewRomanPSMT-6d"/>
       <use x="327.71875" xlink:href="#TimesNewRomanPSMT-65"/>
      </g>
     </g>
    </g>
    <g id="ytick_21">
     <g id="line2d_25">
      <g>
       <use style="stroke:#000000;stroke-width:0.8;" x="140.835156" xlink:href="#m06ee6869ef" y="186.390696"/>
      </g>
     </g>
     <g id="text_26">
      <!-- a_Chen_2018_ALP -->
      <defs>
       <path d="M 60.203125 67.71875 
L 61.71875 45.21875 
L 60.203125 45.21875 
Q 57.171875 55.328125 51.5625 59.765625 
Q 45.953125 64.203125 38.09375 64.203125 
Q 31.5 64.203125 26.171875 60.859375 
Q 20.84375 57.515625 17.796875 50.1875 
Q 14.75 42.875 14.75 31.984375 
Q 14.75 23 17.625 16.40625 
Q 20.515625 9.8125 26.296875 6.296875 
Q 32.078125 2.78125 39.5 2.78125 
Q 45.953125 2.78125 50.875 5.53125 
Q 55.8125 8.296875 61.71875 16.5 
L 63.234375 15.53125 
Q 58.25 6.6875 51.609375 2.578125 
Q 44.96875 -1.515625 35.84375 -1.515625 
Q 19.390625 -1.515625 10.359375 10.6875 
Q 3.609375 19.78125 3.609375 32.078125 
Q 3.609375 42 8.046875 50.296875 
Q 12.5 58.59375 20.28125 63.15625 
Q 28.078125 67.71875 37.3125 67.71875 
Q 44.484375 67.71875 51.46875 64.203125 
Q 53.515625 63.140625 54.390625 63.140625 
Q 55.71875 63.140625 56.6875 64.0625 
Q 57.953125 65.375 58.5 67.71875 
z
" id="TimesNewRomanPSMT-43"/>
       <path d="M 45.84375 12.75 
L 41.21875 0 
L 2.15625 0 
L 2.15625 1.8125 
Q 19.390625 17.53125 26.421875 27.484375 
Q 33.453125 37.453125 33.453125 45.703125 
Q 33.453125 52 29.59375 56.046875 
Q 25.734375 60.109375 20.359375 60.109375 
Q 15.484375 60.109375 11.59375 57.25 
Q 7.71875 54.390625 5.859375 48.875 
L 4.046875 48.875 
Q 5.28125 57.90625 10.328125 62.734375 
Q 15.375 67.578125 22.953125 67.578125 
Q 31 67.578125 36.390625 62.40625 
Q 41.796875 57.234375 41.796875 50.203125 
Q 41.796875 45.171875 39.453125 40.140625 
Q 35.84375 32.234375 27.734375 23.390625 
Q 15.578125 10.109375 12.546875 7.375 
L 29.828125 7.375 
Q 35.109375 7.375 37.234375 7.765625 
Q 39.359375 8.15625 41.0625 9.34375 
Q 42.78125 10.546875 44.046875 12.75 
z
" id="TimesNewRomanPSMT-32"/>
      </defs>
      <g transform="translate(14.676563 191.598508)scale(0.15 -0.15)">
       <use xlink:href="#TimesNewRomanPSMT-61"/>
       <use x="44.384766" xlink:href="#TimesNewRomanPSMT-5f"/>
       <use x="94.384766" xlink:href="#TimesNewRomanPSMT-43"/>
       <use x="161.083984" xlink:href="#TimesNewRomanPSMT-68"/>
       <use x="211.083984" xlink:href="#TimesNewRomanPSMT-65"/>
       <use x="255.46875" xlink:href="#TimesNewRomanPSMT-6e"/>
       <use x="305.46875" xlink:href="#TimesNewRomanPSMT-5f"/>
       <use x="355.46875" xlink:href="#TimesNewRomanPSMT-32"/>
       <use x="405.46875" xlink:href="#TimesNewRomanPSMT-30"/>
       <use x="455.46875" xlink:href="#TimesNewRomanPSMT-31"/>
       <use x="505.46875" xlink:href="#TimesNewRomanPSMT-38"/>
       <use x="555.46875" xlink:href="#TimesNewRomanPSMT-5f"/>
       <use x="605.46875" xlink:href="#TimesNewRomanPSMT-41"/>
       <use x="677.685547" xlink:href="#TimesNewRomanPSMT-4c"/>
       <use x="738.769531" xlink:href="#TimesNewRomanPSMT-50"/>
      </g>
     </g>
    </g>
    <g id="ytick_22">
     <g id="line2d_26">
      <g>
       <use style="stroke:#000000;stroke-width:0.8;" x="140.835156" xlink:href="#m06ee6869ef" y="161.488657"/>
      </g>
     </g>
     <g id="text_27">
      <!-- a_Chen_2018_ARS -->
      <g transform="translate(13.832813 166.696469)scale(0.15 -0.15)">
       <use xlink:href="#TimesNewRomanPSMT-61"/>
       <use x="44.384766" xlink:href="#TimesNewRomanPSMT-5f"/>
       <use x="94.384766" xlink:href="#TimesNewRomanPSMT-43"/>
       <use x="161.083984" xlink:href="#TimesNewRomanPSMT-68"/>
       <use x="211.083984" xlink:href="#TimesNewRomanPSMT-65"/>
       <use x="255.46875" xlink:href="#TimesNewRomanPSMT-6e"/>
       <use x="305.46875" xlink:href="#TimesNewRomanPSMT-5f"/>
       <use x="355.46875" xlink:href="#TimesNewRomanPSMT-32"/>
       <use x="405.46875" xlink:href="#TimesNewRomanPSMT-30"/>
       <use x="455.46875" xlink:href="#TimesNewRomanPSMT-31"/>
       <use x="505.46875" xlink:href="#TimesNewRomanPSMT-38"/>
       <use x="555.46875" xlink:href="#TimesNewRomanPSMT-5f"/>
       <use x="605.46875" xlink:href="#TimesNewRomanPSMT-41"/>
       <use x="677.685547" xlink:href="#TimesNewRomanPSMT-52"/>
       <use x="744.384766" xlink:href="#TimesNewRomanPSMT-53"/>
      </g>
     </g>
    </g>
    <g id="ytick_23">
     <g id="line2d_27">
      <g>
       <use style="stroke:#000000;stroke-width:0.8;" x="140.835156" xlink:href="#m06ee6869ef" y="136.586618"/>
      </g>
     </g>
     <g id="text_28">
      <!-- a_Valles_2020_ALP -->
      <defs>
       <path d="M 71 66.21875 
L 71 64.40625 
Q 67.484375 63.765625 65.671875 62.15625 
Q 63.09375 59.765625 61.078125 54.828125 
L 37.984375 -1.515625 
L 36.1875 -1.515625 
L 11.375 55.5625 
Q 9.46875 59.96875 8.6875 60.9375 
Q 7.46875 62.453125 5.6875 63.296875 
Q 3.90625 64.15625 0.875 64.40625 
L 0.875 66.21875 
L 27.9375 66.21875 
L 27.9375 64.40625 
Q 23.34375 63.96875 21.96875 62.84375 
Q 20.609375 61.71875 20.609375 59.96875 
Q 20.609375 57.515625 22.859375 52.34375 
L 39.703125 13.53125 
L 55.328125 51.859375 
Q 57.625 57.515625 57.625 59.71875 
Q 57.625 61.140625 56.203125 62.421875 
Q 54.78125 63.71875 51.421875 64.265625 
Q 51.171875 64.3125 50.59375 64.40625 
L 50.59375 66.21875 
z
" id="TimesNewRomanPSMT-56"/>
      </defs>
      <g transform="translate(8.04375 141.794431)scale(0.15 -0.15)">
       <use xlink:href="#TimesNewRomanPSMT-61"/>
       <use x="44.384766" xlink:href="#TimesNewRomanPSMT-5f"/>
       <use x="94.384766" xlink:href="#TimesNewRomanPSMT-56"/>
       <use x="166.429688" xlink:href="#TimesNewRomanPSMT-61"/>
       <use x="210.814453" xlink:href="#TimesNewRomanPSMT-6c"/>
       <use x="238.597656" xlink:href="#TimesNewRomanPSMT-6c"/>
       <use x="266.380859" xlink:href="#TimesNewRomanPSMT-65"/>
       <use x="310.765625" xlink:href="#TimesNewRomanPSMT-73"/>
       <use x="349.681641" xlink:href="#TimesNewRomanPSMT-5f"/>
       <use x="399.681641" xlink:href="#TimesNewRomanPSMT-32"/>
       <use x="449.681641" xlink:href="#TimesNewRomanPSMT-30"/>
       <use x="499.681641" xlink:href="#TimesNewRomanPSMT-32"/>
       <use x="549.681641" xlink:href="#TimesNewRomanPSMT-30"/>
       <use x="599.681641" xlink:href="#TimesNewRomanPSMT-5f"/>
       <use x="649.681641" xlink:href="#TimesNewRomanPSMT-41"/>
       <use x="721.898438" xlink:href="#TimesNewRomanPSMT-4c"/>
       <use x="782.982422" xlink:href="#TimesNewRomanPSMT-50"/>
      </g>
     </g>
    </g>
    <g id="ytick_24">
     <g id="line2d_28">
      <g>
       <use style="stroke:#000000;stroke-width:0.8;" x="140.835156" xlink:href="#m06ee6869ef" y="111.684579"/>
      </g>
     </g>
     <g id="text_29">
      <!-- a_Valles_2020_ARS -->
      <g transform="translate(7.2 116.892392)scale(0.15 -0.15)">
       <use xlink:href="#TimesNewRomanPSMT-61"/>
       <use x="44.384766" xlink:href="#TimesNewRomanPSMT-5f"/>
       <use x="94.384766" xlink:href="#TimesNewRomanPSMT-56"/>
       <use x="166.429688" xlink:href="#TimesNewRomanPSMT-61"/>
       <use x="210.814453" xlink:href="#TimesNewRomanPSMT-6c"/>
       <use x="238.597656" xlink:href="#TimesNewRomanPSMT-6c"/>
       <use x="266.380859" xlink:href="#TimesNewRomanPSMT-65"/>
       <use x="310.765625" xlink:href="#TimesNewRomanPSMT-73"/>
       <use x="349.681641" xlink:href="#TimesNewRomanPSMT-5f"/>
       <use x="399.681641" xlink:href="#TimesNewRomanPSMT-32"/>
       <use x="449.681641" xlink:href="#TimesNewRomanPSMT-30"/>
       <use x="499.681641" xlink:href="#TimesNewRomanPSMT-32"/>
       <use x="549.681641" xlink:href="#TimesNewRomanPSMT-30"/>
       <use x="599.681641" xlink:href="#TimesNewRomanPSMT-5f"/>
       <use x="649.681641" xlink:href="#TimesNewRomanPSMT-41"/>
       <use x="721.898438" xlink:href="#TimesNewRomanPSMT-52"/>
       <use x="788.597656" xlink:href="#TimesNewRomanPSMT-53"/>
      </g>
     </g>
    </g>
    <g id="ytick_25">
     <g id="line2d_29">
      <g>
       <use style="stroke:#000000;stroke-width:0.8;" x="140.835156" xlink:href="#m06ee6869ef" y="86.78254"/>
      </g>
     </g>
     <g id="text_30">
      <!-- a_Qiao_2021_ALP -->
      <defs>
       <path d="M 44.046875 -0.734375 
Q 49.03125 -9.328125 54.8125 -13.375 
Q 60.59375 -17.4375 67.96875 -18.015625 
L 67.96875 -19.578125 
Q 61.234375 -19.34375 53.5625 -16.875 
Q 45.90625 -14.40625 39.03125 -10.03125 
Q 32.171875 -5.671875 27.203125 -0.734375 
Q 20.171875 2.09375 16.0625 5.28125 
Q 10.109375 10.015625 6.8125 16.921875 
Q 3.515625 23.828125 3.515625 33.25 
Q 3.515625 48.09375 13.125 57.90625 
Q 22.75 67.71875 36.421875 67.71875 
Q 49.421875 67.71875 58.90625 57.875 
Q 68.40625 48.046875 68.40625 33.0625 
Q 68.40625 20.90625 61.640625 11.71875 
Q 54.890625 2.546875 44.046875 -0.734375 
z
M 35.84375 63.96875 
Q 26.953125 63.96875 21.53125 57.625 
Q 14.703125 49.65625 14.703125 33.25 
Q 14.703125 17.1875 21.625 8.5 
Q 27 1.8125 35.84375 1.8125 
Q 45.015625 1.8125 50.640625 8.5 
Q 57.234375 16.40625 57.234375 31.84375 
Q 57.234375 43.703125 53.609375 51.8125 
Q 50.828125 58.0625 46.21875 61.015625 
Q 41.609375 63.96875 35.84375 63.96875 
z
" id="TimesNewRomanPSMT-51"/>
      </defs>
      <g transform="translate(17.182031 91.990353)scale(0.15 -0.15)">
       <use xlink:href="#TimesNewRomanPSMT-61"/>
       <use x="44.384766" xlink:href="#TimesNewRomanPSMT-5f"/>
       <use x="94.384766" xlink:href="#TimesNewRomanPSMT-51"/>
       <use x="166.601562" xlink:href="#TimesNewRomanPSMT-69"/>
       <use x="194.384766" xlink:href="#TimesNewRomanPSMT-61"/>
       <use x="238.769531" xlink:href="#TimesNewRomanPSMT-6f"/>
       <use x="288.769531" xlink:href="#TimesNewRomanPSMT-5f"/>
       <use x="338.769531" xlink:href="#TimesNewRomanPSMT-32"/>
       <use x="388.769531" xlink:href="#TimesNewRomanPSMT-30"/>
       <use x="438.769531" xlink:href="#TimesNewRomanPSMT-32"/>
       <use x="488.769531" xlink:href="#TimesNewRomanPSMT-31"/>
       <use x="538.769531" xlink:href="#TimesNewRomanPSMT-5f"/>
       <use x="588.769531" xlink:href="#TimesNewRomanPSMT-41"/>
       <use x="660.986328" xlink:href="#TimesNewRomanPSMT-4c"/>
       <use x="722.070312" xlink:href="#TimesNewRomanPSMT-50"/>
      </g>
     </g>
    </g>
   </g>
   <g id="patch_3">
    <path d="M 140.835156 719.0496 
L 140.835156 53.7696 
" style="fill:none;stroke:#000000;stroke-linecap:square;stroke-linejoin:miter;stroke-width:0.8;"/>
   </g>
   <g id="patch_4">
    <path d="M 308.235156 719.0496 
L 308.235156 53.7696 
" style="fill:none;stroke:#000000;stroke-linecap:square;stroke-linejoin:miter;stroke-width:0.8;"/>
   </g>
   <g id="patch_5">
    <path d="M 140.835156 719.0496 
L 308.235156 719.0496 
" style="fill:none;stroke:#000000;stroke-linecap:square;stroke-linejoin:miter;stroke-width:0.8;"/>
   </g>
   <g id="patch_6">
    <path d="M 140.835156 53.7696 
L 308.235156 53.7696 
" style="fill:none;stroke:#000000;stroke-linecap:square;stroke-linejoin:miter;stroke-width:0.8;"/>
   </g>
   <g id="legend_1">
    <g id="patch_7">
     <path d="M 151.805156 29.505156 
L 286.13375 29.505156 
Q 288.73375 29.505156 288.73375 26.905156 
L 288.73375 9.8 
Q 288.73375 7.2 286.13375 7.2 
L 151.805156 7.2 
Q 149.205156 7.2 149.205156 9.8 
L 149.205156 26.905156 
Q 149.205156 29.505156 151.805156 29.505156 
z
" style="fill:#ffffff;opacity:0.8;stroke:#cccccc;stroke-linejoin:miter;"/>
    </g>
    <g id="PathCollection_20">
     <g>
      <use style="fill:#4b0082;fill-opacity:0.8;stroke:#4b0082;stroke-opacity:0.8;stroke-width:1.5;" x="167.405156" xlink:href="#m494fa5a06b" y="18.0875"/>
     </g>
    </g>
    <g id="text_31">
     <!-- IL -->
     <g transform="translate(190.805156 21.5)scale(0.13 -0.13)">
      <use xlink:href="#TimesNewRomanPSMT-49"/>
      <use x="33.300781" xlink:href="#TimesNewRomanPSMT-4c"/>
     </g>
    </g>
    <g id="PathCollection_21">
     <g>
      <use style="fill:#8b0000;fill-opacity:0.8;stroke:#8b0000;stroke-opacity:0.8;stroke-width:1.5;" x="242.073906" xlink:href="#me1332c7ebe" y="18.0875"/>
     </g>
    </g>
    <g id="text_32">
     <!-- Mg -->
     <g transform="translate(265.473906 21.5)scale(0.13 -0.13)">
      <use xlink:href="#TimesNewRomanPSMT-4d"/>
      <use x="88.916016" xlink:href="#TimesNewRomanPSMT-67"/>
     </g>
    </g>
   </g>
  </g>
 </g>
 <defs>
  <clipPath id="p3d648ce7c9">
   <rect height="665.28" width="167.4" x="140.835156" y="53.7696"/>
  </clipPath>
 </defs>
</svg>
