<?xml version="1.0" encoding="utf-8" standalone="no"?>
<!DOCTYPE svg PUBLIC "-//W3C//DTD SVG 1.1//EN"
  "http://www.w3.org/Graphics/SVG/1.1/DTD/svg11.dtd">
<!-- Created with matplotlib (http://matplotlib.org/) -->
<svg height="766.3146pt" version="1.1" viewBox="0 0 453.958906 766.3146" width="453.958906pt" xmlns="http://www.w3.org/2000/svg" xmlns:xlink="http://www.w3.org/1999/xlink">
 <defs>
  <style type="text/css">
*{stroke-linecap:butt;stroke-linejoin:round;}
  </style>
 </defs>
 <g id="figure_1">
  <g id="patch_1">
   <path d="M 0 766.3146 
L 453.958906 766.3146 
L 453.958906 0 
L 0 0 
z
" style="fill:#ffffff;"/>
  </g>
  <g id="axes_1">
   <g id="patch_2">
    <path d="M 140.835156 719.0496 
L 308.235156 719.0496 
L 308.235156 53.7696 
L 140.835156 53.7696 
z
" style="fill:#ffffff;"/>
   </g>
   <g id="PathCollection_1">
    <defs>
     <path d="M 0 6.123724 
C 1.624031 6.123724 3.181764 5.47849 4.330127 4.330127 
C 5.47849 3.181764 6.123724 1.624031 6.123724 0 
C 6.123724 -1.624031 5.47849 -3.181764 4.330127 -4.330127 
C 3.181764 -5.47849 1.624031 -6.123724 0 -6.123724 
C -1.624031 -6.123724 -3.181764 -5.47849 -4.330127 -4.330127 
C -5.47849 -3.181764 -6.123724 -1.624031 -6.123724 0 
C -6.123724 1.624031 -5.47849 3.181764 -4.330127 4.330127 
C -3.181764 5.47849 -1.624031 6.123724 0 6.123724 
z
" id="mdf55162e39" style="stroke:#4c72b0;stroke-opacity:0.8;"/>
    </defs>
    <g clip-path="url(#p5650ce9c67)">
     <use style="fill:#4c72b0;fill-opacity:0.8;stroke:#4c72b0;stroke-opacity:0.8;" x="296.149359" xlink:href="#mdf55162e39" y="684.400518"/>
     <use style="fill:#4c72b0;fill-opacity:0.8;stroke:#4c72b0;stroke-opacity:0.8;" x="160.685088" xlink:href="#mdf55162e39" y="565.204151"/>
     <use style="fill:#4c72b0;fill-opacity:0.8;stroke:#4c72b0;stroke-opacity:0.8;" x="199.015952" xlink:href="#mdf55162e39" y="446.007784"/>
     <use style="fill:#4c72b0;fill-opacity:0.8;stroke:#4c72b0;stroke-opacity:0.8;" x="218.203361" xlink:href="#mdf55162e39" y="326.811416"/>
     <use style="fill:#4c72b0;fill-opacity:0.8;stroke:#4c72b0;stroke-opacity:0.8;" x="282.028477" xlink:href="#mdf55162e39" y="207.615049"/>
     <use style="fill:#4c72b0;fill-opacity:0.8;stroke:#4c72b0;stroke-opacity:0.8;" x="194.902215" xlink:href="#mdf55162e39" y="88.418682"/>
    </g>
   </g>
   <g id="PathCollection_2">
    <defs>
     <path d="M 0 6.123724 
C 1.624031 6.123724 3.181764 5.47849 4.330127 4.330127 
C 5.47849 3.181764 6.123724 1.624031 6.123724 0 
C 6.123724 -1.624031 5.47849 -3.181764 4.330127 -4.330127 
C 3.181764 -5.47849 1.624031 -6.123724 0 -6.123724 
C -1.624031 -6.123724 -3.181764 -5.47849 -4.330127 -4.330127 
C -5.47849 -3.181764 -6.123724 -1.624031 -6.123724 0 
C -6.123724 1.624031 -5.47849 3.181764 -4.330127 4.330127 
C -3.181764 5.47849 -1.624031 6.123724 0 6.123724 
z
" id="m090fb6c817" style="stroke:#55a868;stroke-opacity:0.8;"/>
    </defs>
    <g clip-path="url(#p5650ce9c67)">
     <use style="fill:#55a868;fill-opacity:0.8;stroke:#55a868;stroke-opacity:0.8;" x="296.041327" xlink:href="#m090fb6c817" y="684.400518"/>
     <use style="fill:#55a868;fill-opacity:0.8;stroke:#55a868;stroke-opacity:0.8;" x="152.494566" xlink:href="#m090fb6c817" y="565.204151"/>
     <use style="fill:#55a868;fill-opacity:0.8;stroke:#55a868;stroke-opacity:0.8;" x="200.058762" xlink:href="#m090fb6c817" y="446.007784"/>
     <use style="fill:#55a868;fill-opacity:0.8;stroke:#55a868;stroke-opacity:0.8;" x="157.158576" xlink:href="#m090fb6c817" y="326.811416"/>
     <use style="fill:#55a868;fill-opacity:0.8;stroke:#55a868;stroke-opacity:0.8;" x="272.07089" xlink:href="#m090fb6c817" y="207.615049"/>
     <use style="fill:#55a868;fill-opacity:0.8;stroke:#55a868;stroke-opacity:0.8;" x="241.858126" xlink:href="#m090fb6c817" y="88.418682"/>
    </g>
   </g>
   <g id="PathCollection_3">
    <defs>
     <path d="M 0 6.123724 
C 1.624031 6.123724 3.181764 5.47849 4.330127 4.330127 
C 5.47849 3.181764 6.123724 1.624031 6.123724 0 
C 6.123724 -1.624031 5.47849 -3.181764 4.330127 -4.330127 
C 3.181764 -5.47849 1.624031 -6.123724 0 -6.123724 
C -1.624031 -6.123724 -3.181764 -5.47849 -4.330127 -4.330127 
C -5.47849 -3.181764 -6.123724 -1.624031 -6.123724 0 
C -6.123724 1.624031 -5.47849 3.181764 -4.330127 4.330127 
C -3.181764 5.47849 -1.624031 6.123724 0 6.123724 
z
" id="m91baa77336" style="stroke:#c44e52;stroke-opacity:0.8;"/>
    </defs>
    <g clip-path="url(#p5650ce9c67)">
     <use style="fill:#c44e52;fill-opacity:0.8;stroke:#c44e52;stroke-opacity:0.8;" x="296.149391" xlink:href="#m91baa77336" y="684.400518"/>
     <use style="fill:#c44e52;fill-opacity:0.8;stroke:#c44e52;stroke-opacity:0.8;" x="158.201486" xlink:href="#m91baa77336" y="565.204151"/>
     <use style="fill:#c44e52;fill-opacity:0.8;stroke:#c44e52;stroke-opacity:0.8;" x="197.84249" xlink:href="#m91baa77336" y="446.007784"/>
     <use style="fill:#c44e52;fill-opacity:0.8;stroke:#c44e52;stroke-opacity:0.8;" x="197.879884" xlink:href="#m91baa77336" y="326.811416"/>
     <use style="fill:#c44e52;fill-opacity:0.8;stroke:#c44e52;stroke-opacity:0.8;" x="295.685312" xlink:href="#m91baa77336" y="207.615049"/>
     <use style="fill:#c44e52;fill-opacity:0.8;stroke:#c44e52;stroke-opacity:0.8;" x="208.860222" xlink:href="#m91baa77336" y="88.418682"/>
    </g>
   </g>
   <g id="PathCollection_4">
    <defs>
     <path d="M 0 6.123724 
C 1.624031 6.123724 3.181764 5.47849 4.330127 4.330127 
C 5.47849 3.181764 6.123724 1.624031 6.123724 0 
C 6.123724 -1.624031 5.47849 -3.181764 4.330127 -4.330127 
C 3.181764 -5.47849 1.624031 -6.123724 0 -6.123724 
C -1.624031 -6.123724 -3.181764 -5.47849 -4.330127 -4.330127 
C -5.47849 -3.181764 -6.123724 -1.624031 -6.123724 0 
C -6.123724 1.624031 -5.47849 3.181764 -4.330127 4.330127 
C -3.181764 5.47849 -1.624031 6.123724 0 6.123724 
z
" id="mf919955578" style="stroke:#8172b2;stroke-opacity:0.8;"/>
    </defs>
    <g clip-path="url(#p5650ce9c67)">
     <use style="fill:#8172b2;fill-opacity:0.8;stroke:#8172b2;stroke-opacity:0.8;" x="296.214462" xlink:href="#mf919955578" y="684.400518"/>
     <use style="fill:#8172b2;fill-opacity:0.8;stroke:#8172b2;stroke-opacity:0.8;" x="160.881062" xlink:href="#mf919955578" y="565.204151"/>
     <use style="fill:#8172b2;fill-opacity:0.8;stroke:#8172b2;stroke-opacity:0.8;" x="213.901672" xlink:href="#mf919955578" y="446.007784"/>
     <use style="fill:#8172b2;fill-opacity:0.8;stroke:#8172b2;stroke-opacity:0.8;" x="221.622251" xlink:href="#mf919955578" y="326.811416"/>
     <use style="fill:#8172b2;fill-opacity:0.8;stroke:#8172b2;stroke-opacity:0.8;" x="190.196572" xlink:href="#mf919955578" y="207.615049"/>
     <use style="fill:#8172b2;fill-opacity:0.8;stroke:#8172b2;stroke-opacity:0.8;" x="193.124578" xlink:href="#mf919955578" y="88.418682"/>
    </g>
   </g>
   <g id="PathCollection_5">
    <defs>
     <path d="M 0 6.123724 
C 1.624031 6.123724 3.181764 5.47849 4.330127 4.330127 
C 5.47849 3.181764 6.123724 1.624031 6.123724 0 
C 6.123724 -1.624031 5.47849 -3.181764 4.330127 -4.330127 
C 3.181764 -5.47849 1.624031 -6.123724 0 -6.123724 
C -1.624031 -6.123724 -3.181764 -5.47849 -4.330127 -4.330127 
C -5.47849 -3.181764 -6.123724 -1.624031 -6.123724 0 
C -6.123724 1.624031 -5.47849 3.181764 -4.330127 4.330127 
C -3.181764 5.47849 -1.624031 6.123724 0 6.123724 
z
" id="m3f11f741f3" style="stroke:#ccb974;stroke-opacity:0.8;"/>
    </defs>
    <g clip-path="url(#p5650ce9c67)">
     <use style="fill:#ccb974;fill-opacity:0.8;stroke:#ccb974;stroke-opacity:0.8;" x="296.217127" xlink:href="#m3f11f741f3" y="684.400518"/>
     <use style="fill:#ccb974;fill-opacity:0.8;stroke:#ccb974;stroke-opacity:0.8;" x="159.625201" xlink:href="#m3f11f741f3" y="565.204151"/>
     <use style="fill:#ccb974;fill-opacity:0.8;stroke:#ccb974;stroke-opacity:0.8;" x="202.182352" xlink:href="#m3f11f741f3" y="446.007784"/>
     <use style="fill:#ccb974;fill-opacity:0.8;stroke:#ccb974;stroke-opacity:0.8;" x="208.619971" xlink:href="#m3f11f741f3" y="326.811416"/>
     <use style="fill:#ccb974;fill-opacity:0.8;stroke:#ccb974;stroke-opacity:0.8;" x="253.754517" xlink:href="#m3f11f741f3" y="207.615049"/>
     <use style="fill:#ccb974;fill-opacity:0.8;stroke:#ccb974;stroke-opacity:0.8;" x="200.885575" xlink:href="#m3f11f741f3" y="88.418682"/>
    </g>
   </g>
   <g id="PathCollection_6">
    <defs>
     <path d="M 0 6.123724 
C 1.624031 6.123724 3.181764 5.47849 4.330127 4.330127 
C 5.47849 3.181764 6.123724 1.624031 6.123724 0 
C 6.123724 -1.624031 5.47849 -3.181764 4.330127 -4.330127 
C 3.181764 -5.47849 1.624031 -6.123724 0 -6.123724 
C -1.624031 -6.123724 -3.181764 -5.47849 -4.330127 -4.330127 
C -5.47849 -3.181764 -6.123724 -1.624031 -6.123724 0 
C -6.123724 1.624031 -5.47849 3.181764 -4.330127 4.330127 
C -3.181764 5.47849 -1.624031 6.123724 0 6.123724 
z
" id="meae40abe91" style="stroke:#64b5cd;stroke-opacity:0.8;"/>
    </defs>
    <g clip-path="url(#p5650ce9c67)">
     <use style="fill:#64b5cd;fill-opacity:0.8;stroke:#64b5cd;stroke-opacity:0.8;" x="295.628936" xlink:href="#meae40abe91" y="684.400518"/>
     <use style="fill:#64b5cd;fill-opacity:0.8;stroke:#64b5cd;stroke-opacity:0.8;" x="160.562285" xlink:href="#meae40abe91" y="565.204151"/>
     <use style="fill:#64b5cd;fill-opacity:0.8;stroke:#64b5cd;stroke-opacity:0.8;" x="200.601712" xlink:href="#meae40abe91" y="446.007784"/>
     <use style="fill:#64b5cd;fill-opacity:0.8;stroke:#64b5cd;stroke-opacity:0.8;" x="219.047546" xlink:href="#meae40abe91" y="326.811416"/>
     <use style="fill:#64b5cd;fill-opacity:0.8;stroke:#64b5cd;stroke-opacity:0.8;" x="266.978073" xlink:href="#meae40abe91" y="207.615049"/>
     <use style="fill:#64b5cd;fill-opacity:0.8;stroke:#64b5cd;stroke-opacity:0.8;" x="194.57074" xlink:href="#meae40abe91" y="88.418682"/>
    </g>
   </g>
   <g id="PathCollection_7">
    <g clip-path="url(#p5650ce9c67)">
     <use style="fill:#4c72b0;fill-opacity:0.8;stroke:#4c72b0;stroke-opacity:0.8;" x="292.930711" xlink:href="#mdf55162e39" y="684.400518"/>
     <use style="fill:#4c72b0;fill-opacity:0.8;stroke:#4c72b0;stroke-opacity:0.8;" x="160.50974" xlink:href="#mdf55162e39" y="565.204151"/>
     <use style="fill:#4c72b0;fill-opacity:0.8;stroke:#4c72b0;stroke-opacity:0.8;" x="206.814029" xlink:href="#mdf55162e39" y="446.007784"/>
     <use style="fill:#4c72b0;fill-opacity:0.8;stroke:#4c72b0;stroke-opacity:0.8;" x="220.573237" xlink:href="#mdf55162e39" y="326.811416"/>
     <use style="fill:#4c72b0;fill-opacity:0.8;stroke:#4c72b0;stroke-opacity:0.8;" x="221.416413" xlink:href="#mdf55162e39" y="207.615049"/>
     <use style="fill:#4c72b0;fill-opacity:0.8;stroke:#4c72b0;stroke-opacity:0.8;" x="193.976025" xlink:href="#mdf55162e39" y="88.418682"/>
    </g>
   </g>
   <g id="PathCollection_8">
    <g clip-path="url(#p5650ce9c67)">
     <use style="fill:#55a868;fill-opacity:0.8;stroke:#55a868;stroke-opacity:0.8;" x="295.878528" xlink:href="#m090fb6c817" y="684.400518"/>
     <use style="fill:#55a868;fill-opacity:0.8;stroke:#55a868;stroke-opacity:0.8;" x="157.13497" xlink:href="#m090fb6c817" y="565.204151"/>
     <use style="fill:#55a868;fill-opacity:0.8;stroke:#55a868;stroke-opacity:0.8;" x="197.992098" xlink:href="#m090fb6c817" y="446.007784"/>
     <use style="fill:#55a868;fill-opacity:0.8;stroke:#55a868;stroke-opacity:0.8;" x="188.825032" xlink:href="#m090fb6c817" y="326.811416"/>
     <use style="fill:#55a868;fill-opacity:0.8;stroke:#55a868;stroke-opacity:0.8;" x="295.739145" xlink:href="#m090fb6c817" y="207.615049"/>
     <use style="fill:#55a868;fill-opacity:0.8;stroke:#55a868;stroke-opacity:0.8;" x="215.716275" xlink:href="#m090fb6c817" y="88.418682"/>
    </g>
   </g>
   <g id="PathCollection_9">
    <g clip-path="url(#p5650ce9c67)">
     <use style="fill:#c44e52;fill-opacity:0.8;stroke:#c44e52;stroke-opacity:0.8;" x="295.568955" xlink:href="#m91baa77336" y="684.400518"/>
     <use style="fill:#c44e52;fill-opacity:0.8;stroke:#c44e52;stroke-opacity:0.8;" x="156.427192" xlink:href="#m91baa77336" y="565.204151"/>
     <use style="fill:#c44e52;fill-opacity:0.8;stroke:#c44e52;stroke-opacity:0.8;" x="211.018689" xlink:href="#m91baa77336" y="446.007784"/>
     <use style="fill:#c44e52;fill-opacity:0.8;stroke:#c44e52;stroke-opacity:0.8;" x="184.475096" xlink:href="#m91baa77336" y="326.811416"/>
     <use style="fill:#c44e52;fill-opacity:0.8;stroke:#c44e52;stroke-opacity:0.8;" x="201.451398" xlink:href="#m91baa77336" y="207.615049"/>
     <use style="fill:#c44e52;fill-opacity:0.8;stroke:#c44e52;stroke-opacity:0.8;" x="218.627864" xlink:href="#m91baa77336" y="88.418682"/>
    </g>
   </g>
   <g id="PathCollection_10">
    <g clip-path="url(#p5650ce9c67)">
     <use style="fill:#8172b2;fill-opacity:0.8;stroke:#8172b2;stroke-opacity:0.8;" x="295.143907" xlink:href="#mf919955578" y="684.400518"/>
     <use style="fill:#8172b2;fill-opacity:0.8;stroke:#8172b2;stroke-opacity:0.8;" x="161.056845" xlink:href="#mf919955578" y="565.204151"/>
     <use style="fill:#8172b2;fill-opacity:0.8;stroke:#8172b2;stroke-opacity:0.8;" x="197.896414" xlink:href="#mf919955578" y="446.007784"/>
     <use style="fill:#8172b2;fill-opacity:0.8;stroke:#8172b2;stroke-opacity:0.8;" x="223.230372" xlink:href="#mf919955578" y="326.811416"/>
     <use style="fill:#8172b2;fill-opacity:0.8;stroke:#8172b2;stroke-opacity:0.8;" x="293.335148" xlink:href="#mf919955578" y="207.615049"/>
     <use style="fill:#8172b2;fill-opacity:0.8;stroke:#8172b2;stroke-opacity:0.8;" x="192.111579" xlink:href="#mf919955578" y="88.418682"/>
    </g>
   </g>
   <g id="matplotlib.axis_1">
    <g id="xtick_1">
     <g id="line2d_1">
      <defs>
       <path d="M 0 0 
L 0 3.5 
" id="mf1fea0c062" style="stroke:#000000;stroke-width:0.8;"/>
      </defs>
      <g>
       <use style="stroke:#000000;stroke-width:0.8;" x="172.935827" xlink:href="#mf1fea0c062" y="719.0496"/>
      </g>
     </g>
     <g id="text_1">
      <!-- 0.5 -->
      <defs>
       <path d="M 3.609375 32.71875 
Q 3.609375 44.046875 7.03125 52.21875 
Q 10.453125 60.40625 16.109375 64.40625 
Q 20.515625 67.578125 25.203125 67.578125 
Q 32.8125 67.578125 38.875 59.8125 
Q 46.4375 50.203125 46.4375 33.734375 
Q 46.4375 22.21875 43.109375 14.15625 
Q 39.796875 6.109375 34.640625 2.46875 
Q 29.5 -1.171875 24.703125 -1.171875 
Q 15.234375 -1.171875 8.9375 10.015625 
Q 3.609375 19.4375 3.609375 32.71875 
z
M 13.1875 31.5 
Q 13.1875 17.828125 16.546875 9.1875 
Q 19.34375 1.90625 24.859375 1.90625 
Q 27.484375 1.90625 30.3125 4.265625 
Q 33.15625 6.640625 34.625 12.203125 
Q 36.859375 20.609375 36.859375 35.890625 
Q 36.859375 47.21875 34.515625 54.78125 
Q 32.765625 60.40625 29.984375 62.75 
Q 27.984375 64.359375 25.140625 64.359375 
Q 21.828125 64.359375 19.234375 61.375 
Q 15.71875 57.328125 14.453125 48.625 
Q 13.1875 39.9375 13.1875 31.5 
z
" id="TimesNewRomanPSMT-30"/>
       <path d="M 12.5 9.46875 
Q 14.796875 9.46875 16.359375 7.875 
Q 17.921875 6.296875 17.921875 4.046875 
Q 17.921875 1.8125 16.328125 0.21875 
Q 14.75 -1.375 12.5 -1.375 
Q 10.25 -1.375 8.65625 0.21875 
Q 7.078125 1.8125 7.078125 4.046875 
Q 7.078125 6.34375 8.65625 7.90625 
Q 10.25 9.46875 12.5 9.46875 
z
" id="TimesNewRomanPSMT-2e"/>
       <path d="M 43.40625 66.21875 
L 39.59375 57.90625 
L 19.671875 57.90625 
L 15.328125 49.03125 
Q 28.265625 47.125 35.84375 39.40625 
Q 42.328125 32.765625 42.328125 23.78125 
Q 42.328125 18.5625 40.203125 14.109375 
Q 38.09375 9.671875 34.859375 6.546875 
Q 31.640625 3.421875 27.6875 1.515625 
Q 22.078125 -1.171875 16.15625 -1.171875 
Q 10.203125 -1.171875 7.484375 0.84375 
Q 4.78125 2.875 4.78125 5.328125 
Q 4.78125 6.6875 5.90625 7.734375 
Q 7.03125 8.796875 8.734375 8.796875 
Q 10.015625 8.796875 10.96875 8.40625 
Q 11.921875 8.015625 14.203125 6.390625 
Q 17.875 3.859375 21.625 3.859375 
Q 27.34375 3.859375 31.65625 8.171875 
Q 35.984375 12.5 35.984375 18.703125 
Q 35.984375 24.703125 32.125 29.90625 
Q 28.265625 35.109375 21.484375 37.9375 
Q 16.15625 40.140625 6.984375 40.484375 
L 19.671875 66.21875 
z
" id="TimesNewRomanPSMT-35"/>
      </defs>
      <g transform="translate(163.560827 736.465225)scale(0.15 -0.15)">
       <use xlink:href="#TimesNewRomanPSMT-30"/>
       <use x="50" xlink:href="#TimesNewRomanPSMT-2e"/>
       <use x="75" xlink:href="#TimesNewRomanPSMT-35"/>
      </g>
     </g>
    </g>
    <g id="xtick_2">
     <g id="line2d_2">
      <g>
       <use style="stroke:#000000;stroke-width:0.8;" x="214.079495" xlink:href="#mf1fea0c062" y="719.0496"/>
      </g>
     </g>
     <g id="text_2">
      <!-- 1.0 -->
      <defs>
       <path d="M 11.71875 59.71875 
L 27.828125 67.578125 
L 29.4375 67.578125 
L 29.4375 11.671875 
Q 29.4375 6.109375 29.90625 4.734375 
Q 30.375 3.375 31.828125 2.640625 
Q 33.296875 1.90625 37.796875 1.8125 
L 37.796875 0 
L 12.890625 0 
L 12.890625 1.8125 
Q 17.578125 1.90625 18.9375 2.609375 
Q 20.3125 3.328125 20.84375 4.515625 
Q 21.390625 5.71875 21.390625 11.671875 
L 21.390625 47.40625 
Q 21.390625 54.640625 20.90625 56.6875 
Q 20.5625 58.25 19.65625 58.984375 
Q 18.75 59.71875 17.484375 59.71875 
Q 15.671875 59.71875 12.453125 58.203125 
z
" id="TimesNewRomanPSMT-31"/>
      </defs>
      <g transform="translate(204.704495 736.465225)scale(0.15 -0.15)">
       <use xlink:href="#TimesNewRomanPSMT-31"/>
       <use x="50" xlink:href="#TimesNewRomanPSMT-2e"/>
       <use x="75" xlink:href="#TimesNewRomanPSMT-30"/>
      </g>
     </g>
    </g>
    <g id="xtick_3">
     <g id="line2d_3">
      <g>
       <use style="stroke:#000000;stroke-width:0.8;" x="255.223163" xlink:href="#mf1fea0c062" y="719.0496"/>
      </g>
     </g>
     <g id="text_3">
      <!-- 1.5 -->
      <g transform="translate(245.848163 736.465225)scale(0.15 -0.15)">
       <use xlink:href="#TimesNewRomanPSMT-31"/>
       <use x="50" xlink:href="#TimesNewRomanPSMT-2e"/>
       <use x="75" xlink:href="#TimesNewRomanPSMT-35"/>
      </g>
     </g>
    </g>
    <g id="xtick_4">
     <g id="line2d_4">
      <g>
       <use style="stroke:#000000;stroke-width:0.8;" x="296.366832" xlink:href="#mf1fea0c062" y="719.0496"/>
      </g>
     </g>
     <g id="text_4">
      <!-- 2.0 -->
      <defs>
       <path d="M 45.84375 12.75 
L 41.21875 0 
L 2.15625 0 
L 2.15625 1.8125 
Q 19.390625 17.53125 26.421875 27.484375 
Q 33.453125 37.453125 33.453125 45.703125 
Q 33.453125 52 29.59375 56.046875 
Q 25.734375 60.109375 20.359375 60.109375 
Q 15.484375 60.109375 11.59375 57.25 
Q 7.71875 54.390625 5.859375 48.875 
L 4.046875 48.875 
Q 5.28125 57.90625 10.328125 62.734375 
Q 15.375 67.578125 22.953125 67.578125 
Q 31 67.578125 36.390625 62.40625 
Q 41.796875 57.234375 41.796875 50.203125 
Q 41.796875 45.171875 39.453125 40.140625 
Q 35.84375 32.234375 27.734375 23.390625 
Q 15.578125 10.109375 12.546875 7.375 
L 29.828125 7.375 
Q 35.109375 7.375 37.234375 7.765625 
Q 39.359375 8.15625 41.0625 9.34375 
Q 42.78125 10.546875 44.046875 12.75 
z
" id="TimesNewRomanPSMT-32"/>
      </defs>
      <g transform="translate(286.991832 736.465225)scale(0.15 -0.15)">
       <use xlink:href="#TimesNewRomanPSMT-32"/>
       <use x="50" xlink:href="#TimesNewRomanPSMT-2e"/>
       <use x="75" xlink:href="#TimesNewRomanPSMT-30"/>
      </g>
     </g>
    </g>
    <g id="text_5">
     <!-- Scaled values -->
     <defs>
      <path d="M 45.84375 67.71875 
L 45.84375 44.828125 
L 44.046875 44.828125 
Q 43.171875 51.421875 40.890625 55.328125 
Q 38.625 59.234375 34.421875 61.515625 
Q 30.21875 63.8125 25.734375 63.8125 
Q 20.65625 63.8125 17.328125 60.71875 
Q 14.015625 57.625 14.015625 53.65625 
Q 14.015625 50.640625 16.109375 48.140625 
Q 19.140625 44.484375 30.515625 38.375 
Q 39.796875 33.40625 43.1875 30.734375 
Q 46.578125 28.078125 48.40625 24.453125 
Q 50.25 20.84375 50.25 16.890625 
Q 50.25 9.375 44.40625 3.921875 
Q 38.578125 -1.515625 29.390625 -1.515625 
Q 26.515625 -1.515625 23.96875 -1.078125 
Q 22.46875 -0.828125 17.703125 0.703125 
Q 12.9375 2.25 11.671875 2.25 
Q 10.453125 2.25 9.734375 1.515625 
Q 9.03125 0.78125 8.6875 -1.515625 
L 6.890625 -1.515625 
L 6.890625 21.1875 
L 8.6875 21.1875 
Q 9.96875 14.0625 12.109375 10.515625 
Q 14.265625 6.984375 18.671875 4.640625 
Q 23.09375 2.296875 28.375 2.296875 
Q 34.46875 2.296875 38 5.515625 
Q 41.546875 8.734375 41.546875 13.140625 
Q 41.546875 15.578125 40.203125 18.0625 
Q 38.875 20.5625 36.03125 22.703125 
Q 34.125 24.171875 25.625 28.921875 
Q 17.140625 33.6875 13.546875 36.515625 
Q 9.96875 39.359375 8.109375 42.765625 
Q 6.25 46.1875 6.25 50.296875 
Q 6.25 57.421875 11.71875 62.5625 
Q 17.1875 67.71875 25.640625 67.71875 
Q 30.90625 67.71875 36.8125 65.140625 
Q 39.546875 63.921875 40.671875 63.921875 
Q 41.9375 63.921875 42.75 64.671875 
Q 43.5625 65.4375 44.046875 67.71875 
z
" id="TimesNewRomanPSMT-53"/>
      <path d="M 41.109375 17 
Q 39.3125 8.15625 34.03125 3.390625 
Q 28.765625 -1.375 22.359375 -1.375 
Q 14.75 -1.375 9.078125 5.015625 
Q 3.421875 11.421875 3.421875 22.3125 
Q 3.421875 32.859375 9.6875 39.453125 
Q 15.96875 46.046875 24.75 46.046875 
Q 31.34375 46.046875 35.59375 42.546875 
Q 39.84375 39.0625 39.84375 35.296875 
Q 39.84375 33.453125 38.640625 32.296875 
Q 37.453125 31.15625 35.296875 31.15625 
Q 32.421875 31.15625 30.953125 33.015625 
Q 30.125 34.03125 29.859375 36.90625 
Q 29.59375 39.796875 27.875 41.3125 
Q 26.171875 42.78125 23.140625 42.78125 
Q 18.265625 42.78125 15.28125 39.15625 
Q 11.328125 34.375 11.328125 26.515625 
Q 11.328125 18.5 15.25 12.375 
Q 19.1875 6.25 25.875 6.25 
Q 30.671875 6.25 34.46875 9.515625 
Q 37.15625 11.765625 39.703125 17.671875 
z
" id="TimesNewRomanPSMT-63"/>
      <path d="M 28.46875 6.453125 
Q 21.578125 1.125 19.828125 0.296875 
Q 17.1875 -0.921875 14.203125 -0.921875 
Q 9.578125 -0.921875 6.5625 2.25 
Q 3.5625 5.421875 3.5625 10.59375 
Q 3.5625 13.875 5.03125 16.265625 
Q 7.03125 19.578125 11.984375 22.5 
Q 16.9375 25.4375 28.46875 29.640625 
L 28.46875 31.390625 
Q 28.46875 38.09375 26.34375 40.578125 
Q 24.21875 43.0625 20.171875 43.0625 
Q 17.09375 43.0625 15.28125 41.40625 
Q 13.421875 39.75 13.421875 37.59375 
L 13.53125 34.765625 
Q 13.53125 32.515625 12.375 31.296875 
Q 11.234375 30.078125 9.375 30.078125 
Q 7.5625 30.078125 6.421875 31.34375 
Q 5.28125 32.625 5.28125 34.8125 
Q 5.28125 39.015625 9.578125 42.53125 
Q 13.875 46.046875 21.625 46.046875 
Q 27.59375 46.046875 31.390625 44.046875 
Q 34.28125 42.53125 35.640625 39.3125 
Q 36.53125 37.203125 36.53125 30.71875 
L 36.53125 15.53125 
Q 36.53125 9.125 36.765625 7.6875 
Q 37.015625 6.25 37.578125 5.765625 
Q 38.140625 5.28125 38.875 5.28125 
Q 39.65625 5.28125 40.234375 5.609375 
Q 41.265625 6.25 44.1875 9.1875 
L 44.1875 6.453125 
Q 38.71875 -0.875 33.734375 -0.875 
Q 31.34375 -0.875 29.921875 0.78125 
Q 28.515625 2.4375 28.46875 6.453125 
z
M 28.46875 9.625 
L 28.46875 26.65625 
Q 21.09375 23.734375 18.953125 22.515625 
Q 15.09375 20.359375 13.421875 18.015625 
Q 11.765625 15.671875 11.765625 12.890625 
Q 11.765625 9.375 13.859375 7.046875 
Q 15.96875 4.734375 18.703125 4.734375 
Q 22.40625 4.734375 28.46875 9.625 
z
" id="TimesNewRomanPSMT-61"/>
      <path d="M 18.5 69.4375 
L 18.5 10.109375 
Q 18.5 5.90625 19.109375 4.53125 
Q 19.734375 3.171875 21 2.46875 
Q 22.265625 1.765625 25.734375 1.765625 
L 25.734375 0 
L 3.8125 0 
L 3.8125 1.765625 
Q 6.890625 1.765625 8 2.390625 
Q 9.125 3.03125 9.765625 4.484375 
Q 10.40625 5.953125 10.40625 10.109375 
L 10.40625 50.734375 
Q 10.40625 58.296875 10.0625 60.03125 
Q 9.71875 61.765625 8.953125 62.390625 
Q 8.203125 63.03125 7.03125 63.03125 
Q 5.765625 63.03125 3.8125 62.25 
L 2.984375 63.96875 
L 16.3125 69.4375 
z
" id="TimesNewRomanPSMT-6c"/>
      <path d="M 10.640625 27.875 
Q 10.59375 17.921875 15.484375 12.25 
Q 20.359375 6.59375 26.953125 6.59375 
Q 31.34375 6.59375 34.59375 9 
Q 37.84375 11.421875 40.046875 17.28125 
L 41.546875 16.3125 
Q 40.53125 9.625 35.59375 4.125 
Q 30.671875 -1.375 23.25 -1.375 
Q 15.1875 -1.375 9.453125 4.90625 
Q 3.71875 11.1875 3.71875 21.78125 
Q 3.71875 33.25 9.59375 39.671875 
Q 15.484375 46.09375 24.359375 46.09375 
Q 31.890625 46.09375 36.71875 41.140625 
Q 41.546875 36.1875 41.546875 27.875 
z
M 10.640625 30.71875 
L 31.34375 30.71875 
Q 31.109375 35.015625 30.328125 36.765625 
Q 29.109375 39.5 26.6875 41.0625 
Q 24.265625 42.625 21.625 42.625 
Q 17.578125 42.625 14.375 39.46875 
Q 11.1875 36.328125 10.640625 30.71875 
z
" id="TimesNewRomanPSMT-65"/>
      <path d="M 34.71875 5.03125 
Q 31.453125 1.609375 28.328125 0.109375 
Q 25.203125 -1.375 21.578125 -1.375 
Q 14.265625 -1.375 8.796875 4.75 
Q 3.328125 10.890625 3.328125 20.515625 
Q 3.328125 30.125 9.375 38.109375 
Q 15.4375 46.09375 24.953125 46.09375 
Q 30.859375 46.09375 34.71875 42.328125 
L 34.71875 50.59375 
Q 34.71875 58.25 34.34375 60 
Q 33.984375 61.765625 33.203125 62.390625 
Q 32.421875 63.03125 31.25 63.03125 
Q 29.984375 63.03125 27.875 62.25 
L 27.25 63.96875 
L 40.578125 69.4375 
L 42.78125 69.4375 
L 42.78125 17.71875 
Q 42.78125 9.859375 43.140625 8.125 
Q 43.5 6.390625 44.3125 5.703125 
Q 45.125 5.03125 46.1875 5.03125 
Q 47.515625 5.03125 49.703125 5.859375 
L 50.25 4.15625 
L 36.96875 -1.375 
L 34.71875 -1.375 
z
M 34.71875 8.453125 
L 34.71875 31.5 
Q 34.421875 34.8125 32.953125 37.546875 
Q 31.5 40.28125 29.078125 41.671875 
Q 26.65625 43.0625 24.359375 43.0625 
Q 20.0625 43.0625 16.703125 39.203125 
Q 12.25 34.125 12.25 24.359375 
Q 12.25 14.5 16.546875 9.25 
Q 20.84375 4 26.125 4 
Q 30.5625 4 34.71875 8.453125 
z
" id="TimesNewRomanPSMT-64"/>
      <path id="TimesNewRomanPSMT-20"/>
      <path d="M 0.828125 44.734375 
L 21.875 44.734375 
L 21.875 42.921875 
L 20.515625 42.921875 
Q 18.609375 42.921875 17.609375 41.984375 
Q 16.609375 41.0625 16.609375 39.5 
Q 16.609375 37.796875 17.625 35.453125 
L 28.03125 10.75 
L 38.484375 36.375 
Q 39.59375 39.109375 39.59375 40.53125 
Q 39.59375 41.21875 39.203125 41.65625 
Q 38.671875 42.390625 37.84375 42.65625 
Q 37.015625 42.921875 34.46875 42.921875 
L 34.46875 44.734375 
L 49.078125 44.734375 
L 49.078125 42.921875 
Q 46.53125 42.71875 45.5625 41.890625 
Q 43.84375 40.4375 42.484375 37.015625 
L 26.609375 -1.375 
L 24.609375 -1.375 
L 8.640625 36.375 
Q 7.5625 39.015625 6.578125 40.15625 
Q 5.609375 41.3125 4.109375 42.09375 
Q 3.265625 42.53125 0.828125 42.921875 
z
" id="TimesNewRomanPSMT-76"/>
      <path d="M 42.328125 44.734375 
L 42.328125 17.625 
Q 42.328125 9.859375 42.6875 8.125 
Q 43.0625 6.390625 43.859375 5.703125 
Q 44.671875 5.03125 45.75 5.03125 
Q 47.265625 5.03125 49.171875 5.859375 
L 49.859375 4.15625 
L 36.46875 -1.375 
L 34.28125 -1.375 
L 34.28125 8.109375 
Q 28.515625 1.859375 25.484375 0.234375 
Q 22.46875 -1.375 19.09375 -1.375 
Q 15.328125 -1.375 12.5625 0.796875 
Q 9.8125 2.984375 8.734375 6.390625 
Q 7.671875 9.8125 7.671875 16.0625 
L 7.671875 36.03125 
Q 7.671875 39.203125 6.984375 40.421875 
Q 6.296875 41.65625 4.953125 42.3125 
Q 3.609375 42.96875 0.09375 42.921875 
L 0.09375 44.734375 
L 15.765625 44.734375 
L 15.765625 14.796875 
Q 15.765625 8.546875 17.9375 6.59375 
Q 20.125 4.640625 23.1875 4.640625 
Q 25.296875 4.640625 27.953125 5.953125 
Q 30.609375 7.28125 34.28125 10.984375 
L 34.28125 36.328125 
Q 34.28125 40.140625 32.890625 41.484375 
Q 31.5 42.828125 27.09375 42.921875 
L 27.09375 44.734375 
z
" id="TimesNewRomanPSMT-75"/>
      <path d="M 32.03125 46.046875 
L 32.03125 30.8125 
L 30.421875 30.8125 
Q 28.5625 37.984375 25.65625 40.578125 
Q 22.75 43.171875 18.265625 43.171875 
Q 14.84375 43.171875 12.734375 41.359375 
Q 10.640625 39.546875 10.640625 37.359375 
Q 10.640625 34.625 12.203125 32.671875 
Q 13.71875 30.671875 18.359375 28.421875 
L 25.484375 24.953125 
Q 35.40625 20.125 35.40625 12.203125 
Q 35.40625 6.109375 30.78125 2.359375 
Q 26.171875 -1.375 20.453125 -1.375 
Q 16.359375 -1.375 11.078125 0.09375 
Q 9.46875 0.59375 8.453125 0.59375 
Q 7.328125 0.59375 6.6875 -0.6875 
L 5.078125 -0.6875 
L 5.078125 15.28125 
L 6.6875 15.28125 
Q 8.0625 8.453125 11.90625 4.984375 
Q 15.765625 1.515625 20.5625 1.515625 
Q 23.921875 1.515625 26.046875 3.484375 
Q 28.171875 5.46875 28.171875 8.25 
Q 28.171875 11.625 25.796875 13.921875 
Q 23.4375 16.21875 16.359375 19.734375 
Q 9.28125 23.25 7.078125 26.078125 
Q 4.890625 28.859375 4.890625 33.109375 
Q 4.890625 38.625 8.671875 42.328125 
Q 12.453125 46.046875 18.453125 46.046875 
Q 21.09375 46.046875 24.859375 44.921875 
Q 27.34375 44.1875 28.171875 44.1875 
Q 28.953125 44.1875 29.390625 44.53125 
Q 29.828125 44.875 30.421875 46.046875 
z
" id="TimesNewRomanPSMT-73"/>
     </defs>
     <g transform="translate(178.036172 755.478194)scale(0.17 -0.17)">
      <use xlink:href="#TimesNewRomanPSMT-53"/>
      <use x="55.615234" xlink:href="#TimesNewRomanPSMT-63"/>
      <use x="100" xlink:href="#TimesNewRomanPSMT-61"/>
      <use x="144.384766" xlink:href="#TimesNewRomanPSMT-6c"/>
      <use x="172.167969" xlink:href="#TimesNewRomanPSMT-65"/>
      <use x="216.552734" xlink:href="#TimesNewRomanPSMT-64"/>
      <use x="266.552734" xlink:href="#TimesNewRomanPSMT-20"/>
      <use x="291.552734" xlink:href="#TimesNewRomanPSMT-76"/>
      <use x="341.552734" xlink:href="#TimesNewRomanPSMT-61"/>
      <use x="385.9375" xlink:href="#TimesNewRomanPSMT-6c"/>
      <use x="413.720703" xlink:href="#TimesNewRomanPSMT-75"/>
      <use x="463.720703" xlink:href="#TimesNewRomanPSMT-65"/>
      <use x="508.105469" xlink:href="#TimesNewRomanPSMT-73"/>
     </g>
    </g>
   </g>
   <g id="matplotlib.axis_2">
    <g id="ytick_1">
     <g id="line2d_5">
      <defs>
       <path d="M 0 0 
L -3.5 0 
" id="mb8ec5ae02b" style="stroke:#000000;stroke-width:0.8;"/>
      </defs>
      <g>
       <use style="stroke:#000000;stroke-width:0.8;" x="140.835156" xlink:href="#mb8ec5ae02b" y="684.400518"/>
      </g>
     </g>
     <g id="text_6">
      <!-- ALP_M_n -->
      <defs>
       <path d="M 45.75 22.171875 
L 20.125 22.171875 
L 15.625 11.71875 
Q 13.96875 7.859375 13.96875 5.953125 
Q 13.96875 4.4375 15.40625 3.296875 
Q 16.84375 2.15625 21.625 1.8125 
L 21.625 0 
L 0.78125 0 
L 0.78125 1.8125 
Q 4.9375 2.546875 6.15625 3.71875 
Q 8.640625 6.0625 11.671875 13.234375 
L 34.96875 67.71875 
L 36.671875 67.71875 
L 59.71875 12.640625 
Q 62.5 6 64.765625 4.015625 
Q 67.046875 2.046875 71.09375 1.8125 
L 71.09375 0 
L 44.96875 0 
L 44.96875 1.8125 
Q 48.921875 2 50.3125 3.125 
Q 51.703125 4.25 51.703125 5.859375 
Q 51.703125 8.015625 49.75 12.640625 
z
M 44.390625 25.78125 
L 33.15625 52.546875 
L 21.625 25.78125 
z
" id="TimesNewRomanPSMT-41"/>
       <path d="M 57.328125 18.3125 
L 58.9375 17.96875 
L 53.265625 0 
L 2 0 
L 2 1.8125 
L 4.5 1.8125 
Q 8.6875 1.8125 10.5 4.546875 
Q 11.53125 6.109375 11.53125 11.765625 
L 11.53125 54.5 
Q 11.53125 60.6875 10.15625 62.25 
Q 8.25 64.40625 4.5 64.40625 
L 2 64.40625 
L 2 66.21875 
L 31.984375 66.21875 
L 31.984375 64.40625 
Q 26.703125 64.453125 24.578125 63.421875 
Q 22.46875 62.40625 21.6875 60.84375 
Q 20.90625 59.28125 20.90625 53.375 
L 20.90625 11.765625 
Q 20.90625 7.71875 21.6875 6.203125 
Q 22.265625 5.171875 23.484375 4.6875 
Q 24.703125 4.203125 31.109375 4.203125 
L 35.9375 4.203125 
Q 43.5625 4.203125 46.625 5.328125 
Q 49.703125 6.453125 52.234375 9.296875 
Q 54.78125 12.15625 57.328125 18.3125 
z
" id="TimesNewRomanPSMT-4c"/>
       <path d="M 20.515625 31 
L 20.515625 11.71875 
Q 20.515625 5.46875 21.875 3.953125 
Q 23.734375 1.8125 27.484375 1.8125 
L 30.03125 1.8125 
L 30.03125 0 
L 1.65625 0 
L 1.65625 1.8125 
L 4.15625 1.8125 
Q 8.34375 1.8125 10.15625 4.546875 
Q 11.140625 6.0625 11.140625 11.71875 
L 11.140625 54.5 
Q 11.140625 60.75 9.8125 62.25 
Q 7.90625 64.40625 4.15625 64.40625 
L 1.65625 64.40625 
L 1.65625 66.21875 
L 25.921875 66.21875 
Q 34.8125 66.21875 39.9375 64.375 
Q 45.0625 62.546875 48.578125 58.203125 
Q 52.09375 53.859375 52.09375 47.90625 
Q 52.09375 39.796875 46.75 34.71875 
Q 41.40625 29.640625 31.640625 29.640625 
Q 29.25 29.640625 26.46875 29.984375 
Q 23.6875 30.328125 20.515625 31 
z
M 20.515625 33.796875 
Q 23.09375 33.296875 25.09375 33.046875 
Q 27.09375 32.8125 28.515625 32.8125 
Q 33.59375 32.8125 37.28125 36.734375 
Q 40.96875 40.671875 40.96875 46.921875 
Q 40.96875 51.21875 39.203125 54.90625 
Q 37.453125 58.59375 34.21875 60.421875 
Q 31 62.25 26.90625 62.25 
Q 24.421875 62.25 20.515625 61.328125 
z
" id="TimesNewRomanPSMT-50"/>
       <path d="M 50.875 -21.578125 
L -0.828125 -21.578125 
L -0.828125 -17.484375 
L 50.875 -17.484375 
z
" id="TimesNewRomanPSMT-5f"/>
       <path d="M 40.921875 0 
L 15.328125 55.71875 
L 15.328125 11.46875 
Q 15.328125 5.375 16.65625 3.859375 
Q 18.453125 1.8125 22.359375 1.8125 
L 24.703125 1.8125 
L 24.703125 0 
L 1.65625 0 
L 1.65625 1.8125 
L 4 1.8125 
Q 8.203125 1.8125 9.96875 4.34375 
Q 11.03125 5.90625 11.03125 11.46875 
L 11.03125 54.734375 
Q 11.03125 59.125 10.0625 61.078125 
Q 9.375 62.5 7.546875 63.453125 
Q 5.71875 64.40625 1.65625 64.40625 
L 1.65625 66.21875 
L 20.40625 66.21875 
L 44.4375 14.40625 
L 68.0625 66.21875 
L 86.8125 66.21875 
L 86.8125 64.40625 
L 84.515625 64.40625 
Q 80.28125 64.40625 78.515625 61.859375 
Q 77.4375 60.296875 77.4375 54.734375 
L 77.4375 11.46875 
Q 77.4375 5.375 78.8125 3.859375 
Q 80.609375 1.8125 84.515625 1.8125 
L 86.8125 1.8125 
L 86.8125 0 
L 58.6875 0 
L 58.6875 1.8125 
L 61.03125 1.8125 
Q 65.28125 1.8125 67 4.34375 
Q 68.0625 5.90625 68.0625 11.46875 
L 68.0625 55.71875 
L 42.53125 0 
z
" id="TimesNewRomanPSMT-4d"/>
       <path d="M 16.15625 36.578125 
Q 24.03125 46.046875 31.15625 46.046875 
Q 34.8125 46.046875 37.453125 44.21875 
Q 40.09375 42.390625 41.65625 38.1875 
Q 42.71875 35.25 42.71875 29.203125 
L 42.71875 10.109375 
Q 42.71875 5.859375 43.40625 4.34375 
Q 43.953125 3.125 45.140625 2.4375 
Q 46.34375 1.765625 49.5625 1.765625 
L 49.5625 0 
L 27.4375 0 
L 27.4375 1.765625 
L 28.375 1.765625 
Q 31.5 1.765625 32.734375 2.703125 
Q 33.984375 3.65625 34.46875 5.515625 
Q 34.671875 6.25 34.671875 10.109375 
L 34.671875 28.421875 
Q 34.671875 34.515625 33.078125 37.28125 
Q 31.5 40.046875 27.734375 40.046875 
Q 21.921875 40.046875 16.15625 33.6875 
L 16.15625 10.109375 
Q 16.15625 5.5625 16.703125 4.5 
Q 17.390625 3.078125 18.578125 2.421875 
Q 19.78125 1.765625 23.4375 1.765625 
L 23.4375 0 
L 1.3125 0 
L 1.3125 1.765625 
L 2.296875 1.765625 
Q 5.71875 1.765625 6.90625 3.484375 
Q 8.109375 5.21875 8.109375 10.109375 
L 8.109375 26.703125 
Q 8.109375 34.765625 7.734375 36.515625 
Q 7.375 38.28125 6.609375 38.90625 
Q 5.859375 39.546875 4.59375 39.546875 
Q 3.21875 39.546875 1.3125 38.8125 
L 0.59375 40.578125 
L 14.0625 46.046875 
L 16.15625 46.046875 
z
" id="TimesNewRomanPSMT-6e"/>
      </defs>
      <g transform="translate(69.660938 689.594268)scale(0.15 -0.15)">
       <use xlink:href="#TimesNewRomanPSMT-41"/>
       <use x="72.216797" xlink:href="#TimesNewRomanPSMT-4c"/>
       <use x="133.300781" xlink:href="#TimesNewRomanPSMT-50"/>
       <use x="188.916016" xlink:href="#TimesNewRomanPSMT-5f"/>
       <use x="238.916016" xlink:href="#TimesNewRomanPSMT-4d"/>
       <use x="327.832031" xlink:href="#TimesNewRomanPSMT-5f"/>
       <use x="377.832031" xlink:href="#TimesNewRomanPSMT-6e"/>
      </g>
     </g>
    </g>
    <g id="ytick_2">
     <g id="line2d_6">
      <g>
       <use style="stroke:#000000;stroke-width:0.8;" x="140.835156" xlink:href="#mb8ec5ae02b" y="565.204151"/>
      </g>
     </g>
     <g id="text_7">
      <!-- ARS_M_n -->
      <defs>
       <path d="M 67.578125 0 
L 49.90625 0 
L 27.484375 30.953125 
Q 25 30.859375 23.4375 30.859375 
Q 22.796875 30.859375 22.0625 30.875 
Q 21.34375 30.90625 20.5625 30.953125 
L 20.5625 11.71875 
Q 20.5625 5.46875 21.921875 3.953125 
Q 23.78125 1.8125 27.484375 1.8125 
L 30.078125 1.8125 
L 30.078125 0 
L 1.703125 0 
L 1.703125 1.8125 
L 4.203125 1.8125 
Q 8.40625 1.8125 10.203125 4.546875 
Q 11.234375 6.0625 11.234375 11.71875 
L 11.234375 54.5 
Q 11.234375 60.75 9.859375 62.25 
Q 7.953125 64.40625 4.203125 64.40625 
L 1.703125 64.40625 
L 1.703125 66.21875 
L 25.828125 66.21875 
Q 36.375 66.21875 41.375 64.671875 
Q 46.390625 63.140625 49.875 59.015625 
Q 53.375 54.890625 53.375 49.171875 
Q 53.375 43.0625 49.390625 38.5625 
Q 45.40625 34.078125 37.0625 32.234375 
L 50.734375 13.234375 
Q 55.421875 6.6875 58.78125 4.53125 
Q 62.15625 2.390625 67.578125 1.8125 
z
M 20.5625 34.03125 
Q 21.484375 34.03125 22.171875 34 
Q 22.859375 33.984375 23.296875 33.984375 
Q 32.765625 33.984375 37.578125 38.078125 
Q 42.390625 42.1875 42.390625 48.53125 
Q 42.390625 54.734375 38.5 58.609375 
Q 34.625 62.5 28.21875 62.5 
Q 25.390625 62.5 20.5625 61.578125 
z
" id="TimesNewRomanPSMT-52"/>
      </defs>
      <g transform="translate(68.817188 570.397901)scale(0.15 -0.15)">
       <use xlink:href="#TimesNewRomanPSMT-41"/>
       <use x="72.216797" xlink:href="#TimesNewRomanPSMT-52"/>
       <use x="138.916016" xlink:href="#TimesNewRomanPSMT-53"/>
       <use x="194.53125" xlink:href="#TimesNewRomanPSMT-5f"/>
       <use x="244.53125" xlink:href="#TimesNewRomanPSMT-4d"/>
       <use x="333.447266" xlink:href="#TimesNewRomanPSMT-5f"/>
       <use x="383.447266" xlink:href="#TimesNewRomanPSMT-6e"/>
      </g>
     </g>
    </g>
    <g id="ytick_3">
     <g id="line2d_7">
      <g>
       <use style="stroke:#000000;stroke-width:0.8;" x="140.835156" xlink:href="#mb8ec5ae02b" y="446.007784"/>
      </g>
     </g>
     <g id="text_8">
      <!-- ALP_0 -->
      <g transform="translate(90.499219 451.201534)scale(0.15 -0.15)">
       <use xlink:href="#TimesNewRomanPSMT-41"/>
       <use x="72.216797" xlink:href="#TimesNewRomanPSMT-4c"/>
       <use x="133.300781" xlink:href="#TimesNewRomanPSMT-50"/>
       <use x="188.916016" xlink:href="#TimesNewRomanPSMT-5f"/>
       <use x="238.916016" xlink:href="#TimesNewRomanPSMT-30"/>
      </g>
     </g>
    </g>
    <g id="ytick_4">
     <g id="line2d_8">
      <g>
       <use style="stroke:#000000;stroke-width:0.8;" x="140.835156" xlink:href="#mb8ec5ae02b" y="326.811416"/>
      </g>
     </g>
     <g id="text_9">
      <!-- ARS_0 -->
      <g transform="translate(89.655469 332.005166)scale(0.15 -0.15)">
       <use xlink:href="#TimesNewRomanPSMT-41"/>
       <use x="72.216797" xlink:href="#TimesNewRomanPSMT-52"/>
       <use x="138.916016" xlink:href="#TimesNewRomanPSMT-53"/>
       <use x="194.53125" xlink:href="#TimesNewRomanPSMT-5f"/>
       <use x="244.53125" xlink:href="#TimesNewRomanPSMT-30"/>
      </g>
     </g>
    </g>
    <g id="ytick_5">
     <g id="line2d_9">
      <g>
       <use style="stroke:#000000;stroke-width:0.8;" x="140.835156" xlink:href="#mb8ec5ae02b" y="207.615049"/>
      </g>
     </g>
     <g id="text_10">
      <!-- a_Valles_2020_ALP -->
      <defs>
       <path d="M 71 66.21875 
L 71 64.40625 
Q 67.484375 63.765625 65.671875 62.15625 
Q 63.09375 59.765625 61.078125 54.828125 
L 37.984375 -1.515625 
L 36.1875 -1.515625 
L 11.375 55.5625 
Q 9.46875 59.96875 8.6875 60.9375 
Q 7.46875 62.453125 5.6875 63.296875 
Q 3.90625 64.15625 0.875 64.40625 
L 0.875 66.21875 
L 27.9375 66.21875 
L 27.9375 64.40625 
Q 23.34375 63.96875 21.96875 62.84375 
Q 20.609375 61.71875 20.609375 59.96875 
Q 20.609375 57.515625 22.859375 52.34375 
L 39.703125 13.53125 
L 55.328125 51.859375 
Q 57.625 57.515625 57.625 59.71875 
Q 57.625 61.140625 56.203125 62.421875 
Q 54.78125 63.71875 51.421875 64.265625 
Q 51.171875 64.3125 50.59375 64.40625 
L 50.59375 66.21875 
z
" id="TimesNewRomanPSMT-56"/>
      </defs>
      <g transform="translate(8.04375 212.822861)scale(0.15 -0.15)">
       <use xlink:href="#TimesNewRomanPSMT-61"/>
       <use x="44.384766" xlink:href="#TimesNewRomanPSMT-5f"/>
       <use x="94.384766" xlink:href="#TimesNewRomanPSMT-56"/>
       <use x="166.429688" xlink:href="#TimesNewRomanPSMT-61"/>
       <use x="210.814453" xlink:href="#TimesNewRomanPSMT-6c"/>
       <use x="238.597656" xlink:href="#TimesNewRomanPSMT-6c"/>
       <use x="266.380859" xlink:href="#TimesNewRomanPSMT-65"/>
       <use x="310.765625" xlink:href="#TimesNewRomanPSMT-73"/>
       <use x="349.681641" xlink:href="#TimesNewRomanPSMT-5f"/>
       <use x="399.681641" xlink:href="#TimesNewRomanPSMT-32"/>
       <use x="449.681641" xlink:href="#TimesNewRomanPSMT-30"/>
       <use x="499.681641" xlink:href="#TimesNewRomanPSMT-32"/>
       <use x="549.681641" xlink:href="#TimesNewRomanPSMT-30"/>
       <use x="599.681641" xlink:href="#TimesNewRomanPSMT-5f"/>
       <use x="649.681641" xlink:href="#TimesNewRomanPSMT-41"/>
       <use x="721.898438" xlink:href="#TimesNewRomanPSMT-4c"/>
       <use x="782.982422" xlink:href="#TimesNewRomanPSMT-50"/>
      </g>
     </g>
    </g>
    <g id="ytick_6">
     <g id="line2d_10">
      <g>
       <use style="stroke:#000000;stroke-width:0.8;" x="140.835156" xlink:href="#mb8ec5ae02b" y="88.418682"/>
      </g>
     </g>
     <g id="text_11">
      <!-- a_Valles_2020_ARS -->
      <g transform="translate(7.2 93.626494)scale(0.15 -0.15)">
       <use xlink:href="#TimesNewRomanPSMT-61"/>
       <use x="44.384766" xlink:href="#TimesNewRomanPSMT-5f"/>
       <use x="94.384766" xlink:href="#TimesNewRomanPSMT-56"/>
       <use x="166.429688" xlink:href="#TimesNewRomanPSMT-61"/>
       <use x="210.814453" xlink:href="#TimesNewRomanPSMT-6c"/>
       <use x="238.597656" xlink:href="#TimesNewRomanPSMT-6c"/>
       <use x="266.380859" xlink:href="#TimesNewRomanPSMT-65"/>
       <use x="310.765625" xlink:href="#TimesNewRomanPSMT-73"/>
       <use x="349.681641" xlink:href="#TimesNewRomanPSMT-5f"/>
       <use x="399.681641" xlink:href="#TimesNewRomanPSMT-32"/>
       <use x="449.681641" xlink:href="#TimesNewRomanPSMT-30"/>
       <use x="499.681641" xlink:href="#TimesNewRomanPSMT-32"/>
       <use x="549.681641" xlink:href="#TimesNewRomanPSMT-30"/>
       <use x="599.681641" xlink:href="#TimesNewRomanPSMT-5f"/>
       <use x="649.681641" xlink:href="#TimesNewRomanPSMT-41"/>
       <use x="721.898438" xlink:href="#TimesNewRomanPSMT-52"/>
       <use x="788.597656" xlink:href="#TimesNewRomanPSMT-53"/>
      </g>
     </g>
    </g>
   </g>
   <g id="patch_3">
    <path d="M 140.835156 719.0496 
L 140.835156 53.7696 
" style="fill:none;stroke:#000000;stroke-linecap:square;stroke-linejoin:miter;stroke-width:0.8;"/>
   </g>
   <g id="patch_4">
    <path d="M 308.235156 719.0496 
L 308.235156 53.7696 
" style="fill:none;stroke:#000000;stroke-linecap:square;stroke-linejoin:miter;stroke-width:0.8;"/>
   </g>
   <g id="patch_5">
    <path d="M 140.835156 719.0496 
L 308.235156 719.0496 
" style="fill:none;stroke:#000000;stroke-linecap:square;stroke-linejoin:miter;stroke-width:0.8;"/>
   </g>
   <g id="patch_6">
    <path d="M 140.835156 53.7696 
L 308.235156 53.7696 
" style="fill:none;stroke:#000000;stroke-linecap:square;stroke-linejoin:miter;stroke-width:0.8;"/>
   </g>
   <g id="legend_1">
    <g id="patch_7">
     <path d="M 151.805156 66.242344 
L 444.158906 66.242344 
Q 446.758906 66.242344 446.758906 63.642344 
L 446.758906 9.8 
Q 446.758906 7.2 444.158906 7.2 
L 151.805156 7.2 
Q 149.205156 7.2 149.205156 9.8 
L 149.205156 63.642344 
Q 149.205156 66.242344 151.805156 66.242344 
z
" style="fill:#ffffff;opacity:0.8;stroke:#cccccc;stroke-linejoin:miter;"/>
    </g>
    <g id="PathCollection_11">
     <g>
      <use style="fill:#4c72b0;fill-opacity:0.8;stroke:#4c72b0;stroke-opacity:0.8;" x="167.405156" xlink:href="#mdf55162e39" y="18.0875"/>
     </g>
    </g>
    <g id="text_12">
     <!-- A0 -->
     <g transform="translate(190.805156 21.5)scale(0.13 -0.13)">
      <use xlink:href="#TimesNewRomanPSMT-41"/>
      <use x="72.216797" xlink:href="#TimesNewRomanPSMT-30"/>
     </g>
    </g>
    <g id="PathCollection_12">
     <g>
      <use style="fill:#55a868;fill-opacity:0.8;stroke:#55a868;stroke-opacity:0.8;" x="167.405156" xlink:href="#m090fb6c817" y="36.468281"/>
     </g>
    </g>
    <g id="text_13">
     <!-- A1 -->
     <g transform="translate(190.805156 39.880781)scale(0.13 -0.13)">
      <use xlink:href="#TimesNewRomanPSMT-41"/>
      <use x="72.216797" xlink:href="#TimesNewRomanPSMT-31"/>
     </g>
    </g>
    <g id="PathCollection_13">
     <g>
      <use style="fill:#c44e52;fill-opacity:0.8;stroke:#c44e52;stroke-opacity:0.8;" x="167.405156" xlink:href="#m91baa77336" y="54.849062"/>
     </g>
    </g>
    <g id="text_14">
     <!-- A2 -->
     <g transform="translate(190.805156 58.261562)scale(0.13 -0.13)">
      <use xlink:href="#TimesNewRomanPSMT-41"/>
      <use x="72.216797" xlink:href="#TimesNewRomanPSMT-32"/>
     </g>
    </g>
    <g id="PathCollection_14">
     <g>
      <use style="fill:#8172b2;fill-opacity:0.8;stroke:#8172b2;stroke-opacity:0.8;" x="245.693594" xlink:href="#mf919955578" y="18.0875"/>
     </g>
    </g>
    <g id="text_15">
     <!-- A3 -->
     <defs>
      <path d="M 5.078125 53.609375 
Q 7.90625 60.296875 12.21875 63.9375 
Q 16.546875 67.578125 23 67.578125 
Q 30.953125 67.578125 35.203125 62.40625 
Q 38.421875 58.546875 38.421875 54.15625 
Q 38.421875 46.921875 29.34375 39.203125 
Q 35.453125 36.8125 38.578125 32.375 
Q 41.703125 27.9375 41.703125 21.921875 
Q 41.703125 13.328125 36.234375 7.03125 
Q 29.109375 -1.171875 15.578125 -1.171875 
Q 8.890625 -1.171875 6.46875 0.484375 
Q 4.046875 2.15625 4.046875 4.046875 
Q 4.046875 5.46875 5.1875 6.546875 
Q 6.34375 7.625 7.953125 7.625 
Q 9.1875 7.625 10.453125 7.234375 
Q 11.28125 6.984375 14.203125 5.4375 
Q 17.140625 3.90625 18.265625 3.609375 
Q 20.0625 3.078125 22.125 3.078125 
Q 27.09375 3.078125 30.78125 6.9375 
Q 34.46875 10.796875 34.46875 16.0625 
Q 34.46875 19.921875 32.765625 23.578125 
Q 31.5 26.3125 29.984375 27.734375 
Q 27.875 29.6875 24.21875 31.265625 
Q 20.5625 32.859375 16.75 32.859375 
L 15.1875 32.859375 
L 15.1875 34.328125 
Q 19.046875 34.8125 22.921875 37.109375 
Q 26.8125 39.40625 28.5625 42.625 
Q 30.328125 45.84375 30.328125 49.703125 
Q 30.328125 54.734375 27.171875 57.828125 
Q 24.03125 60.9375 19.34375 60.9375 
Q 11.765625 60.9375 6.6875 52.828125 
z
" id="TimesNewRomanPSMT-33"/>
     </defs>
     <g transform="translate(269.093594 21.5)scale(0.13 -0.13)">
      <use xlink:href="#TimesNewRomanPSMT-41"/>
      <use x="72.216797" xlink:href="#TimesNewRomanPSMT-33"/>
     </g>
    </g>
    <g id="PathCollection_15">
     <g>
      <use style="fill:#ccb974;fill-opacity:0.8;stroke:#ccb974;stroke-opacity:0.8;" x="245.693594" xlink:href="#m3f11f741f3" y="36.468281"/>
     </g>
    </g>
    <g id="text_16">
     <!-- A4 -->
     <defs>
      <path d="M 46.53125 24.421875 
L 46.53125 17.484375 
L 37.640625 17.484375 
L 37.640625 0 
L 29.59375 0 
L 29.59375 17.484375 
L 1.5625 17.484375 
L 1.5625 23.734375 
L 32.28125 67.578125 
L 37.640625 67.578125 
L 37.640625 24.421875 
z
M 29.59375 24.421875 
L 29.59375 57.28125 
L 6.34375 24.421875 
z
" id="TimesNewRomanPSMT-34"/>
     </defs>
     <g transform="translate(269.093594 39.880781)scale(0.13 -0.13)">
      <use xlink:href="#TimesNewRomanPSMT-41"/>
      <use x="72.216797" xlink:href="#TimesNewRomanPSMT-34"/>
     </g>
    </g>
    <g id="PathCollection_16">
     <g>
      <use style="fill:#64b5cd;fill-opacity:0.8;stroke:#64b5cd;stroke-opacity:0.8;" x="245.693594" xlink:href="#meae40abe91" y="54.849062"/>
     </g>
    </g>
    <g id="text_17">
     <!-- A5 -->
     <g transform="translate(269.093594 58.261562)scale(0.13 -0.13)">
      <use xlink:href="#TimesNewRomanPSMT-41"/>
      <use x="72.216797" xlink:href="#TimesNewRomanPSMT-35"/>
     </g>
    </g>
    <g id="PathCollection_17">
     <g>
      <use style="fill:#4c72b0;fill-opacity:0.8;stroke:#4c72b0;stroke-opacity:0.8;" x="323.982031" xlink:href="#mdf55162e39" y="18.0875"/>
     </g>
    </g>
    <g id="text_18">
     <!-- A6 -->
     <defs>
      <path d="M 44.828125 67.578125 
L 44.828125 65.765625 
Q 38.375 65.140625 34.296875 63.203125 
Q 30.21875 61.28125 26.234375 57.328125 
Q 22.265625 53.375 19.65625 48.515625 
Q 17.046875 43.65625 15.28125 36.96875 
Q 22.3125 41.796875 29.390625 41.796875 
Q 36.1875 41.796875 41.15625 36.328125 
Q 46.140625 30.859375 46.140625 22.265625 
Q 46.140625 13.96875 41.109375 7.125 
Q 35.0625 -1.171875 25.09375 -1.171875 
Q 18.3125 -1.171875 13.578125 3.328125 
Q 4.296875 12.0625 4.296875 25.984375 
Q 4.296875 34.859375 7.859375 42.859375 
Q 11.421875 50.875 18.03125 57.078125 
Q 24.65625 63.28125 30.703125 65.421875 
Q 36.765625 67.578125 42 67.578125 
z
M 14.453125 33.40625 
Q 13.578125 26.8125 13.578125 22.75 
Q 13.578125 18.0625 15.3125 12.5625 
Q 17.046875 7.078125 20.453125 3.859375 
Q 22.953125 1.5625 26.515625 1.5625 
Q 30.765625 1.5625 34.109375 5.5625 
Q 37.453125 9.578125 37.453125 17 
Q 37.453125 25.34375 34.125 31.4375 
Q 30.8125 37.546875 24.703125 37.546875 
Q 22.859375 37.546875 20.734375 36.765625 
Q 18.609375 35.984375 14.453125 33.40625 
z
" id="TimesNewRomanPSMT-36"/>
     </defs>
     <g transform="translate(347.382031 21.5)scale(0.13 -0.13)">
      <use xlink:href="#TimesNewRomanPSMT-41"/>
      <use x="72.216797" xlink:href="#TimesNewRomanPSMT-36"/>
     </g>
    </g>
    <g id="PathCollection_18">
     <g>
      <use style="fill:#55a868;fill-opacity:0.8;stroke:#55a868;stroke-opacity:0.8;" x="323.982031" xlink:href="#m090fb6c817" y="36.468281"/>
     </g>
    </g>
    <g id="text_19">
     <!-- A7 -->
     <defs>
      <path d="M 10.0625 66.21875 
L 45.5625 66.21875 
L 45.5625 64.359375 
L 23.484375 -1.375 
L 18.015625 -1.375 
L 37.796875 58.25 
L 19.578125 58.25 
Q 14.0625 58.25 11.71875 56.9375 
Q 7.625 54.6875 5.125 50 
L 3.71875 50.53125 
z
" id="TimesNewRomanPSMT-37"/>
     </defs>
     <g transform="translate(347.382031 39.880781)scale(0.13 -0.13)">
      <use xlink:href="#TimesNewRomanPSMT-41"/>
      <use x="72.216797" xlink:href="#TimesNewRomanPSMT-37"/>
     </g>
    </g>
    <g id="PathCollection_19">
     <g>
      <use style="fill:#c44e52;fill-opacity:0.8;stroke:#c44e52;stroke-opacity:0.8;" x="402.270469" xlink:href="#m91baa77336" y="18.0875"/>
     </g>
    </g>
    <g id="text_20">
     <!-- A8 -->
     <defs>
      <path d="M 19.1875 33.34375 
Q 11.328125 39.796875 9.046875 43.703125 
Q 6.78125 47.609375 6.78125 51.8125 
Q 6.78125 58.25 11.765625 62.90625 
Q 16.75 67.578125 25 67.578125 
Q 33.015625 67.578125 37.890625 63.234375 
Q 42.78125 58.890625 42.78125 53.328125 
Q 42.78125 49.609375 40.140625 45.75 
Q 37.5 41.890625 29.15625 36.671875 
Q 37.75 30.03125 40.53125 26.21875 
Q 44.234375 21.234375 44.234375 15.71875 
Q 44.234375 8.734375 38.90625 3.78125 
Q 33.59375 -1.171875 24.953125 -1.171875 
Q 15.53125 -1.171875 10.25 4.734375 
Q 6.0625 9.46875 6.0625 15.09375 
Q 6.0625 19.484375 9.015625 23.796875 
Q 11.96875 28.125 19.1875 33.34375 
z
M 26.859375 38.578125 
Q 32.71875 43.84375 34.28125 46.890625 
Q 35.84375 49.953125 35.84375 53.8125 
Q 35.84375 58.9375 32.953125 61.84375 
Q 30.078125 64.75 25.09375 64.75 
Q 20.125 64.75 17 61.859375 
Q 13.875 58.984375 13.875 55.125 
Q 13.875 52.59375 15.15625 50.046875 
Q 16.453125 47.515625 18.84375 45.21875 
z
M 21.484375 31.5 
Q 17.4375 28.078125 15.484375 24.046875 
Q 13.53125 20.015625 13.53125 15.328125 
Q 13.53125 9.03125 16.96875 5.25 
Q 20.40625 1.46875 25.734375 1.46875 
Q 31 1.46875 34.171875 4.4375 
Q 37.359375 7.421875 37.359375 11.671875 
Q 37.359375 15.1875 35.5 17.96875 
Q 32.03125 23.140625 21.484375 31.5 
z
" id="TimesNewRomanPSMT-38"/>
     </defs>
     <g transform="translate(425.670469 21.5)scale(0.13 -0.13)">
      <use xlink:href="#TimesNewRomanPSMT-41"/>
      <use x="72.216797" xlink:href="#TimesNewRomanPSMT-38"/>
     </g>
    </g>
    <g id="PathCollection_20">
     <g>
      <use style="fill:#8172b2;fill-opacity:0.8;stroke:#8172b2;stroke-opacity:0.8;" x="402.270469" xlink:href="#mf919955578" y="36.468281"/>
     </g>
    </g>
    <g id="text_21">
     <!-- A9 -->
     <defs>
      <path d="M 5.28125 -1.375 
L 5.28125 0.4375 
Q 11.625 0.53125 17.09375 3.390625 
Q 22.5625 6.25 27.65625 13.375 
Q 32.765625 20.515625 34.765625 29.046875 
Q 27.09375 24.125 20.90625 24.125 
Q 13.921875 24.125 8.9375 29.515625 
Q 3.953125 34.90625 3.953125 43.84375 
Q 3.953125 52.546875 8.9375 59.328125 
Q 14.9375 67.578125 24.609375 67.578125 
Q 32.765625 67.578125 38.578125 60.84375 
Q 45.703125 52.484375 45.703125 40.234375 
Q 45.703125 29.203125 40.28125 19.65625 
Q 34.859375 10.109375 25.203125 3.8125 
Q 17.328125 -1.375 8.0625 -1.375 
z
M 35.546875 32.671875 
Q 36.421875 39.015625 36.421875 42.828125 
Q 36.421875 47.5625 34.8125 53.046875 
Q 33.203125 58.546875 30.25 61.46875 
Q 27.296875 64.40625 23.53125 64.40625 
Q 19.1875 64.40625 15.90625 60.5 
Q 12.640625 56.59375 12.640625 48.875 
Q 12.640625 38.578125 17 32.765625 
Q 20.171875 28.5625 24.8125 28.5625 
Q 27.046875 28.5625 30.125 29.640625 
Q 33.203125 30.71875 35.546875 32.671875 
z
" id="TimesNewRomanPSMT-39"/>
     </defs>
     <g transform="translate(425.670469 39.880781)scale(0.13 -0.13)">
      <use xlink:href="#TimesNewRomanPSMT-41"/>
      <use x="72.216797" xlink:href="#TimesNewRomanPSMT-39"/>
     </g>
    </g>
   </g>
  </g>
 </g>
 <defs>
  <clipPath id="p5650ce9c67">
   <rect height="665.28" width="167.4" x="140.835156" y="53.7696"/>
  </clipPath>
 </defs>
</svg>
