<?xml version="1.0" encoding="utf-8" standalone="no"?>
<!DOCTYPE svg PUBLIC "-//W3C//DTD SVG 1.1//EN"
  "http://www.w3.org/Graphics/SVG/1.1/DTD/svg11.dtd">
<!-- Created with matplotlib (https://matplotlib.org/) -->
<svg height="768.2196pt" version="1.1" viewBox="0 0 485.048594 768.2196" width="485.048594pt" xmlns="http://www.w3.org/2000/svg" xmlns:xlink="http://www.w3.org/1999/xlink">
 <defs>
  <style type="text/css">
*{stroke-linecap:butt;stroke-linejoin:round;}
  </style>
 </defs>
 <g id="figure_1">
  <g id="patch_1">
   <path d="M 0 768.2196 
L 485.048594 768.2196 
L 485.048594 0 
L 0 0 
z
" style="fill:#ffffff;"/>
  </g>
  <g id="axes_1">
   <g id="patch_2">
    <path d="M 159.903906 719.0496 
L 327.303906 719.0496 
L 327.303906 53.7696 
L 159.903906 53.7696 
z
" style="fill:#ffffff;"/>
   </g>
   <g id="PathCollection_1">
    <defs>
     <path d="M 0 6.123724 
C 1.624031 6.123724 3.181764 5.47849 4.330127 4.330127 
C 5.47849 3.181764 6.123724 1.624031 6.123724 0 
C 6.123724 -1.624031 5.47849 -3.181764 4.330127 -4.330127 
C 3.181764 -5.47849 1.624031 -6.123724 0 -6.123724 
C -1.624031 -6.123724 -3.181764 -5.47849 -4.330127 -4.330127 
C -5.47849 -3.181764 -6.123724 -1.624031 -6.123724 0 
C -6.123724 1.624031 -5.47849 3.181764 -4.330127 4.330127 
C -3.181764 5.47849 -1.624031 6.123724 0 6.123724 
z
" id="mf38762893a" style="stroke:#4c72b0;stroke-opacity:0.8;"/>
    </defs>
    <g clip-path="url(#p65ba0803a2)">
     <use style="fill:#4c72b0;fill-opacity:0.8;stroke:#4c72b0;stroke-opacity:0.8;" x="190.79184" xlink:href="#mf38762893a" y="684.400519"/>
     <use style="fill:#4c72b0;fill-opacity:0.8;stroke:#4c72b0;stroke-opacity:0.8;" x="190.43819" xlink:href="#mf38762893a" y="656.020431"/>
     <use style="fill:#4c72b0;fill-opacity:0.8;stroke:#4c72b0;stroke-opacity:0.8;" x="173.289515" xlink:href="#mf38762893a" y="627.640344"/>
     <use style="fill:#4c72b0;fill-opacity:0.8;stroke:#4c72b0;stroke-opacity:0.8;" x="261.485271" xlink:href="#mf38762893a" y="599.260256"/>
     <use style="fill:#4c72b0;fill-opacity:0.8;stroke:#4c72b0;stroke-opacity:0.8;" x="266.51189" xlink:href="#mf38762893a" y="570.880169"/>
     <use style="fill:#4c72b0;fill-opacity:0.8;stroke:#4c72b0;stroke-opacity:0.8;" x="269.053573" xlink:href="#mf38762893a" y="542.500081"/>
     <use style="fill:#4c72b0;fill-opacity:0.8;stroke:#4c72b0;stroke-opacity:0.8;" x="260.664111" xlink:href="#mf38762893a" y="514.119994"/>
     <use style="fill:#4c72b0;fill-opacity:0.8;stroke:#4c72b0;stroke-opacity:0.8;" x="261.666783" xlink:href="#mf38762893a" y="485.739906"/>
     <use style="fill:#4c72b0;fill-opacity:0.8;stroke:#4c72b0;stroke-opacity:0.8;" x="277.243934" xlink:href="#mf38762893a" y="457.359819"/>
     <use style="fill:#4c72b0;fill-opacity:0.8;stroke:#4c72b0;stroke-opacity:0.8;" x="311.104542" xlink:href="#mf38762893a" y="428.979731"/>
     <use style="fill:#4c72b0;fill-opacity:0.8;stroke:#4c72b0;stroke-opacity:0.8;" x="261.347059" xlink:href="#mf38762893a" y="400.599644"/>
     <use style="fill:#4c72b0;fill-opacity:0.8;stroke:#4c72b0;stroke-opacity:0.8;" x="266.644976" xlink:href="#mf38762893a" y="372.219556"/>
     <use style="fill:#4c72b0;fill-opacity:0.8;stroke:#4c72b0;stroke-opacity:0.8;" x="267.575638" xlink:href="#mf38762893a" y="343.839469"/>
     <use style="fill:#4c72b0;fill-opacity:0.8;stroke:#4c72b0;stroke-opacity:0.8;" x="259.369824" xlink:href="#mf38762893a" y="315.459381"/>
     <use style="fill:#4c72b0;fill-opacity:0.8;stroke:#4c72b0;stroke-opacity:0.8;" x="265.79662" xlink:href="#mf38762893a" y="287.079294"/>
     <use style="fill:#4c72b0;fill-opacity:0.8;stroke:#4c72b0;stroke-opacity:0.8;" x="258.918423" xlink:href="#mf38762893a" y="258.699206"/>
     <use style="fill:#4c72b0;fill-opacity:0.8;stroke:#4c72b0;stroke-opacity:0.8;" x="269.446376" xlink:href="#mf38762893a" y="230.319119"/>
     <use style="fill:#4c72b0;fill-opacity:0.8;stroke:#4c72b0;stroke-opacity:0.8;" x="279.052345" xlink:href="#mf38762893a" y="201.939031"/>
     <use style="fill:#4c72b0;fill-opacity:0.8;stroke:#4c72b0;stroke-opacity:0.8;" x="280.356107" xlink:href="#mf38762893a" y="173.558944"/>
     <use style="fill:#4c72b0;fill-opacity:0.8;stroke:#4c72b0;stroke-opacity:0.8;" x="296.047828" xlink:href="#mf38762893a" y="145.178856"/>
     <use style="fill:#4c72b0;fill-opacity:0.8;stroke:#4c72b0;stroke-opacity:0.8;" x="229.134814" xlink:href="#mf38762893a" y="116.798769"/>
     <use style="fill:#4c72b0;fill-opacity:0.8;stroke:#4c72b0;stroke-opacity:0.8;" x="275.732677" xlink:href="#mf38762893a" y="88.418681"/>
    </g>
   </g>
   <g id="PathCollection_2">
    <defs>
     <path d="M 0 6.123724 
C 1.624031 6.123724 3.181764 5.47849 4.330127 4.330127 
C 5.47849 3.181764 6.123724 1.624031 6.123724 0 
C 6.123724 -1.624031 5.47849 -3.181764 4.330127 -4.330127 
C 3.181764 -5.47849 1.624031 -6.123724 0 -6.123724 
C -1.624031 -6.123724 -3.181764 -5.47849 -4.330127 -4.330127 
C -5.47849 -3.181764 -6.123724 -1.624031 -6.123724 0 
C -6.123724 1.624031 -5.47849 3.181764 -4.330127 4.330127 
C -3.181764 5.47849 -1.624031 6.123724 0 6.123724 
z
" id="m6b416288a2" style="stroke:#55a868;stroke-opacity:0.8;"/>
    </defs>
    <g clip-path="url(#p65ba0803a2)">
     <use style="fill:#55a868;fill-opacity:0.8;stroke:#55a868;stroke-opacity:0.8;" x="188.816731" xlink:href="#m6b416288a2" y="684.400519"/>
     <use style="fill:#55a868;fill-opacity:0.8;stroke:#55a868;stroke-opacity:0.8;" x="189.2355" xlink:href="#m6b416288a2" y="656.020431"/>
     <use style="fill:#55a868;fill-opacity:0.8;stroke:#55a868;stroke-opacity:0.8;" x="171.665066" xlink:href="#m6b416288a2" y="627.640344"/>
     <use style="fill:#55a868;fill-opacity:0.8;stroke:#55a868;stroke-opacity:0.8;" x="247.382609" xlink:href="#m6b416288a2" y="599.260256"/>
     <use style="fill:#55a868;fill-opacity:0.8;stroke:#55a868;stroke-opacity:0.8;" x="262.145498" xlink:href="#m6b416288a2" y="570.880169"/>
     <use style="fill:#55a868;fill-opacity:0.8;stroke:#55a868;stroke-opacity:0.8;" x="267.865665" xlink:href="#m6b416288a2" y="542.500081"/>
     <use style="fill:#55a868;fill-opacity:0.8;stroke:#55a868;stroke-opacity:0.8;" x="260.064118" xlink:href="#m6b416288a2" y="514.119994"/>
     <use style="fill:#55a868;fill-opacity:0.8;stroke:#55a868;stroke-opacity:0.8;" x="266.181131" xlink:href="#m6b416288a2" y="485.739906"/>
     <use style="fill:#55a868;fill-opacity:0.8;stroke:#55a868;stroke-opacity:0.8;" x="273.474269" xlink:href="#m6b416288a2" y="457.359819"/>
     <use style="fill:#55a868;fill-opacity:0.8;stroke:#55a868;stroke-opacity:0.8;" x="312.948519" xlink:href="#m6b416288a2" y="428.979731"/>
     <use style="fill:#55a868;fill-opacity:0.8;stroke:#55a868;stroke-opacity:0.8;" x="256.714809" xlink:href="#m6b416288a2" y="400.599644"/>
     <use style="fill:#55a868;fill-opacity:0.8;stroke:#55a868;stroke-opacity:0.8;" x="266.140442" xlink:href="#m6b416288a2" y="372.219556"/>
     <use style="fill:#55a868;fill-opacity:0.8;stroke:#55a868;stroke-opacity:0.8;" x="270.287038" xlink:href="#m6b416288a2" y="343.839469"/>
     <use style="fill:#55a868;fill-opacity:0.8;stroke:#55a868;stroke-opacity:0.8;" x="268.690768" xlink:href="#m6b416288a2" y="315.459381"/>
     <use style="fill:#55a868;fill-opacity:0.8;stroke:#55a868;stroke-opacity:0.8;" x="266.670886" xlink:href="#m6b416288a2" y="287.079294"/>
     <use style="fill:#55a868;fill-opacity:0.8;stroke:#55a868;stroke-opacity:0.8;" x="255.578538" xlink:href="#m6b416288a2" y="258.699206"/>
     <use style="fill:#55a868;fill-opacity:0.8;stroke:#55a868;stroke-opacity:0.8;" x="261.072631" xlink:href="#m6b416288a2" y="230.319119"/>
     <use style="fill:#55a868;fill-opacity:0.8;stroke:#55a868;stroke-opacity:0.8;" x="272.426713" xlink:href="#m6b416288a2" y="201.939031"/>
     <use style="fill:#55a868;fill-opacity:0.8;stroke:#55a868;stroke-opacity:0.8;" x="268.624172" xlink:href="#m6b416288a2" y="173.558944"/>
     <use style="fill:#55a868;fill-opacity:0.8;stroke:#55a868;stroke-opacity:0.8;" x="295.98843" xlink:href="#m6b416288a2" y="145.178856"/>
     <use style="fill:#55a868;fill-opacity:0.8;stroke:#55a868;stroke-opacity:0.8;" x="241.509212" xlink:href="#m6b416288a2" y="116.798769"/>
     <use style="fill:#55a868;fill-opacity:0.8;stroke:#55a868;stroke-opacity:0.8;" x="283.788069" xlink:href="#m6b416288a2" y="88.418681"/>
    </g>
   </g>
   <g id="PathCollection_3">
    <defs>
     <path d="M 0 6.123724 
C 1.624031 6.123724 3.181764 5.47849 4.330127 4.330127 
C 5.47849 3.181764 6.123724 1.624031 6.123724 0 
C 6.123724 -1.624031 5.47849 -3.181764 4.330127 -4.330127 
C 3.181764 -5.47849 1.624031 -6.123724 0 -6.123724 
C -1.624031 -6.123724 -3.181764 -5.47849 -4.330127 -4.330127 
C -5.47849 -3.181764 -6.123724 -1.624031 -6.123724 0 
C -6.123724 1.624031 -5.47849 3.181764 -4.330127 4.330127 
C -3.181764 5.47849 -1.624031 6.123724 0 6.123724 
z
" id="m493683d29b" style="stroke:#c44e52;stroke-opacity:0.8;"/>
    </defs>
    <g clip-path="url(#p65ba0803a2)">
     <use style="fill:#c44e52;fill-opacity:0.8;stroke:#c44e52;stroke-opacity:0.8;" x="191.626251" xlink:href="#m493683d29b" y="684.400519"/>
     <use style="fill:#c44e52;fill-opacity:0.8;stroke:#c44e52;stroke-opacity:0.8;" x="191.446777" xlink:href="#m493683d29b" y="656.020431"/>
     <use style="fill:#c44e52;fill-opacity:0.8;stroke:#c44e52;stroke-opacity:0.8;" x="174.193441" xlink:href="#m493683d29b" y="627.640344"/>
     <use style="fill:#c44e52;fill-opacity:0.8;stroke:#c44e52;stroke-opacity:0.8;" x="264.286703" xlink:href="#m493683d29b" y="599.260256"/>
     <use style="fill:#c44e52;fill-opacity:0.8;stroke:#c44e52;stroke-opacity:0.8;" x="270.379209" xlink:href="#m493683d29b" y="570.880169"/>
     <use style="fill:#c44e52;fill-opacity:0.8;stroke:#c44e52;stroke-opacity:0.8;" x="268.432285" xlink:href="#m493683d29b" y="542.500081"/>
     <use style="fill:#c44e52;fill-opacity:0.8;stroke:#c44e52;stroke-opacity:0.8;" x="260.598086" xlink:href="#m493683d29b" y="514.119994"/>
     <use style="fill:#c44e52;fill-opacity:0.8;stroke:#c44e52;stroke-opacity:0.8;" x="276.542385" xlink:href="#m493683d29b" y="485.739906"/>
     <use style="fill:#c44e52;fill-opacity:0.8;stroke:#c44e52;stroke-opacity:0.8;" x="265.206385" xlink:href="#m493683d29b" y="457.359819"/>
     <use style="fill:#c44e52;fill-opacity:0.8;stroke:#c44e52;stroke-opacity:0.8;" x="315.360895" xlink:href="#m493683d29b" y="428.979731"/>
     <use style="fill:#c44e52;fill-opacity:0.8;stroke:#c44e52;stroke-opacity:0.8;" x="263.0819" xlink:href="#m493683d29b" y="400.599644"/>
     <use style="fill:#c44e52;fill-opacity:0.8;stroke:#c44e52;stroke-opacity:0.8;" x="267.078015" xlink:href="#m493683d29b" y="372.219556"/>
     <use style="fill:#c44e52;fill-opacity:0.8;stroke:#c44e52;stroke-opacity:0.8;" x="265.537019" xlink:href="#m493683d29b" y="343.839469"/>
     <use style="fill:#c44e52;fill-opacity:0.8;stroke:#c44e52;stroke-opacity:0.8;" x="261.216642" xlink:href="#m493683d29b" y="315.459381"/>
     <use style="fill:#c44e52;fill-opacity:0.8;stroke:#c44e52;stroke-opacity:0.8;" x="267.52308" xlink:href="#m493683d29b" y="287.079294"/>
     <use style="fill:#c44e52;fill-opacity:0.8;stroke:#c44e52;stroke-opacity:0.8;" x="260.324151" xlink:href="#m493683d29b" y="258.699206"/>
     <use style="fill:#c44e52;fill-opacity:0.8;stroke:#c44e52;stroke-opacity:0.8;" x="271.847848" xlink:href="#m493683d29b" y="230.319119"/>
     <use style="fill:#c44e52;fill-opacity:0.8;stroke:#c44e52;stroke-opacity:0.8;" x="260.989233" xlink:href="#m493683d29b" y="201.939031"/>
     <use style="fill:#c44e52;fill-opacity:0.8;stroke:#c44e52;stroke-opacity:0.8;" x="265.39889" xlink:href="#m493683d29b" y="173.558944"/>
     <use style="fill:#c44e52;fill-opacity:0.8;stroke:#c44e52;stroke-opacity:0.8;" x="295.29711" xlink:href="#m493683d29b" y="145.178856"/>
     <use style="fill:#c44e52;fill-opacity:0.8;stroke:#c44e52;stroke-opacity:0.8;" x="222.597811" xlink:href="#m493683d29b" y="116.798769"/>
     <use style="fill:#c44e52;fill-opacity:0.8;stroke:#c44e52;stroke-opacity:0.8;" x="273.682303" xlink:href="#m493683d29b" y="88.418681"/>
    </g>
   </g>
   <g id="PathCollection_4">
    <defs>
     <path d="M 0 6.123724 
C 1.624031 6.123724 3.181764 5.47849 4.330127 4.330127 
C 5.47849 3.181764 6.123724 1.624031 6.123724 0 
C 6.123724 -1.624031 5.47849 -3.181764 4.330127 -4.330127 
C 3.181764 -5.47849 1.624031 -6.123724 0 -6.123724 
C -1.624031 -6.123724 -3.181764 -5.47849 -4.330127 -4.330127 
C -5.47849 -3.181764 -6.123724 -1.624031 -6.123724 0 
C -6.123724 1.624031 -5.47849 3.181764 -4.330127 4.330127 
C -3.181764 5.47849 -1.624031 6.123724 0 6.123724 
z
" id="m16b126f5d7" style="stroke:#8172b2;stroke-opacity:0.8;"/>
    </defs>
    <g clip-path="url(#p65ba0803a2)">
     <use style="fill:#8172b2;fill-opacity:0.8;stroke:#8172b2;stroke-opacity:0.8;" x="190.037035" xlink:href="#m16b126f5d7" y="684.400519"/>
     <use style="fill:#8172b2;fill-opacity:0.8;stroke:#8172b2;stroke-opacity:0.8;" x="187.940319" xlink:href="#m16b126f5d7" y="656.020431"/>
     <use style="fill:#8172b2;fill-opacity:0.8;stroke:#8172b2;stroke-opacity:0.8;" x="173.068461" xlink:href="#m16b126f5d7" y="627.640344"/>
     <use style="fill:#8172b2;fill-opacity:0.8;stroke:#8172b2;stroke-opacity:0.8;" x="249.204698" xlink:href="#m16b126f5d7" y="599.260256"/>
     <use style="fill:#8172b2;fill-opacity:0.8;stroke:#8172b2;stroke-opacity:0.8;" x="263.095613" xlink:href="#m16b126f5d7" y="570.880169"/>
     <use style="fill:#8172b2;fill-opacity:0.8;stroke:#8172b2;stroke-opacity:0.8;" x="268.794601" xlink:href="#m16b126f5d7" y="542.500081"/>
     <use style="fill:#8172b2;fill-opacity:0.8;stroke:#8172b2;stroke-opacity:0.8;" x="274.881285" xlink:href="#m16b126f5d7" y="514.119994"/>
     <use style="fill:#8172b2;fill-opacity:0.8;stroke:#8172b2;stroke-opacity:0.8;" x="271.046527" xlink:href="#m16b126f5d7" y="485.739906"/>
     <use style="fill:#8172b2;fill-opacity:0.8;stroke:#8172b2;stroke-opacity:0.8;" x="265.656831" xlink:href="#m16b126f5d7" y="457.359819"/>
     <use style="fill:#8172b2;fill-opacity:0.8;stroke:#8172b2;stroke-opacity:0.8;" x="309.805474" xlink:href="#m16b126f5d7" y="428.979731"/>
     <use style="fill:#8172b2;fill-opacity:0.8;stroke:#8172b2;stroke-opacity:0.8;" x="269.57083" xlink:href="#m16b126f5d7" y="400.599644"/>
     <use style="fill:#8172b2;fill-opacity:0.8;stroke:#8172b2;stroke-opacity:0.8;" x="267.115106" xlink:href="#m16b126f5d7" y="372.219556"/>
     <use style="fill:#8172b2;fill-opacity:0.8;stroke:#8172b2;stroke-opacity:0.8;" x="268.824607" xlink:href="#m16b126f5d7" y="343.839469"/>
     <use style="fill:#8172b2;fill-opacity:0.8;stroke:#8172b2;stroke-opacity:0.8;" x="272.974044" xlink:href="#m16b126f5d7" y="315.459381"/>
     <use style="fill:#8172b2;fill-opacity:0.8;stroke:#8172b2;stroke-opacity:0.8;" x="270.744592" xlink:href="#m16b126f5d7" y="287.079294"/>
     <use style="fill:#8172b2;fill-opacity:0.8;stroke:#8172b2;stroke-opacity:0.8;" x="259.098851" xlink:href="#m16b126f5d7" y="258.699206"/>
     <use style="fill:#8172b2;fill-opacity:0.8;stroke:#8172b2;stroke-opacity:0.8;" x="267.409271" xlink:href="#m16b126f5d7" y="230.319119"/>
     <use style="fill:#8172b2;fill-opacity:0.8;stroke:#8172b2;stroke-opacity:0.8;" x="264.878822" xlink:href="#m16b126f5d7" y="201.939031"/>
     <use style="fill:#8172b2;fill-opacity:0.8;stroke:#8172b2;stroke-opacity:0.8;" x="271.860911" xlink:href="#m16b126f5d7" y="173.558944"/>
     <use style="fill:#8172b2;fill-opacity:0.8;stroke:#8172b2;stroke-opacity:0.8;" x="297.095606" xlink:href="#m16b126f5d7" y="145.178856"/>
     <use style="fill:#8172b2;fill-opacity:0.8;stroke:#8172b2;stroke-opacity:0.8;" x="236.662229" xlink:href="#m16b126f5d7" y="116.798769"/>
     <use style="fill:#8172b2;fill-opacity:0.8;stroke:#8172b2;stroke-opacity:0.8;" x="286.027694" xlink:href="#m16b126f5d7" y="88.418681"/>
    </g>
   </g>
   <g id="PathCollection_5">
    <defs>
     <path d="M 0 6.123724 
C 1.624031 6.123724 3.181764 5.47849 4.330127 4.330127 
C 5.47849 3.181764 6.123724 1.624031 6.123724 0 
C 6.123724 -1.624031 5.47849 -3.181764 4.330127 -4.330127 
C 3.181764 -5.47849 1.624031 -6.123724 0 -6.123724 
C -1.624031 -6.123724 -3.181764 -5.47849 -4.330127 -4.330127 
C -5.47849 -3.181764 -6.123724 -1.624031 -6.123724 0 
C -6.123724 1.624031 -5.47849 3.181764 -4.330127 4.330127 
C -3.181764 5.47849 -1.624031 6.123724 0 6.123724 
z
" id="m075de9e3e3" style="stroke:#ccb974;stroke-opacity:0.8;"/>
    </defs>
    <g clip-path="url(#p65ba0803a2)">
     <use style="fill:#ccb974;fill-opacity:0.8;stroke:#ccb974;stroke-opacity:0.8;" x="190.317964" xlink:href="#m075de9e3e3" y="684.400519"/>
     <use style="fill:#ccb974;fill-opacity:0.8;stroke:#ccb974;stroke-opacity:0.8;" x="189.765197" xlink:href="#m075de9e3e3" y="656.020431"/>
     <use style="fill:#ccb974;fill-opacity:0.8;stroke:#ccb974;stroke-opacity:0.8;" x="173.054121" xlink:href="#m075de9e3e3" y="627.640344"/>
     <use style="fill:#ccb974;fill-opacity:0.8;stroke:#ccb974;stroke-opacity:0.8;" x="255.58982" xlink:href="#m075de9e3e3" y="599.260256"/>
     <use style="fill:#ccb974;fill-opacity:0.8;stroke:#ccb974;stroke-opacity:0.8;" x="265.533053" xlink:href="#m075de9e3e3" y="570.880169"/>
     <use style="fill:#ccb974;fill-opacity:0.8;stroke:#ccb974;stroke-opacity:0.8;" x="268.536531" xlink:href="#m075de9e3e3" y="542.500081"/>
     <use style="fill:#ccb974;fill-opacity:0.8;stroke:#ccb974;stroke-opacity:0.8;" x="264.0519" xlink:href="#m075de9e3e3" y="514.119994"/>
     <use style="fill:#ccb974;fill-opacity:0.8;stroke:#ccb974;stroke-opacity:0.8;" x="268.859207" xlink:href="#m075de9e3e3" y="485.739906"/>
     <use style="fill:#ccb974;fill-opacity:0.8;stroke:#ccb974;stroke-opacity:0.8;" x="270.395355" xlink:href="#m075de9e3e3" y="457.359819"/>
     <use style="fill:#ccb974;fill-opacity:0.8;stroke:#ccb974;stroke-opacity:0.8;" x="312.304857" xlink:href="#m075de9e3e3" y="428.979731"/>
     <use style="fill:#ccb974;fill-opacity:0.8;stroke:#ccb974;stroke-opacity:0.8;" x="262.67865" xlink:href="#m075de9e3e3" y="400.599644"/>
     <use style="fill:#ccb974;fill-opacity:0.8;stroke:#ccb974;stroke-opacity:0.8;" x="266.744635" xlink:href="#m075de9e3e3" y="372.219556"/>
     <use style="fill:#ccb974;fill-opacity:0.8;stroke:#ccb974;stroke-opacity:0.8;" x="268.056076" xlink:href="#m075de9e3e3" y="343.839469"/>
     <use style="fill:#ccb974;fill-opacity:0.8;stroke:#ccb974;stroke-opacity:0.8;" x="265.56282" xlink:href="#m075de9e3e3" y="315.459381"/>
     <use style="fill:#ccb974;fill-opacity:0.8;stroke:#ccb974;stroke-opacity:0.8;" x="267.683794" xlink:href="#m075de9e3e3" y="287.079294"/>
     <use style="fill:#ccb974;fill-opacity:0.8;stroke:#ccb974;stroke-opacity:0.8;" x="258.479991" xlink:href="#m075de9e3e3" y="258.699206"/>
     <use style="fill:#ccb974;fill-opacity:0.8;stroke:#ccb974;stroke-opacity:0.8;" x="267.444032" xlink:href="#m075de9e3e3" y="230.319119"/>
     <use style="fill:#ccb974;fill-opacity:0.8;stroke:#ccb974;stroke-opacity:0.8;" x="269.336778" xlink:href="#m075de9e3e3" y="201.939031"/>
     <use style="fill:#ccb974;fill-opacity:0.8;stroke:#ccb974;stroke-opacity:0.8;" x="271.56002" xlink:href="#m075de9e3e3" y="173.558944"/>
     <use style="fill:#ccb974;fill-opacity:0.8;stroke:#ccb974;stroke-opacity:0.8;" x="296.107244" xlink:href="#m075de9e3e3" y="145.178856"/>
     <use style="fill:#ccb974;fill-opacity:0.8;stroke:#ccb974;stroke-opacity:0.8;" x="232.476016" xlink:href="#m075de9e3e3" y="116.798769"/>
     <use style="fill:#ccb974;fill-opacity:0.8;stroke:#ccb974;stroke-opacity:0.8;" x="279.807686" xlink:href="#m075de9e3e3" y="88.418681"/>
    </g>
   </g>
   <g id="matplotlib.axis_1">
    <g id="xtick_1">
     <g id="line2d_1">
      <defs>
       <path d="M 0 0 
L 0 3.5 
" id="mae46b7927f" style="stroke:#000000;stroke-width:0.8;"/>
      </defs>
      <g>
       <use style="stroke:#000000;stroke-width:0.8;" x="163.003113" xlink:href="#mae46b7927f" y="719.0496"/>
      </g>
     </g>
     <g id="text_1">
      <!-- 0.0 -->
      <defs>
       <path d="M 31.78125 66.40625 
Q 24.171875 66.40625 20.328125 58.90625 
Q 16.5 51.421875 16.5 36.375 
Q 16.5 21.390625 20.328125 13.890625 
Q 24.171875 6.390625 31.78125 6.390625 
Q 39.453125 6.390625 43.28125 13.890625 
Q 47.125 21.390625 47.125 36.375 
Q 47.125 51.421875 43.28125 58.90625 
Q 39.453125 66.40625 31.78125 66.40625 
z
M 31.78125 74.21875 
Q 44.046875 74.21875 50.515625 64.515625 
Q 56.984375 54.828125 56.984375 36.375 
Q 56.984375 17.96875 50.515625 8.265625 
Q 44.046875 -1.421875 31.78125 -1.421875 
Q 19.53125 -1.421875 13.0625 8.265625 
Q 6.59375 17.96875 6.59375 36.375 
Q 6.59375 54.828125 13.0625 64.515625 
Q 19.53125 74.21875 31.78125 74.21875 
z
" id="DejaVuSans-48"/>
       <path d="M 10.6875 12.40625 
L 21 12.40625 
L 21 0 
L 10.6875 0 
z
" id="DejaVuSans-46"/>
      </defs>
      <g transform="translate(151.07577 737.447256)scale(0.15 -0.15)">
       <use xlink:href="#DejaVuSans-48"/>
       <use x="63.623047" xlink:href="#DejaVuSans-46"/>
       <use x="95.410156" xlink:href="#DejaVuSans-48"/>
      </g>
     </g>
    </g>
    <g id="xtick_2">
     <g id="line2d_2">
      <g>
       <use style="stroke:#000000;stroke-width:0.8;" x="215.168622" xlink:href="#mae46b7927f" y="719.0496"/>
      </g>
     </g>
     <g id="text_2">
      <!-- 0.5 -->
      <defs>
       <path d="M 10.796875 72.90625 
L 49.515625 72.90625 
L 49.515625 64.59375 
L 19.828125 64.59375 
L 19.828125 46.734375 
Q 21.96875 47.46875 24.109375 47.828125 
Q 26.265625 48.1875 28.421875 48.1875 
Q 40.625 48.1875 47.75 41.5 
Q 54.890625 34.8125 54.890625 23.390625 
Q 54.890625 11.625 47.5625 5.09375 
Q 40.234375 -1.421875 26.90625 -1.421875 
Q 22.3125 -1.421875 17.546875 -0.640625 
Q 12.796875 0.140625 7.71875 1.703125 
L 7.71875 11.625 
Q 12.109375 9.234375 16.796875 8.0625 
Q 21.484375 6.890625 26.703125 6.890625 
Q 35.15625 6.890625 40.078125 11.328125 
Q 45.015625 15.765625 45.015625 23.390625 
Q 45.015625 31 40.078125 35.4375 
Q 35.15625 39.890625 26.703125 39.890625 
Q 22.75 39.890625 18.8125 39.015625 
Q 14.890625 38.140625 10.796875 36.28125 
z
" id="DejaVuSans-53"/>
      </defs>
      <g transform="translate(203.241278 737.447256)scale(0.15 -0.15)">
       <use xlink:href="#DejaVuSans-48"/>
       <use x="63.623047" xlink:href="#DejaVuSans-46"/>
       <use x="95.410156" xlink:href="#DejaVuSans-53"/>
      </g>
     </g>
    </g>
    <g id="xtick_3">
     <g id="line2d_3">
      <g>
       <use style="stroke:#000000;stroke-width:0.8;" x="267.33413" xlink:href="#mae46b7927f" y="719.0496"/>
      </g>
     </g>
     <g id="text_3">
      <!-- 1.0 -->
      <defs>
       <path d="M 12.40625 8.296875 
L 28.515625 8.296875 
L 28.515625 63.921875 
L 10.984375 60.40625 
L 10.984375 69.390625 
L 28.421875 72.90625 
L 38.28125 72.90625 
L 38.28125 8.296875 
L 54.390625 8.296875 
L 54.390625 0 
L 12.40625 0 
z
" id="DejaVuSans-49"/>
      </defs>
      <g transform="translate(255.406786 737.447256)scale(0.15 -0.15)">
       <use xlink:href="#DejaVuSans-49"/>
       <use x="63.623047" xlink:href="#DejaVuSans-46"/>
       <use x="95.410156" xlink:href="#DejaVuSans-48"/>
      </g>
     </g>
    </g>
    <g id="xtick_4">
     <g id="line2d_4">
      <g>
       <use style="stroke:#000000;stroke-width:0.8;" x="319.499638" xlink:href="#mae46b7927f" y="719.0496"/>
      </g>
     </g>
     <g id="text_4">
      <!-- 1.5 -->
      <g transform="translate(307.572294 737.447256)scale(0.15 -0.15)">
       <use xlink:href="#DejaVuSans-49"/>
       <use x="63.623047" xlink:href="#DejaVuSans-46"/>
       <use x="95.410156" xlink:href="#DejaVuSans-53"/>
      </g>
     </g>
    </g>
    <g id="text_5">
     <!-- Scaled values -->
     <defs>
      <path d="M 53.515625 70.515625 
L 53.515625 60.890625 
Q 47.90625 63.578125 42.921875 64.890625 
Q 37.9375 66.21875 33.296875 66.21875 
Q 25.25 66.21875 20.875 63.09375 
Q 16.5 59.96875 16.5 54.203125 
Q 16.5 49.359375 19.40625 46.890625 
Q 22.3125 44.4375 30.421875 42.921875 
L 36.375 41.703125 
Q 47.40625 39.59375 52.65625 34.296875 
Q 57.90625 29 57.90625 20.125 
Q 57.90625 9.515625 50.796875 4.046875 
Q 43.703125 -1.421875 29.984375 -1.421875 
Q 24.8125 -1.421875 18.96875 -0.25 
Q 13.140625 0.921875 6.890625 3.21875 
L 6.890625 13.375 
Q 12.890625 10.015625 18.65625 8.296875 
Q 24.421875 6.59375 29.984375 6.59375 
Q 38.421875 6.59375 43.015625 9.90625 
Q 47.609375 13.234375 47.609375 19.390625 
Q 47.609375 24.75 44.3125 27.78125 
Q 41.015625 30.8125 33.5 32.328125 
L 27.484375 33.5 
Q 16.453125 35.6875 11.515625 40.375 
Q 6.59375 45.0625 6.59375 53.421875 
Q 6.59375 63.09375 13.40625 68.65625 
Q 20.21875 74.21875 32.171875 74.21875 
Q 37.3125 74.21875 42.625 73.28125 
Q 47.953125 72.359375 53.515625 70.515625 
z
" id="DejaVuSans-83"/>
      <path d="M 48.78125 52.59375 
L 48.78125 44.1875 
Q 44.96875 46.296875 41.140625 47.34375 
Q 37.3125 48.390625 33.40625 48.390625 
Q 24.65625 48.390625 19.8125 42.84375 
Q 14.984375 37.3125 14.984375 27.296875 
Q 14.984375 17.28125 19.8125 11.734375 
Q 24.65625 6.203125 33.40625 6.203125 
Q 37.3125 6.203125 41.140625 7.25 
Q 44.96875 8.296875 48.78125 10.40625 
L 48.78125 2.09375 
Q 45.015625 0.34375 40.984375 -0.53125 
Q 36.96875 -1.421875 32.421875 -1.421875 
Q 20.0625 -1.421875 12.78125 6.34375 
Q 5.515625 14.109375 5.515625 27.296875 
Q 5.515625 40.671875 12.859375 48.328125 
Q 20.21875 56 33.015625 56 
Q 37.15625 56 41.109375 55.140625 
Q 45.0625 54.296875 48.78125 52.59375 
z
" id="DejaVuSans-99"/>
      <path d="M 34.28125 27.484375 
Q 23.390625 27.484375 19.1875 25 
Q 14.984375 22.515625 14.984375 16.5 
Q 14.984375 11.71875 18.140625 8.90625 
Q 21.296875 6.109375 26.703125 6.109375 
Q 34.1875 6.109375 38.703125 11.40625 
Q 43.21875 16.703125 43.21875 25.484375 
L 43.21875 27.484375 
z
M 52.203125 31.203125 
L 52.203125 0 
L 43.21875 0 
L 43.21875 8.296875 
Q 40.140625 3.328125 35.546875 0.953125 
Q 30.953125 -1.421875 24.3125 -1.421875 
Q 15.921875 -1.421875 10.953125 3.296875 
Q 6 8.015625 6 15.921875 
Q 6 25.140625 12.171875 29.828125 
Q 18.359375 34.515625 30.609375 34.515625 
L 43.21875 34.515625 
L 43.21875 35.40625 
Q 43.21875 41.609375 39.140625 45 
Q 35.0625 48.390625 27.6875 48.390625 
Q 23 48.390625 18.546875 47.265625 
Q 14.109375 46.140625 10.015625 43.890625 
L 10.015625 52.203125 
Q 14.9375 54.109375 19.578125 55.046875 
Q 24.21875 56 28.609375 56 
Q 40.484375 56 46.34375 49.84375 
Q 52.203125 43.703125 52.203125 31.203125 
z
" id="DejaVuSans-97"/>
      <path d="M 9.421875 75.984375 
L 18.40625 75.984375 
L 18.40625 0 
L 9.421875 0 
z
" id="DejaVuSans-108"/>
      <path d="M 56.203125 29.59375 
L 56.203125 25.203125 
L 14.890625 25.203125 
Q 15.484375 15.921875 20.484375 11.0625 
Q 25.484375 6.203125 34.421875 6.203125 
Q 39.59375 6.203125 44.453125 7.46875 
Q 49.3125 8.734375 54.109375 11.28125 
L 54.109375 2.78125 
Q 49.265625 0.734375 44.1875 -0.34375 
Q 39.109375 -1.421875 33.890625 -1.421875 
Q 20.796875 -1.421875 13.15625 6.1875 
Q 5.515625 13.8125 5.515625 26.8125 
Q 5.515625 40.234375 12.765625 48.109375 
Q 20.015625 56 32.328125 56 
Q 43.359375 56 49.78125 48.890625 
Q 56.203125 41.796875 56.203125 29.59375 
z
M 47.21875 32.234375 
Q 47.125 39.59375 43.09375 43.984375 
Q 39.0625 48.390625 32.421875 48.390625 
Q 24.90625 48.390625 20.390625 44.140625 
Q 15.875 39.890625 15.1875 32.171875 
z
" id="DejaVuSans-101"/>
      <path d="M 45.40625 46.390625 
L 45.40625 75.984375 
L 54.390625 75.984375 
L 54.390625 0 
L 45.40625 0 
L 45.40625 8.203125 
Q 42.578125 3.328125 38.25 0.953125 
Q 33.9375 -1.421875 27.875 -1.421875 
Q 17.96875 -1.421875 11.734375 6.484375 
Q 5.515625 14.40625 5.515625 27.296875 
Q 5.515625 40.1875 11.734375 48.09375 
Q 17.96875 56 27.875 56 
Q 33.9375 56 38.25 53.625 
Q 42.578125 51.265625 45.40625 46.390625 
z
M 14.796875 27.296875 
Q 14.796875 17.390625 18.875 11.75 
Q 22.953125 6.109375 30.078125 6.109375 
Q 37.203125 6.109375 41.296875 11.75 
Q 45.40625 17.390625 45.40625 27.296875 
Q 45.40625 37.203125 41.296875 42.84375 
Q 37.203125 48.484375 30.078125 48.484375 
Q 22.953125 48.484375 18.875 42.84375 
Q 14.796875 37.203125 14.796875 27.296875 
z
" id="DejaVuSans-100"/>
      <path id="DejaVuSans-32"/>
      <path d="M 2.984375 54.6875 
L 12.5 54.6875 
L 29.59375 8.796875 
L 46.6875 54.6875 
L 56.203125 54.6875 
L 35.6875 0 
L 23.484375 0 
z
" id="DejaVuSans-118"/>
      <path d="M 8.5 21.578125 
L 8.5 54.6875 
L 17.484375 54.6875 
L 17.484375 21.921875 
Q 17.484375 14.15625 20.5 10.265625 
Q 23.53125 6.390625 29.59375 6.390625 
Q 36.859375 6.390625 41.078125 11.03125 
Q 45.3125 15.671875 45.3125 23.6875 
L 45.3125 54.6875 
L 54.296875 54.6875 
L 54.296875 0 
L 45.3125 0 
L 45.3125 8.40625 
Q 42.046875 3.421875 37.71875 1 
Q 33.40625 -1.421875 27.6875 -1.421875 
Q 18.265625 -1.421875 13.375 4.4375 
Q 8.5 10.296875 8.5 21.578125 
z
M 31.109375 56 
z
" id="DejaVuSans-117"/>
      <path d="M 44.28125 53.078125 
L 44.28125 44.578125 
Q 40.484375 46.53125 36.375 47.5 
Q 32.28125 48.484375 27.875 48.484375 
Q 21.1875 48.484375 17.84375 46.4375 
Q 14.5 44.390625 14.5 40.28125 
Q 14.5 37.15625 16.890625 35.375 
Q 19.28125 33.59375 26.515625 31.984375 
L 29.59375 31.296875 
Q 39.15625 29.25 43.1875 25.515625 
Q 47.21875 21.78125 47.21875 15.09375 
Q 47.21875 7.46875 41.1875 3.015625 
Q 35.15625 -1.421875 24.609375 -1.421875 
Q 20.21875 -1.421875 15.453125 -0.5625 
Q 10.6875 0.296875 5.421875 2 
L 5.421875 11.28125 
Q 10.40625 8.6875 15.234375 7.390625 
Q 20.0625 6.109375 24.8125 6.109375 
Q 31.15625 6.109375 34.5625 8.28125 
Q 37.984375 10.453125 37.984375 14.40625 
Q 37.984375 18.0625 35.515625 20.015625 
Q 33.0625 21.96875 24.703125 23.78125 
L 21.578125 24.515625 
Q 13.234375 26.265625 9.515625 29.90625 
Q 5.8125 33.546875 5.8125 39.890625 
Q 5.8125 47.609375 11.28125 51.796875 
Q 16.75 56 26.8125 56 
Q 31.78125 56 36.171875 55.265625 
Q 40.578125 54.546875 44.28125 53.078125 
z
" id="DejaVuSans-115"/>
     </defs>
     <g transform="translate(184.989766 757.484131)scale(0.17 -0.17)">
      <use xlink:href="#DejaVuSans-83"/>
      <use x="63.476562" xlink:href="#DejaVuSans-99"/>
      <use x="118.457031" xlink:href="#DejaVuSans-97"/>
      <use x="179.736328" xlink:href="#DejaVuSans-108"/>
      <use x="207.519531" xlink:href="#DejaVuSans-101"/>
      <use x="269.042969" xlink:href="#DejaVuSans-100"/>
      <use x="332.519531" xlink:href="#DejaVuSans-32"/>
      <use x="364.306641" xlink:href="#DejaVuSans-118"/>
      <use x="423.486328" xlink:href="#DejaVuSans-97"/>
      <use x="484.765625" xlink:href="#DejaVuSans-108"/>
      <use x="512.548828" xlink:href="#DejaVuSans-117"/>
      <use x="575.927734" xlink:href="#DejaVuSans-101"/>
      <use x="637.451172" xlink:href="#DejaVuSans-115"/>
     </g>
    </g>
   </g>
   <g id="matplotlib.axis_2">
    <g id="ytick_1">
     <g id="line2d_5">
      <defs>
       <path d="M 0 0 
L -3.5 0 
" id="mc290026afd" style="stroke:#000000;stroke-width:0.8;"/>
      </defs>
      <g>
       <use style="stroke:#000000;stroke-width:0.8;" x="159.903906" xlink:href="#mc290026afd" y="684.400519"/>
      </g>
     </g>
     <g id="text_6">
      <!-- ALP_M_n -->
      <defs>
       <path d="M 34.1875 63.1875 
L 20.796875 26.90625 
L 47.609375 26.90625 
z
M 28.609375 72.90625 
L 39.796875 72.90625 
L 67.578125 0 
L 57.328125 0 
L 50.6875 18.703125 
L 17.828125 18.703125 
L 11.1875 0 
L 0.78125 0 
z
" id="DejaVuSans-65"/>
       <path d="M 9.8125 72.90625 
L 19.671875 72.90625 
L 19.671875 8.296875 
L 55.171875 8.296875 
L 55.171875 0 
L 9.8125 0 
z
" id="DejaVuSans-76"/>
       <path d="M 19.671875 64.796875 
L 19.671875 37.40625 
L 32.078125 37.40625 
Q 38.96875 37.40625 42.71875 40.96875 
Q 46.484375 44.53125 46.484375 51.125 
Q 46.484375 57.671875 42.71875 61.234375 
Q 38.96875 64.796875 32.078125 64.796875 
z
M 9.8125 72.90625 
L 32.078125 72.90625 
Q 44.34375 72.90625 50.609375 67.359375 
Q 56.890625 61.8125 56.890625 51.125 
Q 56.890625 40.328125 50.609375 34.8125 
Q 44.34375 29.296875 32.078125 29.296875 
L 19.671875 29.296875 
L 19.671875 0 
L 9.8125 0 
z
" id="DejaVuSans-80"/>
       <path d="M 50.984375 -16.609375 
L 50.984375 -23.578125 
L -0.984375 -23.578125 
L -0.984375 -16.609375 
z
" id="DejaVuSans-95"/>
       <path d="M 9.8125 72.90625 
L 24.515625 72.90625 
L 43.109375 23.296875 
L 61.8125 72.90625 
L 76.515625 72.90625 
L 76.515625 0 
L 66.890625 0 
L 66.890625 64.015625 
L 48.09375 14.015625 
L 38.1875 14.015625 
L 19.390625 64.015625 
L 19.390625 0 
L 9.8125 0 
z
" id="DejaVuSans-77"/>
       <path d="M 54.890625 33.015625 
L 54.890625 0 
L 45.90625 0 
L 45.90625 32.71875 
Q 45.90625 40.484375 42.875 44.328125 
Q 39.84375 48.1875 33.796875 48.1875 
Q 26.515625 48.1875 22.3125 43.546875 
Q 18.109375 38.921875 18.109375 30.90625 
L 18.109375 0 
L 9.078125 0 
L 9.078125 54.6875 
L 18.109375 54.6875 
L 18.109375 46.1875 
Q 21.34375 51.125 25.703125 53.5625 
Q 30.078125 56 35.796875 56 
Q 45.21875 56 50.046875 50.171875 
Q 54.890625 44.34375 54.890625 33.015625 
z
" id="DejaVuSans-110"/>
      </defs>
      <g transform="translate(87.792187 689.890753)scale(0.15 -0.15)">
       <use xlink:href="#DejaVuSans-65"/>
       <use x="68.408203" xlink:href="#DejaVuSans-76"/>
       <use x="124.121094" xlink:href="#DejaVuSans-80"/>
       <use x="184.423828" xlink:href="#DejaVuSans-95"/>
       <use x="234.423828" xlink:href="#DejaVuSans-77"/>
       <use x="320.703125" xlink:href="#DejaVuSans-95"/>
       <use x="370.703125" xlink:href="#DejaVuSans-110"/>
      </g>
     </g>
    </g>
    <g id="ytick_2">
     <g id="line2d_6">
      <g>
       <use style="stroke:#000000;stroke-width:0.8;" x="159.903906" xlink:href="#mc290026afd" y="656.020431"/>
      </g>
     </g>
     <g id="text_7">
      <!-- ARS_M_n -->
      <defs>
       <path d="M 44.390625 34.1875 
Q 47.5625 33.109375 50.5625 29.59375 
Q 53.5625 26.078125 56.59375 19.921875 
L 66.609375 0 
L 56 0 
L 46.6875 18.703125 
Q 43.0625 26.03125 39.671875 28.421875 
Q 36.28125 30.8125 30.421875 30.8125 
L 19.671875 30.8125 
L 19.671875 0 
L 9.8125 0 
L 9.8125 72.90625 
L 32.078125 72.90625 
Q 44.578125 72.90625 50.734375 67.671875 
Q 56.890625 62.453125 56.890625 51.90625 
Q 56.890625 45.015625 53.6875 40.46875 
Q 50.484375 35.9375 44.390625 34.1875 
z
M 19.671875 64.796875 
L 19.671875 38.921875 
L 32.078125 38.921875 
Q 39.203125 38.921875 42.84375 42.21875 
Q 46.484375 45.515625 46.484375 51.90625 
Q 46.484375 58.296875 42.84375 61.546875 
Q 39.203125 64.796875 32.078125 64.796875 
z
" id="DejaVuSans-82"/>
      </defs>
      <g transform="translate(85.249219 661.586837)scale(0.15 -0.15)">
       <use xlink:href="#DejaVuSans-65"/>
       <use x="68.408203" xlink:href="#DejaVuSans-82"/>
       <use x="137.890625" xlink:href="#DejaVuSans-83"/>
       <use x="201.367188" xlink:href="#DejaVuSans-95"/>
       <use x="251.367188" xlink:href="#DejaVuSans-77"/>
       <use x="337.646484" xlink:href="#DejaVuSans-95"/>
       <use x="387.646484" xlink:href="#DejaVuSans-110"/>
      </g>
     </g>
    </g>
    <g id="ytick_3">
     <g id="line2d_7">
      <g>
       <use style="stroke:#000000;stroke-width:0.8;" x="159.903906" xlink:href="#mc290026afd" y="627.640344"/>
      </g>
     </g>
     <g id="text_8">
      <!-- ALP_0 -->
      <g transform="translate(108.196875 633.20675)scale(0.15 -0.15)">
       <use xlink:href="#DejaVuSans-65"/>
       <use x="68.408203" xlink:href="#DejaVuSans-76"/>
       <use x="124.121094" xlink:href="#DejaVuSans-80"/>
       <use x="184.423828" xlink:href="#DejaVuSans-95"/>
       <use x="234.423828" xlink:href="#DejaVuSans-48"/>
      </g>
     </g>
    </g>
    <g id="ytick_4">
     <g id="line2d_8">
      <g>
       <use style="stroke:#000000;stroke-width:0.8;" x="159.903906" xlink:href="#mc290026afd" y="599.260256"/>
      </g>
     </g>
     <g id="text_9">
      <!-- ARS_0 -->
      <g transform="translate(105.653906 604.826662)scale(0.15 -0.15)">
       <use xlink:href="#DejaVuSans-65"/>
       <use x="68.408203" xlink:href="#DejaVuSans-82"/>
       <use x="137.890625" xlink:href="#DejaVuSans-83"/>
       <use x="201.367188" xlink:href="#DejaVuSans-95"/>
       <use x="251.367188" xlink:href="#DejaVuSans-48"/>
      </g>
     </g>
    </g>
    <g id="ytick_5">
     <g id="line2d_9">
      <g>
       <use style="stroke:#000000;stroke-width:0.8;" x="159.903906" xlink:href="#mc290026afd" y="570.880169"/>
      </g>
     </g>
     <g id="text_10">
      <!-- Mg_stim -->
      <defs>
       <path d="M 45.40625 27.984375 
Q 45.40625 37.75 41.375 43.109375 
Q 37.359375 48.484375 30.078125 48.484375 
Q 22.859375 48.484375 18.828125 43.109375 
Q 14.796875 37.75 14.796875 27.984375 
Q 14.796875 18.265625 18.828125 12.890625 
Q 22.859375 7.515625 30.078125 7.515625 
Q 37.359375 7.515625 41.375 12.890625 
Q 45.40625 18.265625 45.40625 27.984375 
z
M 54.390625 6.78125 
Q 54.390625 -7.171875 48.1875 -13.984375 
Q 42 -20.796875 29.203125 -20.796875 
Q 24.46875 -20.796875 20.265625 -20.09375 
Q 16.0625 -19.390625 12.109375 -17.921875 
L 12.109375 -9.1875 
Q 16.0625 -11.328125 19.921875 -12.34375 
Q 23.78125 -13.375 27.78125 -13.375 
Q 36.625 -13.375 41.015625 -8.765625 
Q 45.40625 -4.15625 45.40625 5.171875 
L 45.40625 9.625 
Q 42.625 4.78125 38.28125 2.390625 
Q 33.9375 0 27.875 0 
Q 17.828125 0 11.671875 7.65625 
Q 5.515625 15.328125 5.515625 27.984375 
Q 5.515625 40.671875 11.671875 48.328125 
Q 17.828125 56 27.875 56 
Q 33.9375 56 38.28125 53.609375 
Q 42.625 51.21875 45.40625 46.390625 
L 45.40625 54.6875 
L 54.390625 54.6875 
z
" id="DejaVuSans-103"/>
       <path d="M 18.3125 70.21875 
L 18.3125 54.6875 
L 36.8125 54.6875 
L 36.8125 47.703125 
L 18.3125 47.703125 
L 18.3125 18.015625 
Q 18.3125 11.328125 20.140625 9.421875 
Q 21.96875 7.515625 27.59375 7.515625 
L 36.8125 7.515625 
L 36.8125 0 
L 27.59375 0 
Q 17.1875 0 13.234375 3.875 
Q 9.28125 7.765625 9.28125 18.015625 
L 9.28125 47.703125 
L 2.6875 47.703125 
L 2.6875 54.6875 
L 9.28125 54.6875 
L 9.28125 70.21875 
z
" id="DejaVuSans-116"/>
       <path d="M 9.421875 54.6875 
L 18.40625 54.6875 
L 18.40625 0 
L 9.421875 0 
z
M 9.421875 75.984375 
L 18.40625 75.984375 
L 18.40625 64.59375 
L 9.421875 64.59375 
z
" id="DejaVuSans-105"/>
       <path d="M 52 44.1875 
Q 55.375 50.25 60.0625 53.125 
Q 64.75 56 71.09375 56 
Q 79.640625 56 84.28125 50.015625 
Q 88.921875 44.046875 88.921875 33.015625 
L 88.921875 0 
L 79.890625 0 
L 79.890625 32.71875 
Q 79.890625 40.578125 77.09375 44.375 
Q 74.3125 48.1875 68.609375 48.1875 
Q 61.625 48.1875 57.5625 43.546875 
Q 53.515625 38.921875 53.515625 30.90625 
L 53.515625 0 
L 44.484375 0 
L 44.484375 32.71875 
Q 44.484375 40.625 41.703125 44.40625 
Q 38.921875 48.1875 33.109375 48.1875 
Q 26.21875 48.1875 22.15625 43.53125 
Q 18.109375 38.875 18.109375 30.90625 
L 18.109375 0 
L 9.078125 0 
L 9.078125 54.6875 
L 18.109375 54.6875 
L 18.109375 46.1875 
Q 21.1875 51.21875 25.484375 53.609375 
Q 29.78125 56 35.6875 56 
Q 41.65625 56 45.828125 52.96875 
Q 50 49.953125 52 44.1875 
z
" id="DejaVuSans-109"/>
      </defs>
      <g transform="translate(90.466406 576.578997)scale(0.15 -0.15)">
       <use xlink:href="#DejaVuSans-77"/>
       <use x="86.279297" xlink:href="#DejaVuSans-103"/>
       <use x="149.755859" xlink:href="#DejaVuSans-95"/>
       <use x="199.755859" xlink:href="#DejaVuSans-115"/>
       <use x="251.855469" xlink:href="#DejaVuSans-116"/>
       <use x="291.064453" xlink:href="#DejaVuSans-105"/>
       <use x="318.847656" xlink:href="#DejaVuSans-109"/>
      </g>
     </g>
    </g>
    <g id="ytick_6">
     <g id="line2d_10">
      <g>
       <use style="stroke:#000000;stroke-width:0.8;" x="159.903906" xlink:href="#mc290026afd" y="542.500081"/>
      </g>
     </g>
     <g id="text_11">
      <!-- Mg_dest -->
      <g transform="translate(90.492187 548.198909)scale(0.15 -0.15)">
       <use xlink:href="#DejaVuSans-77"/>
       <use x="86.279297" xlink:href="#DejaVuSans-103"/>
       <use x="149.755859" xlink:href="#DejaVuSans-95"/>
       <use x="199.755859" xlink:href="#DejaVuSans-100"/>
       <use x="263.232422" xlink:href="#DejaVuSans-101"/>
       <use x="324.755859" xlink:href="#DejaVuSans-115"/>
       <use x="376.855469" xlink:href="#DejaVuSans-116"/>
      </g>
     </g>
    </g>
    <g id="ytick_7">
     <g id="line2d_11">
      <g>
       <use style="stroke:#000000;stroke-width:0.8;" x="159.903906" xlink:href="#mc290026afd" y="514.119994"/>
      </g>
     </g>
     <g id="text_12">
      <!-- IL1b_ineffective -->
      <defs>
       <path d="M 9.8125 72.90625 
L 19.671875 72.90625 
L 19.671875 0 
L 9.8125 0 
z
" id="DejaVuSans-73"/>
       <path d="M 48.6875 27.296875 
Q 48.6875 37.203125 44.609375 42.84375 
Q 40.53125 48.484375 33.40625 48.484375 
Q 26.265625 48.484375 22.1875 42.84375 
Q 18.109375 37.203125 18.109375 27.296875 
Q 18.109375 17.390625 22.1875 11.75 
Q 26.265625 6.109375 33.40625 6.109375 
Q 40.53125 6.109375 44.609375 11.75 
Q 48.6875 17.390625 48.6875 27.296875 
z
M 18.109375 46.390625 
Q 20.953125 51.265625 25.265625 53.625 
Q 29.59375 56 35.59375 56 
Q 45.5625 56 51.78125 48.09375 
Q 58.015625 40.1875 58.015625 27.296875 
Q 58.015625 14.40625 51.78125 6.484375 
Q 45.5625 -1.421875 35.59375 -1.421875 
Q 29.59375 -1.421875 25.265625 0.953125 
Q 20.953125 3.328125 18.109375 8.203125 
L 18.109375 0 
L 9.078125 0 
L 9.078125 75.984375 
L 18.109375 75.984375 
z
" id="DejaVuSans-98"/>
       <path d="M 37.109375 75.984375 
L 37.109375 68.5 
L 28.515625 68.5 
Q 23.6875 68.5 21.796875 66.546875 
Q 19.921875 64.59375 19.921875 59.515625 
L 19.921875 54.6875 
L 34.71875 54.6875 
L 34.71875 47.703125 
L 19.921875 47.703125 
L 19.921875 0 
L 10.890625 0 
L 10.890625 47.703125 
L 2.296875 47.703125 
L 2.296875 54.6875 
L 10.890625 54.6875 
L 10.890625 58.5 
Q 10.890625 67.625 15.140625 71.796875 
Q 19.390625 75.984375 28.609375 75.984375 
z
" id="DejaVuSans-102"/>
      </defs>
      <g transform="translate(34.457812 519.818822)scale(0.15 -0.15)">
       <use xlink:href="#DejaVuSans-73"/>
       <use x="29.492188" xlink:href="#DejaVuSans-76"/>
       <use x="85.205078" xlink:href="#DejaVuSans-49"/>
       <use x="148.828125" xlink:href="#DejaVuSans-98"/>
       <use x="212.304688" xlink:href="#DejaVuSans-95"/>
       <use x="262.304688" xlink:href="#DejaVuSans-105"/>
       <use x="290.087891" xlink:href="#DejaVuSans-110"/>
       <use x="353.466797" xlink:href="#DejaVuSans-101"/>
       <use x="414.990234" xlink:href="#DejaVuSans-102"/>
       <use x="450.195312" xlink:href="#DejaVuSans-102"/>
       <use x="485.400391" xlink:href="#DejaVuSans-101"/>
       <use x="546.923828" xlink:href="#DejaVuSans-99"/>
       <use x="601.904297" xlink:href="#DejaVuSans-116"/>
       <use x="641.113281" xlink:href="#DejaVuSans-105"/>
       <use x="668.896484" xlink:href="#DejaVuSans-118"/>
       <use x="728.076172" xlink:href="#DejaVuSans-101"/>
      </g>
     </g>
    </g>
    <g id="ytick_8">
     <g id="line2d_12">
      <g>
       <use style="stroke:#000000;stroke-width:0.8;" x="159.903906" xlink:href="#mc290026afd" y="485.739906"/>
      </g>
     </g>
     <g id="text_13">
      <!-- IL1b_stim -->
      <g transform="translate(81.082031 491.438734)scale(0.15 -0.15)">
       <use xlink:href="#DejaVuSans-73"/>
       <use x="29.492188" xlink:href="#DejaVuSans-76"/>
       <use x="85.205078" xlink:href="#DejaVuSans-49"/>
       <use x="148.828125" xlink:href="#DejaVuSans-98"/>
       <use x="212.304688" xlink:href="#DejaVuSans-95"/>
       <use x="262.304688" xlink:href="#DejaVuSans-115"/>
       <use x="314.404297" xlink:href="#DejaVuSans-116"/>
       <use x="353.613281" xlink:href="#DejaVuSans-105"/>
       <use x="381.396484" xlink:href="#DejaVuSans-109"/>
      </g>
     </g>
    </g>
    <g id="ytick_9">
     <g id="line2d_13">
      <g>
       <use style="stroke:#000000;stroke-width:0.8;" x="159.903906" xlink:href="#mc290026afd" y="457.359819"/>
      </g>
     </g>
     <g id="text_14">
      <!-- IL8_favorable -->
      <defs>
       <path d="M 31.78125 34.625 
Q 24.75 34.625 20.71875 30.859375 
Q 16.703125 27.09375 16.703125 20.515625 
Q 16.703125 13.921875 20.71875 10.15625 
Q 24.75 6.390625 31.78125 6.390625 
Q 38.8125 6.390625 42.859375 10.171875 
Q 46.921875 13.96875 46.921875 20.515625 
Q 46.921875 27.09375 42.890625 30.859375 
Q 38.875 34.625 31.78125 34.625 
z
M 21.921875 38.8125 
Q 15.578125 40.375 12.03125 44.71875 
Q 8.5 49.078125 8.5 55.328125 
Q 8.5 64.0625 14.71875 69.140625 
Q 20.953125 74.21875 31.78125 74.21875 
Q 42.671875 74.21875 48.875 69.140625 
Q 55.078125 64.0625 55.078125 55.328125 
Q 55.078125 49.078125 51.53125 44.71875 
Q 48 40.375 41.703125 38.8125 
Q 48.828125 37.15625 52.796875 32.3125 
Q 56.78125 27.484375 56.78125 20.515625 
Q 56.78125 9.90625 50.3125 4.234375 
Q 43.84375 -1.421875 31.78125 -1.421875 
Q 19.734375 -1.421875 13.25 4.234375 
Q 6.78125 9.90625 6.78125 20.515625 
Q 6.78125 27.484375 10.78125 32.3125 
Q 14.796875 37.15625 21.921875 38.8125 
z
M 18.3125 54.390625 
Q 18.3125 48.734375 21.84375 45.5625 
Q 25.390625 42.390625 31.78125 42.390625 
Q 38.140625 42.390625 41.71875 45.5625 
Q 45.3125 48.734375 45.3125 54.390625 
Q 45.3125 60.0625 41.71875 63.234375 
Q 38.140625 66.40625 31.78125 66.40625 
Q 25.390625 66.40625 21.84375 63.234375 
Q 18.3125 60.0625 18.3125 54.390625 
z
" id="DejaVuSans-56"/>
       <path d="M 30.609375 48.390625 
Q 23.390625 48.390625 19.1875 42.75 
Q 14.984375 37.109375 14.984375 27.296875 
Q 14.984375 17.484375 19.15625 11.84375 
Q 23.34375 6.203125 30.609375 6.203125 
Q 37.796875 6.203125 41.984375 11.859375 
Q 46.1875 17.53125 46.1875 27.296875 
Q 46.1875 37.015625 41.984375 42.703125 
Q 37.796875 48.390625 30.609375 48.390625 
z
M 30.609375 56 
Q 42.328125 56 49.015625 48.375 
Q 55.71875 40.765625 55.71875 27.296875 
Q 55.71875 13.875 49.015625 6.21875 
Q 42.328125 -1.421875 30.609375 -1.421875 
Q 18.84375 -1.421875 12.171875 6.21875 
Q 5.515625 13.875 5.515625 27.296875 
Q 5.515625 40.765625 12.171875 48.375 
Q 18.84375 56 30.609375 56 
z
" id="DejaVuSans-111"/>
       <path d="M 41.109375 46.296875 
Q 39.59375 47.171875 37.8125 47.578125 
Q 36.03125 48 33.890625 48 
Q 26.265625 48 22.1875 43.046875 
Q 18.109375 38.09375 18.109375 28.8125 
L 18.109375 0 
L 9.078125 0 
L 9.078125 54.6875 
L 18.109375 54.6875 
L 18.109375 46.1875 
Q 20.953125 51.171875 25.484375 53.578125 
Q 30.03125 56 36.53125 56 
Q 37.453125 56 38.578125 55.875 
Q 39.703125 55.765625 41.0625 55.515625 
z
" id="DejaVuSans-114"/>
      </defs>
      <g transform="translate(52.270312 463.058647)scale(0.15 -0.15)">
       <use xlink:href="#DejaVuSans-73"/>
       <use x="29.492188" xlink:href="#DejaVuSans-76"/>
       <use x="85.205078" xlink:href="#DejaVuSans-56"/>
       <use x="148.828125" xlink:href="#DejaVuSans-95"/>
       <use x="198.828125" xlink:href="#DejaVuSans-102"/>
       <use x="234.033203" xlink:href="#DejaVuSans-97"/>
       <use x="295.3125" xlink:href="#DejaVuSans-118"/>
       <use x="354.492188" xlink:href="#DejaVuSans-111"/>
       <use x="415.673828" xlink:href="#DejaVuSans-114"/>
       <use x="456.787109" xlink:href="#DejaVuSans-97"/>
       <use x="518.066406" xlink:href="#DejaVuSans-98"/>
       <use x="581.542969" xlink:href="#DejaVuSans-108"/>
       <use x="609.326172" xlink:href="#DejaVuSans-101"/>
      </g>
     </g>
    </g>
    <g id="ytick_10">
     <g id="line2d_14">
      <g>
       <use style="stroke:#000000;stroke-width:0.8;" x="159.903906" xlink:href="#mc290026afd" y="428.979731"/>
      </g>
     </g>
     <g id="text_15">
      <!-- maturity_t -->
      <defs>
       <path d="M 32.171875 -5.078125 
Q 28.375 -14.84375 24.75 -17.8125 
Q 21.140625 -20.796875 15.09375 -20.796875 
L 7.90625 -20.796875 
L 7.90625 -13.28125 
L 13.1875 -13.28125 
Q 16.890625 -13.28125 18.9375 -11.515625 
Q 21 -9.765625 23.484375 -3.21875 
L 25.09375 0.875 
L 2.984375 54.6875 
L 12.5 54.6875 
L 29.59375 11.921875 
L 46.6875 54.6875 
L 56.203125 54.6875 
z
" id="DejaVuSans-121"/>
      </defs>
      <g transform="translate(75.241406 434.678559)scale(0.15 -0.15)">
       <use xlink:href="#DejaVuSans-109"/>
       <use x="97.412109" xlink:href="#DejaVuSans-97"/>
       <use x="158.691406" xlink:href="#DejaVuSans-116"/>
       <use x="197.900391" xlink:href="#DejaVuSans-117"/>
       <use x="261.279297" xlink:href="#DejaVuSans-114"/>
       <use x="302.392578" xlink:href="#DejaVuSans-105"/>
       <use x="330.175781" xlink:href="#DejaVuSans-116"/>
       <use x="369.384766" xlink:href="#DejaVuSans-121"/>
       <use x="428.564453" xlink:href="#DejaVuSans-95"/>
       <use x="478.564453" xlink:href="#DejaVuSans-116"/>
      </g>
     </g>
    </g>
    <g id="ytick_11">
     <g id="line2d_15">
      <g>
       <use style="stroke:#000000;stroke-width:0.8;" x="159.903906" xlink:href="#mc290026afd" y="400.599644"/>
      </g>
     </g>
     <g id="text_16">
      <!-- early_diff_slow -->
      <defs>
       <path d="M 4.203125 54.6875 
L 13.1875 54.6875 
L 24.421875 12.015625 
L 35.59375 54.6875 
L 46.1875 54.6875 
L 57.421875 12.015625 
L 68.609375 54.6875 
L 77.59375 54.6875 
L 63.28125 0 
L 52.6875 0 
L 40.921875 44.828125 
L 29.109375 0 
L 18.5 0 
z
" id="DejaVuSans-119"/>
      </defs>
      <g transform="translate(42.592969 406.298472)scale(0.15 -0.15)">
       <use xlink:href="#DejaVuSans-101"/>
       <use x="61.523438" xlink:href="#DejaVuSans-97"/>
       <use x="122.802734" xlink:href="#DejaVuSans-114"/>
       <use x="163.916016" xlink:href="#DejaVuSans-108"/>
       <use x="191.699219" xlink:href="#DejaVuSans-121"/>
       <use x="250.878906" xlink:href="#DejaVuSans-95"/>
       <use x="300.878906" xlink:href="#DejaVuSans-100"/>
       <use x="364.355469" xlink:href="#DejaVuSans-105"/>
       <use x="392.138672" xlink:href="#DejaVuSans-102"/>
       <use x="427.34375" xlink:href="#DejaVuSans-102"/>
       <use x="462.548828" xlink:href="#DejaVuSans-95"/>
       <use x="512.548828" xlink:href="#DejaVuSans-115"/>
       <use x="564.648438" xlink:href="#DejaVuSans-108"/>
       <use x="592.431641" xlink:href="#DejaVuSans-111"/>
       <use x="653.613281" xlink:href="#DejaVuSans-119"/>
      </g>
     </g>
    </g>
    <g id="ytick_12">
     <g id="line2d_16">
      <g>
       <use style="stroke:#000000;stroke-width:0.8;" x="159.903906" xlink:href="#mc290026afd" y="372.219556"/>
      </g>
     </g>
     <g id="text_17">
      <!-- early_diff_fast -->
      <g transform="translate(47.852344 377.918384)scale(0.15 -0.15)">
       <use xlink:href="#DejaVuSans-101"/>
       <use x="61.523438" xlink:href="#DejaVuSans-97"/>
       <use x="122.802734" xlink:href="#DejaVuSans-114"/>
       <use x="163.916016" xlink:href="#DejaVuSans-108"/>
       <use x="191.699219" xlink:href="#DejaVuSans-121"/>
       <use x="250.878906" xlink:href="#DejaVuSans-95"/>
       <use x="300.878906" xlink:href="#DejaVuSans-100"/>
       <use x="364.355469" xlink:href="#DejaVuSans-105"/>
       <use x="392.138672" xlink:href="#DejaVuSans-102"/>
       <use x="427.34375" xlink:href="#DejaVuSans-102"/>
       <use x="462.548828" xlink:href="#DejaVuSans-95"/>
       <use x="512.548828" xlink:href="#DejaVuSans-102"/>
       <use x="547.753906" xlink:href="#DejaVuSans-97"/>
       <use x="609.033203" xlink:href="#DejaVuSans-115"/>
       <use x="661.132812" xlink:href="#DejaVuSans-116"/>
      </g>
     </g>
    </g>
    <g id="ytick_13">
     <g id="line2d_17">
      <g>
       <use style="stroke:#000000;stroke-width:0.8;" x="159.903906" xlink:href="#mc290026afd" y="343.839469"/>
      </g>
     </g>
     <g id="text_18">
      <!-- early_diff_very_fast -->
      <g transform="translate(7.2 349.538297)scale(0.15 -0.15)">
       <use xlink:href="#DejaVuSans-101"/>
       <use x="61.523438" xlink:href="#DejaVuSans-97"/>
       <use x="122.802734" xlink:href="#DejaVuSans-114"/>
       <use x="163.916016" xlink:href="#DejaVuSans-108"/>
       <use x="191.699219" xlink:href="#DejaVuSans-121"/>
       <use x="250.878906" xlink:href="#DejaVuSans-95"/>
       <use x="300.878906" xlink:href="#DejaVuSans-100"/>
       <use x="364.355469" xlink:href="#DejaVuSans-105"/>
       <use x="392.138672" xlink:href="#DejaVuSans-102"/>
       <use x="427.34375" xlink:href="#DejaVuSans-102"/>
       <use x="462.548828" xlink:href="#DejaVuSans-95"/>
       <use x="512.548828" xlink:href="#DejaVuSans-118"/>
       <use x="571.728516" xlink:href="#DejaVuSans-101"/>
       <use x="633.251953" xlink:href="#DejaVuSans-114"/>
       <use x="674.365234" xlink:href="#DejaVuSans-121"/>
       <use x="733.544922" xlink:href="#DejaVuSans-95"/>
       <use x="783.544922" xlink:href="#DejaVuSans-102"/>
       <use x="818.75" xlink:href="#DejaVuSans-97"/>
       <use x="880.029297" xlink:href="#DejaVuSans-115"/>
       <use x="932.128906" xlink:href="#DejaVuSans-116"/>
      </g>
     </g>
    </g>
    <g id="ytick_14">
     <g id="line2d_18">
      <g>
       <use style="stroke:#000000;stroke-width:0.8;" x="159.903906" xlink:href="#mc290026afd" y="315.459381"/>
      </g>
     </g>
     <g id="text_19">
      <!-- late_diff_slow -->
      <g transform="translate(51.757031 321.158209)scale(0.15 -0.15)">
       <use xlink:href="#DejaVuSans-108"/>
       <use x="27.783203" xlink:href="#DejaVuSans-97"/>
       <use x="89.0625" xlink:href="#DejaVuSans-116"/>
       <use x="128.271484" xlink:href="#DejaVuSans-101"/>
       <use x="189.794922" xlink:href="#DejaVuSans-95"/>
       <use x="239.794922" xlink:href="#DejaVuSans-100"/>
       <use x="303.271484" xlink:href="#DejaVuSans-105"/>
       <use x="331.054688" xlink:href="#DejaVuSans-102"/>
       <use x="366.259766" xlink:href="#DejaVuSans-102"/>
       <use x="401.464844" xlink:href="#DejaVuSans-95"/>
       <use x="451.464844" xlink:href="#DejaVuSans-115"/>
       <use x="503.564453" xlink:href="#DejaVuSans-108"/>
       <use x="531.347656" xlink:href="#DejaVuSans-111"/>
       <use x="592.529297" xlink:href="#DejaVuSans-119"/>
      </g>
     </g>
    </g>
    <g id="ytick_15">
     <g id="line2d_19">
      <g>
       <use style="stroke:#000000;stroke-width:0.8;" x="159.903906" xlink:href="#mc290026afd" y="287.079294"/>
      </g>
     </g>
     <g id="text_20">
      <!-- late_diff_fast -->
      <g transform="translate(57.016406 292.778122)scale(0.15 -0.15)">
       <use xlink:href="#DejaVuSans-108"/>
       <use x="27.783203" xlink:href="#DejaVuSans-97"/>
       <use x="89.0625" xlink:href="#DejaVuSans-116"/>
       <use x="128.271484" xlink:href="#DejaVuSans-101"/>
       <use x="189.794922" xlink:href="#DejaVuSans-95"/>
       <use x="239.794922" xlink:href="#DejaVuSans-100"/>
       <use x="303.271484" xlink:href="#DejaVuSans-105"/>
       <use x="331.054688" xlink:href="#DejaVuSans-102"/>
       <use x="366.259766" xlink:href="#DejaVuSans-102"/>
       <use x="401.464844" xlink:href="#DejaVuSans-95"/>
       <use x="451.464844" xlink:href="#DejaVuSans-102"/>
       <use x="486.669922" xlink:href="#DejaVuSans-97"/>
       <use x="547.949219" xlink:href="#DejaVuSans-115"/>
       <use x="600.048828" xlink:href="#DejaVuSans-116"/>
      </g>
     </g>
    </g>
    <g id="ytick_16">
     <g id="line2d_20">
      <g>
       <use style="stroke:#000000;stroke-width:0.8;" x="159.903906" xlink:href="#mc290026afd" y="258.699206"/>
      </g>
     </g>
     <g id="text_21">
      <!-- a_early_diff_stim -->
      <g transform="translate(26.854687 264.398034)scale(0.15 -0.15)">
       <use xlink:href="#DejaVuSans-97"/>
       <use x="61.279297" xlink:href="#DejaVuSans-95"/>
       <use x="111.279297" xlink:href="#DejaVuSans-101"/>
       <use x="172.802734" xlink:href="#DejaVuSans-97"/>
       <use x="234.082031" xlink:href="#DejaVuSans-114"/>
       <use x="275.195312" xlink:href="#DejaVuSans-108"/>
       <use x="302.978516" xlink:href="#DejaVuSans-121"/>
       <use x="362.158203" xlink:href="#DejaVuSans-95"/>
       <use x="412.158203" xlink:href="#DejaVuSans-100"/>
       <use x="475.634766" xlink:href="#DejaVuSans-105"/>
       <use x="503.417969" xlink:href="#DejaVuSans-102"/>
       <use x="538.623047" xlink:href="#DejaVuSans-102"/>
       <use x="573.828125" xlink:href="#DejaVuSans-95"/>
       <use x="623.828125" xlink:href="#DejaVuSans-115"/>
       <use x="675.927734" xlink:href="#DejaVuSans-116"/>
       <use x="715.136719" xlink:href="#DejaVuSans-105"/>
       <use x="742.919922" xlink:href="#DejaVuSans-109"/>
      </g>
     </g>
    </g>
    <g id="ytick_17">
     <g id="line2d_21">
      <g>
       <use style="stroke:#000000;stroke-width:0.8;" x="159.903906" xlink:href="#mc290026afd" y="230.319119"/>
      </g>
     </g>
     <g id="text_22">
      <!-- a_early_diff_inhib -->
      <defs>
       <path d="M 54.890625 33.015625 
L 54.890625 0 
L 45.90625 0 
L 45.90625 32.71875 
Q 45.90625 40.484375 42.875 44.328125 
Q 39.84375 48.1875 33.796875 48.1875 
Q 26.515625 48.1875 22.3125 43.546875 
Q 18.109375 38.921875 18.109375 30.90625 
L 18.109375 0 
L 9.078125 0 
L 9.078125 75.984375 
L 18.109375 75.984375 
L 18.109375 46.1875 
Q 21.34375 51.125 25.703125 53.5625 
Q 30.078125 56 35.796875 56 
Q 45.21875 56 50.046875 50.171875 
Q 54.890625 44.34375 54.890625 33.015625 
z
" id="DejaVuSans-104"/>
      </defs>
      <g transform="translate(22.457812 236.017947)scale(0.15 -0.15)">
       <use xlink:href="#DejaVuSans-97"/>
       <use x="61.279297" xlink:href="#DejaVuSans-95"/>
       <use x="111.279297" xlink:href="#DejaVuSans-101"/>
       <use x="172.802734" xlink:href="#DejaVuSans-97"/>
       <use x="234.082031" xlink:href="#DejaVuSans-114"/>
       <use x="275.195312" xlink:href="#DejaVuSans-108"/>
       <use x="302.978516" xlink:href="#DejaVuSans-121"/>
       <use x="362.158203" xlink:href="#DejaVuSans-95"/>
       <use x="412.158203" xlink:href="#DejaVuSans-100"/>
       <use x="475.634766" xlink:href="#DejaVuSans-105"/>
       <use x="503.417969" xlink:href="#DejaVuSans-102"/>
       <use x="538.623047" xlink:href="#DejaVuSans-102"/>
       <use x="573.828125" xlink:href="#DejaVuSans-95"/>
       <use x="623.828125" xlink:href="#DejaVuSans-105"/>
       <use x="651.611328" xlink:href="#DejaVuSans-110"/>
       <use x="714.990234" xlink:href="#DejaVuSans-104"/>
       <use x="778.369141" xlink:href="#DejaVuSans-105"/>
       <use x="806.152344" xlink:href="#DejaVuSans-98"/>
      </g>
     </g>
    </g>
    <g id="ytick_18">
     <g id="line2d_22">
      <g>
       <use style="stroke:#000000;stroke-width:0.8;" x="159.903906" xlink:href="#mc290026afd" y="201.939031"/>
      </g>
     </g>
     <g id="text_23">
      <!-- a_late_diff_stim -->
      <g transform="translate(36.01875 207.637859)scale(0.15 -0.15)">
       <use xlink:href="#DejaVuSans-97"/>
       <use x="61.279297" xlink:href="#DejaVuSans-95"/>
       <use x="111.279297" xlink:href="#DejaVuSans-108"/>
       <use x="139.0625" xlink:href="#DejaVuSans-97"/>
       <use x="200.341797" xlink:href="#DejaVuSans-116"/>
       <use x="239.550781" xlink:href="#DejaVuSans-101"/>
       <use x="301.074219" xlink:href="#DejaVuSans-95"/>
       <use x="351.074219" xlink:href="#DejaVuSans-100"/>
       <use x="414.550781" xlink:href="#DejaVuSans-105"/>
       <use x="442.333984" xlink:href="#DejaVuSans-102"/>
       <use x="477.539062" xlink:href="#DejaVuSans-102"/>
       <use x="512.744141" xlink:href="#DejaVuSans-95"/>
       <use x="562.744141" xlink:href="#DejaVuSans-115"/>
       <use x="614.84375" xlink:href="#DejaVuSans-116"/>
       <use x="654.052734" xlink:href="#DejaVuSans-105"/>
       <use x="681.835938" xlink:href="#DejaVuSans-109"/>
      </g>
     </g>
    </g>
    <g id="ytick_19">
     <g id="line2d_23">
      <g>
       <use style="stroke:#000000;stroke-width:0.8;" x="159.903906" xlink:href="#mc290026afd" y="173.558944"/>
      </g>
     </g>
     <g id="text_24">
      <!-- a_late_diff_inhib -->
      <g transform="translate(31.621875 179.257772)scale(0.15 -0.15)">
       <use xlink:href="#DejaVuSans-97"/>
       <use x="61.279297" xlink:href="#DejaVuSans-95"/>
       <use x="111.279297" xlink:href="#DejaVuSans-108"/>
       <use x="139.0625" xlink:href="#DejaVuSans-97"/>
       <use x="200.341797" xlink:href="#DejaVuSans-116"/>
       <use x="239.550781" xlink:href="#DejaVuSans-101"/>
       <use x="301.074219" xlink:href="#DejaVuSans-95"/>
       <use x="351.074219" xlink:href="#DejaVuSans-100"/>
       <use x="414.550781" xlink:href="#DejaVuSans-105"/>
       <use x="442.333984" xlink:href="#DejaVuSans-102"/>
       <use x="477.539062" xlink:href="#DejaVuSans-102"/>
       <use x="512.744141" xlink:href="#DejaVuSans-95"/>
       <use x="562.744141" xlink:href="#DejaVuSans-105"/>
       <use x="590.527344" xlink:href="#DejaVuSans-110"/>
       <use x="653.90625" xlink:href="#DejaVuSans-104"/>
       <use x="717.285156" xlink:href="#DejaVuSans-105"/>
       <use x="745.068359" xlink:href="#DejaVuSans-98"/>
      </g>
     </g>
    </g>
    <g id="ytick_20">
     <g id="line2d_24">
      <g>
       <use style="stroke:#000000;stroke-width:0.8;" x="159.903906" xlink:href="#mc290026afd" y="145.178856"/>
      </g>
     </g>
     <g id="text_25">
      <!-- diff_time -->
      <g transform="translate(87.264844 150.877684)scale(0.15 -0.15)">
       <use xlink:href="#DejaVuSans-100"/>
       <use x="63.476562" xlink:href="#DejaVuSans-105"/>
       <use x="91.259766" xlink:href="#DejaVuSans-102"/>
       <use x="126.464844" xlink:href="#DejaVuSans-102"/>
       <use x="161.669922" xlink:href="#DejaVuSans-95"/>
       <use x="211.669922" xlink:href="#DejaVuSans-116"/>
       <use x="250.878906" xlink:href="#DejaVuSans-105"/>
       <use x="278.662109" xlink:href="#DejaVuSans-109"/>
       <use x="376.074219" xlink:href="#DejaVuSans-101"/>
      </g>
     </g>
    </g>
    <g id="ytick_21">
     <g id="line2d_25">
      <g>
       <use style="stroke:#000000;stroke-width:0.8;" x="159.903906" xlink:href="#mc290026afd" y="116.798769"/>
      </g>
     </g>
     <g id="text_26">
      <!-- a_Valles_2020_ALP -->
      <defs>
       <path d="M 28.609375 0 
L 0.78125 72.90625 
L 11.078125 72.90625 
L 34.1875 11.53125 
L 57.328125 72.90625 
L 67.578125 72.90625 
L 39.796875 0 
z
" id="DejaVuSans-86"/>
       <path d="M 19.1875 8.296875 
L 53.609375 8.296875 
L 53.609375 0 
L 7.328125 0 
L 7.328125 8.296875 
Q 12.9375 14.109375 22.625 23.890625 
Q 32.328125 33.6875 34.8125 36.53125 
Q 39.546875 41.84375 41.421875 45.53125 
Q 43.3125 49.21875 43.3125 52.78125 
Q 43.3125 58.59375 39.234375 62.25 
Q 35.15625 65.921875 28.609375 65.921875 
Q 23.96875 65.921875 18.8125 64.3125 
Q 13.671875 62.703125 7.8125 59.421875 
L 7.8125 69.390625 
Q 13.765625 71.78125 18.9375 73 
Q 24.125 74.21875 28.421875 74.21875 
Q 39.75 74.21875 46.484375 68.546875 
Q 53.21875 62.890625 53.21875 53.421875 
Q 53.21875 48.921875 51.53125 44.890625 
Q 49.859375 40.875 45.40625 35.40625 
Q 44.1875 33.984375 37.640625 27.21875 
Q 31.109375 20.453125 19.1875 8.296875 
z
" id="DejaVuSans-50"/>
      </defs>
      <g transform="translate(10.558594 122.497597)scale(0.15 -0.15)">
       <use xlink:href="#DejaVuSans-97"/>
       <use x="61.279297" xlink:href="#DejaVuSans-95"/>
       <use x="111.279297" xlink:href="#DejaVuSans-86"/>
       <use x="179.578125" xlink:href="#DejaVuSans-97"/>
       <use x="240.857422" xlink:href="#DejaVuSans-108"/>
       <use x="268.640625" xlink:href="#DejaVuSans-108"/>
       <use x="296.423828" xlink:href="#DejaVuSans-101"/>
       <use x="357.947266" xlink:href="#DejaVuSans-115"/>
       <use x="410.046875" xlink:href="#DejaVuSans-95"/>
       <use x="460.046875" xlink:href="#DejaVuSans-50"/>
       <use x="523.669922" xlink:href="#DejaVuSans-48"/>
       <use x="587.292969" xlink:href="#DejaVuSans-50"/>
       <use x="650.916016" xlink:href="#DejaVuSans-48"/>
       <use x="714.539062" xlink:href="#DejaVuSans-95"/>
       <use x="764.539062" xlink:href="#DejaVuSans-65"/>
       <use x="832.947266" xlink:href="#DejaVuSans-76"/>
       <use x="888.660156" xlink:href="#DejaVuSans-80"/>
      </g>
     </g>
    </g>
    <g id="ytick_22">
     <g id="line2d_26">
      <g>
       <use style="stroke:#000000;stroke-width:0.8;" x="159.903906" xlink:href="#mc290026afd" y="88.418681"/>
      </g>
     </g>
     <g id="text_27">
      <!-- a_Valles_2020_ARS -->
      <g transform="translate(8.015625 94.117509)scale(0.15 -0.15)">
       <use xlink:href="#DejaVuSans-97"/>
       <use x="61.279297" xlink:href="#DejaVuSans-95"/>
       <use x="111.279297" xlink:href="#DejaVuSans-86"/>
       <use x="179.578125" xlink:href="#DejaVuSans-97"/>
       <use x="240.857422" xlink:href="#DejaVuSans-108"/>
       <use x="268.640625" xlink:href="#DejaVuSans-108"/>
       <use x="296.423828" xlink:href="#DejaVuSans-101"/>
       <use x="357.947266" xlink:href="#DejaVuSans-115"/>
       <use x="410.046875" xlink:href="#DejaVuSans-95"/>
       <use x="460.046875" xlink:href="#DejaVuSans-50"/>
       <use x="523.669922" xlink:href="#DejaVuSans-48"/>
       <use x="587.292969" xlink:href="#DejaVuSans-50"/>
       <use x="650.916016" xlink:href="#DejaVuSans-48"/>
       <use x="714.539062" xlink:href="#DejaVuSans-95"/>
       <use x="764.539062" xlink:href="#DejaVuSans-65"/>
       <use x="832.947266" xlink:href="#DejaVuSans-82"/>
       <use x="902.429688" xlink:href="#DejaVuSans-83"/>
      </g>
     </g>
    </g>
   </g>
   <g id="patch_3">
    <path d="M 159.903906 719.0496 
L 159.903906 53.7696 
" style="fill:none;stroke:#000000;stroke-linecap:square;stroke-linejoin:miter;stroke-width:0.8;"/>
   </g>
   <g id="patch_4">
    <path d="M 327.303906 719.0496 
L 327.303906 53.7696 
" style="fill:none;stroke:#000000;stroke-linecap:square;stroke-linejoin:miter;stroke-width:0.8;"/>
   </g>
   <g id="patch_5">
    <path d="M 159.903906 719.0496 
L 327.303906 719.0496 
" style="fill:none;stroke:#000000;stroke-linecap:square;stroke-linejoin:miter;stroke-width:0.8;"/>
   </g>
   <g id="patch_6">
    <path d="M 159.903906 53.7696 
L 327.303906 53.7696 
" style="fill:none;stroke:#000000;stroke-linecap:square;stroke-linejoin:miter;stroke-width:0.8;"/>
   </g>
   <g id="legend_1">
    <g id="patch_7">
     <path d="M 170.873906 49.263125 
L 475.248594 49.263125 
Q 477.848594 49.263125 477.848594 46.663125 
L 477.848594 9.8 
Q 477.848594 7.2 475.248594 7.2 
L 170.873906 7.2 
Q 168.273906 7.2 168.273906 9.8 
L 168.273906 46.663125 
Q 168.273906 49.263125 170.873906 49.263125 
z
" style="fill:#ffffff;opacity:0.8;stroke:#cccccc;stroke-linejoin:miter;"/>
    </g>
    <g id="PathCollection_6">
     <g>
      <use style="fill:#4c72b0;fill-opacity:0.8;stroke:#4c72b0;stroke-opacity:0.8;" x="186.473906" xlink:href="#mf38762893a" y="18.865469"/>
     </g>
    </g>
    <g id="text_28">
     <!-- A0 -->
     <g transform="translate(209.873906 22.277969)scale(0.13 -0.13)">
      <use xlink:href="#DejaVuSans-65"/>
      <use x="68.408203" xlink:href="#DejaVuSans-48"/>
     </g>
    </g>
    <g id="PathCollection_7">
     <g>
      <use style="fill:#55a868;fill-opacity:0.8;stroke:#55a868;stroke-opacity:0.8;" x="186.473906" xlink:href="#m6b416288a2" y="37.947031"/>
     </g>
    </g>
    <g id="text_29">
     <!-- A1 -->
     <g transform="translate(209.873906 41.359531)scale(0.13 -0.13)">
      <use xlink:href="#DejaVuSans-65"/>
      <use x="68.408203" xlink:href="#DejaVuSans-49"/>
     </g>
    </g>
    <g id="PathCollection_8">
     <g>
      <use style="fill:#c44e52;fill-opacity:0.8;stroke:#c44e52;stroke-opacity:0.8;" x="266.037969" xlink:href="#m493683d29b" y="18.865469"/>
     </g>
    </g>
    <g id="text_30">
     <!-- A2 -->
     <g transform="translate(289.437969 22.277969)scale(0.13 -0.13)">
      <use xlink:href="#DejaVuSans-65"/>
      <use x="68.408203" xlink:href="#DejaVuSans-50"/>
     </g>
    </g>
    <g id="PathCollection_9">
     <g>
      <use style="fill:#8172b2;fill-opacity:0.8;stroke:#8172b2;stroke-opacity:0.8;" x="345.602031" xlink:href="#m16b126f5d7" y="18.865469"/>
     </g>
    </g>
    <g id="text_31">
     <!-- A3 -->
     <defs>
      <path d="M 40.578125 39.3125 
Q 47.65625 37.796875 51.625 33 
Q 55.609375 28.21875 55.609375 21.1875 
Q 55.609375 10.40625 48.1875 4.484375 
Q 40.765625 -1.421875 27.09375 -1.421875 
Q 22.515625 -1.421875 17.65625 -0.515625 
Q 12.796875 0.390625 7.625 2.203125 
L 7.625 11.71875 
Q 11.71875 9.328125 16.59375 8.109375 
Q 21.484375 6.890625 26.8125 6.890625 
Q 36.078125 6.890625 40.9375 10.546875 
Q 45.796875 14.203125 45.796875 21.1875 
Q 45.796875 27.640625 41.28125 31.265625 
Q 36.765625 34.90625 28.71875 34.90625 
L 20.21875 34.90625 
L 20.21875 43.015625 
L 29.109375 43.015625 
Q 36.375 43.015625 40.234375 45.921875 
Q 44.09375 48.828125 44.09375 54.296875 
Q 44.09375 59.90625 40.109375 62.90625 
Q 36.140625 65.921875 28.71875 65.921875 
Q 24.65625 65.921875 20.015625 65.03125 
Q 15.375 64.15625 9.8125 62.3125 
L 9.8125 71.09375 
Q 15.4375 72.65625 20.34375 73.4375 
Q 25.25 74.21875 29.59375 74.21875 
Q 40.828125 74.21875 47.359375 69.109375 
Q 53.90625 64.015625 53.90625 55.328125 
Q 53.90625 49.265625 50.4375 45.09375 
Q 46.96875 40.921875 40.578125 39.3125 
z
" id="DejaVuSans-51"/>
     </defs>
     <g transform="translate(369.002031 22.277969)scale(0.13 -0.13)">
      <use xlink:href="#DejaVuSans-65"/>
      <use x="68.408203" xlink:href="#DejaVuSans-51"/>
     </g>
    </g>
    <g id="PathCollection_10">
     <g>
      <use style="fill:#ccb974;fill-opacity:0.8;stroke:#ccb974;stroke-opacity:0.8;" x="425.166094" xlink:href="#m075de9e3e3" y="18.865469"/>
     </g>
    </g>
    <g id="text_32">
     <!-- Aall -->
     <g transform="translate(448.566094 22.277969)scale(0.13 -0.13)">
      <use xlink:href="#DejaVuSans-65"/>
      <use x="68.408203" xlink:href="#DejaVuSans-97"/>
      <use x="129.6875" xlink:href="#DejaVuSans-108"/>
      <use x="157.470703" xlink:href="#DejaVuSans-108"/>
     </g>
    </g>
   </g>
  </g>
 </g>
 <defs>
  <clipPath id="p65ba0803a2">
   <rect height="665.28" width="167.4" x="159.903906" y="53.7696"/>
  </clipPath>
 </defs>
</svg>
