<?xml version="1.0" encoding="utf-8" standalone="no"?>
<!DOCTYPE svg PUBLIC "-//W3C//DTD SVG 1.1//EN"
  "http://www.w3.org/Graphics/SVG/1.1/DTD/svg11.dtd">
<!-- Created with matplotlib (http://matplotlib.org/) -->
<svg height="623.2794pt" version="1.1" viewBox="0 0 242.67925 623.2794" width="242.67925pt" xmlns="http://www.w3.org/2000/svg" xmlns:xlink="http://www.w3.org/1999/xlink">
 <defs>
  <style type="text/css">
*{stroke-linecap:butt;stroke-linejoin:round;}
  </style>
 </defs>
 <g id="figure_1">
  <g id="patch_1">
   <path d="M 0 623.2794 
L 242.67925 623.2794 
L 242.67925 0 
L 0 0 
z
" style="fill:#ffffff;"/>
  </g>
  <g id="axes_1">
   <g id="patch_2">
    <path d="M 56.65 576.0144 
L 224.05 576.0144 
L 224.05 77.0544 
L 56.65 77.0544 
z
" style="fill:#ffffff;"/>
   </g>
   <g id="PathCollection_1">
    <defs>
     <path d="M 0 0 
L 0 6.123724 
M 0 0 
L 4.898979 -3.061862 
M 0 0 
L -4.898979 -3.061862 
" id="m2fd10a0fae" style="stroke:#4b0082;stroke-opacity:0.8;stroke-width:1.5;"/>
    </defs>
    <g clip-path="url(#p7d51885ba9)">
     <use style="fill:#4b0082;fill-opacity:0.8;stroke:#4b0082;stroke-opacity:0.8;stroke-width:1.5;" x="153.592496" xlink:href="#m2fd10a0fae" y="485.661462"/>
    </g>
   </g>
   <g id="PathCollection_2">
    <g clip-path="url(#p7d51885ba9)">
     <use style="fill:#4b0082;fill-opacity:0.8;stroke:#4b0082;stroke-opacity:0.8;stroke-width:1.5;" x="98.72138" xlink:href="#m2fd10a0fae" y="469.764606"/>
    </g>
   </g>
   <g id="PathCollection_3">
    <g clip-path="url(#p7d51885ba9)">
     <use style="fill:#4b0082;fill-opacity:0.8;stroke:#4b0082;stroke-opacity:0.8;stroke-width:1.5;" x="198.420175" xlink:href="#m2fd10a0fae" y="437.970894"/>
    </g>
   </g>
   <g id="PathCollection_4">
    <g clip-path="url(#p7d51885ba9)">
     <use style="fill:#4b0082;fill-opacity:0.8;stroke:#4b0082;stroke-opacity:0.8;stroke-width:1.5;" x="154.868248" xlink:href="#m2fd10a0fae" y="422.074038"/>
    </g>
   </g>
   <g id="PathCollection_5">
    <g clip-path="url(#p7d51885ba9)">
     <use style="fill:#4b0082;fill-opacity:0.8;stroke:#4b0082;stroke-opacity:0.8;stroke-width:1.5;" x="146.272016" xlink:href="#m2fd10a0fae" y="406.177182"/>
    </g>
   </g>
   <g id="PathCollection_6">
    <g clip-path="url(#p7d51885ba9)">
     <use style="fill:#4b0082;fill-opacity:0.8;stroke:#4b0082;stroke-opacity:0.8;stroke-width:1.5;" x="202.831332" xlink:href="#m2fd10a0fae" y="390.280326"/>
    </g>
   </g>
   <g id="PathCollection_7">
    <g clip-path="url(#p7d51885ba9)">
     <use style="fill:#4b0082;fill-opacity:0.8;stroke:#4b0082;stroke-opacity:0.8;stroke-width:1.5;" x="127.585115" xlink:href="#m2fd10a0fae" y="374.38347"/>
    </g>
   </g>
   <g id="PathCollection_8">
    <g clip-path="url(#p7d51885ba9)">
     <use style="fill:#4b0082;fill-opacity:0.8;stroke:#4b0082;stroke-opacity:0.8;stroke-width:1.5;" x="152.876258" xlink:href="#m2fd10a0fae" y="358.486614"/>
    </g>
   </g>
   <g id="PathCollection_9">
    <g clip-path="url(#p7d51885ba9)">
     <use style="fill:#4b0082;fill-opacity:0.8;stroke:#4b0082;stroke-opacity:0.8;stroke-width:1.5;" x="125.26099" xlink:href="#m2fd10a0fae" y="342.589758"/>
    </g>
   </g>
   <g id="PathCollection_10">
    <g clip-path="url(#p7d51885ba9)">
     <use style="fill:#4b0082;fill-opacity:0.8;stroke:#4b0082;stroke-opacity:0.8;stroke-width:1.5;" x="118.306969" xlink:href="#m2fd10a0fae" y="326.692902"/>
    </g>
   </g>
   <g id="PathCollection_11">
    <g clip-path="url(#p7d51885ba9)">
     <use style="fill:#4b0082;fill-opacity:0.8;stroke:#4b0082;stroke-opacity:0.8;stroke-width:1.5;" x="132.487372" xlink:href="#m2fd10a0fae" y="310.796046"/>
    </g>
   </g>
   <g id="PathCollection_12">
    <g clip-path="url(#p7d51885ba9)">
     <use style="fill:#4b0082;fill-opacity:0.8;stroke:#4b0082;stroke-opacity:0.8;stroke-width:1.5;" x="77.711297" xlink:href="#m2fd10a0fae" y="215.41491"/>
    </g>
   </g>
   <g id="PathCollection_13">
    <g clip-path="url(#p7d51885ba9)">
     <use style="fill:#4b0082;fill-opacity:0.8;stroke:#4b0082;stroke-opacity:0.8;stroke-width:1.5;" x="86.351876" xlink:href="#m2fd10a0fae" y="199.518054"/>
    </g>
   </g>
   <g id="PathCollection_14">
    <g clip-path="url(#p7d51885ba9)">
     <use style="fill:#4b0082;fill-opacity:0.8;stroke:#4b0082;stroke-opacity:0.8;stroke-width:1.5;" x="74.710329" xlink:href="#m2fd10a0fae" y="167.724342"/>
    </g>
   </g>
   <g id="PathCollection_15">
    <g clip-path="url(#p7d51885ba9)">
     <use style="fill:#4b0082;fill-opacity:0.8;stroke:#4b0082;stroke-opacity:0.8;stroke-width:1.5;" x="79.646399" xlink:href="#m2fd10a0fae" y="151.827486"/>
    </g>
   </g>
   <g id="PathCollection_16">
    <g clip-path="url(#p7d51885ba9)">
     <use style="fill:#4b0082;fill-opacity:0.8;stroke:#4b0082;stroke-opacity:0.8;stroke-width:1.5;" x="153.017287" xlink:href="#m2fd10a0fae" y="120.033774"/>
    </g>
   </g>
   <g id="PathCollection_17">
    <g clip-path="url(#p7d51885ba9)">
     <use style="fill:#4b0082;fill-opacity:0.8;stroke:#4b0082;stroke-opacity:0.8;stroke-width:1.5;" x="180.808919" xlink:href="#m2fd10a0fae" y="104.136917"/>
    </g>
   </g>
   <g id="PathCollection_18">
    <defs>
     <path d="M 0 0 
L 0 -6.123724 
M 0 0 
L -4.898979 3.061862 
M 0 0 
L 4.898979 3.061862 
" id="m46bb117435" style="stroke:#8b0000;stroke-opacity:0.8;stroke-width:1.5;"/>
    </defs>
    <g clip-path="url(#p7d51885ba9)">
     <use style="fill:#8b0000;fill-opacity:0.8;stroke:#8b0000;stroke-opacity:0.8;stroke-width:1.5;" x="99.868234" xlink:href="#m46bb117435" y="453.86775"/>
    </g>
   </g>
   <g id="PathCollection_19">
    <g clip-path="url(#p7d51885ba9)">
     <use style="fill:#8b0000;fill-opacity:0.8;stroke:#8b0000;stroke-opacity:0.8;stroke-width:1.5;" x="92.901789" xlink:href="#m46bb117435" y="437.970894"/>
    </g>
   </g>
   <g id="PathCollection_20">
    <g clip-path="url(#p7d51885ba9)">
     <use style="fill:#8b0000;fill-opacity:0.8;stroke:#8b0000;stroke-opacity:0.8;stroke-width:1.5;" x="135.602564" xlink:href="#m46bb117435" y="342.589758"/>
    </g>
   </g>
   <g id="PathCollection_21">
    <g clip-path="url(#p7d51885ba9)">
     <use style="fill:#8b0000;fill-opacity:0.8;stroke:#8b0000;stroke-opacity:0.8;stroke-width:1.5;" x="186.069998" xlink:href="#m46bb117435" y="263.105478"/>
    </g>
   </g>
   <g id="PathCollection_22">
    <g clip-path="url(#p7d51885ba9)">
     <use style="fill:#8b0000;fill-opacity:0.8;stroke:#8b0000;stroke-opacity:0.8;stroke-width:1.5;" x="79.50018" xlink:href="#m46bb117435" y="247.208622"/>
    </g>
   </g>
   <g id="PathCollection_23">
    <g clip-path="url(#p7d51885ba9)">
     <use style="fill:#8b0000;fill-opacity:0.8;stroke:#8b0000;stroke-opacity:0.8;stroke-width:1.5;" x="76.372625" xlink:href="#m46bb117435" y="231.311766"/>
    </g>
   </g>
   <g id="PathCollection_24">
    <g clip-path="url(#p7d51885ba9)">
     <use style="fill:#8b0000;fill-opacity:0.8;stroke:#8b0000;stroke-opacity:0.8;stroke-width:1.5;" x="99.58748" xlink:href="#m46bb117435" y="215.41491"/>
    </g>
   </g>
   <g id="PathCollection_25">
    <g clip-path="url(#p7d51885ba9)">
     <use style="fill:#8b0000;fill-opacity:0.8;stroke:#8b0000;stroke-opacity:0.8;stroke-width:1.5;" x="80.324181" xlink:href="#m46bb117435" y="167.724342"/>
    </g>
   </g>
   <g id="PathCollection_26">
    <g clip-path="url(#p7d51885ba9)">
     <use style="fill:#8b0000;fill-opacity:0.8;stroke:#8b0000;stroke-opacity:0.8;stroke-width:1.5;" x="172.17185" xlink:href="#m46bb117435" y="120.033774"/>
    </g>
   </g>
   <g id="PathCollection_27">
    <g clip-path="url(#p7d51885ba9)">
     <use style="fill:#8b0000;fill-opacity:0.8;stroke:#8b0000;stroke-opacity:0.8;stroke-width:1.5;" x="181.147435" xlink:href="#m46bb117435" y="104.136917"/>
    </g>
   </g>
   <g id="PathCollection_28">
    <defs>
     <path d="M 0 0 
L -6.123724 -0 
M 0 0 
L 3.061862 4.898979 
M 0 0 
L 3.061862 -4.898979 
" id="m67281615a3" style="stroke:#808000;stroke-opacity:0.8;stroke-width:1.5;"/>
    </defs>
    <g clip-path="url(#p7d51885ba9)">
     <use style="fill:#808000;fill-opacity:0.8;stroke:#808000;stroke-opacity:0.8;stroke-width:1.5;" x="128.939595" xlink:href="#m67281615a3" y="517.455174"/>
    </g>
   </g>
   <g id="PathCollection_29">
    <g clip-path="url(#p7d51885ba9)">
     <use style="fill:#808000;fill-opacity:0.8;stroke:#808000;stroke-opacity:0.8;stroke-width:1.5;" x="104.16799" xlink:href="#m67281615a3" y="437.970894"/>
    </g>
   </g>
   <g id="PathCollection_30">
    <g clip-path="url(#p7d51885ba9)">
     <use style="fill:#808000;fill-opacity:0.8;stroke:#808000;stroke-opacity:0.8;stroke-width:1.5;" x="137.406191" xlink:href="#m67281615a3" y="358.486614"/>
    </g>
   </g>
   <g id="PathCollection_31">
    <g clip-path="url(#p7d51885ba9)">
     <use style="fill:#808000;fill-opacity:0.8;stroke:#808000;stroke-opacity:0.8;stroke-width:1.5;" x="152.1604" xlink:href="#m67281615a3" y="294.89919"/>
    </g>
   </g>
   <g id="PathCollection_32">
    <g clip-path="url(#p7d51885ba9)">
     <use style="fill:#808000;fill-opacity:0.8;stroke:#808000;stroke-opacity:0.8;stroke-width:1.5;" x="160.052394" xlink:href="#m67281615a3" y="279.002334"/>
    </g>
   </g>
   <g id="PathCollection_33">
    <g clip-path="url(#p7d51885ba9)">
     <use style="fill:#808000;fill-opacity:0.8;stroke:#808000;stroke-opacity:0.8;stroke-width:1.5;" x="93.367083" xlink:href="#m67281615a3" y="215.41491"/>
    </g>
   </g>
   <g id="PathCollection_34">
    <g clip-path="url(#p7d51885ba9)">
     <use style="fill:#808000;fill-opacity:0.8;stroke:#808000;stroke-opacity:0.8;stroke-width:1.5;" x="93.783157" xlink:href="#m67281615a3" y="167.724342"/>
    </g>
   </g>
   <g id="PathCollection_35">
    <g clip-path="url(#p7d51885ba9)">
     <use style="fill:#808000;fill-opacity:0.8;stroke:#808000;stroke-opacity:0.8;stroke-width:1.5;" x="108.741596" xlink:href="#m67281615a3" y="120.033774"/>
    </g>
   </g>
   <g id="PathCollection_36">
    <g clip-path="url(#p7d51885ba9)">
     <use style="fill:#808000;fill-opacity:0.8;stroke:#808000;stroke-opacity:0.8;stroke-width:1.5;" x="159.212523" xlink:href="#m67281615a3" y="104.136917"/>
    </g>
   </g>
   <g id="PathCollection_37">
    <defs>
     <path d="M 0 0 
L 6.123724 0 
M 0 0 
L -3.061862 -4.898979 
M 0 0 
L -3.061862 4.898979 
" id="m389ca29c87" style="stroke:#4169e1;stroke-opacity:0.8;stroke-width:1.5;"/>
    </defs>
    <g clip-path="url(#p7d51885ba9)">
     <use style="fill:#4169e1;fill-opacity:0.8;stroke:#4169e1;stroke-opacity:0.8;stroke-width:1.5;" x="150.236354" xlink:href="#m389ca29c87" y="517.455174"/>
    </g>
   </g>
   <g id="PathCollection_38">
    <g clip-path="url(#p7d51885ba9)">
     <use style="fill:#4169e1;fill-opacity:0.8;stroke:#4169e1;stroke-opacity:0.8;stroke-width:1.5;" x="171.133202" xlink:href="#m389ca29c87" y="501.558318"/>
    </g>
   </g>
   <g id="PathCollection_39">
    <g clip-path="url(#p7d51885ba9)">
     <use style="fill:#4169e1;fill-opacity:0.8;stroke:#4169e1;stroke-opacity:0.8;stroke-width:1.5;" x="90.440213" xlink:href="#m389ca29c87" y="437.970894"/>
    </g>
   </g>
   <g id="PathCollection_40">
    <g clip-path="url(#p7d51885ba9)">
     <use style="fill:#4169e1;fill-opacity:0.8;stroke:#4169e1;stroke-opacity:0.8;stroke-width:1.5;" x="127.706311" xlink:href="#m389ca29c87" y="422.074038"/>
    </g>
   </g>
   <g id="PathCollection_41">
    <g clip-path="url(#p7d51885ba9)">
     <use style="fill:#4169e1;fill-opacity:0.8;stroke:#4169e1;stroke-opacity:0.8;stroke-width:1.5;" x="162.39168" xlink:href="#m389ca29c87" y="406.177182"/>
    </g>
   </g>
   <g id="PathCollection_42">
    <g clip-path="url(#p7d51885ba9)">
     <use style="fill:#4169e1;fill-opacity:0.8;stroke:#4169e1;stroke-opacity:0.8;stroke-width:1.5;" x="123.629721" xlink:href="#m389ca29c87" y="390.280326"/>
    </g>
   </g>
   <g id="PathCollection_43">
    <g clip-path="url(#p7d51885ba9)">
     <use style="fill:#4169e1;fill-opacity:0.8;stroke:#4169e1;stroke-opacity:0.8;stroke-width:1.5;" x="174.141799" xlink:href="#m389ca29c87" y="374.38347"/>
    </g>
   </g>
   <g id="PathCollection_44">
    <g clip-path="url(#p7d51885ba9)">
     <use style="fill:#4169e1;fill-opacity:0.8;stroke:#4169e1;stroke-opacity:0.8;stroke-width:1.5;" x="135.404916" xlink:href="#m389ca29c87" y="358.486614"/>
    </g>
   </g>
   <g id="PathCollection_45">
    <g clip-path="url(#p7d51885ba9)">
     <use style="fill:#4169e1;fill-opacity:0.8;stroke:#4169e1;stroke-opacity:0.8;stroke-width:1.5;" x="146.232129" xlink:href="#m389ca29c87" y="342.589758"/>
    </g>
   </g>
   <g id="PathCollection_46">
    <g clip-path="url(#p7d51885ba9)">
     <use style="fill:#4169e1;fill-opacity:0.8;stroke:#4169e1;stroke-opacity:0.8;stroke-width:1.5;" x="113.957784" xlink:href="#m389ca29c87" y="326.692902"/>
    </g>
   </g>
   <g id="PathCollection_47">
    <g clip-path="url(#p7d51885ba9)">
     <use style="fill:#4169e1;fill-opacity:0.8;stroke:#4169e1;stroke-opacity:0.8;stroke-width:1.5;" x="146.083093" xlink:href="#m389ca29c87" y="310.796046"/>
    </g>
   </g>
   <g id="PathCollection_48">
    <g clip-path="url(#p7d51885ba9)">
     <use style="fill:#4169e1;fill-opacity:0.8;stroke:#4169e1;stroke-opacity:0.8;stroke-width:1.5;" x="83.813031" xlink:href="#m389ca29c87" y="215.41491"/>
    </g>
   </g>
   <g id="PathCollection_49">
    <g clip-path="url(#p7d51885ba9)">
     <use style="fill:#4169e1;fill-opacity:0.8;stroke:#4169e1;stroke-opacity:0.8;stroke-width:1.5;" x="80.377641" xlink:href="#m389ca29c87" y="199.518054"/>
    </g>
   </g>
   <g id="PathCollection_50">
    <g clip-path="url(#p7d51885ba9)">
     <use style="fill:#4169e1;fill-opacity:0.8;stroke:#4169e1;stroke-opacity:0.8;stroke-width:1.5;" x="74.800541" xlink:href="#m389ca29c87" y="167.724342"/>
    </g>
   </g>
   <g id="PathCollection_51">
    <g clip-path="url(#p7d51885ba9)">
     <use style="fill:#4169e1;fill-opacity:0.8;stroke:#4169e1;stroke-opacity:0.8;stroke-width:1.5;" x="75.511143" xlink:href="#m389ca29c87" y="151.827486"/>
    </g>
   </g>
   <g id="PathCollection_52">
    <g clip-path="url(#p7d51885ba9)">
     <use style="fill:#4169e1;fill-opacity:0.8;stroke:#4169e1;stroke-opacity:0.8;stroke-width:1.5;" x="150.976054" xlink:href="#m389ca29c87" y="120.033774"/>
    </g>
   </g>
   <g id="PathCollection_53">
    <g clip-path="url(#p7d51885ba9)">
     <use style="fill:#4169e1;fill-opacity:0.8;stroke:#4169e1;stroke-opacity:0.8;stroke-width:1.5;" x="168.876582" xlink:href="#m389ca29c87" y="104.136917"/>
    </g>
   </g>
   <g id="PathCollection_54">
    <defs>
     <path d="M -6.123724 0 
L 6.123724 0 
M 0 6.123724 
L 0 -6.123724 
" id="ma37735aada" style="stroke:#ff0000;stroke-opacity:0.8;stroke-width:1.5;"/>
    </defs>
    <g clip-path="url(#p7d51885ba9)">
     <use style="fill:#ff0000;fill-opacity:0.8;stroke:#ff0000;stroke-opacity:0.8;stroke-width:1.5;" x="117.673313" xlink:href="#ma37735aada" y="549.248886"/>
    </g>
   </g>
   <g id="PathCollection_55">
    <g clip-path="url(#p7d51885ba9)">
     <use style="fill:#ff0000;fill-opacity:0.8;stroke:#ff0000;stroke-opacity:0.8;stroke-width:1.5;" x="150.101741" xlink:href="#ma37735aada" y="533.35203"/>
    </g>
   </g>
   <g id="PathCollection_56">
    <g clip-path="url(#p7d51885ba9)">
     <use style="fill:#ff0000;fill-opacity:0.8;stroke:#ff0000;stroke-opacity:0.8;stroke-width:1.5;" x="83.659576" xlink:href="#ma37735aada" y="437.970894"/>
    </g>
   </g>
   <g id="PathCollection_57">
    <g clip-path="url(#p7d51885ba9)">
     <use style="fill:#ff0000;fill-opacity:0.8;stroke:#ff0000;stroke-opacity:0.8;stroke-width:1.5;" x="198.600612" xlink:href="#ma37735aada" y="390.280326"/>
    </g>
   </g>
   <g id="PathCollection_58">
    <g clip-path="url(#p7d51885ba9)">
     <use style="fill:#ff0000;fill-opacity:0.8;stroke:#ff0000;stroke-opacity:0.8;stroke-width:1.5;" x="146.512602" xlink:href="#ma37735aada" y="342.589758"/>
    </g>
   </g>
   <g id="PathCollection_59">
    <g clip-path="url(#p7d51885ba9)">
     <use style="fill:#ff0000;fill-opacity:0.8;stroke:#ff0000;stroke-opacity:0.8;stroke-width:1.5;" x="136.029333" xlink:href="#ma37735aada" y="326.692902"/>
    </g>
   </g>
   <g id="PathCollection_60">
    <g clip-path="url(#p7d51885ba9)">
     <use style="fill:#ff0000;fill-opacity:0.8;stroke:#ff0000;stroke-opacity:0.8;stroke-width:1.5;" x="96.886899" xlink:href="#ma37735aada" y="294.89919"/>
    </g>
   </g>
   <g id="PathCollection_61">
    <g clip-path="url(#p7d51885ba9)">
     <use style="fill:#ff0000;fill-opacity:0.8;stroke:#ff0000;stroke-opacity:0.8;stroke-width:1.5;" x="135.50101" xlink:href="#ma37735aada" y="279.002334"/>
    </g>
   </g>
   <g id="PathCollection_62">
    <g clip-path="url(#p7d51885ba9)">
     <use style="fill:#ff0000;fill-opacity:0.8;stroke:#ff0000;stroke-opacity:0.8;stroke-width:1.5;" x="74.348626" xlink:href="#ma37735aada" y="215.41491"/>
    </g>
   </g>
   <g id="PathCollection_63">
    <g clip-path="url(#p7d51885ba9)">
     <use style="fill:#ff0000;fill-opacity:0.8;stroke:#ff0000;stroke-opacity:0.8;stroke-width:1.5;" x="81.251026" xlink:href="#ma37735aada" y="183.621198"/>
    </g>
   </g>
   <g id="PathCollection_64">
    <g clip-path="url(#p7d51885ba9)">
     <use style="fill:#ff0000;fill-opacity:0.8;stroke:#ff0000;stroke-opacity:0.8;stroke-width:1.5;" x="87.354852" xlink:href="#ma37735aada" y="167.724342"/>
    </g>
   </g>
   <g id="PathCollection_65">
    <g clip-path="url(#p7d51885ba9)">
     <use style="fill:#ff0000;fill-opacity:0.8;stroke:#ff0000;stroke-opacity:0.8;stroke-width:1.5;" x="79.515031" xlink:href="#ma37735aada" y="135.93063"/>
    </g>
   </g>
   <g id="PathCollection_66">
    <g clip-path="url(#p7d51885ba9)">
     <use style="fill:#ff0000;fill-opacity:0.8;stroke:#ff0000;stroke-opacity:0.8;stroke-width:1.5;" x="127.155679" xlink:href="#ma37735aada" y="120.033774"/>
    </g>
   </g>
   <g id="PathCollection_67">
    <g clip-path="url(#p7d51885ba9)">
     <use style="fill:#ff0000;fill-opacity:0.8;stroke:#ff0000;stroke-opacity:0.8;stroke-width:1.5;" x="81.894825" xlink:href="#ma37735aada" y="104.136917"/>
    </g>
   </g>
   <g id="matplotlib.axis_1">
    <g id="xtick_1">
     <g id="line2d_1">
      <defs>
       <path d="M 0 0 
L 0 3.5 
" id="m8a2c6d5e6b" style="stroke:#000000;stroke-width:0.8;"/>
      </defs>
      <g>
       <use style="stroke:#000000;stroke-width:0.8;" x="73.39" xlink:href="#m8a2c6d5e6b" y="576.0144"/>
      </g>
     </g>
     <g id="text_1">
      <!-- 0.0 -->
      <defs>
       <path d="M 3.609375 32.71875 
Q 3.609375 44.046875 7.03125 52.21875 
Q 10.453125 60.40625 16.109375 64.40625 
Q 20.515625 67.578125 25.203125 67.578125 
Q 32.8125 67.578125 38.875 59.8125 
Q 46.4375 50.203125 46.4375 33.734375 
Q 46.4375 22.21875 43.109375 14.15625 
Q 39.796875 6.109375 34.640625 2.46875 
Q 29.5 -1.171875 24.703125 -1.171875 
Q 15.234375 -1.171875 8.9375 10.015625 
Q 3.609375 19.4375 3.609375 32.71875 
z
M 13.1875 31.5 
Q 13.1875 17.828125 16.546875 9.1875 
Q 19.34375 1.90625 24.859375 1.90625 
Q 27.484375 1.90625 30.3125 4.265625 
Q 33.15625 6.640625 34.625 12.203125 
Q 36.859375 20.609375 36.859375 35.890625 
Q 36.859375 47.21875 34.515625 54.78125 
Q 32.765625 60.40625 29.984375 62.75 
Q 27.984375 64.359375 25.140625 64.359375 
Q 21.828125 64.359375 19.234375 61.375 
Q 15.71875 57.328125 14.453125 48.625 
Q 13.1875 39.9375 13.1875 31.5 
z
" id="TimesNewRomanPSMT-30"/>
       <path d="M 12.5 9.46875 
Q 14.796875 9.46875 16.359375 7.875 
Q 17.921875 6.296875 17.921875 4.046875 
Q 17.921875 1.8125 16.328125 0.21875 
Q 14.75 -1.375 12.5 -1.375 
Q 10.25 -1.375 8.65625 0.21875 
Q 7.078125 1.8125 7.078125 4.046875 
Q 7.078125 6.34375 8.65625 7.90625 
Q 10.25 9.46875 12.5 9.46875 
z
" id="TimesNewRomanPSMT-2e"/>
      </defs>
      <g transform="translate(64.015 593.430025)scale(0.15 -0.15)">
       <use xlink:href="#TimesNewRomanPSMT-30"/>
       <use x="50" xlink:href="#TimesNewRomanPSMT-2e"/>
       <use x="75" xlink:href="#TimesNewRomanPSMT-30"/>
      </g>
     </g>
    </g>
    <g id="xtick_2">
     <g id="line2d_2">
      <g>
       <use style="stroke:#000000;stroke-width:0.8;" x="106.87" xlink:href="#m8a2c6d5e6b" y="576.0144"/>
      </g>
     </g>
     <g id="text_2">
      <!-- 0.5 -->
      <defs>
       <path d="M 43.40625 66.21875 
L 39.59375 57.90625 
L 19.671875 57.90625 
L 15.328125 49.03125 
Q 28.265625 47.125 35.84375 39.40625 
Q 42.328125 32.765625 42.328125 23.78125 
Q 42.328125 18.5625 40.203125 14.109375 
Q 38.09375 9.671875 34.859375 6.546875 
Q 31.640625 3.421875 27.6875 1.515625 
Q 22.078125 -1.171875 16.15625 -1.171875 
Q 10.203125 -1.171875 7.484375 0.84375 
Q 4.78125 2.875 4.78125 5.328125 
Q 4.78125 6.6875 5.90625 7.734375 
Q 7.03125 8.796875 8.734375 8.796875 
Q 10.015625 8.796875 10.96875 8.40625 
Q 11.921875 8.015625 14.203125 6.390625 
Q 17.875 3.859375 21.625 3.859375 
Q 27.34375 3.859375 31.65625 8.171875 
Q 35.984375 12.5 35.984375 18.703125 
Q 35.984375 24.703125 32.125 29.90625 
Q 28.265625 35.109375 21.484375 37.9375 
Q 16.15625 40.140625 6.984375 40.484375 
L 19.671875 66.21875 
z
" id="TimesNewRomanPSMT-35"/>
      </defs>
      <g transform="translate(97.495 593.430025)scale(0.15 -0.15)">
       <use xlink:href="#TimesNewRomanPSMT-30"/>
       <use x="50" xlink:href="#TimesNewRomanPSMT-2e"/>
       <use x="75" xlink:href="#TimesNewRomanPSMT-35"/>
      </g>
     </g>
    </g>
    <g id="xtick_3">
     <g id="line2d_3">
      <g>
       <use style="stroke:#000000;stroke-width:0.8;" x="140.35" xlink:href="#m8a2c6d5e6b" y="576.0144"/>
      </g>
     </g>
     <g id="text_3">
      <!-- 1.0 -->
      <defs>
       <path d="M 11.71875 59.71875 
L 27.828125 67.578125 
L 29.4375 67.578125 
L 29.4375 11.671875 
Q 29.4375 6.109375 29.90625 4.734375 
Q 30.375 3.375 31.828125 2.640625 
Q 33.296875 1.90625 37.796875 1.8125 
L 37.796875 0 
L 12.890625 0 
L 12.890625 1.8125 
Q 17.578125 1.90625 18.9375 2.609375 
Q 20.3125 3.328125 20.84375 4.515625 
Q 21.390625 5.71875 21.390625 11.671875 
L 21.390625 47.40625 
Q 21.390625 54.640625 20.90625 56.6875 
Q 20.5625 58.25 19.65625 58.984375 
Q 18.75 59.71875 17.484375 59.71875 
Q 15.671875 59.71875 12.453125 58.203125 
z
" id="TimesNewRomanPSMT-31"/>
      </defs>
      <g transform="translate(130.975 593.430025)scale(0.15 -0.15)">
       <use xlink:href="#TimesNewRomanPSMT-31"/>
       <use x="50" xlink:href="#TimesNewRomanPSMT-2e"/>
       <use x="75" xlink:href="#TimesNewRomanPSMT-30"/>
      </g>
     </g>
    </g>
    <g id="xtick_4">
     <g id="line2d_4">
      <g>
       <use style="stroke:#000000;stroke-width:0.8;" x="173.83" xlink:href="#m8a2c6d5e6b" y="576.0144"/>
      </g>
     </g>
     <g id="text_4">
      <!-- 1.5 -->
      <g transform="translate(164.455 593.430025)scale(0.15 -0.15)">
       <use xlink:href="#TimesNewRomanPSMT-31"/>
       <use x="50" xlink:href="#TimesNewRomanPSMT-2e"/>
       <use x="75" xlink:href="#TimesNewRomanPSMT-35"/>
      </g>
     </g>
    </g>
    <g id="xtick_5">
     <g id="line2d_5">
      <g>
       <use style="stroke:#000000;stroke-width:0.8;" x="207.31" xlink:href="#m8a2c6d5e6b" y="576.0144"/>
      </g>
     </g>
     <g id="text_5">
      <!-- 2.0 -->
      <defs>
       <path d="M 45.84375 12.75 
L 41.21875 0 
L 2.15625 0 
L 2.15625 1.8125 
Q 19.390625 17.53125 26.421875 27.484375 
Q 33.453125 37.453125 33.453125 45.703125 
Q 33.453125 52 29.59375 56.046875 
Q 25.734375 60.109375 20.359375 60.109375 
Q 15.484375 60.109375 11.59375 57.25 
Q 7.71875 54.390625 5.859375 48.875 
L 4.046875 48.875 
Q 5.28125 57.90625 10.328125 62.734375 
Q 15.375 67.578125 22.953125 67.578125 
Q 31 67.578125 36.390625 62.40625 
Q 41.796875 57.234375 41.796875 50.203125 
Q 41.796875 45.171875 39.453125 40.140625 
Q 35.84375 32.234375 27.734375 23.390625 
Q 15.578125 10.109375 12.546875 7.375 
L 29.828125 7.375 
Q 35.109375 7.375 37.234375 7.765625 
Q 39.359375 8.15625 41.0625 9.34375 
Q 42.78125 10.546875 44.046875 12.75 
z
" id="TimesNewRomanPSMT-32"/>
      </defs>
      <g transform="translate(197.935 593.430025)scale(0.15 -0.15)">
       <use xlink:href="#TimesNewRomanPSMT-32"/>
       <use x="50" xlink:href="#TimesNewRomanPSMT-2e"/>
       <use x="75" xlink:href="#TimesNewRomanPSMT-30"/>
      </g>
     </g>
    </g>
    <g id="text_6">
     <!-- Scaled values -->
     <defs>
      <path d="M 45.84375 67.71875 
L 45.84375 44.828125 
L 44.046875 44.828125 
Q 43.171875 51.421875 40.890625 55.328125 
Q 38.625 59.234375 34.421875 61.515625 
Q 30.21875 63.8125 25.734375 63.8125 
Q 20.65625 63.8125 17.328125 60.71875 
Q 14.015625 57.625 14.015625 53.65625 
Q 14.015625 50.640625 16.109375 48.140625 
Q 19.140625 44.484375 30.515625 38.375 
Q 39.796875 33.40625 43.1875 30.734375 
Q 46.578125 28.078125 48.40625 24.453125 
Q 50.25 20.84375 50.25 16.890625 
Q 50.25 9.375 44.40625 3.921875 
Q 38.578125 -1.515625 29.390625 -1.515625 
Q 26.515625 -1.515625 23.96875 -1.078125 
Q 22.46875 -0.828125 17.703125 0.703125 
Q 12.9375 2.25 11.671875 2.25 
Q 10.453125 2.25 9.734375 1.515625 
Q 9.03125 0.78125 8.6875 -1.515625 
L 6.890625 -1.515625 
L 6.890625 21.1875 
L 8.6875 21.1875 
Q 9.96875 14.0625 12.109375 10.515625 
Q 14.265625 6.984375 18.671875 4.640625 
Q 23.09375 2.296875 28.375 2.296875 
Q 34.46875 2.296875 38 5.515625 
Q 41.546875 8.734375 41.546875 13.140625 
Q 41.546875 15.578125 40.203125 18.0625 
Q 38.875 20.5625 36.03125 22.703125 
Q 34.125 24.171875 25.625 28.921875 
Q 17.140625 33.6875 13.546875 36.515625 
Q 9.96875 39.359375 8.109375 42.765625 
Q 6.25 46.1875 6.25 50.296875 
Q 6.25 57.421875 11.71875 62.5625 
Q 17.1875 67.71875 25.640625 67.71875 
Q 30.90625 67.71875 36.8125 65.140625 
Q 39.546875 63.921875 40.671875 63.921875 
Q 41.9375 63.921875 42.75 64.671875 
Q 43.5625 65.4375 44.046875 67.71875 
z
" id="TimesNewRomanPSMT-53"/>
      <path d="M 41.109375 17 
Q 39.3125 8.15625 34.03125 3.390625 
Q 28.765625 -1.375 22.359375 -1.375 
Q 14.75 -1.375 9.078125 5.015625 
Q 3.421875 11.421875 3.421875 22.3125 
Q 3.421875 32.859375 9.6875 39.453125 
Q 15.96875 46.046875 24.75 46.046875 
Q 31.34375 46.046875 35.59375 42.546875 
Q 39.84375 39.0625 39.84375 35.296875 
Q 39.84375 33.453125 38.640625 32.296875 
Q 37.453125 31.15625 35.296875 31.15625 
Q 32.421875 31.15625 30.953125 33.015625 
Q 30.125 34.03125 29.859375 36.90625 
Q 29.59375 39.796875 27.875 41.3125 
Q 26.171875 42.78125 23.140625 42.78125 
Q 18.265625 42.78125 15.28125 39.15625 
Q 11.328125 34.375 11.328125 26.515625 
Q 11.328125 18.5 15.25 12.375 
Q 19.1875 6.25 25.875 6.25 
Q 30.671875 6.25 34.46875 9.515625 
Q 37.15625 11.765625 39.703125 17.671875 
z
" id="TimesNewRomanPSMT-63"/>
      <path d="M 28.46875 6.453125 
Q 21.578125 1.125 19.828125 0.296875 
Q 17.1875 -0.921875 14.203125 -0.921875 
Q 9.578125 -0.921875 6.5625 2.25 
Q 3.5625 5.421875 3.5625 10.59375 
Q 3.5625 13.875 5.03125 16.265625 
Q 7.03125 19.578125 11.984375 22.5 
Q 16.9375 25.4375 28.46875 29.640625 
L 28.46875 31.390625 
Q 28.46875 38.09375 26.34375 40.578125 
Q 24.21875 43.0625 20.171875 43.0625 
Q 17.09375 43.0625 15.28125 41.40625 
Q 13.421875 39.75 13.421875 37.59375 
L 13.53125 34.765625 
Q 13.53125 32.515625 12.375 31.296875 
Q 11.234375 30.078125 9.375 30.078125 
Q 7.5625 30.078125 6.421875 31.34375 
Q 5.28125 32.625 5.28125 34.8125 
Q 5.28125 39.015625 9.578125 42.53125 
Q 13.875 46.046875 21.625 46.046875 
Q 27.59375 46.046875 31.390625 44.046875 
Q 34.28125 42.53125 35.640625 39.3125 
Q 36.53125 37.203125 36.53125 30.71875 
L 36.53125 15.53125 
Q 36.53125 9.125 36.765625 7.6875 
Q 37.015625 6.25 37.578125 5.765625 
Q 38.140625 5.28125 38.875 5.28125 
Q 39.65625 5.28125 40.234375 5.609375 
Q 41.265625 6.25 44.1875 9.1875 
L 44.1875 6.453125 
Q 38.71875 -0.875 33.734375 -0.875 
Q 31.34375 -0.875 29.921875 0.78125 
Q 28.515625 2.4375 28.46875 6.453125 
z
M 28.46875 9.625 
L 28.46875 26.65625 
Q 21.09375 23.734375 18.953125 22.515625 
Q 15.09375 20.359375 13.421875 18.015625 
Q 11.765625 15.671875 11.765625 12.890625 
Q 11.765625 9.375 13.859375 7.046875 
Q 15.96875 4.734375 18.703125 4.734375 
Q 22.40625 4.734375 28.46875 9.625 
z
" id="TimesNewRomanPSMT-61"/>
      <path d="M 18.5 69.4375 
L 18.5 10.109375 
Q 18.5 5.90625 19.109375 4.53125 
Q 19.734375 3.171875 21 2.46875 
Q 22.265625 1.765625 25.734375 1.765625 
L 25.734375 0 
L 3.8125 0 
L 3.8125 1.765625 
Q 6.890625 1.765625 8 2.390625 
Q 9.125 3.03125 9.765625 4.484375 
Q 10.40625 5.953125 10.40625 10.109375 
L 10.40625 50.734375 
Q 10.40625 58.296875 10.0625 60.03125 
Q 9.71875 61.765625 8.953125 62.390625 
Q 8.203125 63.03125 7.03125 63.03125 
Q 5.765625 63.03125 3.8125 62.25 
L 2.984375 63.96875 
L 16.3125 69.4375 
z
" id="TimesNewRomanPSMT-6c"/>
      <path d="M 10.640625 27.875 
Q 10.59375 17.921875 15.484375 12.25 
Q 20.359375 6.59375 26.953125 6.59375 
Q 31.34375 6.59375 34.59375 9 
Q 37.84375 11.421875 40.046875 17.28125 
L 41.546875 16.3125 
Q 40.53125 9.625 35.59375 4.125 
Q 30.671875 -1.375 23.25 -1.375 
Q 15.1875 -1.375 9.453125 4.90625 
Q 3.71875 11.1875 3.71875 21.78125 
Q 3.71875 33.25 9.59375 39.671875 
Q 15.484375 46.09375 24.359375 46.09375 
Q 31.890625 46.09375 36.71875 41.140625 
Q 41.546875 36.1875 41.546875 27.875 
z
M 10.640625 30.71875 
L 31.34375 30.71875 
Q 31.109375 35.015625 30.328125 36.765625 
Q 29.109375 39.5 26.6875 41.0625 
Q 24.265625 42.625 21.625 42.625 
Q 17.578125 42.625 14.375 39.46875 
Q 11.1875 36.328125 10.640625 30.71875 
z
" id="TimesNewRomanPSMT-65"/>
      <path d="M 34.71875 5.03125 
Q 31.453125 1.609375 28.328125 0.109375 
Q 25.203125 -1.375 21.578125 -1.375 
Q 14.265625 -1.375 8.796875 4.75 
Q 3.328125 10.890625 3.328125 20.515625 
Q 3.328125 30.125 9.375 38.109375 
Q 15.4375 46.09375 24.953125 46.09375 
Q 30.859375 46.09375 34.71875 42.328125 
L 34.71875 50.59375 
Q 34.71875 58.25 34.34375 60 
Q 33.984375 61.765625 33.203125 62.390625 
Q 32.421875 63.03125 31.25 63.03125 
Q 29.984375 63.03125 27.875 62.25 
L 27.25 63.96875 
L 40.578125 69.4375 
L 42.78125 69.4375 
L 42.78125 17.71875 
Q 42.78125 9.859375 43.140625 8.125 
Q 43.5 6.390625 44.3125 5.703125 
Q 45.125 5.03125 46.1875 5.03125 
Q 47.515625 5.03125 49.703125 5.859375 
L 50.25 4.15625 
L 36.96875 -1.375 
L 34.71875 -1.375 
z
M 34.71875 8.453125 
L 34.71875 31.5 
Q 34.421875 34.8125 32.953125 37.546875 
Q 31.5 40.28125 29.078125 41.671875 
Q 26.65625 43.0625 24.359375 43.0625 
Q 20.0625 43.0625 16.703125 39.203125 
Q 12.25 34.125 12.25 24.359375 
Q 12.25 14.5 16.546875 9.25 
Q 20.84375 4 26.125 4 
Q 30.5625 4 34.71875 8.453125 
z
" id="TimesNewRomanPSMT-64"/>
      <path id="TimesNewRomanPSMT-20"/>
      <path d="M 0.828125 44.734375 
L 21.875 44.734375 
L 21.875 42.921875 
L 20.515625 42.921875 
Q 18.609375 42.921875 17.609375 41.984375 
Q 16.609375 41.0625 16.609375 39.5 
Q 16.609375 37.796875 17.625 35.453125 
L 28.03125 10.75 
L 38.484375 36.375 
Q 39.59375 39.109375 39.59375 40.53125 
Q 39.59375 41.21875 39.203125 41.65625 
Q 38.671875 42.390625 37.84375 42.65625 
Q 37.015625 42.921875 34.46875 42.921875 
L 34.46875 44.734375 
L 49.078125 44.734375 
L 49.078125 42.921875 
Q 46.53125 42.71875 45.5625 41.890625 
Q 43.84375 40.4375 42.484375 37.015625 
L 26.609375 -1.375 
L 24.609375 -1.375 
L 8.640625 36.375 
Q 7.5625 39.015625 6.578125 40.15625 
Q 5.609375 41.3125 4.109375 42.09375 
Q 3.265625 42.53125 0.828125 42.921875 
z
" id="TimesNewRomanPSMT-76"/>
      <path d="M 42.328125 44.734375 
L 42.328125 17.625 
Q 42.328125 9.859375 42.6875 8.125 
Q 43.0625 6.390625 43.859375 5.703125 
Q 44.671875 5.03125 45.75 5.03125 
Q 47.265625 5.03125 49.171875 5.859375 
L 49.859375 4.15625 
L 36.46875 -1.375 
L 34.28125 -1.375 
L 34.28125 8.109375 
Q 28.515625 1.859375 25.484375 0.234375 
Q 22.46875 -1.375 19.09375 -1.375 
Q 15.328125 -1.375 12.5625 0.796875 
Q 9.8125 2.984375 8.734375 6.390625 
Q 7.671875 9.8125 7.671875 16.0625 
L 7.671875 36.03125 
Q 7.671875 39.203125 6.984375 40.421875 
Q 6.296875 41.65625 4.953125 42.3125 
Q 3.609375 42.96875 0.09375 42.921875 
L 0.09375 44.734375 
L 15.765625 44.734375 
L 15.765625 14.796875 
Q 15.765625 8.546875 17.9375 6.59375 
Q 20.125 4.640625 23.1875 4.640625 
Q 25.296875 4.640625 27.953125 5.953125 
Q 30.609375 7.28125 34.28125 10.984375 
L 34.28125 36.328125 
Q 34.28125 40.140625 32.890625 41.484375 
Q 31.5 42.828125 27.09375 42.921875 
L 27.09375 44.734375 
z
" id="TimesNewRomanPSMT-75"/>
      <path d="M 32.03125 46.046875 
L 32.03125 30.8125 
L 30.421875 30.8125 
Q 28.5625 37.984375 25.65625 40.578125 
Q 22.75 43.171875 18.265625 43.171875 
Q 14.84375 43.171875 12.734375 41.359375 
Q 10.640625 39.546875 10.640625 37.359375 
Q 10.640625 34.625 12.203125 32.671875 
Q 13.71875 30.671875 18.359375 28.421875 
L 25.484375 24.953125 
Q 35.40625 20.125 35.40625 12.203125 
Q 35.40625 6.109375 30.78125 2.359375 
Q 26.171875 -1.375 20.453125 -1.375 
Q 16.359375 -1.375 11.078125 0.09375 
Q 9.46875 0.59375 8.453125 0.59375 
Q 7.328125 0.59375 6.6875 -0.6875 
L 5.078125 -0.6875 
L 5.078125 15.28125 
L 6.6875 15.28125 
Q 8.0625 8.453125 11.90625 4.984375 
Q 15.765625 1.515625 20.5625 1.515625 
Q 23.921875 1.515625 26.046875 3.484375 
Q 28.171875 5.46875 28.171875 8.25 
Q 28.171875 11.625 25.796875 13.921875 
Q 23.4375 16.21875 16.359375 19.734375 
Q 9.28125 23.25 7.078125 26.078125 
Q 4.890625 28.859375 4.890625 33.109375 
Q 4.890625 38.625 8.671875 42.328125 
Q 12.453125 46.046875 18.453125 46.046875 
Q 21.09375 46.046875 24.859375 44.921875 
Q 27.34375 44.1875 28.171875 44.1875 
Q 28.953125 44.1875 29.390625 44.53125 
Q 29.828125 44.875 30.421875 46.046875 
z
" id="TimesNewRomanPSMT-73"/>
     </defs>
     <g transform="translate(93.851016 612.442994)scale(0.17 -0.17)">
      <use xlink:href="#TimesNewRomanPSMT-53"/>
      <use x="55.615234" xlink:href="#TimesNewRomanPSMT-63"/>
      <use x="100" xlink:href="#TimesNewRomanPSMT-61"/>
      <use x="144.384766" xlink:href="#TimesNewRomanPSMT-6c"/>
      <use x="172.167969" xlink:href="#TimesNewRomanPSMT-65"/>
      <use x="216.552734" xlink:href="#TimesNewRomanPSMT-64"/>
      <use x="266.552734" xlink:href="#TimesNewRomanPSMT-20"/>
      <use x="291.552734" xlink:href="#TimesNewRomanPSMT-76"/>
      <use x="341.552734" xlink:href="#TimesNewRomanPSMT-61"/>
      <use x="385.9375" xlink:href="#TimesNewRomanPSMT-6c"/>
      <use x="413.720703" xlink:href="#TimesNewRomanPSMT-75"/>
      <use x="463.720703" xlink:href="#TimesNewRomanPSMT-65"/>
      <use x="508.105469" xlink:href="#TimesNewRomanPSMT-73"/>
     </g>
    </g>
   </g>
   <g id="matplotlib.axis_2">
    <g id="ytick_1">
     <g id="line2d_6">
      <defs>
       <path d="M 0 0 
L -3.5 0 
" id="medb35c7160" style="stroke:#000000;stroke-width:0.8;"/>
      </defs>
      <g>
       <use style="stroke:#000000;stroke-width:0.8;" x="56.65" xlink:href="#medb35c7160" y="549.248886"/>
      </g>
     </g>
     <g id="text_7">
      <!-- $k_{ALP,4}$ -->
      <defs>
       <path d="M 18.3125 75.984375 
L 27.296875 75.984375 
L 18.703125 31.6875 
L 49.515625 54.6875 
L 61.1875 54.6875 
L 26.8125 28.515625 
L 51.90625 0 
L 41.015625 0 
L 17.671875 26.703125 
L 12.5 0 
L 3.515625 0 
z
" id="DejaVuSans-Oblique-6b"/>
       <path d="M 36.8125 72.90625 
L 48 72.90625 
L 61.53125 0 
L 51.21875 0 
L 48.1875 18.703125 
L 15.375 18.703125 
L 5.078125 0 
L -5.328125 0 
z
M 40.375 63.1875 
L 19.921875 26.90625 
L 46.6875 26.90625 
z
" id="DejaVuSans-Oblique-41"/>
       <path d="M 16.796875 72.90625 
L 26.703125 72.90625 
L 14.203125 8.203125 
L 49.703125 8.203125 
L 48.09375 0 
L 2.6875 0 
z
" id="DejaVuSans-Oblique-4c"/>
       <path d="M 16.890625 72.90625 
L 39.703125 72.90625 
Q 49.65625 72.90625 54.875 68.265625 
Q 60.109375 63.625 60.109375 54.6875 
Q 60.109375 42.671875 52.390625 35.984375 
Q 44.671875 29.296875 30.71875 29.296875 
L 18.3125 29.296875 
L 12.59375 0 
L 2.6875 0 
z
M 25.203125 64.796875 
L 19.921875 37.40625 
L 32.328125 37.40625 
Q 40.71875 37.40625 45.203125 41.703125 
Q 49.703125 46 49.703125 54 
Q 49.703125 59.125 46.65625 61.953125 
Q 43.609375 64.796875 38.09375 64.796875 
z
" id="DejaVuSans-Oblique-50"/>
       <path d="M 11.71875 12.40625 
L 22.015625 12.40625 
L 22.015625 4 
L 14.015625 -11.625 
L 7.71875 -11.625 
L 11.71875 4 
z
" id="DejaVuSans-2c"/>
       <path d="M 37.796875 64.3125 
L 12.890625 25.390625 
L 37.796875 25.390625 
z
M 35.203125 72.90625 
L 47.609375 72.90625 
L 47.609375 25.390625 
L 58.015625 25.390625 
L 58.015625 17.1875 
L 47.609375 17.1875 
L 47.609375 0 
L 37.796875 0 
L 37.796875 17.1875 
L 4.890625 17.1875 
L 4.890625 26.703125 
z
" id="DejaVuSans-34"/>
      </defs>
      <g transform="translate(9 554.948886)scale(0.15 -0.15)">
       <use transform="translate(0 0.015625)" xlink:href="#DejaVuSans-Oblique-6b"/>
       <use transform="translate(57.910156 -16.390625)scale(0.7)" xlink:href="#DejaVuSans-Oblique-41"/>
       <use transform="translate(105.795898 -16.390625)scale(0.7)" xlink:href="#DejaVuSans-Oblique-4c"/>
       <use transform="translate(144.794922 -16.390625)scale(0.7)" xlink:href="#DejaVuSans-Oblique-50"/>
       <use transform="translate(187.006836 -16.390625)scale(0.7)" xlink:href="#DejaVuSans-2c"/>
       <use transform="translate(222.895508 -16.390625)scale(0.7)" xlink:href="#DejaVuSans-34"/>
      </g>
     </g>
    </g>
    <g id="ytick_2">
     <g id="line2d_7">
      <g>
       <use style="stroke:#000000;stroke-width:0.8;" x="56.65" xlink:href="#medb35c7160" y="533.35203"/>
      </g>
     </g>
     <g id="text_8">
      <!-- $k_{OC,4}$ -->
      <defs>
       <path d="M 45.609375 66.21875 
Q 37.5 66.21875 31.296875 62.28125 
Q 25.09375 58.34375 20.515625 50.296875 
Q 17.578125 45.171875 16.03125 39.40625 
Q 14.5 33.640625 14.5 27.78125 
Q 14.5 17.625 19.359375 12.109375 
Q 24.21875 6.59375 33.109375 6.59375 
Q 41.109375 6.59375 47.375 10.5625 
Q 53.65625 14.546875 58.109375 22.40625 
Q 61.078125 27.6875 62.640625 33.46875 
Q 64.203125 39.265625 64.203125 45.015625 
Q 64.203125 55.125 59.3125 60.671875 
Q 54.4375 66.21875 45.609375 66.21875 
z
M 32.8125 -1.421875 
Q 19.390625 -1.421875 11.6875 6.53125 
Q 4 14.5 4 28.328125 
Q 4 36.234375 7 44.484375 
Q 10.015625 52.734375 15.28125 59.1875 
Q 21.484375 66.75 29.09375 70.484375 
Q 36.71875 74.21875 45.90625 74.21875 
Q 59.28125 74.21875 66.984375 66.328125 
Q 74.703125 58.453125 74.703125 44.828125 
Q 74.703125 36.421875 71.765625 28.3125 
Q 68.84375 20.21875 63.375 13.625 
Q 57.125 6 49.578125 2.28125 
Q 42.046875 -1.421875 32.8125 -1.421875 
z
" id="DejaVuSans-Oblique-4f"/>
       <path d="M 69.484375 67.28125 
L 67.484375 56.890625 
Q 62.796875 61.625 57.546875 63.921875 
Q 52.296875 66.21875 46.1875 66.21875 
Q 37.84375 66.21875 31.515625 62.203125 
Q 25.203125 58.203125 20.609375 50 
Q 17.671875 44.734375 16.125 38.84375 
Q 14.59375 32.953125 14.59375 27 
Q 14.59375 17.046875 19.75 11.8125 
Q 24.90625 6.59375 34.71875 6.59375 
Q 41.5 6.59375 47.75 8.765625 
Q 54 10.9375 59.90625 15.28125 
L 57.625 3.609375 
Q 51.8125 1.125 45.875 -0.140625 
Q 39.9375 -1.421875 33.984375 -1.421875 
Q 19.96875 -1.421875 12.078125 6.1875 
Q 4.203125 13.8125 4.203125 27.390625 
Q 4.203125 36.078125 7.203125 44.46875 
Q 10.203125 52.875 15.828125 59.8125 
Q 21.78125 67.1875 29.421875 70.703125 
Q 37.0625 74.21875 47.21875 74.21875 
Q 53.46875 74.21875 59.0625 72.484375 
Q 64.65625 70.75 69.484375 67.28125 
z
" id="DejaVuSans-Oblique-43"/>
      </defs>
      <g transform="translate(12.75 539.05203)scale(0.15 -0.15)">
       <use transform="translate(0 0.015625)" xlink:href="#DejaVuSans-Oblique-6b"/>
       <use transform="translate(57.910156 -16.390625)scale(0.7)" xlink:href="#DejaVuSans-Oblique-4f"/>
       <use transform="translate(113.007812 -16.390625)scale(0.7)" xlink:href="#DejaVuSans-Oblique-43"/>
       <use transform="translate(161.884766 -16.390625)scale(0.7)" xlink:href="#DejaVuSans-2c"/>
       <use transform="translate(197.773438 -16.390625)scale(0.7)" xlink:href="#DejaVuSans-34"/>
      </g>
     </g>
    </g>
    <g id="ytick_3">
     <g id="line2d_8">
      <g>
       <use style="stroke:#000000;stroke-width:0.8;" x="56.65" xlink:href="#medb35c7160" y="517.455174"/>
      </g>
     </g>
     <g id="text_9">
      <!-- $k_{ALP,3}$ -->
      <defs>
       <path d="M 40.578125 39.3125 
Q 47.65625 37.796875 51.625 33 
Q 55.609375 28.21875 55.609375 21.1875 
Q 55.609375 10.40625 48.1875 4.484375 
Q 40.765625 -1.421875 27.09375 -1.421875 
Q 22.515625 -1.421875 17.65625 -0.515625 
Q 12.796875 0.390625 7.625 2.203125 
L 7.625 11.71875 
Q 11.71875 9.328125 16.59375 8.109375 
Q 21.484375 6.890625 26.8125 6.890625 
Q 36.078125 6.890625 40.9375 10.546875 
Q 45.796875 14.203125 45.796875 21.1875 
Q 45.796875 27.640625 41.28125 31.265625 
Q 36.765625 34.90625 28.71875 34.90625 
L 20.21875 34.90625 
L 20.21875 43.015625 
L 29.109375 43.015625 
Q 36.375 43.015625 40.234375 45.921875 
Q 44.09375 48.828125 44.09375 54.296875 
Q 44.09375 59.90625 40.109375 62.90625 
Q 36.140625 65.921875 28.71875 65.921875 
Q 24.65625 65.921875 20.015625 65.03125 
Q 15.375 64.15625 9.8125 62.3125 
L 9.8125 71.09375 
Q 15.4375 72.65625 20.34375 73.4375 
Q 25.25 74.21875 29.59375 74.21875 
Q 40.828125 74.21875 47.359375 69.109375 
Q 53.90625 64.015625 53.90625 55.328125 
Q 53.90625 49.265625 50.4375 45.09375 
Q 46.96875 40.921875 40.578125 39.3125 
z
" id="DejaVuSans-33"/>
      </defs>
      <g transform="translate(9 523.155174)scale(0.15 -0.15)">
       <use transform="translate(0 0.015625)" xlink:href="#DejaVuSans-Oblique-6b"/>
       <use transform="translate(57.910156 -16.390625)scale(0.7)" xlink:href="#DejaVuSans-Oblique-41"/>
       <use transform="translate(105.795898 -16.390625)scale(0.7)" xlink:href="#DejaVuSans-Oblique-4c"/>
       <use transform="translate(144.794922 -16.390625)scale(0.7)" xlink:href="#DejaVuSans-Oblique-50"/>
       <use transform="translate(187.006836 -16.390625)scale(0.7)" xlink:href="#DejaVuSans-2c"/>
       <use transform="translate(222.895508 -16.390625)scale(0.7)" xlink:href="#DejaVuSans-33"/>
      </g>
     </g>
    </g>
    <g id="ytick_4">
     <g id="line2d_9">
      <g>
       <use style="stroke:#000000;stroke-width:0.8;" x="56.65" xlink:href="#medb35c7160" y="501.558318"/>
      </g>
     </g>
     <g id="text_10">
      <!-- $k_{ARS,3}$ -->
      <defs>
       <path d="M 25.203125 64.796875 
L 20.21875 38.921875 
L 32.90625 38.921875 
Q 40.375 38.921875 44.984375 43.046875 
Q 49.609375 47.171875 49.609375 53.8125 
Q 49.609375 59.125 46.5 61.953125 
Q 43.40625 64.796875 37.59375 64.796875 
z
M 43.3125 35.015625 
Q 46.4375 34.28125 48.515625 31.390625 
Q 50.59375 28.515625 53.328125 19.921875 
L 59.515625 0 
L 49.125 0 
L 43.40625 18.703125 
Q 41.21875 25.921875 38.328125 28.359375 
Q 35.453125 30.8125 29.5 30.8125 
L 18.609375 30.8125 
L 12.59375 0 
L 2.6875 0 
L 16.890625 72.90625 
L 39.109375 72.90625 
Q 49.21875 72.90625 54.609375 68.328125 
Q 60.015625 63.765625 60.015625 55.171875 
Q 60.015625 47.5625 55.421875 41.984375 
Q 50.828125 36.421875 43.3125 35.015625 
z
" id="DejaVuSans-Oblique-52"/>
       <path d="M 60.296875 70.515625 
L 58.40625 60.890625 
Q 53.46875 63.53125 48.609375 64.875 
Q 43.75 66.21875 39.203125 66.21875 
Q 30.375 66.21875 25.140625 62.359375 
Q 19.921875 58.5 19.921875 52.09375 
Q 19.921875 48.578125 21.84375 46.703125 
Q 23.78125 44.828125 31.78125 42.671875 
L 37.703125 41.21875 
Q 47.703125 38.625 51.609375 34.640625 
Q 55.515625 30.671875 55.515625 23.484375 
Q 55.515625 12.453125 46.84375 5.515625 
Q 38.1875 -1.421875 24.03125 -1.421875 
Q 18.21875 -1.421875 12.359375 -0.265625 
Q 6.5 0.875 0.59375 3.21875 
L 2.59375 13.375 
Q 8.015625 10.015625 13.453125 8.296875 
Q 18.890625 6.59375 24.3125 6.59375 
Q 33.546875 6.59375 39.109375 10.6875 
Q 44.671875 14.796875 44.671875 21.390625 
Q 44.671875 25.78125 42.453125 28.046875 
Q 40.234375 30.328125 32.90625 32.171875 
L 27 33.6875 
Q 16.890625 36.328125 13.203125 39.765625 
Q 9.515625 43.21875 9.515625 49.421875 
Q 9.515625 60.296875 17.890625 67.25 
Q 26.265625 74.21875 39.703125 74.21875 
Q 44.921875 74.21875 50.046875 73.28125 
Q 55.171875 72.359375 60.296875 70.515625 
z
" id="DejaVuSans-Oblique-53"/>
      </defs>
      <g transform="translate(7.2 507.258318)scale(0.15 -0.15)">
       <use transform="translate(0 0.015625)" xlink:href="#DejaVuSans-Oblique-6b"/>
       <use transform="translate(57.910156 -16.390625)scale(0.7)" xlink:href="#DejaVuSans-Oblique-41"/>
       <use transform="translate(105.795898 -16.390625)scale(0.7)" xlink:href="#DejaVuSans-Oblique-52"/>
       <use transform="translate(154.433594 -16.390625)scale(0.7)" xlink:href="#DejaVuSans-Oblique-53"/>
       <use transform="translate(198.867188 -16.390625)scale(0.7)" xlink:href="#DejaVuSans-2c"/>
       <use transform="translate(234.755859 -16.390625)scale(0.7)" xlink:href="#DejaVuSans-33"/>
      </g>
     </g>
    </g>
    <g id="ytick_5">
     <g id="line2d_10">
      <g>
       <use style="stroke:#000000;stroke-width:0.8;" x="56.65" xlink:href="#medb35c7160" y="485.661462"/>
      </g>
     </g>
     <g id="text_11">
      <!-- $k_{ALP,2}$ -->
      <defs>
       <path d="M 19.1875 8.296875 
L 53.609375 8.296875 
L 53.609375 0 
L 7.328125 0 
L 7.328125 8.296875 
Q 12.9375 14.109375 22.625 23.890625 
Q 32.328125 33.6875 34.8125 36.53125 
Q 39.546875 41.84375 41.421875 45.53125 
Q 43.3125 49.21875 43.3125 52.78125 
Q 43.3125 58.59375 39.234375 62.25 
Q 35.15625 65.921875 28.609375 65.921875 
Q 23.96875 65.921875 18.8125 64.3125 
Q 13.671875 62.703125 7.8125 59.421875 
L 7.8125 69.390625 
Q 13.765625 71.78125 18.9375 73 
Q 24.125 74.21875 28.421875 74.21875 
Q 39.75 74.21875 46.484375 68.546875 
Q 53.21875 62.890625 53.21875 53.421875 
Q 53.21875 48.921875 51.53125 44.890625 
Q 49.859375 40.875 45.40625 35.40625 
Q 44.1875 33.984375 37.640625 27.21875 
Q 31.109375 20.453125 19.1875 8.296875 
z
" id="DejaVuSans-32"/>
      </defs>
      <g transform="translate(9 491.361462)scale(0.15 -0.15)">
       <use transform="translate(0 0.015625)" xlink:href="#DejaVuSans-Oblique-6b"/>
       <use transform="translate(57.910156 -16.390625)scale(0.7)" xlink:href="#DejaVuSans-Oblique-41"/>
       <use transform="translate(105.795898 -16.390625)scale(0.7)" xlink:href="#DejaVuSans-Oblique-4c"/>
       <use transform="translate(144.794922 -16.390625)scale(0.7)" xlink:href="#DejaVuSans-Oblique-50"/>
       <use transform="translate(187.006836 -16.390625)scale(0.7)" xlink:href="#DejaVuSans-2c"/>
       <use transform="translate(222.895508 -16.390625)scale(0.7)" xlink:href="#DejaVuSans-32"/>
      </g>
     </g>
    </g>
    <g id="ytick_6">
     <g id="line2d_11">
      <g>
       <use style="stroke:#000000;stroke-width:0.8;" x="56.65" xlink:href="#medb35c7160" y="469.764606"/>
      </g>
     </g>
     <g id="text_12">
      <!-- $k_{ARS,2}$ -->
      <g transform="translate(7.2 475.464606)scale(0.15 -0.15)">
       <use transform="translate(0 0.015625)" xlink:href="#DejaVuSans-Oblique-6b"/>
       <use transform="translate(57.910156 -16.390625)scale(0.7)" xlink:href="#DejaVuSans-Oblique-41"/>
       <use transform="translate(105.795898 -16.390625)scale(0.7)" xlink:href="#DejaVuSans-Oblique-52"/>
       <use transform="translate(154.433594 -16.390625)scale(0.7)" xlink:href="#DejaVuSans-Oblique-53"/>
       <use transform="translate(198.867188 -16.390625)scale(0.7)" xlink:href="#DejaVuSans-2c"/>
       <use transform="translate(234.755859 -16.390625)scale(0.7)" xlink:href="#DejaVuSans-32"/>
      </g>
     </g>
    </g>
    <g id="ytick_7">
     <g id="line2d_12">
      <g>
       <use style="stroke:#000000;stroke-width:0.8;" x="56.65" xlink:href="#medb35c7160" y="453.86775"/>
      </g>
     </g>
     <g id="text_13">
      <!-- $k_{ALP,1}$ -->
      <defs>
       <path d="M 12.40625 8.296875 
L 28.515625 8.296875 
L 28.515625 63.921875 
L 10.984375 60.40625 
L 10.984375 69.390625 
L 28.421875 72.90625 
L 38.28125 72.90625 
L 38.28125 8.296875 
L 54.390625 8.296875 
L 54.390625 0 
L 12.40625 0 
z
" id="DejaVuSans-31"/>
      </defs>
      <g transform="translate(9 459.56775)scale(0.15 -0.15)">
       <use transform="translate(0 0.015625)" xlink:href="#DejaVuSans-Oblique-6b"/>
       <use transform="translate(57.910156 -16.390625)scale(0.7)" xlink:href="#DejaVuSans-Oblique-41"/>
       <use transform="translate(105.795898 -16.390625)scale(0.7)" xlink:href="#DejaVuSans-Oblique-4c"/>
       <use transform="translate(144.794922 -16.390625)scale(0.7)" xlink:href="#DejaVuSans-Oblique-50"/>
       <use transform="translate(187.006836 -16.390625)scale(0.7)" xlink:href="#DejaVuSans-2c"/>
       <use transform="translate(222.895508 -16.390625)scale(0.7)" xlink:href="#DejaVuSans-31"/>
      </g>
     </g>
    </g>
    <g id="ytick_8">
     <g id="line2d_13">
      <g>
       <use style="stroke:#000000;stroke-width:0.8;" x="56.65" xlink:href="#medb35c7160" y="437.970894"/>
      </g>
     </g>
     <g id="text_14">
      <!-- $\alpha_{es}$ -->
      <defs>
       <path d="M 40.921875 25.4375 
L 40.96875 36.71875 
Q 41.015625 48.25 32.328125 48.296875 
Q 25.828125 48.34375 21.78125 42.921875 
Q 16.703125 36.234375 14.984375 27.296875 
Q 12.890625 16.546875 15.53125 11.421875 
Q 18.265625 6.203125 24.171875 6.203125 
Q 30.71875 6.203125 36.234375 16.609375 
z
M 33.84375 55.90625 
Q 49.078125 56.15625 48.875 40.375 
Q 48.875 40.375 56.5 54.6875 
L 64.5 54.6875 
L 48.734375 25.046875 
L 48.578125 14.359375 
Q 48.578125 11.96875 49.90625 9.96875 
Q 51.421875 7.625 52.984375 7.625 
L 57.328125 7.625 
L 55.859375 0 
L 50.4375 0 
Q 45.84375 0 42.53125 4.109375 
Q 40.96875 6.15625 40.921875 10.453125 
Q 37.75 5.21875 32.28125 0.78125 
Q 29.6875 -1.265625 22.703125 -1.21875 
Q 11.28125 -1.125 7.125 6.203125 
Q 2.875 13.8125 5.515625 27.296875 
Q 8.34375 41.796875 15.765625 48.390625 
Q 24.125 55.765625 33.84375 55.90625 
z
" id="DejaVuSans-Oblique-3b1"/>
       <path d="M 48.09375 32.234375 
Q 48.25 33.015625 48.3125 33.84375 
Q 48.390625 34.671875 48.390625 35.5 
Q 48.390625 41.453125 44.890625 44.921875 
Q 41.40625 48.390625 35.40625 48.390625 
Q 28.71875 48.390625 23.578125 44.15625 
Q 18.453125 39.9375 15.828125 32.171875 
z
M 55.90625 25.203125 
L 14.109375 25.203125 
Q 13.8125 23.34375 13.71875 22.265625 
Q 13.625 21.1875 13.625 20.40625 
Q 13.625 13.625 17.796875 9.90625 
Q 21.96875 6.203125 29.59375 6.203125 
Q 35.453125 6.203125 40.671875 7.515625 
Q 45.90625 8.84375 50.390625 11.375 
L 48.6875 2.484375 
Q 43.84375 0.53125 38.6875 -0.4375 
Q 33.546875 -1.421875 28.21875 -1.421875 
Q 16.84375 -1.421875 10.71875 4.015625 
Q 4.59375 9.46875 4.59375 19.484375 
Q 4.59375 28.03125 7.640625 35.375 
Q 10.6875 42.71875 16.609375 48.484375 
Q 20.40625 52.09375 25.65625 54.046875 
Q 30.90625 56 36.8125 56 
Q 46.09375 56 51.578125 50.4375 
Q 57.078125 44.875 57.078125 35.5 
Q 57.078125 33.25 56.78125 30.6875 
Q 56.5 28.125 55.90625 25.203125 
z
" id="DejaVuSans-Oblique-65"/>
       <path d="M 50 53.078125 
L 48.296875 44.578125 
Q 44.734375 46.53125 40.765625 47.5 
Q 36.8125 48.484375 32.625 48.484375 
Q 25.53125 48.484375 21.453125 46.0625 
Q 17.390625 43.65625 17.390625 39.5 
Q 17.390625 34.671875 26.859375 32.078125 
Q 27.59375 31.890625 27.9375 31.78125 
L 30.8125 30.90625 
Q 39.796875 28.421875 42.796875 25.6875 
Q 45.796875 22.953125 45.796875 18.21875 
Q 45.796875 9.515625 38.890625 4.046875 
Q 31.984375 -1.421875 20.796875 -1.421875 
Q 16.453125 -1.421875 11.671875 -0.578125 
Q 6.890625 0.25 1.125 2 
L 2.875 11.28125 
Q 7.8125 8.734375 12.59375 7.421875 
Q 17.390625 6.109375 21.78125 6.109375 
Q 28.375 6.109375 32.5 8.9375 
Q 36.625 11.765625 36.625 16.109375 
Q 36.625 20.796875 25.78125 23.6875 
L 24.859375 23.921875 
L 21.78125 24.703125 
Q 14.9375 26.515625 11.765625 29.46875 
Q 8.59375 32.421875 8.59375 37.015625 
Q 8.59375 45.75 15.15625 50.875 
Q 21.734375 56 33.015625 56 
Q 37.453125 56 41.671875 55.265625 
Q 45.90625 54.546875 50 53.078125 
z
" id="DejaVuSans-Oblique-73"/>
      </defs>
      <g transform="translate(27.3 443.178707)scale(0.15 -0.15)">
       <use transform="translate(0 0.84375)" xlink:href="#DejaVuSans-Oblique-3b1"/>
       <use transform="translate(65.917969 -15.5625)scale(0.7)" xlink:href="#DejaVuSans-Oblique-65"/>
       <use transform="translate(108.984375 -15.5625)scale(0.7)" xlink:href="#DejaVuSans-Oblique-73"/>
      </g>
     </g>
    </g>
    <g id="ytick_9">
     <g id="line2d_14">
      <g>
       <use style="stroke:#000000;stroke-width:0.8;" x="56.65" xlink:href="#medb35c7160" y="422.074038"/>
      </g>
     </g>
     <g id="text_15">
      <!-- $\alpha_{ei}$ -->
      <defs>
       <path d="M 18.3125 75.984375 
L 27.296875 75.984375 
L 25.09375 64.59375 
L 16.109375 64.59375 
z
M 14.203125 54.6875 
L 23.1875 54.6875 
L 12.5 0 
L 3.515625 0 
z
" id="DejaVuSans-Oblique-69"/>
      </defs>
      <g transform="translate(29.85 427.281851)scale(0.15 -0.15)">
       <use transform="translate(0 0.84375)" xlink:href="#DejaVuSans-Oblique-3b1"/>
       <use transform="translate(65.917969 -15.5625)scale(0.7)" xlink:href="#DejaVuSans-Oblique-65"/>
       <use transform="translate(108.984375 -15.5625)scale(0.7)" xlink:href="#DejaVuSans-Oblique-69"/>
      </g>
     </g>
    </g>
    <g id="ytick_10">
     <g id="line2d_15">
      <g>
       <use style="stroke:#000000;stroke-width:0.8;" x="56.65" xlink:href="#medb35c7160" y="406.177182"/>
      </g>
     </g>
     <g id="text_16">
      <!-- $\alpha_{ls}$ -->
      <defs>
       <path d="M 18.3125 75.984375 
L 27.296875 75.984375 
L 12.5 0 
L 3.515625 0 
z
" id="DejaVuSans-Oblique-6c"/>
      </defs>
      <g transform="translate(30.9 411.384995)scale(0.15 -0.15)">
       <use transform="translate(0 0.84375)" xlink:href="#DejaVuSans-Oblique-3b1"/>
       <use transform="translate(65.917969 -15.5625)scale(0.7)" xlink:href="#DejaVuSans-Oblique-6c"/>
       <use transform="translate(85.366211 -15.5625)scale(0.7)" xlink:href="#DejaVuSans-Oblique-73"/>
      </g>
     </g>
    </g>
    <g id="ytick_11">
     <g id="line2d_16">
      <g>
       <use style="stroke:#000000;stroke-width:0.8;" x="56.65" xlink:href="#medb35c7160" y="390.280326"/>
      </g>
     </g>
     <g id="text_17">
      <!-- $\alpha_{li}$ -->
      <g transform="translate(33.45 395.488139)scale(0.15 -0.15)">
       <use transform="translate(0 0.84375)" xlink:href="#DejaVuSans-Oblique-3b1"/>
       <use transform="translate(65.917969 -15.5625)scale(0.7)" xlink:href="#DejaVuSans-Oblique-6c"/>
       <use transform="translate(85.366211 -15.5625)scale(0.7)" xlink:href="#DejaVuSans-Oblique-69"/>
      </g>
     </g>
    </g>
    <g id="ytick_12">
     <g id="line2d_17">
      <g>
       <use style="stroke:#000000;stroke-width:0.8;" x="56.65" xlink:href="#medb35c7160" y="374.38347"/>
      </g>
     </g>
     <g id="text_18">
      <!-- $p_{es}$ -->
      <defs>
       <path d="M 49.609375 33.6875 
Q 49.609375 40.875 46.484375 44.671875 
Q 43.359375 48.484375 37.5 48.484375 
Q 33.5 48.484375 29.859375 46.4375 
Q 26.21875 44.390625 23.390625 40.484375 
Q 20.609375 36.625 18.9375 31.15625 
Q 17.28125 25.6875 17.28125 20.3125 
Q 17.28125 13.484375 20.40625 9.796875 
Q 23.53125 6.109375 29.296875 6.109375 
Q 33.546875 6.109375 37.1875 8.109375 
Q 40.828125 10.109375 43.40625 13.921875 
Q 46.1875 17.921875 47.890625 23.34375 
Q 49.609375 28.765625 49.609375 33.6875 
z
M 21.78125 46.390625 
Q 25.390625 51.125 30.296875 53.5625 
Q 35.203125 56 41.21875 56 
Q 49.609375 56 54.25 50.5 
Q 58.890625 45.015625 58.890625 35.109375 
Q 58.890625 27 56 19.65625 
Q 53.125 12.3125 47.703125 6.5 
Q 44.09375 2.640625 39.546875 0.609375 
Q 35.015625 -1.421875 29.984375 -1.421875 
Q 24.171875 -1.421875 20.21875 1 
Q 16.265625 3.421875 14.3125 8.203125 
L 8.6875 -20.796875 
L -0.296875 -20.796875 
L 14.40625 54.6875 
L 23.390625 54.6875 
z
" id="DejaVuSans-Oblique-70"/>
      </defs>
      <g transform="translate(27.75 379.591283)scale(0.15 -0.15)">
       <use xlink:href="#DejaVuSans-Oblique-70"/>
       <use transform="translate(63.476562 -16.40625)scale(0.7)" xlink:href="#DejaVuSans-Oblique-65"/>
       <use transform="translate(106.542969 -16.40625)scale(0.7)" xlink:href="#DejaVuSans-Oblique-73"/>
      </g>
     </g>
    </g>
    <g id="ytick_13">
     <g id="line2d_18">
      <g>
       <use style="stroke:#000000;stroke-width:0.8;" x="56.65" xlink:href="#medb35c7160" y="358.486614"/>
      </g>
     </g>
     <g id="text_19">
      <!-- $p_{ef}$ -->
      <defs>
       <path d="M 47.796875 75.984375 
L 46.390625 68.5 
L 37.796875 68.5 
Q 32.90625 68.5 30.6875 66.578125 
Q 28.46875 64.65625 27.390625 59.515625 
L 26.421875 54.6875 
L 41.21875 54.6875 
L 39.890625 47.703125 
L 25.09375 47.703125 
L 15.828125 0 
L 6.78125 0 
L 16.109375 47.703125 
L 7.515625 47.703125 
L 8.796875 54.6875 
L 17.390625 54.6875 
L 18.109375 58.5 
Q 19.96875 68.171875 24.625 72.078125 
Q 29.296875 75.984375 39.3125 75.984375 
z
" id="DejaVuSans-Oblique-66"/>
      </defs>
      <g transform="translate(29.55 363.694427)scale(0.15 -0.15)">
       <use xlink:href="#DejaVuSans-Oblique-70"/>
       <use transform="translate(63.476562 -16.40625)scale(0.7)" xlink:href="#DejaVuSans-Oblique-65"/>
       <use transform="translate(106.542969 -16.40625)scale(0.7)" xlink:href="#DejaVuSans-Oblique-66"/>
      </g>
     </g>
    </g>
    <g id="ytick_14">
     <g id="line2d_19">
      <g>
       <use style="stroke:#000000;stroke-width:0.8;" x="56.65" xlink:href="#medb35c7160" y="342.589758"/>
      </g>
     </g>
     <g id="text_20">
      <!-- $p_{evf}$ -->
      <defs>
       <path d="M 7.171875 54.6875 
L 16.703125 54.6875 
L 24.703125 8.203125 
L 50.875 54.6875 
L 60.40625 54.6875 
L 29.296875 0 
L 17.1875 0 
z
" id="DejaVuSans-Oblique-76"/>
      </defs>
      <g transform="translate(23.25 347.79757)scale(0.15 -0.15)">
       <use xlink:href="#DejaVuSans-Oblique-70"/>
       <use transform="translate(63.476562 -16.40625)scale(0.7)" xlink:href="#DejaVuSans-Oblique-65"/>
       <use transform="translate(106.542969 -16.40625)scale(0.7)" xlink:href="#DejaVuSans-Oblique-76"/>
       <use transform="translate(147.96875 -16.40625)scale(0.7)" xlink:href="#DejaVuSans-Oblique-66"/>
      </g>
     </g>
    </g>
    <g id="ytick_15">
     <g id="line2d_20">
      <g>
       <use style="stroke:#000000;stroke-width:0.8;" x="56.65" xlink:href="#medb35c7160" y="326.692902"/>
      </g>
     </g>
     <g id="text_21">
      <!-- $p_{ds}$ -->
      <defs>
       <path d="M 41.796875 8.203125 
Q 38.1875 3.46875 33.25 1.015625 
Q 28.328125 -1.421875 22.3125 -1.421875 
Q 14.109375 -1.421875 9.34375 4.171875 
Q 4.59375 9.765625 4.59375 19.484375 
Q 4.59375 27.59375 7.46875 34.9375 
Q 10.359375 42.28125 15.828125 48.09375 
Q 19.4375 51.953125 23.96875 53.96875 
Q 28.515625 56 33.5 56 
Q 38.765625 56 42.796875 53.453125 
Q 46.828125 50.921875 49.03125 46.1875 
L 54.890625 75.984375 
L 63.921875 75.984375 
L 49.125 0 
L 40.09375 0 
z
M 13.921875 21.09375 
Q 13.921875 14.015625 17.109375 10.0625 
Q 20.3125 6.109375 25.984375 6.109375 
Q 30.171875 6.109375 33.765625 8.125 
Q 37.359375 10.15625 40.09375 14.109375 
Q 42.96875 18.21875 44.625 23.578125 
Q 46.296875 28.953125 46.296875 34.1875 
Q 46.296875 40.96875 43.09375 44.765625 
Q 39.890625 48.578125 34.28125 48.578125 
Q 30.03125 48.578125 26.359375 46.578125 
Q 22.703125 44.578125 20.125 40.828125 
Q 17.28125 36.765625 15.59375 31.390625 
Q 13.921875 26.03125 13.921875 21.09375 
z
" id="DejaVuSans-Oblique-64"/>
      </defs>
      <g transform="translate(27.45 331.900714)scale(0.15 -0.15)">
       <use xlink:href="#DejaVuSans-Oblique-70"/>
       <use transform="translate(63.476562 -16.40625)scale(0.7)" xlink:href="#DejaVuSans-Oblique-64"/>
       <use transform="translate(107.910156 -16.40625)scale(0.7)" xlink:href="#DejaVuSans-Oblique-73"/>
      </g>
     </g>
    </g>
    <g id="ytick_16">
     <g id="line2d_21">
      <g>
       <use style="stroke:#000000;stroke-width:0.8;" x="56.65" xlink:href="#medb35c7160" y="310.796046"/>
      </g>
     </g>
     <g id="text_22">
      <!-- $p_{df}$ -->
      <g transform="translate(29.25 316.003858)scale(0.15 -0.15)">
       <use xlink:href="#DejaVuSans-Oblique-70"/>
       <use transform="translate(63.476562 -16.40625)scale(0.7)" xlink:href="#DejaVuSans-Oblique-64"/>
       <use transform="translate(107.910156 -16.40625)scale(0.7)" xlink:href="#DejaVuSans-Oblique-66"/>
      </g>
     </g>
    </g>
    <g id="ytick_17">
     <g id="line2d_22">
      <g>
       <use style="stroke:#000000;stroke-width:0.8;" x="56.65" xlink:href="#medb35c7160" y="294.89919"/>
      </g>
     </g>
     <g id="text_23">
      <!-- $p_{ms}$ -->
      <defs>
       <path d="M 89.796875 33.015625 
L 83.40625 0 
L 74.421875 0 
L 80.71875 32.71875 
Q 81.109375 34.8125 81.296875 36.328125 
Q 81.5 37.84375 81.5 38.921875 
Q 81.5 43.3125 79.046875 45.75 
Q 76.609375 48.1875 72.21875 48.1875 
Q 65.671875 48.1875 60.546875 43.28125 
Q 55.421875 38.375 53.90625 30.515625 
L 47.90625 0 
L 38.921875 0 
L 45.3125 32.71875 
Q 45.703125 34.515625 45.890625 36.046875 
Q 46.09375 37.59375 46.09375 38.8125 
Q 46.09375 43.265625 43.65625 45.71875 
Q 41.21875 48.1875 36.921875 48.1875 
Q 30.28125 48.1875 25.140625 43.28125 
Q 20.015625 38.375 18.5 30.515625 
L 12.5 0 
L 3.515625 0 
L 14.203125 54.6875 
L 23.1875 54.6875 
L 21.484375 46.1875 
Q 25.140625 50.984375 30.046875 53.484375 
Q 34.96875 56 40.578125 56 
Q 46.53125 56 50.359375 52.875 
Q 54.203125 49.75 54.984375 44.1875 
Q 59.078125 49.953125 64.46875 52.96875 
Q 69.875 56 75.875 56 
Q 82.90625 56 86.734375 51.953125 
Q 90.578125 47.90625 90.578125 40.484375 
Q 90.578125 38.875 90.375 36.9375 
Q 90.1875 35.015625 89.796875 33.015625 
z
" id="DejaVuSans-Oblique-6d"/>
      </defs>
      <g transform="translate(24 300.107002)scale(0.15 -0.15)">
       <use xlink:href="#DejaVuSans-Oblique-70"/>
       <use transform="translate(63.476562 -16.40625)scale(0.7)" xlink:href="#DejaVuSans-Oblique-6d"/>
       <use transform="translate(131.665039 -16.40625)scale(0.7)" xlink:href="#DejaVuSans-Oblique-73"/>
      </g>
     </g>
    </g>
    <g id="ytick_18">
     <g id="line2d_23">
      <g>
       <use style="stroke:#000000;stroke-width:0.8;" x="56.65" xlink:href="#medb35c7160" y="279.002334"/>
      </g>
     </g>
     <g id="text_24">
      <!-- $p_{md}$ -->
      <g transform="translate(22.8 284.210146)scale(0.15 -0.15)">
       <use xlink:href="#DejaVuSans-Oblique-70"/>
       <use transform="translate(63.476562 -16.40625)scale(0.7)" xlink:href="#DejaVuSans-Oblique-6d"/>
       <use transform="translate(131.665039 -16.40625)scale(0.7)" xlink:href="#DejaVuSans-Oblique-64"/>
      </g>
     </g>
    </g>
    <g id="ytick_19">
     <g id="line2d_24">
      <g>
       <use style="stroke:#000000;stroke-width:0.8;" x="56.65" xlink:href="#medb35c7160" y="263.105478"/>
      </g>
     </g>
     <g id="text_25">
      <!-- $p_{1bie}$ -->
      <defs>
       <path d="M 49.515625 33.40625 
Q 49.515625 40.484375 46.265625 44.484375 
Q 43.015625 48.484375 37.3125 48.484375 
Q 33.15625 48.484375 29.515625 46.453125 
Q 25.875 44.4375 23.1875 40.578125 
Q 20.359375 36.53125 18.71875 31.171875 
Q 17.09375 25.828125 17.09375 20.515625 
Q 17.09375 13.765625 20.28125 9.9375 
Q 23.484375 6.109375 29.109375 6.109375 
Q 33.34375 6.109375 36.953125 8.078125 
Q 40.578125 10.0625 43.3125 13.921875 
Q 46.09375 17.921875 47.796875 23.234375 
Q 49.515625 28.5625 49.515625 33.40625 
z
M 21.578125 46.390625 
Q 24.90625 50.875 29.90625 53.4375 
Q 34.90625 56 40.375 56 
Q 48.78125 56 53.734375 50.328125 
Q 58.6875 44.671875 58.6875 35.015625 
Q 58.6875 27.09375 55.78125 19.671875 
Q 52.875 12.25 47.515625 6.5 
Q 44 2.6875 39.40625 0.625 
Q 34.8125 -1.421875 29.78125 -1.421875 
Q 24.46875 -1.421875 20.5625 1.015625 
Q 16.65625 3.46875 14.203125 8.296875 
L 12.59375 0 
L 3.609375 0 
L 18.40625 75.984375 
L 27.390625 75.984375 
z
" id="DejaVuSans-Oblique-62"/>
      </defs>
      <g transform="translate(16.95 268.31329)scale(0.15 -0.15)">
       <use xlink:href="#DejaVuSans-Oblique-70"/>
       <use transform="translate(63.476562 -16.40625)scale(0.7)" xlink:href="#DejaVuSans-31"/>
       <use transform="translate(108.012695 -16.40625)scale(0.7)" xlink:href="#DejaVuSans-Oblique-62"/>
       <use transform="translate(152.446289 -16.40625)scale(0.7)" xlink:href="#DejaVuSans-Oblique-69"/>
       <use transform="translate(171.894531 -16.40625)scale(0.7)" xlink:href="#DejaVuSans-Oblique-65"/>
      </g>
     </g>
    </g>
    <g id="ytick_20">
     <g id="line2d_25">
      <g>
       <use style="stroke:#000000;stroke-width:0.8;" x="56.65" xlink:href="#medb35c7160" y="247.208622"/>
      </g>
     </g>
     <g id="text_26">
      <!-- $p_{1bs}$ -->
      <g transform="translate(20.85 252.416434)scale(0.15 -0.15)">
       <use xlink:href="#DejaVuSans-Oblique-70"/>
       <use transform="translate(63.476562 -16.40625)scale(0.7)" xlink:href="#DejaVuSans-31"/>
       <use transform="translate(108.012695 -16.40625)scale(0.7)" xlink:href="#DejaVuSans-Oblique-62"/>
       <use transform="translate(152.446289 -16.40625)scale(0.7)" xlink:href="#DejaVuSans-Oblique-73"/>
      </g>
     </g>
    </g>
    <g id="ytick_21">
     <g id="line2d_26">
      <g>
       <use style="stroke:#000000;stroke-width:0.8;" x="56.65" xlink:href="#medb35c7160" y="231.311766"/>
      </g>
     </g>
     <g id="text_27">
      <!-- $p_{8f}$ -->
      <defs>
       <path d="M 31.78125 34.625 
Q 24.75 34.625 20.71875 30.859375 
Q 16.703125 27.09375 16.703125 20.515625 
Q 16.703125 13.921875 20.71875 10.15625 
Q 24.75 6.390625 31.78125 6.390625 
Q 38.8125 6.390625 42.859375 10.171875 
Q 46.921875 13.96875 46.921875 20.515625 
Q 46.921875 27.09375 42.890625 30.859375 
Q 38.875 34.625 31.78125 34.625 
z
M 21.921875 38.8125 
Q 15.578125 40.375 12.03125 44.71875 
Q 8.5 49.078125 8.5 55.328125 
Q 8.5 64.0625 14.71875 69.140625 
Q 20.953125 74.21875 31.78125 74.21875 
Q 42.671875 74.21875 48.875 69.140625 
Q 55.078125 64.0625 55.078125 55.328125 
Q 55.078125 49.078125 51.53125 44.71875 
Q 48 40.375 41.703125 38.8125 
Q 48.828125 37.15625 52.796875 32.3125 
Q 56.78125 27.484375 56.78125 20.515625 
Q 56.78125 9.90625 50.3125 4.234375 
Q 43.84375 -1.421875 31.78125 -1.421875 
Q 19.734375 -1.421875 13.25 4.234375 
Q 6.78125 9.90625 6.78125 20.515625 
Q 6.78125 27.484375 10.78125 32.3125 
Q 14.796875 37.15625 21.921875 38.8125 
z
M 18.3125 54.390625 
Q 18.3125 48.734375 21.84375 45.5625 
Q 25.390625 42.390625 31.78125 42.390625 
Q 38.140625 42.390625 41.71875 45.5625 
Q 45.3125 48.734375 45.3125 54.390625 
Q 45.3125 60.0625 41.71875 63.234375 
Q 38.140625 66.40625 31.78125 66.40625 
Q 25.390625 66.40625 21.84375 63.234375 
Q 18.3125 60.0625 18.3125 54.390625 
z
" id="DejaVuSans-38"/>
      </defs>
      <g transform="translate(29.25 236.519578)scale(0.15 -0.15)">
       <use xlink:href="#DejaVuSans-Oblique-70"/>
       <use transform="translate(63.476562 -16.40625)scale(0.7)" xlink:href="#DejaVuSans-38"/>
       <use transform="translate(108.012695 -16.40625)scale(0.7)" xlink:href="#DejaVuSans-Oblique-66"/>
      </g>
     </g>
    </g>
    <g id="ytick_22">
     <g id="line2d_27">
      <g>
       <use style="stroke:#000000;stroke-width:0.8;" x="56.65" xlink:href="#medb35c7160" y="215.41491"/>
      </g>
     </g>
     <g id="text_28">
      <!-- $n_{ALP}$ -->
      <defs>
       <path d="M 55.71875 33.015625 
L 49.3125 0 
L 40.28125 0 
L 46.6875 32.671875 
Q 47.125 34.96875 47.359375 36.71875 
Q 47.609375 38.484375 47.609375 39.5 
Q 47.609375 43.609375 45.015625 45.890625 
Q 42.4375 48.1875 37.796875 48.1875 
Q 30.5625 48.1875 25.34375 43.375 
Q 20.125 38.578125 18.5 30.328125 
L 12.5 0 
L 3.515625 0 
L 14.109375 54.6875 
L 23.09375 54.6875 
L 21.296875 46.09375 
Q 25.046875 50.828125 30.3125 53.40625 
Q 35.59375 56 41.40625 56 
Q 48.640625 56 52.609375 52.09375 
Q 56.59375 48.1875 56.59375 41.109375 
Q 56.59375 39.359375 56.375 37.359375 
Q 56.15625 35.359375 55.71875 33.015625 
z
" id="DejaVuSans-Oblique-6e"/>
      </defs>
      <g transform="translate(20.25 220.622722)scale(0.15 -0.15)">
       <use xlink:href="#DejaVuSans-Oblique-6e"/>
       <use transform="translate(63.378906 -16.40625)scale(0.7)" xlink:href="#DejaVuSans-Oblique-41"/>
       <use transform="translate(111.264648 -16.40625)scale(0.7)" xlink:href="#DejaVuSans-Oblique-4c"/>
       <use transform="translate(150.263672 -16.40625)scale(0.7)" xlink:href="#DejaVuSans-Oblique-50"/>
      </g>
     </g>
    </g>
    <g id="ytick_23">
     <g id="line2d_28">
      <g>
       <use style="stroke:#000000;stroke-width:0.8;" x="56.65" xlink:href="#medb35c7160" y="199.518054"/>
      </g>
     </g>
     <g id="text_29">
      <!-- $n_{ARS}$ -->
      <g transform="translate(18.45 204.725866)scale(0.15 -0.15)">
       <use xlink:href="#DejaVuSans-Oblique-6e"/>
       <use transform="translate(63.378906 -16.40625)scale(0.7)" xlink:href="#DejaVuSans-Oblique-41"/>
       <use transform="translate(111.264648 -16.40625)scale(0.7)" xlink:href="#DejaVuSans-Oblique-52"/>
       <use transform="translate(159.902344 -16.40625)scale(0.7)" xlink:href="#DejaVuSans-Oblique-53"/>
      </g>
     </g>
    </g>
    <g id="ytick_24">
     <g id="line2d_29">
      <g>
       <use style="stroke:#000000;stroke-width:0.8;" x="56.65" xlink:href="#medb35c7160" y="183.621198"/>
      </g>
     </g>
     <g id="text_30">
      <!-- $n_{OC}$ -->
      <g transform="translate(24 188.82901)scale(0.15 -0.15)">
       <use xlink:href="#DejaVuSans-Oblique-6e"/>
       <use transform="translate(63.378906 -16.40625)scale(0.7)" xlink:href="#DejaVuSans-Oblique-4f"/>
       <use transform="translate(118.476562 -16.40625)scale(0.7)" xlink:href="#DejaVuSans-Oblique-43"/>
      </g>
     </g>
    </g>
    <g id="ytick_25">
     <g id="line2d_30">
      <g>
       <use style="stroke:#000000;stroke-width:0.8;" x="56.65" xlink:href="#medb35c7160" y="167.724342"/>
      </g>
     </g>
     <g id="text_31">
      <!-- $\beta_{ALP}$ -->
      <defs>
       <path d="M 13.625 3.375 
L 8.9375 -20.796875 
L -0.09375 -20.796875 
L 14.5 54.34375 
Q 18.84375 76.609375 39.65625 76.609375 
Q 60.75 76.609375 57.171875 57.8125 
Q 54.734375 44.4375 45.21875 39.546875 
Q 58.015625 35.15625 55.515625 22.125 
Q 51.125 -1.078125 27.484375 -1.03125 
Q 17.140625 -0.984375 13.625 3.375 
z
M 15.921875 15.09375 
Q 19.671875 6.59375 29.296875 6.640625 
Q 43.359375 6.640625 46.34375 21.96875 
Q 49.03125 35.75 26.171875 34.671875 
L 27.78125 42.96875 
Q 45.453125 42.671875 48.53125 58.59375 
Q 50.640625 69.34375 39.203125 69.28125 
Q 26.421875 69.28125 23.484375 54.046875 
z
" id="DejaVuSans-Oblique-3b2"/>
      </defs>
      <g transform="translate(20.25 173.470045)scale(0.15 -0.15)">
       <use transform="translate(0 0.390625)" xlink:href="#DejaVuSans-Oblique-3b2"/>
       <use transform="translate(63.818359 -16.015625)scale(0.7)" xlink:href="#DejaVuSans-Oblique-41"/>
       <use transform="translate(111.704102 -16.015625)scale(0.7)" xlink:href="#DejaVuSans-Oblique-4c"/>
       <use transform="translate(150.703125 -16.015625)scale(0.7)" xlink:href="#DejaVuSans-Oblique-50"/>
      </g>
     </g>
    </g>
    <g id="ytick_26">
     <g id="line2d_31">
      <g>
       <use style="stroke:#000000;stroke-width:0.8;" x="56.65" xlink:href="#medb35c7160" y="151.827486"/>
      </g>
     </g>
     <g id="text_32">
      <!-- $\beta_{ARS}$ -->
      <g transform="translate(18.45 157.573189)scale(0.15 -0.15)">
       <use transform="translate(0 0.390625)" xlink:href="#DejaVuSans-Oblique-3b2"/>
       <use transform="translate(63.818359 -16.015625)scale(0.7)" xlink:href="#DejaVuSans-Oblique-41"/>
       <use transform="translate(111.704102 -16.015625)scale(0.7)" xlink:href="#DejaVuSans-Oblique-52"/>
       <use transform="translate(160.341797 -16.015625)scale(0.7)" xlink:href="#DejaVuSans-Oblique-53"/>
      </g>
     </g>
    </g>
    <g id="ytick_27">
     <g id="line2d_32">
      <g>
       <use style="stroke:#000000;stroke-width:0.8;" x="56.65" xlink:href="#medb35c7160" y="135.93063"/>
      </g>
     </g>
     <g id="text_33">
      <!-- $\beta_{OC}$ -->
      <g transform="translate(24 141.676333)scale(0.15 -0.15)">
       <use transform="translate(0 0.390625)" xlink:href="#DejaVuSans-Oblique-3b2"/>
       <use transform="translate(63.818359 -16.015625)scale(0.7)" xlink:href="#DejaVuSans-Oblique-4f"/>
       <use transform="translate(118.916016 -16.015625)scale(0.7)" xlink:href="#DejaVuSans-Oblique-43"/>
      </g>
     </g>
    </g>
    <g id="ytick_28">
     <g id="line2d_33">
      <g>
       <use style="stroke:#000000;stroke-width:0.8;" x="56.65" xlink:href="#medb35c7160" y="120.033774"/>
      </g>
     </g>
     <g id="text_34">
      <!-- $T_{d}$ -->
      <defs>
       <path d="M 5.90625 72.90625 
L 67.578125 72.90625 
L 66.015625 64.59375 
L 39.984375 64.59375 
L 27.484375 0 
L 17.578125 0 
L 30.078125 64.59375 
L 4.296875 64.59375 
z
" id="DejaVuSans-Oblique-54"/>
      </defs>
      <g transform="translate(33.3 125.254477)scale(0.15 -0.15)">
       <use transform="translate(0 0.09375)" xlink:href="#DejaVuSans-Oblique-54"/>
       <use transform="translate(61.083984 -16.3125)scale(0.7)" xlink:href="#DejaVuSans-Oblique-64"/>
      </g>
     </g>
    </g>
    <g id="ytick_29">
     <g id="line2d_34">
      <g>
       <use style="stroke:#000000;stroke-width:0.8;" x="56.65" xlink:href="#medb35c7160" y="104.136917"/>
      </g>
     </g>
     <g id="text_35">
      <!-- $M_{t}$ -->
      <defs>
       <path d="M 16.890625 72.90625 
L 31.6875 72.90625 
L 40.1875 23.78125 
L 68.40625 72.90625 
L 83.59375 72.90625 
L 69.390625 0 
L 59.8125 0 
L 72.21875 63.921875 
L 43.609375 14.015625 
L 33.984375 14.015625 
L 24.703125 64.109375 
L 12.3125 0 
L 2.6875 0 
z
" id="DejaVuSans-Oblique-4d"/>
       <path d="M 42.28125 54.6875 
L 40.921875 47.703125 
L 23 47.703125 
L 17.1875 18.015625 
Q 16.890625 16.359375 16.75 15.234375 
Q 16.609375 14.109375 16.609375 13.484375 
Q 16.609375 10.359375 18.484375 8.9375 
Q 20.359375 7.515625 24.515625 7.515625 
L 33.59375 7.515625 
L 32.078125 0 
L 23.484375 0 
Q 15.484375 0 11.546875 3.125 
Q 7.625 6.25 7.625 12.59375 
Q 7.625 13.71875 7.765625 15.0625 
Q 7.90625 16.40625 8.203125 18.015625 
L 14.015625 47.703125 
L 6.390625 47.703125 
L 7.8125 54.6875 
L 15.28125 54.6875 
L 18.3125 70.21875 
L 27.296875 70.21875 
L 24.3125 54.6875 
z
" id="DejaVuSans-Oblique-74"/>
      </defs>
      <g transform="translate(32.1 109.34473)scale(0.15 -0.15)">
       <use transform="translate(0 0.09375)" xlink:href="#DejaVuSans-Oblique-4d"/>
       <use transform="translate(86.279297 -16.3125)scale(0.7)" xlink:href="#DejaVuSans-Oblique-74"/>
      </g>
     </g>
    </g>
   </g>
   <g id="patch_3">
    <path d="M 56.65 576.0144 
L 56.65 77.0544 
" style="fill:none;stroke:#000000;stroke-linecap:square;stroke-linejoin:miter;stroke-width:0.8;"/>
   </g>
   <g id="patch_4">
    <path d="M 224.05 576.0144 
L 224.05 77.0544 
" style="fill:none;stroke:#000000;stroke-linecap:square;stroke-linejoin:miter;stroke-width:0.8;"/>
   </g>
   <g id="patch_5">
    <path d="M 56.65 576.0144 
L 224.05 576.0144 
" style="fill:none;stroke:#000000;stroke-linecap:square;stroke-linejoin:miter;stroke-width:0.8;"/>
   </g>
   <g id="patch_6">
    <path d="M 56.65 77.0544 
L 224.05 77.0544 
" style="fill:none;stroke:#000000;stroke-linecap:square;stroke-linejoin:miter;stroke-width:0.8;"/>
   </g>
   <g id="legend_1">
    <g id="patch_7">
     <path d="M 45.858 66.291094 
L 232.87925 66.291094 
Q 235.47925 66.291094 235.47925 63.691094 
L 235.47925 9.8 
Q 235.47925 7.2 232.87925 7.2 
L 45.858 7.2 
Q 43.258 7.2 43.258 9.8 
L 43.258 63.691094 
Q 43.258 66.291094 45.858 66.291094 
z
" style="fill:#ffffff;opacity:0.8;stroke:#cccccc;stroke-linejoin:miter;"/>
    </g>
    <g id="PathCollection_68">
     <g>
      <use style="fill:#4b0082;fill-opacity:0.8;stroke:#4b0082;stroke-opacity:0.8;stroke-width:1.5;" x="61.458" xlink:href="#m2fd10a0fae" y="18.0875"/>
     </g>
    </g>
    <g id="text_36">
     <!-- Chen -->
     <defs>
      <path d="M 60.203125 67.71875 
L 61.71875 45.21875 
L 60.203125 45.21875 
Q 57.171875 55.328125 51.5625 59.765625 
Q 45.953125 64.203125 38.09375 64.203125 
Q 31.5 64.203125 26.171875 60.859375 
Q 20.84375 57.515625 17.796875 50.1875 
Q 14.75 42.875 14.75 31.984375 
Q 14.75 23 17.625 16.40625 
Q 20.515625 9.8125 26.296875 6.296875 
Q 32.078125 2.78125 39.5 2.78125 
Q 45.953125 2.78125 50.875 5.53125 
Q 55.8125 8.296875 61.71875 16.5 
L 63.234375 15.53125 
Q 58.25 6.6875 51.609375 2.578125 
Q 44.96875 -1.515625 35.84375 -1.515625 
Q 19.390625 -1.515625 10.359375 10.6875 
Q 3.609375 19.78125 3.609375 32.078125 
Q 3.609375 42 8.046875 50.296875 
Q 12.5 58.59375 20.28125 63.15625 
Q 28.078125 67.71875 37.3125 67.71875 
Q 44.484375 67.71875 51.46875 64.203125 
Q 53.515625 63.140625 54.390625 63.140625 
Q 55.71875 63.140625 56.6875 64.0625 
Q 57.953125 65.375 58.5 67.71875 
z
" id="TimesNewRomanPSMT-43"/>
      <path d="M 16.265625 69.4375 
L 16.265625 36.71875 
Q 21.6875 42.671875 24.859375 44.359375 
Q 28.03125 46.046875 31.203125 46.046875 
Q 35.015625 46.046875 37.75 43.9375 
Q 40.484375 41.84375 41.796875 37.359375 
Q 42.71875 34.234375 42.71875 25.921875 
L 42.71875 10.109375 
Q 42.71875 5.859375 43.40625 4.296875 
Q 43.890625 3.125 45.0625 2.4375 
Q 46.234375 1.765625 49.359375 1.765625 
L 49.359375 0 
L 27.390625 0 
L 27.390625 1.765625 
L 28.421875 1.765625 
Q 31.546875 1.765625 32.765625 2.703125 
Q 33.984375 3.65625 34.46875 5.515625 
Q 34.625 6.296875 34.625 10.109375 
L 34.625 25.921875 
Q 34.625 33.25 33.859375 35.546875 
Q 33.109375 37.84375 31.4375 38.984375 
Q 29.78125 40.140625 27.4375 40.140625 
Q 25.046875 40.140625 22.453125 38.859375 
Q 19.875 37.59375 16.265625 33.734375 
L 16.265625 10.109375 
Q 16.265625 5.515625 16.765625 4.390625 
Q 17.28125 3.265625 18.671875 2.515625 
Q 20.0625 1.765625 23.484375 1.765625 
L 23.484375 0 
L 1.3125 0 
L 1.3125 1.765625 
Q 4.296875 1.765625 6 2.6875 
Q 6.984375 3.171875 7.5625 4.53125 
Q 8.15625 5.90625 8.15625 10.109375 
L 8.15625 50.59375 
Q 8.15625 58.25 7.78125 60 
Q 7.421875 61.765625 6.65625 62.390625 
Q 5.90625 63.03125 4.640625 63.03125 
Q 3.609375 63.03125 1.3125 62.25 
L 0.640625 63.96875 
L 14.015625 69.4375 
z
" id="TimesNewRomanPSMT-68"/>
      <path d="M 16.15625 36.578125 
Q 24.03125 46.046875 31.15625 46.046875 
Q 34.8125 46.046875 37.453125 44.21875 
Q 40.09375 42.390625 41.65625 38.1875 
Q 42.71875 35.25 42.71875 29.203125 
L 42.71875 10.109375 
Q 42.71875 5.859375 43.40625 4.34375 
Q 43.953125 3.125 45.140625 2.4375 
Q 46.34375 1.765625 49.5625 1.765625 
L 49.5625 0 
L 27.4375 0 
L 27.4375 1.765625 
L 28.375 1.765625 
Q 31.5 1.765625 32.734375 2.703125 
Q 33.984375 3.65625 34.46875 5.515625 
Q 34.671875 6.25 34.671875 10.109375 
L 34.671875 28.421875 
Q 34.671875 34.515625 33.078125 37.28125 
Q 31.5 40.046875 27.734375 40.046875 
Q 21.921875 40.046875 16.15625 33.6875 
L 16.15625 10.109375 
Q 16.15625 5.5625 16.703125 4.5 
Q 17.390625 3.078125 18.578125 2.421875 
Q 19.78125 1.765625 23.4375 1.765625 
L 23.4375 0 
L 1.3125 0 
L 1.3125 1.765625 
L 2.296875 1.765625 
Q 5.71875 1.765625 6.90625 3.484375 
Q 8.109375 5.21875 8.109375 10.109375 
L 8.109375 26.703125 
Q 8.109375 34.765625 7.734375 36.515625 
Q 7.375 38.28125 6.609375 38.90625 
Q 5.859375 39.546875 4.59375 39.546875 
Q 3.21875 39.546875 1.3125 38.8125 
L 0.59375 40.578125 
L 14.0625 46.046875 
L 16.15625 46.046875 
z
" id="TimesNewRomanPSMT-6e"/>
     </defs>
     <g transform="translate(84.858 21.5)scale(0.13 -0.13)">
      <use xlink:href="#TimesNewRomanPSMT-43"/>
      <use x="66.699219" xlink:href="#TimesNewRomanPSMT-68"/>
      <use x="116.699219" xlink:href="#TimesNewRomanPSMT-65"/>
      <use x="161.083984" xlink:href="#TimesNewRomanPSMT-6e"/>
     </g>
    </g>
    <g id="PathCollection_69">
     <g>
      <use style="fill:#8b0000;fill-opacity:0.8;stroke:#8b0000;stroke-opacity:0.8;stroke-width:1.5;" x="61.458" xlink:href="#m46bb117435" y="36.468281"/>
     </g>
    </g>
    <g id="text_37">
     <!-- Qiao_IL -->
     <defs>
      <path d="M 44.046875 -0.734375 
Q 49.03125 -9.328125 54.8125 -13.375 
Q 60.59375 -17.4375 67.96875 -18.015625 
L 67.96875 -19.578125 
Q 61.234375 -19.34375 53.5625 -16.875 
Q 45.90625 -14.40625 39.03125 -10.03125 
Q 32.171875 -5.671875 27.203125 -0.734375 
Q 20.171875 2.09375 16.0625 5.28125 
Q 10.109375 10.015625 6.8125 16.921875 
Q 3.515625 23.828125 3.515625 33.25 
Q 3.515625 48.09375 13.125 57.90625 
Q 22.75 67.71875 36.421875 67.71875 
Q 49.421875 67.71875 58.90625 57.875 
Q 68.40625 48.046875 68.40625 33.0625 
Q 68.40625 20.90625 61.640625 11.71875 
Q 54.890625 2.546875 44.046875 -0.734375 
z
M 35.84375 63.96875 
Q 26.953125 63.96875 21.53125 57.625 
Q 14.703125 49.65625 14.703125 33.25 
Q 14.703125 17.1875 21.625 8.5 
Q 27 1.8125 35.84375 1.8125 
Q 45.015625 1.8125 50.640625 8.5 
Q 57.234375 16.40625 57.234375 31.84375 
Q 57.234375 43.703125 53.609375 51.8125 
Q 50.828125 58.0625 46.21875 61.015625 
Q 41.609375 63.96875 35.84375 63.96875 
z
" id="TimesNewRomanPSMT-51"/>
      <path d="M 14.5 69.4375 
Q 16.546875 69.4375 17.984375 67.984375 
Q 19.4375 66.546875 19.4375 64.5 
Q 19.4375 62.453125 17.984375 60.984375 
Q 16.546875 59.515625 14.5 59.515625 
Q 12.453125 59.515625 10.984375 60.984375 
Q 9.515625 62.453125 9.515625 64.5 
Q 9.515625 66.546875 10.953125 67.984375 
Q 12.40625 69.4375 14.5 69.4375 
z
M 18.5625 46.046875 
L 18.5625 10.109375 
Q 18.5625 5.90625 19.171875 4.515625 
Q 19.78125 3.125 20.96875 2.4375 
Q 22.171875 1.765625 25.34375 1.765625 
L 25.34375 0 
L 3.609375 0 
L 3.609375 1.765625 
Q 6.890625 1.765625 8 2.390625 
Q 9.125 3.03125 9.78125 4.484375 
Q 10.453125 5.953125 10.453125 10.109375 
L 10.453125 27.34375 
Q 10.453125 34.625 10.015625 36.765625 
Q 9.671875 38.328125 8.9375 38.9375 
Q 8.203125 39.546875 6.9375 39.546875 
Q 5.5625 39.546875 3.609375 38.8125 
L 2.9375 40.578125 
L 16.40625 46.046875 
z
" id="TimesNewRomanPSMT-69"/>
      <path d="M 25 46.046875 
Q 35.15625 46.046875 41.3125 38.328125 
Q 46.53125 31.734375 46.53125 23.1875 
Q 46.53125 17.1875 43.640625 11.03125 
Q 40.765625 4.890625 35.71875 1.75 
Q 30.671875 -1.375 24.46875 -1.375 
Q 14.359375 -1.375 8.40625 6.6875 
Q 3.375 13.484375 3.375 21.921875 
Q 3.375 28.078125 6.421875 34.15625 
Q 9.46875 40.234375 14.453125 43.140625 
Q 19.4375 46.046875 25 46.046875 
z
M 23.484375 42.875 
Q 20.90625 42.875 18.28125 41.328125 
Q 15.671875 39.796875 14.0625 35.9375 
Q 12.453125 32.078125 12.453125 26.03125 
Q 12.453125 16.265625 16.328125 9.171875 
Q 20.21875 2.09375 26.5625 2.09375 
Q 31.296875 2.09375 34.375 6 
Q 37.453125 9.90625 37.453125 19.4375 
Q 37.453125 31.34375 32.328125 38.1875 
Q 28.859375 42.875 23.484375 42.875 
z
" id="TimesNewRomanPSMT-6f"/>
      <path d="M 50.875 -21.578125 
L -0.828125 -21.578125 
L -0.828125 -17.484375 
L 50.875 -17.484375 
z
" id="TimesNewRomanPSMT-5f"/>
      <path d="M 30.859375 1.8125 
L 30.859375 0 
L 2.484375 0 
L 2.484375 1.8125 
L 4.828125 1.8125 
Q 8.9375 1.8125 10.796875 4.203125 
Q 11.96875 5.765625 11.96875 11.71875 
L 11.96875 54.5 
Q 11.96875 59.515625 11.328125 61.140625 
Q 10.84375 62.359375 9.328125 63.234375 
Q 7.171875 64.40625 4.828125 64.40625 
L 2.484375 64.40625 
L 2.484375 66.21875 
L 30.859375 66.21875 
L 30.859375 64.40625 
L 28.46875 64.40625 
Q 24.421875 64.40625 22.5625 62.015625 
Q 21.34375 60.453125 21.34375 54.5 
L 21.34375 11.71875 
Q 21.34375 6.6875 21.96875 5.078125 
Q 22.46875 3.859375 24.03125 2.984375 
Q 26.125 1.8125 28.46875 1.8125 
z
" id="TimesNewRomanPSMT-49"/>
      <path d="M 57.328125 18.3125 
L 58.9375 17.96875 
L 53.265625 0 
L 2 0 
L 2 1.8125 
L 4.5 1.8125 
Q 8.6875 1.8125 10.5 4.546875 
Q 11.53125 6.109375 11.53125 11.765625 
L 11.53125 54.5 
Q 11.53125 60.6875 10.15625 62.25 
Q 8.25 64.40625 4.5 64.40625 
L 2 64.40625 
L 2 66.21875 
L 31.984375 66.21875 
L 31.984375 64.40625 
Q 26.703125 64.453125 24.578125 63.421875 
Q 22.46875 62.40625 21.6875 60.84375 
Q 20.90625 59.28125 20.90625 53.375 
L 20.90625 11.765625 
Q 20.90625 7.71875 21.6875 6.203125 
Q 22.265625 5.171875 23.484375 4.6875 
Q 24.703125 4.203125 31.109375 4.203125 
L 35.9375 4.203125 
Q 43.5625 4.203125 46.625 5.328125 
Q 49.703125 6.453125 52.234375 9.296875 
Q 54.78125 12.15625 57.328125 18.3125 
z
" id="TimesNewRomanPSMT-4c"/>
     </defs>
     <g transform="translate(84.858 39.880781)scale(0.13 -0.13)">
      <use xlink:href="#TimesNewRomanPSMT-51"/>
      <use x="72.216797" xlink:href="#TimesNewRomanPSMT-69"/>
      <use x="100" xlink:href="#TimesNewRomanPSMT-61"/>
      <use x="144.384766" xlink:href="#TimesNewRomanPSMT-6f"/>
      <use x="194.384766" xlink:href="#TimesNewRomanPSMT-5f"/>
      <use x="244.384766" xlink:href="#TimesNewRomanPSMT-49"/>
      <use x="277.685547" xlink:href="#TimesNewRomanPSMT-4c"/>
     </g>
    </g>
    <g id="PathCollection_70">
     <g>
      <use style="fill:#808000;fill-opacity:0.8;stroke:#808000;stroke-opacity:0.8;stroke-width:1.5;" x="61.458" xlink:href="#m67281615a3" y="54.873437"/>
     </g>
    </g>
    <g id="text_38">
     <!-- Qiao_Mg -->
     <defs>
      <path d="M 40.921875 0 
L 15.328125 55.71875 
L 15.328125 11.46875 
Q 15.328125 5.375 16.65625 3.859375 
Q 18.453125 1.8125 22.359375 1.8125 
L 24.703125 1.8125 
L 24.703125 0 
L 1.65625 0 
L 1.65625 1.8125 
L 4 1.8125 
Q 8.203125 1.8125 9.96875 4.34375 
Q 11.03125 5.90625 11.03125 11.46875 
L 11.03125 54.734375 
Q 11.03125 59.125 10.0625 61.078125 
Q 9.375 62.5 7.546875 63.453125 
Q 5.71875 64.40625 1.65625 64.40625 
L 1.65625 66.21875 
L 20.40625 66.21875 
L 44.4375 14.40625 
L 68.0625 66.21875 
L 86.8125 66.21875 
L 86.8125 64.40625 
L 84.515625 64.40625 
Q 80.28125 64.40625 78.515625 61.859375 
Q 77.4375 60.296875 77.4375 54.734375 
L 77.4375 11.46875 
Q 77.4375 5.375 78.8125 3.859375 
Q 80.609375 1.8125 84.515625 1.8125 
L 86.8125 1.8125 
L 86.8125 0 
L 58.6875 0 
L 58.6875 1.8125 
L 61.03125 1.8125 
Q 65.28125 1.8125 67 4.34375 
Q 68.0625 5.90625 68.0625 11.46875 
L 68.0625 55.71875 
L 42.53125 0 
z
" id="TimesNewRomanPSMT-4d"/>
      <path d="M 15.09375 16.3125 
Q 10.984375 18.3125 8.78125 21.890625 
Q 6.59375 25.484375 6.59375 29.828125 
Q 6.59375 36.46875 11.59375 41.25 
Q 16.609375 46.046875 24.421875 46.046875 
Q 30.8125 46.046875 35.5 42.921875 
L 44.96875 42.921875 
Q 47.078125 42.921875 47.40625 42.796875 
Q 47.75 42.671875 47.90625 42.390625 
Q 48.1875 41.9375 48.1875 40.828125 
Q 48.1875 39.546875 47.953125 39.0625 
Q 47.796875 38.8125 47.4375 38.671875 
Q 47.078125 38.53125 44.96875 38.53125 
L 39.15625 38.53125 
Q 41.890625 35.015625 41.890625 29.546875 
Q 41.890625 23.296875 37.109375 18.84375 
Q 32.328125 14.40625 24.265625 14.40625 
Q 20.953125 14.40625 17.484375 15.375 
Q 15.328125 13.53125 14.5625 12.140625 
Q 13.8125 10.75 13.8125 9.765625 
Q 13.8125 8.9375 14.625 8.15625 
Q 15.4375 7.375 17.78125 7.03125 
Q 19.140625 6.84375 24.609375 6.6875 
Q 34.671875 6.453125 37.640625 6 
Q 42.1875 5.375 44.890625 2.640625 
Q 47.609375 -0.09375 47.609375 -4.109375 
Q 47.609375 -9.625 42.4375 -14.453125 
Q 34.8125 -21.578125 22.5625 -21.578125 
Q 13.140625 -21.578125 6.640625 -17.328125 
Q 2.984375 -14.890625 2.984375 -12.25 
Q 2.984375 -11.078125 3.515625 -9.90625 
Q 4.34375 -8.109375 6.9375 -4.890625 
Q 7.28125 -4.4375 11.921875 0.390625 
Q 9.375 1.90625 8.328125 3.09375 
Q 7.28125 4.296875 7.28125 5.8125 
Q 7.28125 7.515625 8.671875 9.8125 
Q 10.0625 12.109375 15.09375 16.3125 
z
M 23.578125 43.703125 
Q 19.96875 43.703125 17.53125 40.8125 
Q 15.09375 37.9375 15.09375 31.984375 
Q 15.09375 24.265625 18.40625 20.015625 
Q 20.953125 16.796875 24.859375 16.796875 
Q 28.5625 16.796875 30.953125 19.578125 
Q 33.34375 22.359375 33.34375 28.328125 
Q 33.34375 36.078125 29.984375 40.484375 
Q 27.484375 43.703125 23.578125 43.703125 
z
M 14.59375 0 
Q 12.3125 -2.484375 11.140625 -4.625 
Q 9.96875 -6.78125 9.96875 -8.59375 
Q 9.96875 -10.9375 12.796875 -12.703125 
Q 17.671875 -15.71875 26.90625 -15.71875 
Q 35.6875 -15.71875 39.859375 -12.609375 
Q 44.046875 -9.515625 44.046875 -6 
Q 44.046875 -3.46875 41.546875 -2.390625 
Q 39.015625 -1.3125 31.5 -1.125 
Q 20.515625 -0.828125 14.59375 0 
z
" id="TimesNewRomanPSMT-67"/>
     </defs>
     <g transform="translate(84.858 58.285937)scale(0.13 -0.13)">
      <use xlink:href="#TimesNewRomanPSMT-51"/>
      <use x="72.216797" xlink:href="#TimesNewRomanPSMT-69"/>
      <use x="100" xlink:href="#TimesNewRomanPSMT-61"/>
      <use x="144.384766" xlink:href="#TimesNewRomanPSMT-6f"/>
      <use x="194.384766" xlink:href="#TimesNewRomanPSMT-5f"/>
      <use x="244.384766" xlink:href="#TimesNewRomanPSMT-4d"/>
      <use x="333.300781" xlink:href="#TimesNewRomanPSMT-67"/>
     </g>
    </g>
    <g id="PathCollection_71">
     <g>
      <use style="fill:#4169e1;fill-opacity:0.8;stroke:#4169e1;stroke-opacity:0.8;stroke-width:1.5;" x="173.688625" xlink:href="#m389ca29c87" y="18.0875"/>
     </g>
    </g>
    <g id="text_39">
     <!-- Valles -->
     <defs>
      <path d="M 71 66.21875 
L 71 64.40625 
Q 67.484375 63.765625 65.671875 62.15625 
Q 63.09375 59.765625 61.078125 54.828125 
L 37.984375 -1.515625 
L 36.1875 -1.515625 
L 11.375 55.5625 
Q 9.46875 59.96875 8.6875 60.9375 
Q 7.46875 62.453125 5.6875 63.296875 
Q 3.90625 64.15625 0.875 64.40625 
L 0.875 66.21875 
L 27.9375 66.21875 
L 27.9375 64.40625 
Q 23.34375 63.96875 21.96875 62.84375 
Q 20.609375 61.71875 20.609375 59.96875 
Q 20.609375 57.515625 22.859375 52.34375 
L 39.703125 13.53125 
L 55.328125 51.859375 
Q 57.625 57.515625 57.625 59.71875 
Q 57.625 61.140625 56.203125 62.421875 
Q 54.78125 63.71875 51.421875 64.265625 
Q 51.171875 64.3125 50.59375 64.40625 
L 50.59375 66.21875 
z
" id="TimesNewRomanPSMT-56"/>
     </defs>
     <g transform="translate(197.088625 21.5)scale(0.13 -0.13)">
      <use xlink:href="#TimesNewRomanPSMT-56"/>
      <use x="72.044922" xlink:href="#TimesNewRomanPSMT-61"/>
      <use x="116.429688" xlink:href="#TimesNewRomanPSMT-6c"/>
      <use x="144.212891" xlink:href="#TimesNewRomanPSMT-6c"/>
      <use x="171.996094" xlink:href="#TimesNewRomanPSMT-65"/>
      <use x="216.380859" xlink:href="#TimesNewRomanPSMT-73"/>
     </g>
    </g>
    <g id="PathCollection_72">
     <g>
      <use style="fill:#ff0000;fill-opacity:0.8;stroke:#ff0000;stroke-opacity:0.8;stroke-width:1.5;" x="173.688625" xlink:href="#ma37735aada" y="36.468281"/>
     </g>
    </g>
    <g id="text_40">
     <!-- Ber -->
     <defs>
      <path d="M 46.1875 33.796875 
Q 53.078125 32.328125 56.5 29.109375 
Q 61.234375 24.609375 61.234375 18.109375 
Q 61.234375 13.1875 58.109375 8.671875 
Q 54.984375 4.15625 49.53125 2.078125 
Q 44.09375 0 32.90625 0 
L 1.65625 0 
L 1.65625 1.8125 
L 4.15625 1.8125 
Q 8.296875 1.8125 10.109375 4.4375 
Q 11.234375 6.15625 11.234375 11.71875 
L 11.234375 54.5 
Q 11.234375 60.640625 9.8125 62.25 
Q 7.90625 64.40625 4.15625 64.40625 
L 1.65625 64.40625 
L 1.65625 66.21875 
L 30.28125 66.21875 
Q 38.28125 66.21875 43.109375 65.046875 
Q 50.4375 63.28125 54.296875 58.8125 
Q 58.15625 54.34375 58.15625 48.53125 
Q 58.15625 43.5625 55.125 39.625 
Q 52.09375 35.6875 46.1875 33.796875 
z
M 20.609375 36.421875 
Q 22.40625 36.078125 24.71875 35.90625 
Q 27.046875 35.75 29.828125 35.75 
Q 36.96875 35.75 40.546875 37.28125 
Q 44.140625 38.8125 46.046875 41.984375 
Q 47.953125 45.171875 47.953125 48.921875 
Q 47.953125 54.734375 43.21875 58.828125 
Q 38.484375 62.9375 29.390625 62.9375 
Q 24.515625 62.9375 20.609375 61.859375 
z
M 20.609375 4.78125 
Q 26.265625 3.46875 31.78125 3.46875 
Q 40.625 3.46875 45.265625 7.4375 
Q 49.90625 11.421875 49.90625 17.28125 
Q 49.90625 21.140625 47.796875 24.703125 
Q 45.703125 28.265625 40.96875 30.3125 
Q 36.234375 32.375 29.25 32.375 
Q 26.21875 32.375 24.0625 32.265625 
Q 21.921875 32.171875 20.609375 31.9375 
z
" id="TimesNewRomanPSMT-42"/>
      <path d="M 16.21875 46.046875 
L 16.21875 35.984375 
Q 21.828125 46.046875 27.734375 46.046875 
Q 30.421875 46.046875 32.171875 44.40625 
Q 33.9375 42.78125 33.9375 40.625 
Q 33.9375 38.71875 32.65625 37.390625 
Q 31.390625 36.078125 29.640625 36.078125 
Q 27.9375 36.078125 25.8125 37.765625 
Q 23.6875 39.453125 22.65625 39.453125 
Q 21.78125 39.453125 20.75 38.484375 
Q 18.5625 36.46875 16.21875 31.890625 
L 16.21875 10.453125 
Q 16.21875 6.734375 17.140625 4.828125 
Q 17.78125 3.515625 19.390625 2.640625 
Q 21 1.765625 24.03125 1.765625 
L 24.03125 0 
L 1.125 0 
L 1.125 1.765625 
Q 4.546875 1.765625 6.203125 2.828125 
Q 7.421875 3.609375 7.90625 5.328125 
Q 8.15625 6.15625 8.15625 10.0625 
L 8.15625 27.390625 
Q 8.15625 35.203125 7.828125 36.6875 
Q 7.515625 38.1875 6.65625 38.859375 
Q 5.8125 39.546875 4.546875 39.546875 
Q 3.03125 39.546875 1.125 38.8125 
L 0.640625 40.578125 
L 14.15625 46.046875 
z
" id="TimesNewRomanPSMT-72"/>
     </defs>
     <g transform="translate(197.088625 39.880781)scale(0.13 -0.13)">
      <use xlink:href="#TimesNewRomanPSMT-42"/>
      <use x="66.699219" xlink:href="#TimesNewRomanPSMT-65"/>
      <use x="111.083984" xlink:href="#TimesNewRomanPSMT-72"/>
     </g>
    </g>
   </g>
  </g>
 </g>
 <defs>
  <clipPath id="p7d51885ba9">
   <rect height="498.96" width="167.4" x="56.65" y="77.0544"/>
  </clipPath>
 </defs>
</svg>
